<?xml version="1.0" encoding="utf-8"?>
<!-- Generator: Adobe Illustrator 17.0.0, SVG Export Plug-In . SVG Version: 6.00 Build 0)  -->
<!DOCTYPE svg PUBLIC "-//W3C//DTD SVG 1.1//EN" "http://www.w3.org/Graphics/SVG/1.1/DTD/svg11.dtd">
<svg version="1.1" id="Layer_1" xmlns="http://www.w3.org/2000/svg" xmlns:xlink="http://www.w3.org/1999/xlink" x="0px" y="0px"
	 width="351.5px" height="68.5px" viewBox="0 0 351.5 68.5" enable-background="new 0 0 351.5 68.5" xml:space="preserve">
<path fill="#F1F2F2" stroke="#E6E7E8" stroke-miterlimit="10" d="M64.114,58.108V14.785h15.964c5.903,0,10.643,2.09,14.219,6.268
	c3.576,4.179,5.364,9.337,5.364,15.473c0,6.136-1.841,11.267-5.522,15.393s-8.95,6.189-15.806,6.189H64.114z M72.144,51.728h6.506
	c3.491,0,6.453-1.312,8.887-3.936c2.433-2.624,3.65-6.527,3.65-11.711c0-4.231-1.063-7.812-3.189-10.743
	c-2.127-2.931-4.936-4.396-8.427-4.396h-7.427V51.728z"/>
<path fill="#F1F2F2" stroke="#E6E7E8" stroke-miterlimit="10" d="M114.705,58.108h-7.808V14.785h7.808V58.108z"/>
<path fill="#F1F2F2" stroke="#E6E7E8" stroke-miterlimit="10" d="M158.218,58.108h-8.348l-3.459-10.315h-16.663l-3.396,10.315
	h-6.665l14.377-43.323h9.618L158.218,58.108z M144.317,41.54l-6.317-19.329l-6.316,19.329H144.317z"/>
<path fill="#F1F2F2" stroke="#E6E7E8" stroke-miterlimit="10" d="M158.885,47.666l7.585-1.619c0.909,4.295,4.4,6.443,10.474,6.443
	c2.771,0,4.903-0.55,6.396-1.65c1.491-1.1,2.237-2.465,2.237-4.094c0-1.185-0.339-2.28-1.016-3.285
	c-0.678-1.004-2.127-1.793-4.348-2.364l-8.284-2.158c-2.836-0.74-4.931-1.582-6.284-2.523c-1.354-0.941-2.438-2.269-3.253-3.983
	c-0.815-1.714-1.222-3.544-1.222-5.491c0-3.872,1.438-6.977,4.316-9.315c2.877-2.337,6.559-3.507,11.045-3.507
	c3.724,0,7.051,0.815,9.981,2.444c2.93,1.629,4.797,3.936,5.602,6.919l-7.427,1.841c-1.143-3.279-3.809-4.919-7.998-4.919
	c-2.434,0-4.29,0.508-5.57,1.523s-1.92,2.307-1.92,3.872c0,2.476,2.01,4.211,6.03,5.205l7.363,1.841
	c4.464,1.122,7.458,2.777,8.981,4.967c1.523,2.19,2.285,4.608,2.285,7.252c0,4.253-1.603,7.601-4.808,10.045
	c-3.206,2.443-7.358,3.666-12.458,3.666c-4.295,0-8.056-0.899-11.282-2.698C162.084,54.278,159.942,51.474,158.885,47.666z"/>
<path fill="#F1F2F2" stroke="#E6E7E8" stroke-miterlimit="10" d="M208.364,58.108h-7.808V14.785h17.741
	c5.058,0,8.808,1.275,11.252,3.825c2.443,2.55,3.666,5.56,3.666,9.029c0,3.957-1.323,7.163-3.968,9.617
	c-2.646,2.455-5.999,3.682-10.062,3.682h-10.822V58.108z M208.364,34.241h9.236c2.412,0,4.252-0.592,5.521-1.777
	c1.27-1.185,1.904-2.761,1.904-4.729c0-1.777-0.587-3.301-1.761-4.57c-1.175-1.27-3.296-1.904-6.364-1.904h-8.537V34.241z"/>
<path fill="#E6E7E8" d="M273.27,58.108h-8.252l-6.729-17.805h-10.981v17.805H239.5V14.785h18.789c5.226,0,9.066,1.18,11.521,3.539
	c2.455,2.36,3.682,5.412,3.682,9.157c0,5.565-2.602,9.395-7.807,11.489L273.27,58.108z M247.308,34.05h9.712
	c2.813,0,4.908-0.592,6.284-1.777c1.375-1.185,2.063-2.814,2.063-4.888c0-1.904-0.677-3.443-2.031-4.618
	c-1.354-1.174-3.248-1.761-5.681-1.761h-10.347V34.05z"/>
<path fill="#E6E7E8" d="M309.419,58.108h-28.151V14.785h27.866v6.443h-20.059v11.743h16.123v6.284h-16.123v12.124h20.344V58.108z"/>
<path fill="#E6E7E8" d="M347.854,58.108h-9.108l-9.585-17.075l-10.156,17.075h-7.268l13.711-22.566l-11.775-20.757h9.077
	l7.998,14.409l7.206-12.533l5.505,3.297l-8.998,14.6L347.854,58.108z"/>
<path fill="#91CAEE" d="M33.515,61.239c-4.698-2.814-7.684-9.001-8.873-18.388c-1.293-10.205-4.33-16.626-9.024-19.082
	c-2.992-1.565-5.963-1.071-7.62-0.565c-2.207,3.913-3.471,8.428-3.471,13.242c0,14.923,12.098,27.021,27.021,27.021
	c2.155,0,4.25-0.253,6.258-0.731C36.461,62.552,34.985,62.119,33.515,61.239z"/>
<g>
	<path fill="#91CAEE" d="M28.351,10.443c4.691,2.186,7.791,8.724,9.215,19.433c1.239,9.321,4.213,15.453,8.839,18.224
		c3.868,2.318,7.762,1.491,8.938,1.157c2.057-3.812,3.225-8.174,3.225-12.809c0-14.923-12.098-27.021-27.021-27.021
		c-1.656,0-3.27,0.166-4.844,0.451C27.242,10.001,27.793,10.182,28.351,10.443z"/>
	<path fill="#91CAEE" d="M50.664,55.543c1.686-1.688,3.144-3.602,4.338-5.686c-0.656,0.151-1.629,0.315-2.809,0.315
		c-1.735,0-3.892-0.356-6.037-1.64c-4.768-2.851-7.825-9.105-9.086-18.591c-1.4-10.529-4.404-16.938-8.931-19.046
		c-1.008-0.47-2.004-0.674-2.932-0.714c-3.186,0.767-6.156,2.091-8.791,3.875c5.074-0.005,9.462,1.783,12.618,4.952
		c0.389-1.569,0.699-3.058,0.94-4.456c3.297,4.754,4.353,12.604,1.606,21.795c-1.595-5.349-5.446-9.394-10.976-11.913
		c1.468-0.388,2.928-0.776,4.387-1.162c-2.9-3.54-7.187-5.757-12.356-6.12c-1.648,1.616-3.085,3.444-4.279,5.436
		c1.802-0.464,4.632-0.754,7.486,0.734c4.852,2.534,7.979,9.083,9.295,19.466c1.168,9.221,4.071,15.283,8.627,18.017
		c1.911,1.147,3.834,1.508,5.434,1.543c2.804-0.829,5.424-2.086,7.768-3.718c-5.165,0.057-9.631-1.74-12.831-4.954
		c-0.389,1.569-0.699,3.058-0.94,4.456c-3.297-4.754-4.353-12.604-1.606-21.795c1.595,5.349,5.446,9.394,10.976,11.913
		c-1.468,0.388-2.928,0.776-4.387,1.162C41.103,52.981,45.437,55.209,50.664,55.543z"/>
</g>
<circle fill="none" stroke="#91CAEE" stroke-miterlimit="10" cx="31.548" cy="36.446" r="29.129"/>
<g>
	<g>
		<path fill="#E6E7E8" d="M349.437,3.64c-1.221,6.63-1.798,15.414-0.645,21.759l-7.133-8.707l-11.05-2.128
			C336.738,12.558,344.189,7.87,349.437,3.64z"/>
	</g>
</g>
</svg>
