<?xml version="1.0" encoding="utf-8"?>
<!-- Generator: Adobe Illustrator 17.0.0, SVG Export Plug-In . SVG Version: 6.00 Build 0)  -->
<!DOCTYPE svg PUBLIC "-//W3C//DTD SVG 1.1//EN" "http://www.w3.org/Graphics/SVG/1.1/DTD/svg11.dtd">
<svg version="1.1" id="Layer_1" xmlns="http://www.w3.org/2000/svg" xmlns:xlink="http://www.w3.org/1999/xlink" x="0px" y="0px"
	 width="1000px" height="1000px" viewBox="0 0 1000 1000" enable-background="new 0 0 1000 1000" xml:space="preserve">
<path fill="#336DAB" d="M529.007,872.739c-70.474-42.217-115.254-135.015-133.096-275.815
	c-19.402-153.076-64.944-249.39-135.366-286.23c-44.88-23.469-89.445-16.06-114.303-8.475
	c-33.105,58.698-52.065,126.425-52.065,198.624c0,223.849,181.466,405.315,405.314,405.315c32.322,0,63.748-3.801,93.874-10.963
	C573.19,892.425,551.054,885.938,529.007,872.739z"/>
<g>
	<path fill="#336DAB" d="M451.539,110.786c70.364,32.783,116.865,130.854,138.23,291.489
		c18.589,139.819,63.201,231.797,132.59,273.354c58.02,34.765,116.43,22.364,134.068,17.353
		c30.849-57.184,48.378-122.61,48.378-192.141c0-223.848-181.465-405.314-405.314-405.314c-24.834,0-49.057,2.487-72.657,6.766
		C434.911,104.158,443.176,106.883,451.539,110.786z"/>
	<path fill="#336DAB" d="M786.233,787.295c25.294-25.32,47.157-54.033,65.073-85.297c-9.834,2.266-24.435,4.731-42.133,4.731
		c-26.03,0-58.374-5.347-90.557-24.595c-71.514-42.759-117.371-136.582-136.289-278.862
		c-20.999-157.939-66.064-254.063-133.96-285.688c-15.123-7.055-30.062-10.107-43.976-10.714
		c-47.794,11.501-92.335,31.363-131.858,58.124c76.11-0.074,141.931,26.739,189.266,74.282
		c5.837-23.541,10.488-45.865,14.107-66.837c49.448,71.313,65.294,189.058,24.084,326.931
		c-23.924-80.234-81.693-140.913-164.637-178.693c22.014-5.815,43.926-11.645,65.804-17.432
		C357.66,250.15,293.35,216.888,215.82,211.448c-24.724,24.238-46.282,51.664-64.182,81.533
		c27.032-6.956,69.485-11.316,112.29,11.017c72.781,38.013,119.685,136.245,139.424,291.987
		c17.527,138.311,61.062,229.248,129.404,270.249c28.663,17.209,57.513,22.615,81.508,23.148
		c42.057-12.435,81.358-31.289,116.52-55.775c-77.474,0.848-144.465-26.099-192.465-74.312
		c-5.837,23.541-10.488,45.866-14.107,66.837c-49.448-71.312-65.294-189.057-24.085-326.93
		c23.925,80.233,81.694,140.913,164.638,178.692c-22.015,5.815-43.926,11.645-65.804,17.432
		C642.823,748.868,707.829,782.282,786.233,787.295z"/>
</g>
<circle fill="none" stroke="#336DAB" stroke-width="15" stroke-miterlimit="10" cx="499.491" cy="500.843" r="436.929"/>
</svg>
