<?xml version="1.0" encoding="utf-8"?>
<!-- Generator: Adobe Illustrator 17.0.0, SVG Export Plug-In . SVG Version: 6.00 Build 0)  -->
<!DOCTYPE svg PUBLIC "-//W3C//DTD SVG 1.1//EN" "http://www.w3.org/Graphics/SVG/1.1/DTD/svg11.dtd">
<svg version="1.1" id="Layer_1" xmlns="http://www.w3.org/2000/svg" xmlns:xlink="http://www.w3.org/1999/xlink" x="0px" y="0px"
	 width="74px" height="74px" viewBox="0 0 74 74" enable-background="new 0 0 74 74" xml:space="preserve">
<g>
	<circle fill="#95D9F1" cx="37.072" cy="37.022" r="37.021"/>
	<path fill="#71C9E9" d="M47.662,18.168c-0.044-0.044-0.086-0.086-0.134-0.129c-2.721-2.595-6.4-4.186-10.455-4.186
		c-0.78,0-1.545,0.062-2.291,0.175l-0.002-0.002c-0.033,0.004-0.063,0.013-0.094,0.019c-0.388,0.059-0.773,0.134-1.151,0.223
		c-0.004,0.002-0.01,0.004-0.013,0.004c-0.384,0.092-0.759,0.202-1.13,0.323c-0.042,0.011-0.085,0.025-0.125,0.038
		c-0.354,0.119-0.702,0.25-1.044,0.394c-0.052,0.021-0.104,0.044-0.158,0.065c-0.334,0.146-0.665,0.302-0.986,0.469
		c-0.05,0.027-0.1,0.054-0.148,0.079c-0.325,0.175-0.646,0.358-0.955,0.555c-0.033,0.021-0.065,0.044-0.098,0.064
		c-0.323,0.207-0.638,0.425-0.942,0.655c-0.002,0.002-0.004,0.002-0.008,0.004c-0.3,0.229-0.592,0.471-0.874,0.721
		c-0.037,0.031-0.073,0.062-0.11,0.094c-0.265,0.24-0.521,0.49-0.771,0.746c-0.044,0.048-0.088,0.092-0.133,0.14
		c-0.242,0.256-0.475,0.521-0.698,0.792c-0.042,0.052-0.083,0.104-0.123,0.154c-0.223,0.279-0.436,0.565-0.64,0.859
		c-0.029,0.04-0.056,0.085-0.083,0.125c-0.207,0.307-0.405,0.621-0.59,0.942c-0.006,0.011-0.011,0.019-0.017,0.031
		c-0.184,0.325-0.355,0.659-0.517,0.999c-0.021,0.046-0.046,0.092-0.067,0.14c-0.152,0.327-0.288,0.661-0.417,1.001
		c-0.023,0.061-0.046,0.123-0.069,0.186c-0.123,0.338-0.233,0.682-0.333,1.032c-0.017,0.062-0.033,0.123-0.05,0.187
		c-0.096,0.357-0.183,0.721-0.252,1.088c-0.01,0.046-0.015,0.094-0.025,0.14c-0.069,0.39-0.129,0.782-0.169,1.182H17.1v1.193h0.004
		l5.839,5.839c0.749,1.924,1.881,3.657,3.3,5.105c0.071,0.077,0.148,0.154,0.225,0.225l7.918,7.92
		c-0.119,0.173-0.181,0.375-0.181,0.579v13.767c0,0.682,0.244,1.318,0.646,1.81c0.004,0.004,0.01,0.01,0.01,0.01l0.415,0.409
		l9,9.002c14.76-2.913,26.361-14.595,29.159-29.394L47.662,18.168z"/>
	<g>
		<path fill="#FFFFFF" d="M37.073,37.992c-0.438,0-0.85-0.169-1.161-0.48c-0.309-0.307-0.478-0.721-0.478-1.159V21.56
			c0-0.119-0.048-0.231-0.131-0.315c-0.169-0.167-0.461-0.167-0.631,0c-0.084,0.084-0.131,0.196-0.131,0.315v11.301
			c0,0.438-0.171,0.85-0.48,1.159c-0.619,0.621-1.699,0.619-2.318,0c-0.31-0.309-0.481-0.721-0.481-1.159v-6.686
			c0-0.119-0.046-0.231-0.131-0.315c-0.169-0.169-0.461-0.167-0.63,0c-0.083,0.083-0.129,0.196-0.129,0.315v2.942
			c0,0.436-0.171,0.847-0.481,1.157c-0.619,0.621-1.697,0.621-2.318,0.002c-0.311-0.311-0.482-0.722-0.482-1.159
			c0-0.119-0.046-0.233-0.129-0.315c-0.085-0.084-0.196-0.131-0.315-0.131h-9.546v-1.195h9.546c0.438,0,0.849,0.171,1.159,0.48
			c0.309,0.311,0.48,0.723,0.48,1.161c0,0.119,0.046,0.231,0.131,0.315c0.167,0.165,0.461,0.167,0.629-0.002
			c0.084-0.083,0.131-0.194,0.131-0.313v-2.942c0-0.438,0.171-0.852,0.48-1.159c0.619-0.621,1.701-0.621,2.318,0
			c0.31,0.307,0.481,0.719,0.481,1.159v6.686c0,0.119,0.046,0.231,0.131,0.315c0.169,0.167,0.463,0.167,0.63,0
			c0.085-0.085,0.131-0.196,0.131-0.315V21.56c0-0.438,0.169-0.849,0.48-1.159c0.617-0.619,1.699-0.621,2.318,0
			c0.309,0.309,0.48,0.721,0.48,1.159v14.793c0,0.119,0.046,0.233,0.131,0.315c0.169,0.169,0.461,0.169,0.63,0
			c0.083-0.085,0.129-0.196,0.129-0.315v-8.537c0-0.436,0.171-0.847,0.48-1.159c0.621-0.621,1.699-0.619,2.32,0
			c0.309,0.311,0.481,0.723,0.481,1.159v2.385c0,0.119,0.046,0.23,0.129,0.315c0.167,0.167,0.461,0.169,0.63,0
			c0.085-0.085,0.131-0.196,0.131-0.315v-5.06c0-0.438,0.171-0.851,0.48-1.159c0.619-0.619,1.699-0.619,2.318,0
			c0.309,0.311,0.48,0.723,0.48,1.159v6.49c0,0.119,0.046,0.231,0.129,0.313c0.169,0.169,0.461,0.169,0.632,0
			c0.083-0.083,0.129-0.194,0.129-0.313v-2.516c0-0.436,0.171-0.848,0.48-1.159c0.309-0.309,0.721-0.48,1.159-0.48h9.546v1.195
			h-9.546c-0.119,0-0.231,0.046-0.313,0.129c-0.085,0.085-0.131,0.198-0.131,0.315v2.516c0,0.438-0.171,0.85-0.481,1.159
			c-0.619,0.619-1.699,0.621-2.318,0c-0.311-0.309-0.48-0.721-0.48-1.159v-6.49c0-0.119-0.048-0.231-0.131-0.315
			c-0.165-0.165-0.461-0.167-0.63,0.002c-0.085,0.083-0.131,0.194-0.131,0.313v5.06c0,0.438-0.171,0.851-0.48,1.161
			c-0.619,0.619-1.699,0.619-2.318,0c-0.31-0.311-0.481-0.723-0.481-1.161v-2.385c0-0.117-0.046-0.23-0.131-0.315
			c-0.167-0.167-0.461-0.167-0.63,0.002c-0.083,0.083-0.129,0.196-0.129,0.313v8.537c0,0.438-0.171,0.85-0.481,1.159
			C37.92,37.823,37.509,37.992,37.073,37.992z"/>
		<g>
			<rect x="35.616" y="43.837" fill="#1E262E" width="2.914" height="3.477"/>
			<path fill="#343C44" d="M37.071,13.853c-8.374,0-15.156,6.786-15.156,15.156c0,8.374,6.782,15.158,15.156,15.158
				c8.372,0,15.158-6.784,15.158-15.158C52.229,20.64,45.443,13.853,37.071,13.853z M37.069,41.137
				c-6.694,0-12.125-5.427-12.125-12.127c0-6.698,5.431-12.125,12.125-12.125c6.7,0,12.131,5.427,12.131,12.125
				C49.2,35.709,43.769,41.137,37.069,41.137z"/>
			<path fill="#343C44" d="M39.938,48.692v13.411c0,1.58-1.282,2.862-2.865,2.862s-2.868-1.282-2.868-2.862V48.692H39.938z"/>
			<path fill="#FFFFFF" d="M39.936,48.69h-5.729v-0.352c0-0.261,0.1-0.525,0.3-0.725c0.2-0.2,0.459-0.3,0.721-0.3h3.69
				c0.259,0,0.521,0.1,0.721,0.3c0.2,0.2,0.298,0.463,0.298,0.725V48.69z"/>
		</g>
	</g>
</g>
</svg>
