<?xml version="1.0" encoding="utf-8"?>
<!-- Generator: Adobe Illustrator 17.0.0, SVG Export Plug-In . SVG Version: 6.00 Build 0)  -->
<!DOCTYPE svg PUBLIC "-//W3C//DTD SVG 1.1//EN" "http://www.w3.org/Graphics/SVG/1.1/DTD/svg11.dtd">
<svg version="1.1" id="Layer_1" xmlns="http://www.w3.org/2000/svg" xmlns:xlink="http://www.w3.org/1999/xlink" x="0px" y="0px"
	 width="74px" height="74px" viewBox="0 0 74 74" enable-background="new 0 0 74 74" xml:space="preserve">
<g>
	<ellipse fill="#F4836B" cx="36.94" cy="37.137" rx="36.977" ry="37.102"/>
	<path fill="#EA6653" d="M73.789,40.117L51.092,17.339l-0.244-0.243c-0.244-0.193-0.553-0.306-0.883-0.306h-26.05
		c-0.787,0-1.432,0.645-1.432,1.435v37.822c0,0.368,0.144,0.713,0.378,0.965c0.027,0.035,0.061,0.067,0.096,0.096L39.898,74.11
		C57.955,72.675,72.353,58.232,73.789,40.117z"/>
	<g>
		<g>
			<path fill="#343C44" d="M23.915,57.483c-0.787,0-1.432-0.645-1.432-1.435V18.226c0-0.79,0.645-1.435,1.432-1.435h26.05
				c0.789,0,1.432,0.645,1.432,1.435v37.822c0,0.79-0.643,1.435-1.432,1.435H23.915z"/>
			<rect x="24.773" y="20.764" fill="#FFFFFF" width="24.334" height="31.117"/>
			<path fill="#4A5158" d="M39.321,54.809c0,0.325-0.263,0.591-0.589,0.591h-3.578c-0.325,0-0.593-0.266-0.593-0.591v-0.249
				c0-0.327,0.269-0.597,0.593-0.597h3.578c0.326,0,0.589,0.27,0.589,0.597V54.809z"/>
			<path fill="#4A5158" d="M39.914,18.834c0,0.156-0.123,0.278-0.275,0.278h-5.394c-0.154,0-0.277-0.122-0.277-0.278v-0.115
				c0-0.15,0.123-0.278,0.277-0.278h5.394c0.152,0,0.275,0.127,0.275,0.278V18.834z"/>
		</g>
		<g>
			<path fill="#ECA434" d="M24.773,20.764v6.975c0,0.963,0.779,1.743,1.739,1.743c0.96,0,1.737-0.78,1.737-1.743v-6.975H24.773z"/>
			<path fill="#FECE67" d="M28.25,20.764v6.975c0,0.963,0.777,1.743,1.737,1.743c0.96,0,1.739-0.78,1.739-1.743v-6.975H28.25z"/>
			<path fill="#ECA434" d="M31.726,20.764v6.975c0,0.963,0.777,1.743,1.737,1.743c0.962,0,1.739-0.78,1.739-1.743v-6.975H31.726z"/>
			<path fill="#FECE67" d="M35.203,20.764v6.975c0,0.963,0.777,1.743,1.737,1.743c0.96,0,1.739-0.78,1.739-1.743v-6.975H35.203z"/>
			<path fill="#ECA434" d="M38.679,20.764v6.975c0,0.963,0.777,1.743,1.737,1.743s1.737-0.78,1.737-1.743v-6.975H38.679z"/>
			<path fill="#FECE67" d="M42.154,20.764v6.975c0,0.963,0.779,1.743,1.739,1.743s1.737-0.78,1.737-1.743v-6.975H42.154z"/>
			<path fill="#ECA434" d="M45.631,20.764v6.975c0,0.963,0.777,1.743,1.737,1.743c0.96,0,1.739-0.78,1.739-1.743v-6.975H45.631z"/>
		</g>
		<g>
			<ellipse fill="#71C9E9" cx="36.941" cy="40.683" rx="7.634" ry="7.66"/>
			<g>
				<polygon fill="#FFFFFF" points="34.101,44.344 33.291,43.532 39.779,37.021 40.589,37.832 				"/>
				<g>
					<path fill="#FFFFFF" d="M38.96,44.512c-0.989,0-1.795-0.807-1.795-1.803c0-0.992,0.806-1.801,1.795-1.801
						c0.991,0,1.797,0.809,1.797,1.801C40.757,43.705,39.95,44.512,38.96,44.512z M38.96,42.056c-0.357,0-0.649,0.293-0.649,0.653
						c0,0.36,0.292,0.655,0.649,0.655c0.361,0,0.653-0.295,0.653-0.655C39.612,42.349,39.321,42.056,38.96,42.056z"/>
					<path fill="#FFFFFF" d="M34.921,40.457c-0.991,0-1.797-0.809-1.797-1.803s0.806-1.803,1.797-1.803
						c0.989,0,1.795,0.809,1.795,1.803S35.909,40.457,34.921,40.457z M34.921,38.002c-0.361,0-0.653,0.293-0.653,0.653
						c0,0.36,0.292,0.653,0.653,0.653c0.357,0,0.649-0.293,0.649-0.653C35.569,38.294,35.278,38.002,34.921,38.002z"/>
				</g>
			</g>
		</g>
	</g>
</g>
</svg>
