<?xml version="1.0" encoding="utf-8"?>
<!-- Generator: Adobe Illustrator 17.0.0, SVG Export Plug-In . SVG Version: 6.00 Build 0)  -->
<!DOCTYPE svg PUBLIC "-//W3C//DTD SVG 1.1//EN" "http://www.w3.org/Graphics/SVG/1.1/DTD/svg11.dtd">
<svg version="1.1" id="Layer_1" xmlns="http://www.w3.org/2000/svg" xmlns:xlink="http://www.w3.org/1999/xlink" x="0px" y="0px"
	 width="74px" height="74px" viewBox="0 0 74 74" enable-background="new 0 0 74 74" xml:space="preserve">
<g>
	<ellipse fill="#FECE67" cx="36.921" cy="36.947" rx="37.019" ry="37.062"/>
	<path fill="#F5B541" d="M73.911,38.102L55.704,19.876c-0.263-0.268-0.613-0.396-0.961-0.396H19.094
		c-0.344,0-0.692,0.129-0.955,0.396c-0.263,0.264-0.396,0.608-0.396,0.958v27.815c0,0.344,0.129,0.683,0.382,0.948
		c0.004,0.004,0.008,0.008,0.013,0.014c0.006,0.004,0.01,0.009,0.014,0.013l23.987,24.01C59.74,71.146,73.354,56.274,73.911,38.102z
		"/>
	<g>
		<g>
			<rect x="31.281" y="50.007" fill="#E6E5E5" width="11.281" height="4.97"/>
			<rect x="28.573" y="54.977" fill="#FFFFFF" width="16.697" height="1.354"/>
			<path fill="#343C44" d="M17.743,45.49V20.834c0-0.348,0.132-0.694,0.396-0.96c0.265-0.264,0.611-0.396,0.957-0.396h35.648
				c0.346,0,0.694,0.133,0.957,0.396c0.265,0.266,0.396,0.612,0.396,0.96V45.49H17.743z"/>
			<rect x="20.224" y="21.961" fill="#FFFFFF" width="33.392" height="21.045"/>
			<g>
				<g>
					<path fill="#F4836B" d="M40.363,32.484c-0.094,0-0.183,0.056-0.221,0.148c-0.037,0.09-0.013,0.192,0.052,0.26l2.289,2.292
						c0.044,0.044,0.104,0.071,0.169,0.071s0.127-0.027,0.169-0.071l2.291-2.292c0.065-0.067,0.088-0.169,0.05-0.26
						c-0.039-0.092-0.127-0.148-0.219-0.148H40.363z"/>
					<path fill="#F4836B" d="M33.477,32.484c0.094,0,0.184-0.056,0.221-0.148c0.038-0.092,0.015-0.194-0.052-0.26l-2.289-2.292
						c-0.042-0.044-0.102-0.071-0.169-0.071c-0.065,0-0.125,0.027-0.167,0.071l-2.291,2.292c-0.065,0.065-0.09,0.167-0.052,0.26
						c0.038,0.092,0.127,0.148,0.221,0.148H33.477z"/>
					<path fill="#F4836B" d="M43.8,32.484h-2.293c0-2.532-2.058-4.591-4.585-4.591c-1.226,0-2.377,0.477-3.244,1.345l-1.62-1.624
						c1.299-1.301,3.027-2.016,4.864-2.016C40.713,25.598,43.8,28.686,43.8,32.484z"/>
					<path fill="#F4836B" d="M36.921,39.37c-3.794,0-6.878-3.09-6.878-6.886h2.293c0,2.53,2.056,4.591,4.586,4.591
						c1.224,0,2.375-0.477,3.242-1.345l1.62,1.624C40.486,38.654,38.759,39.37,36.921,39.37z"/>
				</g>
			</g>
			<path fill="#FFFFFF" d="M56.098,48.651c0,0.348-0.131,0.694-0.396,0.958c-0.263,0.265-0.611,0.398-0.957,0.398H19.096
				c-0.346,0-0.692-0.133-0.957-0.398c-0.263-0.264-0.396-0.61-0.396-0.958V45.49h38.354V48.651z"/>
		</g>
		<g>
			<path fill="#343C44" d="M57.845,35.42H49.39c-0.801,0-1.457,0.656-1.457,1.46v17.993c0,0.804,0.655,1.458,1.457,1.458h8.454
				c0.801,0,1.455-0.654,1.455-1.458V36.88C59.3,36.076,58.646,35.42,57.845,35.42z"/>
			<rect x="48.758" y="38.581" fill="#FFFFFF" width="9.717" height="14.593"/>
			<path fill="#4A5158" d="M52.729,55.096c-0.163,0-0.296-0.135-0.296-0.3v-0.088c0-0.165,0.133-0.298,0.296-0.298h1.776
				c0.163,0,0.298,0.133,0.298,0.298v0.088c0,0.165-0.135,0.3-0.298,0.3H52.729z"/>
			<g>
				<circle fill="#4A5158" cx="53.617" cy="37.003" r="0.403"/>
				<circle fill="#343C44" cx="53.616" cy="37.003" r="0.146"/>
			</g>
			<g>
				<circle fill="#95D9F1" cx="53.617" cy="45.879" r="3.582"/>
				<polygon fill="#FFFFFF" points="52.961,47.72 51.381,46.142 51.908,45.615 52.961,46.667 55.325,44.299 55.852,44.826 				"/>
			</g>
		</g>
	</g>
</g>
</svg>
