<?xml version="1.0" encoding="utf-8"?>
<!-- Generator: Adobe Illustrator 17.0.0, SVG Export Plug-In . SVG Version: 6.00 Build 0)  -->
<!DOCTYPE svg PUBLIC "-//W3C//DTD SVG 1.1//EN" "http://www.w3.org/Graphics/SVG/1.1/DTD/svg11.dtd">
<svg version="1.1" id="Layer_1" xmlns="http://www.w3.org/2000/svg" xmlns:xlink="http://www.w3.org/1999/xlink" x="0px" y="0px"
	 width="74px" height="74px" viewBox="0 0 74 74" enable-background="new 0 0 74 74" xml:space="preserve">
<g>
	<ellipse fill="#FECE67" cx="37.02" cy="37.067" rx="36.936" ry="37.144"/>
	<path fill="#F5B541" d="M73.955,37.067c0-0.006,0-0.013,0-0.019L56.876,19.872c-0.006-0.012-0.01-0.015-0.019-0.025
		c-0.006-0.006-0.01-0.01-0.015-0.013c-0.276-0.27-0.635-0.409-0.995-0.409H18.195c-0.366,0-0.734,0.145-1.01,0.422
		c-0.282,0.284-0.42,0.652-0.42,1.016v29.519c0,0.349,0.129,0.698,0.385,0.978c0.012,0.013,0.019,0.023,0.035,0.037
		c0.01,0.012,0.015,0.016,0.023,0.021L39.76,74.099C58.88,72.688,73.955,56.654,73.955,37.067z"/>
	<g>
		<g>
			<rect x="31.064" y="51.817" fill="#CCCBCA" width="11.913" height="5.272"/>
			<rect x="28.203" y="57.09" fill="#FFFFFF" width="17.634" height="1.439"/>
			<path fill="#343C44" d="M16.765,47.025v-26.16c0-0.368,0.14-0.735,0.42-1.016c0.278-0.282,0.644-0.42,1.01-0.42h37.651
				c0.364,0,0.733,0.139,1.011,0.42c0.278,0.282,0.42,0.648,0.42,1.016v26.16H16.765z"/>
			<rect x="19.386" y="22.063" fill="#FFFFFF" width="35.267" height="22.326"/>
			<path fill="#FFFFFF" d="M57.276,50.379c0,0.37-0.142,0.737-0.42,1.018c-0.278,0.282-0.646,0.42-1.011,0.42H18.195
				c-0.366,0-0.732-0.139-1.01-0.42c-0.28-0.281-0.42-0.648-0.42-1.018v-3.353h40.512V50.379z"/>
		</g>
		<g>
			<g>
				<rect x="22.912" y="30.976" fill="#95D9F1" width="10.583" height="10.639"/>
				<rect x="25.029" y="33.103" fill="#71C9E9" width="6.349" height="6.385"/>
			</g>
			<g>
				<rect x="37.02" y="30.976" fill="#343C44" width="7.054" height="1.065"/>
				<rect x="37.02" y="33.103" fill="#D9D8D7" width="14.109" height="1.065"/>
				<rect x="37.02" y="35.232" fill="#D9D8D7" width="14.109" height="1.063"/>
				<rect x="37.02" y="37.359" fill="#D9D8D7" width="14.109" height="1.064"/>
			</g>
			<rect x="40.548" y="39.487" fill="#EA6653" width="7.053" height="2.127"/>
			<g>
				<path fill="#F4836B" d="M19.386,22.063v4.366c0,0.98,0.79,1.774,1.764,1.774s1.762-0.794,1.762-1.774v-4.366H19.386z"/>
				<path fill="#EA6653" d="M22.912,22.063v4.366c0,0.98,0.79,1.774,1.764,1.774c0.974,0,1.764-0.794,1.764-1.774v-4.366H22.912z"/>
				<path fill="#F4836B" d="M26.441,22.063v4.366c0,0.98,0.788,1.774,1.764,1.774c0.972,0,1.762-0.794,1.762-1.774v-4.366H26.441z"
					/>
				<path fill="#EA6653" d="M29.967,22.063v4.366c0,0.98,0.79,1.774,1.764,1.774s1.764-0.794,1.764-1.774v-4.366H29.967z"/>
				<path fill="#F4836B" d="M33.495,22.063v4.366c0,0.98,0.788,1.774,1.762,1.774c0.974,0,1.762-0.794,1.762-1.774v-4.366H33.495z"
					/>
				<path fill="#EA6653" d="M37.02,22.063v4.366c0,0.98,0.79,1.774,1.764,1.774c0.974,0,1.764-0.794,1.764-1.774v-4.366H37.02z"/>
				<path fill="#F4836B" d="M40.548,22.063v4.366c0,0.98,0.79,1.774,1.764,1.774c0.972,0,1.762-0.794,1.762-1.774v-4.366H40.548z"/>
				<path fill="#EA6653" d="M44.074,22.063v4.366c0,0.98,0.788,1.774,1.764,1.774c0.972,0,1.762-0.794,1.762-1.774v-4.366H44.074z"
					/>
				<path fill="#EA6653" d="M51.129,22.063v4.366c0,0.98,0.788,1.774,1.762,1.774s1.762-0.794,1.762-1.774v-4.366H51.129z"/>
				<path fill="#F4836B" d="M47.6,22.063v4.366c0,0.98,0.79,1.774,1.764,1.774c0.974,0,1.764-0.794,1.764-1.774v-4.366H47.6z"/>
			</g>
		</g>
	</g>
</g>
</svg>
