<?xml version="1.0" encoding="utf-8"?>
<!-- Generator: Adobe Illustrator 17.0.0, SVG Export Plug-In . SVG Version: 6.00 Build 0)  -->
<!DOCTYPE svg PUBLIC "-//W3C//DTD SVG 1.1//EN" "http://www.w3.org/Graphics/SVG/1.1/DTD/svg11.dtd">
<svg version="1.1" id="Layer_1" xmlns="http://www.w3.org/2000/svg" xmlns:xlink="http://www.w3.org/1999/xlink" x="0px" y="0px"
	 width="74px" height="74px" viewBox="0 0 74 74" enable-background="new 0 0 74 74" xml:space="preserve">
<g>
	<ellipse fill="#95D9F1" cx="36.989" cy="37.103" rx="37.103" ry="36.977"/>
	<path fill="#71C9E9" d="M73.339,44.548L60.83,32.078l-0.416-0.411l-0.006-0.004L37.845,20.421
		c-0.258-0.129-0.551-0.203-0.857-0.203s-0.597,0.075-0.857,0.203L13.57,31.663c-0.316,0.157-0.532,0.482-0.532,0.854
		c0,0.157,0.039,0.305,0.114,0.44c0.087,0.177,0.231,0.319,0.408,0.409c0.004,0,0.004,0.006,0.01,0.006l12.647,12.61v2.638
		c0,0.831,0.383,1.622,1.063,2.325l21.342,21.27C61.11,68.106,70.665,57.579,73.339,44.548z"/>
	<g>
		<rect x="26.217" y="27.15" fill="#343C44" width="21.544" height="21.471"/>
		<path fill="#343C44" d="M47.761,48.621c0,2.96-4.823,5.364-10.773,5.364c-5.948,0-10.771-2.403-10.771-5.364
			c0-2.966,4.823-5.369,10.771-5.369C42.938,43.252,47.761,45.655,47.761,48.621z"/>
		<path fill="#4A5158" d="M36.988,50.407c-5.948,0-10.771-2.401-10.771-5.365v3.58c0,2.96,4.823,5.364,10.771,5.364
			c5.95,0,10.773-2.403,10.773-5.364v-3.58C47.761,48.005,42.938,50.407,36.988,50.407z"/>
		<path fill="#4A5158" d="M37.845,20.419c-0.258-0.129-0.549-0.201-0.857-0.201c-0.306,0-0.597,0.073-0.855,0.201L13.568,31.663
			c-0.314,0.157-0.53,0.48-0.53,0.854c0,0.374,0.216,0.697,0.53,0.854l22.565,11.243c0.258,0.129,0.549,0.202,0.855,0.202
			c0.308,0,0.599-0.073,0.857-0.202L60.41,33.371c0.314-0.157,0.53-0.48,0.53-0.854c0-0.374-0.216-0.697-0.53-0.854L37.845,20.419z"
			/>
		<polygon fill="#F4836B" points="50.063,38.524 51.348,37.885 37.244,30.861 36.732,31.886 		"/>
		<ellipse fill="#343C44" cx="36.989" cy="31.371" rx="2.154" ry="1.073"/>
		<polygon fill="#EA6653" points="50.063,47.028 51.348,46.389 51.348,37.885 50.063,38.524 		"/>
		<polygon fill="#FFFFFF" points="50.063,48.621 51.348,47.98 51.348,46.389 50.063,47.028 		"/>
	</g>
</g>
</svg>
