<?xml version="1.0" encoding="utf-8"?>
<!-- Generator: Adobe Illustrator 17.0.0, SVG Export Plug-In . SVG Version: 6.00 Build 0)  -->
<!DOCTYPE svg PUBLIC "-//W3C//DTD SVG 1.1//EN" "http://www.w3.org/Graphics/SVG/1.1/DTD/svg11.dtd">
<svg version="1.1" id="Layer_1" xmlns="http://www.w3.org/2000/svg" xmlns:xlink="http://www.w3.org/1999/xlink" x="0px" y="0px"
	 width="74px" height="74px" viewBox="0 0 74 74" enable-background="new 0 0 74 74" xml:space="preserve">
<g>
	<ellipse fill="#FECE67" cx="36.981" cy="36.957" rx="36.977" ry="37.06"/>
	<path fill="#F5B541" d="M73.812,40.164L56.86,23.169c-0.015-0.013-0.025-0.023-0.038-0.038c-0.259-0.248-0.613-0.402-0.993-0.402
		h-2.787l-0.81-0.812h-5.515l-3.246-3.252H30.493v4.063h-2.271l-0.812-0.812h-5.677v0.812h-3.597c-0.789,0-1.432,0.646-1.432,1.435
		v25.584c0,0.344,0.125,0.66,0.325,0.91c0,0,0,0,0.004,0.004l0.192,0.192c0.004,0.004,0.004,0.004,0.004,0.004l22.963,23.011
		C58.054,72.329,72.281,58.067,73.812,40.164z"/>
	<g>
		<g>
			<path fill="#343C44" d="M57.261,49.749c0,0.789-0.645,1.434-1.432,1.434H18.136c-0.789,0-1.432-0.645-1.432-1.434V24.164
				c0-0.789,0.643-1.435,1.432-1.435h37.693c0.787,0,1.432,0.646,1.432,1.435V49.749z"/>
			<rect x="18.136" y="24.164" fill="#4A5158" width="37.693" height="25.585"/>
			<g>
				<g>
					<rect x="21.733" y="21.915" fill="#343C44" width="5.679" height="0.814"/>
					<rect x="46.553" y="21.915" fill="#343C44" width="5.679" height="0.814"/>
				</g>
			</g>
			<polygon fill="#343C44" points="43.472,22.729 41.849,22.729 41.849,20.289 32.113,20.289 32.113,22.729 30.493,22.729 
				30.493,18.663 43.472,18.663 			"/>
		</g>
		<g>
			<path fill="#343C44" d="M36.981,28.35c-4.742,0-8.589,3.85-8.589,8.606c0,4.754,3.847,8.606,8.589,8.606
				c4.745,0,8.589-3.852,8.589-8.606C45.57,32.2,41.727,28.35,36.981,28.35z"/>
			<ellipse fill="#FFFFFF" cx="36.981" cy="36.957" rx="7.126" ry="7.142"/>
			<g>
				<rect x="37.866" y="36.553" fill="#EA6653" width="3.227" height="0.808"/>
				<rect x="36.578" y="37.844" fill="#4A5158" width="0.806" height="3.234"/>
				<circle fill="#EA6653" cx="36.981" cy="36.957" r="1.495"/>
				<circle fill="#FFFFFF" cx="36.981" cy="36.956" r="0.687"/>
				<circle fill="#4A5158" cx="36.981" cy="36.957" r="0.404"/>
			</g>
			<g>
				<g>
					<circle fill="#4A5158" cx="36.981" cy="30.886" r="0.404"/>
					<path fill="#4A5158" d="M34.153,32.048c-0.192,0.112-0.44,0.046-0.551-0.146c-0.111-0.194-0.044-0.443,0.148-0.554
						c0.192-0.11,0.44-0.044,0.551,0.15C34.413,31.69,34.346,31.937,34.153,32.048z"/>
					<circle fill="#4A5158" cx="31.735" cy="33.92" r="0.404"/>
					<circle fill="#4A5158" cx="30.923" cy="36.957" r="0.403"/>
					<circle fill="#4A5158" cx="31.735" cy="39.993" r="0.404"/>
					<circle fill="#4A5158" cx="33.952" cy="42.215" r="0.404"/>
					<circle fill="#4A5158" cx="36.981" cy="43.027" r="0.404"/>
					<circle fill="#4A5158" cx="40.009" cy="42.215" r="0.405"/>
					<circle fill="#4A5158" cx="42.226" cy="39.993" r="0.404"/>
					<circle fill="#4A5158" cx="43.038" cy="36.957" r="0.403"/>
					<path fill="#4A5158" d="M41.876,34.122c-0.111-0.192-0.044-0.439,0.15-0.55c0.192-0.112,0.438-0.046,0.549,0.146
						c0.111,0.192,0.046,0.441-0.146,0.552C42.234,34.382,41.988,34.317,41.876,34.122z"/>
					<circle fill="#4A5158" cx="40.009" cy="31.698" r="0.404"/>
				</g>
			</g>
		</g>
	</g>
</g>
</svg>
