<?xml version="1.0" encoding="utf-8"?>
<!-- Generator: Adobe Illustrator 17.0.0, SVG Export Plug-In . SVG Version: 6.00 Build 0)  -->
<!DOCTYPE svg PUBLIC "-//W3C//DTD SVG 1.1//EN" "http://www.w3.org/Graphics/SVG/1.1/DTD/svg11.dtd">
<svg version="1.1" id="Layer_1" xmlns="http://www.w3.org/2000/svg" xmlns:xlink="http://www.w3.org/1999/xlink" x="0px" y="0px"
	 width="74px" height="74px" viewBox="0 0 74 74" enable-background="new 0 0 74 74" xml:space="preserve">
<g>
	<circle fill="#95D9F1" cx="37.145" cy="36.928" r="37.061"/>
	<path fill="#71C9E9" d="M73.355,44.811L53.976,25.434l-5.337-5.337l-2.675-1.539l-2.495,2.836l-4.785-4.787h-3.08l-0.9,4.485h0.035
		c-1.07,0.16-2.101,0.429-3.088,0.791l-3.33-3.328l0,0l-2.673,1.543l1.462,4.343c-0.908,0.727-1.73,1.554-2.457,2.457l-4.337-1.462
		l-1.541,2.663l0.004,0.004l3.319,3.317c-0.36,0.983-0.633,2.009-0.793,3.074l-4.485,0.897v3.082l4.795,4.793l-2.84,2.493
		l1.541,2.669l5.331,5.337l0.004,0.004l19.379,19.375C59.167,70.077,70.292,58.951,73.355,44.811z"/>
	<g>
		<g>
			<g>
				<g>
					<polygon fill="#4A5158" points="38.684,16.603 35.603,16.603 34.705,21.09 39.584,21.09 					"/>
					<polygon fill="#4A5158" points="28.319,18.554 25.649,20.093 27.113,24.436 31.34,21.987 					"/>
					<polygon fill="#4A5158" points="20.315,25.432 18.776,28.097 22.21,31.122 24.652,26.895 					"/>
					<polygon fill="#4A5158" points="16.821,35.387 16.823,38.47 21.31,39.368 21.31,34.489 					"/>
					<polygon fill="#4A5158" points="18.776,45.758 20.315,48.422 24.652,46.96 22.21,42.737 					"/>
					<polygon fill="#4A5158" points="25.649,53.76 28.319,55.299 31.34,51.867 27.113,49.419 					"/>
					<polygon fill="#4A5158" points="35.603,57.254 38.684,57.254 39.584,52.765 34.705,52.765 					"/>
					<polygon fill="#4A5158" points="45.974,55.299 48.641,53.76 47.177,49.419 42.951,51.867 					"/>
					<polygon fill="#4A5158" points="53.976,48.422 55.515,45.758 52.081,42.737 49.639,46.96 					"/>
					<polygon fill="#4A5158" points="57.468,38.47 57.468,35.387 52.983,34.489 52.983,39.368 					"/>
					<polygon fill="#4A5158" points="55.515,28.097 53.976,25.434 49.639,26.895 52.081,31.122 					"/>
					<polygon fill="#4A5158" points="48.641,20.093 45.968,18.558 42.951,21.987 47.177,24.436 					"/>
				</g>
			</g>
			<path fill="#343C44" d="M37.143,20.907c-8.847,0-16.021,7.169-16.021,16.021c0,8.851,7.175,16.02,16.021,16.02
				c8.854,0,16.027-7.169,16.027-16.02C53.17,28.076,45.997,20.907,37.143,20.907z M37.145,49.123
				c-6.734,0-12.195-5.46-12.195-12.195c0-6.734,5.46-12.194,12.195-12.194c6.736,0,12.194,5.46,12.194,12.194
				C49.339,43.662,43.881,49.123,37.145,49.123z"/>
		</g>
		<circle fill="#FFFFFF" cx="37.144" cy="36.928" r="10.042"/>
		<g>
			<g>
				<path fill="#4A5158" d="M37.145,44.578c-4.219,0-7.652-3.431-7.652-7.65s3.432-7.65,7.652-7.65c4.217,0,7.65,3.431,7.65,7.65
					S41.362,44.578,37.145,44.578z M37.145,30.233c-3.692,0-6.696,3.003-6.696,6.696c0,3.69,3.003,6.694,6.696,6.694
					c3.69,0,6.694-3.003,6.694-6.694C43.838,33.236,40.835,30.233,37.145,30.233z"/>
				<path fill="#4A5158" d="M37.145,44.578c-2.28,0-4.066-3.359-4.066-7.65c0-4.291,1.785-7.65,4.066-7.65v0.954
					c-1.686,0-3.109,3.067-3.109,6.696s1.424,6.694,3.109,6.694V44.578z"/>
				<path fill="#4A5158" d="M37.145,44.578v-0.956c1.685,0,3.107-3.065,3.107-6.694s-1.422-6.696-3.107-6.696v-0.954
					c2.278,0,4.064,3.359,4.064,7.65C41.208,41.219,39.423,44.578,37.145,44.578z"/>
				<rect x="36.666" y="29.756" fill="#4A5158" width="0.956" height="14.346"/>
				<rect x="29.972" y="36.451" fill="#4A5158" width="14.346" height="0.954"/>
				<path fill="#4A5158" d="M37.145,33.819c-1.961,0-3.894-0.308-5.747-0.916l0.298-0.908c3.515,1.155,7.388,1.153,10.898,0
					l0.298,0.908C41.039,33.511,39.107,33.819,37.145,33.819z"/>
				<path fill="#4A5158" d="M31.696,41.863l-0.298-0.91c3.711-1.216,7.788-1.216,11.494,0l-0.298,0.91
					C39.08,40.709,35.213,40.707,31.696,41.863z"/>
			</g>
		</g>
	</g>
</g>
</svg>
