<?xml version="1.0" encoding="utf-8"?>
<!-- Generator: Adobe Illustrator 17.0.0, SVG Export Plug-In . SVG Version: 6.00 Build 0)  -->
<!DOCTYPE svg PUBLIC "-//W3C//DTD SVG 1.1//EN" "http://www.w3.org/Graphics/SVG/1.1/DTD/svg11.dtd">
<svg version="1.1" id="Layer_1" xmlns="http://www.w3.org/2000/svg" xmlns:xlink="http://www.w3.org/1999/xlink" x="0px" y="0px"
	 width="74px" height="74px" viewBox="0 0 74 74" enable-background="new 0 0 74 74" xml:space="preserve">
<g>
	<ellipse fill="#95D9F1" cx="37.154" cy="37.215" rx="37.061" ry="36.979"/>
	<path fill="#71C9E9" d="M56.96,25.252c-0.818-0.96-2.23-1.233-3.363-0.58c-0.231,0.132-0.435,0.297-0.608,0.482l-1.43-0.824
		l-0.271,0.47l-1.218-1.328l-1.489-0.856l-0.271,0.47l-1.218-1.33L45.603,20.9l-0.187,0.325c-0.085-0.096-6.126-6.122-6.232-6.21
		c-0.816-0.962-2.23-1.234-3.361-0.582c-1.095,0.63-1.568,1.914-1.22,3.07l-1.43,0.823l0.612,1.054l3.257,3.306h-0.498v1.413
		l-4.86-4.914l-1.489,0.856l0.61,1.056l5.739,5.782v0.956l0.631,0.614c-0.008,0-0.013,0-0.019,0c-0.306,0-0.608,0.015-0.906,0.046
		L28.706,20.9l-1.489,0.856l0.612,1.056l6.234,6.204c-0.473,0.178-0.927,0.396-1.358,0.649l-6.976-7.049l-1.489,0.856l0.61,1.056
		l6.378,6.229c-0.36,0.328-0.693,0.683-0.991,1.065l-7.485-7.493l-1.431,0.824c-0.829-0.879-2.18-1.113-3.275-0.482
		c-1.276,0.735-1.712,2.363-0.976,3.634c0.152,0.261,1.614,1.724,1.699,1.801v1.104l11.169,11.002c0.05,0.071,0.82,1.021,1.16,1.346
		c0.096,0.102,5.559,5.554,5.662,5.65c0.096,0.1-0.304-0.098-0.304-0.098l-0.096,0.056l-7.654-7.786l-0.294,0.169l-8.421-8.621
		h-1.222v1.716l14.576,14.542l-0.541-0.042L19.99,36.357h-1.222v1.716l5.87,5.65l-0.4,0.23l0.173,0.295L19.99,39.79h-1.222v1.716
		l3.577,3.538l-0.448,0.259L19.99,43.22h-1.222v1.645c-0.248,0.06-0.491,0.154-0.723,0.288c-1.276,0.733-1.712,2.361-0.976,3.632
		c0.115,0.198,16.32,16.396,25.011,25.073c16.527-2.19,29.607-15.242,31.8-31.732C68.147,36.399,57.039,25.319,56.96,25.252z"/>
	<g>
		<g>
			<g>
				<rect x="36.544" y="36.413" fill="#FFFFFF" width="1.22" height="0.802"/>
				<path fill="#FFFFFF" d="M37.764,34.697h-1.22V32.98h1.22V34.697z M37.764,31.264h-1.22V29.55h1.22V31.264z M37.764,27.834h-1.22
					v-1.716h1.22V27.834z M37.764,24.402h-1.22v-1.716h1.22V24.402z M37.764,20.971h-1.22v-1.716h1.22V20.971z"/>
				<rect x="36.544" y="16.734" fill="#FFFFFF" width="1.22" height="0.804"/>
			</g>
			<g>
				<rect x="36.544" y="37.215" fill="#FFFFFF" width="1.22" height="0.804"/>
				<path fill="#FFFFFF" d="M37.764,55.176h-1.22v-1.714h1.22V55.176z M37.764,51.745h-1.22v-1.716h1.22V51.745z M37.764,48.313
					h-1.22v-1.714h1.22V48.313z M37.764,44.882h-1.22v-1.716h1.22V44.882z M37.764,41.452h-1.22v-1.716h1.22V41.452z"/>
				<rect x="36.544" y="56.892" fill="#FFFFFF" width="1.22" height="0.804"/>
			</g>
			<g>
				
					<rect x="19.118" y="46.852" transform="matrix(0.5002 0.8659 -0.8659 0.5002 50.7754 6.5336)" fill="#FFFFFF" width="1.219" height="0.804"/>
				<path fill="#FFFFFF" d="M21.872,46.723l-0.61-1.056l1.489-0.856l0.61,1.054L21.872,46.723z M24.85,45.007l-0.612-1.054
					l1.489-0.858l0.612,1.054L24.85,45.007z M27.829,43.291l-0.612-1.054l1.489-0.858l0.612,1.056L27.829,43.291z M30.807,41.577
					l-0.612-1.056l1.489-0.858l0.612,1.056L30.807,41.577z M33.783,39.861l-0.61-1.054l1.489-0.858l0.61,1.054L33.783,39.861z"/>
				<polygon fill="#FFFFFF" points="36.762,38.146 36.371,37.467 36.152,37.342 36.225,37.215 36.152,37.09 36.371,36.966 
					36.762,36.286 38.376,37.215 				"/>
				<path fill="#FFFFFF" d="M34.663,36.484l-1.489-0.858l0.61-1.054l1.489,0.856L34.663,36.484z M31.684,34.768l-1.489-0.858
					l0.612-1.054l1.489,0.858L31.684,34.768z M28.706,33.052l-1.489-0.856l0.612-1.056l1.489,0.858L28.706,33.052z M25.728,31.337
					l-1.489-0.858l0.61-1.056l1.491,0.858L25.728,31.337z M22.749,29.621l-1.489-0.858l0.612-1.056l1.489,0.86L22.749,29.621z"/>
				
					<rect x="19.326" y="26.567" transform="matrix(0.8665 0.4992 -0.4992 0.8665 16.199 -6.2194)" fill="#FFFFFF" width="0.804" height="1.219"/>
			</g>
			<g>
				
					<rect x="53.973" y="26.773" transform="matrix(0.5008 0.8655 -0.8655 0.5008 50.7684 -33.6777)" fill="#FFFFFF" width="1.218" height="0.806"/>
				<path fill="#FFFFFF" d="M39.646,36.484l-0.608-1.056l1.489-0.856l0.608,1.054L39.646,36.484z M42.626,34.768l-0.612-1.056
					l1.489-0.856l0.61,1.054L42.626,34.768z M45.603,33.052l-0.61-1.054l1.489-0.858l0.61,1.056L45.603,33.052z M48.581,31.337
					l-0.61-1.056l1.489-0.858l0.61,1.056L48.581,31.337z M51.56,29.621l-0.61-1.054l1.489-0.86l0.61,1.056L51.56,29.621z"/>
				<polygon fill="#FFFFFF" points="37.549,38.146 35.935,37.215 37.549,36.286 37.941,36.966 38.159,37.09 38.086,37.215 
					38.159,37.342 37.941,37.467 				"/>
				<path fill="#FFFFFF" d="M52.439,46.723l-1.489-0.858l0.61-1.054l1.489,0.856L52.439,46.723z M49.461,45.007l-1.489-0.858
					l0.612-1.054l1.487,0.858L49.461,45.007z M46.482,43.291l-1.489-0.856l0.61-1.056l1.489,0.858L46.482,43.291z M43.506,41.577
					l-1.489-0.858l0.608-1.056l1.489,0.858L43.506,41.577z M40.527,39.861l-1.489-0.858l0.61-1.054l1.489,0.858L40.527,39.861z"/>
				
					<rect x="54.18" y="46.645" transform="matrix(0.8671 0.4982 -0.4982 0.8671 30.799 -20.9113)" fill="#FFFFFF" width="0.805" height="1.219"/>
			</g>
			<g>
				<polygon fill="#FFFFFF" points="37.154,58.399 36.152,57.821 36.762,56.767 37.154,56.994 37.547,56.767 38.157,57.821 				"/>
				<path fill="#FFFFFF" d="M34.663,56.963l-1.489-0.856l0.61-1.056l1.489,0.858L34.663,56.963z M31.684,55.247l-1.489-0.856
					l0.61-1.056l1.489,0.858L31.684,55.247z M28.706,53.533l-1.489-0.858l0.61-1.056l1.489,0.858L28.706,53.533z M25.728,51.816
					l-1.489-0.858l0.61-1.056l1.491,0.86L25.728,51.816z M22.749,50.1l-1.489-0.858l0.612-1.054l1.489,0.858L22.749,50.1z"/>
				<polygon fill="#FFFFFF" points="19.771,48.386 18.769,47.806 18.769,46.65 19.99,46.65 19.99,47.104 20.383,47.33 				"/>
				<path fill="#FFFFFF" d="M19.99,44.936h-1.222V43.22h1.222V44.936z M19.99,41.506h-1.222V39.79h1.222V41.506z M19.99,38.073
					h-1.222v-1.716h1.222V38.073z M19.99,34.643h-1.222v-1.716h1.222V34.643z M19.99,31.211h-1.222v-1.714h1.222V31.211z"/>
				<polygon fill="#FFFFFF" points="19.99,27.78 18.769,27.78 18.769,26.624 19.771,26.047 20.383,27.101 19.99,27.327 				"/>
				<path fill="#FFFFFF" d="M21.872,26.244l-0.61-1.056l1.489-0.858l0.61,1.056L21.872,26.244z M24.848,24.528l-0.61-1.056
					l1.489-0.856l0.612,1.054L24.848,24.528z M27.829,22.812l-0.612-1.056l1.489-0.856l0.612,1.054L27.829,22.812z M30.805,21.096
					l-0.61-1.056l1.489-0.856l0.61,1.054L30.805,21.096z M33.785,19.38l-0.612-1.054l1.489-0.858l0.612,1.056L33.785,19.38z"/>
				<polygon fill="#FFFFFF" points="37.547,17.663 37.154,17.439 36.762,17.663 36.152,16.61 37.154,16.032 38.157,16.61 				"/>
				<path fill="#FFFFFF" d="M52.439,26.244l-1.489-0.86l0.61-1.054l1.489,0.858L52.439,26.244z M49.461,24.528l-1.489-0.858
					l0.61-1.054l1.489,0.856L49.461,24.528z M46.482,22.812l-1.489-0.858l0.61-1.054l1.489,0.856L46.482,22.812z M43.504,21.096
					l-1.489-0.858l0.61-1.054l1.489,0.856L43.504,21.096z M40.527,19.38l-1.489-0.856l0.608-1.056l1.489,0.858L40.527,19.38z"/>
				<polygon fill="#FFFFFF" points="55.54,27.78 54.321,27.78 54.321,27.327 53.928,27.101 54.538,26.047 55.54,26.624 				"/>
				<path fill="#FFFFFF" d="M55.54,44.936h-1.22V43.22h1.22V44.936z M55.54,41.506h-1.22V39.79h1.22V41.506z M55.54,38.073h-1.22
					v-1.716h1.22V38.073z M55.54,34.641h-1.22v-1.714h1.22V34.641z M55.54,31.211h-1.22v-1.714h1.22V31.211z"/>
				<polygon fill="#FFFFFF" points="54.538,48.386 53.928,47.33 54.321,47.104 54.321,46.65 55.54,46.65 55.54,47.806 				"/>
				<path fill="#FFFFFF" d="M39.646,56.963l-0.61-1.054l1.489-0.858l0.61,1.056L39.646,56.963z M42.625,55.247l-0.61-1.054
					l1.489-0.858l0.61,1.056L42.625,55.247z M45.603,53.533l-0.61-1.056l1.489-0.858l0.61,1.056L45.603,53.533z M48.581,51.816
					l-0.61-1.054l1.489-0.86l0.61,1.056L48.581,51.816z M51.56,50.1l-0.61-1.054l1.489-0.858l0.61,1.054L51.56,50.1z"/>
			</g>
		</g>
		<g>
			<ellipse fill="#FFFFFF" cx="37.156" cy="37.217" rx="8.789" ry="8.767"/>
			<g>
				<path fill="#343C44" d="M42.057,42.111c-1.255,1.252-2.988,2.025-4.904,2.025c-3.825,0-6.93-3.098-6.93-6.918
					c0-2.883,1.766-5.356,4.279-6.393l2.651,6.393L42.057,42.111z"/>
				<path fill="#F4836B" d="M44.089,37.217h-6.934v-6.918C40.983,30.299,44.089,33.395,44.089,37.217z"/>
				<path fill="#D9D8D7" d="M44.089,37.217c0,1.908-0.775,3.638-2.032,4.891l-4.902-4.891H44.089z"/>
				<path fill="#E2503B" d="M37.152,30.299v6.918l-2.651-6.393C35.319,30.485,36.215,30.299,37.152,30.299z"/>
			</g>
			<path fill="#343C44" d="M21.689,25.645c0.735,1.273,0.298,2.901-0.977,3.634c-1.276,0.735-2.905,0.3-3.642-0.973
				c-0.737-1.271-0.3-2.899,0.976-3.634C19.321,23.937,20.952,24.373,21.689,25.645z"/>
			<path fill="#FFFFFF" d="M39.465,15.406c0.735,1.273,0.3,2.899-0.977,3.634c-1.276,0.735-2.905,0.3-3.642-0.973
				c-0.735-1.273-0.298-2.899,0.977-3.634C37.097,13.697,38.728,14.135,39.465,15.406z"/>
			<path fill="#343C44" d="M57.241,25.645c0.735,1.273,0.298,2.899-0.977,3.634c-1.274,0.735-2.905,0.3-3.642-0.973
				c-0.737-1.271-0.3-2.899,0.975-3.634C54.873,23.937,56.504,24.373,57.241,25.645z"/>
			<path fill="#FFFFFF" d="M57.241,46.124c0.735,1.273,0.298,2.901-0.977,3.636c-1.276,0.735-2.905,0.299-3.642-0.975
				c-0.737-1.273-0.3-2.899,0.975-3.634C54.873,44.416,56.504,44.854,57.241,46.124z"/>
			<path fill="#343C44" d="M39.465,56.364c0.735,1.275,0.3,2.901-0.977,3.636c-1.276,0.733-2.905,0.3-3.642-0.975
				c-0.735-1.271-0.298-2.899,0.975-3.632C37.097,54.658,38.728,55.093,39.465,56.364z"/>
			<path fill="#FFFFFF" d="M21.689,46.124c0.735,1.273,0.298,2.901-0.977,3.636c-1.276,0.735-2.905,0.299-3.642-0.975
				c-0.737-1.271-0.3-2.899,0.976-3.632C19.321,44.416,20.952,44.854,21.689,46.124z"/>
		</g>
	</g>
</g>
</svg>
