<?xml version="1.0" encoding="utf-8"?>
<!-- Generator: Adobe Illustrator 17.0.0, SVG Export Plug-In . SVG Version: 6.00 Build 0)  -->
<!DOCTYPE svg PUBLIC "-//W3C//DTD SVG 1.1//EN" "http://www.w3.org/Graphics/SVG/1.1/DTD/svg11.dtd">
<svg version="1.1" id="Layer_1" xmlns="http://www.w3.org/2000/svg" xmlns:xlink="http://www.w3.org/1999/xlink" x="0px" y="0px"
	 width="74px" height="74px" viewBox="0 0 74 74" enable-background="new 0 0 74 74" xml:space="preserve">
<g>
	<ellipse fill="#4A5158" cx="37.063" cy="37.026" rx="36.91" ry="36.902"/>
	<path fill="#343C44" d="M46.522,23.989c-0.253-0.218-0.596-0.33-0.952-0.266l-1.705,0.289c-0.14,0.025-0.285,0.023-0.433,0.004
		l-2.386-2.383c-0.006-0.006-0.009-0.01-0.009-0.01l-0.031-0.029c-0.031-0.035-0.061-0.061-0.094-0.09l-0.029-0.029
		c-0.01-0.008-0.019-0.013-0.029-0.021c-0.033-0.025-0.065-0.05-0.102-0.071c-0.027-0.019-0.057-0.035-0.086-0.048
		c-0.031-0.015-0.059-0.033-0.09-0.044c-0.061-0.025-0.123-0.046-0.186-0.059c-0.019-0.004-0.036-0.006-0.054-0.008
		c-0.052-0.01-0.101-0.015-0.153-0.017c-0.025-0.002-0.054,0-0.079,0c-0.044,0.002-0.086,0.006-0.128,0.012
		c-0.029,0.004-0.057,0.01-0.086,0.015c-0.042,0.01-0.084,0.023-0.127,0.036c-0.027,0.009-0.05,0.017-0.075,0.027
		c-0.065,0.029-0.13,0.059-0.192,0.102l-1.443,0.958c-0.544,0.36-1.439,0.36-1.981,0l-1.445-0.958
		c-0.542-0.362-1.276-0.205-1.629,0.347l-0.928,1.462c-0.349,0.552-1.161,0.916-1.811,0.805l-1.703-0.289
		c-0.648-0.109-1.253,0.333-1.349,0.981l-0.251,1.709c-0.096,0.648-0.695,1.309-1.33,1.471l-1.671,0.433
		c-0.638,0.167-1.01,0.814-0.834,1.442l0.462,1.663c0.176,0.632-0.1,1.481-0.609,1.889l-1.363,1.077
		c-0.51,0.404-0.59,1.153-0.172,1.657l1.106,1.333c0.414,0.5,0.51,1.391,0.205,1.971l-0.801,1.529
		c-0.05,0.094-0.078,0.191-0.102,0.289c-0.006,0.027-0.009,0.052-0.013,0.079c-0.012,0.084-0.017,0.167-0.012,0.249
		c0.002,0.017,0,0.033,0.002,0.05c0.01,0.096,0.035,0.188,0.067,0.278c0.008,0.021,0.019,0.044,0.029,0.065
		c0.036,0.08,0.079,0.155,0.132,0.228c0.004,0.006,0.008,0.014,0.012,0.019l0.008,0.008c0.057,0.073,0.123,0.142,0.199,0.199
		l2.727,2.732h0.002L24.9,46.672c-0.038,0.659,0.462,1.215,1.113,1.243l1.692,0.071l-5.088,10.658l15.268,15.263
		c15.711-0.343,28.998-10.495,33.98-24.58L46.522,23.989z"/>
	<g>
		<g>
			<g>
				<polygon fill="#EA6653" points="29.669,43.862 22.62,58.642 28.079,56.707 30.014,62.167 37.062,47.387 				"/>
				<polygon fill="#EA6653" points="44.454,43.862 51.506,58.642 46.047,56.707 44.113,62.167 37.062,47.387 				"/>
			</g>
		</g>
		<path fill="#FECE67" d="M36.073,22.355c0.544,0.362,1.437,0.362,1.983,0l1.441-0.956c0.544-0.362,1.278-0.207,1.629,0.347
			l0.925,1.462c0.351,0.552,1.167,0.916,1.813,0.805l1.705-0.287c0.646-0.111,1.251,0.33,1.347,0.977l0.253,1.709
			c0.096,0.648,0.694,1.312,1.328,1.475l1.673,0.433c0.634,0.163,1.01,0.812,0.834,1.445l-0.464,1.659
			c-0.176,0.632,0.1,1.481,0.611,1.887l1.361,1.079c0.512,0.406,0.59,1.151,0.172,1.657l-1.104,1.331
			c-0.416,0.504-0.51,1.391-0.207,1.971l0.801,1.531c0.303,0.582,0.071,1.295-0.515,1.586l-1.548,0.768
			c-0.586,0.291-1.033,1.063-0.993,1.718l0.107,1.724c0.042,0.653-0.46,1.211-1.115,1.237l-1.727,0.073
			c-0.655,0.029-1.378,0.554-1.606,1.169l-0.6,1.617c-0.23,0.615-0.914,0.92-1.523,0.678l-1.61-0.636
			c-0.607-0.239-1.481-0.054-1.939,0.414l-1.209,1.234c-0.458,0.467-1.207,0.467-1.667,0l-1.211-1.234
			c-0.458-0.467-1.33-0.653-1.939-0.414l-1.61,0.636c-0.609,0.241-1.293-0.063-1.521-0.678l-0.602-1.617
			c-0.228-0.615-0.95-1.14-1.606-1.169l-1.727-0.073c-0.653-0.027-1.156-0.584-1.115-1.237l0.109-1.724
			c0.04-0.655-0.406-1.427-0.993-1.718l-1.55-0.768c-0.586-0.291-0.818-1.004-0.515-1.586l0.803-1.531
			c0.303-0.58,0.209-1.467-0.209-1.971l-1.104-1.333c-0.418-0.504-0.339-1.249,0.174-1.655l1.359-1.079
			c0.514-0.406,0.789-1.255,0.613-1.885l-0.466-1.663c-0.176-0.63,0.199-1.28,0.834-1.443l1.675-0.433
			c0.634-0.163,1.23-0.827,1.326-1.475l0.253-1.709c0.096-0.648,0.703-1.088,1.349-0.977l1.705,0.287
			c0.646,0.111,1.46-0.253,1.811-0.805L33,21.746c0.351-0.554,1.084-0.709,1.631-0.347L36.073,22.355z"/>
		<path fill="#F5B541" d="M48.574,37.024c0,6.357-5.155,11.51-11.511,11.51c-6.358,0-11.51-5.153-11.51-11.51
			c0-6.353,5.153-11.506,11.51-11.506C43.42,25.518,48.574,30.672,48.574,37.024z"/>
		<g>
			<rect x="35.763" y="31.658" fill="#FFFFFF" width="2.602" height="10.736"/>
			<path fill="#FFFFFF" d="M33.808,36.212v-2.602c1.077,0,1.955-0.876,1.955-1.952h2.602C38.365,34.17,36.32,36.212,33.808,36.212z"
				/>
			<rect x="33.808" y="41.094" fill="#FFFFFF" width="6.509" height="2.602"/>
		</g>
	</g>
</g>
</svg>
