<?xml version="1.0" encoding="utf-8"?>
<!-- Generator: Adobe Illustrator 17.0.0, SVG Export Plug-In . SVG Version: 6.00 Build 0)  -->
<!DOCTYPE svg PUBLIC "-//W3C//DTD SVG 1.1//EN" "http://www.w3.org/Graphics/SVG/1.1/DTD/svg11.dtd">
<svg version="1.1" id="Layer_1" xmlns="http://www.w3.org/2000/svg" xmlns:xlink="http://www.w3.org/1999/xlink" x="0px" y="0px"
	 width="74px" height="74px" viewBox="0 0 74 74" enable-background="new 0 0 74 74" xml:space="preserve">
<g>
	<ellipse fill="#FECE67" cx="37.057" cy="37.09" rx="36.936" ry="37.02"/>
	<path fill="#F5B541" d="M72.721,46.728L45.216,19.165c-0.013-0.015-0.029-0.035-0.042-0.048l-0.096-0.096
		c-0.019-0.019-0.038-0.033-0.052-0.048c-0.253-0.206-0.564-0.331-0.911-0.331h-2.011H29.999c-0.786,0-1.428,0.646-1.428,1.434
		v8.475c0,0.24,0.065,0.465,0.172,0.665c0.065,0.127,0.146,0.246,0.245,0.346l5.212,5.224l-0.155,0.156H19.366v6.39h-3.517
		c-0.786,0-1.43,0.646-1.43,1.434v8.473c0,0.392,0.163,0.755,0.42,1.013l21.799,21.848c0.14,0.002,0.28,0.011,0.42,0.011
		C54.129,74.111,68.489,62.499,72.721,46.728z"/>
	<g>
		<g>
			<polygon fill="#FFFFFF" points="54.75,41.33 53.322,41.33 53.322,36.374 39.774,36.374 39.774,34.94 54.75,34.94 			"/>
			<polygon fill="#FFFFFF" points="20.792,41.33 19.364,41.33 19.364,34.94 34.34,34.94 34.34,36.374 20.792,36.374 			"/>
			<path fill="#FFFFFF" d="M37.057,39.395l-3.728-3.736l3.728-3.736l3.728,3.736L37.057,39.395z M35.352,35.659l1.705,1.708
				l1.707-1.708l-1.707-1.711L35.352,35.659z"/>
			<rect x="36.342" y="38.38" fill="#FFFFFF" width="1.43" height="2.95"/>
			<rect x="36.342" y="29.985" fill="#FFFFFF" width="1.43" height="2.948"/>
		</g>
		<path fill="#343C44" d="M45.546,28.552c0,0.79-0.642,1.434-1.429,1.434H29.997c-0.786,0-1.428-0.644-1.428-1.434v-8.477
			c0-0.788,0.642-1.434,1.428-1.434h14.121c0.786,0,1.429,0.646,1.429,1.434V28.552z"/>
		<path fill="#FFFFFF" d="M42.718,51.241c0,0.788-0.644,1.434-1.43,1.434h-8.46c-0.786,0-1.428-0.646-1.428-1.434v-8.477
			c0-0.788,0.642-1.434,1.428-1.434h8.46c0.786,0,1.43,0.646,1.43,1.434V51.241z"/>
		<path fill="#FFFFFF" d="M25.738,51.241c0,0.788-0.642,1.434-1.429,1.434h-8.46c-0.786,0-1.43-0.646-1.43-1.434v-8.477
			c0-0.788,0.644-1.434,1.43-1.434h8.46c0.786,0,1.429,0.646,1.429,1.434V51.241z"/>
		<path fill="#FFFFFF" d="M59.695,51.241c0,0.788-0.644,1.434-1.43,1.434h-8.458c-0.788,0-1.43-0.646-1.43-1.434v-8.477
			c0-0.788,0.642-1.434,1.43-1.434h8.458c0.786,0,1.43,0.646,1.43,1.434V51.241z"/>
		<g>
			<rect x="31.822" y="25.117" fill="#FFFFFF" width="5.235" height="1.607"/>
			<rect x="31.822" y="21.904" fill="#FFFFFF" width="10.47" height="1.607"/>
		</g>
		<g>
			<rect x="17.218" y="47.805" fill="#E6E5E5" width="5.72" height="1.608"/>
			<rect x="17.22" y="44.591" fill="#E6E5E5" width="5.718" height="1.609"/>
		</g>
		<g>
			<rect x="34.198" y="47.805" fill="#E6E5E5" width="5.718" height="1.608"/>
			<rect x="34.198" y="44.591" fill="#E6E5E5" width="5.718" height="1.609"/>
		</g>
		<g>
			<rect x="51.176" y="47.805" fill="#E6E5E5" width="5.72" height="1.608"/>
			<rect x="51.176" y="44.591" fill="#E6E5E5" width="5.72" height="1.609"/>
		</g>
	</g>
</g>
</svg>
