<?xml version="1.0" encoding="utf-8"?>
<!-- Generator: Adobe Illustrator 17.0.0, SVG Export Plug-In . SVG Version: 6.00 Build 0)  -->
<!DOCTYPE svg PUBLIC "-//W3C//DTD SVG 1.1//EN" "http://www.w3.org/Graphics/SVG/1.1/DTD/svg11.dtd">
<svg version="1.1" id="Layer_1" xmlns="http://www.w3.org/2000/svg" xmlns:xlink="http://www.w3.org/1999/xlink" x="0px" y="0px"
	 width="74px" height="74px" viewBox="0 0 74 74" enable-background="new 0 0 74 74" xml:space="preserve">
<g>
	<ellipse fill="#FECE67" cx="37.082" cy="36.97" rx="37.061" ry="37.019"/>
	<path fill="#F5B541" d="M73.904,41.125L56.072,23.313l-0.171-0.173c-0.598-0.519-1.48-0.757-2.574-0.757
		c-0.333,0-0.689,0.023-1.062,0.065L47.312,17.5c-0.518-0.515-1.225-0.83-2.005-0.83H28.857c-1.558,0-2.83,1.27-2.83,2.833v1.862
		V23.5c-0.435-0.148-0.856-0.286-1.262-0.405l-0.273,0.917l1.535,1.534v0.238l-3.161-3.158c-0.721-0.138-1.391-0.21-1.974-0.215
		l-0.01,0.957l5.145,5.139v1.499l-7.221-7.213c-0.383,0.19-0.689,0.444-0.908,0.759c-0.075,0.108-0.135,0.219-0.19,0.334
		c-0.014,0.031-0.029,0.062-0.04,0.092c-0.046,0.109-0.089,0.223-0.117,0.34c-0.002,0.01-0.006,0.017-0.008,0.025
		c-0.031,0.125-0.048,0.256-0.062,0.388c-0.004,0.036-0.006,0.073-0.008,0.111c-0.008,0.121-0.01,0.246-0.002,0.375
		c0,0.015,0,0.031,0,0.048c0.01,0.142,0.031,0.288,0.056,0.438c0.008,0.042,0.015,0.083,0.025,0.123
		c0.027,0.135,0.058,0.271,0.098,0.411c0.006,0.021,0.01,0.042,0.017,0.065c0.046,0.158,0.102,0.321,0.165,0.486
		c0.016,0.042,0.033,0.086,0.05,0.129c0.058,0.146,0.121,0.296,0.191,0.446c0.012,0.027,0.021,0.052,0.033,0.077
		c0.083,0.175,0.173,0.352,0.269,0.531c0.023,0.044,0.046,0.086,0.069,0.131c0.088,0.158,0.181,0.319,0.279,0.484
		c0.017,0.027,0.033,0.054,0.048,0.081c0.115,0.188,0.239,0.381,0.367,0.573c0.025,0.04,0.052,0.081,0.079,0.119
		c0.119,0.173,0.24,0.35,0.367,0.526c0.019,0.027,0.038,0.054,0.058,0.081c0.146,0.202,0.3,0.406,0.46,0.611
		c0.027,0.035,0.054,0.069,0.081,0.104c0.148,0.188,0.3,0.377,0.456,0.567c0.021,0.025,0.041,0.05,0.06,0.075
		c0.177,0.213,0.362,0.431,0.55,0.646c0.023,0.027,0.046,0.054,0.071,0.081c0.175,0.202,0.358,0.406,0.545,0.609
		c0.014,0.015,0.025,0.029,0.038,0.044c0.008,0.008,0.016,0.015,0.023,0.023c0.194,0.213,0.392,0.427,0.596,0.64
		c0.019,0.019,0.037,0.04,0.056,0.06c0.014,0.013,0.029,0.029,0.039,0.038l0.008,0.008c0.485,0.505,0.997,1.015,1.529,1.528
		l1.872,1.87v0.348c-5.901,5.235-9.928,10.599-8.125,13.171c0.054,0.071,0.106,0.138,0.164,0.2c0.042,0.048,0.085,0.09,0.129,0.129
		l23.058,23.033C58.389,71.833,71.99,58.245,73.904,41.125z"/>
	<g>
		<g>
			<path fill="#FFFFFF" d="M18.687,49.839l-0.783,0.548c0.221,0.317,0.527,0.573,0.906,0.759l0.423-0.857
				C18.995,50.171,18.818,50.025,18.687,49.839z"/>
			<path fill="#FFFFFF" d="M56.323,26.752c-0.206,0.548-0.502,1.147-0.883,1.781l-0.82-0.488c0.35-0.586,0.621-1.134,0.808-1.63
				L56.323,26.752z M54.35,30.155c-0.36,0.488-0.766,0.999-1.204,1.518l-0.731-0.619c0.425-0.502,0.818-0.996,1.166-1.468
				L54.35,30.155z M51.863,33.115c-0.419,0.45-0.872,0.915-1.341,1.38l-0.673-0.678c0.462-0.457,0.904-0.913,1.316-1.355
				L51.863,33.115z M49.133,35.825c-0.46,0.425-0.935,0.853-1.43,1.284l-0.629-0.719c0.487-0.423,0.956-0.846,1.408-1.265
				L49.133,35.825z M46.241,38.354c-0.483,0.4-0.981,0.803-1.491,1.205l-0.593-0.75c0.504-0.398,0.995-0.794,1.474-1.192
				L46.241,38.354z M43.228,40.727c-0.506,0.381-1.022,0.759-1.547,1.136l-0.556-0.778c0.52-0.371,1.029-0.746,1.53-1.121
				L43.228,40.727z M40.109,42.963c-0.535,0.363-1.066,0.719-1.595,1.063l-0.523-0.801c0.525-0.34,1.051-0.692,1.58-1.051
				L40.109,42.963z M36.894,45.053c-0.552,0.342-1.102,0.671-1.645,0.988l-0.483-0.824c0.537-0.313,1.077-0.638,1.624-0.976
				L36.894,45.053z M33.579,46.989c-0.573,0.315-1.141,0.617-1.697,0.901l-0.437-0.851c0.548-0.281,1.106-0.577,1.672-0.888
				L33.579,46.989z M30.154,48.738c-0.596,0.283-1.189,0.546-1.757,0.786l-0.373-0.878c0.556-0.237,1.137-0.496,1.724-0.773
				L30.154,48.738z M26.6,50.235c-0.637,0.234-1.256,0.442-1.839,0.613l-0.271-0.917c0.564-0.165,1.162-0.365,1.782-0.592
				L26.6,50.235z M22.864,51.315c-0.727,0.138-1.393,0.211-1.978,0.217l-0.009-0.955c0.529-0.006,1.137-0.073,1.808-0.2
				L22.864,51.315z"/>
			<path fill="#FFFFFF" d="M56.267,23.552l-0.781,0.55c0.129,0.184,0.206,0.404,0.235,0.665l0.95-0.102
				C56.627,24.243,56.49,23.869,56.267,23.552z"/>
		</g>
		<path fill="#FFFFFF" d="M17.898,23.554c-2.478,3.538,6.068,12.358,15.365,18.863c9.299,6.504,20.52,11.508,23,7.972l-0.783-0.55
			c-1.545,2.206-10.824-0.623-21.666-8.206C22.97,34.049,17.136,26.308,18.681,24.101L17.898,23.554z"/>
		<g>
			<path fill="#343C44" d="M45.309,16.669H28.861c-1.56,0-2.836,1.272-2.836,2.833V54.44c0,1.561,1.276,2.831,2.836,2.831h16.448
				c1.56,0,2.832-1.27,2.832-2.831V19.502C48.142,17.942,46.87,16.669,45.309,16.669z"/>
			<rect x="27.628" y="22.808" fill="#F4836B" width="18.911" height="28.332"/>
			<path fill="#4A5158" d="M35.357,54.87c-0.318,0-0.579-0.257-0.579-0.578v-0.175c0-0.321,0.262-0.576,0.579-0.576h3.456
				c0.315,0,0.577,0.255,0.577,0.576v0.175c0,0.321-0.262,0.578-0.577,0.578H35.357z"/>
			<g>
				<path fill="#4A5158" d="M37.867,19.744c0,0.434-0.348,0.782-0.785,0.782c-0.431,0-0.783-0.348-0.783-0.782
					c0-0.43,0.352-0.786,0.783-0.786C37.519,18.958,37.867,19.314,37.867,19.744z"/>
				<path fill="#343C44" d="M37.369,19.744c0,0.156-0.127,0.281-0.285,0.281s-0.287-0.125-0.287-0.281
					c0-0.158,0.129-0.286,0.287-0.286S37.369,19.587,37.369,19.744z"/>
			</g>
		</g>
		<path fill="#FFFFFF" d="M53.325,22.383c-4.566,0-12.883,4.124-20.056,9.142C23.97,38.031,15.424,46.85,17.902,50.387l0.785-0.548
			c-1.547-2.204,4.289-9.948,15.131-17.531c10.844-7.584,20.121-10.411,21.668-8.206l0.783-0.55
			C55.701,22.744,54.678,22.383,53.325,22.383z"/>
		<g>
			<path fill="#FFFFFF" d="M55.717,49.174c-0.029,0.258-0.108,0.482-0.237,0.665l0.783,0.55c0.223-0.319,0.358-0.692,0.404-1.113
				L55.717,49.174z"/>
			<path fill="#FFFFFF" d="M22.868,22.627l-0.179,0.938c-0.671-0.129-1.279-0.196-1.809-0.202l0.01-0.955
				C21.477,22.414,22.142,22.489,22.868,22.627z M26.604,23.707l-0.329,0.896c-0.616-0.225-1.216-0.425-1.782-0.592l0.271-0.917
				C25.352,23.267,25.969,23.473,26.604,23.707z M30.158,25.204l-0.408,0.865c-0.585-0.275-1.166-0.534-1.724-0.773l0.373-0.878
				C28.969,24.661,29.561,24.924,30.158,25.204z M33.581,26.955l-0.46,0.836c-0.566-0.309-1.124-0.605-1.674-0.888l0.437-0.849
				C32.442,26.338,33.007,26.64,33.581,26.955z M36.896,28.891l-0.504,0.813c-0.545-0.336-1.087-0.663-1.624-0.976l0.483-0.825
				C35.795,28.22,36.343,28.548,36.896,28.891z M40.113,30.983l-0.541,0.788c-0.529-0.359-1.054-0.711-1.578-1.051l0.522-0.802
				C39.045,30.263,39.578,30.618,40.113,30.983z M43.23,33.217l-0.573,0.763c-0.5-0.373-1.01-0.748-1.53-1.12l0.556-0.777
				C42.21,32.459,42.726,32.838,43.23,33.217z M46.243,35.592l-0.61,0.736c-0.479-0.398-0.972-0.796-1.474-1.192l0.591-0.75
				C45.261,34.789,45.758,35.19,46.243,35.592z M49.133,38.121l-0.65,0.7c-0.452-0.419-0.922-0.842-1.407-1.267l0.629-0.719
				C48.198,37.266,48.675,37.697,49.133,38.121z M51.865,40.833l-0.7,0.65c-0.417-0.446-0.86-0.901-1.316-1.353l0.673-0.678
				C50.987,39.913,51.44,40.378,51.865,40.833z M54.35,43.793l-0.77,0.567c-0.346-0.471-0.739-0.965-1.166-1.47l0.731-0.615
				C53.587,42.795,53.991,43.305,54.35,43.793z M56.321,47.196l-0.895,0.336c-0.187-0.496-0.458-1.045-0.808-1.63l0.822-0.49
				C55.818,46.047,56.115,46.649,56.321,47.196z"/>
			<path fill="#FFFFFF" d="M18.804,22.794c-0.379,0.188-0.685,0.442-0.906,0.759l0.783,0.548c0.131-0.185,0.308-0.333,0.546-0.45
				L18.804,22.794z"/>
		</g>
		<g>
			<path fill="#FFFFFF" d="M43.539,40.32c0,3.561-2.89,6.448-6.455,6.448c-3.565,0-6.459-2.887-6.459-6.448
				c0-3.565,2.894-6.45,6.459-6.45C40.65,33.87,43.539,36.755,43.539,40.32z"/>
			<g>
				<g>
					<circle fill="#343C44" cx="34.505" cy="40.318" r="0.771"/>
					<circle fill="#343C44" cx="37.083" cy="40.318" r="0.769"/>
					<circle fill="#343C44" cx="39.661" cy="40.318" r="0.77"/>
				</g>
			</g>
		</g>
	</g>
</g>
</svg>
