<?xml version="1.0" encoding="utf-8"?>
<!-- Generator: Adobe Illustrator 17.0.0, SVG Export Plug-In . SVG Version: 6.00 Build 0)  -->
<!DOCTYPE svg PUBLIC "-//W3C//DTD SVG 1.1//EN" "http://www.w3.org/Graphics/SVG/1.1/DTD/svg11.dtd">
<svg version="1.1" id="Layer_1" xmlns="http://www.w3.org/2000/svg" xmlns:xlink="http://www.w3.org/1999/xlink" x="0px" y="0px"
	 width="74px" height="74px" viewBox="0 0 74 74" enable-background="new 0 0 74 74" xml:space="preserve">
<g>
	<ellipse fill="#495057" cx="37" cy="36.995" rx="37" ry="37.005"/>
	<path fill="#343B43" d="M73.971,38.147L55.773,19.948c-0.263-0.267-0.611-0.396-0.96-0.396h-35.63
		c-0.342,0-0.691,0.129-0.955,0.396c-0.261,0.263-0.396,0.605-0.396,0.955v27.776c0,0.334,0.125,0.668,0.363,0.926
		c0.01,0.01,0.023,0.023,0.033,0.035c0.01,0.008,0.025,0.023,0.035,0.033l23.951,23.955C59.806,71.145,73.414,56.293,73.971,38.147z
		"/>
	<g>
		<g>
			<rect x="31.362" y="50.035" fill="#D9D8D7" width="11.276" height="4.96"/>
			<rect x="28.656" y="54.996" fill="#FFFFFF" width="16.689" height="1.354"/>
			<path fill="#343C44" d="M17.831,45.525V20.903c0-0.346,0.133-0.692,0.396-0.957c0.265-0.265,0.611-0.396,0.959-0.396h35.629
				c0.346,0,0.693,0.131,0.957,0.396c0.265,0.265,0.398,0.611,0.398,0.957v24.621L17.831,45.525L17.831,45.525z"/>
			<rect x="20.313" y="22.031" fill="#FFFFFF" width="33.375" height="21.012"/>
			<path fill="#FFFFFF" d="M56.168,48.681c0,0.346-0.132,0.693-0.398,0.957c-0.263,0.263-0.611,0.398-0.957,0.398H19.186
				c-0.348,0-0.694-0.134-0.959-0.398c-0.263-0.263-0.396-0.611-0.396-0.957v-3.156h38.337
				C56.168,45.525,56.168,48.681,56.168,48.681z"/>
			<g>
				<g>
					<g>
						<rect x="21.666" y="23.383" fill="#E6AA3C" width="9.32" height="3.158"/>
						<rect x="32.34" y="23.383" fill="#E6AA3C" width="9.32" height="3.158"/>
						<rect x="43.012" y="23.383" fill="#E6AA3C" width="9.322" height="3.158"/>
					</g>
					<g>
						<rect x="21.666" y="27.894" fill="#E6AA3C" width="9.32" height="6.221"/>
						<rect x="32.34" y="27.894" fill="#E6AA3C" width="9.32" height="6.221"/>
						<rect x="43.012" y="27.894" fill="#E6AA3C" width="9.322" height="6.221"/>
					</g>
					<rect x="21.666" y="35.469" fill="#E6AA3C" width="30.669" height="6.221"/>
				</g>
			</g>
		</g>
		<g>
			<path fill="#343C44" d="M57.913,35.469h-8.45c-0.799,0-1.454,0.653-1.454,1.456v17.967c0,0.803,0.655,1.458,1.454,1.458h8.45
				c0.801,0,1.454-0.655,1.454-1.458V36.926C59.367,36.123,58.714,35.469,57.913,35.469z"/>
			<rect x="48.831" y="38.626" fill="#FFFFFF" width="9.714" height="14.572"/>
			<path fill="#4A5158" d="M52.799,55.115c-0.163,0-0.296-0.135-0.296-0.298v-0.09c0-0.165,0.132-0.296,0.296-0.296h1.777
				c0.161,0,0.296,0.131,0.296,0.296v0.09c0,0.163-0.135,0.298-0.296,0.298H52.799z"/>
			<g>
				<circle fill="#4A5158" cx="53.688" cy="37.051" r="0.402"/>
				<path fill="#343C44" d="M53.835,37.051c0,0.079-0.065,0.144-0.146,0.144c-0.083,0-0.148-0.065-0.148-0.144
					c0-0.083,0.065-0.148,0.148-0.148C53.769,36.903,53.835,36.968,53.835,37.051z"/>
			</g>
			<g>
				<g>
					<rect x="49.568" y="39.363" fill="#F5B540" width="8.239" height="2.455"/>
					<rect x="49.568" y="42.557" fill="#F5B540" width="8.239" height="4.582"/>
					<rect x="49.568" y="47.876" fill="#F5B540" width="8.239" height="4.584"/>
				</g>
			</g>
		</g>
	</g>
</g>
</svg>
