<?xml version="1.0" encoding="utf-8"?>
<!-- Generator: Adobe Illustrator 17.0.0, SVG Export Plug-In . SVG Version: 6.00 Build 0)  -->
<!DOCTYPE svg PUBLIC "-//W3C//DTD SVG 1.1//EN" "http://www.w3.org/Graphics/SVG/1.1/DTD/svg11.dtd">
<svg version="1.1" id="Layer_1" xmlns="http://www.w3.org/2000/svg" xmlns:xlink="http://www.w3.org/1999/xlink" x="0px" y="0px"
	 width="74px" height="74px" viewBox="0 0 74 74" enable-background="new 0 0 74 74" xml:space="preserve">
<g>
	<circle fill="#FECE67" cx="36.989" cy="37.033" r="37.061"/>
	<path fill="#F5B541" d="M73.769,41.533L51.337,19.099h-5.185l-3.146-3.146c-0.741-0.747-1.736-1.156-2.788-1.156h-6.455
		c-1.052,0-2.047,0.41-2.79,1.156c-0.745,0.741-1.156,1.736-1.156,2.788v0.358h-7.173v21.52c-0.737,0-1.468,0.283-2.028,0.841
		c-0.56,0.56-0.841,1.293-0.841,2.028v5.739c0,0.737,0.281,1.468,0.841,2.026l2.028,2.028v1.684c0,1.101,0.421,2.205,1.262,3.046
		l15.96,15.962C57.494,72.618,71.66,58.938,73.769,41.533z"/>
	<g>
		<path fill="#FFFFFF" d="M51.337,54.967c0,1.101-0.421,2.201-1.262,3.042c-0.839,0.841-1.941,1.26-3.042,1.26H26.948
			c-1.103,0-2.203-0.419-3.044-1.26c-0.839-0.841-1.262-1.941-1.262-3.042V19.099h28.695V54.967z"/>
		<path fill="#343C44" d="M22.642,54.967c0,1.101,0.423,2.201,1.262,3.042c0.841,0.841,1.941,1.26,3.044,1.26h20.085
			c1.101,0,2.203-0.419,3.042-1.26c0.841-0.841,1.262-1.941,1.262-3.042H22.642z"/>
		<path fill="#EA6653" d="M51.337,26.274c0,1.101-0.421,2.203-1.262,3.042c-0.839,0.843-1.941,1.262-3.042,1.262H26.948
			c-1.103,0-2.203-0.419-3.044-1.262c-0.839-0.839-1.262-1.941-1.262-3.042v-7.175h28.695V26.274z"/>
		<path fill="#EA6653" d="M47.033,40.619H26.948v9.326c0,0.55,0.21,1.101,0.629,1.522c0.421,0.419,0.972,0.629,1.524,0.629H44.88
			c0.55,0,1.101-0.21,1.522-0.629c0.421-0.421,0.631-0.972,0.631-1.522V40.619z"/>
		<rect x="44.164" y="24.838" fill="#343C44" width="2.869" height="12.912"/>
		<rect x="26.948" y="24.838" fill="#343C44" width="2.869" height="12.912"/>
		<rect x="25.513" y="33.446" fill="#EA6653" width="5.737" height="2.869"/>
		<rect x="42.729" y="33.446" fill="#EA6653" width="5.737" height="2.869"/>
		<rect x="26.948" y="40.619" fill="#E2503B" width="20.085" height="2.869"/>
		<path fill="#343C44" d="M54.206,49.227c0,0.733-0.281,1.468-0.841,2.028c-0.56,0.562-1.295,0.841-2.028,0.841l0,0V40.619l0,0
			c0.733,0,1.468,0.279,2.028,0.841c0.56,0.558,0.841,1.293,0.841,2.028V49.227z"/>
		<path fill="#343C44" d="M22.642,52.096L22.642,52.096c-0.733,0-1.468-0.279-2.028-0.841c-0.56-0.56-0.841-1.295-0.841-2.028
			v-5.739c0-0.735,0.281-1.47,0.841-2.028c0.56-0.562,1.295-0.841,2.028-0.841l0,0V52.096z"/>
		<path fill="#343C44" d="M43.008,15.951c-0.745-0.747-1.738-1.154-2.79-1.154h-6.457c-1.052,0-2.043,0.408-2.788,1.154
			c-0.747,0.747-1.156,1.736-1.156,2.79v0.358h2.153v-0.358c0-0.479,0.185-0.929,0.523-1.268c0.338-0.339,0.789-0.525,1.268-0.525
			h6.457c0.479,0,0.929,0.187,1.268,0.525c0.339,0.339,0.525,0.789,0.525,1.268v0.358h2.153v-0.358
			C44.164,17.687,43.752,16.698,43.008,15.951z"/>
	</g>
</g>
</svg>
