<?xml version="1.0" encoding="utf-8"?>
<!-- Generator: Adobe Illustrator 17.0.0, SVG Export Plug-In . SVG Version: 6.00 Build 0)  -->
<!DOCTYPE svg PUBLIC "-//W3C//DTD SVG 1.1//EN" "http://www.w3.org/Graphics/SVG/1.1/DTD/svg11.dtd">
<svg version="1.1" id="Layer_1" xmlns="http://www.w3.org/2000/svg" xmlns:xlink="http://www.w3.org/1999/xlink" x="0px" y="0px"
	 width="74px" height="74px" viewBox="0 0 74 74" enable-background="new 0 0 74 74" xml:space="preserve">
<g>
	<circle fill="#F4836B" cx="36.96" cy="37.077" r="37.019"/>
	<path fill="#EA6653" d="M73.578,42.511L56.01,24.945c-0.025-0.025-0.044-0.044-0.063-0.067l-0.129-0.129
		c-0.019-0.025-0.042-0.042-0.067-0.062c-0.536-0.475-1.311-0.713-2.262-0.755h-0.002l-6.169-6.171
		c-0.188-0.217-0.407-0.402-0.651-0.555c-0.006-0.004-0.014-0.008-0.021-0.012c-0.134-0.083-0.277-0.156-0.425-0.215
		c-0.017-0.006-0.033-0.012-0.05-0.017c-0.146-0.056-0.296-0.102-0.452-0.133c-0.015-0.002-0.031-0.004-0.044-0.006
		c-0.162-0.029-0.329-0.046-0.498-0.046h-4.926H28.745c-1.557,0-2.829,1.27-2.829,2.833v4.747v0.682
		c-0.434-0.146-0.859-0.285-1.264-0.404l-0.269,0.915l1.534,1.534v0.24l-3.158-3.158c-0.724-0.138-1.393-0.211-1.977-0.215
		l-0.008,0.955l5.143,5.145v1.49l-7.207-7.207c-0.377,0.186-0.684,0.444-0.907,0.759c-0.087,0.123-0.154,0.252-0.213,0.386
		c-0.012,0.025-0.023,0.048-0.035,0.075c-0.052,0.131-0.092,0.265-0.123,0.405c-0.006,0.029-0.01,0.06-0.015,0.09
		c-0.025,0.146-0.044,0.296-0.048,0.454c0,0.012,0.002,0.023,0.002,0.033c-0.002,0.154,0.009,0.313,0.029,0.475
		c0.004,0.029,0.006,0.056,0.01,0.085c0.023,0.167,0.058,0.338,0.102,0.515c0.008,0.033,0.015,0.065,0.025,0.096
		c0.05,0.185,0.108,0.371,0.177,0.561c0.004,0.011,0.01,0.023,0.013,0.033c0.071,0.196,0.156,0.396,0.25,0.601
		c0.008,0.016,0.013,0.029,0.019,0.044c0.096,0.208,0.204,0.419,0.321,0.634c0.014,0.023,0.025,0.048,0.039,0.071
		c0.375,0.682,0.851,1.403,1.411,2.149c0.004,0.006,0.009,0.012,0.013,0.019c0.978,1.303,2.214,2.685,3.628,4.09l2.51,2.51v0.334
		c-5.898,5.235-9.92,10.601-8.12,13.174c0.048,0.071,0.1,0.139,0.163,0.202c0.065,0.081,0.148,0.158,0.229,0.229l21.619,21.619
		C57.109,72.659,71.085,59.457,73.578,42.511z"/>
	<g>
		<g>
			<path fill="#FFFFFF" d="M18.584,25.642l-0.782-0.55c0.223-0.315,0.527-0.571,0.907-0.757l0.421,0.857
				C18.894,25.308,18.715,25.456,18.584,25.642z"/>
			<path fill="#FFFFFF" d="M55.286,49.066c-0.188-0.496-0.459-1.043-0.809-1.63l0.821-0.488c0.379,0.632,0.675,1.232,0.882,1.78
				L55.286,49.066z M53.441,45.893c-0.348-0.471-0.74-0.967-1.165-1.468l0.73-0.617c0.436,0.519,0.842,1.03,1.203,1.518
				L53.441,45.893z M51.025,43.018c-0.411-0.44-0.853-0.896-1.314-1.353l0.673-0.678c0.471,0.465,0.92,0.93,1.341,1.38
				L51.025,43.018z M48.346,40.356c-0.452-0.419-0.921-0.842-1.405-1.267l0.629-0.719c0.492,0.432,0.969,0.859,1.426,1.286
				L48.346,40.356z M45.5,37.864c-0.479-0.398-0.971-0.794-1.474-1.192l0.592-0.75c0.509,0.402,1.007,0.805,1.491,1.205L45.5,37.864
				z M42.525,35.517c-0.5-0.375-1.009-0.75-1.528-1.122l0.557-0.777c0.525,0.377,1.04,0.755,1.545,1.134L42.525,35.517z
				 M39.444,33.309c-0.527-0.359-1.053-0.711-1.576-1.053l0.521-0.799c0.529,0.344,1.061,0.7,1.595,1.063L39.444,33.309z
				 M36.267,31.241c-0.544-0.338-1.086-0.663-1.622-0.976l0.482-0.824c0.544,0.317,1.092,0.646,1.643,0.988L36.267,31.241z
				 M33,29.328c-0.565-0.309-1.122-0.605-1.672-0.888l0.436-0.85c0.557,0.285,1.122,0.586,1.695,0.901L33,29.328z M29.633,27.606
				c-0.586-0.275-1.165-0.534-1.722-0.771l0.373-0.878c0.569,0.238,1.159,0.503,1.756,0.786L29.633,27.606z M26.162,26.142
				c-0.619-0.227-1.216-0.427-1.78-0.592l0.271-0.917c0.582,0.171,1.199,0.377,1.837,0.611L26.162,26.142z M22.578,25.104
				c-0.671-0.127-1.278-0.196-1.806-0.2l0.01-0.955c0.586,0.006,1.249,0.079,1.976,0.217L22.578,25.104z"/>
			<path fill="#FFFFFF" d="M56.123,51.93l-0.782-0.55c0.131-0.184,0.208-0.404,0.236-0.665l0.949,0.102
				C56.481,51.238,56.346,51.612,56.123,51.93z"/>
		</g>
		<path fill="#FFFFFF" d="M17.796,51.928c-2.474-3.538,6.061-12.359,15.35-18.863c9.288-6.504,20.494-11.508,22.974-7.972
			l-0.784,0.55c-1.543-2.206-10.812,0.623-21.642,8.206S17.037,49.174,18.578,51.38L17.796,51.928z"/>
		<g>
			<path fill="#343C44" d="M45.179,16.777H28.747c-1.557,0-2.833,1.272-2.833,2.833v34.935c0,1.563,1.276,2.833,2.833,2.833h16.432
				c1.557,0,2.827-1.27,2.827-2.833V19.61C48.006,18.049,46.735,16.777,45.179,16.777z"/>
			<rect x="27.517" y="22.915" fill="#FECE67" width="18.888" height="28.332"/>
			<path fill="#4A5158" d="M35.235,54.978c-0.317,0-0.577-0.257-0.577-0.578v-0.175c0-0.321,0.26-0.578,0.577-0.578h3.452
				c0.315,0,0.577,0.257,0.577,0.578v0.175c0,0.321-0.262,0.578-0.577,0.578H35.235z"/>
			<g>
				<circle fill="#4A5158" cx="36.96" cy="19.852" r="0.783"/>
				<circle fill="#343C44" cx="36.961" cy="19.852" r="0.284"/>
			</g>
		</g>
		<path fill="#FFFFFF" d="M53.185,53.098c-4.563,0-12.869-4.124-20.033-9.142c-9.29-6.506-17.825-15.325-15.35-18.861l0.782,0.548
			c-1.543,2.204,4.284,9.948,15.115,17.531c10.829,7.584,20.099,10.411,21.642,8.206l0.782,0.548
			C55.558,52.737,54.536,53.098,53.185,53.098z"/>
		<g>
			<path fill="#FFFFFF" d="M55.572,26.307c-0.027-0.258-0.108-0.482-0.235-0.665l0.78-0.55c0.223,0.317,0.359,0.692,0.404,1.113
				L55.572,26.307z"/>
			<path fill="#FFFFFF" d="M20.785,53.073l-0.01-0.955c0.531-0.006,1.138-0.075,1.807-0.202l0.181,0.938
				C22.036,52.992,21.371,53.065,20.785,53.073z M24.655,52.387l-0.269-0.917c0.565-0.167,1.163-0.367,1.778-0.594l0.331,0.897
				C25.86,52.006,25.242,52.214,24.655,52.387z M28.288,51.063l-0.375-0.88c0.559-0.236,1.138-0.496,1.724-0.771l0.405,0.865
				C29.447,50.557,28.857,50.821,28.288,51.063z M31.766,49.427l-0.434-0.849c0.548-0.283,1.105-0.579,1.67-0.888l0.459,0.836
				C32.888,48.841,32.323,49.143,31.766,49.427z M35.131,47.579l-0.483-0.825c0.536-0.313,1.076-0.64,1.622-0.976l0.503,0.813
				C36.221,46.931,35.673,47.261,35.131,47.579z M38.393,45.563l-0.523-0.802c0.523-0.34,1.049-0.692,1.576-1.053l0.54,0.79
				C39.453,44.863,38.921,45.218,38.393,45.563z M41.556,43.399l-0.557-0.779c0.519-0.371,1.028-0.746,1.528-1.118l0.575,0.761
				C42.596,42.643,42.081,43.022,41.556,43.399z M44.619,41.094l-0.592-0.75c0.503-0.396,0.995-0.796,1.472-1.192l0.611,0.736
				C45.626,40.291,45.129,40.693,44.619,41.094z M47.571,38.646l-0.63-0.719c0.486-0.425,0.955-0.848,1.407-1.267l0.65,0.7
				C48.54,37.785,48.063,38.215,47.571,38.646z M50.383,36.03l-0.673-0.678c0.457-0.454,0.899-0.907,1.314-1.355l0.7,0.652
				C51.3,35.104,50.848,35.569,50.383,36.03z M53.006,33.207l-0.73-0.615c0.427-0.505,0.817-0.999,1.165-1.47l0.769,0.567
				C53.85,32.177,53.444,32.686,53.006,33.207z M55.297,30.066l-0.822-0.488c0.35-0.584,0.621-1.134,0.807-1.63l0.896,0.336
				C55.97,28.833,55.674,29.434,55.297,30.066z"/>
			<path fill="#FFFFFF" d="M18.703,52.687c-0.381-0.188-0.684-0.442-0.907-0.759l0.782-0.548c0.131,0.185,0.309,0.333,0.546,0.45
				L18.703,52.687z"/>
		</g>
		<g>
			<circle fill="#FFFFFF" cx="36.961" cy="35.171" r="5.971"/>
			<g>
				<g>
					<path fill="#F5B541" d="M36.961,38.921c-2.068,0-3.749-1.682-3.749-3.75s1.682-3.752,3.749-3.752
						c2.066,0,3.75,1.684,3.75,3.752c0,0.223-0.183,0.405-0.407,0.405c-0.223,0-0.406-0.182-0.406-0.405
						c0-1.622-1.316-2.939-2.937-2.939c-1.62,0-2.938,1.317-2.938,2.939c0,1.618,1.318,2.937,2.938,2.937
						c0.519,0,1.026-0.135,1.468-0.392c0.194-0.112,0.444-0.046,0.556,0.148c0.111,0.194,0.046,0.442-0.148,0.555
						C38.27,38.746,37.622,38.921,36.961,38.921z"/>
					<path fill="#F5B541" d="M36.961,37.249c-1.145,0-2.077-0.932-2.077-2.078s0.932-2.079,2.077-2.079
						c1.146,0,2.078,0.934,2.078,2.079S38.106,37.249,36.961,37.249z M36.961,33.904c-0.698,0-1.266,0.567-1.266,1.267
						c0,0.698,0.569,1.266,1.266,1.266c0.698,0,1.267-0.569,1.267-1.266C38.227,34.471,37.658,33.904,36.961,33.904z"/>
					<path fill="#F5B541" d="M39.469,37.249c-0.331,0-0.642-0.129-0.877-0.363c-0.234-0.231-0.365-0.542-0.365-0.878v-0.836
						c0-0.223,0.181-0.406,0.405-0.406c0.225,0,0.406,0.183,0.406,0.406v0.836c0,0.115,0.044,0.223,0.125,0.302
						c0.167,0.167,0.448,0.165,0.611,0.002c0.079-0.079,0.123-0.188,0.123-0.304v-0.836c0-0.223,0.183-0.406,0.406-0.406
						c0.225,0,0.407,0.183,0.407,0.406v0.836c0,0.332-0.129,0.644-0.361,0.878C40.111,37.12,39.799,37.249,39.469,37.249z"/>
				</g>
			</g>
		</g>
	</g>
</g>
</svg>
