<?xml version="1.0" encoding="utf-8"?>
<!-- Generator: Adobe Illustrator 17.0.0, SVG Export Plug-In . SVG Version: 6.00 Build 0)  -->
<!DOCTYPE svg PUBLIC "-//W3C//DTD SVG 1.1//EN" "http://www.w3.org/Graphics/SVG/1.1/DTD/svg11.dtd">
<svg version="1.1" id="Layer_1" xmlns="http://www.w3.org/2000/svg" xmlns:xlink="http://www.w3.org/1999/xlink" x="0px" y="0px"
	 width="74px" height="74px" viewBox="0 0 74 74" enable-background="new 0 0 74 74" xml:space="preserve">
<g>
	<ellipse fill="#95D9F1" cx="37.138" cy="37.026" rx="36.936" ry="37.019"/>
	<path fill="#71C9E9" d="M38.922,74c18.326-0.874,33.154-15.133,34.964-33.239l-16.97-17.007c-0.315-0.319-0.729-0.476-1.143-0.476
		H18.503c-0.414,0-0.828,0.157-1.147,0.476c-0.314,0.315-0.472,0.732-0.472,1.147v21.938c0,0.398,0.142,0.794,0.433,1.109
		c0.01,0.015,0.023,0.029,0.038,0.044c0.013,0.014,0.027,0.027,0.042,0.039l2.903,2.908l-3.417,0.973L38.922,74z"/>
	<g>
		<g>
			<rect x="19.862" y="50.189" fill="#4A5158" width="21.409" height="1.149"/>
			<rect x="19.862" y="51.338" fill="#343C44" width="21.409" height="1.149"/>
			<rect x="19.862" y="52.487" fill="#1E262E" width="21.409" height="1.149"/>
			<polygon fill="#FFFFFF" points="19.862,53.638 17.874,52.487 17.874,51.34 19.862,50.189 			"/>
			<polygon fill="#CCCBCA" points="19.862,53.638 19.862,52.487 17.874,52.105 17.874,52.487 			"/>
			<polygon fill="#343C44" points="17.874,52.487 16.884,51.913 17.874,51.34 			"/>
			<rect x="41.27" y="52.487" fill="#CCCBCA" width="1.147" height="1.149"/>
			<rect x="41.27" y="50.189" fill="#FFFFFF" width="1.147" height="2.299"/>
			<path fill="#E2503B" d="M42.682,53.636h-0.266v-1.149h0.266c0.439,0,0.88-0.167,1.218-0.504c0.186-0.19,0.322-0.411,0.404-0.646
				c0.065,0.184,0.098,0.378,0.098,0.575c0.002,0.44-0.167,0.882-0.502,1.22C43.562,53.469,43.121,53.636,42.682,53.636z"/>
			<path fill="#F4836B" d="M42.682,52.487h-0.266l0.002-2.301l0.264,0.002c0.439,0,0.882,0.169,1.218,0.505
				c0.186,0.185,0.32,0.409,0.404,0.644c-0.082,0.234-0.219,0.455-0.404,0.646C43.562,52.32,43.121,52.487,42.682,52.487z"/>
		</g>
		<g>
			<g>
				<path fill="#FFFFFF" d="M57.393,46.843c0,0.415-0.159,0.832-0.476,1.147c-0.316,0.319-0.73,0.477-1.145,0.477H18.503
					c-0.414,0-0.828-0.158-1.145-0.477c-0.316-0.315-0.474-0.732-0.474-1.147v-21.94c0-0.415,0.157-0.83,0.474-1.147
					c0.316-0.317,0.731-0.475,1.145-0.475h37.271c0.414,0,0.828,0.158,1.145,0.475c0.317,0.317,0.476,0.732,0.476,1.147V46.843z"/>
				<polygon fill="#FFFFFF" points="53,53.627 53,48.467 47.852,48.467 				"/>
			</g>
			<g>
				<rect x="21.275" y="42.244" fill="#CCCBCA" width="31.725" height="1.822"/>
				<rect x="35.806" y="38.604" fill="#CCCBCA" width="17.194" height="1.822"/>
				<rect x="35.806" y="34.964" fill="#CCCBCA" width="17.194" height="1.82"/>
				<rect x="35.806" y="31.322" fill="#CCCBCA" width="17.194" height="1.822"/>
				<rect x="35.806" y="27.682" fill="#343C44" width="8.596" height="1.82"/>
			</g>
			<g>
				<rect x="21.273" y="27.682" fill="#EA6653" width="12.715" height="12.744"/>
				<path fill="#FFFFFF" d="M28.88,30.343h-2.497l-2.784,7.42h2.337l0.361-1.224h2.598l0.37,1.224h2.397L28.88,30.343z
					 M26.796,34.935l0.807-2.668l0.817,2.668H26.796z"/>
			</g>
		</g>
	</g>
</g>
</svg>
