<?xml version="1.0" encoding="utf-8"?>
<!-- Generator: Adobe Illustrator 17.0.0, SVG Export Plug-In . SVG Version: 6.00 Build 0)  -->
<!DOCTYPE svg PUBLIC "-//W3C//DTD SVG 1.1//EN" "http://www.w3.org/Graphics/SVG/1.1/DTD/svg11.dtd">
<svg version="1.1" id="Layer_1" xmlns="http://www.w3.org/2000/svg" xmlns:xlink="http://www.w3.org/1999/xlink" x="0px" y="0px"
	 width="74px" height="74px" viewBox="0 0 74 74" enable-background="new 0 0 74 74" xml:space="preserve">
<g>
	<ellipse fill="#95D9F1" cx="37" cy="36.983" rx="37.019" ry="36.937"/>
	<path fill="#71C9E9" d="M57.3,21.259l-9.287,9.266L36.448,18.983L19.034,36.36L30.6,47.899l-6.348,6.332l19.167,19.123
		c17.085-2.982,30.133-17.645,30.577-35.438L57.3,21.259z"/>
	<g>
		<g>
			<polygon fill="#F4836B" points="52.253,24.671 50.624,23.047 26.262,47.351 27.892,48.977 			"/>
			<polygon fill="#EA6653" points="53.885,26.299 52.253,24.671 27.892,48.977 29.524,50.605 			"/>
			<polygon fill="#E2503B" points="55.513,27.925 53.885,26.299 29.524,50.605 31.152,52.229 			"/>
			<polygon fill="#FFFFFF" points="55.517,27.927 56.704,23.478 55.08,21.858 50.628,23.048 			"/>
			<polygon fill="#D9D8D7" points="55.517,27.927 53.885,26.299 56.162,22.937 56.704,23.478 			"/>
			<polygon fill="#343C44" points="56.704,23.478 57.3,21.259 55.08,21.858 			"/>
			<polygon fill="#D9D8D7" points="29.522,53.855 27.894,52.229 29.522,50.603 31.152,52.229 			"/>
			<polygon fill="#FFFFFF" points="27.894,52.229 24.634,48.977 26.262,47.351 29.524,50.603 			"/>
			<path fill="#343C44" d="M29.143,54.231l0.379-0.378l-1.63-1.624l-0.381,0.376c-0.623,0.623-1.485,1.012-2.439,1.012
				c-0.534-0.004-1.044-0.121-1.491-0.341c0.171,0.359,0.394,0.679,0.673,0.957c0.626,0.625,1.491,1.007,2.448,1.01
				C27.656,55.243,28.519,54.852,29.143,54.231z"/>
			<path fill="#4A5158" d="M27.511,52.605l0.381-0.376l-3.259-3.252l-0.379,0.378c-0.625,0.621-1.011,1.486-1.011,2.437
				c0,0.529,0.121,1.034,0.338,1.484c0.448,0.221,0.957,0.337,1.491,0.341C26.026,53.617,26.889,53.228,27.511,52.605z"/>
		</g>
		<g>
			<g>
				<path fill="#FECE67" d="M49.473,54.233c0.26,0.259,0.584,0.452,0.913,0.518c0.331,0.065,0.602-0.008,0.774-0.18l2.589-2.583
					L24.563,22.872L21.3,26.128L49.473,54.233z"/>
				<path fill="#F5B541" d="M53.749,51.987l0.617-0.614c0.259-0.261,0.419-0.617,0.419-1.012c0-0.395-0.159-0.752-0.419-1.011
					L26.195,21.244l-1.632,1.628L53.749,51.987z"/>
			</g>
			<g>
				<path fill="#343C44" d="M35.151,19.758c-1.603,1.599-4.201,1.595-5.802-0.004l-12.65,12.621l5.804,5.791l16.586-16.548
					l-2.902-2.895L35.151,19.758z"/>
				<polygon fill="#4A5158" points="20.846,38.166 22.503,38.166 16.699,32.375 16.699,34.028 				"/>
			</g>
		</g>
	</g>
</g>
</svg>
