<?xml version="1.0" encoding="utf-8"?>
<!-- Generator: Adobe Illustrator 17.0.0, SVG Export Plug-In . SVG Version: 6.00 Build 0)  -->
<!DOCTYPE svg PUBLIC "-//W3C//DTD SVG 1.1//EN" "http://www.w3.org/Graphics/SVG/1.1/DTD/svg11.dtd">
<svg version="1.1" id="Layer_1" xmlns="http://www.w3.org/2000/svg" xmlns:xlink="http://www.w3.org/1999/xlink" x="0px" y="0px"
	 width="74px" height="74px" viewBox="0 0 74 74" enable-background="new 0 0 74 74" xml:space="preserve">
<g>
	<circle fill="#F4836B" cx="37.041" cy="37.08" r="36.977"/>
	<path fill="#EA6653" d="M50.12,23.932c-0.278-0.253-0.626-0.382-0.979-0.382h-9.27c-0.601,0-1.088,0.482-1.088,1.083
		c0,0.334,0.157,0.633,0.395,0.835c1.075,0.701,1.791,1.908,1.791,3.288c0,0.336-0.048,0.662-0.129,0.975l-5.79-5.79l-0.046-0.048
		c-0.017-0.017-0.035-0.035-0.05-0.052l-0.052-0.048c-0.019-0.017-0.044-0.031-0.065-0.046c-0.011-0.008-0.021-0.016-0.033-0.023
		c-0.046-0.029-0.092-0.054-0.142-0.075c-0.014-0.008-0.027-0.016-0.042-0.019c-0.048-0.019-0.098-0.035-0.15-0.046
		c-0.017-0.006-0.033-0.012-0.05-0.014c-0.067-0.013-0.138-0.021-0.209-0.021h-9.27c-0.369,0-0.735,0.138-1.017,0.415
		c-0.276,0.28-0.415,0.649-0.415,1.016v6.824v2.448c0,0.601-0.486,1.086-1.083,1.086c-0.338,0-0.639-0.157-0.835-0.395
		c-0.706-1.073-1.914-1.789-3.287-1.789c-2.167,0-3.928,1.76-3.928,3.926c0,1.017,0.386,1.943,1.021,2.64
		c0,0.006,0.006,0.009,0.01,0.009l0.247,0.248c0,0.006,0.006,0.01,0.01,0.01l7.844,7.844v1.351c0,0.367,0.138,0.733,0.415,1.016
		L46.55,72.819C59.327,69.427,69.386,59.37,72.778,46.59L50.12,23.932z"/>
	<path fill="#FFFFFF" d="M55.78,33.157c-1.392,0-2.615,0.729-3.308,1.826c0.006-0.015,0.01-0.027,0.017-0.037
		c-0.2,0.236-0.497,0.392-0.833,0.392c-0.597,0-1.081-0.484-1.081-1.085v-9.274c0-0.365-0.14-0.731-0.42-1.012
		c-0.278-0.278-0.645-0.419-1.012-0.419h-9.274c-0.599,0-1.085,0.484-1.085,1.085c0,0.332,0.157,0.633,0.393,0.833
		c-0.009-0.01-0.019-0.014-0.029-0.019c1.088,0.699,1.818,1.916,1.818,3.31c0,2.167-1.758,3.926-3.926,3.926
		c-2.167,0-3.926-1.759-3.926-3.926c0-1.394,0.729-2.611,1.818-3.31c-0.01,0.006-0.019,0.01-0.029,0.019
		c0.236-0.2,0.394-0.501,0.394-0.833c0-0.601-0.486-1.085-1.086-1.085H24.94c-0.367,0-0.733,0.14-1.012,0.419
		c-0.28,0.28-0.42,0.647-0.42,1.012v9.274c0,0.601-0.484,1.085-1.081,1.085c-0.338,0-0.637-0.155-0.833-0.392
		c0.014,0.019,0.029,0.046,0.04,0.067c-0.695-1.113-1.925-1.856-3.331-1.856c-2.167,0-3.926,1.758-3.926,3.924
		c0,2.169,1.759,3.928,3.926,3.928c1.403,0,2.636-0.745,3.329-1.856c-0.012,0.021-0.025,0.046-0.039,0.067
		c0.196-0.238,0.495-0.394,0.833-0.394c0.597,0,1.081,0.484,1.081,1.084v9.272c0,0.369,0.14,0.733,0.42,1.014
		c0.278,0.28,0.645,0.419,1.012,0.419h9.272c0.601,0,1.086-0.484,1.086-1.085c0-0.332-0.157-0.635-0.394-0.835
		c0.015,0.015,0.033,0.023,0.054,0.033c-1.106-0.697-1.843-1.918-1.843-3.321c0-2.167,1.758-3.926,3.926-3.926
		c2.167,0,3.926,1.758,3.926,3.926c0,1.403-0.739,2.626-1.843,3.321c0.015-0.01,0.038-0.017,0.054-0.033
		c-0.236,0.2-0.393,0.503-0.393,0.835c0,0.601,0.486,1.085,1.085,1.085h9.274c0.367,0,0.733-0.138,1.012-0.419
		c0.28-0.28,0.42-0.645,0.42-1.014V39.91c0-0.601,0.484-1.084,1.081-1.084c0.336,0,0.634,0.155,0.833,0.394
		c-0.008-0.012-0.011-0.023-0.017-0.035c0.693,1.092,1.916,1.824,3.308,1.824c2.167,0,3.926-1.758,3.926-3.928
		C59.705,34.915,57.947,33.157,55.78,33.157z"/>
</g>
</svg>
