<?xml version="1.0" encoding="utf-8"?>
<!-- Generator: Adobe Illustrator 17.0.0, SVG Export Plug-In . SVG Version: 6.00 Build 0)  -->
<!DOCTYPE svg PUBLIC "-//W3C//DTD SVG 1.1//EN" "http://www.w3.org/Graphics/SVG/1.1/DTD/svg11.dtd">
<svg version="1.1" id="Layer_1" xmlns="http://www.w3.org/2000/svg" xmlns:xlink="http://www.w3.org/1999/xlink" x="0px" y="0px"
	 width="74px" height="74px" viewBox="0 0 74 74" enable-background="new 0 0 74 74" xml:space="preserve">
<g>
	<ellipse fill="#95D9F1" cx="37.076" cy="36.957" rx="36.977" ry="37.06"/>
	<path fill="#71C9E9" d="M73.836,40.943L53.904,20.966l-0.893-0.895c-2.342-2.138-5.458-3.438-8.875-3.438
		c-7.291,0-13.202,5.924-13.202,13.232v8.956l-4.467-4.475c-0.023-0.025-0.046-0.054-0.069-0.077l-4.826-4.829
		c-0.2-0.206-0.476-0.331-0.787-0.331c-0.305,0-0.585,0.125-0.787,0.331l-1.574,1.574c-3.379,3.384-1.269,11.065,4.673,17.639
		l2.307,2.315l21.631,21.678C61.383,68.631,72.21,56.172,73.836,40.943z"/>
	<g>
		<g>
			<g>
				<path fill="#343C44" d="M24.231,49.845c6.79,6.807,15.206,9.412,18.79,5.82l-6.394-6.411c-1.432,1.437-5.241-0.044-8.5-3.311
					c-3.26-3.267-4.74-7.082-3.306-8.521l-6.394-6.409C14.84,34.609,17.437,43.042,24.231,49.845z"/>
				<path fill="#343C44" d="M20,29.438c0.201-0.204,0.48-0.329,0.787-0.329c0.307,0,0.585,0.125,0.787,0.329l4.82,4.831
					c0.202,0.2,0.325,0.479,0.325,0.787c0,0.308-0.123,0.587-0.325,0.787l-1.574,1.58l-6.394-6.409L20,29.438z"/>
				<path fill="#343C44" d="M38.2,47.675c0.201-0.2,0.48-0.323,0.787-0.323c0.307,0,0.585,0.123,0.787,0.323l4.822,4.835
					c0.2,0.2,0.322,0.479,0.322,0.789c0,0.308-0.123,0.587-0.322,0.789l-1.576,1.578l-6.394-6.411L38.2,47.675z"/>
			</g>
		</g>
		<g>
			<g>
				<ellipse fill="#FFFFFF" cx="44.136" cy="29.863" rx="13.2" ry="13.229"/>
				<polygon fill="#FFFFFF" points="30.936,42.082 30.936,29.863 43.13,29.863 				"/>
			</g>
			<g>
				<circle fill="#CCCBCA" cx="41.187" cy="29.863" r="0.822"/>
				<circle fill="#CCCBCA" cx="44.136" cy="29.863" r="0.824"/>
				<circle fill="#CCCBCA" cx="47.086" cy="29.863" r="0.823"/>
			</g>
			<g>
				<g>
					<path fill="#CCCBCA" d="M44.136,39.236c-3.532,0-6.723-1.961-8.33-5.112l1.996-1.025c1.223,2.397,3.649,3.886,6.333,3.886
						s5.11-1.489,6.331-3.886c0.516-1.004,0.775-2.09,0.775-3.236h2.246c0,1.483-0.357,2.957-1.025,4.264
						C50.859,37.276,47.666,39.236,44.136,39.236z"/>
					<g>
						<polygon fill="#CCCBCA" points="35.559,31.167 34.365,34.859 36.805,33.611 						"/>
						<polygon fill="#CCCBCA" points="35.557,31.169 39.243,32.362 36.805,33.611 						"/>
					</g>
				</g>
				<g>
					<path fill="#CCCBCA" d="M37.029,29.863h-2.244c0-1.485,0.351-2.959,1.021-4.264c1.607-3.151,4.797-5.11,8.33-5.11
						c3.53,0,6.723,1.959,8.33,5.112l-1.998,1.024c-1.221-2.395-3.647-3.884-6.331-3.884s-5.11,1.489-6.333,3.884
						C37.291,27.629,37.029,28.716,37.029,29.863z"/>
					<g>
						<polygon fill="#CCCBCA" points="52.711,28.558 53.907,24.864 51.467,26.113 						"/>
						<polygon fill="#CCCBCA" points="52.711,28.556 49.028,27.362 51.467,26.113 						"/>
					</g>
				</g>
			</g>
		</g>
	</g>
</g>
</svg>
