<?xml version="1.0" encoding="utf-8"?>
<!-- Generator: Adobe Illustrator 17.0.0, SVG Export Plug-In . SVG Version: 6.00 Build 0)  -->
<!DOCTYPE svg PUBLIC "-//W3C//DTD SVG 1.1//EN" "http://www.w3.org/Graphics/SVG/1.1/DTD/svg11.dtd">
<svg version="1.1" id="Layer_1" xmlns="http://www.w3.org/2000/svg" xmlns:xlink="http://www.w3.org/1999/xlink" x="0px" y="0px"
	 width="74px" height="74px" viewBox="0 0 74 74" enable-background="new 0 0 74 74" xml:space="preserve">
<g>
	<circle fill="#F4836B" cx="37.089" cy="37.151" r="36.977"/>
	<g>
		<g>
			<path fill="#EA6653" d="M43.257,73.608c1.839-0.309,3.63-0.754,5.368-1.325l-27.49-27.49l-3.344-3.344
				c0,1.847-1.499,3.344-3.346,3.344l3.346,3.346v0.006L43.257,73.608z"/>
			<path fill="#EA6653" d="M71.941,49.515L47.937,25.512l-7.143,7.143l-5.227-5.227l-1.908-1.908l-5.124-5.12l-1.599-1.603
				c-0.004,0.887-0.72,1.603-1.603,1.603l1.603,1.603l3.517,3.517l3.688,3.688l4.066,4.066l0.985,0.985l-10.7,10.7l25.221,25.221
				C62.158,65.921,68.745,58.523,71.941,49.515z"/>
			<path fill="#EA6653" d="M47.296,14.412c0,1.474-1.198,2.676-2.678,2.676l28.475,28.475c0.35-1.494,0.616-3.02,0.776-4.577
				L47.296,14.412z"/>
		</g>
	</g>
	<g>
		<g>
			<polygon fill="#CCCBCA" points="43.28,34.949 37.087,53.556 30.894,34.949 			"/>
			<polygon fill="#FFFFFF" points="24.686,34.949 37.087,53.556 18.481,34.949 			"/>
			<polygon fill="#E6E5E5" points="30.894,34.949 37.087,53.556 24.686,34.949 			"/>
			<polygon fill="#FFFFFF" points="49.488,34.949 37.087,53.556 55.697,34.949 			"/>
			<polygon fill="#E6E5E5" points="43.28,34.949 37.087,53.556 49.488,34.949 			"/>
			<polygon fill="#E6E5E5" points="18.481,33.271 26.237,25.517 24.686,33.271 			"/>
			<polygon fill="#CCCBCA" points="30.894,33.271 37.087,25.517 43.28,33.271 			"/>
			<polygon fill="#FFFFFF" points="26.237,25.517 30.894,33.271 37.087,25.517 			"/>
			<polygon fill="#FFFFFF" points="47.931,25.517 43.28,33.271 37.087,25.517 			"/>
			<polygon fill="#E6E5E5" points="55.697,33.271 47.931,25.517 49.488,33.271 			"/>
			<polygon fill="#CCCBCA" points="49.488,33.271 47.931,25.517 43.28,33.271 			"/>
			<polygon fill="#CCCBCA" points="24.686,33.271 26.237,25.517 30.888,33.271 			"/>
			<rect x="49.488" y="33.271" fill="#CCCBCA" width="6.208" height="1.678"/>
			<rect x="43.28" y="33.271" fill="#FFFFFF" width="6.208" height="1.678"/>
			<rect x="18.481" y="33.271" fill="#CCCBCA" width="6.208" height="1.678"/>
			<rect x="24.686" y="33.271" fill="#FFFFFF" width="6.208" height="1.678"/>
			<rect x="30.894" y="33.271" fill="#E6E5E5" width="12.398" height="1.678"/>
		</g>
		<g>
			<path fill="#FFFFFF" d="M21.136,44.795c-1.849,0-3.346,1.501-3.346,3.346c0-1.845-1.501-3.346-3.348-3.346
				c1.847,0,3.348-1.501,3.348-3.346C17.79,43.294,19.288,44.795,21.136,44.795z"/>
			<path fill="#FFFFFF" d="M49.972,17.086c-1.478,0-2.678,1.202-2.678,2.678c0-1.476-1.198-2.678-2.674-2.678
				c1.476,0,2.674-1.204,2.674-2.678C47.294,15.882,48.494,17.086,49.972,17.086z"/>
			<path fill="#FFFFFF" d="M57.384,26.057c-0.985,0-1.785,0.798-1.785,1.781c0-0.983-0.8-1.781-1.783-1.781
				c0.983,0,1.783-0.804,1.783-1.789C55.599,25.252,56.399,26.057,57.384,26.057z"/>
			<path fill="#FFFFFF" d="M28.537,20.399c-0.885,0-1.603,0.718-1.603,1.603c0-0.885-0.718-1.603-1.603-1.603
				c0.885,0,1.603-0.724,1.603-1.607C26.934,19.676,27.652,20.399,28.537,20.399z"/>
		</g>
	</g>
</g>
</svg>
