<?xml version="1.0" encoding="utf-8"?>
<!-- Generator: Adobe Illustrator 17.0.0, SVG Export Plug-In . SVG Version: 6.00 Build 0)  -->
<!DOCTYPE svg PUBLIC "-//W3C//DTD SVG 1.1//EN" "http://www.w3.org/Graphics/SVG/1.1/DTD/svg11.dtd">
<svg version="1.1" id="Layer_1" xmlns="http://www.w3.org/2000/svg" xmlns:xlink="http://www.w3.org/1999/xlink" x="0px" y="0px"
	 width="74px" height="74px" viewBox="0 0 74 74" enable-background="new 0 0 74 74" xml:space="preserve">
<g>
	<ellipse fill="#FECE67" cx="37" cy="37.095" rx="37.019" ry="36.977"/>
	<path fill="#F5B541" d="M37.426,74.061c19.217-0.217,34.907-15.054,36.456-33.902L55.709,22.008
		c-0.261-0.263-0.605-0.397-0.95-0.397H19.24c-0.344,0-0.688,0.134-0.949,0.397c-0.263,0.263-0.398,0.605-0.398,0.95v23.895
		c0,0.344,0.135,0.691,0.398,0.954l5.583,5.577l-5.981,1.165L37.426,74.061z"/>
	<g>
		<g>
			<rect x="36.1" y="48.199" fill="#FFFFFF" width="1.799" height="3.663"/>
			<rect x="17.892" y="52.752" fill="#FFFFFF" width="17.316" height="1.797"/>
			<rect x="38.791" y="52.752" fill="#FFFFFF" width="17.316" height="1.797"/>
			<path fill="#FFFFFF" d="M37,56.338c-1.484,0-2.691-1.206-2.691-2.688s1.207-2.688,2.691-2.688s2.691,1.206,2.691,2.688
				S38.483,56.338,37,56.338z M37,52.76c-0.492,0-0.892,0.399-0.892,0.891c0,0.491,0.4,0.891,0.892,0.891s0.892-0.399,0.892-0.891
				C37.892,53.159,37.492,52.76,37,52.76z"/>
		</g>
		<path fill="#EA6653" d="M19.242,48.199c-0.344,0-0.69-0.131-0.953-0.394c-0.263-0.263-0.396-0.609-0.396-0.952V22.958
			c0-0.344,0.133-0.689,0.396-0.952c0.263-0.263,0.609-0.396,0.953-0.396h35.516c0.344,0,0.69,0.132,0.953,0.396
			c0.263,0.263,0.396,0.608,0.396,0.952v23.895c0,0.344-0.133,0.689-0.396,0.952c-0.263,0.263-0.609,0.394-0.953,0.394H19.242z"/>
		<g>
			<rect x="32.224" y="30.359" fill="#FFFFFF" width="9.552" height="6.362"/>
			<polygon fill="#343C44" points="35.991,32.177 38.355,33.54 35.991,34.903 			"/>
		</g>
		<g>
			<rect x="17.892" y="44.991" fill="#E2503B" width="38.214" height="0.954"/>
			<circle fill="#FFFFFF" cx="32.48" cy="45.469" r="1.168"/>
		</g>
	</g>
</g>
</svg>
