<?xml version="1.0" encoding="utf-8"?>
<!-- Generator: Adobe Illustrator 17.0.0, SVG Export Plug-In . SVG Version: 6.00 Build 0)  -->
<!DOCTYPE svg PUBLIC "-//W3C//DTD SVG 1.1//EN" "http://www.w3.org/Graphics/SVG/1.1/DTD/svg11.dtd">
<svg version="1.1" id="Layer_1" xmlns="http://www.w3.org/2000/svg" xmlns:xlink="http://www.w3.org/1999/xlink" x="0px" y="0px"
	 width="74px" height="74px" viewBox="0 0 74 74" enable-background="new 0 0 74 74" xml:space="preserve">
<g>
	<ellipse fill="#F4836B" cx="37.045" cy="37.02" rx="37.061" ry="36.977"/>
	<path fill="#EA6653" d="M73.876,41.097L57.645,24.899l-0.573-0.572c-0.006-0.004-0.01-0.008-0.015-0.008
		c-0.648-0.537-1.497-0.925-2.526-1.163l-1.714-1.716c-0.009-0.008-0.015-0.019-0.029-0.027c-0.035-0.035-0.071-0.067-0.108-0.1
		c-0.027-0.025-0.052-0.05-0.079-0.073c-0.106-0.088-0.219-0.169-0.339-0.244c-0.025-0.015-0.05-0.031-0.075-0.046
		c-0.123-0.071-0.252-0.132-0.387-0.186c-0.025-0.01-0.05-0.019-0.077-0.029c-0.139-0.048-0.283-0.09-0.431-0.119
		c-0.019-0.004-0.04-0.006-0.06-0.01c-0.16-0.027-0.321-0.044-0.487-0.044c-1.158,0-2.155,0.68-2.613,1.66l-6.613-6.598
		c-0.067-0.073-0.139-0.144-0.21-0.209c-1.058-1.027-2.209-1.586-3.429-1.586c-3.219,0-6.001,3.908-7.656,9.973
		c-2.301-0.601-4.443-0.927-6.309-0.927c-3.065,0-5.199,0.883-6.159,2.549c-0.587,1.016-0.708,2.252-0.367,3.655
		c-0.808,0.505-1.339,1.401-1.339,2.423c0,0.173,0.017,0.34,0.046,0.503c0.002,0.013,0.004,0.027,0.006,0.042
		c0.031,0.157,0.077,0.309,0.131,0.457c0.006,0.015,0.011,0.031,0.017,0.046c0.058,0.146,0.127,0.288,0.208,0.422
		c0.008,0.011,0.013,0.023,0.021,0.034c0.083,0.134,0.177,0.261,0.281,0.38c0.002,0.004,0.004,0.008,0.006,0.01l0.017,0.017
		c0.075,0.084,0.154,0.163,0.238,0.238l0.014,0.011l4.491,4.481c-0.371,0.407-0.723,0.814-1.052,1.221
		c-3.038,3.747-4.002,7.03-2.717,9.247c0.164,0.278,0.354,0.534,0.583,0.768l0.139,0.14l24.12,24.061
		C59.105,71.106,72.041,57.768,73.876,41.097z"/>
	<g>
		<g>
			<g>
				<path fill="#343C44" d="M37.882,60.208c-5.193,0-9.262-10.186-9.262-23.188c0-13.004,4.069-23.19,9.262-23.19
					c5.195,0,9.264,10.186,9.264,23.19C47.146,50.022,43.076,60.208,37.882,60.208z M37.882,14.881c-4.45,0-8.21,10.138-8.21,22.14
					c0,12,3.76,22.138,8.21,22.138c4.452,0,8.212-10.138,8.212-22.138C46.093,25.018,42.334,14.881,37.882,14.881z"/>
				<path fill="#343C44" d="M51.846,51.16c-4.972,0-11.925-2.294-18.598-6.139c-5.308-3.058-9.843-6.734-12.774-10.347
					c-3.038-3.747-4.002-7.034-2.719-9.249c0.966-1.666,3.096-2.549,6.163-2.549c4.97,0,11.921,2.296,18.592,6.139
					c5.31,3.06,9.849,6.734,12.779,10.349c3.036,3.747,4.002,7.032,2.717,9.249C57.045,50.281,54.913,51.16,51.846,51.16z
					 M23.919,23.928c-1.862,0-4.283,0.349-5.251,2.023c-1.035,1.787-0.079,4.726,2.624,8.063c2.851,3.517,7.284,7.103,12.483,10.099
					c6.519,3.755,13.274,5.999,18.07,5.999c1.86,0,4.283-0.351,5.251-2.023c1.037-1.789,0.079-4.728-2.624-8.064
					c-2.851-3.517-7.286-7.103-12.487-10.099C35.467,26.17,28.712,23.928,23.919,23.928z"/>
				<path fill="#343C44" d="M23.919,51.16c-3.067,0-5.197-0.881-6.163-2.547c-1.283-2.217-0.319-5.5,2.719-9.249
					c2.93-3.613,7.467-7.289,12.774-10.349c6.672-3.843,13.624-6.139,18.598-6.139c3.067,0,5.199,0.883,6.163,2.549
					c1.283,2.217,0.317,5.502-2.719,9.249c-2.93,3.613-7.469,7.289-12.778,10.347C35.84,48.866,28.889,51.16,23.919,51.16z
					 M51.846,23.928c-4.797,0-11.552,2.242-18.07,5.997c-5.199,2.997-9.632,6.584-12.483,10.099
					c-2.703,3.336-3.659,6.275-2.624,8.064c0.968,1.672,3.39,2.023,5.251,2.023c4.793,0,11.548-2.244,18.067-5.999
					c5.201-2.997,9.635-6.583,12.487-10.099c2.703-3.336,3.661-6.275,2.624-8.063C56.129,24.277,53.707,23.928,51.846,23.928z"/>
			</g>
		</g>
		<g>
			<g>
				<g>
					<polygon fill="#4A5158" points="38.372,30.578 37.389,30.578 37.106,31.998 38.665,31.998 					"/>
					<polygon fill="#4A5158" points="35.082,31.196 34.232,31.685 34.697,33.056 36.042,32.282 					"/>
					<polygon fill="#4A5158" points="32.538,33.376 32.048,34.219 33.143,35.177 33.914,33.837 					"/>
					<polygon fill="#4A5158" points="31.426,36.529 31.426,37.508 32.854,37.792 32.854,36.244 					"/>
					<polygon fill="#4A5158" points="32.048,39.813 32.538,40.662 33.914,40.197 33.143,38.857 					"/>
					<polygon fill="#4A5158" points="34.232,42.351 35.082,42.841 36.042,41.75 34.699,40.982 					"/>
					<polygon fill="#4A5158" points="37.393,43.46 38.372,43.46 38.665,42.038 37.106,42.038 					"/>
					<polygon fill="#4A5158" points="40.685,42.841 41.537,42.351 41.072,40.982 39.725,41.75 					"/>
					<polygon fill="#4A5158" points="43.228,40.662 43.721,39.813 42.624,38.857 41.855,40.197 					"/>
					<polygon fill="#4A5158" points="44.339,37.508 44.339,36.529 42.913,36.244 42.913,37.792 					"/>
					<polygon fill="#4A5158" points="43.721,34.219 43.228,33.376 41.855,33.837 42.624,35.177 					"/>
					<polygon fill="#4A5158" points="41.537,31.685 40.685,31.196 39.725,32.282 41.072,33.056 					"/>
				</g>
			</g>
			<path fill="#343C44" d="M37.882,31.944c-2.805,0-5.089,2.269-5.089,5.076c0,2.805,2.284,5.074,5.089,5.074
				c2.815,0,5.095-2.269,5.095-5.074C42.976,34.213,40.696,31.944,37.882,31.944z M37.882,38.679c-0.92,0-1.664-0.745-1.664-1.659
				c0-0.918,0.745-1.662,1.664-1.662c0.925,0,1.664,0.745,1.664,1.662C39.546,37.934,38.807,38.679,37.882,38.679z"/>
			<path fill="#FFFFFF" d="M37.882,34.522c-1.382,0-2.494,1.119-2.494,2.498c0,1.376,1.112,2.492,2.494,2.492
				c1.378,0,2.499-1.115,2.499-2.492C40.381,35.642,39.259,34.522,37.882,34.522z M37.882,38.552c-0.845,0-1.534-0.689-1.534-1.532
				c0-0.849,0.689-1.536,1.534-1.536c0.854,0,1.541,0.687,1.541,1.536C39.423,37.863,38.736,38.552,37.882,38.552z"/>
		</g>
		<g>
			<path fill="#FFFFFF" d="M53.628,23.436c0,1.59-1.289,2.878-2.882,2.878c-1.593,0-2.884-1.288-2.884-2.878
				c0-1.586,1.291-2.876,2.884-2.876C52.339,20.561,53.628,21.851,53.628,23.436z"/>
			<ellipse fill="#FFFFFF" cx="18.935" cy="31.503" rx="2.883" ry="2.876"/>
			<ellipse fill="#FFFFFF" cx="42.891" cy="55.589" rx="2.883" ry="2.878"/>
		</g>
	</g>
</g>
</svg>
