<?xml version="1.0" encoding="utf-8"?>
<!-- Generator: Adobe Illustrator 17.0.0, SVG Export Plug-In . SVG Version: 6.00 Build 0)  -->
<!DOCTYPE svg PUBLIC "-//W3C//DTD SVG 1.1//EN" "http://www.w3.org/Graphics/SVG/1.1/DTD/svg11.dtd">
<svg version="1.1" id="Layer_1" xmlns="http://www.w3.org/2000/svg" xmlns:xlink="http://www.w3.org/1999/xlink" x="0px" y="0px"
	 width="74px" height="74px" viewBox="0 0 74 74" enable-background="new 0 0 74 74" xml:space="preserve">
<g>
	<ellipse fill="#4A5158" cx="37.003" cy="36.921" rx="37.061" ry="37.102"/>
	<path fill="#343C44" d="M42.713,9.839c-0.035-0.036-0.069-0.071-0.106-0.104c-0.033-0.036-0.067-0.071-0.104-0.106
		c-0.264-0.285-0.61-0.493-1.002-0.574V9.026h-0.104V8.92h-0.108V8.814h-0.104V8.71h-0.106V8.604h-0.106V8.498h-0.106V8.392h-0.106
		V8.286h-0.106V8.181H40.55V8.075h-0.106V7.969h-0.106V7.863h-0.104V7.759h-0.106V7.651h-0.106V7.547h-0.106V7.441h-0.106V7.335
		h-0.106V7.229H39.6V7.123h-5.193v1.892h-1.524c-1.039,0-1.889,0.851-1.889,1.892c0,0.547,0.24,1.038,0.614,1.385
		c0.035,0.035,0.067,0.069,0.104,0.102c0.035,0.038,0.069,0.073,0.108,0.108c0.033,0.038,0.067,0.073,0.104,0.106
		c0.035,0.036,0.069,0.071,0.108,0.106c0.033,0.036,0.067,0.071,0.104,0.104c0.034,0.038,0.069,0.073,0.108,0.108
		c0.033,0.037,0.067,0.071,0.104,0.104c0.035,0.039,0.069,0.073,0.106,0.108c0.033,0.035,0.069,0.069,0.106,0.104
		c0.035,0.038,0.069,0.073,0.108,0.108c0.033,0.037,0.067,0.071,0.104,0.104c0.033,0.036,0.069,0.073,0.106,0.106
		c0.002,0.004,0.006,0.008,0.006,0.008l0.002,6.823L28.31,15.77l-0.933,0.416l1.295,2.912l2.428,2.429
		c-0.831,0.32-1.628,0.705-2.388,1.148l-4.604-4.633l-0.827,0.599l1.872,2.581l2.288,2.275c-0.846,0.605-1.632,1.291-2.347,2.042
		l-2.265-2.261l0.006-0.006l-2.367-2.132l-0.683,0.759l0.112,0.1l-0.006,0.006l4.419,4.415c-0.635,0.767-1.201,1.591-1.689,2.466
		l-0.008-0.004l0.019-0.035l-2.324-2.327l-2.755-1.593l-0.512,0.886l4.774,4.725l-0.019,0.035l0.006,0.004
		c-0.302,0.726-0.558,1.479-0.754,2.254l-0.019-0.006l0.021-0.064l-2.536-2.539l-3.026-0.984l-0.318,0.973l5.418,5.403
		c-0.034,0.432-0.054,0.869-0.054,1.308c0,0.12,0.008,0.239,0.01,0.356l-3.015-3.061l-3.169-0.333l-0.106,1.017l7.042,6.986
		c0.062,0.193,0.125,0.381,0.192,0.57l-4.098-4.128l-3.167,0.333l0.108,1.017l2.959,2.962l0.037-0.004l-2.241,0.728l0.315,0.973
		l2.742,2.733L16.9,47.789l0.51,0.886l2.642,2.645l0.023-0.013l-0.477,0.431L41.514,73.74c17.006-2.067,30.457-15.658,32.321-32.741
		C70.897,38.054,42.747,9.872,42.713,9.839z M21.522,42.569l-0.004-0.019c0.004,0.008,0.006,0.014,0.008,0.019H21.522z"/>
	<g>
		<g>
			<ellipse fill="#FFFFFF" cx="37.003" cy="36.921" rx="16.47" ry="16.488"/>
			<ellipse fill="#95D9F1" cx="37.003" cy="36.921" rx="13.288" ry="13.3"/>
			<rect x="32.883" y="12.798" fill="#FFFFFF" width="8.237" height="8.156"/>
			<path fill="#FFFFFF" d="M43.009,10.906c0-1.04-0.85-1.892-1.889-1.892h-8.237c-1.039,0-1.889,0.851-1.889,1.892l0,0
				c0,1.04,0.85,1.891,1.889,1.891h8.237C42.159,12.798,43.009,11.946,43.009,10.906L43.009,10.906z"/>
		</g>
		<g>
			<g>
				<g>
					<circle fill="#343C44" cx="37.003" cy="36.919" r="1.583"/>
				</g>
			</g>
			<g>
				<g>
					<path fill="#343C44" d="M37.002,48.001c-2.334,0-3.592-5.709-3.592-11.081c0-5.447,1.343-11.081,3.592-11.081
						c2.251,0,3.594,5.634,3.594,11.081C40.596,42.367,39.253,48.001,37.002,48.001z M37.002,26.41
						c-1.43,0-3.021,4.317-3.021,10.509c0,6.193,1.591,10.507,3.021,10.507c1.429,0,3.022-4.315,3.022-10.507
						C40.025,30.727,38.432,26.41,37.002,26.41z"/>
					<path fill="#343C44" d="M44.479,43.32c-2.213,0-5.766-1.26-9.272-3.284c-4.646-2.687-8.956-6.636-7.79-8.658
						c0.327-0.57,1.037-0.859,2.109-0.859c2.215,0,5.768,1.26,9.274,3.288c2.518,1.454,4.714,3.126,6.186,4.708
						c1.566,1.683,2.12,3.049,1.603,3.943C46.26,43.029,45.55,43.32,44.479,43.32z M29.525,31.091c-0.587,0-1.341,0.098-1.614,0.572
						c-0.727,1.267,2.145,4.731,7.581,7.878c3.423,1.976,6.869,3.205,8.987,3.205c0.587,0,1.341-0.1,1.614-0.574
						c0.364-0.628-0.208-1.851-1.528-3.269c-1.431-1.541-3.581-3.174-6.051-4.602C35.09,32.322,31.644,31.091,29.525,31.091z"/>
					<path fill="#343C44" d="M29.525,43.32c-1.072,0-1.782-0.291-2.109-0.863c-0.518-0.896,0.037-2.26,1.603-3.943
						c1.47-1.581,3.667-3.253,6.188-4.71c3.506-2.028,7.059-3.286,9.272-3.286c1.072,0,1.782,0.289,2.111,0.859
						c1.164,2.023-3.144,5.971-7.79,8.658C35.296,42.06,31.74,43.32,29.525,43.32z M44.479,31.091c-2.116,0-5.562,1.231-8.987,3.211
						c-2.47,1.427-4.62,3.061-6.053,4.602c-1.32,1.418-1.891,2.641-1.528,3.269c0.273,0.474,1.029,0.574,1.614,0.574
						c2.12,0,5.566-1.229,8.989-3.205c5.434-3.145,8.306-6.611,7.579-7.878C45.82,31.189,45.066,31.091,44.479,31.091z"/>
				</g>
			</g>
			<g>
				<circle fill="#FFFFFF" cx="43.337" cy="30.902" r="1.582"/>
			</g>
			<g>
				<path fill="#FFFFFF" d="M30.11,34.304c0,0.872-0.712,1.585-1.583,1.585c-0.874,0-1.581-0.713-1.581-1.585
					c0-0.875,0.708-1.58,1.581-1.58C29.399,32.724,30.11,33.429,30.11,34.304z"/>
			</g>
			<g>
				<circle fill="#FFFFFF" cx="38.728" cy="46.132" r="1.582"/>
			</g>
		</g>
		<rect x="34.407" y="9.015" fill="#CCCBCA" width="5.193" height="5.673"/>
		<rect x="34.407" y="7.123" fill="#1E262E" width="5.193" height="1.892"/>
		<g>
			<rect x="36.354" y="56.597" fill="#FFFFFF" width="1.022" height="3.188"/>
			
				<rect x="31.939" y="56.102" transform="matrix(0.9782 0.2077 -0.2077 0.9782 12.6902 -5.4812)" fill="#FFFFFF" width="1.021" height="3.188"/>
			
				<rect x="27.724" y="54.701" transform="matrix(0.9131 0.4078 -0.4078 0.9131 25.4136 -6.6201)" fill="#FFFFFF" width="1.02" height="3.187"/>
			
				<rect x="23.892" y="52.454" transform="matrix(0.809 0.5877 -0.5877 0.809 36.426 -4.0221)" fill="#FFFFFF" width="1.023" height="3.185"/>
			
				<rect x="20.611" y="49.457" transform="matrix(0.6689 0.7433 -0.7433 0.6689 44.938 1.2002)" fill="#FFFFFF" width="1.021" height="3.185"/>
			
				<rect x="18.023" y="45.842" transform="matrix(0.4988 0.8667 -0.8667 0.4988 50.4033 7.7109)" fill="#FFFFFF" width="1.022" height="3.186"/>
			
				<rect x="16.244" y="41.769" transform="matrix(0.3084 0.9512 -0.9512 0.3084 52.8336 14.0485)" fill="#FFFFFF" width="1.023" height="3.182"/>
			
				<rect x="15.348" y="37.412" transform="matrix(0.1054 0.9944 -0.9944 0.1054 52.9758 19.1238)" fill="#FFFFFF" width="1.023" height="3.184"/>
			
				<rect x="14.297" y="34.047" transform="matrix(0.9945 0.1046 -0.1046 0.9945 3.7027 -1.4727)" fill="#FFFFFF" width="3.184" height="1.022"/>
			
				<rect x="15.25" y="29.704" transform="matrix(0.9512 0.3085 -0.3085 0.9512 10.144 -3.7221)" fill="#FFFFFF" width="3.184" height="1.023"/>
			
				<rect x="17.083" y="25.655" transform="matrix(0.8659 0.5003 -0.5003 0.8659 15.595 -5.8329)" fill="#FFFFFF" width="3.184" height="1.023"/>
			
				<rect x="19.716" y="22.075" transform="matrix(0.7429 0.6694 -0.6694 0.7429 20.597 -8.4576)" fill="#FFFFFF" width="3.186" height="1.021"/>
			
				<rect x="23.036" y="19.122" transform="matrix(0.5871 0.8095 -0.8095 0.5871 26.0617 -11.8319)" fill="#FFFFFF" width="3.189" height="1.021"/>
			
				<rect x="26.897" y="16.923" transform="matrix(0.4062 0.9138 -0.9138 0.4062 32.8473 -15.6819)" fill="#FFFFFF" width="3.187" height="1.022"/>
			
				<rect x="39.69" y="57.244" transform="matrix(0.2077 0.9782 -0.9782 0.2077 89.2071 5.3775)" fill="#FFFFFF" width="3.188" height="1.021"/>
			
				<rect x="43.923" y="55.897" transform="matrix(0.4068 0.9135 -0.9135 0.4068 78.5324 -8.118)" fill="#FFFFFF" width="3.188" height="1.022"/>
			
				<rect x="47.785" y="53.7" transform="matrix(0.5877 0.8091 -0.8091 0.5877 64.2179 -17.5993)" fill="#FFFFFF" width="3.185" height="1.021"/>
			
				<rect x="51.104" y="50.747" transform="matrix(0.7426 0.6697 -0.6697 0.7426 47.8932 -22.0993)" fill="#FFFFFF" width="3.187" height="1.021"/>
			
				<rect x="53.739" y="47.166" transform="matrix(0.8655 0.501 -0.501 0.8655 31.3273 -21.3045)" fill="#FFFFFF" width="3.183" height="1.022"/>
			
				<rect x="55.572" y="43.116" transform="matrix(0.9509 0.3097 -0.3097 0.9509 16.3189 -15.5569)" fill="#FFFFFF" width="3.185" height="1.023"/>
			
				<rect x="56.524" y="38.771" transform="matrix(0.9946 0.104 -0.104 0.9946 4.4007 -5.8313)" fill="#FFFFFF" width="3.186" height="1.023"/>
			
				<rect x="57.635" y="33.245" transform="matrix(0.1054 0.9944 -0.9944 0.1054 86.662 -26.6565)" fill="#FFFFFF" width="1.023" height="3.183"/>
			
				<rect x="56.739" y="28.889" transform="matrix(0.3085 0.9512 -0.9512 0.3085 68.5842 -33.3796)" fill="#FFFFFF" width="1.022" height="3.186"/>
			
				<rect x="54.96" y="24.815" transform="matrix(0.4988 0.8667 -0.8667 0.4988 50.6913 -34.8417)" fill="#FFFFFF" width="1.022" height="3.185"/>
			
				<rect x="52.372" y="21.202" transform="matrix(0.669 0.7432 -0.7432 0.669 34.4425 -31.7601)" fill="#FFFFFF" width="1.021" height="3.184"/>
			
				<rect x="49.091" y="18.203" transform="matrix(0.809 0.5877 -0.5877 0.809 21.1072 -25.3735)" fill="#FFFFFF" width="1.023" height="3.186"/>
			
				<rect x="45.26" y="15.954" transform="matrix(0.9134 0.4071 -0.4071 0.9134 11.1087 -17.1139)" fill="#FFFFFF" width="1.022" height="3.188"/>
		</g>
	</g>
</g>
</svg>
