<?xml version="1.0" encoding="utf-8"?>
<!-- Generator: Adobe Illustrator 17.0.0, SVG Export Plug-In . SVG Version: 6.00 Build 0)  -->
<!DOCTYPE svg PUBLIC "-//W3C//DTD SVG 1.1//EN" "http://www.w3.org/Graphics/SVG/1.1/DTD/svg11.dtd">
<svg version="1.1" id="Layer_1" xmlns="http://www.w3.org/2000/svg" xmlns:xlink="http://www.w3.org/1999/xlink" x="0px" y="0px"
	 width="74px" height="74px" viewBox="0 0 74 74" enable-background="new 0 0 74 74" xml:space="preserve">
<g>
	<circle fill="#F4836B" cx="36.884" cy="37.171" r="37.057"/>
	<path fill="#EA6653" d="M73.462,43.106L55.351,24.994c-0.277-0.283-0.646-0.421-1.014-0.421H32.828l-3.236-3.236
		c-0.283-0.283-0.65-0.421-1.02-0.421h-9.142c-0.367,0-0.737,0.138-1.014,0.421c-0.069,0.065-0.129,0.138-0.179,0.217
		c-0.162,0.239-0.241,0.518-0.241,0.795v5.883c-0.369,0-0.737,0.138-1.016,0.419c-0.281,0.277-0.419,0.647-0.419,1.014v22.33
		c0,0.369,0.138,0.737,0.419,1.014l21.189,21.187C56.035,73.586,70.687,60.336,73.462,43.106z"/>
	<g>
		<g>
			<path fill="#F5B541" d="M30.01,24.572v-2.224c0-0.365-0.14-0.733-0.419-1.014c-0.281-0.279-0.648-0.419-1.016-0.419h-9.144
				c-0.367,0-0.735,0.14-1.014,0.419c-0.281,0.281-0.419,0.648-0.419,1.014v5.883H55.77v-2.224c0-0.367-0.138-0.735-0.419-1.014
				c-0.281-0.281-0.646-0.421-1.014-0.421H30.01z"/>
			<path fill="#FFFFFF" d="M54.337,50.559c0,0.367-0.14,0.735-0.421,1.016c-0.279,0.281-0.647,0.419-1.014,0.419H20.866
				c-0.367,0-0.735-0.138-1.014-0.419c-0.281-0.281-0.421-0.648-0.421-1.016V28.231c0-0.367,0.14-0.735,0.421-1.016
				c0.279-0.279,0.647-0.419,1.014-0.419h32.036c0.367,0,0.735,0.14,1.014,0.419c0.281,0.281,0.421,0.648,0.421,1.016V50.559z"/>
			<path fill="#FECE67" d="M57.205,51.994c0,0.368-0.14,0.735-0.419,1.016c-0.281,0.279-0.648,0.419-1.016,0.419H17.998
				c-0.367,0-0.735-0.14-1.016-0.419c-0.279-0.281-0.419-0.648-0.419-1.016v-22.33c0-0.367,0.14-0.733,0.419-1.014
				c0.281-0.281,0.648-0.419,1.016-0.419H55.77c0.367,0,0.735,0.138,1.016,0.419c0.279,0.281,0.419,0.647,0.419,1.014V51.994z"/>
		</g>
		<g>
			<path fill="#FFFFFF" d="M45.73,40.83c0,4.885-3.957,8.844-8.846,8.844c-4.883,0-8.846-3.959-8.846-8.844
				c0-4.886,3.963-8.846,8.846-8.846C41.772,31.985,45.73,35.944,45.73,40.83z"/>
			<g>
				<g>
					<path fill="#4A5158" d="M36.884,47.452c-3.652,0-6.622-2.97-6.622-6.622c0-3.653,2.97-6.624,6.622-6.624
						c3.651,0,6.622,2.971,6.622,6.624C43.506,44.482,40.535,47.452,36.884,47.452z M36.884,35.02c-3.203,0-5.81,2.607-5.81,5.81
						c0,3.203,2.607,5.808,5.81,5.808c3.203,0,5.81-2.605,5.81-5.808C42.694,37.627,40.087,35.02,36.884,35.02z"/>
					<path fill="#4A5158" d="M36.884,47.452c-1.972,0-3.515-2.909-3.515-6.622c0-3.715,1.543-6.624,3.515-6.624v0.814
						c-1.464,0-2.701,2.661-2.701,5.81c0,3.149,1.237,5.808,2.701,5.808V47.452z"/>
					<path fill="#4A5158" d="M36.884,47.452v-0.814c1.464,0,2.701-2.659,2.701-5.808c0-3.149-1.237-5.81-2.701-5.81v-0.814
						c1.97,0,3.515,2.909,3.515,6.624C40.399,44.543,38.854,47.452,36.884,47.452z"/>
					<rect x="36.478" y="34.615" fill="#4A5158" width="0.812" height="12.432"/>
					<rect x="30.668" y="40.425" fill="#4A5158" width="12.432" height="0.812"/>
					<path fill="#4A5158" d="M36.884,38.128c-1.701,0-3.374-0.266-4.979-0.793l0.254-0.773c3.043,1,6.412,1,9.45,0l0.254,0.773
						C40.26,37.862,38.586,38.128,36.884,38.128z"/>
					<path fill="#4A5158" d="M32.159,45.099l-0.254-0.773c3.209-1.054,6.755-1.054,9.958,0l-0.254,0.773
						C38.569,44.099,35.204,44.097,32.159,45.099z"/>
				</g>
			</g>
		</g>
	</g>
</g>
</svg>
