<?xml version="1.0" encoding="utf-8"?>
<!-- Generator: Adobe Illustrator 17.0.0, SVG Export Plug-In . SVG Version: 6.00 Build 0)  -->
<!DOCTYPE svg PUBLIC "-//W3C//DTD SVG 1.1//EN" "http://www.w3.org/Graphics/SVG/1.1/DTD/svg11.dtd">
<svg version="1.1" id="Layer_1" xmlns="http://www.w3.org/2000/svg" xmlns:xlink="http://www.w3.org/1999/xlink" x="0px" y="0px"
	 width="74px" height="74px" viewBox="0 0 74 74" enable-background="new 0 0 74 74" xml:space="preserve">
<g>
	<ellipse fill="#95D9F1" cx="36.995" cy="36.973" rx="37.115" ry="37.005"/>
	<path fill="#71C9E9" d="M73.334,44.532L51.857,23.119l-0.969-0.964c-3.576-3.337-8.357-5.404-13.615-5.472
		c-0.091-0.004-0.187-0.004-0.278-0.004c-0.09,0-0.187,0-0.277,0.004c-11.091,0.144-20.076,9.191-20.076,20.289
		c0,5.314,2.06,10.161,5.426,13.781l1.106,1.103l21.409,21.346C58.994,70.216,70.34,58.903,73.334,44.532z"/>
	<g>
		<g>
			<g>
				<path fill="#343C44" d="M36.995,57.266c-11.222,0-20.353-9.104-20.353-20.293c0-11.191,9.131-20.293,20.353-20.293
					c11.224,0,20.354,9.103,20.354,20.293C57.349,48.161,48.219,57.266,36.995,57.266z M36.995,18.284
					c-10.336,0-18.743,8.384-18.743,18.689c0,10.303,8.407,18.687,18.743,18.687c10.336,0,18.745-8.384,18.745-18.687
					C55.74,26.667,47.331,18.284,36.995,18.284z"/>
				<path fill="#343C44" d="M36.995,57.266c-5.933,0-10.578-8.914-10.578-20.293s4.646-20.293,10.578-20.293
					c5.933,0,10.581,8.914,10.581,20.293S42.928,57.266,36.995,57.266z M36.995,18.284c-4.861,0-8.969,8.559-8.969,18.689
					s4.108,18.687,8.969,18.687c4.862,0,8.97-8.557,8.97-18.687S41.857,18.284,36.995,18.284z"/>
				<rect x="36.192" y="17.482" fill="#343C44" width="1.609" height="38.98"/>
				<rect x="17.447" y="36.17" fill="#343C44" width="39.098" height="1.604"/>
				<rect x="20.062" y="26.424" fill="#343C44" width="33.867" height="1.606"/>
				<rect x="20.062" y="45.916" fill="#343C44" width="33.867" height="1.604"/>
			</g>
		</g>
		<g>
			<ellipse fill="#F4836B" cx="27.221" cy="36.973" rx="3.519" ry="3.508"/>
			<ellipse fill="#FFFFFF" cx="45.461" cy="27.227" rx="3.519" ry="3.508"/>
			<ellipse fill="#FFFFFF" cx="45.461" cy="46.719" rx="3.519" ry="3.508"/>
		</g>
		<g>
			<g>
				<path fill="#343C44" d="M27.22,41.282c-2.384,0-4.322-1.933-4.322-4.309c0-2.376,1.938-4.311,4.322-4.311
					c2.385,0,4.324,1.935,4.324,4.311C31.544,39.349,29.606,41.282,27.22,41.282z M27.22,34.266c-1.495,0-2.713,1.214-2.713,2.707
					c0,1.491,1.218,2.705,2.713,2.705c1.497,0,2.715-1.214,2.715-2.705C29.935,35.48,28.718,34.266,27.22,34.266z"/>
				<path fill="#343C44" d="M45.462,31.538c-2.385,0-4.324-1.935-4.324-4.311s1.938-4.311,4.324-4.311
					c2.384,0,4.324,1.935,4.324,4.311S47.846,31.538,45.462,31.538z M45.462,24.522c-1.497,0-2.715,1.214-2.715,2.705
					c0,1.493,1.218,2.705,2.715,2.705c1.497,0,2.713-1.212,2.713-2.705C48.175,25.736,46.959,24.522,45.462,24.522z"/>
				<path fill="#343C44" d="M45.462,51.028c-2.385,0-4.324-1.933-4.324-4.309c0-2.378,1.938-4.311,4.324-4.311
					c2.384,0,4.324,1.933,4.324,4.311C49.786,49.095,47.846,51.028,45.462,51.028z M45.462,44.012c-1.497,0-2.715,1.214-2.715,2.707
					c0,1.491,1.218,2.705,2.715,2.705c1.497,0,2.713-1.214,2.713-2.705C48.175,45.226,46.959,44.012,45.462,44.012z"/>
			</g>
		</g>
	</g>
</g>
</svg>
