<?xml version="1.0" encoding="utf-8"?>
<!-- Generator: Adobe Illustrator 17.0.0, SVG Export Plug-In . SVG Version: 6.00 Build 0)  -->
<!DOCTYPE svg PUBLIC "-//W3C//DTD SVG 1.1//EN" "http://www.w3.org/Graphics/SVG/1.1/DTD/svg11.dtd">
<svg version="1.1" id="Layer_1" xmlns="http://www.w3.org/2000/svg" xmlns:xlink="http://www.w3.org/1999/xlink" x="0px" y="0px"
	 width="74px" height="74px" viewBox="0 0 74 74" enable-background="new 0 0 74 74" xml:space="preserve">
<g>
	<circle fill="#95D9F1" cx="37" cy="37.001" r="37"/>
	<path fill="#71C9E9" d="M72.496,47.446C68.658,60.499,57.83,70.558,44.333,73.27L16.477,45.408l-0.707-0.703
		c-0.607-0.759-0.97-1.729-0.97-2.778c0-2.465,1.996-4.46,4.455-4.46c0.077,0,0.154,0.01,0.231,0.015
		c-0.302-0.778-0.469-1.623-0.469-2.507c0-3.838,3.108-6.948,6.952-6.948c1.054,0,2.057,0.24,2.954,0.661
		c1.481-4.898,6.029-8.471,11.412-8.471c3.208,0,6.12,1.266,8.263,3.333l0.325,0.321L72.496,47.446z"/>
	<g>
		<path fill="#FFFFFF" d="M19.254,37.47c0.079,0,0.152,0.006,0.229,0.013c-0.3-0.778-0.467-1.623-0.467-2.505
			c0-3.838,3.11-6.95,6.95-6.95c1.058,0,2.059,0.238,2.958,0.661c1.479-4.9,6.027-8.469,11.41-8.469
			c6.583,0,11.917,5.336,11.917,11.919c0,0.117-0.006,0.231-0.006,0.344c0,0,0.004,0,0.006,0c3.838,0,6.95,3.11,6.95,6.948
			c0,3.838-3.112,6.95-6.95,6.95H19.254c-2.459,0-4.455-1.994-4.455-4.456C14.8,39.465,16.796,37.47,19.254,37.47z"/>
		<g>
			<g>
				<g>
					<polygon fill="#4A5158" points="37.727,36.832 36.277,36.832 35.854,38.939 38.152,38.939 					"/>
					<polygon fill="#4A5158" points="32.858,37.746 31.6,38.472 32.289,40.508 34.275,39.36 					"/>
					<polygon fill="#4A5158" points="29.095,40.979 28.373,42.231 29.986,43.651 31.133,41.665 					"/>
					<polygon fill="#4A5158" points="27.452,45.654 27.452,47.105 29.56,47.527 29.56,45.232 					"/>
					<polygon fill="#4A5158" points="28.373,50.522 29.095,51.782 31.133,51.092 29.986,49.104 					"/>
					<polygon fill="#4A5158" points="31.6,54.287 32.858,55.013 34.275,53.395 32.291,52.252 					"/>
					<polygon fill="#4A5158" points="36.281,55.929 37.727,55.929 38.152,53.822 35.854,53.822 					"/>
					<polygon fill="#4A5158" points="41.144,55.013 42.404,54.287 41.717,52.252 39.729,53.395 					"/>
					<polygon fill="#4A5158" points="44.909,51.782 45.633,50.522 44.018,49.104 42.873,51.092 					"/>
					<polygon fill="#4A5158" points="46.549,47.105 46.549,45.654 44.442,45.232 44.442,47.527 					"/>
					<polygon fill="#4A5158" points="45.633,42.231 44.909,40.979 42.873,41.665 44.018,43.651 					"/>
					<polygon fill="#4A5158" points="42.404,38.472 41.144,37.746 39.729,39.36 41.717,40.506 					"/>
				</g>
			</g>
			<path fill="#4A5158" d="M36.999,38.855c-4.151,0-7.526,3.365-7.526,7.528c0,4.159,3.375,7.522,7.526,7.522
				c4.164,0,7.533-3.363,7.533-7.522C44.532,42.22,41.163,38.855,36.999,38.855z M36.999,48.841c-1.356,0-2.459-1.102-2.459-2.459
				c0-1.362,1.102-2.464,2.459-2.464c1.366,0,2.468,1.102,2.468,2.464C39.467,47.738,38.365,48.841,36.999,48.841z"/>
			<path fill="#343C44" d="M36.999,42.681c-2.04,0-3.69,1.656-3.69,3.701c0,2.042,1.65,3.69,3.69,3.69s3.699-1.648,3.699-3.69
				C40.699,44.337,39.039,42.681,36.999,42.681z M36.999,48.653c-1.251,0-2.269-1.02-2.269-2.27c0-1.258,1.018-2.274,2.269-2.274
				c1.264,0,2.28,1.016,2.28,2.274C39.279,47.633,38.263,48.653,36.999,48.653z"/>
		</g>
	</g>
</g>
</svg>
