<?xml version="1.0" encoding="utf-8"?>
<!-- Generator: Adobe Illustrator 17.0.0, SVG Export Plug-In . SVG Version: 6.00 Build 0)  -->
<!DOCTYPE svg PUBLIC "-//W3C//DTD SVG 1.1//EN" "http://www.w3.org/Graphics/SVG/1.1/DTD/svg11.dtd">
<svg version="1.1" id="Layer_1" xmlns="http://www.w3.org/2000/svg" xmlns:xlink="http://www.w3.org/1999/xlink" x="0px" y="0px"
	 width="74px" height="74px" viewBox="0 0 74 74" enable-background="new 0 0 74 74" xml:space="preserve">
<g>
	<ellipse fill="#4A5158" cx="37.022" cy="36.946" rx="36.917" ry="36.948"/>
	<path fill="#343C44" d="M51.913,22.89l-2.369-2.371l-0.723,0.721l-2.965-2.967l-1.307,1.339l-2.768-2.77l-1.443,2.288l-2.84-2.843
		l-0.958,2.609l9.012,9.021l-0.669,0.416L33.2,16.641l-0.404,2.754L42.94,29.546l-1.366,0.852L29.064,17.879l0.18,2.777
		l10.729,10.739l-2.012,1.253L25.275,19.952l0.751,2.676l10.75,10.759l-2.447,1.525L23.941,24.515l-2.585-1.028l12.013,12.025
		l-2.298,1.431l-9.429-9.437l-2.741-0.468L29.67,37.815l-1.698,1.059l-7.958-7.962l-2.775,0.115l8.95,8.958l-1.023,0.639
		l-6.035-6.04l-2.693,0.69l20.08,20.094l-0.309,0.18L19.033,38.356l-2.495,1.237l2.785,2.789l-1.788,1.414l2.779,2.783l-0.929,1.122
		l2.361,2.363l-0.389,0.351l0.642,0.716l9.326,9.333c0.142,0.804,0.508,1.529,1.035,2.108l0.286,0.286l10.51,10.519
		C58.322,70.837,70.35,59.05,73.258,44.001L52.04,22.764L51.913,22.89z"/>
	<g>
		<g>
			<rect x="36.541" y="16.288" fill="#FFFFFF" width="0.958" height="2.609"/>
			
				<rect x="32.513" y="16.714" transform="matrix(-0.9781 0.208 -0.208 -0.9781 69.0192 28.7793)" fill="#FFFFFF" width="0.968" height="2.608"/>
			
				<rect x="28.672" y="17.963" transform="matrix(-0.9126 0.4089 -0.4089 -0.9126 63.6398 24.9294)" fill="#FFFFFF" width="0.966" height="2.609"/>
			<polygon fill="#FFFFFF" points="24.499,20.52 25.275,19.952 26.808,22.062 26.026,22.628 			"/>
			<polygon fill="#FFFFFF" points="21.356,23.487 22,22.764 23.941,24.515 23.293,25.231 			"/>
			
				<rect x="19.788" y="25.968" transform="matrix(-0.5001 0.866 -0.866 -0.5001 54.0248 23.3559)" fill="#FFFFFF" width="0.966" height="2.607"/>
			<polygon fill="#FFFFFF" points="17.239,31.027 17.534,30.106 20.014,30.912 19.717,31.833 			"/>
			<polygon fill="#FFFFFF" points="16.438,35.274 16.538,34.307 19.131,34.583 19.033,35.546 			"/>
			<polygon fill="#FFFFFF" points="16.438,38.628 19.033,38.356 19.131,39.319 16.538,39.593 			"/>
			<polygon fill="#FFFFFF" points="17.239,42.873 19.717,42.072 20.014,42.982 17.534,43.796 			"/>
			
				<rect x="18.965" y="46.147" transform="matrix(-0.8658 0.5004 -0.5004 -0.8658 61.1555 76.8604)" fill="#FFFFFF" width="2.61" height="0.969"/>
			
				<rect x="21.344" y="49.421" transform="matrix(-0.7434 0.6689 -0.6689 -0.7434 72.8628 71.8495)" fill="#FFFFFF" width="2.607" height="0.964"/>
			<polygon fill="#FFFFFF" points="24.499,53.384 26.026,51.269 26.808,51.838 25.275,53.948 			"/>
			<polygon fill="#FFFFFF" points="47.233,51.838 48.009,51.269 49.546,53.384 48.761,53.948 			"/>
			<polygon fill="#FFFFFF" points="50.098,49.389 50.746,48.674 52.686,50.415 52.04,51.132 			"/>
			<polygon fill="#FFFFFF" points="52.402,46.399 52.881,45.562 55.143,46.865 54.656,47.701 			"/>
			<polygon fill="#FFFFFF" points="54.027,42.982 54.324,42.073 56.8,42.873 56.505,43.796 			"/>
			<polygon fill="#FFFFFF" points="54.913,39.321 55.01,38.358 57.598,38.628 57.5,39.593 			"/>
			<polygon fill="#FFFFFF" points="54.913,34.583 57.498,34.307 57.598,35.274 55.01,35.546 			"/>
			<polygon fill="#FFFFFF" points="54.027,30.912 56.505,30.106 56.8,31.027 54.324,31.833 			"/>
			<polygon fill="#FFFFFF" points="52.402,27.505 54.656,26.201 55.143,27.038 52.883,28.346 			"/>
			<polygon fill="#FFFFFF" points="50.1,24.515 52.04,22.764 52.686,23.487 50.746,25.231 			"/>
			<polygon fill="#FFFFFF" points="47.235,22.062 48.761,19.952 49.544,20.52 48.011,22.628 			"/>
			
				<rect x="43.583" y="18.784" transform="matrix(-0.4065 0.9136 -0.9136 -0.4065 80.7366 -13.9103)" fill="#FFFFFF" width="2.607" height="0.966"/>
			<polygon fill="#FFFFFF" points="40.303,19.192 40.839,16.643 41.782,16.843 41.244,19.396 			"/>
		</g>
		<g>
			<path fill="#FECE67" d="M50.125,36.956c0,7.233-5.865,13.102-13.105,13.102c-7.237,0-13.101-5.869-13.101-13.102
				c0-7.245,5.864-13.122,13.101-13.122C44.26,23.834,50.125,29.711,50.125,36.956z"/>
			<path fill="#F5B541" d="M47.496,36.956c0,5.793-4.686,10.484-10.476,10.484s-10.482-4.692-10.482-10.484
				c0-5.8,4.692-10.486,10.482-10.486S47.496,31.156,47.496,36.956z"/>
			<g>
				<g>
					<path fill="#FECE67" d="M38.124,37.817H35.92c-0.92,0-1.78-0.357-2.428-1.009c-0.644-0.637-1.002-1.506-1.002-2.425
						c0-0.923,0.359-1.788,1.004-2.436c0.64-0.637,1.501-0.996,2.426-0.996h4.768v1.73H35.92c-0.462,0-0.891,0.176-1.202,0.493
						c-0.324,0.324-0.498,0.75-0.498,1.208c0,0.454,0.174,0.884,0.493,1.197c0.328,0.332,0.753,0.506,1.207,0.506h2.204V37.817z"/>
					<path fill="#FECE67" d="M38.124,42.958h-4.77v-1.73h4.77c0.447,0,0.882-0.177,1.206-0.501c0.312-0.316,0.491-0.742,0.491-1.203
						c0-0.462-0.178-0.886-0.487-1.201c-0.328-0.328-0.763-0.507-1.21-0.507H35.92v-1.73h2.204c0.91,0,1.777,0.361,2.425,1.013
						c0.646,0.633,1.001,1.498,1.001,2.425c0,0.921-0.353,1.788-1.002,2.428C39.895,42.601,39.028,42.958,38.124,42.958z"/>
					<rect x="36.153" y="30.35" fill="#FECE67" width="1.733" height="13.21"/>
				</g>
			</g>
		</g>
		<g>
			<path fill="#FFFFFF" d="M42.783,59.733c0,2.329-1.903,4.228-4.226,4.228h-3.072c-2.327,0-4.228-1.899-4.228-4.228V48.785
				c0-2.328,1.901-4.231,4.228-4.231h3.072c2.323,0,4.226,1.903,4.226,4.231V59.733z"/>
			<path fill="#343C44" d="M37.982,48.973c0,0.537-0.433,0.965-0.962,0.965c-0.531,0-0.96-0.428-0.96-0.965
				c0-0.525,0.429-0.963,0.96-0.963C37.549,48.01,37.982,48.447,37.982,48.973z"/>
		</g>
	</g>
</g>
</svg>
