<?xml version="1.0" encoding="utf-8"?>
<!-- Generator: Adobe Illustrator 17.0.0, SVG Export Plug-In . SVG Version: 6.00 Build 0)  -->
<!DOCTYPE svg PUBLIC "-//W3C//DTD SVG 1.1//EN" "http://www.w3.org/Graphics/SVG/1.1/DTD/svg11.dtd">
<svg version="1.1" id="Layer_1" xmlns="http://www.w3.org/2000/svg" xmlns:xlink="http://www.w3.org/1999/xlink" x="0px" y="0px"
	 width="74px" height="74px" viewBox="0 0 74 74" enable-background="new 0 0 74 74" xml:space="preserve">
<g>
	<ellipse fill="#90DFF6" cx="36.99" cy="37.077" rx="37.115" ry="36.751"/>
	<path fill="#70CAE9" d="M42.889,73.361C58.359,70.915,70.631,59,73.473,43.808l-17.95-17.774c-0.277-0.275-0.645-0.418-1.015-0.418
		H19.473c-0.368,0-0.738,0.143-1.015,0.418c-0.283,0.279-0.422,0.645-0.422,1.006v20.077c0,0.36,0.139,0.725,0.422,1.005
		l4.821,4.774l-0.528,0.525L42.889,73.361z"/>
	<g>
		<g>
			<path fill="#EA6552" d="M18.036,47.115c0,0.364,0.141,0.729,0.42,1.005c0.281,0.279,0.649,0.416,1.016,0.416H54.51
				c0.368,0,0.734-0.137,1.016-0.416c0.281-0.277,0.42-0.641,0.42-1.005V27.042c0-0.365-0.139-0.729-0.42-1.006
				c-0.281-0.279-0.647-0.418-1.016-0.418H19.471c-0.366,0-0.734,0.139-1.016,0.418c-0.279,0.277-0.42,0.641-0.42,1.006
				L18.036,47.115L18.036,47.115z"/>
			<g>
				<rect x="25.972" y="41.065" fill="#FFFFFF" width="25.26" height="1.597"/>
				<rect x="25.972" y="37.877" fill="#FFFFFF" width="25.26" height="1.593"/>
				<rect x="25.972" y="34.685" fill="#FFFFFF" width="25.26" height="1.595"/>
				<rect x="22.751" y="31.495" fill="#343C44" width="28.482" height="1.595"/>
				<rect x="22.751" y="34.685" fill="#FFFFFF" width="1.611" height="1.595"/>
				<rect x="22.751" y="37.875" fill="#FFFFFF" width="1.611" height="1.595"/>
				<rect x="22.751" y="41.067" fill="#FFFFFF" width="1.611" height="1.595"/>
			</g>
			<polygon fill="#EA6552" points="22.751,53.42 22.751,48.536 27.681,48.536 			"/>
		</g>
		<g>
			<ellipse fill="#495057" cx="55.946" cy="48.536" rx="4.932" ry="4.884"/>
			<polygon fill="#FFFFFF" points="55.041,51.047 52.87,48.895 53.594,48.179 55.041,49.612 58.299,46.388 59.022,47.103 			"/>
		</g>
	</g>
</g>
</svg>
