<?xml version="1.0" encoding="utf-8"?>
<!-- Generator: Adobe Illustrator 17.0.0, SVG Export Plug-In . SVG Version: 6.00 Build 0)  -->
<!DOCTYPE svg PUBLIC "-//W3C//DTD SVG 1.1//EN" "http://www.w3.org/Graphics/SVG/1.1/DTD/svg11.dtd">
<svg version="1.1" id="Layer_1" xmlns="http://www.w3.org/2000/svg" xmlns:xlink="http://www.w3.org/1999/xlink" x="0px" y="0px"
	 width="74px" height="74px" viewBox="0 0 74 74" enable-background="new 0 0 74 74" xml:space="preserve">
<g>
	<ellipse fill="#F4836B" cx="36.996" cy="37.022" rx="36.936" ry="37.022"/>
	<path fill="#EA6653" d="M73.77,40.395L53.786,20.364c-0.01-0.013-0.025-0.027-0.038-0.042l-0.086-0.087
		c-0.013-0.013-0.033-0.029-0.048-0.042c-0.222-0.182-0.491-0.273-0.763-0.273H21.138c-0.309,0-0.614,0.121-0.851,0.353
		c-0.234,0.24-0.349,0.544-0.349,0.855v22.734h-2.583l-5.381,6.841v2.28l20.761,20.81c1.398,0.162,2.819,0.252,4.261,0.252
		C56.26,74.045,72.072,59.26,73.77,40.395z"/>
	<g>
		<g>
			<circle fill="#343C44" cx="19.936" cy="52.983" r="1.137"/>
			<circle fill="#343C44" cx="54.055" cy="52.983" r="1.136"/>
			<rect x="11.974" y="50.701" fill="#343C44" width="50.042" height="2.282"/>
			<polygon fill="#4A5158" points="56.634,43.863 17.357,43.863 11.974,50.701 62.016,50.701 			"/>
		</g>
		<g>
			<g>
				<path fill="#FFFFFF" d="M54.054,46.075c0,0.309-0.115,0.617-0.351,0.853c-0.236,0.236-0.544,0.354-0.853,0.354H21.14
					c-0.309,0-0.616-0.117-0.851-0.354s-0.353-0.544-0.353-0.853V26.08h34.119V46.075z"/>
				<path fill="#E6E5E5" d="M54.054,26.08H19.936v-4.951c0-0.309,0.117-0.617,0.353-0.853s0.543-0.354,0.851-0.354h31.71
					c0.309,0,0.618,0.117,0.853,0.354c0.236,0.236,0.351,0.544,0.351,0.853V26.08z"/>
				<g>
					<circle fill="#EA6653" cx="22.946" cy="23.001" r="1.003"/>
					<circle fill="#F5B541" cx="25.957" cy="23.001" r="1.003"/>
					<circle fill="#71C9E9" cx="28.967" cy="23.001" r="1.005"/>
				</g>
			</g>
			<g>
				<path fill="#343C44" d="M42.051,41.752c-1.294,1.294-3.083,2.095-5.058,2.095c-3.944,0-7.147-3.21-7.147-7.164
					c0-2.989,1.824-5.549,4.416-6.621l2.731,6.621L42.051,41.752z"/>
				<path fill="#95D9F1" d="M44.145,36.682h-7.15v-7.166C40.94,29.517,44.145,32.727,44.145,36.682z"/>
				<path fill="#E6E5E5" d="M44.145,36.682c0,1.98-0.802,3.771-2.094,5.068l-5.057-5.068H44.145z"/>
				<path fill="#5AB5D9" d="M36.992,29.515v7.169l-2.731-6.621C35.102,29.709,36.026,29.515,36.992,29.515z"/>
			</g>
		</g>
	</g>
</g>
</svg>
