<?xml version="1.0" encoding="utf-8"?>
<!-- Generator: Adobe Illustrator 17.0.0, SVG Export Plug-In . SVG Version: 6.00 Build 0)  -->
<!DOCTYPE svg PUBLIC "-//W3C//DTD SVG 1.1//EN" "http://www.w3.org/Graphics/SVG/1.1/DTD/svg11.dtd">
<svg version="1.1" id="Layer_1" xmlns="http://www.w3.org/2000/svg" xmlns:xlink="http://www.w3.org/1999/xlink" x="0px" y="0px"
	 width="74px" height="74px" viewBox="0 0 74 74" enable-background="new 0 0 74 74" xml:space="preserve">
<g>
	<ellipse fill="#F4836B" cx="36.978" cy="37.122" rx="37.144" ry="37.104"/>
	<path fill="#EA6653" d="M72.404,48.303L39.566,15.503l-0.445-0.445c-0.32-0.268-0.694-0.48-1.101-0.607
		c-0.326-0.112-0.677-0.167-1.041-0.167c-1.849,0-3.355,1.502-3.355,3.35c0,0.902,0.355,1.724,0.941,2.323
		c0.027,0.035,0.058,0.062,0.091,0.091l1.907,1.903c-2.169,0.042-4.246,0.391-6.163,1.011c-0.833-0.678-1.855-1.017-2.871-1.017
		v2.196c-0.172,0.087-0.339,0.173-0.507,0.27c-0.212-0.408-0.49-0.792-0.829-1.131c-0.887-0.892-2.056-1.335-3.222-1.335v5.466
		c-1.504,1.502-2.663,3.249-3.388,5.16h-3.085c-0.384,0-0.771,0.144-1.065,0.441c-0.297,0.291-0.442,0.678-0.442,1.063v6.098
		c0,0.381,0.145,0.77,0.442,1.063l10.61,10.598c0.019,0.389,0.139,0.778,0.37,1.117l0.542,0.539l19.527,19.504
		C58.788,69.751,68.593,60.359,72.404,48.303z"/>
	<g>
		<g>
			<path fill="#ECA434" d="M22.97,27.406h4.557v-0.909c0-1.165-0.445-2.331-1.336-3.221c-0.887-0.888-2.056-1.333-3.22-1.333l0,0
				V27.406z"/>
			<path fill="#ECA434" d="M47.927,49.263h-4.314v2.464c0,0.551,0.21,1.102,0.631,1.523c0.42,0.42,0.976,0.63,1.527,0.63l0,0
				c0.552,0,1.103-0.21,1.523-0.63c0.422-0.422,0.632-0.973,0.632-1.523V49.263z"/>
			<path fill="#ECA434" d="M33.393,49.263h-4.314v2.464c0,0.551,0.212,1.102,0.632,1.523c0.42,0.42,0.972,0.63,1.525,0.63l0,0
				c0.55,0,1.105-0.21,1.525-0.63c0.42-0.422,0.63-0.973,0.63-1.523V49.263z"/>
			<ellipse fill="#FECE67" cx="36.978" cy="37.122" rx="18.234" ry="15.178"/>
			<path fill="#ECA434" d="M19.58,41.675h-3.087c-0.384,0-0.769-0.146-1.064-0.439c-0.293-0.293-0.44-0.678-0.44-1.063v-6.1
				c0-0.383,0.147-0.769,0.44-1.063c0.295-0.293,0.681-0.441,1.064-0.441h3.087V41.675z"/>
			<path fill="#ECA434" d="M57.644,37.122c0-0.408-0.156-0.815-0.469-1.127c-0.311-0.31-0.717-0.466-1.126-0.466h-0.937v3.188h0.937
				c0.409,0,0.816-0.156,1.126-0.466C57.488,37.939,57.644,37.53,57.644,37.122L57.644,37.122z"/>
			<path fill="#FECE67" d="M30.344,49.263h-4.314v2.464c0,0.551,0.21,1.102,0.63,1.523c0.42,0.42,0.974,0.63,1.525,0.63l0,0
				c0.552,0,1.105-0.21,1.525-0.63c0.42-0.422,0.632-0.973,0.632-1.523V49.263z"/>
			<path fill="#FECE67" d="M44.877,49.263h-4.314v2.464c0,0.551,0.21,1.102,0.632,1.523c0.42,0.42,0.974,0.63,1.525,0.63l0,0
				c0.552,0,1.103-0.21,1.523-0.63c0.422-0.422,0.633-0.973,0.633-1.523V49.263z"/>
			<path fill="#ECA434" d="M27.527,27.406h4.557v-0.909c0-1.165-0.444-2.331-1.334-3.221c-0.891-0.888-2.058-1.333-3.222-1.333l0,0
				V27.406z"/>
			<circle fill="#ECA434" cx="26.089" cy="32.569" r="1.438"/>
			<path fill="#ECA434" d="M40.601,25.397c-0.044,0-0.091-0.004-0.137-0.011c-2.299-0.437-4.671-0.437-6.971,0
				c-0.388,0.071-0.766-0.183-0.841-0.572c-0.073-0.389,0.183-0.765,0.573-0.84c2.476-0.47,5.033-0.47,7.509,0
				c0.39,0.075,0.646,0.451,0.571,0.84C41.24,25.159,40.939,25.397,40.601,25.397z"/>
		</g>
		<g>
			<circle fill="#FECE67" cx="36.979" cy="17.637" r="3.354"/>
			<circle fill="#ECA434" cx="36.98" cy="17.637" r="2.135"/>
		</g>
	</g>
</g>
</svg>
