<?xml version="1.0" encoding="utf-8"?>
<!-- Generator: Adobe Illustrator 17.0.0, SVG Export Plug-In . SVG Version: 6.00 Build 0)  -->
<!DOCTYPE svg PUBLIC "-//W3C//DTD SVG 1.1//EN" "http://www.w3.org/Graphics/SVG/1.1/DTD/svg11.dtd">
<svg version="1.1" id="Layer_1" xmlns="http://www.w3.org/2000/svg" xmlns:xlink="http://www.w3.org/1999/xlink" x="0px" y="0px"
	 width="74px" height="74px" viewBox="0 0 74 74" enable-background="new 0 0 74 74" xml:space="preserve">
<g>
	<ellipse fill="#F4836B" cx="36.867" cy="37.08" rx="36.977" ry="37.062"/>
	<path fill="#EA6653" d="M73.585,41.405L51.381,19.149h-5.154l-3.559-3.567c-1.551-1.555-3.611-2.411-5.801-2.411
		c-2.19,0-4.25,0.856-5.801,2.411c-1.006,1.008-1.718,2.234-2.091,3.567h-6.623v5.701l-1.468,1.472v6.834v20.516
		c0,0.333,0.119,0.668,0.367,0.927c0.01,0.01,0.013,0.013,0.025,0.023c0.008,0.01,0.013,0.015,0.023,0.025l19.27,19.309
		C57.83,72.236,71.586,58.621,73.585,41.405z"/>
	<g>
		<g>
			<g>
				<g>
					<circle fill="#343C44" cx="29.144" cy="23.331" r="1.158"/>
					<circle fill="#343C44" cx="44.59" cy="23.331" r="1.158"/>
				</g>
			</g>
			<path fill="#FFFFFF" d="M36.866,13.173c-2.192,0-4.252,0.854-5.801,2.409c-1.551,1.553-2.404,3.619-2.404,5.814v1.936
				c0,0.267,0.215,0.485,0.482,0.485c0.267,0,0.482-0.218,0.482-0.485v-1.936c0-1.937,0.754-3.759,2.121-5.131
				c1.369-1.37,3.187-2.124,5.12-2.124c1.935,0,3.753,0.754,5.12,2.124c1.367,1.372,2.121,3.194,2.121,5.131v1.936
				c0,0.267,0.215,0.485,0.482,0.485c0.267,0,0.482-0.218,0.482-0.485v-1.936c0-2.195-0.852-4.261-2.404-5.814
				C41.119,14.027,39.059,13.173,36.866,13.173z"/>
		</g>
		<g>
			<rect x="22.354" y="19.149" fill="#F5B541" width="29.026" height="29.589"/>
			<path fill="#FECE67" d="M20.883,26.321v27.348c0,0.344,0.131,0.689,0.392,0.95c0.263,0.264,0.607,0.394,0.95,0.394h29.283
				c0.344,0,0.687-0.131,0.95-0.394c0.261-0.262,0.392-0.606,0.392-0.95V26.321H20.883z"/>
			<g>
				<polygon fill="#ECA434" points="20.883,26.321 25.197,26.321 25.197,21.998 				"/>
				<polygon fill="#FECE67" points="22.354,24.848 25.197,21.998 22.354,19.149 				"/>
			</g>
			<g>
				<polygon fill="#ECA434" points="52.85,26.321 48.536,26.321 48.536,21.998 				"/>
				<polygon fill="#FECE67" points="51.379,24.848 48.536,21.998 51.379,19.149 				"/>
			</g>
		</g>
		<g>
			<g>
				<g>
					<circle fill="#343C44" cx="28.361" cy="31.024" r="1.276"/>
					<circle fill="#343C44" cx="45.372" cy="31.024" r="1.276"/>
				</g>
			</g>
			<path fill="#FFFFFF" d="M36.866,19.837c-2.413,0-4.684,0.941-6.391,2.651c-1.707,1.712-2.647,3.987-2.647,6.405v2.13
				c0,0.296,0.238,0.535,0.534,0.535c0.292,0,0.53-0.239,0.53-0.535v-2.13c0-2.134,0.829-4.141,2.336-5.651s3.507-2.341,5.638-2.341
				s4.133,0.831,5.638,2.341c1.507,1.51,2.336,3.517,2.336,5.651v2.13c0,0.296,0.238,0.535,0.53,0.535
				c0.294,0,0.534-0.239,0.534-0.535v-2.13c0-2.418-0.941-4.693-2.647-6.405C41.551,20.778,39.281,19.837,36.866,19.837z"/>
		</g>
	</g>
</g>
</svg>
