<?xml version="1.0" encoding="utf-8"?>
<!-- Generator: Adobe Illustrator 17.0.0, SVG Export Plug-In . SVG Version: 6.00 Build 0)  -->
<!DOCTYPE svg PUBLIC "-//W3C//DTD SVG 1.1//EN" "http://www.w3.org/Graphics/SVG/1.1/DTD/svg11.dtd">
<svg version="1.1" id="Layer_1" xmlns="http://www.w3.org/2000/svg" xmlns:xlink="http://www.w3.org/1999/xlink" x="0px" y="0px"
	 width="74px" height="74px" viewBox="0 0 74 74" enable-background="new 0 0 74 74" xml:space="preserve">
<g>
	<ellipse fill="#95D9F1" cx="37.031" cy="37.118" rx="36.978" ry="36.868"/>
	<path fill="#71C9E9" d="M73.784,41.137L50.003,17.426c-0.428-0.333-0.968-0.528-1.549-0.528H25.608
		c-1.407,0-2.561,1.152-2.561,2.555V54.78c0,0.699,0.29,1.342,0.752,1.803l17.235,17.184C58.246,71.918,71.918,58.296,73.784,41.137
		z"/>
	<g>
		<g>
			<g>
				<path fill="#343C44" d="M51.015,54.778c0,1.407-1.154,2.557-2.563,2.557H25.61c-1.409,0-2.563-1.15-2.563-2.557V19.455
					c0-1.405,1.154-2.557,2.563-2.557h22.842c1.409,0,2.563,1.152,2.563,2.557V54.778z"/>
				<path fill="#4A5158" d="M37.026,20.386c-0.516,0-0.927-0.414-0.927-0.93c0-0.509,0.411-0.93,0.927-0.93
					c0.516,0,0.937,0.421,0.937,0.93C37.963,19.972,37.542,20.386,37.026,20.386z"/>
				<rect x="25.377" y="22.012" fill="#FFFFFF" width="23.307" height="30.211"/>
				<path fill="#4A5158" d="M40.293,54.778c0-0.448-0.367-0.813-0.816-0.813h-4.893c-0.449,0-0.816,0.366-0.816,0.813l0,0
					c0,0.448,0.367,0.814,0.816,0.814h4.893C39.927,55.592,40.293,55.226,40.293,54.778L40.293,54.778z"/>
			</g>
			<g>
				<g>
					<rect x="37.03" y="25.368" fill="#343C44" width="9.41" height="1.12"/>
					<rect x="37.03" y="27.607" fill="#D9D8D7" width="9.41" height="1.118"/>
					<rect x="37.03" y="29.845" fill="#D9D8D7" width="9.41" height="1.118"/>
					<rect x="37.089" y="32.082" fill="#D9D8D7" width="9.351" height="1.12"/>
					<rect x="37.089" y="34.319" fill="#D9D8D7" width="9.351" height="1.12"/>
					<rect x="27.622" y="36.559" fill="#D9D8D7" width="18.818" height="1.118"/>
					<rect x="27.622" y="38.794" fill="#D9D8D7" width="18.818" height="1.12"/>
					<rect x="27.622" y="41.034" fill="#D9D8D7" width="18.818" height="1.118"/>
					<rect x="27.622" y="43.271" fill="#D9D8D7" width="18.818" height="1.12"/>
					<rect x="27.622" y="45.509" fill="#D9D8D7" width="18.818" height="1.118"/>
					<rect x="27.622" y="47.746" fill="#D9D8D7" width="18.818" height="1.12"/>
				</g>
				<g>
					<g>
						<path fill="#EA6653" d="M34.993,35.439h-1.912v-7.076c0-0.291-0.113-0.565-0.319-0.769c-0.207-0.207-0.482-0.32-0.772-0.32
							h-1.367c-0.292,0-0.564,0.113-0.772,0.32c-0.205,0.205-0.319,0.478-0.319,0.769v7.076h-1.912v-7.076
							c0-0.8,0.313-1.552,0.879-2.117c0.568-0.567,1.321-0.878,2.123-0.878h1.367c0.8,0,1.555,0.312,2.123,0.878
							c0.566,0.565,0.879,1.317,0.879,2.117V35.439z"/>
						<rect x="27.622" y="29.45" fill="#EA6653" width="7.372" height="1.906"/>
					</g>
				</g>
			</g>
		</g>
		<g>
			<rect x="54.743" y="28.585" fill="#4A5158" width="1.242" height="25.366"/>
			<rect x="55.985" y="28.585" fill="#343C44" width="1.242" height="25.366"/>
			<rect x="57.227" y="28.585" fill="#1E262E" width="1.242" height="25.366"/>
			<polygon fill="#FFFFFF" points="58.471,28.585 57.225,26.439 55.987,26.439 54.743,28.585 			"/>
			<polygon fill="#E6E5E5" points="58.471,28.585 57.227,28.585 56.812,26.439 57.225,26.439 			"/>
			<polygon fill="#343C44" points="57.225,26.439 56.605,25.368 55.987,26.439 			"/>
			<rect x="57.227" y="53.952" fill="#E6E5E5" width="1.242" height="1.238"/>
			<rect x="54.743" y="53.952" fill="#FFFFFF" width="2.484" height="1.238"/>
			<path fill="#EA6653" d="M58.467,55.477V55.19h-1.242v0.287c0,0.475-0.18,0.951-0.543,1.313c-0.205,0.201-0.445,0.35-0.699,0.436
				c0.201,0.071,0.409,0.109,0.622,0.109c0.478,0,0.952-0.184,1.319-0.545C58.286,56.428,58.467,55.952,58.467,55.477z"/>
			<path fill="#F4836B" d="M57.225,55.477V55.19h-2.484v0.287c0,0.475,0.184,0.951,0.547,1.313c0.201,0.201,0.442,0.346,0.695,0.436
				c0.253-0.086,0.493-0.235,0.699-0.436C57.044,56.428,57.225,55.952,57.225,55.477z"/>
		</g>
	</g>
</g>
</svg>
