<?xml version="1.0" encoding="utf-8"?>
<!-- Generator: Adobe Illustrator 17.0.0, SVG Export Plug-In . SVG Version: 6.00 Build 0)  -->
<!DOCTYPE svg PUBLIC "-//W3C//DTD SVG 1.1//EN" "http://www.w3.org/Graphics/SVG/1.1/DTD/svg11.dtd">
<svg version="1.1" id="Layer_1" xmlns="http://www.w3.org/2000/svg" xmlns:xlink="http://www.w3.org/1999/xlink" x="0px" y="0px"
	 width="74px" height="74px" viewBox="0 0 74 74" enable-background="new 0 0 74 74" xml:space="preserve">
<g>
	<ellipse fill="#4A5158" cx="36.948" cy="37.144" rx="37.019" ry="36.977"/>
	<path fill="#343C44" d="M72.975,45.633l-22.676-22.65l-0.248-0.248c-0.235-0.182-0.517-0.269-0.794-0.269h-2.937H16.757
		c-0.334,0-0.669,0.125-0.921,0.382c-0.254,0.253-0.382,0.587-0.382,0.922v20.32c0,0.334,0.129,0.668,0.382,0.925l3.773,3.77v3.016
		l0.01,0.01l22.028,22.004C57.043,71.864,69.483,60.476,72.975,45.633z"/>
	<g>
		<g>
			<path fill="#FFFFFF" d="M16.759,45.395c-0.334,0-0.669-0.127-0.923-0.38c-0.255-0.257-0.382-0.589-0.382-0.924V23.768
				c0-0.332,0.127-0.666,0.382-0.922c0.254-0.253,0.588-0.38,0.923-0.38h32.5c0.333,0,0.667,0.127,0.923,0.38
				c0.256,0.255,0.382,0.589,0.382,0.922v20.324c0,0.334-0.127,0.666-0.382,0.924c-0.256,0.253-0.59,0.38-0.923,0.38H16.759z"/>
			<polygon fill="#FFFFFF" points="26.041,45.395 19.609,45.395 19.609,51.822 			"/>
		</g>
		<g>
			<g>
				<g>
					<path fill="#343C44" d="M33.609,38.307h-1.778c-0.457,0-0.828-0.371-0.828-0.829v-7.925h1.658v1.774h0.948
						c0.696,0,1.349,0.271,1.841,0.762c0.492,0.489,0.763,1.144,0.763,1.841v1.774c0,0.697-0.271,1.351-0.763,1.841
						C34.958,38.037,34.305,38.307,33.609,38.307z M32.662,36.651h0.948c0.252,0,0.49-0.098,0.669-0.276
						c0.179-0.179,0.277-0.417,0.277-0.67V33.93c0-0.253-0.098-0.491-0.277-0.668c-0.179-0.18-0.417-0.278-0.669-0.278h-0.948
						V36.651z"/>
				</g>
				<path fill="#343C44" d="M40.905,38.307h-0.888c-0.577,0-1.119-0.225-1.528-0.632c-0.409-0.409-0.632-0.95-0.632-1.528v-2.661
					c0-0.578,0.225-1.119,0.632-1.526c0.407-0.409,0.951-0.634,1.528-0.634h0.888c0.579,0,1.121,0.224,1.53,0.634
					c0.407,0.407,0.632,0.948,0.632,1.526v0.827h-1.659v-0.827c0-0.136-0.052-0.261-0.146-0.357
					c-0.096-0.094-0.223-0.146-0.358-0.146h-0.888c-0.135,0-0.262,0.052-0.356,0.148c-0.094,0.094-0.148,0.221-0.148,0.355v2.661
					c0,0.134,0.054,0.261,0.148,0.357c0.094,0.094,0.221,0.146,0.356,0.146h0.888c0.135,0,0.261-0.052,0.358-0.148
					c0.094-0.094,0.146-0.221,0.146-0.355V35.32h1.659v0.827c0,0.576-0.225,1.119-0.632,1.526
					C42.025,38.083,41.481,38.307,40.905,38.307z"/>
				<g>
					<path fill="#343C44" d="M29.345,38.307h-1.659v-6.151c0-0.253-0.098-0.491-0.277-0.67c-0.179-0.178-0.417-0.278-0.669-0.278
						h-1.184c-0.254,0-0.492,0.1-0.671,0.278c-0.179,0.179-0.279,0.417-0.279,0.67v6.151h-1.657v-6.151
						c0-0.697,0.271-1.351,0.763-1.843c0.492-0.49,1.145-0.76,1.843-0.76h1.184c0.696,0,1.349,0.271,1.841,0.762
						c0.492,0.491,0.763,1.144,0.763,1.841V38.307z"/>
					<rect x="22.951" y="33.101" fill="#343C44" width="6.394" height="1.657"/>
				</g>
			</g>
		</g>
		<g>
			<path fill="#71C9E9" d="M58.444,43.821c0,4.346-3.525,7.871-7.88,7.871c-4.351,0-7.878-3.525-7.878-7.871
				c0-4.348,3.527-7.869,7.878-7.869C54.919,35.952,58.444,39.472,58.444,43.821z"/>
			<path fill-rule="evenodd" clip-rule="evenodd" fill="#FFFFFF" d="M48.719,50.399c0.033,0.006,0.119-0.023,0.142-0.029
				c-0.056-0.046-0.185-0.052-0.259-0.098c0.006,0.002-0.237-0.146-0.187-0.023c0.014,0.029,0.06,0.002,0.083,0.017
				c-0.031,0.044-0.044,0.031-0.011,0.05c0,0-0.271-0.146,0.002-0.157c-0.186-0.165,0.012-0.115-0.048-0.221
				c-0.04-0.073,0.16-0.142,0.052-0.205c-0.052-0.029-0.108-0.023-0.16-0.058c-0.075-0.056-0.004-0.152,0.065-0.14
				c0.006,0,0.042-0.171,0.056-0.198c-0.019-0.008-0.162-0.18-0.125-0.217c0.04-0.044,0.221,0.111,0.265-0.002
				c0.017-0.042-0.062-0.154-0.056-0.2c0.083-0.008,0.621,0.012,0.529-0.232c-0.031-0.086-0.258-0.215-0.236-0.284
				c0.081,0.01,0.209,0.125,0.294,0.079c0.071-0.034,0.127,0.04,0.198-0.04c0.01-0.013,0.131-0.144,0.098-0.167
				c-0.037,0-0.058,0.019-0.06,0.063c-0.042-0.06,0.029-0.098,0.067-0.14c0.011,0.015,0.019,0.025,0.027,0.037
				c0.046-0.067,0.294-0.39,0.303-0.397c0.129-0.148,0.021-0.346,0.148-0.465c0.115-0.108,0.242-0.178,0.383-0.236
				c0.046-0.019,0.204-0.102,0.238-0.092c0.263,0.081,0.231-0.234,0.398-0.376c0.173-0.142,0.046-0.87,0.183-0.923
				c0.075-0.031,0.3-0.307,0.417-0.434c0.115-0.119,0.127-0.277,0.085-0.432c-0.065-0.234-0.135-0.1-0.306-0.201
				c-0.136-0.083-0.24-0.244-0.411-0.269c-0.098-0.014-0.202,0.017-0.298-0.014c-0.044-0.013-0.158-0.081-0.2-0.023
				c0.01-0.01-0.09,0.037-0.083,0.04c-0.012-0.008-0.004-0.131-0.037-0.159c-0.052-0.05-0.227-0.1-0.29-0.115
				c-0.148-0.038-0.183,0.134-0.221-0.071c-0.121-0.033-0.242-0.173-0.219-0.209c0.009-0.015-0.19-0.436-0.217-0.396
				c-0.002-0.144-0.442-0.317-0.552-0.251c-0.1,0.075-0.284-0.065-0.346-0.131c-0.069-0.073-0.067-0.155-0.184-0.203
				c-0.05-0.021-0.133-0.008-0.115-0.096c0.019-0.088-0.215-0.108-0.238-0.196c0.035,0.008,0.062-0.009,0.092-0.019
				c-0.092,0.033-0.202-0.033-0.294,0.04c-0.131,0.109-0.21-0.052-0.354-0.023c-0.183,0.034-0.06-0.033-0.175-0.102
				c0.048,0.029-0.213-0.119-0.152-0.115c-0.054-0.006,0.009,0.09-0.052,0.111c-0.096,0.034-0.179,0.058-0.115,0.173
				c0.104,0.207-0.219,0.109-0.065-0.033c0.027-0.025,0.033-0.297,0.063-0.286c-0.036-0.013-0.334,0.177-0.369,0.219
				c-0.094-0.154-0.254,0.374-0.307,0.38c-0.027-0.129-0.152-0.184-0.26-0.221c-0.09-0.036-0.182,0.182-0.302,0.063
				c-0.213-0.215-0.119-0.565-0.011-0.81c0.044-0.111-0.394-0.146-0.448-0.102c-0.108,0.086,0.017-0.18,0.017-0.18
				c0.012-0.1,0.037-0.171,0.083-0.169c0.029-0.063,0.192-0.357,0.175-0.392c-0.065-0.154-0.344,0.117-0.367,0.186
				c-0.029,0.067-0.082,0.104-0.107,0.165c-0.027,0.06-0.077-0.015-0.121,0.012c-0.119,0.065-0.29,0.031-0.263-0.142
				c0.025-0.209-0.054-0.622,0.181-0.764c0.071-0.044,0.085-0.253,0.165-0.327c0.012-0.008,0.248-0.146,0.225-0.173
				c0.035,0.038,0.219-0.039,0.244,0.011c0.019,0.038,0.129,0.079,0.167,0.058c-0.004,0.004,0.019-0.092,0.019-0.092
				c-0.004,0-0.077-0.011-0.073-0.034c0.01-0.033,0.231-0.01,0.238-0.01c0.104,0.008,0.183,0.094,0.261,0.042
				c0.121-0.081,0.048,0.459,0.094,0.509c0.027,0.029,0.008,0.094,0.06,0.088c0.069-0.008,0.09-0.703,0.269-0.849
				c0.133-0.102,0.275-0.198,0.419-0.276c0.046-0.023,0.167-0.081,0.192-0.127c-0.008-0.023-0.029-0.05-0.054-0.027
				c-0.006-0.042,0.067-0.015,0.077-0.062c0.014-0.042-0.034-0.056-0.031-0.073c0,0,0.044-0.09,0.029-0.077
				c0.002,0.002,0.002,0.006,0.002,0.006c0.073,0.013-0.013-0.065-0.017-0.077c0.094,0.048,0.056-0.104,0.148-0.109
				c-0.067,0.027-0.054,0.1-0.044,0.144c0.017,0.102,0.106-0.136,0.096-0.129c0.088-0.035,0.225-0.108,0.319-0.177
				c-0.023-0.008-0.044,0.01-0.071-0.01c0.098-0.036,0.206-0.025,0.298-0.071c-0.004-0.098,0.054-0.2,0.165-0.219
				c0.169-0.027,0.365-0.131,0.534-0.186c-0.027,0.056,0.014,0.011,0.06,0.033c-0.056-0.14-0.356,0.265-0.213,0.182
				c0.121-0.069,0.525-0.132,0.58-0.247c0-0.008-0.027-0.085-0.027-0.085c-0.1,0-0.108,0.123-0.231,0.123
				c-0.221-0.004-0.089-0.14-0.135-0.203c-0.04,0.011-0.073,0-0.1-0.031c0.021-0.004,0.298-0.067,0.152-0.102
				c-0.236-0.05-0.392,0.213-0.586,0.207c0.144-0.09,0.342-0.278,0.519-0.302c0.184-0.027,0.446,0.065,0.611-0.05
				c0.148-0.102,0.248-0.027,0.329-0.192c0.027-0.044-0.106-0.104-0.14-0.109c0.014-0.017,0.042,0,0.056-0.029
				c-0.223-0.098-0.267-0.194-0.294-0.449c-0.112,0.081-0.49,0.257-0.288-0.029c-0.073-0.031-0.3-0.223-0.388-0.09
				c-0.04,0.06-0.106,0.157-0.171,0.188c-0.152,0.069-0.017,0.058-0.069,0.155c-0.083,0.165-0.29,0.144-0.386,0.288
				c-0.061,0.09-0.079,0.155-0.175,0.196c-0.083,0.038-0.115-0.06-0.073-0.138c0.029,0.033,0.056,0.038,0.079,0.013
				c0.008-0.036-0.042-0.019-0.06-0.031c0.029-0.054,0.067-0.1,0.108-0.142c-0.015-0.008-0.225-0.042-0.217-0.096
				c0.013-0.117-0.131-0.054-0.158-0.088c0.111-0.142,0.111-0.209,0.334-0.319c0.077-0.038,0.502-0.255,0.58-0.201
				c-0.01,0.048-0.061,0.04-0.09,0.063c0.06,0.015,0.238,0.036,0.298-0.008c-0.012-0.012-0.085-0.131-0.046-0.157
				c-0.006,0.006,0.123,0.004,0.131,0c0.069-0.017,0.144-0.025,0.182-0.096c0.033-0.062,0.26-0.138,0.311-0.109
				c0.296,0.167-0.396,0.344-0.405,0.326c0.015,0.046,0.202-0.036,0.248,0.092c0.013,0.033,0.225,0.102,0.244,0.071
				c0.015-0.015-0.062-0.094-0.062-0.111c0.221,0.109,0.212,0.052,0.173-0.098c-0.034-0.142,0.133,0.01,0.14,0.015
				c0.037,0.017,0.188-0.067,0.211-0.1c-0.056-0.042-0.15-0.04-0.198-0.09c-0.044-0.046,0.117-0.058,0.059-0.102
				c-0.067-0.056-0.173-0.04-0.136-0.15c-0.038-0.012-0.075-0.006-0.11,0.013c0.012,0.019,0.033,0.006,0.042,0.017
				c-0.038,0.021-0.081,0.025-0.123,0.023c0.014-0.017,0.052-0.017,0.054-0.056c-0.115-0.012-0.177,0.056-0.279,0.086
				c0.029-0.04,0.077-0.054,0.113-0.085c-0.112,0.015-0.215,0.054-0.302,0.127c0.011,0.014,0.027,0.023,0.033,0.04
				c-0.083,0.073-0.194,0.098-0.294,0.142c0.017-0.067,0.089-0.05,0.112-0.1c-0.037,0-0.071,0.01-0.104,0.025
				c0.042-0.006,0.165-0.129,0.194-0.159c-0.179-0.023-0.254,0.209-0.423,0.177c0.035-0.042,0.106-0.021,0.129-0.085
				c-0.062,0.008-0.298,0.169-0.338,0.085c-0.002-0.006,0.434-0.177,0.48-0.242c-0.031-0.004-0.063,0.027-0.088-0.008
				c0.021-0.023,0.056-0.027,0.081-0.052c-0.142-0.002-0.567,0.175-0.536,0.271c-0.056,0.046-0.114,0.058-0.183,0.031
				c0.027-0.042,0.121-0.042,0.044-0.104c-0.137,0.052-0.271,0.108-0.404,0.165c-0.308,0.136-0.609,0.296-0.894,0.472
				c-0.471,0.292-0.861,0.635-1.251,1.027c-0.206,0.209-0.992,1.127-0.99,1.319c0.002,0.142-0.081,0.267-0.135,0.394
				c-0.042,0.104-0.048,0.247-0.098,0.344c-0.117,0.207-0.063,0.442-0.113,0.676c0.063-0.05,0.196-1.121,0.313-1.081
				c0.023,0.006-0.073,0.445-0.096,0.501c-0.098,0.223,0.033,0.497-0.033,0.731c-0.008,0.025-0.039,0.144-0.04,0.167
				c-0.108,0.083,0.029,0.207,0.029,0.298c0,0.056,0.275,0.298,0.329,0.328c0.115,0.069,0.138-0.054,0.244-0.031
				c0.096,0.019,0.123,0.192,0.173,0.265c0.069,0.102,0.327,0.09,0.373,0.138c0.029,0.037,0.004,0.234,0.121,0.261
				c0-0.013-0.004-0.081,0.013-0.092c0.037-0.021,0.113,0.109,0.087,0.134c-0.039,0.008-0.071-0.008-0.1-0.042
				c0,0.019-0.019,0.277,0.056,0.227c0,0,0.006-0.033,0.01-0.048c0.098,0.042,0.09,0.188,0.16,0.205
				c0.096,0.029,0.169,0.15,0.242,0.182c0.065,0.035,0.046-0.226,0.169-0.24c0.1-0.008,0.156,0.249,0.19,0.315
				c0.054,0.09-0.069,0.311-0.002,0.38c0.067,0.073-0.171,0.244-0.182,0.317c-0.008,0.056-0.129,0.109-0.125,0.131
				c0.01,0.06-0.027,0.144-0.048,0.202c-0.062,0.161-0.033,0.175,0.075,0.249c0,0-0.196,0.394-0.083,0.495
				c0.179,0.146,0.415,0.511,0.475,0.737c0.117,0.315,0.294,0.507,0.594,0.662c0.244,0.129,0.417,0.344,0.417,0.639
				c0.008,0.171-0.017,0.388,0.056,0.549c0.052,0.111-0.044,0.297,0.027,0.399c0.046,0.063-0.015,0.1,0.014,0.159
				c0.027,0.063,0.094,0.169,0.092,0.244c0,0.123,0,0.269,0.009,0.392c0.002,0.04-0.036,0.111-0.015,0.138
				c0.029,0.035,0.194,0.443,0.194,0.562c-0.002,0.029,0.127-0.008,0.011-0.123c0.137-0.079,0.11,0.244,0.119,0.248
				c-0.123-0.042-0.044-0.01-0.035,0.15c0.008,0.094-0.023,0.05,0.052,0.065c0.123,0.029,0,0.109,0.046,0.175
				c0.092,0.132,0.233,0.255,0.329,0.355C48.266,50.388,48.533,50.359,48.719,50.399C48.748,50.405,48.686,50.394,48.719,50.399z
				 M49.234,37.572c-0.042,0.039-0.09,0.046-0.14,0.06C49.13,37.58,49.18,37.587,49.234,37.572z M48.823,37.538
				c0.033-0.006,0.059,0.004,0.077,0.025c0,0.013-0.169,0.021-0.196,0.063C48.727,37.555,48.786,37.566,48.823,37.538
				C48.842,37.559,48.786,37.566,48.823,37.538z M48.412,37.827C48.446,37.839,48.36,37.822,48.412,37.827
				C48.414,37.829,48.402,37.827,48.412,37.827z M48.185,37.397c0.016-0.017,0.027-0.015,0.037,0.008
				C48.206,37.424,48.193,37.42,48.185,37.397C48.185,37.386,48.181,37.409,48.185,37.397z M47.958,38.069
				C47.897,38.065,48.025,38.073,47.958,38.069C47.95,38.069,47.968,38.069,47.958,38.069z M48.025,37.808
				c-0.217,0.205-0.048,0.004-0.112,0.067c0,0,0,0.006-0.004,0.006C47.893,37.862,48.021,37.81,48.025,37.808
				C47.998,37.833,47.989,37.814,48.025,37.808z M47.947,37.566c-0.041,0.046-0.041,0.046-0.096,0.035
				C47.881,37.582,47.92,37.589,47.947,37.566z M48.925,36.794c-0.013,0-0.029,0-0.052,0C48.944,36.735,48.932,36.794,48.925,36.794
				C48.911,36.794,48.934,36.794,48.925,36.794z M49.084,36.689c-0.025,0.027-0.06,0.01-0.088,0.025
				C49.027,36.653,49.032,36.653,49.084,36.689z M48.194,36.76c0.019-0.016,0.042-0.025,0.065-0.023
				C48.281,36.768,48.127,36.785,48.194,36.76C48.206,36.745,48.189,36.764,48.194,36.76z M48.158,36.716
				c0.023,0.012,0.019,0.021-0.01,0.035C48.129,36.737,48.131,36.727,48.158,36.716C48.166,36.716,48.144,36.718,48.158,36.716z
				 M47.007,38.674c0.002-0.002-0.344,0.136-0.319,0.052c-0.006,0.027,0.121-0.098,0.092-0.086c0.029-0.011,0.261-0.027,0.329-0.025
				C47.074,38.651,47.039,38.661,47.007,38.674C46.932,38.703,47.039,38.661,47.007,38.674z M47.283,38.503
				c0.285,0.027-0.169,0.115-0.217,0.061C47.13,38.511,47.205,38.493,47.283,38.503C47.305,38.505,47.205,38.493,47.283,38.503z
				 M47.235,36.731c0.077-0.048,0.16-0.085,0.258-0.108c-0.073,0.06-0.171,0.086-0.26,0.109L47.235,36.731z M47.253,38.271
				c-0.013,0.013-0.025,0.013-0.038,0C47.233,38.263,47.251,38.259,47.253,38.271C47.258,38.284,47.251,38.259,47.253,38.271z
				 M47.168,38.442C47.162,38.442,47.139,38.436,47.168,38.442C47.17,38.442,47.159,38.44,47.168,38.442z M47.084,38.296
				c0.106,0.048,0.046,0.209-0.046,0.085c-0.002,0.073-0.132,0.2-0.2,0.215c0.025-0.031,0.035-0.062,0.025-0.096
				c-0.021-0.019-0.065,0.031-0.089,0.031c0.01,0.046,0.187-0.301,0.039-0.203c-0.054,0.042-0.411,0.422-0.432,0.399
				c-0.033-0.033,0.157-0.311,0.173-0.321C46.674,38.303,46.932,38.225,47.084,38.296z M46.886,36.971
				c0.015-0.006,0.129-0.077,0.144-0.062c0.037,0.046-0.186,0.104-0.194,0.104C46.847,36.987,46.868,36.983,46.886,36.971
				C46.926,36.95,46.868,36.983,46.886,36.971z M46.909,37.902c0,0.006-0.046,0.09-0.071,0.056
				C46.815,37.935,46.901,37.862,46.909,37.902C46.905,37.923,46.907,37.891,46.909,37.902z M46.659,37.184
				c0.013,0,0.198-0.115,0.204-0.069C46.866,37.13,46.638,37.186,46.659,37.184z M46.609,37.374
				c-0.012,0.021-0.023,0.033-0.05,0.031C46.57,37.382,46.586,37.382,46.609,37.374z M46.48,37.822
				c0.025-0.021,0.085-0.119,0.056-0.155c0.017,0.021-0.112-0.013-0.052-0.035c0.023-0.01,0.167-0.088,0.19-0.063
				c0.042,0.042-0.181,0.276-0.225,0.294C46.455,37.841,46.467,37.831,46.48,37.822C46.517,37.793,46.467,37.831,46.48,37.822z
				 M46.607,38.115c0.158-0.052,0.217-0.142,0.311-0.021c0.038,0.044,0.031,0.163-0.056,0.134c0.023,0.01-0.258-0.017-0.208-0.048
				c-0.056,0.035-0.165,0.06-0.231,0.031C46.486,38.177,46.538,38.135,46.607,38.115C46.645,38.102,46.538,38.135,46.607,38.115z
				 M46.384,37.816c0.013,0.04,0.006,0.059-0.04,0.065C46.361,37.856,46.372,37.837,46.384,37.816z M44.122,41.252
				C44.049,41.25,44.178,41.25,44.122,41.252C44.114,41.252,44.13,41.252,44.122,41.252z M45.035,41.909
				C45.014,41.916,45.091,41.895,45.035,41.909C45.029,41.909,45.044,41.905,45.035,41.909z M47.26,42.642
				C47.224,42.636,47.307,42.646,47.26,42.642C47.258,42.642,47.268,42.644,47.26,42.642z M47.627,49.165
				C47.564,49.155,47.66,49.117,47.627,49.165C47.612,49.163,47.627,49.163,47.627,49.165z M47.789,45.905
				C47.766,45.878,47.802,45.915,47.789,45.905C47.785,45.9,47.795,45.907,47.789,45.905z M47.814,47.936
				C47.774,47.948,47.858,47.919,47.814,47.936C47.804,47.938,47.822,47.933,47.814,47.936z M48.029,50.125
				C48,50.11,48,50.098,48.027,50.094C48.058,50.106,48.06,50.119,48.029,50.125C48.016,50.125,48.039,50.127,48.029,50.125z
				 M48.314,50.25c-0.029-0.006-0.027-0.017,0.008-0.035C48.348,50.225,48.344,50.236,48.314,50.25
				C48.302,50.25,48.321,50.248,48.314,50.25z M47.712,49.441c-0.004,0.002-0.008,0.002-0.008,0.002
				C47.712,49.438,47.714,49.436,47.712,49.441z M48.415,36.342L48.415,36.342L48.415,36.342L48.415,36.342z M45.742,37.61h-0.004
				H45.742z M45.815,37.547L45.815,37.547L45.815,37.547z M58.315,42.41v0.002c-0.154-0.568-0.267-1.129-0.504-1.678
				c-0.279-0.651-0.646-1.267-1.09-1.82c-0.417-0.526-0.901-0.994-1.437-1.394c-0.263-0.198-0.536-0.374-0.821-0.538
				c-0.133-0.077-0.271-0.152-0.411-0.219c-0.062-0.031-0.275-0.086-0.308-0.138c0.002,0.023,0.125,0.085,0.14,0.104
				c-0.083-0.023-0.304-0.115-0.307-0.131c0.006-0.011,0.023,0,0.021-0.015c-0.125-0.081-0.588-0.251-0.682-0.125
				c0.019-0.027,0.323,0.321,0.329,0.384c0.021,0.136,0.231,0.279,0.367,0.321c0.186,0.063,0.046-0.019,0.123-0.063
				c0.054-0.025,0.102,0.086,0.148,0.06c0,0,0-0.002,0.002-0.004c-0.011-0.025-0.029-0.05-0.042-0.077
				c-0.015,0,0.34,0.365,0.385,0.286c-0.041-0.098-0.104-0.209-0.208-0.303c-0.087-0.083-0.229-0.092-0.323-0.175
				c-0.05-0.042-0.229-0.173-0.25-0.234c0.24,0.008,0.515,0.509,0.751,0.315c-0.033-0.021-0.065-0.046-0.096-0.073
				c0.044,0.014,0.244,0.077,0.177,0.159c-0.19-0.033,0.158,0.159,0.165,0.182c-0.035-0.004-0.06-0.031-0.09-0.033
				c0.012,0.067,0.2,0.132,0.215,0.244c-0.113,0.019-0.063-0.065-0.14,0.027c-0.021,0.027-0.125,0.019-0.177,0.021
				c-0.131,0.011-0.277-0.209-0.373-0.278c0.04,0.123,0.108,0.184,0.246,0.271c0.067,0.038-0.094,0.054-0.09,0.109
				c0.004,0,0.042,0.019,0.042,0.019c-0.002,0.019-0.037-0.013-0.042-0.019c0.012-0.008-0.023,0.217-0.027,0.215
				c0.108,0.123-0.14,0.086-0.148,0.092c0.019,0.027,0.06,0.042,0.067,0.083c-0.073,0.006-0.133-0.006-0.202,0.021
				c0.102,0.029,0.667,0.292,0.544,0.486c-0.038,0.065-0.423-0.015-0.49-0.017c-0.15-0.01-0.013,0.14-0.01,0.157
				c0.023,0.113,0.112,0.161,0.106,0.296c-0.008,0.092,0.089,0.094,0.115,0.171c0.025,0.067,0.012,0.075,0.083,0.085
				c0.125,0.015,0.129-0.004,0.235,0.079c0.077,0.058,0.106-0.054,0.196-0.058c0.225-0.01,0.035-0.056,0.14-0.085
				c0.133-0.036-0.037-0.246-0.031-0.284c0.01-0.056-0.006-0.117,0.064-0.138c0.117-0.029-0.029-0.146-0.037-0.177
				c-0.023-0.096,0.315,0.077,0.273-0.157c0.194,0.061,0.392,0.234,0.569,0.334c0.107,0.063,0.209,0.123,0.286,0.223
				c0.092,0.119-0.131,0.069-0.142,0.104c-0.017,0.038,0.194,0.132,0.229,0.129c0.004-0.019-0.027-0.14-0.029-0.161
				c-0.01-0.083-0.133-0.165-0.125-0.232c0.038,0.004,0.073,0.019,0.106,0.042c-0.113-0.138-0.298-0.152-0.427-0.255
				c-0.075-0.063-0.173-0.113-0.25-0.178c0,0-0.134-0.175-0.04-0.142c0.152,0.054,0.313,0.203,0.469,0.284
				c0.121,0.065,0.148,0.104,0.24,0.207c0.033,0.042,0.223,0.261,0.267,0.267c-0.004-0.002,0.148,0.136,0.21,0.159
				c-0.027-0.065-0.046-0.146-0.081-0.196c-0.044-0.069-0.217-0.106-0.217-0.209c0.038,0.006,0.044-0.037,0.129-0.035
				c-0.044-0.002,0.058-0.065,0.048-0.058c-0.163-0.094-0.384-0.365-0.44-0.549c0.044,0.002,0.069,0.062,0.115,0.031
				c-0.013-0.031-0.017-0.063-0.013-0.098c0.011,0.016,0.167,0.146,0.134,0.173c-0.042,0-0.077-0.019-0.109-0.054
				c0.021,0.079,0.1,0.079,0.133,0.134c0.004-0.023-0.014-0.042,0.006-0.063c0.134,0.056,0.411,0.271,0.448,0.42
				c-0.06,0.006-0.171-0.119-0.215-0.088c-0.011,0.031-0.009,0.059,0.006,0.09c-0.017,0-0.035,0.004-0.046,0.013
				c0.023,0.017,0.033,0.04,0.037,0.065c-0.025,0.01-0.044,0.015-0.067,0.023c0.019,0.073,0.419,0.453,0.446,0.417
				c0.008-0.013-0.015-0.054-0.008-0.059c0.017-0.023,0.081,0.088,0.113,0.065c0.027-0.017-0.023-0.052,0.006-0.067
				c0.058-0.031,0.3,0.44,0.329,0.493c0.113,0.219,0.037,0.084-0.05,0.115c-0.011,0.023-0.021,0.044-0.023,0.073
				c-0.14-0.033-0.294-0.113-0.406-0.196c-0.182-0.131,0.058,0.357-0.048,0.294c-0.061-0.035-0.098-0.085-0.171-0.092
				c-0.113-0.012-0.146-0.129-0.244-0.163c-0.081-0.027-0.409-0.058-0.365-0.205c0.033-0.129-0.129-0.234-0.184-0.282
				c-0.029-0.023-0.39,0.023-0.448,0.04c-0.1,0.033-0.258,0.063-0.313,0.157c-0.098,0.173-0.317-0.056-0.408-0.019
				c-0.044,0.019-0.002,0.161-0.023,0.205c-0.038,0.069-0.125,0.073-0.148,0.154c-0.038,0.148,0.073,0.269,0.023,0.405
				c-0.042,0.108-0.25,0.154-0.252,0.244c-0.002,0.046-0.013,0.1-0.056,0.123c-0.096,0.056,0.002,0.18-0.058,0.242
				c-0.321,0.326,0.102,0.645,0.031,1.002c-0.042,0.203-0.065,0.244,0.023,0.42c0.019,0.044,0.006,0.359,0.164,0.232
				c0.021,0.182,0.257,0.221,0.298,0.394c0.052,0.207,0.254,0.298,0.411,0.422c0.063,0.048,0.119,0.113,0.19,0.15
				c0.131,0.067,0.217-0.036,0.342-0.071c0.113-0.031,0.229-0.019,0.333,0.031c0.061,0.029,0.515-0.292,0.636-0.23
				c0.09,0.044,0.094,0.154,0.136,0.23c0.06,0.111,0.183-0.033,0.267,0.004c0.148,0.065,0.192,0.607,0.067,0.708
				c-0.094,0.069,0.121,0.363,0.15,0.424c0.085,0.167,0.162,0.459,0.135,0.645c-0.023,0.15,0.021,0.388-0.065,0.522
				c-0.087,0.131-0.135,0.273-0.204,0.422c-0.181,0.386-0.012,0.822-0.162,1.223c-0.092,0.205-0.077,0.424-0.127,0.637
				c-0.033,0.14-0.204,0.34-0.136,0.484c0.102-0.09,0.252-0.079,0.365-0.136c0.233-0.115,0.346-0.384,0.515-0.564
				c0.088-0.092,0.146-0.213,0.198-0.328c0.052-0.111,0.154-0.184,0.204-0.292c0.117-0.274,0.227-0.549,0.342-0.823
				c0.252-0.593,0.294-1.163,0.381-1.799C58.44,43.719,58.442,43.082,58.315,42.41z M57.721,40.847
				c-0.031-0.081-0.451-0.695-0.403-0.728c0.058-0.034,0.953,1.551,0.857,1.797C58.038,41.555,57.873,41.202,57.721,40.847
				C57.721,40.847,57.752,40.918,57.721,40.847z M58.105,43.654c-0.017-0.044,0.006-0.081,0.017-0.132
				C58.142,43.575,58.113,43.613,58.105,43.654z M58.057,43.903c0-0.025-0.002-0.048,0.016-0.067
				C58.086,43.863,58.075,43.88,58.057,43.903z M57.909,45.94c-0.016,0.006-0.035,0.013-0.048,0.019
				c-0.031,0,0.054-0.04,0.058-0.044C57.915,45.928,57.915,45.936,57.909,45.94C57.896,45.959,57.915,45.936,57.909,45.94z
				 M57.933,45.113c-0.002-0.075,0.002-0.079,0.079-0.127C57.994,45.038,57.94,45.063,57.933,45.113z M58.017,44.729
				c-0.002-0.138-0.006-0.302,0.025-0.436c0.006,0.234,0.015,0.47,0.008,0.707C58.013,44.951,58.017,44.788,58.017,44.729
				C58.017,44.679,58.017,44.777,58.017,44.729z M58.14,45.168c-0.002,0.127-0.021,0.47-0.102,0.568
				c0.008-0.213,0.084-0.407,0.088-0.618C58.144,45.14,58.14,45.157,58.14,45.168C58.14,45.184,58.14,45.157,58.14,45.168z
				 M58.24,43.882c-0.038,0.152-0.002,0.2-0.092,0.282c0-0.113-0.04-0.327,0.073-0.394C58.238,43.807,58.248,43.838,58.24,43.882
				C58.223,43.944,58.248,43.838,58.24,43.882z M53.293,51.192c0.012,0.023-0.992,0.303-1.093,0.328
				c-0.417,0.086-0.84,0.142-1.267,0.161c-0.809,0.04-1.657-0.035-2.433-0.271c0.1,0.011,0.219,0.063,0.323,0.046
				c-0.098-0.06-0.217-0.038-0.304-0.115c0.325,0.054,0.634,0.029,0.932,0.069c-0.031-0.042-0.304-0.108-0.302-0.136
				c0.04-0.004,0.248-0.009,0.257-0.017c0.098-0.075-0.156-0.065-0.136-0.119c0.012-0.015,0.079,0.008,0.104-0.025
				c0.039-0.052,0-0.079,0.014-0.102c0.011-0.025,0.405-0.092,0.446-0.075c-0.048,0.029-0.1-0.004-0.081,0.073
				c-0.038-0.006-0.161-0.002-0.169,0.05c0.004-0.014,0.133,0.167,0.138,0.178c0.046,0.069,0.206,0.111,0.215,0.196
				c0.027,0.142,0.776,0.131,0.886,0.117c0.279-0.031,0.538-0.132,0.815-0.178c0.163-0.029,0.325-0.073,0.49-0.092
				c0.075-0.006,0.33-0.096,0.392-0.077C52.559,51.338,53.153,51.165,53.293,51.192C53.295,51.194,53.27,51.188,53.293,51.192z
				 M57.831,46.848c0.031-0.081,0.058-0.163,0.098-0.244C57.902,46.691,57.867,46.767,57.831,46.848z M57.961,46.524
				c0.004-0.012,0.006-0.023,0.014-0.031C57.975,46.502,57.965,46.512,57.961,46.524z M49.346,36.219
				c-0.044-0.008-0.088-0.002-0.135-0.01c0.025-0.019,0.156-0.025,0.1-0.062c0.181-0.113,0.561-0.134,0.771-0.108
				c0.235,0.029,0.467-0.044,0.7-0.009c0.094,0.015,0.175,0.017,0.267,0.025c0.083,0.008-0.01,0.092,0.083,0.106
				c0.052,0.008,0.163,0.131,0.213,0.104c-0.004,0.086-0.042,0.027-0.013,0.106c0.006,0.019,0.1,0.073,0.098,0.081
				c-0.01,0.012-0.269-0.006-0.26-0.002c-0.021-0.004,0.006,0.04,0.023,0.033c0.05,0.013,0.165-0.004,0.221,0
				c-0.135,0.121-0.331,0.106-0.477,0.201c-0.088,0.061-0.223,0.054-0.325,0.092c0,0.098-0.075,0.223-0.14,0.324
				c-0.05,0.071-0.383-0.096-0.415-0.136c-0.073-0.088-0.24-0.315-0.06-0.388c0.219-0.086,0.002-0.015-0.063-0.063
				c0.054-0.071,0.112-0.048,0.194-0.037c-0.042-0.058-0.098-0.073-0.159-0.042c-0.019-0.063,0.092-0.119-0.006-0.186
				c-0.042-0.029-0.275,0.006-0.281-0.035c-0.013-0.1,0.281-0.046,0.332-0.131C49.795,36.038,49.559,36.251,49.346,36.219
				C49.301,36.211,49.384,36.224,49.346,36.219z M53.491,37.72c0.039-0.004-0.046-0.117-0.065-0.14
				c0.027,0.004,0.046,0.004,0.071-0.009c-0.021-0.05-0.25-0.184-0.265-0.175c-0.085,0.056-0.196-0.186-0.208-0.221
				c0.15-0.019,0.242,0.14,0.375,0.203c0.117,0.054,0.525,0.253,0.538,0.374c0.01,0.062-0.311,0.039-0.359,0.109
				c-0.037-0.09,0.081-0.088,0.079-0.117C53.653,37.722,53.506,37.718,53.491,37.72C53.485,37.72,53.539,37.712,53.491,37.72z
				 M49.294,37.833c-0.023,0.017-0.3,0.282-0.294,0.305c0.006,0.025,0.29,0.008,0.336,0.039c-0.002,0.031-0.038,0.013-0.046,0.042
				c0.038,0,0.154-0.073,0.169-0.052c0.002,0.017,0,0.036-0.008,0.054c0.125,0.123,0.111-0.146,0.121-0.159
				c-0.088-0.012,0.017-0.138-0.131-0.085c0.01-0.004-0.159-0.05-0.152-0.04c-0.015-0.013,0.121-0.129,0.133-0.144
				C49.34,37.772,49.33,37.808,49.294,37.833C49.248,37.872,49.303,37.827,49.294,37.833z M49.569,38.129
				C49.58,38.135,49.549,38.135,49.569,38.129C49.572,38.129,49.567,38.129,49.569,38.129z M49.507,38.119
				c0.008-0.008,0.054-0.027,0.023,0C49.521,38.135,49.482,38.15,49.507,38.119C49.509,38.117,49.501,38.129,49.507,38.119z
				 M49.307,37.801l0.004-0.002l0.002,0.002C49.313,37.801,49.311,37.801,49.307,37.801z M49.057,38.05c0.008,0,0.013,0,0.019,0.008
				C49.069,38.058,49.038,38.054,49.057,38.05C49.065,38.05,49.054,38.054,49.057,38.05z M46.323,41.333
				c-0.077,0.012,0.052-0.058,0.04-0.083c-0.052-0.119-0.409-0.146-0.444-0.242c0.017-0.006,0.029-0.017,0.033-0.033
				c-0.123-0.05-0.186,0.1-0.296,0.092c0.229-0.392,0.799,0.054,1.028,0.234C46.563,41.317,46.444,41.317,46.323,41.333
				C46.313,41.335,46.39,41.325,46.323,41.333z M46.62,41.542c-0.058-0.025,0.188-0.023,0.223-0.037
				c-0.05-0.077-0.004-0.115-0.1-0.146c0.087-0.104,0.373,0.019,0.463,0.06c-0.008,0.011-0.025,0.002-0.033,0.017
				c0.008,0.004,0.196,0.161,0.069,0.109c-0.14-0.059-0.217,0.023-0.315,0.079C46.851,41.513,46.724,41.59,46.62,41.542
				C46.609,41.536,46.643,41.552,46.62,41.542z M53.293,37.561c0.133,0.14-0.075,0.246-0.171,0.157
				c-0.044-0.048-0.015-0.161-0.125-0.194c0.029-0.008,0.058-0.017,0.088-0.029C53.011,37.324,53.257,37.524,53.293,37.561
				C53.32,37.593,53.282,37.549,53.293,37.561z M51.548,36.72c-0.008-0.027,0.192-0.017,0.227-0.023
				c0.052-0.008,0.452,0.033,0.311,0.096c-0.11,0.048-0.269,0.104-0.371,0.011C51.688,36.779,51.55,36.725,51.548,36.72
				C51.544,36.701,51.554,36.747,51.548,36.72z M55.194,38.699c0.048,0,0.159,0.177,0.142,0.207c-0.052,0.084-0.142-0.131-0.2-0.161
				C55.157,38.73,55.179,38.714,55.194,38.699z M48.961,36.272c0.136-0.102,0.167-0.044,0.336-0.027
				C49.242,36.295,49.113,36.305,48.961,36.272C48.998,36.245,49.113,36.305,48.961,36.272z M51.967,36.157
				c-0.098-0.027-0.207-0.035-0.304-0.073c0.117-0.012,0.261,0.033,0.34,0.056C52.032,36.149,51.963,36.153,51.967,36.157
				C51.869,36.13,51.979,36.157,51.967,36.157z M51.663,36.084c-0.01,0.004-0.021,0.004-0.033,0.006
				C51.642,36.079,51.654,36.077,51.663,36.084C51.654,36.088,51.66,36.082,51.663,36.084z M46.353,41.548
				c0.023,0.002,0.036,0.013,0.04,0.035c-0.015,0.058-0.192-0.023-0.211-0.05C46.244,41.498,46.299,41.519,46.353,41.548z
				 M47.624,41.544C47.531,41.774,47.291,41.385,47.624,41.544C47.608,41.577,47.568,41.517,47.624,41.544z M47.989,42.657
				L47.989,42.657c0.004-0.008,0.01-0.01,0.019-0.012C48,42.65,47.996,42.653,47.989,42.657z M48.021,42.65
				c-0.006,0,0.025-0.092,0.087-0.098C48.177,42.596,48.056,42.653,48.021,42.65C48.016,42.65,48.098,42.661,48.021,42.65z
				 M48.767,36.224c-0.063,0.042-0.138,0.015-0.204,0.04C48.656,36.199,48.694,36.205,48.767,36.224
				C48.704,36.267,48.756,36.22,48.767,36.224z M46.399,40.837c-0.025-0.094-0.061-0.094,0.002-0.177
				C46.426,40.751,46.426,40.803,46.399,40.837C46.39,40.803,46.426,40.803,46.399,40.837z M44.691,44.093
				c0,0.035-0.017,0.048-0.05,0.035c-0.012-0.008-0.017-0.123,0.004-0.148C44.66,44.018,44.675,44.055,44.691,44.093
				C44.699,44.11,44.675,44.055,44.691,44.093z M48.64,37.939c0.075-0.002,0.133,0.019,0.198,0.069
				C48.752,38.023,48.694,37.99,48.64,37.939z M55.165,38.664v0.002c-0.019-0.008-0.148-0.085-0.096-0.127
				C55.107,38.513,55.159,38.653,55.165,38.664z M56.487,39.321c-0.025-0.023-0.077-0.008-0.09-0.06
				c0.044,0.025,0.094,0.012,0.136,0.046C56.52,39.321,56.503,39.336,56.487,39.321C56.462,39.298,56.503,39.336,56.487,39.321z
				 M48.879,36.269c-0.012-0.019-0.035-0.006-0.048-0.023c0.036-0.04,0.086-0.027,0.131-0.038
				C48.959,36.211,48.907,36.307,48.879,36.269C48.867,36.249,48.884,36.28,48.879,36.269z M48.658,36.317
				c-0.058,0.044-0.119,0.086-0.198,0.081C48.513,36.338,48.588,36.332,48.658,36.317z M48.638,38.263
				c0.015,0.006,0.033,0,0.056-0.002c-0.075,0.094-0.165-0.036-0.146-0.042C48.533,38.223,48.631,38.263,48.638,38.263
				C48.654,38.269,48.606,38.259,48.638,38.263z M48.671,36.353c0.052-0.042,0.115-0.05,0.183-0.046
				C48.796,36.342,48.738,36.361,48.671,36.353z M54.835,38.885c-0.062-0.01,0.117-0.065,0.054,0.017
				C54.869,38.9,54.852,38.895,54.835,38.885C54.827,38.883,54.856,38.887,54.835,38.885z M56.804,39.336
				c-0.036-0.019-0.054-0.046-0.04-0.088C56.793,39.271,56.806,39.294,56.804,39.336z M48.806,36.641
				c0.021-0.042,0.046-0.05,0.125-0.05C48.89,36.633,48.85,36.641,48.806,36.641z M48.237,36.904
				c-0.044,0.025-0.079,0.044-0.127,0.038C48.144,36.904,48.181,36.906,48.237,36.904z M52.965,37.228
				c-0.01,0.017,0,0.029,0.013,0.042c-0.015-0.008-0.071-0.077-0.027-0.086C52.968,37.194,52.978,37.209,52.965,37.228
				C52.955,37.246,52.97,37.217,52.965,37.228z M45.84,41.083c-0.004,0.027-0.017,0.04-0.042,0.038
				C45.786,41.1,45.827,41.035,45.84,41.083C45.844,41.1,45.836,41.074,45.84,41.083z M48.492,49.255
				c0.021,0.01,0.031,0.025,0.036,0.046C48.529,49.372,48.404,49.265,48.492,49.255C48.504,49.253,48.473,49.259,48.492,49.255z
				 M48.314,36.944c-0.014,0.023-0.037,0.035-0.069,0.046C48.262,36.952,48.285,36.948,48.314,36.944z M44.75,44.082
				C44.745,44.16,44.727,44.005,44.75,44.082C44.749,44.091,44.747,44.072,44.75,44.082z M48.838,37.077
				c0.004-0.002,0.008,0,0.01,0.002C48.838,37.084,48.823,37.084,48.838,37.077z M48.487,36.326
				c-0.01,0.002-0.019,0.002-0.025,0.002C48.467,36.322,48.477,36.322,48.487,36.326z M48.456,36.33
				c-0.008,0,0.004-0.002,0.006-0.002C48.46,36.33,48.456,36.33,48.456,36.33z M48.419,36.342h-0.004
				C48.415,36.342,48.415,36.342,48.419,36.342z M48.419,36.342c0.008-0.014,0.021-0.01,0.035-0.012
				C48.444,36.345,48.433,36.347,48.419,36.342z M48.669,36.353h0.002C48.669,36.355,48.669,36.355,48.669,36.353z M48.669,36.355
				c0,0-0.013,0.013-0.025,0.013C48.65,36.355,48.658,36.353,48.669,36.355z M45.769,44.418
				C45.752,44.404,45.781,44.427,45.769,44.418C45.761,44.412,45.779,44.425,45.769,44.418z M54.196,36.971
				C54.243,36.987,54.198,36.983,54.196,36.971C54.196,36.971,54.198,36.981,54.196,36.971z M52.98,37.271h-0.002
				c0.004,0,0.006,0.004,0.004,0.01L52.98,37.271L52.98,37.271z M48.642,36.368h0.002H48.642L48.642,36.368z M48.629,36.37
				c0.002-0.002,0.01-0.002,0.014-0.002C48.636,36.38,48.629,36.38,48.629,36.37C48.631,36.368,48.629,36.372,48.629,36.37z
				 M55.807,38.803L55.807,38.803l0.002,0.002L55.807,38.803z M49.551,43.878C49.526,43.857,49.57,43.863,49.551,43.878
				C49.549,43.876,49.559,43.872,49.551,43.878z M53.299,51.188c-0.002,0.004-0.002,0.004-0.006,0.004
				c0.002-0.004,0.004-0.008,0.006-0.006V51.188z M53.293,51.192L53.293,51.192L53.293,51.192z M46.999,38.307
				c0.004-0.002,0.077-0.012,0.052,0.017C47.022,38.34,47.005,38.334,46.999,38.307C47.007,38.305,46.999,38.321,46.999,38.307z
				 M46.538,37.666c-0.019-0.013-0.015-0.027,0.015-0.044C46.578,37.631,46.574,37.647,46.538,37.666
				C46.528,37.664,46.555,37.66,46.538,37.666z"/>
		</g>
	</g>
</g>
</svg>
