<?xml version="1.0" encoding="utf-8"?>
<!-- Generator: Adobe Illustrator 17.0.0, SVG Export Plug-In . SVG Version: 6.00 Build 0)  -->
<!DOCTYPE svg PUBLIC "-//W3C//DTD SVG 1.1//EN" "http://www.w3.org/Graphics/SVG/1.1/DTD/svg11.dtd">
<svg version="1.1" id="Layer_1" xmlns="http://www.w3.org/2000/svg" xmlns:xlink="http://www.w3.org/1999/xlink" x="0px" y="0px"
	 width="74px" height="74px" viewBox="0 0 74 74" enable-background="new 0 0 74 74" xml:space="preserve">
<g>
	<ellipse fill="#F4836B" cx="37.096" cy="37.039" rx="37.061" ry="36.937"/>
	<path fill="#EA6653" d="M59.088,24.767c-0.01-0.008-0.013-0.019-0.029-0.027l-0.104-0.105c-0.01-0.013-0.019-0.019-0.029-0.029
		c-0.206-0.161-0.454-0.247-0.704-0.247h-1.108c-0.293,0-0.575,0.109-0.791,0.324C56.104,24.901,56,25.183,56,25.468v5.59
		l-1.999-1.992c-0.221-0.219-0.508-0.324-0.789-0.324h-1.114c-0.283,0-0.57,0.105-0.791,0.324c-0.063,0.065-0.113,0.138-0.16,0.213
		l-0.002-0.002l-2.157-2.15c-0.215-0.221-0.502-0.33-0.789-0.33h-1.11c-0.287,0-0.568,0.109-0.789,0.33
		c-0.219,0.215-0.325,0.495-0.325,0.781v4.686l-1.999-1.992c-0.216-0.215-0.496-0.33-0.783-0.33h-0.708h-0.408
		c-0.281,0-0.568,0.115-0.789,0.33c-0.215,0.219-0.325,0.5-0.325,0.78v2.37l2.553,2.543l-6.503,0.433l-1.314-1.31l-5.582-5.561
		c-1.797-1.71-4.231-2.763-6.909-2.763c-5.537,0-10.022,4.47-10.022,9.983c0,2.75,1.108,5.239,2.911,7.039
		c0.013,0.019,0.029,0.035,0.048,0.048l29.022,28.922c15.748-3.488,27.717-16.957,28.883-33.405L59.088,24.767z"/>
	<g>
		<g>
			<path fill="#FFFFFF" d="M57.113,24.358c-0.289,0-0.573,0.107-0.789,0.324c-0.218,0.217-0.327,0.502-0.327,0.786v8.284h3.34
				v-8.284c0-0.284-0.11-0.569-0.327-0.786c-0.216-0.217-0.504-0.324-0.789-0.324H57.113z"/>
			<path fill="#FFFFFF" d="M52.099,28.74c-0.283,0-0.568,0.107-0.789,0.326c-0.214,0.217-0.325,0.501-0.325,0.784v3.902h3.342V29.85
				c0-0.284-0.108-0.568-0.327-0.784c-0.219-0.219-0.504-0.326-0.787-0.326H52.099z"/>
			<path fill="#FFFFFF" d="M47.09,26.797c-0.285,0-0.57,0.109-0.789,0.328c-0.218,0.215-0.325,0.499-0.325,0.782v5.845h3.34v-5.845
				c0-0.284-0.112-0.568-0.325-0.782c-0.219-0.219-0.504-0.328-0.789-0.328H47.09z"/>
			<path fill="#FFFFFF" d="M42.08,30.274c-0.285,0-0.57,0.111-0.787,0.328c-0.219,0.217-0.327,0.5-0.327,0.784v2.366h3.338v-2.366
				c0-0.284-0.108-0.568-0.325-0.784c-0.216-0.217-0.5-0.328-0.787-0.328H42.08z"/>
		</g>
		<g>
			<path fill="#FFFFFF" d="M61.007,36.527c0-0.286-0.108-0.569-0.325-0.784c-0.221-0.217-0.506-0.326-0.791-0.326H33.087v2.221
				h27.919V36.527z"/>
			<path fill="#D9D8D7" d="M61.007,37.637H33.087v1.108h26.803c0.285,0,0.57-0.109,0.791-0.326
				C60.899,38.206,61.007,37.921,61.007,37.637L61.007,37.637z"/>
			<g>
				<path fill="#FFFFFF" d="M23.208,27.094c-5.535,0-10.02,4.472-10.02,9.985c0,5.517,4.485,9.988,10.02,9.988
					c5.533,0,10.02-4.472,10.02-9.988C33.228,31.566,28.741,27.094,23.208,27.094z M23.208,43.736c-3.69,0-6.68-2.98-6.68-6.658
					c0-3.676,2.99-6.658,6.68-6.658s6.68,2.982,6.68,6.658C29.888,40.757,26.898,43.736,23.208,43.736z"/>
			</g>
			<g>
				<path fill="#D9D8D7" d="M23.208,29.315c-4.308,0-7.794,3.474-7.794,7.764c0,4.293,3.486,7.768,7.794,7.768
					c4.306,0,7.794-3.474,7.794-7.768C31.002,32.789,27.514,29.315,23.208,29.315z M23.208,43.736c-3.69,0-6.68-2.98-6.68-6.658
					c0-3.676,2.99-6.658,6.68-6.658s6.68,2.982,6.68,6.658C29.888,40.757,26.898,43.736,23.208,43.736z"/>
			</g>
		</g>
	</g>
</g>
</svg>
