<?xml version="1.0" encoding="utf-8"?>
<!-- Generator: Adobe Illustrator 17.0.0, SVG Export Plug-In . SVG Version: 6.00 Build 0)  -->
<!DOCTYPE svg PUBLIC "-//W3C//DTD SVG 1.1//EN" "http://www.w3.org/Graphics/SVG/1.1/DTD/svg11.dtd">
<svg version="1.1" id="Layer_1" xmlns="http://www.w3.org/2000/svg" xmlns:xlink="http://www.w3.org/1999/xlink" x="0px" y="0px"
	 width="74px" height="74px" viewBox="0 0 74 74" enable-background="new 0 0 74 74" xml:space="preserve">
<g>
	<ellipse fill="#95D9F1" cx="36.996" cy="37.095" rx="36.852" ry="37.144"/>
	<path fill="#71C9E9" d="M72.015,48.663L51.114,27.596l-0.415-0.416c-1.144-1.118-2.487-2.094-3.964-2.896l-5.541-5.583l0.023-0.025
		h-0.052l-2.382-2.401h-3.576v2.401h-2.435l3.226,3.251c-0.706,0.031-1.401,0.098-2.082,0.197h-0.002
		c-0.163,0.021-0.325,0.052-0.488,0.079c-0.111,0.019-0.226,0.035-0.335,0.056c-0.14,0.025-0.277,0.056-0.413,0.085l-1.536-1.548
		c-0.009-0.01-0.019-0.019-0.023-0.029l-0.128-0.127c-0.017-0.019-0.033-0.039-0.048-0.054c-0.017-0.015-0.034-0.031-0.05-0.046
		l-0.08-0.079c-0.054-0.052-0.113-0.098-0.17-0.148c-0.069-0.06-0.138-0.121-0.209-0.179c-0.092-0.073-0.187-0.141-0.281-0.206
		c-0.063-0.044-0.124-0.091-0.187-0.133c-0.107-0.069-0.216-0.131-0.327-0.195c-0.056-0.031-0.111-0.066-0.168-0.094
		c-0.12-0.064-0.243-0.118-0.363-0.17c-0.054-0.023-0.103-0.048-0.157-0.069c-0.128-0.052-0.258-0.097-0.39-0.137
		c-0.05-0.017-0.098-0.037-0.145-0.05c-0.136-0.04-0.272-0.071-0.407-0.1c-0.048-0.012-0.096-0.025-0.144-0.035
		c-0.142-0.027-0.283-0.044-0.425-0.062c-0.044-0.004-0.09-0.013-0.134-0.019c-0.187-0.017-0.375-0.027-0.561-0.027v5.743
		c-0.35,0.202-0.689,0.416-1.02,0.638c-0.036,0.025-0.073,0.048-0.111,0.073c-0.31,0.212-0.612,0.434-0.907,0.665
		c-0.05,0.037-0.098,0.073-0.145,0.112c-0.285,0.227-0.562,0.463-0.83,0.706c-0.046,0.042-0.092,0.083-0.138,0.125
		c-0.268,0.249-0.524,0.501-0.773,0.764c-0.034,0.037-0.069,0.075-0.103,0.114c-0.254,0.274-0.499,0.553-0.731,0.843
		c-0.015,0.017-0.029,0.037-0.044,0.056c-0.492,0.617-0.93,1.269-1.31,1.944c-0.006,0.013-0.013,0.025-0.019,0.037
		c-0.187,0.336-0.36,0.679-0.518,1.028c-0.006,0.011-0.012,0.021-0.017,0.033h0.002c-0.122,0.272-0.239,0.546-0.342,0.823h-1.11
		h-1.953c-0.381,0-0.765,0.148-1.056,0.442c-0.295,0.291-0.438,0.681-0.438,1.064v6.105c0,0.384,0.143,0.773,0.438,1.065
		l11.127,11.215v0.316c0,0.311,0.096,0.619,0.285,0.881l0.337,0.341l18.929,19.077C58.439,69.862,68.139,60.592,72.015,48.663z"/>
	<g>
		<g>
			<ellipse fill="#FFFFFF" cx="36.995" cy="37.095" rx="18.09" ry="15.196"/>
			<path fill="#FFFFFF" d="M20.001,41.654H16.67c-0.381,0-0.763-0.147-1.056-0.44c-0.291-0.295-0.436-0.681-0.436-1.065v-6.109
				c0-0.384,0.145-0.77,0.436-1.065c0.293-0.293,0.675-0.44,1.056-0.44h3.331V41.654z"/>
			<path fill="#343C44" d="M28.402,33.221c-0.415,0-0.754-0.341-0.754-0.76c0-0.503-0.406-0.912-0.903-0.912
				c-0.499,0-0.905,0.409-0.905,0.912c0,0.418-0.339,0.76-0.754,0.76s-0.754-0.341-0.754-0.76c0-1.34,1.081-2.432,2.412-2.432
				c1.33,0,2.411,1.092,2.411,2.432C29.156,32.88,28.819,33.221,28.402,33.221z"/>
			<path fill="#FFFFFF" d="M26.745,26.015h5.935v-1.197c0-1.533-0.578-3.064-1.737-4.233c-1.159-1.169-2.68-1.751-4.198-1.751l0,0
				V26.015z"/>
			<path fill="#FFFFFF" d="M57.498,37.095c0-0.409-0.155-0.817-0.463-1.13c-0.31-0.311-0.714-0.467-1.121-0.467h-1.129v3.193h1.129
				c0.408,0,0.811-0.158,1.121-0.469C57.343,37.911,57.498,37.504,57.498,37.095L57.498,37.095z"/>
			<path fill="#FFFFFF" d="M32.68,49.313h-5.935v3.432c0,0.386,0.145,0.771,0.436,1.065c0.291,0.295,0.673,0.442,1.056,0.442h2.95
				c0.383,0,0.765-0.147,1.056-0.442c0.291-0.293,0.436-0.679,0.436-1.065V49.313z"/>
			<path fill="#FFFFFF" d="M47.247,49.313h-5.938v3.432c0,0.386,0.147,0.771,0.438,1.065c0.293,0.295,0.674,0.442,1.056,0.442h2.95
				c0.383,0,0.765-0.147,1.056-0.442c0.293-0.293,0.438-0.679,0.438-1.065V49.313z"/>
			<path fill="#D9D8D7" d="M31.729,26.148c-0.325,0-0.626-0.214-0.721-0.546c-0.119-0.403,0.111-0.825,0.509-0.943
				c3.513-1.039,7.443-1.039,10.957,0c0.4,0.118,0.629,0.54,0.511,0.943c-0.117,0.403-0.538,0.632-0.936,0.515
				c-3.239-0.958-6.87-0.958-10.108,0C31.873,26.138,31.8,26.148,31.729,26.148z"/>
		</g>
		<polygon fill="#343C44" points="38.783,18.675 38.783,16.273 35.209,16.273 35.209,18.675 32.776,18.675 36.996,22.929 
			41.217,18.675 		"/>
		<g>
			<path fill="#D9D8D7" d="M42.122,37.095c0,2.858-2.294,5.168-5.125,5.168s-5.127-2.31-5.127-5.168
				c0-2.854,2.296-5.168,5.127-5.168S42.122,34.241,42.122,37.095z"/>
			<g>
				<path fill="#FFFFFF" d="M37.536,37.575h-1.081c-0.461,0-0.897-0.181-1.226-0.511c-0.329-0.335-0.509-0.775-0.509-1.238
					c0-0.467,0.18-0.904,0.505-1.234c0.331-0.334,0.767-0.517,1.23-0.517h2.34v0.96h-2.34c-0.209,0-0.408,0.081-0.557,0.231
					c-0.145,0.15-0.228,0.347-0.228,0.559c0,0.21,0.082,0.409,0.231,0.561c0.145,0.147,0.344,0.23,0.553,0.23h1.081V37.575z"/>
				<path fill="#FFFFFF" d="M37.536,40.115h-2.34v-0.96h2.34c0.209,0,0.406-0.081,0.555-0.231c0.147-0.15,0.23-0.347,0.23-0.557
					c0-0.21-0.082-0.411-0.232-0.561c-0.147-0.147-0.344-0.229-0.553-0.229h-1.081v-0.958h1.081c0.459,0,0.895,0.181,1.224,0.509
					c0.331,0.335,0.511,0.775,0.511,1.24c0,0.465-0.18,0.904-0.507,1.236C38.435,39.932,37.999,40.115,37.536,40.115z"/>
				<rect x="36.52" y="33.828" fill="#FFFFFF" width="0.951" height="6.533"/>
			</g>
		</g>
	</g>
</g>
</svg>
