<?xml version="1.0" encoding="utf-8"?>
<!-- Generator: Adobe Illustrator 17.0.0, SVG Export Plug-In . SVG Version: 6.00 Build 0)  -->
<!DOCTYPE svg PUBLIC "-//W3C//DTD SVG 1.1//EN" "http://www.w3.org/Graphics/SVG/1.1/DTD/svg11.dtd">
<svg version="1.1" id="Layer_1" xmlns="http://www.w3.org/2000/svg" xmlns:xlink="http://www.w3.org/1999/xlink" x="0px" y="0px"
	 width="74px" height="74px" viewBox="0 0 74 74" enable-background="new 0 0 74 74" xml:space="preserve">
<g>
	<ellipse fill="#4A5158" cx="36.987" cy="37.132" rx="36.853" ry="36.979"/>
	<path fill="#343C44" d="M73.839,45.444L52.388,23.923c-0.052-0.056-0.109-0.113-0.166-0.171l-0.342-0.344
		c-0.055-0.058-0.119-0.115-0.176-0.173c-3.627-3.467-8.539-5.596-13.945-5.596c-11.152,0-20.211,9.07-20.211,20.277
		c0,5.383,2.093,10.268,5.508,13.895c0.023,0.029,0.052,0.058,0.08,0.084l0.685,0.687c0.023,0.025,0.048,0.044,0.071,0.067
		l21.387,21.46C59.599,71.131,70.874,59.813,73.839,45.444z"/>
	<g>
		<g>
			<path fill="#F4836B" d="M36.986,52.161c-8.273,0-14.978-6.726-14.978-15.029c0-8.301,6.706-15.029,14.978-15.029v-5.237
				c-11.148,0-20.209,9.068-20.209,20.276c0,11.199,9.061,20.258,20.209,20.258c5.592,0,10.641-2.273,14.27-5.94l-3.683-3.695
				C44.864,50.481,41.12,52.161,36.986,52.161z"/>
			<path fill="#95D9F1" d="M51.966,37.142c-0.004,4.15-1.682,7.905-4.393,10.623l3.683,3.695c3.631-3.657,5.94-8.723,5.94-14.319
				H51.966z"/>
			<path fill="#FFFFFF" d="M51.966,37.132c0,0.004,0,0.008,0,0.01h5.231c0-11.207-9.046-20.276-20.211-20.276v5.237
				C45.258,22.103,51.966,28.831,51.966,37.132z"/>
		</g>
		<g>
			<ellipse fill="#FFFFFF" cx="36.987" cy="37.132" rx="11.413" ry="11.451"/>
			<g>
				<path fill="#95D9F1" d="M44.457,37.132c0,4.141-3.346,7.496-7.469,7.496c-4.125,0-7.471-3.356-7.471-7.496
					c0-4.137,3.346-7.494,7.471-7.494C41.11,29.638,44.457,32.995,44.457,37.132z"/>
				<path fill="#343C44" d="M40.517,37.132c0,1.958-1.582,3.546-3.53,3.546c-1.953,0-3.534-1.588-3.534-3.546
					c0-1.956,1.58-3.544,3.534-3.544C38.935,33.588,40.517,35.176,40.517,37.132z"/>
				<path fill="#FFFFFF" d="M36.259,34.627c0,0.981-0.794,1.772-1.766,1.772c-0.982,0-1.772-0.791-1.772-1.772
					c0-0.979,0.79-1.772,1.772-1.772C35.465,32.855,36.259,33.648,36.259,34.627z"/>
			</g>
		</g>
	</g>
</g>
</svg>
