<?xml version="1.0" encoding="utf-8"?>
<!-- Generator: Adobe Illustrator 17.0.0, SVG Export Plug-In . SVG Version: 6.00 Build 0)  -->
<!DOCTYPE svg PUBLIC "-//W3C//DTD SVG 1.1//EN" "http://www.w3.org/Graphics/SVG/1.1/DTD/svg11.dtd">
<svg version="1.1" id="Layer_1" xmlns="http://www.w3.org/2000/svg" xmlns:xlink="http://www.w3.org/1999/xlink" x="0px" y="0px"
	 width="74px" height="74px" viewBox="0 0 74 74" enable-background="new 0 0 74 74" xml:space="preserve">
<g>
	<ellipse fill="#FECE67" cx="37.114" cy="37.074" rx="36.978" ry="36.852"/>
	<path fill="#F5B541" d="M72.984,46.034L51.737,24.859c-0.004-0.01-0.01-0.015-0.019-0.025l-2.348-2.34
		c-0.008-0.004-0.014-0.008-0.019-0.019c-0.109-0.084-0.219-0.176-0.328-0.26c-0.086-0.067-0.167-0.134-0.253-0.199
		c-0.067-0.053-0.129-0.101-0.194-0.149c-0.012-0.004-0.025-0.013-0.035-0.023c-0.019-0.015-0.033-0.023-0.052-0.038
		c-0.086-0.067-0.173-0.128-0.259-0.189c-0.052-0.038-0.1-0.073-0.152-0.105c-0.006-0.004-0.01-0.01-0.019-0.015
		c-0.132-0.1-0.273-0.189-0.411-0.283c-0.004,0-0.004,0-0.004,0c-0.038-0.025-0.077-0.05-0.109-0.073
		c-0.063-0.042-0.125-0.08-0.186-0.119c-0.092-0.057-0.186-0.115-0.278-0.172c-0.017-0.013-0.036-0.023-0.061-0.042
		c-0.196-0.119-0.392-0.228-0.587-0.337c-0.056-0.034-0.109-0.061-0.165-0.092c-0.15-0.08-0.302-0.161-0.455-0.241
		c-0.004,0-0.01-0.006-0.013-0.006c-0.077-0.044-0.154-0.08-0.228-0.119c-0.006,0-0.006,0-0.01-0.006
		c-0.349-0.17-0.706-0.333-1.063-0.478c-0.225-0.096-0.449-0.182-0.674-0.268c-2.085-0.779-4.342-1.207-6.7-1.207
		c-3.187,0-6.193,0.781-8.836,2.16c-0.223,0.119-0.443,0.237-0.662,0.36c-0.167,0.1-0.334,0.201-0.501,0.3
		c-4.799,2.944-8.188,7.951-8.932,13.781H13.97v-0.006h-0.378c-0.62,0-1.24,0.239-1.716,0.714c-0.263,0.262-0.455,0.57-0.568,0.903
		c-0.096,0.262-0.144,0.532-0.144,0.809c0,0.622,0.238,1.236,0.712,1.712l11.144,11.108c0.01,0.013,0.019,0.023,0.035,0.033
		l1.14,1.136c0.004,0.009,0.014,0.019,0.023,0.023l21.825,21.751C59.268,69.569,69.682,59.208,72.984,46.034z"/>
	<g>
		<g>
			<path fill="#4A5158" d="M56.199,37.073c0,10.503-8.543,19.017-19.087,19.017c-10.539,0-19.082-8.514-19.082-19.017
				c0-10.507,8.543-19.019,19.082-19.019C47.656,18.053,56.199,26.565,56.199,37.073z"/>
			<path fill="#343C44" d="M43.813,19.263c3.482,3.168,5.667,7.729,5.667,12.799c0,9.572-7.786,17.334-17.398,17.334
				c-5.085,0-9.66-2.177-12.839-5.646c2.713,7.209,9.689,12.34,17.868,12.34c10.545,0,19.087-8.514,19.087-19.017
				C56.199,28.918,51.05,21.966,43.813,19.263z"/>
			<path fill-rule="evenodd" clip-rule="evenodd" fill="#FFFFFF" d="M32.646,52.971c0.077,0.015,0.284-0.055,0.342-0.071
				c-0.14-0.115-0.449-0.126-0.628-0.235c0.015,0.006-0.574-0.35-0.449-0.057c0.033,0.073,0.142,0.006,0.194,0.042
				c-0.071,0.107-0.102,0.073-0.025,0.122c0-0.004-0.653-0.356,0.002-0.379c-0.453-0.406,0.031-0.279-0.113-0.536
				c-0.098-0.176,0.386-0.342,0.125-0.494c-0.123-0.073-0.259-0.061-0.388-0.149c-0.18-0.128-0.01-0.358,0.159-0.335
				c0.015,0,0.104-0.409,0.136-0.474c-0.05-0.021-0.386-0.438-0.305-0.526c0.1-0.103,0.538,0.272,0.645-0.006
				c0.044-0.099-0.152-0.369-0.136-0.48c0.2-0.019,1.501,0.031,1.279-0.566c-0.077-0.205-0.624-0.513-0.566-0.685
				c0.19,0.031,0.507,0.304,0.708,0.193c0.169-0.086,0.303,0.098,0.478-0.096c0.031-0.036,0.321-0.346,0.236-0.404
				c-0.088-0.002-0.136,0.048-0.144,0.151c-0.104-0.139,0.075-0.237,0.167-0.337c0.025,0.029,0.046,0.059,0.067,0.086
				c0.108-0.161,0.71-0.943,0.729-0.962c0.309-0.354,0.058-0.834,0.361-1.119c0.278-0.262,0.582-0.434,0.929-0.57
				c0.108-0.044,0.491-0.247,0.57-0.222c0.639,0.195,0.561-0.566,0.97-0.911c0.411-0.342,0.108-2.106,0.443-2.237
				c0.184-0.071,0.728-0.739,1.008-1.043c0.274-0.291,0.309-0.669,0.201-1.041c-0.161-0.57-0.324-0.249-0.737-0.494
				c-0.33-0.199-0.583-0.589-0.994-0.647c-0.24-0.034-0.491,0.038-0.728-0.031c-0.102-0.031-0.378-0.199-0.48-0.057
				c0.017-0.023-0.221,0.088-0.203,0.094c-0.025-0.013-0.006-0.31-0.085-0.385c-0.125-0.117-0.551-0.237-0.705-0.275
				c-0.355-0.092-0.443,0.327-0.534-0.172c-0.295-0.08-0.585-0.421-0.535-0.505c0.029-0.036-0.455-1.052-0.522-0.957
				c-0.006-0.342-1.067-0.765-1.338-0.605c-0.242,0.176-0.687-0.157-0.837-0.318c-0.167-0.18-0.163-0.373-0.445-0.49
				c-0.121-0.053-0.327-0.025-0.28-0.232c0.048-0.218-0.522-0.262-0.576-0.474c0.081,0.015,0.148-0.025,0.225-0.044
				c-0.223,0.076-0.493-0.086-0.712,0.094c-0.319,0.264-0.507-0.124-0.856-0.057c-0.443,0.086-0.144-0.076-0.424-0.247
				c0.115,0.071-0.516-0.287-0.369-0.274c-0.132-0.015,0.019,0.216-0.129,0.268c-0.228,0.086-0.428,0.136-0.278,0.415
				c0.253,0.501-0.53,0.264-0.163-0.076c0.067-0.061,0.086-0.716,0.159-0.695c-0.092-0.031-0.808,0.432-0.891,0.53
				c-0.228-0.365-0.618,0.909-0.747,0.918c-0.065-0.314-0.365-0.442-0.624-0.534c-0.224-0.086-0.447,0.444-0.735,0.153
				c-0.518-0.522-0.292-1.36-0.029-1.955c0.109-0.274-0.954-0.358-1.083-0.247c-0.261,0.21,0.04-0.436,0.038-0.417
				c0.029-0.26,0.088-0.432,0.203-0.429c0.069-0.155,0.465-0.861,0.424-0.947c-0.159-0.369-0.831,0.287-0.894,0.454
				c-0.067,0.161-0.196,0.249-0.257,0.394c-0.065,0.147-0.188-0.031-0.296,0.027c-0.288,0.163-0.703,0.079-0.639-0.34
				c0.065-0.503-0.127-1.5,0.442-1.844c0.173-0.107,0.202-0.61,0.401-0.788c0.025-0.021,0.599-0.352,0.543-0.419
				c0.085,0.088,0.535-0.09,0.591,0.025c0.046,0.096,0.311,0.199,0.405,0.143c-0.004,0.014,0.044-0.222,0.044-0.222
				c-0.006-0.006-0.182-0.029-0.177-0.086c0.021-0.077,0.561-0.023,0.578-0.023c0.255,0.019,0.443,0.23,0.634,0.101
				c0.294-0.199,0.113,1.11,0.232,1.228c0.063,0.071,0.015,0.228,0.14,0.214c0.167-0.017,0.221-1.695,0.655-2.045
				c0.317-0.254,0.662-0.482,1.014-0.673c0.111-0.055,0.401-0.195,0.463-0.306c-0.013-0.052-0.067-0.119-0.127-0.061
				c-0.017-0.103,0.155-0.038,0.188-0.147c0.033-0.107-0.09-0.144-0.077-0.182c-0.004,0.012,0.109-0.218,0.071-0.187
				c0.006,0.008,0.006,0.017,0.008,0.023c0.175,0.029-0.038-0.161-0.048-0.191c0.23,0.119,0.134-0.249,0.359-0.268
				c-0.161,0.065-0.131,0.245-0.109,0.354c0.046,0.239,0.259-0.331,0.234-0.31c0.213-0.086,0.547-0.266,0.775-0.427
				c-0.054-0.021-0.109,0.019-0.175-0.027c0.236-0.084,0.499-0.056,0.724-0.172c-0.01-0.235,0.132-0.484,0.399-0.528
				c0.407-0.065,0.883-0.314,1.292-0.451c-0.062,0.138,0.033,0.031,0.144,0.084c-0.132-0.344-0.856,0.635-0.512,0.436
				c0.292-0.167,1.269-0.32,1.403-0.601c-0.004-0.015-0.065-0.201-0.063-0.201c-0.242,0-0.261,0.297-0.559,0.295
				c-0.539-0.006-0.215-0.337-0.326-0.486c-0.096,0.023-0.177-0.004-0.242-0.079c0.054-0.011,0.72-0.165,0.367-0.243
				c-0.57-0.12-0.95,0.513-1.421,0.495c0.351-0.212,0.829-0.668,1.254-0.723c0.455-0.065,1.085,0.157,1.484-0.122
				c0.355-0.245,0.599-0.065,0.799-0.465c0.061-0.109-0.259-0.245-0.344-0.264c0.038-0.04,0.109,0,0.134-0.067
				c-0.534-0.237-0.645-0.474-0.71-1.09c-0.273,0.199-1.184,0.62-0.697-0.067c-0.175-0.075-0.729-0.536-0.943-0.218
				c-0.098,0.143-0.253,0.385-0.419,0.457c-0.361,0.165-0.038,0.132-0.159,0.375c-0.205,0.398-0.701,0.344-0.937,0.693
				c-0.148,0.22-0.194,0.375-0.424,0.478c-0.2,0.088-0.276-0.149-0.178-0.337c0.071,0.078,0.136,0.092,0.194,0.031
				c0.015-0.084-0.106-0.042-0.144-0.077c0.069-0.122,0.157-0.237,0.257-0.34c-0.035-0.019-0.545-0.1-0.528-0.233
				c0.034-0.279-0.319-0.126-0.38-0.211c0.274-0.344,0.274-0.505,0.81-0.773c0.184-0.092,1.217-0.616,1.407-0.486
				c-0.025,0.119-0.152,0.096-0.221,0.155c0.15,0.038,0.58,0.084,0.726-0.017c-0.031-0.029-0.204-0.314-0.115-0.383
				c-0.014,0.015,0.296,0.008,0.319,0c0.165-0.04,0.347-0.061,0.442-0.228c0.083-0.147,0.628-0.341,0.756-0.266
				c0.712,0.4-0.966,0.827-0.983,0.782c0.034,0.117,0.486-0.082,0.601,0.228c0.027,0.077,0.543,0.241,0.593,0.168
				c0.031-0.034-0.148-0.222-0.154-0.268c0.539,0.26,0.509,0.126,0.42-0.235c-0.086-0.344,0.317,0.025,0.338,0.033
				c0.09,0.048,0.455-0.161,0.509-0.237c-0.131-0.101-0.359-0.098-0.472-0.222c-0.109-0.105,0.28-0.13,0.146-0.243
				c-0.165-0.136-0.424-0.101-0.332-0.361c-0.094-0.027-0.186-0.015-0.269,0.034c0.025,0.048,0.081,0.011,0.1,0.036
				c-0.09,0.055-0.19,0.063-0.292,0.061c0.031-0.046,0.125-0.046,0.127-0.134c-0.28-0.033-0.428,0.134-0.672,0.208
				c0.067-0.099,0.186-0.132,0.271-0.206c-0.267,0.034-0.522,0.134-0.729,0.306c0.031,0.031,0.062,0.059,0.081,0.098
				c-0.203,0.18-0.474,0.235-0.714,0.346c0.042-0.161,0.215-0.124,0.271-0.243c-0.088,0.002-0.175,0.021-0.249,0.059
				c0.1-0.015,0.401-0.314,0.468-0.39c-0.434-0.05-0.616,0.511-1.027,0.432c0.086-0.1,0.259-0.048,0.317-0.205
				c-0.15,0.017-0.726,0.407-0.82,0.205c-0.006-0.013,1.052-0.432,1.163-0.583c-0.073-0.008-0.152,0.065-0.217-0.019
				c0.052-0.057,0.136-0.061,0.198-0.124c-0.348-0.004-1.376,0.413-1.3,0.654c-0.132,0.107-0.278,0.138-0.44,0.069
				c0.063-0.1,0.29-0.101,0.108-0.245c-0.334,0.122-0.657,0.256-0.981,0.398c-0.743,0.329-1.473,0.715-2.164,1.144
				c-1.14,0.702-2.085,1.534-3.027,2.476c-0.501,0.507-2.407,2.724-2.4,3.187c0.006,0.34-0.198,0.647-0.326,0.953
				c-0.104,0.253-0.115,0.603-0.24,0.834c-0.277,0.494-0.15,1.062-0.277,1.63c0.157-0.12,0.482-2.709,0.762-2.613
				c0.054,0.019-0.175,1.077-0.232,1.209c-0.236,0.543,0.075,1.205-0.081,1.774c-0.017,0.055-0.094,0.342-0.096,0.4
				c-0.263,0.201,0.069,0.501,0.065,0.723c0,0.13,0.67,0.715,0.799,0.792c0.282,0.168,0.338-0.13,0.595-0.077
				c0.23,0.048,0.296,0.463,0.419,0.641c0.165,0.245,0.791,0.218,0.898,0.335c0.071,0.088,0.012,0.564,0.298,0.631
				c-0.004-0.034-0.01-0.203,0.029-0.226c0.088-0.054,0.273,0.264,0.211,0.323c-0.09,0.019-0.173-0.011-0.24-0.098
				c0,0.042-0.048,0.666,0.136,0.543c0.004-0.034,0.014-0.077,0.019-0.113c0.238,0.1,0.219,0.452,0.388,0.499
				c0.234,0.065,0.409,0.356,0.583,0.44c0.159,0.079,0.115-0.549,0.415-0.58c0.24-0.021,0.376,0.607,0.457,0.756
				c0.127,0.222-0.167,0.75-0.004,0.92c0.167,0.174-0.413,0.591-0.442,0.767c-0.019,0.138-0.315,0.262-0.303,0.314
				c0.023,0.145-0.065,0.344-0.117,0.486c-0.148,0.39-0.075,0.425,0.178,0.605c0.008,0.004-0.47,0.953-0.196,1.194
				c0.436,0.358,1.008,1.232,1.146,1.785c0.286,0.76,0.718,1.222,1.444,1.597c0.591,0.31,1.006,0.838,1.006,1.546
				c0.021,0.415-0.039,0.937,0.138,1.326c0.123,0.273-0.111,0.719,0.065,0.97c0.113,0.153-0.037,0.237,0.031,0.383
				c0.071,0.153,0.23,0.409,0.227,0.587c-0.004,0.298,0,0.65,0.021,0.947c0.006,0.1-0.09,0.272-0.038,0.335
				c0.069,0.08,0.472,1.069,0.472,1.36c-0.004,0.069,0.307-0.023,0.027-0.3c0.334-0.186,0.267,0.593,0.29,0.599
				c-0.299-0.1-0.106-0.021-0.083,0.365c0.016,0.224-0.059,0.117,0.127,0.159c0.294,0.065,0,0.264,0.111,0.421
				c0.221,0.32,0.561,0.612,0.795,0.859C31.544,52.941,32.195,52.878,32.646,52.971C32.711,52.983,32.563,52.956,32.646,52.971z
				 M33.89,21.97c-0.106,0.096-0.219,0.111-0.338,0.147C33.635,21.991,33.763,22.01,33.89,21.97z M32.898,21.886
				c0.077-0.012,0.138,0.01,0.178,0.065c0.002,0.031-0.405,0.048-0.468,0.153C32.662,21.924,32.809,21.955,32.898,21.886
				C32.938,21.939,32.809,21.955,32.898,21.886z M31.897,22.59C31.984,22.611,31.773,22.57,31.897,22.59
				C31.901,22.59,31.874,22.586,31.897,22.59z M31.35,21.547c0.034-0.04,0.065-0.034,0.084,0.021
				C31.394,21.61,31.367,21.604,31.35,21.547C31.352,21.524,31.344,21.572,31.35,21.547z M30.801,23.173
				C30.65,23.164,30.964,23.179,30.801,23.173C30.78,23.173,30.826,23.175,30.801,23.173z M30.964,22.542
				c-0.53,0.495-0.117,0.006-0.273,0.161c0.004,0.006,0,0.015-0.008,0.017C30.642,22.67,30.953,22.548,30.964,22.542
				C30.897,22.607,30.872,22.559,30.964,22.542z M30.77,21.956c-0.098,0.111-0.098,0.111-0.23,0.086
				C30.609,21.995,30.703,22.012,30.77,21.956z M33.141,20.087c-0.035,0.004-0.069,0.004-0.123,0.004
				C33.187,19.949,33.159,20.087,33.141,20.087C33.107,20.091,33.166,20.087,33.141,20.087z M33.525,19.835
				c-0.058,0.067-0.142,0.027-0.215,0.059C33.387,19.747,33.4,19.745,33.525,19.835z M31.373,20.011
				c0.044-0.042,0.1-0.061,0.159-0.057C31.583,20.03,31.208,20.072,31.373,20.011C31.394,19.971,31.354,20.016,31.373,20.011z
				 M31.279,19.902c0.06,0.029,0.054,0.055-0.017,0.086C31.21,19.957,31.218,19.93,31.279,19.902
				C31.3,19.902,31.249,19.904,31.279,19.902z M28.496,24.633c0.006-0.004-0.833,0.333-0.768,0.126
				c-0.023,0.065,0.286-0.237,0.221-0.207c0.069-0.031,0.63-0.065,0.793-0.063C28.657,24.576,28.576,24.604,28.496,24.633
				C28.31,24.702,28.576,24.604,28.496,24.633z M29.164,24.222c0.691,0.067-0.411,0.273-0.528,0.153
				C28.791,24.239,28.976,24.2,29.164,24.222C29.219,24.227,28.976,24.2,29.164,24.222z M29.052,19.94
				c0.182-0.119,0.38-0.205,0.622-0.26c-0.177,0.144-0.413,0.205-0.63,0.266L29.052,19.94z M29.089,23.661
				c-0.031,0.031-0.062,0.029-0.09-0.002C29.043,23.644,29.083,23.63,29.089,23.661C29.102,23.69,29.083,23.63,29.089,23.661z
				 M28.886,24.072C28.872,24.072,28.816,24.059,28.886,24.072C28.891,24.072,28.864,24.067,28.886,24.072z M28.682,23.722
				c0.25,0.115,0.108,0.503-0.108,0.203c-0.008,0.178-0.322,0.482-0.491,0.52c0.065-0.071,0.086-0.151,0.065-0.237
				c-0.054-0.042-0.159,0.08-0.217,0.076c0.023,0.111,0.451-0.729,0.092-0.486c-0.131,0.099-0.994,1.014-1.044,0.964
				c-0.081-0.081,0.384-0.756,0.417-0.781C27.691,23.74,28.31,23.546,28.682,23.722z M28.202,20.521
				c0.035-0.021,0.313-0.189,0.348-0.149c0.088,0.109-0.447,0.247-0.472,0.249C28.11,20.554,28.162,20.546,28.202,20.521
				C28.3,20.466,28.162,20.546,28.202,20.521z M28.26,22.766c0,0.015-0.109,0.224-0.177,0.142
				C28.029,22.85,28.242,22.67,28.26,22.766C28.252,22.821,28.256,22.741,28.26,22.766z M27.653,21.034
				c0.033,0,0.48-0.281,0.495-0.166C28.154,20.902,27.603,21.042,27.653,21.034z M27.53,21.493
				c-0.027,0.052-0.054,0.078-0.117,0.077C27.438,21.516,27.476,21.511,27.53,21.493z M27.217,22.57
				c0.063-0.046,0.209-0.281,0.138-0.373c0.039,0.052-0.269-0.033-0.129-0.086c0.058-0.019,0.409-0.21,0.465-0.153
				c0.102,0.107-0.438,0.668-0.545,0.715C27.156,22.617,27.188,22.593,27.217,22.57C27.307,22.505,27.188,22.593,27.217,22.57z
				 M27.524,23.28c0.386-0.124,0.528-0.34,0.758-0.046c0.09,0.109,0.073,0.392-0.134,0.325c0.056,0.021-0.628-0.044-0.501-0.119
				c-0.138,0.084-0.403,0.144-0.564,0.075C27.233,23.432,27.363,23.334,27.524,23.28C27.62,23.25,27.363,23.334,27.524,23.28z
				 M26.987,22.565c0.035,0.092,0.01,0.138-0.098,0.155C26.931,22.657,26.96,22.609,26.987,22.565z M21.508,30.866
				C21.332,30.861,21.644,30.861,21.508,30.866C21.487,30.866,21.525,30.866,21.508,30.866z M23.718,32.448
				C23.67,32.466,23.856,32.416,23.718,32.448C23.71,32.45,23.743,32.446,23.718,32.448z M29.114,34.226
				C29.022,34.212,29.221,34.235,29.114,34.226C29.106,34.226,29.129,34.228,29.114,34.226z M29.997,49.989
				C29.845,49.962,30.08,49.868,29.997,49.989C29.962,49.983,30.001,49.983,29.997,49.989z M30.389,42.102
				C30.335,42.047,30.425,42.133,30.389,42.102C30.385,42.097,30.402,42.112,30.389,42.102z M30.452,47.017
				C30.354,47.05,30.557,46.979,30.452,47.017C30.427,47.023,30.465,47.01,30.452,47.017z M30.972,52.309
				c-0.069-0.038-0.069-0.065-0.004-0.077C31.045,52.264,31.047,52.29,30.972,52.309C30.943,52.306,30.997,52.315,30.972,52.309z
				 M31.659,52.608c-0.071-0.011-0.065-0.042,0.021-0.082C31.742,52.552,31.734,52.579,31.659,52.608
				C31.629,52.608,31.679,52.602,31.659,52.608z M30.202,50.655c-0.008,0.004-0.017,0.006-0.025,0.008
				C30.2,50.645,30.206,50.641,30.202,50.655z M31.911,18.999h-0.002v-0.002L31.911,18.999z M25.428,22.062l-0.002,0.004
				L25.428,22.062z M25.609,21.912L25.609,21.912L25.609,21.912z M55.886,33.663h0.002c-0.373-1.368-0.651-2.722-1.223-4.052
				c-0.676-1.577-1.563-3.063-2.638-4.402c-1.014-1.265-2.188-2.397-3.488-3.365c-0.632-0.474-1.29-0.903-1.979-1.293
				c-0.327-0.187-0.66-0.367-1-0.536c-0.148-0.069-0.67-0.205-0.747-0.331c0.004,0.059,0.303,0.208,0.344,0.247
				c-0.201-0.052-0.737-0.277-0.743-0.31c0.011-0.025,0.056,0,0.048-0.042c-0.3-0.191-1.426-0.605-1.653-0.299
				c0.05-0.059,0.777,0.779,0.797,0.928c0.048,0.327,0.561,0.673,0.887,0.779c0.455,0.153,0.113-0.052,0.303-0.157
				c0.127-0.061,0.24,0.207,0.357,0.146c-0.004-0.002,0-0.006,0.004-0.008c-0.033-0.063-0.069-0.124-0.106-0.187
				c-0.033,0,0.825,0.882,0.933,0.689c-0.104-0.237-0.255-0.509-0.499-0.733c-0.215-0.201-0.555-0.22-0.787-0.423
				c-0.117-0.1-0.553-0.419-0.601-0.564c0.578,0.019,1.24,1.232,1.816,0.763c-0.079-0.055-0.157-0.115-0.232-0.178
				c0.108,0.031,0.587,0.186,0.426,0.387c-0.461-0.08,0.388,0.385,0.403,0.438c-0.085-0.008-0.142-0.073-0.221-0.08
				c0.034,0.161,0.488,0.323,0.52,0.595c-0.273,0.044-0.154-0.163-0.334,0.057c-0.058,0.071-0.301,0.048-0.434,0.059
				c-0.317,0.023-0.67-0.509-0.898-0.674c0.096,0.299,0.261,0.44,0.595,0.651c0.161,0.092-0.226,0.132-0.221,0.266
				c0.01,0,0.106,0.048,0.102,0.073c0,0.017-0.088-0.059-0.102-0.073c0.031-0.021-0.056,0.524-0.063,0.515
				c0.261,0.302-0.348,0.214-0.359,0.224c0.048,0.069,0.144,0.105,0.163,0.203c-0.173,0.01-0.319-0.017-0.488,0.048
				c0.248,0.071,1.616,0.7,1.317,1.178c-0.096,0.153-1.021-0.04-1.194-0.046c-0.359-0.025-0.023,0.34-0.015,0.383
				c0.058,0.272,0.269,0.39,0.249,0.708c-0.017,0.224,0.215,0.232,0.284,0.421c0.063,0.165,0.027,0.18,0.198,0.203
				c0.305,0.038,0.313-0.008,0.572,0.191c0.182,0.141,0.253-0.132,0.47-0.142c0.543-0.023,0.081-0.132,0.34-0.205
				c0.321-0.09-0.09-0.591-0.071-0.689c0.025-0.132-0.019-0.279,0.157-0.329c0.275-0.073-0.073-0.358-0.092-0.432
				c-0.054-0.226,0.758,0.191,0.66-0.381c0.468,0.147,0.948,0.57,1.38,0.811c0.254,0.151,0.505,0.298,0.693,0.538
				c0.221,0.285-0.317,0.17-0.353,0.251c-0.031,0.092,0.476,0.32,0.557,0.314c0.012-0.05-0.061-0.34-0.069-0.39
				c-0.023-0.203-0.317-0.402-0.295-0.562c0.092,0.008,0.177,0.046,0.249,0.103c-0.273-0.337-0.716-0.369-1.027-0.616
				c-0.188-0.155-0.424-0.278-0.608-0.436c0,0-0.33-0.421-0.1-0.34c0.365,0.126,0.76,0.494,1.133,0.687
				c0.296,0.155,0.369,0.249,0.585,0.501c0.086,0.1,0.539,0.626,0.641,0.641c-0.004-0.004,0.371,0.331,0.52,0.381
				c-0.067-0.151-0.125-0.344-0.201-0.465c-0.104-0.165-0.528-0.26-0.528-0.505c0.096,0.008,0.108-0.092,0.313-0.086
				c-0.108-0.004,0.134-0.161,0.121-0.138c-0.397-0.224-0.929-0.884-1.073-1.33c0.109,0.006,0.167,0.149,0.288,0.077
				c-0.04-0.077-0.05-0.155-0.04-0.237c0.031,0.034,0.405,0.356,0.33,0.419c-0.106-0.004-0.192-0.048-0.269-0.13
				c0.054,0.187,0.242,0.191,0.319,0.321c0.008-0.052-0.027-0.096,0.017-0.153c0.326,0.136,0.994,0.656,1.085,1.02
				c-0.144,0.015-0.419-0.289-0.514-0.214c-0.033,0.073-0.029,0.145,0.013,0.216c-0.044,0.002-0.081,0.013-0.119,0.034
				c0.054,0.04,0.081,0.096,0.09,0.161c-0.054,0.017-0.106,0.033-0.161,0.048c0.042,0.184,1.012,1.102,1.081,1.01
				c0.019-0.034-0.04-0.126-0.025-0.142c0.05-0.057,0.201,0.209,0.284,0.157c0.062-0.042-0.065-0.126,0.004-0.161
				c0.148-0.075,0.728,1.058,0.8,1.19c0.278,0.526,0.094,0.207-0.119,0.279c-0.031,0.053-0.054,0.111-0.059,0.172
				c-0.336-0.077-0.708-0.272-0.983-0.467c-0.438-0.316,0.14,0.855-0.111,0.708c-0.15-0.084-0.238-0.208-0.422-0.224
				c-0.265-0.025-0.34-0.31-0.586-0.392c-0.2-0.067-0.989-0.138-0.887-0.497c0.083-0.31-0.313-0.564-0.447-0.683
				c-0.065-0.059-0.944,0.054-1.085,0.096c-0.242,0.078-0.622,0.157-0.758,0.381c-0.232,0.417-0.766-0.132-0.981-0.046
				c-0.113,0.046-0.004,0.39-0.063,0.497c-0.086,0.166-0.301,0.176-0.355,0.371c-0.094,0.356,0.178,0.651,0.054,0.978
				c-0.1,0.26-0.603,0.373-0.611,0.588c-0.004,0.115-0.027,0.241-0.132,0.302c-0.23,0.132,0.004,0.433-0.138,0.584
				c-0.777,0.788,0.25,1.559,0.075,2.424c-0.102,0.49-0.159,0.589,0.052,1.01c0.05,0.107,0.013,0.867,0.401,0.559
				c0.046,0.444,0.62,0.536,0.722,0.957c0.123,0.501,0.614,0.719,0.996,1.02c0.154,0.117,0.284,0.273,0.461,0.363
				c0.315,0.159,0.524-0.09,0.825-0.17c0.273-0.078,0.555-0.05,0.81,0.069c0.146,0.071,1.24-0.702,1.54-0.555
				c0.217,0.107,0.226,0.371,0.326,0.559c0.146,0.268,0.447-0.08,0.649,0.008c0.357,0.163,0.465,1.469,0.161,1.711
				c-0.228,0.168,0.292,0.88,0.363,1.027c0.205,0.404,0.39,1.11,0.326,1.557c-0.05,0.364,0.048,0.937-0.159,1.259
				c-0.207,0.32-0.328,0.66-0.495,1.023c-0.432,0.932-0.019,1.988-0.39,2.958c-0.225,0.494-0.184,1.024-0.307,1.542
				c-0.081,0.335-0.486,0.817-0.326,1.165c0.242-0.22,0.605-0.189,0.879-0.327c0.566-0.277,0.835-0.926,1.246-1.362
				c0.219-0.228,0.355-0.516,0.486-0.8c0.123-0.268,0.373-0.44,0.489-0.704c0.288-0.662,0.549-1.326,0.837-1.99
				c0.605-1.433,0.705-2.809,0.916-4.347C56.187,36.83,56.193,35.286,55.886,33.663z M54.446,29.885
				c-0.079-0.191-1.092-1.678-0.975-1.758c0.136-0.084,2.307,3.748,2.073,4.343C55.212,31.595,54.816,30.746,54.446,29.885
				C54.442,29.877,54.519,30.061,54.446,29.885z M55.377,36.671c-0.04-0.107,0.015-0.199,0.044-0.325
				C55.467,36.479,55.396,36.569,55.377,36.671z M55.264,37.272c-0.004-0.063-0.006-0.117,0.035-0.163
				C55.329,37.172,55.3,37.218,55.264,37.272z M54.901,42.196c-0.036,0.013-0.077,0.027-0.117,0.04c-0.069,0,0.129-0.096,0.14-0.103
				C54.912,42.169,54.912,42.185,54.901,42.196C54.874,42.236,54.912,42.185,54.901,42.196z M54.956,40.195
				c-0.002-0.18,0.008-0.189,0.19-0.306C55.108,40.017,54.98,40.076,54.956,40.195z M55.164,39.265
				c-0.006-0.333-0.013-0.727,0.058-1.049c0.015,0.564,0.042,1.136,0.023,1.707C55.156,39.801,55.164,39.409,55.164,39.265
				C55.162,39.145,55.164,39.38,55.164,39.265z M55.461,40.331c-0.006,0.304-0.048,1.135-0.25,1.372
				c0.019-0.516,0.209-0.983,0.219-1.494C55.473,40.258,55.461,40.296,55.461,40.331C55.461,40.365,55.461,40.296,55.461,40.331z
				 M55.699,37.222c-0.086,0.364-0.002,0.478-0.219,0.679c0-0.27-0.102-0.788,0.179-0.947
				C55.694,37.042,55.728,37.113,55.699,37.222C55.663,37.371,55.728,37.113,55.699,37.222z M43.721,54.886
				c0.029,0.054-2.398,0.737-2.647,0.79c-1.01,0.21-2.035,0.342-3.068,0.394c-1.96,0.096-4.01-0.084-5.893-0.654
				c0.242,0.027,0.534,0.153,0.781,0.115c-0.236-0.145-0.526-0.096-0.735-0.281c0.785,0.128,1.538,0.069,2.257,0.163
				c-0.077-0.1-0.733-0.256-0.729-0.325c0.094-0.008,0.601-0.025,0.618-0.038c0.24-0.186-0.376-0.163-0.323-0.296
				c0.019-0.034,0.186,0.025,0.248-0.055c0.092-0.124,0-0.188,0.035-0.253c0.027-0.053,0.977-0.218,1.079-0.174
				c-0.111,0.067-0.242-0.012-0.192,0.174c-0.098-0.015-0.392-0.008-0.409,0.122c0.006-0.031,0.323,0.408,0.332,0.427
				c0.109,0.17,0.491,0.275,0.522,0.48c0.063,0.344,1.87,0.312,2.142,0.279c0.674-0.076,1.307-0.318,1.971-0.43
				c0.396-0.071,0.789-0.182,1.19-0.22c0.188-0.019,0.808-0.235,0.95-0.186C41.943,55.239,43.385,54.821,43.721,54.886
				C43.723,54.894,43.665,54.877,43.721,54.886z M54.713,44.387c0.077-0.193,0.14-0.396,0.236-0.586
				C54.887,44.006,54.799,44.196,54.713,44.387z M55.03,43.601c0.008-0.025,0.019-0.052,0.027-0.073
				C55.058,43.558,55.039,43.578,55.03,43.601z M34.157,18.7c-0.102-0.015-0.211-0.004-0.319-0.021
				c0.056-0.05,0.378-0.061,0.236-0.151c0.442-0.268,1.361-0.323,1.868-0.262c0.568,0.069,1.136-0.105,1.695-0.017
				c0.226,0.036,0.424,0.042,0.649,0.055c0.196,0.023-0.029,0.224,0.196,0.258c0.134,0.015,0.397,0.316,0.518,0.251
				c-0.006,0.207-0.1,0.063-0.035,0.256c0.015,0.046,0.249,0.176,0.24,0.193c-0.023,0.029-0.657-0.015-0.628-0.008
				c-0.05-0.008,0.012,0.098,0.052,0.082c0.127,0.033,0.401-0.008,0.539,0.002c-0.321,0.289-0.799,0.254-1.156,0.484
				c-0.217,0.143-0.543,0.13-0.781,0.218c0,0.241-0.184,0.538-0.345,0.788c-0.115,0.174-0.924-0.228-1.004-0.329
				c-0.177-0.21-0.578-0.763-0.144-0.937c0.53-0.207,0.004-0.038-0.152-0.149c0.127-0.178,0.265-0.119,0.468-0.088
				c-0.104-0.144-0.232-0.176-0.384-0.103c-0.052-0.153,0.219-0.289-0.017-0.451c-0.104-0.069-0.662,0.013-0.678-0.084
				c-0.035-0.243,0.68-0.115,0.802-0.314C35.247,18.262,34.675,18.78,34.157,18.7C34.055,18.685,34.251,18.714,34.157,18.7z
				 M44.202,22.328c0.086-0.01-0.107-0.281-0.157-0.337c0.058,0.006,0.109,0.01,0.167-0.025c-0.042-0.122-0.601-0.444-0.637-0.421
				c-0.211,0.132-0.474-0.454-0.501-0.534c0.359-0.048,0.582,0.335,0.906,0.492c0.276,0.134,1.275,0.607,1.302,0.907
				c0.023,0.149-0.752,0.086-0.868,0.264c-0.088-0.22,0.194-0.218,0.188-0.287C44.59,22.337,44.243,22.322,44.202,22.328
				C44.183,22.331,44.324,22.308,44.202,22.328z M34.036,22.607c-0.054,0.038-0.729,0.675-0.712,0.736
				c0.013,0.057,0.701,0.015,0.82,0.084c-0.01,0.077-0.102,0.036-0.117,0.105c0.09,0,0.367-0.174,0.411-0.12
				c0.008,0.042,0,0.086-0.021,0.124c0.305,0.298,0.275-0.35,0.292-0.385c-0.215-0.029,0.046-0.327-0.317-0.201
				c0.025-0.009-0.39-0.122-0.367-0.098c-0.033-0.033,0.292-0.316,0.317-0.352C34.151,22.454,34.126,22.538,34.036,22.607
				C33.921,22.689,34.059,22.586,34.036,22.607z M34.702,23.313C34.729,23.336,34.654,23.336,34.702,23.313
				C34.708,23.317,34.693,23.315,34.702,23.313z M34.548,23.296c0.021-0.023,0.134-0.071,0.063-0.006
				C34.587,23.334,34.487,23.365,34.548,23.296C34.556,23.286,34.535,23.313,34.548,23.296z M34.07,22.521l0.004-0.004
				c0,0.004,0,0.004,0.002,0.01C34.074,22.521,34.074,22.521,34.07,22.521z M33.462,23.129c0.019,0,0.033,0,0.048,0.015
				C33.493,23.145,33.418,23.141,33.462,23.129C33.481,23.129,33.448,23.133,33.462,23.129z M26.839,31.061
				c-0.184,0.021,0.121-0.143,0.096-0.203c-0.127-0.289-0.993-0.352-1.071-0.584c0.037-0.015,0.063-0.04,0.075-0.078
				c-0.296-0.12-0.449,0.241-0.716,0.218c0.557-0.941,1.937,0.134,2.492,0.57C27.423,31.019,27.131,31.023,26.839,31.061
				C26.816,31.065,27,31.042,26.839,31.061z M27.561,31.564c-0.14-0.061,0.457-0.055,0.538-0.088
				c-0.117-0.18-0.012-0.279-0.242-0.35c0.211-0.253,0.904,0.044,1.123,0.138c-0.017,0.034-0.06,0.004-0.081,0.044
				c0.017,0.013,0.474,0.392,0.167,0.264c-0.336-0.143-0.524,0.057-0.762,0.189C28.116,31.496,27.808,31.681,27.561,31.564
				C27.532,31.553,27.616,31.591,27.561,31.564z M43.719,21.943c0.324,0.335-0.179,0.591-0.407,0.377
				c-0.109-0.113-0.044-0.385-0.303-0.463c0.069-0.023,0.138-0.044,0.207-0.067C43.039,21.377,43.636,21.857,43.719,21.943
				C43.79,22.02,43.696,21.916,43.719,21.943z M39.493,19.911c-0.021-0.069,0.466-0.038,0.547-0.054
				c0.129-0.023,1.096,0.073,0.756,0.23c-0.263,0.119-0.649,0.253-0.9,0.025C39.833,20.059,39.495,19.925,39.493,19.911
				C39.48,19.865,39.511,19.976,39.493,19.911z M48.33,24.69c0.111,0,0.388,0.432,0.34,0.501c-0.129,0.207-0.346-0.312-0.48-0.392
				C48.238,24.767,48.286,24.731,48.33,24.69z M33.228,18.832c0.328-0.249,0.405-0.107,0.816-0.065
				C33.913,18.886,33.596,18.91,33.228,18.832C33.318,18.763,33.596,18.91,33.228,18.832z M40.511,18.549
				c-0.244-0.067-0.499-0.077-0.735-0.17c0.284-0.033,0.626,0.076,0.823,0.132C40.666,18.532,40.496,18.543,40.511,18.549
				C40.267,18.482,40.536,18.555,40.511,18.549z M39.776,18.379c-0.023,0.004-0.054,0.006-0.079,0.009
				C39.722,18.362,39.751,18.358,39.776,18.379C39.753,18.382,39.766,18.375,39.776,18.379z M26.914,31.58
				c0.056,0.004,0.083,0.033,0.094,0.082c-0.033,0.138-0.463-0.057-0.511-0.119C26.647,31.459,26.785,31.509,26.914,31.58z
				 M29.989,31.57C29.763,32.123,29.191,31.182,29.989,31.57C29.955,31.649,29.855,31.503,29.989,31.57z M30.874,34.26L30.874,34.26
				c0.008-0.017,0.021-0.023,0.042-0.025C30.903,34.243,30.893,34.249,30.874,34.26z M30.953,34.243
				c-0.01-0.002,0.062-0.228,0.207-0.237C31.331,34.111,31.039,34.253,30.953,34.243C30.941,34.241,31.141,34.264,30.953,34.243z
				 M32.759,18.714c-0.152,0.103-0.334,0.034-0.491,0.092C32.489,18.656,32.587,18.668,32.759,18.714
				C32.608,18.817,32.732,18.706,32.759,18.714z M27.023,29.865c-0.058-0.226-0.144-0.231,0.008-0.428
				C27.091,29.647,27.091,29.776,27.023,29.865C27,29.774,27.091,29.776,27.023,29.865z M22.888,37.731
				c-0.004,0.082-0.044,0.115-0.123,0.086c-0.027-0.025-0.042-0.3,0.008-0.358C22.812,37.551,22.852,37.639,22.888,37.731
				C22.904,37.769,22.852,37.639,22.888,37.731z M32.452,22.856c0.178-0.006,0.323,0.05,0.478,0.167
				C32.721,23.06,32.587,22.98,32.452,22.856z M48.257,24.612l0.002,0.002c-0.052-0.015-0.363-0.203-0.236-0.306
				C48.115,24.245,48.243,24.579,48.257,24.612z M51.459,26.2c-0.06-0.063-0.184-0.019-0.217-0.144
				c0.108,0.055,0.226,0.027,0.33,0.109C51.534,26.194,51.495,26.232,51.459,26.2C51.399,26.137,51.495,26.232,51.459,26.2z
				 M33.03,18.819c-0.031-0.044-0.086-0.014-0.117-0.055c0.088-0.096,0.209-0.063,0.317-0.092
				C33.224,18.685,33.097,18.918,33.03,18.819C32.999,18.775,33.045,18.849,33.03,18.819z M32.494,18.937
				c-0.14,0.105-0.286,0.212-0.484,0.193C32.143,18.993,32.322,18.974,32.494,18.937z M32.446,23.646
				c0.038,0.008,0.079-0.002,0.14-0.008c-0.188,0.228-0.407-0.092-0.361-0.103C32.193,23.542,32.433,23.644,32.446,23.646
				C32.485,23.653,32.372,23.634,32.446,23.646z M32.525,19.029c0.131-0.105,0.284-0.124,0.447-0.111
				C32.832,18.999,32.688,19.043,32.525,19.029z M47.456,25.146c-0.15-0.021,0.282-0.159,0.127,0.042
				C47.537,25.182,47.495,25.169,47.456,25.146C47.433,25.142,47.506,25.149,47.456,25.146z M52.223,26.231
				c-0.09-0.044-0.125-0.103-0.1-0.209C52.2,26.076,52.231,26.137,52.223,26.231z M32.851,19.718
				c0.054-0.096,0.113-0.121,0.302-0.119C33.059,19.704,32.959,19.724,32.851,19.718z M31.473,20.357
				c-0.108,0.059-0.19,0.101-0.307,0.094C31.249,20.357,31.344,20.361,31.473,20.357z M42.928,21.139
				c-0.023,0.042,0,0.071,0.029,0.101c-0.033-0.015-0.165-0.182-0.063-0.207C42.939,21.055,42.953,21.09,42.928,21.139
				C42.905,21.181,42.943,21.116,42.928,21.139z M25.668,30.457c-0.006,0.065-0.038,0.098-0.098,0.096
				C25.539,30.497,25.639,30.338,25.668,30.457C25.678,30.495,25.66,30.432,25.668,30.457z M32.093,50.209
				c0.05,0.017,0.079,0.057,0.085,0.111C32.178,50.486,31.878,50.228,32.093,50.209C32.124,50.205,32.045,50.213,32.093,50.209z
				 M31.659,20.454c-0.037,0.054-0.085,0.081-0.167,0.109C31.535,20.476,31.592,20.46,31.659,20.454z M23.027,37.7
				C23.013,37.891,22.971,37.516,23.027,37.7C23.027,37.727,23.021,37.679,23.027,37.7z M32.934,20.772
				c0.004-0.004,0.015,0.002,0.023,0.004C32.934,20.791,32.894,20.791,32.934,20.772z M32.082,18.958
				c-0.021,0.004-0.046,0.006-0.067,0.008C32.034,18.951,32.059,18.951,32.082,18.958z M32.007,18.972
				c-0.017,0,0.004-0.006,0.008-0.006C32.011,18.968,32.007,18.968,32.007,18.972z M31.913,18.997l-0.002,0.002
				C31.909,18.997,31.911,18.997,31.913,18.997z M31.913,18.997c0.023-0.031,0.056-0.023,0.088-0.025
				C31.976,19.004,31.949,19.008,31.913,18.997z M32.519,19.029h0.006C32.523,19.031,32.519,19.033,32.519,19.029z M32.519,19.031
				c-0.006,0.034-0.031,0.029-0.058,0.029C32.473,19.031,32.494,19.027,32.519,19.031z M25.497,38.515
				C25.455,38.485,25.526,38.538,25.497,38.515C25.482,38.5,25.52,38.532,25.497,38.515z M45.909,20.521
				C46.026,20.554,45.915,20.546,45.909,20.521C45.909,20.521,45.913,20.543,45.909,20.521z M42.958,21.243c0,0,0-0.002-0.002-0.002
				c0.011,0.002,0.013,0.01,0.011,0.025C42.966,21.258,42.962,21.25,42.958,21.243C42.958,21.243,42.962,21.25,42.958,21.243z
				 M32.458,19.06c0.004,0,0.004,0,0.004,0s0,0.004-0.006,0.002L32.458,19.06z M32.422,19.069c0.011-0.006,0.025-0.006,0.035-0.008
				C32.441,19.087,32.427,19.089,32.422,19.069C32.433,19.064,32.423,19.071,32.422,19.069z M49.808,24.947v-0.002l0.004,0.002
				H49.808z M34.662,37.21C34.6,37.161,34.704,37.176,34.662,37.21C34.654,37.207,34.675,37.197,34.662,37.21z M43.732,54.881
				c-0.006,0.006-0.006,0.006-0.012,0.006c0.002-0.01,0.006-0.017,0.012-0.013V54.881z M43.721,54.886
				C43.721,54.886,43.719,54.886,43.721,54.886L43.721,54.886z M28.475,23.743c0.01-0.002,0.186-0.021,0.125,0.048
				C28.53,23.826,28.492,23.808,28.475,23.743C28.496,23.741,28.476,23.784,28.475,23.743z M27.363,22.197
				c-0.052-0.033-0.04-0.067,0.031-0.105C27.455,22.115,27.444,22.151,27.363,22.197C27.336,22.196,27.4,22.186,27.363,22.197z"/>
			<path fill="#E6E5E5" d="M48.19,24.799c0.048-0.033,0.096-0.069,0.14-0.109c0.111,0,0.388,0.432,0.34,0.501
				C48.541,25.398,48.324,24.88,48.19,24.799z M48.023,24.308c-0.127,0.103,0.184,0.291,0.236,0.306l-0.002-0.002
				C48.243,24.579,48.115,24.245,48.023,24.308z M32.646,52.971c-0.451-0.094-1.102-0.031-1.482-0.43
				c-0.234-0.247-0.574-0.54-0.795-0.859c-0.111-0.157,0.182-0.356-0.111-0.421c-0.186-0.042-0.111,0.065-0.127-0.159
				c-0.023-0.387-0.217-0.465,0.083-0.365c-0.023-0.006,0.044-0.784-0.29-0.599c0.28,0.277-0.031,0.369-0.027,0.3
				c0-0.239-0.271-0.943-0.407-1.236c0.846,0.126,1.712,0.193,2.591,0.193c0.06,0,0.111-0.002,0.169-0.002c-0.019,0-0.033,0-0.046,0
				c-0.015,0.111,0.18,0.381,0.136,0.48c-0.108,0.277-0.545-0.098-0.645,0.006c-0.081,0.088,0.255,0.505,0.305,0.526
				c-0.033,0.065-0.121,0.474-0.136,0.474c-0.169-0.023-0.34,0.207-0.159,0.335c0.129,0.088,0.265,0.077,0.388,0.149
				c0.261,0.151-0.223,0.318-0.125,0.494c0.144,0.256-0.34,0.13,0.113,0.536c-0.655,0.023-0.002,0.375-0.002,0.379
				c-0.077-0.05-0.046-0.015,0.025-0.122c-0.052-0.036-0.161,0.031-0.194-0.042c-0.125-0.293,0.465,0.063,0.449,0.057
				c0.179,0.109,0.488,0.121,0.628,0.235c-0.058,0.015-0.259,0.084-0.338,0.071C32.629,52.967,32.596,52.964,32.646,52.971z
				 M29.989,49.987c-0.008-0.002-0.012,0,0.008,0.002C30.078,49.872,29.862,49.956,29.989,49.987z M30.968,52.233
				c-0.065,0.012-0.065,0.038,0.004,0.077c-0.029-0.004,0.025,0.006,0,0C31.047,52.29,31.045,52.264,30.968,52.233z M31.68,52.526
				c-0.083,0.04-0.09,0.067-0.027,0.082c-0.004,0-0.006,0,0.006,0C31.734,52.579,31.742,52.552,31.68,52.526z M31.654,52.608
				c0.002,0,0.002,0,0.006,0C31.671,52.604,31.659,52.604,31.654,52.608z M30.177,50.662c0.008-0.002,0.017-0.004,0.025-0.008
				C30.206,50.641,30.2,50.645,30.177,50.662z M32.65,52.971c0,0-0.002,0-0.004,0C32.671,52.975,32.663,52.975,32.65,52.971z
				 M45.047,20.506c0.28,0.314,0.551,0.637,0.808,0.97c0.059,0.027,0.108,0.029,0.129-0.008c-0.104-0.237-0.255-0.509-0.499-0.733
				C45.364,20.623,45.205,20.567,45.047,20.506z M45.909,20.521C45.915,20.546,46.026,20.554,45.909,20.521L45.909,20.521z
				 M51.463,26.2h-0.004C51.47,26.209,51.468,26.206,51.463,26.2z M55.461,40.331c0,0,0-0.002,0-0.004
				C55.461,40.327,55.461,40.314,55.461,40.331z M55.285,31.394c0.096,0.337,0.186,0.674,0.275,1.012
				C55.58,32.213,55.467,31.842,55.285,31.394z M55.696,37.235c0.002-0.004,0.002-0.01,0.004-0.014
				C55.682,37.296,55.69,37.268,55.696,37.235z M52.123,26.022c-0.025,0.105,0.01,0.165,0.1,0.209
				C52.231,26.137,52.2,26.076,52.123,26.022z M49.808,24.945v0.002h0.004L49.808,24.945z M51.572,26.165
				c-0.104-0.082-0.223-0.054-0.33-0.109c0.033,0.124,0.157,0.08,0.217,0.144c-0.042-0.044-0.012-0.014,0.004,0
				C51.497,26.231,51.536,26.194,51.572,26.165z M55.964,38.458c-0.211,1.538-0.311,2.914-0.916,4.347
				c-0.288,0.664-0.549,1.328-0.837,1.99c-0.117,0.264-0.367,0.436-0.489,0.704c-0.131,0.283-0.267,0.572-0.486,0.8
				c-0.411,0.436-0.68,1.085-1.246,1.362c-0.275,0.138-0.637,0.107-0.879,0.327c-0.159-0.348,0.246-0.83,0.326-1.165
				c0.123-0.518,0.083-1.048,0.307-1.542c0.37-0.97-0.042-2.026,0.39-2.958c0.167-0.363,0.288-0.704,0.495-1.023
				c0.207-0.321,0.109-0.895,0.159-1.259c0.063-0.448-0.121-1.154-0.326-1.557c-0.071-0.147-0.591-0.859-0.363-1.027
				c0.303-0.241,0.196-1.548-0.161-1.711c-0.201-0.088-0.503,0.26-0.649-0.008c-0.1-0.187-0.109-0.452-0.326-0.559
				c-0.299-0.147-1.394,0.626-1.54,0.555c-0.102-0.046-0.209-0.077-0.319-0.094c0.246-1.155,0.374-2.351,0.374-3.578
				c0-2.21-0.419-4.314-1.171-6.258c0.307-0.046,0.793-0.096,0.843-0.052c0.134,0.119,0.53,0.373,0.447,0.683
				c-0.102,0.36,0.687,0.43,0.887,0.497c0.246,0.082,0.321,0.367,0.586,0.392c0.184,0.015,0.273,0.14,0.422,0.224
				c0.252,0.147-0.326-1.023,0.111-0.708c0.274,0.195,0.647,0.39,0.983,0.467c0.006-0.061,0.029-0.119,0.059-0.172
				c0.213-0.073,0.397,0.247,0.119-0.279c-0.073-0.132-0.653-1.265-0.8-1.19c-0.069,0.034,0.058,0.119-0.004,0.161
				c-0.083,0.052-0.234-0.214-0.284-0.157c-0.015,0.015,0.044,0.107,0.025,0.142c-0.069,0.092-1.039-0.827-1.081-1.01
				c0.056-0.015,0.108-0.031,0.161-0.048c-0.01-0.065-0.037-0.121-0.09-0.161c0.038-0.021,0.075-0.033,0.119-0.034
				c-0.042-0.071-0.046-0.144-0.013-0.216c0.096-0.075,0.371,0.23,0.514,0.214c-0.09-0.364-0.758-0.884-1.085-1.02
				c-0.044,0.057-0.01,0.101-0.017,0.153c-0.077-0.13-0.265-0.134-0.319-0.321c0.077,0.082,0.163,0.126,0.269,0.13
				c0.075-0.063-0.299-0.384-0.33-0.419c-0.01,0.082,0,0.161,0.04,0.237c-0.121,0.073-0.178-0.071-0.288-0.077
				c0.144,0.446,0.676,1.106,1.073,1.33c0.014-0.023-0.228,0.134-0.121,0.138c-0.205-0.006-0.217,0.094-0.313,0.086
				c0,0.245,0.424,0.34,0.528,0.505c0.077,0.12,0.134,0.314,0.201,0.465c-0.15-0.05-0.524-0.385-0.52-0.381
				c-0.102-0.015-0.555-0.542-0.641-0.641c-0.217-0.253-0.29-0.346-0.585-0.501c-0.373-0.193-0.768-0.561-1.133-0.687
				c-0.23-0.08,0.1,0.34,0.1,0.34c0.184,0.159,0.42,0.281,0.608,0.436c0.311,0.247,0.754,0.279,1.027,0.616
				c-0.073-0.057-0.157-0.096-0.249-0.103c-0.021,0.161,0.272,0.36,0.295,0.562c0.008,0.05,0.081,0.34,0.069,0.39
				c-0.081,0.006-0.587-0.222-0.557-0.314c0.037-0.08,0.574,0.034,0.353-0.251c-0.188-0.239-0.44-0.387-0.693-0.538
				c-0.432-0.241-0.912-0.664-1.38-0.811c0.027,0.153-0.013,0.234-0.081,0.276c-0.428-0.83-0.92-1.624-1.472-2.373
				c0.136-0.004,0.334,0.006,0.382-0.055c0.18-0.22,0.061-0.013,0.334-0.057c-0.033-0.272-0.486-0.434-0.52-0.595
				c0.079,0.008,0.136,0.073,0.221,0.08c-0.015-0.053-0.864-0.518-0.403-0.438c0.161-0.201-0.319-0.356-0.426-0.387
				c0.075,0.063,0.154,0.122,0.232,0.178c-0.455,0.371-0.966-0.306-1.442-0.618c-0.192-0.195-0.39-0.385-0.593-0.57
				c0.25,0.084,0.474,0.186,0.584,0.254c0.008,0.042-0.037,0.017-0.048,0.042c0.006,0.033,0.541,0.258,0.743,0.31
				c-0.04-0.038-0.34-0.187-0.344-0.247c0.077,0.126,0.599,0.262,0.747,0.331c0.34,0.168,0.674,0.348,1,0.536
				c0.689,0.39,1.348,0.819,1.979,1.293c1.3,0.968,2.474,2.101,3.488,3.365c1.075,1.339,1.962,2.826,2.638,4.402
				c0.253,0.589,0.449,1.186,0.62,1.783c-0.543-1.328-1.714-3.329-1.814-3.268c-0.117,0.08,0.896,1.567,0.975,1.758
				c-0.004-0.008,0.073,0.176,0,0c0.371,0.861,0.766,1.711,1.098,2.585c0.008-0.019,0.011-0.038,0.015-0.063
				c0.108,0.417,0.215,0.838,0.328,1.257h-0.002C56.193,35.286,56.187,36.83,55.964,38.458z M55.377,36.671
				c0.019-0.101,0.09-0.191,0.044-0.325C55.392,36.472,55.337,36.564,55.377,36.671z M55.264,37.272
				c0.037-0.053,0.065-0.1,0.035-0.163C55.258,37.155,55.26,37.208,55.264,37.272z M54.901,42.196
				c0.012-0.012,0.012-0.027,0.023-0.063c-0.011,0.008-0.209,0.103-0.14,0.103C54.824,42.223,54.864,42.21,54.901,42.196
				C54.874,42.236,54.912,42.185,54.901,42.196z M55.147,39.889c-0.182,0.117-0.192,0.126-0.19,0.306
				C54.98,40.076,55.108,40.017,55.147,39.889z M55.164,39.265c0,0.143-0.008,0.536,0.081,0.658c0.019-0.57-0.008-1.142-0.023-1.707
				C55.15,38.538,55.158,38.932,55.164,39.265C55.162,39.145,55.164,39.38,55.164,39.265z M55.431,40.208
				c-0.01,0.511-0.2,0.978-0.219,1.494c0.202-0.237,0.244-1.068,0.25-1.372c0,0.019,0,0.006,0-0.004
				C55.461,40.293,55.471,40.256,55.431,40.208z M55.699,37.222c0.029-0.109-0.006-0.18-0.04-0.268
				c-0.28,0.159-0.179,0.677-0.179,0.947c0.213-0.197,0.134-0.312,0.215-0.666C55.705,37.207,55.713,37.168,55.699,37.222z
				 M32.178,50.32c-0.006-0.054-0.035-0.094-0.085-0.111C31.878,50.228,32.178,50.486,32.178,50.32z M43.7,54.885
				c-0.365-0.05-1.757,0.348-1.849,0.033c-0.142-0.05-0.762,0.166-0.95,0.186c-0.401,0.038-0.795,0.149-1.19,0.22
				c-0.664,0.113-1.298,0.354-1.971,0.43c-0.273,0.033-2.079,0.065-2.142-0.279c-0.031-0.205-0.413-0.31-0.522-0.48
				c-0.01-0.019-0.326-0.457-0.332-0.427c0.017-0.13,0.311-0.138,0.409-0.122c-0.05-0.186,0.081-0.107,0.192-0.174
				c-0.102-0.044-1.052,0.12-1.079,0.174c-0.035,0.065,0.058,0.128-0.035,0.253c-0.061,0.08-0.228,0.021-0.248,0.055
				c-0.054,0.134,0.563,0.111,0.323,0.296c-0.017,0.014-0.524,0.031-0.618,0.038c-0.004,0.069,0.653,0.226,0.729,0.325
				c-0.72-0.094-1.472-0.034-2.257-0.163c0.209,0.186,0.499,0.136,0.735,0.281c-0.248,0.038-0.539-0.088-0.781-0.115
				c1.883,0.57,3.933,0.75,5.893,0.654c1.033-0.052,2.058-0.184,3.068-0.394c0.25-0.054,2.676-0.737,2.647-0.79
				C43.723,54.892,43.705,54.886,43.7,54.885z M43.7,54.885c0.006,0.002,0.015,0.002,0.021,0.002
				C43.696,54.881,43.696,54.883,43.7,54.885z M32.093,50.209C32.124,50.205,32.045,50.213,32.093,50.209L32.093,50.209z
				 M43.721,54.886c0.006,0,0.006,0,0.012-0.006v-0.008C43.727,54.869,43.723,54.877,43.721,54.886z M55.056,43.528
				c-0.008,0.021-0.019,0.048-0.027,0.073C55.039,43.578,55.058,43.558,55.056,43.528z M54.949,43.801
				c-0.096,0.189-0.159,0.392-0.236,0.586C54.799,44.196,54.887,44.006,54.949,43.801z"/>
		</g>
		<g>
			<rect x="15.592" y="34.652" fill="#F4836B" width="43.264" height="1.613"/>
			<rect x="15.592" y="36.265" fill="#EA6653" width="43.264" height="1.617"/>
			<rect x="15.592" y="37.882" fill="#E2503B" width="43.264" height="1.615"/>
			<polygon fill="#FFFFFF" points="58.854,39.499 61.664,37.88 61.664,36.267 58.855,34.652 			"/>
			<polygon fill="#E6E5E5" points="58.854,39.499 58.855,37.882 61.664,37.341 61.664,37.88 			"/>
			<polygon fill="#4A5158" points="61.664,37.88 63.065,37.073 61.664,36.267 			"/>
			<rect x="13.971" y="37.88" fill="#E6E5E5" width="1.62" height="1.617"/>
			<rect x="13.971" y="34.652" fill="#FFFFFF" width="1.62" height="3.229"/>
			<path fill="#343C44" d="M13.593,39.495h0.378V37.88h-0.378c-0.62,0-1.242-0.235-1.718-0.706c-0.263-0.27-0.457-0.58-0.57-0.909
				c-0.094,0.26-0.142,0.532-0.142,0.808c0,0.622,0.24,1.24,0.712,1.714C12.351,39.261,12.973,39.495,13.593,39.495z"/>
			<path fill="#4A5158" d="M13.593,37.88h0.378v-3.23h-0.378c-0.62,0-1.242,0.237-1.718,0.71c-0.263,0.262-0.453,0.572-0.57,0.905
				c0.113,0.329,0.307,0.639,0.57,0.909C12.351,37.645,12.973,37.88,13.593,37.88z"/>
		</g>
	</g>
</g>
</svg>
