<?xml version="1.0" encoding="utf-8"?>
<!-- Generator: Adobe Illustrator 17.0.0, SVG Export Plug-In . SVG Version: 6.00 Build 0)  -->
<!DOCTYPE svg PUBLIC "-//W3C//DTD SVG 1.1//EN" "http://www.w3.org/Graphics/SVG/1.1/DTD/svg11.dtd">
<svg version="1.1" id="Layer_1" xmlns="http://www.w3.org/2000/svg" xmlns:xlink="http://www.w3.org/1999/xlink" x="0px" y="0px"
	 width="74px" height="74px" viewBox="0 0 74 74" enable-background="new 0 0 74 74" xml:space="preserve">
<g>
	<ellipse fill="#F4836B" cx="36.922" cy="36.915" rx="37.061" ry="37.018"/>
	<path fill="#EA6653" d="M58.356,30.805c-0.273-0.219-0.618-0.354-0.991-0.354h-4.422l-12.396-12.38l-0.004-0.004h-7.246v3.621
		h-3.338l8.775,8.764H16.479c-0.856,0-1.554,0.698-1.554,1.549v9.824c0,0.292,0.081,0.563,0.219,0.798l0.531,0.53l10.373,10.361
		v4.161c0,0.444,0.173,0.882,0.512,1.222l14.782,14.765c15.542-1.845,28.125-13.293,31.646-28.239L58.566,31.015L58.356,30.805z"/>
	<g>
		<path fill="#FFFFFF" d="M58.92,41.825c0,0.853-0.698,1.553-1.553,1.553H16.478c-0.854,0-1.553-0.7-1.553-1.553v-9.824
			c0-0.851,0.698-1.549,1.553-1.549h40.889c0.854,0,1.553,0.698,1.553,1.549V41.825z"/>
		<rect x="22.69" y="35.105" fill="#343C44" width="28.464" height="3.619"/>
		<g>
			<defs>
				<rect id="SVGID_1_" x="22.69" y="36.915" width="28.464" height="22.489"/>
			</defs>
			<clipPath id="SVGID_2_">
				<use xlink:href="#SVGID_1_"  overflow="visible"/>
			</clipPath>
			<g clip-path="url(#SVGID_2_)">
				<path fill="#5AB5D9" d="M27.781,14.424c-0.443,0-0.885,0.169-1.222,0.509c-0.34,0.336-0.51,0.778-0.51,1.22v41.519
					c0,0.444,0.169,0.886,0.51,1.222c0.337,0.34,0.779,0.509,1.222,0.509h18.282c0.443,0,0.885-0.169,1.224-0.509
					c0.339-0.336,0.508-0.778,0.508-1.222V16.153c0-0.442-0.169-0.884-0.508-1.22c-0.338-0.34-0.781-0.509-1.224-0.509H27.781z"/>
				<path fill="#95D9F1" d="M42.908,16.824c0,1.372,1.112,2.481,2.484,2.481v35.216c-1.372,0-2.484,1.111-2.484,2.483H30.937
					c0-1.372-1.112-2.483-2.482-2.483V19.305c1.37,0,2.482-1.109,2.482-2.481H42.908z"/>
				<g>
					<g>
						<path fill="#5AB5D9" d="M43.579,36.915c0,3.665-2.988,6.646-6.657,6.646c-3.669,0-6.655-2.981-6.655-6.646
							s2.986-6.648,6.655-6.648C40.591,30.267,43.579,33.25,43.579,36.915z M31.785,36.915c0,2.827,2.305,5.129,5.137,5.129
							c2.832,0,5.139-2.302,5.139-5.129c0-2.829-2.307-5.131-5.139-5.131C34.09,31.784,31.785,34.086,31.785,36.915z"/>
						<g>
							<rect x="36.162" y="22.332" fill="#5AB5D9" width="1.522" height="8.704"/>
							<rect x="36.162" y="42.803" fill="#5AB5D9" width="1.522" height="8.692"/>
						</g>
						<g>
							<rect x="32.945" y="27.573" fill="#5AB5D9" width="1.522" height="4.407"/>
							<rect x="32.945" y="41.848" fill="#5AB5D9" width="1.522" height="4.405"/>
						</g>
						<g>
							<rect x="39.379" y="27.573" fill="#5AB5D9" width="1.52" height="4.609"/>
							<rect x="39.379" y="41.846" fill="#5AB5D9" width="1.52" height="4.407"/>
						</g>
					</g>
				</g>
			</g>
		</g>
		<g>
			<g>
				<rect x="33.299" y="18.067" fill="#343C44" width="7.246" height="3.621"/>
				<polygon fill="#343C44" points="29.961,21.688 36.922,28.641 43.883,21.688 				"/>
			</g>
		</g>
	</g>
</g>
</svg>
