<?xml version="1.0" encoding="utf-8"?>
<!-- Generator: Adobe Illustrator 17.0.0, SVG Export Plug-In . SVG Version: 6.00 Build 0)  -->
<!DOCTYPE svg PUBLIC "-//W3C//DTD SVG 1.1//EN" "http://www.w3.org/Graphics/SVG/1.1/DTD/svg11.dtd">
<svg version="1.1" id="Layer_1" xmlns="http://www.w3.org/2000/svg" xmlns:xlink="http://www.w3.org/1999/xlink" x="0px" y="0px"
	 width="74px" height="74px" viewBox="0 0 74 74" enable-background="new 0 0 74 74" xml:space="preserve">
<g>
	<ellipse fill="#FECE67" cx="37.051" cy="37.012" rx="37.061" ry="36.894"/>
	<path fill="#F5B541" d="M74.023,39.437l-19.05-18.962c-0.287-0.287-0.664-0.429-1.043-0.429H20.172
		c-0.379,0-0.758,0.142-1.043,0.429c-0.289,0.283-0.431,0.661-0.431,1.032v30.881c0,0.371,0.142,0.747,0.431,1.032l20.479,20.387
		C58.075,72.553,72.823,57.84,74.023,39.437z"/>
	<g>
		<g>
			<path fill="#FFFFFF" d="M55.404,52.386c0,0.375-0.144,0.749-0.431,1.036c-0.289,0.285-0.664,0.429-1.041,0.429H20.168
				c-0.375,0-0.75-0.144-1.039-0.429c-0.287-0.287-0.431-0.661-0.431-1.036V21.509c0-0.375,0.144-0.751,0.431-1.034
				c0.289-0.287,0.664-0.429,1.039-0.429h33.765c0.377,0,0.752,0.142,1.041,0.429c0.287,0.283,0.431,0.659,0.431,1.034V52.386z"/>
			<rect x="21.961" y="44.106" fill-rule="evenodd" clip-rule="evenodd" fill="#343C44" width="30.18" height="3.249"/>
			<rect x="21.961" y="23.294" fill-rule="evenodd" clip-rule="evenodd" fill="#E6E5E5" width="30.18" height="18.403"/>
			<g>
				<g>
					<g>
						<rect x="41.265" y="36.284" fill-rule="evenodd" clip-rule="evenodd" fill="#343C44" width="8.7" height="2.165"/>
						<rect x="41.265" y="33.037" fill-rule="evenodd" clip-rule="evenodd" fill="#343C44" width="2.174" height="2.164"/>
						<rect x="41.265" y="29.789" fill-rule="evenodd" clip-rule="evenodd" fill="#343C44" width="2.174" height="2.166"/>
						<rect x="41.265" y="26.542" fill-rule="evenodd" clip-rule="evenodd" fill="#343C44" width="2.174" height="2.164"/>
						<rect x="44.528" y="33.037" fill-rule="evenodd" clip-rule="evenodd" fill="#343C44" width="2.174" height="2.164"/>
						<rect x="44.528" y="29.789" fill-rule="evenodd" clip-rule="evenodd" fill="#343C44" width="2.174" height="2.166"/>
						<rect x="44.528" y="26.542" fill-rule="evenodd" clip-rule="evenodd" fill="#343C44" width="2.174" height="2.164"/>
						<rect x="47.789" y="33.037" fill-rule="evenodd" clip-rule="evenodd" fill="#343C44" width="2.176" height="2.164"/>
						<rect x="47.789" y="29.789" fill-rule="evenodd" clip-rule="evenodd" fill="#343C44" width="2.176" height="2.166"/>
						<rect x="47.789" y="26.542" fill-rule="evenodd" clip-rule="evenodd" fill="#343C44" width="2.176" height="2.164"/>
					</g>
				</g>
				<g>
					<rect x="24.137" y="26.542" fill-rule="evenodd" clip-rule="evenodd" fill="#5AB5D9" width="14.952" height="11.906"/>
					<rect x="26.313" y="29.789" fill-rule="evenodd" clip-rule="evenodd" fill="#95D9F1" width="10.601" height="8.66"/>
				</g>
			</g>
		</g>
		<g>
			<defs>
				<rect id="SVGID_1_" x="28.47" y="45.731" width="17.162" height="13.35"/>
			</defs>
			<clipPath id="SVGID_2_">
				<use xlink:href="#SVGID_1_"  overflow="visible"/>
			</clipPath>
			<g clip-path="url(#SVGID_2_)">
				<path fill-rule="evenodd" clip-rule="evenodd" fill="#EA6653" d="M45.632,57.828c0.002,0.32-0.123,0.64-0.368,0.887
					c-0.248,0.243-0.569,0.366-0.895,0.366H29.73c-0.323,0-0.648-0.123-0.893-0.368c-0.25-0.245-0.368-0.565-0.368-0.887v-23.12
					c0-0.32,0.119-0.642,0.368-0.887c0.244-0.243,0.569-0.368,0.893-0.368l14.64,0.002c0.325,0,0.647,0.123,0.895,0.368
					c0.244,0.243,0.366,0.567,0.368,0.885V57.828z"/>
				<g>
					<g>
						<rect x="31.724" y="36.644" fill-rule="evenodd" clip-rule="evenodd" fill="#343C44" width="0.55" height="4.007"/>
						<rect x="31.725" y="41.722" fill-rule="evenodd" clip-rule="evenodd" fill="#343C44" width="0.548" height="4.009"/>
						<rect x="31.724" y="46.803" fill-rule="evenodd" clip-rule="evenodd" fill="#343C44" width="0.548" height="4.007"/>
						<rect x="31.724" y="51.883" fill-rule="evenodd" clip-rule="evenodd" fill="#343C44" width="0.55" height="4.005"/>
					</g>
				</g>
				<g>
					<rect x="34.846" y="36.644" fill-rule="evenodd" clip-rule="evenodd" fill="#FFFFFF" width="2.209" height="19.244"/>
					<g>
						<g>
							<rect x="35.746" y="45.731" fill-rule="evenodd" clip-rule="evenodd" fill="#343C44" width="0.414" height="1.488"/>
							<rect x="35.747" y="47.835" fill-rule="evenodd" clip-rule="evenodd" fill="#343C44" width="0.412" height="3.304"/>
							<rect x="35.746" y="51.752" fill-rule="evenodd" clip-rule="evenodd" fill="#343C44" width="0.41" height="3.298"/>
						</g>
					</g>
				</g>
				<rect x="38.581" y="33.453" fill-rule="evenodd" clip-rule="evenodd" fill="#343C44" width="3.931" height="25.628"/>
			</g>
		</g>
	</g>
</g>
</svg>
