<?xml version="1.0" encoding="utf-8"?>
<!-- Generator: Adobe Illustrator 17.0.0, SVG Export Plug-In . SVG Version: 6.00 Build 0)  -->
<!DOCTYPE svg PUBLIC "-//W3C//DTD SVG 1.1//EN" "http://www.w3.org/Graphics/SVG/1.1/DTD/svg11.dtd">
<svg version="1.1" id="Layer_1" xmlns="http://www.w3.org/2000/svg" xmlns:xlink="http://www.w3.org/1999/xlink" x="0px" y="0px"
	 width="74px" height="74px" viewBox="0 0 74 74" enable-background="new 0 0 74 74" xml:space="preserve">
<g>
	<ellipse fill="#FECE67" cx="37.096" cy="37.09" rx="36.936" ry="37.052"/>
	<path fill="#F5B541" d="M72.649,47.131L44.77,19.167c-0.006-0.008-0.015-0.019-0.023-0.027c-0.01-0.01-0.019-0.019-0.029-0.023
		c-0.297-0.289-0.677-0.431-1.064-0.431c-0.395,0-0.79,0.152-1.091,0.454c-0.301,0.3-0.453,0.696-0.453,1.095v6.086h-1.22h-2.102
		l-7.158-7.18c-0.301-0.302-0.696-0.454-1.093-0.454c-0.395,0-0.79,0.152-1.091,0.454c-0.299,0.3-0.453,0.696-0.453,1.095v6.086
		h-3.469c-0.567,0-1.129,0.219-1.559,0.65c-0.433,0.431-0.648,0.994-0.648,1.564c0,0.564,0.215,1.131,0.648,1.562l2.111,2.118v3.266
		v3.003c0,2.266,0.857,4.528,2.579,6.253l7.963,7.988c0.01,0.027,0.019,0.054,0.031,0.081c0.057,0.16,0.126,0.316,0.209,0.467
		c0.008,0.013,0.017,0.027,0.025,0.04c0.086,0.152,0.184,0.3,0.295,0.439c0.004,0.008,0.008,0.013,0.011,0.019l0.006,0.006
		c0.079,0.1,0.165,0.198,0.257,0.29c0.092,0.094,0.192,0.181,0.293,0.262l5.024,5.04H28.876c-0.921,0-1.787,0.36-2.449,1.016
		c-0.654,0.654-1.01,1.523-1.01,2.456c0,0.923,0.357,1.793,1.014,2.452l8.775,8.802c0.625,0.031,1.256,0.048,1.891,0.048
		C54.026,74.142,68.285,62.713,72.649,47.131z"/>
	<g>
		<path fill="#343C44" d="M48.118,30.743H26.076v7.74c0,2.264,0.859,4.528,2.581,6.253c1.722,1.727,3.981,2.591,6.236,2.591h4.409
			c2.257,0,4.514-0.864,6.236-2.591c1.72-1.725,2.581-3.989,2.581-6.253V30.743z"/>
		<path fill="#4A5158" d="M34.893,45.227c-1.797,0-3.486-0.702-4.755-1.975c-1.269-1.273-1.967-2.966-1.967-4.768
			c0-0.673,0.543-1.216,1.212-1.216c0.669,0,1.212,0.542,1.212,1.216c0,1.152,0.447,2.235,1.26,3.049
			c0.809,0.814,1.891,1.262,3.039,1.262c0.669,0,1.212,0.544,1.212,1.216S35.562,45.227,34.893,45.227z"/>
		<path fill="#4A5158" d="M39.302,47.327h-4.409v0.885c0,0.396,0.152,0.792,0.451,1.094c0.303,0.302,0.698,0.454,1.093,0.454h1.321
			c0.395,0,0.79-0.152,1.091-0.454c0.301-0.302,0.453-0.698,0.453-1.094V47.327z"/>
		<path fill="#4A5158" d="M50.874,28.531c0-0.564-0.215-1.131-0.646-1.562c-0.429-0.431-0.993-0.646-1.557-0.646H25.524
			c-0.564,0-1.128,0.215-1.559,0.646c-0.429,0.431-0.644,0.998-0.644,1.562l0,0c0,0.567,0.215,1.135,0.644,1.566
			c0.431,0.431,0.995,0.646,1.559,0.646H48.67c0.564,0,1.128-0.215,1.557-0.646C50.659,29.666,50.874,29.098,50.874,28.531
			L50.874,28.531z"/>
		<g>
			<path fill="#FFFFFF" d="M31.629,19.139c-0.301-0.302-0.696-0.452-1.091-0.452c-0.393,0-0.788,0.15-1.089,0.452
				c-0.303,0.302-0.453,0.698-0.453,1.096v6.088h3.085v-6.088C32.082,19.837,31.931,19.44,31.629,19.139z"/>
			<path fill="#FFFFFF" d="M44.745,19.139c-0.301-0.302-0.694-0.452-1.091-0.452c-0.393,0-0.788,0.15-1.089,0.452
				c-0.303,0.302-0.453,0.698-0.453,1.096v6.088h3.085v-6.088C45.198,19.837,45.046,19.44,44.745,19.139z"/>
		</g>
		<path fill="#343C44" d="M37.758,74.142h-1.321v-5.695c0-0.571-0.222-1.11-0.625-1.516c-0.406-0.404-0.943-0.627-1.507-0.627h-5.43
			c-0.917,0-1.783-0.36-2.443-1.012c-0.656-0.662-1.016-1.531-1.016-2.454c0-0.927,0.361-1.8,1.012-2.454
			c0.663-0.656,1.53-1.016,2.447-1.016h16.445c0.568,0,1.101-0.223,1.505-0.627c0.408-0.41,0.633-0.948,0.633-1.518
			c0-0.567-0.224-1.104-0.633-1.512c-0.404-0.406-0.938-0.629-1.505-0.629h-5.423c-0.922,0-1.789-0.36-2.443-1.016
			c-0.656-0.664-1.016-1.535-1.016-2.454V49.76h1.321v1.852c0,0.567,0.224,1.106,0.633,1.52c0.403,0.402,0.938,0.625,1.505,0.625
			h5.423c0.921,0,1.787,0.36,2.439,1.016c0.66,0.658,1.022,1.529,1.022,2.451c0,0.923-0.362,1.795-1.022,2.456
			c-0.652,0.654-1.519,1.016-2.439,1.016H28.874c-0.566,0-1.104,0.223-1.513,0.629c-0.401,0.402-0.623,0.941-0.623,1.514
			c0,0.569,0.222,1.108,0.625,1.514c0.406,0.402,0.945,0.625,1.511,0.625h5.43c0.913,0,1.78,0.36,2.441,1.014
			c0.654,0.662,1.012,1.533,1.012,2.456V74.142z"/>
	</g>
</g>
</svg>
