<?xml version="1.0" encoding="utf-8"?>
<!-- Generator: Adobe Illustrator 17.0.0, SVG Export Plug-In . SVG Version: 6.00 Build 0)  -->
<!DOCTYPE svg PUBLIC "-//W3C//DTD SVG 1.1//EN" "http://www.w3.org/Graphics/SVG/1.1/DTD/svg11.dtd">
<svg version="1.1" id="Layer_1" xmlns="http://www.w3.org/2000/svg" xmlns:xlink="http://www.w3.org/1999/xlink" x="0px" y="0px"
	 width="74px" height="74px" viewBox="0 0 74 74" enable-background="new 0 0 74 74" xml:space="preserve">
<g>
	<ellipse fill="#F4836B" cx="36.961" cy="37.033" rx="37.103" ry="36.894"/>
	<path fill="#EA6653" d="M72.481,47.703L38.474,13.886l-0.091-0.09c-0.374-0.35-0.872-0.565-1.422-0.565
		c-1.144,0-2.082,0.933-2.082,2.071v8.745h0.008c-0.148,0.098-0.291,0.218-0.426,0.351c-0.69,0.691-1.035,1.586-1.035,2.486h0.016
		c-1.705,0.533-3.309,1.475-4.663,2.823c-2.265,2.247-3.394,5.192-3.394,8.14v9.435c0,0.533-0.202,1.061-0.609,1.467
		c-0.406,0.404-0.938,0.603-1.474,0.603c-0.57,0-1.092,0.234-1.47,0.609c-0.379,0.377-0.614,0.895-0.614,1.467
		c0,0.538,0.212,1.029,0.551,1.394l0.129,0.128l20.674,20.556C56.821,71.356,68.401,61.147,72.481,47.703z"/>
	<g>
		<g>
			<rect x="36.498" y="58.303" fill="#FFFFFF" width="0.926" height="2.532"/>
			
				<rect x="37.982" y="58.664" transform="matrix(0.3765 0.9264 -0.9264 0.3765 79.25 0.5065)" fill="#FFFFFF" width="2.533" height="0.925"/>
			<polygon fill="#FFFFFF" points="41.755,59.096 39.985,57.274 40.651,56.635 42.419,58.456 			"/>
			<polygon fill="#FFFFFF" points="43.513,56.903 41.186,55.874 41.564,55.032 43.889,56.062 			"/>
			<polygon fill="#FFFFFF" points="34.626,60.473 33.769,60.128 34.722,57.782 35.581,58.127 			"/>
			<polygon fill="#FFFFFF" points="32.168,59.096 31.504,58.456 33.272,56.635 33.938,57.274 			"/>
			<polygon fill="#FFFFFF" points="30.41,56.903 30.034,56.062 32.359,55.032 32.736,55.874 			"/>
		</g>
		<path fill="#343C44" d="M34.464,55.982c0.69,0.686,1.593,1.027,2.496,1.027c0.905,0,1.809-0.341,2.498-1.027
			c0.69-0.686,1.034-1.586,1.034-2.482H33.43C33.43,54.396,33.775,55.296,34.464,55.982z"/>
		<path fill="#FECE67" d="M49.145,48.749c-0.407-0.406-0.611-0.935-0.611-1.465v-9.437c0-2.946-1.131-5.892-3.39-8.138
			s-5.222-3.371-8.182-3.371c-2.962,0-5.925,1.124-8.184,3.371c-2.261,2.247-3.39,5.192-3.39,8.138v9.437
			c0,0.531-0.204,1.059-0.611,1.465c-0.406,0.404-0.94,0.605-1.474,0.605h27.315C50.085,49.355,49.552,49.153,49.145,48.749z"/>
		<path fill="#FFFFFF" d="M28.859,42.45c-0.637,0-1.156-0.515-1.156-1.151v-3.451c0-2.459,0.963-4.773,2.71-6.512
			c0.453-0.448,1.185-0.448,1.637,0c0.453,0.45,0.453,1.18,0,1.628c-1.312,1.304-2.032,3.038-2.032,4.884v3.451
			C30.019,41.934,29.499,42.45,28.859,42.45z"/>
		<path fill="#F5B541" d="M52.701,51.427c0,1.14-0.936,2.072-2.082,2.072H23.304c-1.146,0-2.082-0.933-2.082-2.072l0,0
			c0-1.14,0.936-2.072,2.082-2.072h27.315C51.765,49.355,52.701,50.287,52.701,51.427L52.701,51.427z"/>
		<path fill="#F5B541" d="M39.459,24.401c-0.69-0.686-1.593-1.029-2.496-1.029c-0.905,0-1.809,0.343-2.498,1.029
			c-0.69,0.686-1.034,1.584-1.034,2.482h7.063C40.493,25.985,40.148,25.087,39.459,24.401z"/>
		<path fill="#343C44" d="M36.962,13.231c-1.146,0-2.084,0.931-2.084,2.071v8.747h4.166v-8.747
			C39.045,14.161,38.108,13.231,36.962,13.231z"/>
	</g>
</g>
</svg>
