<?xml version="1.0" encoding="utf-8"?>
<!-- Generator: Adobe Illustrator 17.0.0, SVG Export Plug-In . SVG Version: 6.00 Build 0)  -->
<!DOCTYPE svg PUBLIC "-//W3C//DTD SVG 1.1//EN" "http://www.w3.org/Graphics/SVG/1.1/DTD/svg11.dtd">
<svg version="1.1" id="Layer_1" xmlns="http://www.w3.org/2000/svg" xmlns:xlink="http://www.w3.org/1999/xlink" x="0px" y="0px"
	 width="74px" height="74px" viewBox="0 0 74 74" enable-background="new 0 0 74 74" xml:space="preserve">
<g>
	<circle fill="#95D9F1" cx="37.134" cy="36.997" r="37.144"/>
	<path fill="#71C9E9" d="M54.206,25.707h-2.491l-1.034-1.034c-0.27-0.276-0.644-0.447-1.057-0.447c-0.816,0-1.481,0.665-1.481,1.481
		l0,0l-1.032-1.034c-0.27-0.276-0.644-0.447-1.059-0.447c-0.713,0-1.311,0.509-1.45,1.182c-0.019,0.097-0.031,0.197-0.031,0.299l0,0
		l-1.005-1.005c-0.091-0.098-0.193-0.181-0.307-0.251c-0.017-0.012-0.037-0.021-0.054-0.031c-0.079-0.046-0.162-0.081-0.251-0.112
		c-0.015-0.006-0.031-0.015-0.046-0.021l0.008,0.009c-0.137-0.042-0.28-0.071-0.43-0.071h-0.002h-0.002
		c-0.713,0-1.313,0.509-1.452,1.182c-0.019,0.097-0.029,0.197-0.029,0.299h-0.002l-1.003-1.005c-0.27-0.291-0.654-0.476-1.08-0.476
		c0,0-0.002,0-0.004,0h-0.002c-0.713,0-1.313,0.509-1.452,1.182c-0.019,0.097-0.029,0.197-0.029,0.299l0,0l-0.976-0.978
		c-0.272-0.305-0.665-0.503-1.105-0.503c0,0-0.002,0-0.004,0h-0.006c-0.712,0-1.311,0.509-1.45,1.182
		c-0.019,0.097-0.031,0.197-0.031,0.299l0,0l-0.976-0.976c-0.272-0.307-0.663-0.505-1.103-0.505h-0.006c-0.002,0-0.004,0-0.004,0
		c-0.713,0-1.313,0.509-1.452,1.182c-0.019,0.097-0.029,0.197-0.029,0.299l0,0l-0.949-0.947c-0.272-0.324-0.675-0.534-1.126-0.534
		c-0.004,0-0.006,0-0.008,0c-0.004,0-0.006,0-0.008,0c-0.713,0-1.313,0.509-1.45,1.182c-0.021,0.097-0.031,0.197-0.031,0.299l0,0
		l-0.947-0.947c-0.272-0.324-0.675-0.534-1.128-0.534c-0.004,0-0.006,0-0.008,0c-0.004,0-0.004,0-0.008,0
		c-0.713,0-1.311,0.509-1.45,1.182c-0.019,0.097-0.031,0.197-0.031,0.299h-0.245h-2.841l-5.694,22.766l25.556,25.554
		c16.54-1.23,30.059-13.282,33.499-29.106L54.206,25.707z"/>
	<g>
		<polygon fill="#FFFFFF" points="14.368,48.47 20.059,25.705 54.208,25.705 48.517,48.47 		"/>
		<polygon fill="#EA6653" points="31.076,42.778 19.693,42.778 22.539,31.397 33.922,31.397 		"/>
		<g>
			<g>
				<path fill="#343C44" d="M35.301,42.778h-4.225l1.057-4.223h4.223L35.301,42.778z M31.882,42.134h2.935l0.735-2.935h-2.935
					L31.882,42.134z"/>
				<path fill="#343C44" d="M36.195,39.199H31.97l1.057-4.223h4.223L36.195,39.199z M32.776,38.555h2.935l0.735-2.935h-2.935
					L32.776,38.555z"/>
				<path fill="#343C44" d="M37.09,35.62h-4.225l1.057-4.223h4.223L37.09,35.62z M33.671,34.976h2.935l0.735-2.935h-2.935
					L33.671,34.976z"/>
				<path fill="#343C44" d="M38.88,42.778h-4.223l1.055-4.223h4.223L38.88,42.778z M35.461,42.134h2.935l0.735-2.935h-2.935
					L35.461,42.134z"/>
				<path fill="#343C44" d="M39.774,39.199h-4.223l1.055-4.223h4.225L39.774,39.199z M36.355,38.555h2.937l0.733-2.935H37.09
					L36.355,38.555z"/>
				<path fill="#343C44" d="M40.669,35.62h-4.223l1.055-4.223h4.225L40.669,35.62z M37.25,34.976h2.937l0.733-2.935h-2.935
					L37.25,34.976z"/>
				<path fill="#343C44" d="M42.459,42.778h-4.223l1.057-4.223h4.223L42.459,42.778z M39.042,42.134h2.935l0.733-2.935h-2.935
					L39.042,42.134z"/>
				<path fill="#343C44" d="M43.353,39.199H39.13l1.057-4.223h4.223L43.353,39.199z M39.934,38.555h2.937l0.733-2.935h-2.935
					L39.934,38.555z"/>
				<path fill="#343C44" d="M44.248,35.62h-4.223l1.057-4.223h4.223L44.248,35.62z M40.831,34.976h2.935l0.733-2.935h-2.935
					L40.831,34.976z"/>
				<path fill="#343C44" d="M46.038,42.778h-4.223l1.057-4.223h4.223L46.038,42.778z M42.621,42.134h2.935l0.733-2.935h-2.935
					L42.621,42.134z"/>
				<path fill="#343C44" d="M46.932,39.199h-4.223l1.057-4.223h4.223L46.932,39.199z M43.515,38.555h2.935l0.733-2.935h-2.935
					L43.515,38.555z"/>
				<path fill="#343C44" d="M47.827,35.62h-4.223l1.057-4.223h4.223L47.827,35.62z M44.41,34.976h2.935l0.733-2.935h-2.935
					L44.41,34.976z"/>
			</g>
		</g>
		<polygon fill="#CCCBCA" points="48.517,48.47 54.208,25.705 59.901,48.47 		"/>
		<g>
			<g>
				<path fill="#343C44" d="M24.645,27.186c-0.816,0-1.479-0.665-1.479-1.481c0-0.816,0.663-1.479,1.479-1.479
					c0.818,0,1.481,0.663,1.481,1.479h-0.683c0-0.44-0.359-0.796-0.798-0.796s-0.796,0.357-0.796,0.796
					c0,0.44,0.357,0.797,0.796,0.797V27.186z"/>
				<path fill="#343C44" d="M28.214,27.186c-0.816,0-1.479-0.665-1.479-1.481c0-0.816,0.663-1.479,1.479-1.479
					c0.816,0,1.479,0.663,1.479,1.479H29.01c0-0.44-0.357-0.796-0.796-0.796c-0.44,0-0.796,0.357-0.796,0.796
					c0,0.44,0.357,0.797,0.796,0.797V27.186z"/>
				<path fill="#343C44" d="M31.781,27.186c-0.816,0-1.479-0.665-1.479-1.481c0-0.816,0.663-1.479,1.479-1.479
					c0.816,0,1.479,0.663,1.479,1.479h-0.683c0-0.44-0.357-0.796-0.796-0.796c-0.438,0-0.797,0.357-0.797,0.796
					c0,0.44,0.359,0.797,0.797,0.797V27.186z"/>
				<path fill="#343C44" d="M35.351,27.186c-0.818,0-1.481-0.665-1.481-1.481c0-0.816,0.663-1.479,1.481-1.479
					c0.816,0,1.479,0.663,1.479,1.479h-0.683c0-0.44-0.357-0.796-0.796-0.796c-0.44,0-0.798,0.357-0.798,0.796
					c0,0.44,0.359,0.797,0.798,0.797V27.186z"/>
				<path fill="#343C44" d="M38.918,27.186c-0.816,0-1.479-0.665-1.479-1.481c0-0.816,0.663-1.479,1.479-1.479
					c0.816,0,1.481,0.663,1.481,1.479h-0.685c0-0.44-0.357-0.796-0.796-0.796c-0.44,0-0.796,0.357-0.796,0.796
					c0,0.44,0.357,0.797,0.796,0.797V27.186z"/>
				<path fill="#343C44" d="M42.486,27.186c-0.816,0-1.479-0.665-1.479-1.481c0-0.816,0.663-1.479,1.479-1.479
					c0.817,0,1.481,0.663,1.481,1.479h-0.683c0-0.44-0.359-0.796-0.798-0.796c-0.438,0-0.795,0.357-0.795,0.796
					c0,0.44,0.357,0.797,0.795,0.797V27.186z"/>
				<path fill="#343C44" d="M46.055,27.186c-0.816,0-1.479-0.665-1.479-1.481c0-0.816,0.663-1.479,1.479-1.479
					s1.479,0.663,1.479,1.479h-0.683c0-0.44-0.357-0.796-0.796-0.796c-0.44,0-0.796,0.357-0.796,0.796
					c0,0.44,0.357,0.797,0.796,0.797V27.186z"/>
				<path fill="#343C44" d="M49.624,27.186c-0.818,0-1.481-0.665-1.481-1.481c0-0.816,0.663-1.479,1.481-1.479
					c0.816,0,1.479,0.663,1.479,1.479h-0.683c0-0.44-0.359-0.796-0.796-0.796c-0.44,0-0.798,0.357-0.798,0.796
					c0,0.44,0.359,0.797,0.798,0.797V27.186z"/>
			</g>
		</g>
	</g>
</g>
</svg>
