<?xml version="1.0" encoding="utf-8"?>
<!-- Generator: Adobe Illustrator 17.0.0, SVG Export Plug-In . SVG Version: 6.00 Build 0)  -->
<!DOCTYPE svg PUBLIC "-//W3C//DTD SVG 1.1//EN" "http://www.w3.org/Graphics/SVG/1.1/DTD/svg11.dtd">
<svg version="1.1" id="Layer_1" xmlns="http://www.w3.org/2000/svg" xmlns:xlink="http://www.w3.org/1999/xlink" x="0px" y="0px"
	 width="74px" height="74px" viewBox="0 0 74 74" enable-background="new 0 0 74 74" xml:space="preserve">
<g>
	<ellipse fill="#FECE67" cx="36.999" cy="37.109" rx="36.977" ry="37.019"/>
	<path fill="#F5B541" d="M53.155,22.732c-0.01-0.006-0.013-0.015-0.019-0.019L51.37,20.95c-0.109-0.115-0.267-0.187-0.438-0.187
		c-0.173,0.004-0.33,0.071-0.44,0.187l-8.212-8.22c-0.008-0.011-0.017-0.019-0.027-0.025c-0.603-0.588-1.422-0.951-2.329-0.951
		h-5.849c-1.824,0-3.311,1.468-3.311,3.279c0,0.108,0.006,0.213,0.015,0.319c0.004,0.035,0.011,0.071,0.015,0.108
		c0.01,0.067,0.019,0.135,0.033,0.202c0.008,0.042,0.019,0.084,0.029,0.129c0.014,0.056,0.029,0.113,0.044,0.169
		c0.015,0.046,0.031,0.092,0.046,0.137c0.019,0.05,0.037,0.1,0.056,0.15c0.019,0.048,0.04,0.094,0.063,0.142
		c0.019,0.042,0.04,0.085,0.061,0.125c0.027,0.052,0.054,0.104,0.085,0.154c0.017,0.031,0.038,0.063,0.058,0.096
		c0.037,0.056,0.073,0.112,0.111,0.165c0.013,0.019,0.029,0.037,0.042,0.056c0.134,0.179,0.286,0.342,0.453,0.49l1.701,1.703
		c-3.025,0.575-5.784,1.899-8.084,3.771l-1.058-1.059l-0.904-0.909c-0.115-0.111-0.296-0.211-0.472-0.211
		c-0.173,0-0.325,0.073-0.44,0.186l-1.76,1.762c-0.115,0.115-0.186,0.273-0.186,0.446c0.004,0.171,0.071,0.329,0.186,0.438
		l0.862,0.863l1.129,1.132c-2.551,3.142-4.085,7.148-4.085,11.514c0,4.887,1.918,9.319,5.033,12.596l0.62,0.621l22.437,22.463
		c13.766-3.803,24.309-15.367,26.636-29.698L53.155,22.732z"/>
	<g>
		<path fill="#343C44" d="M39.923,18.307h-5.848c-1.826,0-3.311-1.47-3.311-3.279c0-1.807,1.486-3.277,3.311-3.277h5.848
			c1.827,0,3.311,1.47,3.311,3.277C43.234,16.837,41.75,18.307,39.923,18.307z M34.075,13.001c-1.138,0-2.064,0.909-2.064,2.028
			c0,1.118,0.925,2.029,2.064,2.029h5.848c1.138,0,2.065-0.911,2.065-2.029c0-1.119-0.927-2.028-2.065-2.028H34.075z"/>
		<path fill="#4A5158" d="M38.241,19.08l-2.494-0.002l0.002-2.193c0-0.161,0.062-0.309,0.182-0.43
			c0.123-0.123,0.282-0.185,0.442-0.185l1.246,0.002c0.159,0,0.319,0.062,0.44,0.183c0.123,0.123,0.182,0.315,0.182,0.477V19.08z"/>
		<g>
			
				<rect x="22.685" y="23.424" transform="matrix(0.7067 -0.7075 0.7075 0.7067 -9.9843 23.9804)" fill="#4A5158" width="2.494" height="1.217"/>
			<path fill="#343C44" d="M24.824,22.278l-2.645,2.646l-1.323-1.322c-0.111-0.113-0.18-0.269-0.182-0.442
				c0-0.171,0.071-0.329,0.182-0.44l1.762-1.768c0.113-0.111,0.269-0.181,0.442-0.181c0.173,0,0.355,0.096,0.468,0.21L24.824,22.278
				z"/>
		</g>
		<g>
			
				<rect x="48.814" y="23.417" transform="matrix(0.7064 0.7079 -0.7079 0.7064 31.7074 -28.3815)" fill="#4A5158" width="2.495" height="1.218"/>
			<path fill="#343C44" d="M51.815,24.919l-2.645-2.647l1.323-1.324c0.111-0.111,0.267-0.183,0.44-0.183
				c0.171,0,0.328,0.071,0.442,0.183l1.764,1.764c0.111,0.113,0.18,0.269,0.18,0.442c0.002,0.171-0.096,0.355-0.207,0.469
				L51.815,24.919z"/>
		</g>
		<ellipse fill="#343C44" cx="36.999" cy="37.109" rx="18.237" ry="18.258"/>
		<ellipse fill="#FFFFFF" cx="37" cy="37.109" rx="15.587" ry="15.606"/>
		<path fill="#95D9F1" d="M36.999,21.505v15.604h15.588C52.587,28.489,45.609,21.505,36.999,21.505z"/>
		<g>
			<g>
				<rect x="36.609" y="22.831" fill="#343C44" width="0.779" height="1.561"/>
				
					<rect x="33.877" y="23.428" transform="matrix(0.1734 0.9849 -0.9849 0.1734 52.1049 -14.4455)" fill="#343C44" width="1.561" height="0.78"/>
				
					<rect x="31.608" y="24.037" transform="matrix(0.3409 0.9401 -0.9401 0.3409 44.3101 -14.3484)" fill="#343C44" width="1.56" height="0.779"/>
				
					<rect x="29.479" y="25.03" transform="matrix(0.4997 0.8662 -0.8662 0.4997 37.1567 -13.4927)" fill="#343C44" width="1.56" height="0.78"/>
				
					<rect x="27.554" y="26.38" transform="matrix(0.6425 0.7663 -0.7663 0.6425 30.645 -12.1411)" fill="#343C44" width="1.56" height="0.781"/>
				<polygon fill="#343C44" points="27.019,29.235 25.825,28.232 26.326,27.632 27.518,28.635 				"/>
				
					<rect x="24.544" y="29.972" transform="matrix(0.8652 0.5014 -0.5014 0.8652 18.637 -8.6051)" fill="#343C44" width="1.56" height="0.779"/>
				
					<rect x="23.551" y="32.104" transform="matrix(0.9393 0.3431 -0.3431 0.9393 12.6258 -6.3753)" fill="#343C44" width="1.557" height="0.779"/>
				
					<rect x="22.943" y="34.375" transform="matrix(0.9848 0.1739 -0.1739 0.9848 6.4053 -3.5946)" fill="#343C44" width="1.558" height="0.781"/>
				<rect x="22.738" y="36.719" fill="#343C44" width="1.559" height="0.78"/>
				
					<rect x="23.331" y="38.674" transform="matrix(0.1723 0.985 -0.985 0.1723 58.4969 9.2883)" fill="#343C44" width="0.78" height="1.558"/>
				
					<rect x="23.94" y="40.947" transform="matrix(0.3392 0.9407 -0.9407 0.3392 55.3283 4.684)" fill="#343C44" width="0.781" height="1.558"/>
				
					<rect x="24.933" y="43.079" transform="matrix(0.4993 0.8664 -0.8664 0.4993 50.6787 0.0184)" fill="#343C44" width="0.781" height="1.559"/>
				
					<rect x="26.282" y="45.007" transform="matrix(0.641 0.7676 -0.7676 0.641 44.7192 -4.0334)" fill="#343C44" width="0.779" height="1.558"/>
				
					<rect x="27.943" y="46.67" transform="matrix(0.7656 0.6433 -0.6433 0.7656 37.1657 -7.1047)" fill="#343C44" width="0.78" height="1.56"/>
				
					<rect x="29.869" y="48.019" transform="matrix(0.8666 0.4991 -0.4991 0.8666 28.3912 -8.5892)" fill="#343C44" width="0.778" height="1.56"/>
				
					<rect x="31.999" y="49.013" transform="matrix(0.9393 0.343 -0.343 0.9393 19.0462 -8.0889)" fill="#343C44" width="0.779" height="1.56"/>
				
					<rect x="34.268" y="49.621" transform="matrix(0.9846 0.1749 -0.1749 0.9846 9.3484 -5.2843)" fill="#343C44" width="0.78" height="1.561"/>
				<rect x="36.609" y="49.827" fill="#343C44" width="0.779" height="1.561"/>
				
					<rect x="38.561" y="50.012" transform="matrix(0.1722 0.9851 -0.9851 0.1722 82.2172 2.9708)" fill="#343C44" width="1.561" height="0.78"/>
				
					<rect x="40.831" y="49.403" transform="matrix(0.3409 0.9401 -0.9401 0.3409 74.2361 -6.3001)" fill="#343C44" width="1.56" height="0.78"/>
				
					<rect x="42.961" y="48.408" transform="matrix(0.4997 0.8662 -0.8662 0.4997 64.1517 -13.4749)" fill="#343C44" width="1.56" height="0.781"/>
				
					<rect x="44.885" y="47.06" transform="matrix(0.6418 0.7668 -0.7668 0.6418 52.7418 -18.0235)" fill="#343C44" width="1.561" height="0.779"/>
				
					<rect x="46.548" y="45.395" transform="matrix(0.7657 0.6432 -0.6432 0.7657 40.5411 -19.7141)" fill="#343C44" width="1.559" height="0.78"/>
				
					<rect x="47.896" y="43.469" transform="matrix(0.8655 0.501 -0.501 0.8655 28.52 -18.4848)" fill="#343C44" width="1.562" height="0.78"/>
				
					<rect x="48.889" y="41.337" transform="matrix(0.9394 0.3427 -0.3427 0.9394 17.3074 -14.4949)" fill="#343C44" width="1.559" height="0.779"/>
				
					<rect x="49.498" y="39.064" transform="matrix(0.9845 0.1752 -0.1752 0.9845 7.6899 -8.1982)" fill="#343C44" width="1.558" height="0.78"/>
				<rect x="49.702" y="36.719" fill="#343C44" width="1.559" height="0.78"/>
				
					<rect x="49.886" y="33.986" transform="matrix(0.1723 0.985 -0.985 0.1723 75.8592 -20.7496)" fill="#343C44" width="0.78" height="1.558"/>
				
					<rect x="49.279" y="31.713" transform="matrix(0.3425 0.9395 -0.9395 0.3425 63.1851 -25.3009)" fill="#343C44" width="0.779" height="1.558"/>
				
					<rect x="48.285" y="29.581" transform="matrix(0.4993 0.8664 -0.8664 0.4993 50.6756 -26.9726)" fill="#343C44" width="0.781" height="1.56"/>
				
					<rect x="46.938" y="27.653" transform="matrix(0.6409 0.7677 -0.7677 0.6409 38.8243 -26.1197)" fill="#343C44" width="0.779" height="1.559"/>
				
					<rect x="45.276" y="25.99" transform="matrix(0.7656 0.6433 -0.6433 0.7656 27.9247 -23.1025)" fill="#343C44" width="0.78" height="1.559"/>
				
					<rect x="43.35" y="24.641" transform="matrix(0.8644 0.5029 -0.5029 0.8644 18.7149 -18.5471)" fill="#343C44" width="0.78" height="1.558"/>
				
					<rect x="41.22" y="23.645" transform="matrix(0.9394 0.343 -0.343 0.9394 10.9001 -12.7888)" fill="#343C44" width="0.779" height="1.56"/>
				
					<rect x="38.95" y="23.038" transform="matrix(0.9846 0.1749 -0.1749 0.9846 4.7715 -6.5128)" fill="#343C44" width="0.78" height="1.559"/>
			</g>
		</g>
		<g>
			<circle fill="#FFFFFF" cx="37" cy="37.109" r="1.871"/>
			<path fill="#343C44" d="M36.999,39.606c-1.374,0-2.494-1.121-2.494-2.497c0-1.378,1.119-2.496,2.494-2.496
				c1.376,0,2.494,1.118,2.494,2.496C39.493,38.485,38.375,39.606,36.999,39.606z M36.999,35.86c-0.687,0-1.246,0.561-1.246,1.249
				c0,0.688,0.558,1.247,1.246,1.247c0.687,0,1.248-0.559,1.248-1.247C38.247,36.421,37.686,35.86,36.999,35.86z"/>
			<rect x="32.947" y="36.484" fill="#343C44" width="2.183" height="1.249"/>
			<rect x="38.871" y="36.484" fill="#343C44" width="7.17" height="1.249"/>
		</g>
		<path fill="#E6E5E5" d="M36.999,47.212c-1.374,0-2.494-1.119-2.494-2.495c0-1.378,1.119-2.498,2.494-2.498
			c1.376,0,2.494,1.12,2.494,2.498C39.493,46.094,38.375,47.212,36.999,47.212z M36.999,43.469c-0.687,0-1.246,0.559-1.246,1.249
			c0,0.688,0.558,1.247,1.246,1.247c0.687,0,1.248-0.559,1.248-1.247C38.247,44.028,37.686,43.469,36.999,43.469z"/>
	</g>
</g>
</svg>
