<?xml version="1.0" encoding="utf-8"?>
<!-- Generator: Adobe Illustrator 17.0.0, SVG Export Plug-In . SVG Version: 6.00 Build 0)  -->
<!DOCTYPE svg PUBLIC "-//W3C//DTD SVG 1.1//EN" "http://www.w3.org/Graphics/SVG/1.1/DTD/svg11.dtd">
<svg version="1.1" id="Layer_1" xmlns="http://www.w3.org/2000/svg" xmlns:xlink="http://www.w3.org/1999/xlink" x="0px" y="0px"
	 width="74px" height="74px" viewBox="0 0 74 74" enable-background="new 0 0 74 74" xml:space="preserve">
<g>
	<ellipse fill="#FECE67" cx="36.964" cy="36.941" rx="37.102" ry="37.062"/>
	<path fill="#F5B541" d="M44.609,73.211C59.001,70.2,70.327,58.859,73.3,44.468l-24.31-24.283l-3.689,0.623h-0.002l-4.083-4.079
		l-4.251,2.824l-4.251-2.824l-2.739,4.308l-5.035-0.852l-0.743,5.045l-4.95,1.274l1.375,4.91l-4.003,3.171l3.255,3.931l-2.366,4.52
		l4.438,4.433l-0.181,2.926L44.609,73.211z"/>
	<g>
		<polygon fill="#FFFFFF" points="36.966,19.554 41.217,16.73 43.954,21.038 48.991,20.185 49.737,25.234 54.683,26.504 
			53.308,31.414 57.31,34.584 54.055,38.513 56.422,43.033 51.848,45.303 52.167,50.394 47.063,50.607 45.285,55.387 40.539,53.511 
			36.966,57.155 33.391,53.511 28.645,55.387 26.865,50.607 21.763,50.394 22.082,45.303 17.507,43.033 19.875,38.513 
			16.618,34.584 20.62,31.414 19.247,26.504 24.193,25.234 24.939,20.185 29.976,21.038 32.713,16.73 		"/>
		<polygon fill="#EA6653" points="34.073,50.352 30.23,51.873 28.787,48.002 24.659,47.829 24.918,43.71 21.217,41.873 
			23.132,38.215 20.493,35.031 23.735,32.468 22.624,28.491 26.628,27.464 27.231,23.377 31.307,24.066 33.522,20.581 
			36.966,22.867 40.408,20.581 42.623,24.066 46.701,23.377 47.302,27.464 51.308,28.491 50.195,32.468 53.435,35.031 50.8,38.215 
			52.714,41.873 49.012,43.71 49.27,47.829 45.145,48.002 43.702,51.873 39.857,50.352 36.966,53.303 		"/>
		<g>
			<path fill="#FFFFFF" d="M31.507,40.749c-0.235,0-0.462-0.117-0.599-0.321l-2.799-4.193v4.514h-1.441v-6.892
				c0-0.317,0.208-0.598,0.512-0.689c0.304-0.092,0.632,0.025,0.809,0.289l2.797,4.192v-4.512h1.443v6.89
				c0,0.318-0.208,0.598-0.512,0.691C31.648,40.737,31.576,40.749,31.507,40.749z"/>
			<path fill="#FFFFFF" d="M41.39,40.749c-0.083,0-0.164-0.015-0.245-0.044c-0.285-0.104-0.476-0.373-0.476-0.677v-6.89h1.441v4.902
				l1.302-1.558c0.137-0.165,0.339-0.26,0.553-0.26l0,0c0.216,0,0.418,0.094,0.555,0.26l1.298,1.557v-4.9h1.441v6.89
				c0,0.304-0.189,0.573-0.474,0.677c-0.287,0.104-0.605,0.017-0.801-0.218l-2.019-2.42l-2.023,2.422
				C41.804,40.657,41.6,40.749,41.39,40.749z"/>
			<g>
				<path fill="#FFFFFF" d="M39.229,40.749h-4.839c-0.399,0-0.72-0.323-0.72-0.721v-6.17c0-0.398,0.322-0.72,0.72-0.72h4.839v1.439
					h-4.118v4.731h4.118V40.749z"/>
				<rect x="33.67" y="36.222" fill="#FFFFFF" width="3.5" height="1.441"/>
			</g>
		</g>
	</g>
</g>
</svg>
