<?xml version="1.0" encoding="utf-8"?>
<!-- Generator: Adobe Illustrator 17.0.0, SVG Export Plug-In . SVG Version: 6.00 Build 0)  -->
<!DOCTYPE svg PUBLIC "-//W3C//DTD SVG 1.1//EN" "http://www.w3.org/Graphics/SVG/1.1/DTD/svg11.dtd">
<svg version="1.1" id="Layer_1" xmlns="http://www.w3.org/2000/svg" xmlns:xlink="http://www.w3.org/1999/xlink" x="0px" y="0px"
	 width="74px" height="74px" viewBox="0 0 74 74" enable-background="new 0 0 74 74" xml:space="preserve">
<g>
	<ellipse fill="#F4836B" cx="37.038" cy="37.123" rx="36.977" ry="36.893"/>
	<path fill="#EA6653" d="M51.165,17.408c-0.006-0.004-0.009-0.013-0.013-0.019l-0.157-0.155c-0.006-0.006-0.015-0.01-0.019-0.015
		c-0.25-0.205-0.568-0.328-0.912-0.328H24.011c-0.787,0-1.43,0.642-1.43,1.427v37.608c0,0.291,0.09,0.567,0.238,0.795
		c0,0,0.006,0,0.006,0.006l0.384,0.385c0.006,0,0.006,0.006,0.006,0.006l16.807,16.769c18.049-1.44,32.433-15.8,33.864-33.81
		L51.165,17.408z"/>
	<g>
		<g>
			<path fill="#343C44" d="M24.011,57.355c-0.787,0-1.43-0.644-1.43-1.429V18.318c0-0.785,0.643-1.427,1.43-1.427h26.052
				c0.787,0,1.43,0.642,1.43,1.427v37.608c0,0.785-0.643,1.429-1.43,1.429H24.011z"/>
			<rect x="24.871" y="20.841" fill="#95D9F1" width="24.334" height="30.944"/>
			<path fill="#4A5158" d="M39.418,54.696c0,0.324-0.265,0.586-0.591,0.586h-3.578c-0.325,0-0.591-0.262-0.591-0.586V54.45
				c0-0.326,0.267-0.594,0.591-0.594h3.578c0.326,0,0.591,0.268,0.591,0.594V54.696z"/>
			<path fill="#4A5158" d="M40.009,18.924c0,0.155-0.121,0.276-0.274,0.276h-5.393c-0.155,0-0.278-0.121-0.278-0.276v-0.115
				c0-0.151,0.123-0.276,0.278-0.276h5.393c0.154,0,0.274,0.124,0.274,0.276V18.924z"/>
		</g>
		<g>
			<path fill="#FFFFFF" d="M42.772,42.04c-1.469,1.463-3.496,2.367-5.736,2.367c-4.477,0-8.111-3.624-8.111-8.092
				c0-3.373,2.069-6.265,5.01-7.478l3.1,7.478L42.772,42.04z"/>
			<path fill="#343C44" d="M45.148,36.313h-8.113v-8.092C41.515,28.221,45.148,31.845,45.148,36.313z"/>
			<path fill="#5AB5D9" d="M45.148,36.313c0,2.235-0.908,4.258-2.375,5.725l-5.738-5.725H45.148z"/>
			<path fill="#EA6653" d="M37.036,28.219v8.096l-3.1-7.478C34.888,28.439,35.94,28.219,37.036,28.219z"/>
		</g>
	</g>
</g>
</svg>
