<?xml version="1.0" encoding="utf-8"?>
<!-- Generator: Adobe Illustrator 17.0.0, SVG Export Plug-In . SVG Version: 6.00 Build 0)  -->
<!DOCTYPE svg PUBLIC "-//W3C//DTD SVG 1.1//EN" "http://www.w3.org/Graphics/SVG/1.1/DTD/svg11.dtd">
<svg version="1.1" id="Layer_1" xmlns="http://www.w3.org/2000/svg" xmlns:xlink="http://www.w3.org/1999/xlink" x="0px" y="0px"
	 width="74px" height="74px" viewBox="0 0 74 74" enable-background="new 0 0 74 74" xml:space="preserve">
<g>
	<ellipse fill="#FECE67" cx="36.958" cy="37.026" rx="36.977" ry="36.936"/>
	<path fill="#F5B541" d="M73.734,40.878L55.871,23.037c-0.263-0.267-0.616-0.399-0.958-0.399h-35.91
		c-0.344,0-0.695,0.132-0.958,0.399c-0.267,0.268-0.401,0.616-0.401,0.963v22.529h14.457v0.01H14.294v0.671
		c0,0.545,0.192,1.082,0.574,1.511l25.133,25.106C57.723,72.383,71.91,58.469,73.734,40.878z"/>
	<g>
		<g>
			<path fill="#343C44" d="M17.644,46.527V24.002c0-0.349,0.132-0.698,0.399-0.964c0.265-0.265,0.614-0.399,0.96-0.399h35.91
				c0.346,0,0.695,0.134,0.96,0.399c0.267,0.266,0.399,0.616,0.399,0.964v22.525H17.644z"/>
			<path fill="#FFFFFF" d="M59.622,47.212c0,0.579-0.223,1.16-0.666,1.603c-0.443,0.443-1.025,0.665-1.605,0.665H16.565
				c-0.58,0-1.161-0.222-1.605-0.665s-0.666-1.024-0.666-1.603V46.54h45.328V47.212z"/>
			<path fill="#CCCBCA" d="M41.813,46.738c0,0.219-0.083,0.433-0.25,0.6c-0.165,0.161-0.382,0.243-0.595,0.243h-8.023
				c-0.211,0-0.428-0.082-0.593-0.243c-0.167-0.167-0.25-0.382-0.25-0.6v-0.211h9.71V46.738z"/>
			<rect x="20.141" y="25.139" fill="#FFFFFF" width="33.633" height="18.894"/>
		</g>
		<g>
			<path fill="#343C44" d="M57.85,27.896H47.547c-0.975,0-1.774,0.798-1.774,1.774v21.877c0,0.976,0.799,1.772,1.774,1.772H57.85
				c0.975,0,1.772-0.796,1.772-1.772V29.67C59.622,28.694,58.825,27.896,57.85,27.896z"/>
			<rect x="46.779" y="31.741" fill="#FFFFFF" width="11.837" height="17.739"/>
			<path fill="#4A5158" d="M51.615,51.816c-0.196,0-0.361-0.165-0.361-0.362v-0.111c0-0.198,0.165-0.359,0.361-0.359h2.165
				c0.196,0,0.361,0.161,0.361,0.359v0.111c0,0.197-0.165,0.362-0.361,0.362H51.615z"/>
			<g>
				<path fill="#4A5158" d="M53.191,29.823c0,0.27-0.219,0.489-0.491,0.489c-0.269,0-0.493-0.219-0.493-0.489
					c0-0.274,0.224-0.495,0.493-0.495C52.972,29.329,53.191,29.549,53.191,29.823z"/>
				<path fill="#343C44" d="M52.878,29.823c0,0.096-0.081,0.177-0.179,0.177c-0.102,0-0.178-0.081-0.178-0.177
					c0-0.102,0.077-0.182,0.178-0.182C52.798,29.641,52.878,29.722,52.878,29.823z"/>
			</g>
		</g>
		<g>
			<g>
				<rect x="38.381" y="39.037" fill="#F4836B" width="10.911" height="3.179"/>
				<polygon fill="#F4836B" points="49.292,37.223 49.292,44.032 52.699,40.629 				"/>
			</g>
		</g>
		<g>
			<g>
				<rect x="32.929" y="34.044" fill="#95D9F1" width="10.904" height="3.179"/>
				<polygon fill="#95D9F1" points="32.929,32.23 32.929,39.037 29.519,35.634 				"/>
			</g>
		</g>
	</g>
</g>
</svg>
