<?xml version="1.0" encoding="utf-8"?>
<!-- Generator: Adobe Illustrator 17.0.0, SVG Export Plug-In . SVG Version: 6.00 Build 0)  -->
<!DOCTYPE svg PUBLIC "-//W3C//DTD SVG 1.1//EN" "http://www.w3.org/Graphics/SVG/1.1/DTD/svg11.dtd">
<svg version="1.1" id="Layer_1" xmlns="http://www.w3.org/2000/svg" xmlns:xlink="http://www.w3.org/1999/xlink" x="0px" y="0px"
	 width="74px" height="74px" viewBox="0 0 74 74" enable-background="new 0 0 74 74" xml:space="preserve">
<g>
	<ellipse fill="#4A5158" cx="36.971" cy="37.137" rx="37.019" ry="36.936"/>
	<path fill="#343C44" d="M36.638,0.744v5.962c0,1.035,0.405,2.008,1.142,2.742l7.205,7.187c-0.457,0.242-0.969,0.372-1.503,0.372
		H27.413h-5.869c-1.038,0-2.012,0.404-2.752,1.139c-0.736,0.729-1.142,1.701-1.142,2.738c0,1.035,0.406,2.013,1.142,2.746
		l7.685,7.668H15.715c-0.525,0-0.955,0.43-0.955,0.953v17.396c0,0.177,0.048,0.34,0.135,0.481l0.325,0.33l23.623,23.569
		c19.576-0.974,35.149-17.116,35.149-36.89c0-0.115-0.008-0.228-0.01-0.341L37.314,0.209c-0.113,0-0.229-0.008-0.342-0.008
		c-0.113,0-0.223,0.008-0.334,0.008V0.744z"/>
	<g>
		<g>
			<path fill="#FFFFFF" d="M15.715,50.602c-0.525,0-0.955-0.43-0.955-0.953V32.251c0-0.525,0.43-0.953,0.955-0.953h42.513
				c0.525,0,0.955,0.428,0.955,0.953v17.398c0,0.523-0.43,0.953-0.955,0.953H15.715z"/>
			<g>
				<rect x="16.618" y="45.658" fill="#D9D8D7" width="3.094" height="3.091"/>
				<rect x="20.796" y="45.658" fill="#D9D8D7" width="3.096" height="3.091"/>
				<rect x="24.976" y="45.658" fill="#D9D8D7" width="3.096" height="3.091"/>
				<rect x="29.154" y="45.658" fill="#D9D8D7" width="15.634" height="3.091"/>
				<rect x="45.872" y="45.658" fill="#D9D8D7" width="3.096" height="3.091"/>
				<rect x="50.05" y="45.658" fill="#D9D8D7" width="3.096" height="3.091"/>
				<rect x="54.23" y="45.658" fill="#D9D8D7" width="3.094" height="3.091"/>
				<rect x="16.618" y="41.489" fill="#D9D8D7" width="3.094" height="3.089"/>
				<rect x="20.796" y="41.489" fill="#D9D8D7" width="3.096" height="3.089"/>
				<rect x="24.976" y="41.489" fill="#D9D8D7" width="3.096" height="3.089"/>
				<rect x="29.154" y="41.489" fill="#D9D8D7" width="3.096" height="3.089"/>
				<rect x="33.334" y="41.489" fill="#D9D8D7" width="3.096" height="3.089"/>
				<rect x="37.512" y="41.489" fill="#D9D8D7" width="3.096" height="3.089"/>
				<rect x="41.692" y="41.489" fill="#D9D8D7" width="3.096" height="3.089"/>
				<rect x="45.872" y="41.489" fill="#D9D8D7" width="3.096" height="3.089"/>
				<rect x="50.05" y="41.489" fill="#D9D8D7" width="3.096" height="3.089"/>
				<rect x="54.23" y="41.489" fill="#D9D8D7" width="3.094" height="3.089"/>
				<rect x="16.618" y="37.321" fill="#D9D8D7" width="3.094" height="3.087"/>
				<rect x="20.796" y="37.321" fill="#D9D8D7" width="3.096" height="3.087"/>
				<rect x="24.976" y="37.321" fill="#D9D8D7" width="3.096" height="3.087"/>
				<rect x="29.154" y="37.321" fill="#D9D8D7" width="3.096" height="3.087"/>
				<rect x="33.334" y="37.321" fill="#D9D8D7" width="3.096" height="3.087"/>
				<rect x="37.512" y="37.321" fill="#D9D8D7" width="3.096" height="3.087"/>
				<rect x="41.692" y="37.321" fill="#D9D8D7" width="3.096" height="3.087"/>
				<rect x="45.872" y="37.321" fill="#D9D8D7" width="3.096" height="3.087"/>
				<rect x="50.05" y="37.321" fill="#D9D8D7" width="3.096" height="3.087"/>
				<rect x="54.23" y="37.321" fill="#D9D8D7" width="3.094" height="3.087"/>
				<rect x="16.618" y="33.15" fill="#D9D8D7" width="3.094" height="3.089"/>
				<rect x="20.796" y="33.15" fill="#D9D8D7" width="3.096" height="3.089"/>
				<rect x="24.976" y="33.15" fill="#D9D8D7" width="3.096" height="3.089"/>
				<rect x="29.154" y="33.15" fill="#D9D8D7" width="3.096" height="3.089"/>
				<rect x="33.334" y="33.15" fill="#D9D8D7" width="3.096" height="3.089"/>
				<rect x="37.512" y="33.15" fill="#D9D8D7" width="3.096" height="3.089"/>
				<rect x="41.692" y="33.15" fill="#D9D8D7" width="3.096" height="3.089"/>
				<rect x="45.872" y="33.15" fill="#D9D8D7" width="3.096" height="3.089"/>
				<rect x="50.05" y="33.15" fill="#D9D8D7" width="3.096" height="3.089"/>
				<rect x="54.23" y="33.15" fill="#D9D8D7" width="3.094" height="3.089"/>
			</g>
		</g>
		<rect x="36.044" y="28.981" fill="#FFFFFF" width="1.857" height="2.316"/>
		<path fill="#FFFFFF" d="M37.306,28.981h-0.669v-1.007c0-0.859-0.333-1.664-0.938-2.27c-0.613-0.606-1.424-0.942-2.277-0.942
			H21.542c-1.034,0-2.01-0.403-2.748-1.133c-0.736-0.736-1.142-1.71-1.142-2.746c0-1.035,0.406-2.01,1.14-2.742
			c0.74-0.732,1.716-1.135,2.75-1.135h21.94c0.859,0,1.666-0.334,2.274-0.94c0.613-0.61,0.949-1.419,0.949-2.274
			c0-0.855-0.336-1.661-0.949-2.268c-0.607-0.608-1.415-0.942-2.274-0.942h-2.956c-1.038,0-2.014-0.403-2.748-1.135
			c-0.734-0.733-1.14-1.708-1.14-2.744V0.201h0.669v6.502c0,0.857,0.334,1.665,0.944,2.272c0.607,0.606,1.416,0.94,2.276,0.94h2.956
			c1.038,0,2.012,0.404,2.746,1.137c0.738,0.732,1.146,1.707,1.146,2.74c0,1.033-0.408,2.01-1.146,2.746
			c-0.734,0.733-1.708,1.135-2.746,1.135h-21.94c-0.857,0-1.664,0.334-2.277,0.942c-0.609,0.604-0.944,1.409-0.944,2.268
			c0,0.859,0.334,1.665,0.944,2.272c0.613,0.606,1.42,0.94,2.277,0.94h11.881c1.032,0,2.008,0.405,2.75,1.135
			c0.732,0.734,1.134,1.708,1.134,2.744V28.981z"/>
	</g>
</g>
</svg>
