<?xml version="1.0" encoding="utf-8"?>
<!-- Generator: Adobe Illustrator 17.0.0, SVG Export Plug-In . SVG Version: 6.00 Build 0)  -->
<!DOCTYPE svg PUBLIC "-//W3C//DTD SVG 1.1//EN" "http://www.w3.org/Graphics/SVG/1.1/DTD/svg11.dtd">
<svg version="1.1" id="Layer_1" xmlns="http://www.w3.org/2000/svg" xmlns:xlink="http://www.w3.org/1999/xlink" x="0px" y="0px"
	 width="74px" height="74px" viewBox="0 0 74 74" enable-background="new 0 0 74 74" xml:space="preserve">
<g>
	<ellipse fill="#95D9F1" cx="36.96" cy="36.79" rx="37.201" ry="36.969"/>
	<path fill="#71C9E9" d="M60.136,25.609c-0.44-0.443-1.056-0.716-1.732-0.716c-1.066,0-1.983,0.683-2.314,1.637l-4.935-4.904
		c-0.274-0.277-0.639-0.417-1.004-0.417h-4.392c-0.365,0-0.73,0.14-1.008,0.417c-0.272,0.271-0.413,0.633-0.413,0.99v4.103h-0.97
		l-5.923-5.887l-0.085-0.086c-0.012-0.01-0.025-0.015-0.037-0.023c-0.015-0.014-0.031-0.023-0.05-0.035
		c-0.05-0.031-0.102-0.056-0.164-0.071c-0.272-0.071-0.556,0.058-0.689,0.305l-2.76,5.163h-0.002l-4.488-4.46
		c-0.278-0.277-0.643-0.417-1.002-0.417h-4.398c-0.363,0-0.728,0.14-1.002,0.417c-0.278,0.271-0.417,0.633-0.417,0.99v4.103h-3.98
		l-1.047-1.04c-0.046-0.048-0.091-0.096-0.139-0.138c-0.023-0.023-0.054-0.038-0.079-0.061c-0.062-0.052-0.128-0.1-0.195-0.146
		c-0.044-0.031-0.089-0.062-0.137-0.09c-0.081-0.05-0.168-0.09-0.257-0.13c-0.043-0.019-0.083-0.04-0.127-0.058
		c-0.098-0.037-0.201-0.063-0.303-0.09c-0.041-0.008-0.079-0.023-0.12-0.031c-0.145-0.027-0.293-0.042-0.446-0.042
		c-0.137,0-0.27,0.015-0.4,0.036c-0.025,0.004-0.048,0.006-0.072,0.012c-0.027,0.006-0.05,0.013-0.077,0.017
		c-0.083,0.019-0.166,0.044-0.245,0.071c-0.037,0.013-0.071,0.023-0.106,0.037c-0.015,0.008-0.031,0.009-0.046,0.015
		c0,0-0.006,0.004-0.01,0.004c-0.131,0.056-0.255,0.127-0.373,0.202c-0.029,0.017-0.056,0.036-0.083,0.056
		c-0.052,0.036-0.102,0.075-0.152,0.115c-0.021,0.017-0.041,0.036-0.062,0.056c-0.035,0.029-0.07,0.056-0.1,0.086
		c-0.004,0.004-0.006,0.006-0.01,0.01c-0.043,0.044-0.081,0.09-0.122,0.136c-0.014,0.017-0.027,0.031-0.041,0.048
		c-0.037,0.044-0.072,0.09-0.104,0.136c-0.021,0.029-0.039,0.058-0.058,0.088c-0.021,0.033-0.046,0.063-0.066,0.096v0.006l0,0
		c-0.019,0.035-0.033,0.073-0.05,0.109c-0.041,0.077-0.079,0.155-0.11,0.238c-0.019,0.05-0.033,0.1-0.048,0.15
		c-0.029,0.096-0.058,0.192-0.075,0.294c-0.002,0.006-0.004,0.01-0.004,0.015l0.002,0.002c-0.021,0.13-0.041,0.261-0.041,0.399
		c0,0.157,0.017,0.311,0.046,0.461c0.01,0.054,0.029,0.104,0.043,0.155c0.025,0.094,0.05,0.188,0.087,0.278
		c0.023,0.058,0.052,0.111,0.077,0.165c0.041,0.081,0.079,0.157,0.126,0.23c0.035,0.054,0.071,0.106,0.11,0.155
		c0.025,0.035,0.044,0.071,0.073,0.106l0.077,0.077c0.056,0.061,0.114,0.119,0.176,0.175l0.077,0.077l8.391,8.339v3.643
		c0,3.884,1.539,7.405,4.042,10.018c0.11,0.115,0.224,0.228,0.344,0.344l20.812,20.682c14.568-4.292,25.397-17.202,26.509-32.791
		L60.136,25.609z"/>
	<g>
		<path fill="#FFFFFF" d="M22.347,27.326V22.62c0-0.361,0.139-0.722,0.417-0.998c0.276-0.274,0.641-0.414,1.002-0.414h4.398
			c0.363,0,0.726,0.14,1.004,0.414c0.276,0.276,0.417,0.637,0.417,0.998v4.706H22.347z"/>
		<path fill="#FFFFFF" d="M44.338,27.326V22.62c0-0.361,0.137-0.722,0.415-0.998c0.28-0.274,0.643-0.414,1.004-0.414h4.398
			c0.363,0,0.724,0.14,1.002,0.414c0.276,0.276,0.415,0.637,0.415,0.998v4.706H44.338z"/>
		<path fill="#343C44" d="M36.96,55.71c-8.055,0-14.612-6.516-14.612-14.519V27.326h7.239v13.865c0,4.042,3.306,7.328,7.374,7.328
			c4.067,0,7.378-3.286,7.378-7.328V27.326h7.235v13.865C51.572,49.195,45.017,55.71,36.96,55.71z"/>
		<path fill="#FFFFFF" d="M36.96,34.055c-0.048,0-0.098-0.008-0.147-0.019c-0.274-0.067-0.466-0.311-0.466-0.591v-9.792l-2.115,3.96
			c-0.106,0.198-0.313,0.324-0.541,0.324H17.357v-1.219h15.966l3.096-5.794c0.131-0.247,0.415-0.376,0.689-0.307
			c0.272,0.069,0.466,0.313,0.466,0.591V31l2.113-3.958c0.106-0.199,0.315-0.324,0.541-0.324h16.337v1.219H40.597l-3.096,5.794
			C37.394,33.933,37.184,34.055,36.96,34.055z"/>
		<path fill="#FFFFFF" d="M15.518,29.762c-1.352,0-2.451-1.092-2.451-2.436c0-1.343,1.099-2.435,2.451-2.435
			s2.451,1.092,2.451,2.435C17.969,28.67,16.87,29.762,15.518,29.762z M15.518,26.11c-0.676,0-1.226,0.545-1.226,1.217
			c0,0.672,0.55,1.219,1.226,1.219c0.676,0,1.225-0.547,1.225-1.219C16.743,26.655,16.194,26.11,15.518,26.11z"/>
		<path fill="#FFFFFF" d="M58.405,29.762c-1.352,0-2.453-1.092-2.453-2.436c0-1.343,1.101-2.435,2.453-2.435
			c1.35,0,2.449,1.092,2.449,2.435C60.854,28.67,59.755,29.762,58.405,29.762z M58.405,26.11c-0.678,0-1.228,0.545-1.228,1.217
			c0,0.672,0.55,1.219,1.228,1.219c0.674,0,1.224-0.547,1.224-1.219C59.63,26.655,59.079,26.11,58.405,26.11z"/>
	</g>
</g>
</svg>
