<?xml version="1.0" encoding="utf-8"?>
<!-- Generator: Adobe Illustrator 17.0.0, SVG Export Plug-In . SVG Version: 6.00 Build 0)  -->
<!DOCTYPE svg PUBLIC "-//W3C//DTD SVG 1.1//EN" "http://www.w3.org/Graphics/SVG/1.1/DTD/svg11.dtd">
<svg version="1.1" id="Layer_1" xmlns="http://www.w3.org/2000/svg" xmlns:xlink="http://www.w3.org/1999/xlink" x="0px" y="0px"
	 width="74px" height="74px" viewBox="0 0 74 74" enable-background="new 0 0 74 74" xml:space="preserve">
<g>
	<ellipse fill="#95D9F1" cx="37.029" cy="37.021" rx="36.894" ry="36.979"/>
	<path fill="#71C9E9" d="M36.553,18.711l-3.542-3.551c-0.011-0.012-0.025-0.023-0.036-0.037c-0.004-0.004-0.008-0.006-0.01-0.009
		c-0.006-0.006-0.01-0.012-0.015-0.016c-0.048-0.042-0.103-0.073-0.161-0.098c-0.014-0.006-0.029-0.008-0.042-0.013
		c-0.052-0.015-0.105-0.027-0.159-0.029c-0.021-0.002-0.04-0.002-0.059-0.002c-0.069,0.004-0.14,0.015-0.209,0.046
		c-3.672,1.603-6.231,4.934-6.907,8.798l-0.006-0.004l-1.837-1.841c-0.029-0.035-0.057-0.067-0.094-0.096
		c-0.002-0.002-0.006-0.004-0.008-0.004c-0.008-0.008-0.019-0.013-0.029-0.021c-0.056-0.04-0.117-0.075-0.188-0.094
		c-0.32-0.082-0.647,0.104-0.734,0.424C22.177,23.437,22,24.76,22,26.083c0,2.313,0.513,4.536,1.528,6.611l1.013,2.077l7.018,7.032
		l0,0c-1.18,1.338-2.881,2.169-4.714,2.223l-2.304,0.071l-1.013,2.077C22.514,48.243,22,50.472,22,52.785
		c0,2.052,0.414,4.051,1.224,5.941c0.023,0.052,0.052,0.1,0.084,0.142c0.025,0.029,0.054,0.058,0.082,0.077l14.984,15.019
		c19.751-0.71,35.549-16.974,35.549-36.944c0-0.163-0.011-0.325-0.013-0.488L37.517,0.058c-0.163-0.002-0.324-0.014-0.486-0.014
		c-0.161,0-0.318,0.012-0.477,0.014V18.711z"/>
	<g>
		<rect x="36.553" y="0.044" fill="#FFFFFF" width="0.952" height="31.312"/>
		<g>
			<g>
				<path fill="#4A5158" d="M37.03,37.676c-0.278,0-0.571-0.012-0.898-0.037l-0.358-0.027l-0.144-0.33
					c-1.502-3.477-4.911-5.795-8.688-5.909l-0.358-0.009l-0.159-0.323c-0.795-1.626-1.197-3.371-1.197-5.193
					c0-4.707,2.785-8.965,7.096-10.846c0.301-0.131,0.651,0.006,0.783,0.307c0.13,0.303-0.008,0.655-0.309,0.787
					c-3.877,1.689-6.38,5.519-6.38,9.752c0,1.52,0.31,2.981,0.927,4.35c3.965,0.253,7.521,2.672,9.224,6.273
					c0.305,0.013,0.613,0.013,0.918,0c1.703-3.601,5.259-6.02,9.224-6.273c0.617-1.369,0.929-2.83,0.929-4.35
					c0-4.233-2.505-8.063-6.382-9.752c-0.301-0.132-0.439-0.484-0.306-0.787c0.13-0.302,0.481-0.438,0.781-0.307
					c4.312,1.879,7.096,6.139,7.096,10.846c0,1.82-0.404,3.567-1.197,5.193l-0.159,0.323l-0.358,0.009
					c-3.775,0.113-7.186,2.432-8.688,5.909l-0.144,0.33l-0.358,0.027C37.599,37.664,37.306,37.676,37.03,37.676z"/>
				<path fill="#4A5158" d="M37.03,41.141c-0.356,0-0.728-0.015-1.14-0.046l-2.302-0.173l-0.918-2.123
					c-1.008-2.331-3.294-3.885-5.825-3.96l-2.306-0.069l-1.013-2.075c-1.011-2.073-1.525-4.298-1.525-6.613
					c0-1.323,0.174-2.642,0.517-3.918c0.086-0.319,0.412-0.507,0.732-0.42c0.316,0.086,0.504,0.413,0.418,0.731
					c-0.316,1.175-0.475,2.388-0.475,3.607c0,2.133,0.471,4.179,1.402,6.087l0.699,1.43l1.588,0.048
					c2.988,0.088,5.691,1.923,6.88,4.678l0.632,1.461l1.586,0.119c0.764,0.058,1.335,0.058,2.097,0l1.586-0.119l0.632-1.461
					c1.19-2.755,3.89-4.59,6.882-4.678l1.586-0.048l0.699-1.43c0.931-1.908,1.404-3.956,1.404-6.087c0-1.217-0.161-2.43-0.477-3.607
					c-0.086-0.319,0.102-0.645,0.42-0.731c0.316-0.086,0.644,0.102,0.73,0.42c0.343,1.279,0.517,2.595,0.517,3.918
					c0,2.313-0.513,4.54-1.525,6.613l-1.013,2.075l-2.306,0.069c-2.53,0.075-4.817,1.63-5.825,3.96l-0.918,2.123l-2.302,0.173
					C37.756,41.125,37.384,41.141,37.03,41.141z"/>
				<path fill="#4A5158" d="M23.768,59.086c-0.23,0-0.45-0.134-0.548-0.361c-0.808-1.887-1.218-3.885-1.218-5.939
					c0-2.315,0.513-4.542,1.525-6.615l1.015-2.073l2.304-0.071c2.53-0.075,4.817-1.63,5.825-3.96l0.918-2.121l2.302-0.175
					c0.806-0.061,1.461-0.061,2.277,0l2.302,0.175l0.918,2.121c1.007,2.331,3.294,3.885,5.825,3.96l2.306,0.071l1.013,2.073
					c1.011,2.073,1.525,4.3,1.525,6.615c0,2.054-0.41,4.054-1.22,5.939c-0.13,0.303-0.479,0.442-0.781,0.313
					c-0.303-0.131-0.441-0.482-0.312-0.783c0.745-1.737,1.124-3.576,1.124-5.469c0-2.133-0.473-4.181-1.404-6.091l-0.699-1.428
					l-1.586-0.048c-2.992-0.088-5.692-1.923-6.882-4.676l-0.632-1.463l-1.586-0.119c-0.757-0.058-1.35-0.058-2.097,0l-1.586,0.119
					l-0.632,1.461c-1.19,2.755-3.892,4.59-6.88,4.678l-1.588,0.048l-0.699,1.43c-0.931,1.908-1.402,3.956-1.402,6.089
					c0,1.891,0.377,3.732,1.121,5.469c0.13,0.302-0.01,0.653-0.31,0.783C23.927,59.07,23.847,59.086,23.768,59.086z"/>
				<path fill="#4A5158" d="M47.994,55.699c-0.04,0-0.08-0.004-0.123-0.013c-0.322-0.067-0.527-0.384-0.46-0.706
					c0.151-0.724,0.23-1.463,0.23-2.194c0-1.518-0.312-2.981-0.929-4.352c-3.967-0.253-7.522-2.67-9.224-6.272
					c-0.305-0.015-0.613-0.015-0.918,0c-1.703,3.601-5.259,6.018-9.224,6.272c-0.617,1.371-0.927,2.832-0.927,4.352
					c0,0.731,0.077,1.471,0.228,2.194c0.067,0.323-0.138,0.639-0.46,0.706c-0.32,0.065-0.638-0.138-0.705-0.461
					c-0.169-0.804-0.255-1.626-0.255-2.44c0-1.82,0.402-3.567,1.197-5.195l0.159-0.322l0.358-0.01
					c3.777-0.113,7.186-2.43,8.688-5.907l0.144-0.33l0.358-0.027c0.68-0.052,1.115-0.052,1.795,0l0.358,0.027l0.144,0.33
					c1.502,3.477,4.911,5.794,8.688,5.907l0.358,0.01l0.159,0.322c0.793,1.628,1.197,3.375,1.197,5.195
					c0,0.814-0.086,1.635-0.255,2.44C48.516,55.506,48.269,55.699,47.994,55.699z"/>
				<path fill="#4A5158" d="M36.126,49.263c-0.086,0-0.172-0.023-0.251-0.071c-0.657-0.407-1.051-1.111-1.051-1.881
					c0-1.219,0.99-2.21,2.206-2.21c1.214,0,2.205,0.991,2.205,2.21c0,0.772-0.395,1.474-1.051,1.881
					c-0.224,0.138-0.517,0.067-0.655-0.155c-0.138-0.225-0.069-0.52,0.155-0.659c0.373-0.23,0.599-0.63,0.599-1.067
					c0-0.693-0.563-1.256-1.252-1.256c-0.692,0-1.253,0.562-1.253,1.256c0,0.438,0.222,0.837,0.598,1.069
					c0.224,0.138,0.295,0.432,0.155,0.657C36.44,49.182,36.285,49.263,36.126,49.263z"/>
			</g>
		</g>
		<g>
			<ellipse fill="#343C44" cx="37.029" cy="37.021" rx="5.99" ry="6.005"/>
			<ellipse fill="#343C44" cx="37.029" cy="43.744" rx="3.111" ry="3.117"/>
			<path fill="#4A5158" d="M37.03,40.949c-2.161,0-3.919-1.762-3.919-3.928c0-2.163,1.758-3.924,3.919-3.924
				c2.159,0,3.915,1.76,3.915,3.924C40.945,39.186,39.189,40.949,37.03,40.949z"/>
			<circle fill="#FFFFFF" cx="37.03" cy="37.023" r="0.578"/>
			<circle fill="#FFFFFF" cx="37.03" cy="39.563" r="1.386"/>
		</g>
	</g>
</g>
</svg>
