<?xml version="1.0" encoding="utf-8"?>
<!-- Generator: Adobe Illustrator 17.0.0, SVG Export Plug-In . SVG Version: 6.00 Build 0)  -->
<!DOCTYPE svg PUBLIC "-//W3C//DTD SVG 1.1//EN" "http://www.w3.org/Graphics/SVG/1.1/DTD/svg11.dtd">
<svg version="1.1" id="Layer_1" xmlns="http://www.w3.org/2000/svg" xmlns:xlink="http://www.w3.org/1999/xlink" x="0px" y="0px"
	 width="74px" height="74px" viewBox="0 0 74 74" enable-background="new 0 0 74 74" xml:space="preserve">
<g>
	<ellipse fill="#FECE67" cx="37.006" cy="36.952" rx="37.061" ry="36.954"/>
	<path fill="#F5B541" d="M73.216,44.817L52.432,24.093l-15.427-7.167l-15.427,7.167v13.176c0,5.939,2.27,11.357,5.995,15.424
		l19.794,19.736C60.315,68.674,70.333,58.075,73.216,44.817z"/>
	<g>
		<g>
			<path fill="#343C44" d="M37.006,16.926l-15.431,7.167v13.174c0,10.01,6.449,18.514,15.431,21.618
				c8.979-3.104,15.427-11.608,15.427-21.618V24.093L37.006,16.926z"/>
			<path fill="#71C9E9" d="M37.006,20.168v35.58c7.508-3.035,12.483-10.336,12.483-18.482V25.963L37.006,20.168z"/>
			<path fill="#95D9F1" d="M24.523,25.963v11.303c0,8.145,4.976,15.447,12.483,18.482v-35.58L24.523,25.963z"/>
		</g>
		<g>
			<path fill="#FFFFFF" d="M44.79,37.539c0,4.291-3.483,7.764-7.783,7.764c-4.304,0-7.787-3.472-7.787-7.764
				c0-4.289,3.483-7.764,7.787-7.764C41.308,29.775,44.79,33.249,44.79,37.539z"/>
			<g>
				<g>
					<path fill="#343C44" d="M37.825,38.258h-1.641c-0.706,0-1.37-0.272-1.866-0.771c-0.498-0.499-0.77-1.159-0.77-1.857
						c0-0.698,0.273-1.356,0.77-1.853c0.494-0.499,1.158-0.773,1.866-0.773h3.558v1.441h-3.558c-0.319,0-0.617,0.123-0.841,0.347
						c-0.227,0.226-0.35,0.524-0.35,0.838c0,0.316,0.123,0.616,0.35,0.842c0.223,0.223,0.521,0.347,0.841,0.347h1.641V38.258z"/>
					<path fill="#343C44" d="M37.825,42.072H34.27v-1.439h3.556c0.318,0,0.618-0.125,0.847-0.349
						c0.221-0.224,0.346-0.526,0.346-0.836c0-0.315-0.125-0.614-0.354-0.844c-0.223-0.219-0.523-0.345-0.839-0.345h-1.641v-1.439
						h1.641c0.697,0,1.358,0.272,1.861,0.766c0.504,0.508,0.777,1.166,0.777,1.863c0,0.693-0.273,1.351-0.77,1.853
						C39.187,41.801,38.526,42.072,37.825,42.072z"/>
					<rect x="36.282" y="32.633" fill="#343C44" width="1.445" height="9.81"/>
				</g>
			</g>
		</g>
	</g>
</g>
</svg>
