<?xml version="1.0" encoding="utf-8"?>
<!-- Generator: Adobe Illustrator 17.0.0, SVG Export Plug-In . SVG Version: 6.00 Build 0)  -->
<!DOCTYPE svg PUBLIC "-//W3C//DTD SVG 1.1//EN" "http://www.w3.org/Graphics/SVG/1.1/DTD/svg11.dtd">
<svg version="1.1" id="Layer_1" xmlns="http://www.w3.org/2000/svg" xmlns:xlink="http://www.w3.org/1999/xlink" x="0px" y="0px"
	 width="74px" height="74px" viewBox="0 0 74 74" enable-background="new 0 0 74 74" xml:space="preserve">
<g>
	<ellipse fill="#FECE67" cx="37.071" cy="37.077" rx="37.019" ry="37.102"/>
	<path fill="#F5B541" d="M73.243,44.967L53.884,25.568l-5.331-5.343l-2.67-1.541l-2.493,2.839l-4.782-4.792h-3.077l-0.897,4.49
		h0.033c-1.067,0.158-2.097,0.43-3.083,0.792l-3.327-3.334l0,0l-2.672,1.547l1.463,4.347c-0.907,0.728-1.73,1.556-2.454,2.462
		l-4.334-1.466l-1.538,2.666l0.004,0.004l3.313,3.323c-0.358,0.982-0.63,2.011-0.79,3.074l-4.482,0.901v3.082l4.789,4.8
		l-2.835,2.496l1.538,2.672l5.325,5.343l0.006,0.004L44.947,73.33C59.069,70.262,70.183,59.121,73.243,44.967z"/>
	<g>
		<g>
			<g>
				<polygon fill="#4A5158" points="38.609,16.729 35.532,16.729 34.633,21.221 39.509,21.221 				"/>
				<polygon fill="#4A5158" points="28.256,18.682 25.589,20.223 27.051,24.571 31.274,22.119 				"/>
				<polygon fill="#4A5158" points="20.26,25.568 18.722,28.236 22.153,31.264 24.593,27.032 				"/>
				<polygon fill="#4A5158" points="16.77,35.535 16.773,38.62 21.255,39.52 21.255,34.635 				"/>
				<polygon fill="#4A5158" points="18.722,45.917 20.26,48.584 24.593,47.12 22.153,42.893 				"/>
				<polygon fill="#4A5158" points="25.589,53.928 28.256,55.469 31.274,52.032 27.051,49.582 				"/>
				<polygon fill="#4A5158" points="35.532,57.426 38.609,57.426 39.509,52.932 34.635,52.932 				"/>
				<polygon fill="#4A5158" points="45.889,55.469 48.555,53.928 47.092,49.582 42.872,52.032 				"/>
				<polygon fill="#4A5158" points="53.884,48.584 55.422,45.917 51.991,42.893 49.552,47.12 				"/>
				<polygon fill="#4A5158" points="57.372,38.62 57.372,35.535 52.892,34.635 52.892,39.52 				"/>
				<polygon fill="#4A5158" points="55.422,28.236 53.884,25.57 49.552,27.032 51.991,31.264 				"/>
				<polygon fill="#4A5158" points="48.555,20.223 45.885,18.686 42.872,22.119 47.092,24.571 				"/>
			</g>
		</g>
		<path fill="#343C44" d="M37.07,21.038c-8.837,0-16.003,7.177-16.003,16.039c0,8.86,7.167,16.038,16.003,16.038
			c8.844,0,16.009-7.177,16.009-16.038C53.079,28.215,45.914,21.038,37.07,21.038z"/>
		<g>
			<ellipse fill="#FFFFFF" cx="37.07" cy="37.077" rx="12.181" ry="12.208"/>
			<g>
				<path fill="#EA6653" d="M37.07,39.345c-0.603,0-1.172-0.235-1.599-0.665c-0.882-0.884-0.882-2.323,0-3.205
					c0.427-0.429,0.996-0.665,1.599-0.665s1.172,0.235,1.599,0.665c0.429,0.428,0.663,0.998,0.663,1.603
					c0,0.605-0.234,1.175-0.663,1.603C38.242,39.11,37.673,39.345,37.07,39.345z M37.07,35.856c-0.325,0-0.63,0.127-0.861,0.358
					c-0.475,0.476-0.475,1.25,0,1.726c0.459,0.462,1.263,0.46,1.722,0c0.231-0.231,0.357-0.537,0.357-0.863
					c0-0.325-0.127-0.632-0.357-0.863C37.702,35.983,37.395,35.856,37.07,35.856z"/>
				<circle fill="#4A5158" cx="37.07" cy="37.077" r="0.522"/>
				
					<rect x="39.254" y="32.273" transform="matrix(0.7063 0.7079 -0.7079 0.7063 36.0089 -18.0657)" fill="#EA6653" width="1.045" height="4.182"/>
			</g>
			<g>
				<path fill="#D9D8D7" d="M37.504,26.624v2.618c1.835,0.1,3.502,0.836,4.785,1.988l1.849-1.853
					C42.378,27.755,40.06,26.73,37.504,26.624z"/>
				<path fill="#95D9F1" d="M44.888,37.513c-0.1,1.84-0.832,3.51-1.984,4.796l1.847,1.853c1.62-1.764,2.643-4.087,2.748-6.649
					H44.888z"/>
				<path fill="#D9D8D7" d="M29.252,37.513H26.64c0.106,2.562,1.128,4.885,2.748,6.649l1.847-1.853
					C30.086,41.022,29.354,39.352,29.252,37.513z"/>
				<path fill="#D9D8D7" d="M31.85,31.23c1.286-1.152,2.95-1.888,4.785-1.988v-2.618c-2.556,0.106-4.874,1.131-6.632,2.753
					L31.85,31.23z"/>
				<path fill="#D9D8D7" d="M29.252,36.642c0.102-1.839,0.834-3.51,1.984-4.796l-1.847-1.853c-1.62,1.765-2.643,4.087-2.748,6.649
					H29.252z"/>
				<path fill="#FECE67" d="M42.906,31.846c1.149,1.287,1.882,2.957,1.982,4.796H47.5c-0.106-2.562-1.126-4.885-2.748-6.649
					L42.906,31.846z"/>
			</g>
		</g>
	</g>
</g>
</svg>
