<?xml version="1.0" encoding="utf-8"?>
<!-- Generator: Adobe Illustrator 17.0.0, SVG Export Plug-In . SVG Version: 6.00 Build 0)  -->
<!DOCTYPE svg PUBLIC "-//W3C//DTD SVG 1.1//EN" "http://www.w3.org/Graphics/SVG/1.1/DTD/svg11.dtd">
<svg version="1.1" id="Layer_1" xmlns="http://www.w3.org/2000/svg" xmlns:xlink="http://www.w3.org/1999/xlink" x="0px" y="0px"
	 width="74px" height="74px" viewBox="0 0 74 74" enable-background="new 0 0 74 74" xml:space="preserve">
<g>
	<circle fill="#4A5158" cx="37.043" cy="37.09" r="37.019"/>
	<path fill="#343C44" d="M40.655,73.932c15.33-1.486,27.915-12.321,31.999-26.733L44.351,18.896
		c-0.01-0.004-0.019-0.013-0.023-0.023l-0.694-0.692c-0.008-0.006-0.017-0.015-0.023-0.025c-1.811-1.624-4.122-2.512-6.567-2.512
		c-2.623,0-5.087,1.022-6.946,2.875c-1.854,1.853-2.875,4.318-2.875,6.946v3.644h-2.775c-0.788,0-1.434,0.646-1.434,1.434v16.77
		c0,0.282,0.087,0.55,0.229,0.774l0.421,0.425l5.589,5.589l1.082,1.082l-7.318,1.111L40.655,73.932z"/>
	<g>
		<path fill="#F5B541" d="M51.072,30.541c0-0.79-0.646-1.434-1.434-1.434H24.45c-0.788,0-1.434,0.644-1.434,1.434v16.77
			c0,0.79,0.646,1.434,1.434,1.434h25.188c0.788,0,1.434-0.644,1.434-1.434V30.541z"/>
		<rect x="27.226" y="29.107" fill="#FECE67" width="19.637" height="19.637"/>
		<g>
			<g>
				<circle fill="#343C44" cx="37.044" cy="37.296" r="2.627"/>
				<rect x="35.947" y="39.414" fill="#343C44" width="2.193" height="3.769"/>
			</g>
		</g>
		<path fill="#FFFFFF" d="M46.863,29.107h-3.648v-3.644c0-1.649-0.642-3.198-1.807-4.365c-1.167-1.165-2.717-1.806-4.365-1.806
			c-1.649,0-3.2,0.642-4.364,1.806c-1.167,1.167-1.809,2.716-1.809,4.365v3.644h-3.646v-3.644c0-2.623,1.02-5.089,2.875-6.944
			s4.32-2.875,6.944-2.875c2.622,0,5.087,1.02,6.942,2.875c1.855,1.855,2.877,4.32,2.877,6.944V29.107z"/>
		<g>
			<rect x="35.947" y="48.744" fill="#FFFFFF" width="2.193" height="4.113"/>
			<rect x="23.017" y="54.101" fill="#FFFFFF" width="11.687" height="2.193"/>
			<rect x="39.383" y="54.101" fill="#FFFFFF" width="11.689" height="2.193"/>
			<path fill="#FFFFFF" d="M37.044,58.538c-1.843,0-3.342-1.497-3.342-3.34s1.499-3.342,3.342-3.342c1.841,0,3.34,1.499,3.34,3.342
				S38.885,58.538,37.044,58.538z M37.044,54.051c-0.634,0-1.149,0.515-1.149,1.147s0.515,1.147,1.149,1.147
				c0.632,0,1.147-0.515,1.147-1.147S37.676,54.051,37.044,54.051z"/>
		</g>
	</g>
</g>
</svg>
