<?xml version="1.0" encoding="utf-8"?>
<!-- Generator: Adobe Illustrator 17.0.0, SVG Export Plug-In . SVG Version: 6.00 Build 0)  -->
<!DOCTYPE svg PUBLIC "-//W3C//DTD SVG 1.1//EN" "http://www.w3.org/Graphics/SVG/1.1/DTD/svg11.dtd">
<svg version="1.1" id="Layer_1" xmlns="http://www.w3.org/2000/svg" xmlns:xlink="http://www.w3.org/1999/xlink" x="0px" y="0px"
	 width="74px" height="74px" viewBox="0 0 74 74" enable-background="new 0 0 74 74" xml:space="preserve">
<g>
	<ellipse fill="#4A5158" cx="37.006" cy="37.039" rx="36.894" ry="37.02"/>
	<path fill="#343C44" d="M73.156,44.472L54.539,25.796c-0.013-0.019-0.033-0.038-0.048-0.054l-0.09-0.09
		c-0.272-0.258-0.619-0.386-0.971-0.386h-2.157l-5.541-5.56c-0.215-0.296-0.471-0.559-0.766-0.771
		c-0.577-0.429-1.291-0.682-2.063-0.682c-0.931,0-1.812,0.369-2.469,1.032l-3.428,3.44l-3.427-3.44
		c-0.659-0.663-1.538-1.032-2.471-1.032c-1.929,0-3.496,1.578-3.496,3.507c0,1.933,1.567,3.506,3.496,3.506H20.581
		c-0.366,0-0.732,0.142-1.008,0.421c-0.282,0.281-0.42,0.648-0.42,1.013v5.564c0,0.367,0.138,0.736,0.42,1.013l1.68,1.687v18.375
		c0,0.367,0.144,0.73,0.42,1.013l19.412,19.478C57.077,72.062,69.99,60.049,73.156,44.472z"/>
	<g>
		<g>
			<path fill="#F4836B" d="M52.758,53.336c0,0.369-0.14,0.734-0.419,1.015c-0.278,0.28-0.644,0.419-1.009,0.419H22.683
				c-0.366,0-0.732-0.139-1.01-0.419c-0.28-0.281-0.418-0.646-0.418-1.015V33.696h31.502V53.336z"/>
			<path fill="#EA6653" d="M54.859,32.265c0,0.365-0.14,0.732-0.419,1.013c-0.278,0.279-0.644,0.419-1.01,0.419H20.581
				c-0.364,0-0.73-0.14-1.01-0.419c-0.278-0.281-0.418-0.648-0.418-1.013v-5.564c0-0.367,0.14-0.734,0.418-1.013
				c0.28-0.281,0.645-0.421,1.01-0.421H53.43c0.366,0,0.732,0.14,1.01,0.421c0.279,0.279,0.419,0.646,0.419,1.013V32.265z"/>
			<rect x="35.956" y="33.696" fill="#FFFFFF" width="2.101" height="21.073"/>
			<rect x="21.255" y="37.911" fill="#FFFFFF" width="31.502" height="2.107"/>
			<rect x="35.956" y="25.267" fill="#E6E5E5" width="2.101" height="8.429"/>
		</g>
		<g>
			<path fill="#FFFFFF" d="M39.54,25.267h-8.433c-1.927,0-3.494-1.572-3.494-3.507c0-1.931,1.567-3.504,3.494-3.504
				c0.937,0,1.814,0.365,2.475,1.03L39.54,25.267z M31.106,20.363c-0.768,0-1.393,0.628-1.393,1.397
				c0,0.773,0.624,1.401,1.393,1.401h3.363l-2.377-2.385C31.828,20.509,31.48,20.363,31.106,20.363z"/>
			<path fill="#FFFFFF" d="M42.905,25.267H34.47l5.963-5.981c0.659-0.665,1.538-1.03,2.473-1.03c1.927,0,3.494,1.572,3.494,3.504
				C46.399,23.695,44.832,25.267,42.905,25.267z M39.54,23.161h3.365c0.768,0,1.394-0.628,1.394-1.401
				c0-0.769-0.626-1.397-1.394-1.397c-0.373,0-0.722,0.146-0.986,0.413L39.54,23.161z"/>
			<polygon fill="#FFFFFF" points="42.363,31.081 36.262,24.958 37.747,23.469 43.849,29.59 			"/>
			<polygon fill="#FFFFFF" points="31.388,31.338 29.905,29.849 36.262,23.469 37.747,24.958 			"/>
		</g>
	</g>
</g>
</svg>
