<?xml version="1.0" encoding="utf-8"?>
<!-- Generator: Adobe Illustrator 17.0.0, SVG Export Plug-In . SVG Version: 6.00 Build 0)  -->
<!DOCTYPE svg PUBLIC "-//W3C//DTD SVG 1.1//EN" "http://www.w3.org/Graphics/SVG/1.1/DTD/svg11.dtd">
<svg version="1.1" id="Layer_1" xmlns="http://www.w3.org/2000/svg" xmlns:xlink="http://www.w3.org/1999/xlink" x="0px" y="0px"
	 width="74px" height="74px" viewBox="0 0 74 74" enable-background="new 0 0 74 74" xml:space="preserve">
<g>
	<ellipse fill="#4A5158" cx="36.904" cy="36.963" rx="37.019" ry="37.061"/>
	<path fill="#343C44" d="M22.419,58.483l15.498,15.515c19.638-0.529,35.45-16.36,35.981-36.018L51.389,15.445H25.731h-3.311v3.052
		l1.339,1.341c-0.246,0.246-0.459,0.523-0.646,0.822v-0.002c-0.01,0.014-0.015,0.029-0.023,0.041
		c-0.092,0.152-0.175,0.308-0.25,0.468c-0.009,0.021-0.019,0.04-0.029,0.061c-0.079,0.177-0.146,0.36-0.202,0.548
		c-0.008,0.029-0.014,0.058-0.023,0.087c-0.042,0.156-0.077,0.317-0.104,0.479c-0.008,0.05-0.015,0.098-0.021,0.148
		c-0.025,0.194-0.042,0.389-0.042,0.587c0,0.148,0.008,0.292,0.021,0.437c0.006,0.052,0.015,0.102,0.021,0.152
		c0.011,0.092,0.025,0.181,0.04,0.269c0.011,0.064,0.027,0.123,0.04,0.185c0.017,0.075,0.036,0.15,0.058,0.223
		c0.019,0.065,0.038,0.131,0.059,0.194c0.023,0.067,0.048,0.131,0.073,0.196c0.025,0.067,0.052,0.133,0.081,0.198
		c0.025,0.058,0.054,0.113,0.081,0.169c0.035,0.069,0.067,0.137,0.104,0.204c0.023,0.042,0.05,0.081,0.073,0.119
		c0.098,0.165,0.206,0.323,0.323,0.471c0.011,0.016,0.021,0.031,0.035,0.046v0.002c0.209,0.26,0.446,0.496,0.703,0.704l0.002,0.002
		l2.862,2.865V50.85c-0.84,0-1.524,0.685-1.524,1.526c0,0.841,0.684,1.526,1.524,1.526c-1.265,0-2.406,0.512-3.233,1.343
		C22.93,56.072,22.419,57.219,22.419,58.483z"/>
	<g>
		<rect x="26.993" y="23.077" fill="#FFFFFF" width="19.822" height="27.773"/>
		<rect x="22.421" y="15.445" fill="#FFFFFF" width="28.968" height="3.052"/>
		<path fill="#CCCBCA" d="M26.993,50.85h19.822c0.842,0,1.524,0.681,1.524,1.526c0,0.843-0.682,1.526-1.524,1.526H26.993
			c-0.84,0-1.524-0.683-1.524-1.526C25.469,51.531,26.153,50.85,26.993,50.85z"/>
		<g>
			<path fill="#CCCBCA" d="M45.289,30.708v17.087c0,0.845-0.68,1.528-1.524,1.528c-0.842,0-1.526-0.683-1.526-1.528V30.708
				c0-0.841,0.684-1.526,1.526-1.526C44.609,29.182,45.289,29.867,45.289,30.708z"/>
			<path fill="#CCCBCA" d="M36.143,30.708v17.087c0,0.845-0.682,1.528-1.526,1.528c-0.842,0-1.526-0.683-1.526-1.528V30.708
				c0-0.841,0.684-1.526,1.526-1.526C35.461,29.182,36.143,29.867,36.143,30.708z"/>
			<path fill="#CCCBCA" d="M40.715,30.708v17.087c0,0.845-0.682,1.528-1.524,1.528c-0.842,0-1.526-0.683-1.526-1.528V30.708
				c0-0.841,0.684-1.526,1.526-1.526C40.033,29.182,40.715,29.867,40.715,30.708z"/>
			<path fill="#CCCBCA" d="M31.569,30.708v17.087c0,0.845-0.682,1.528-1.526,1.528c-0.842,0-1.524-0.683-1.524-1.528V30.708
				c0-0.841,0.682-1.526,1.524-1.526C30.887,29.182,31.569,29.867,31.569,30.708z"/>
		</g>
		<path fill="#FFFFFF" d="M46.815,53.902h-19.82l0,0c-2.527,0-4.574,2.051-4.574,4.581h28.968
			C51.389,55.953,49.343,53.902,46.815,53.902z"/>
		<g>
			<ellipse fill="#CCCBCA" cx="26.995" cy="23.077" rx="4.574" ry="4.579"/>
			<ellipse fill="#CCCBCA" cx="46.815" cy="23.077" rx="4.574" ry="4.579"/>
			<rect x="26.995" y="18.496" fill="#CCCBCA" width="19.82" height="4.581"/>
			<circle fill="#FFFFFF" cx="26.994" cy="23.077" r="1.525"/>
			<circle fill="#FFFFFF" cx="46.814" cy="23.077" r="1.525"/>
		</g>
	</g>
</g>
</svg>
