<?xml version="1.0" encoding="utf-8"?>
<!-- Generator: Adobe Illustrator 17.0.0, SVG Export Plug-In . SVG Version: 6.00 Build 0)  -->
<!DOCTYPE svg PUBLIC "-//W3C//DTD SVG 1.1//EN" "http://www.w3.org/Graphics/SVG/1.1/DTD/svg11.dtd">
<svg version="1.1" id="Layer_1" xmlns="http://www.w3.org/2000/svg" xmlns:xlink="http://www.w3.org/1999/xlink" x="0px" y="0px"
	 width="74px" height="74px" viewBox="0 0 74 74" enable-background="new 0 0 74 74" xml:space="preserve">
<g>
	<circle fill="#4A5158" cx="37.111" cy="37.205" r="37.019"/>
	<path fill="#343C44" d="M73.78,42.244L57.081,25.548l-0.19-0.192c-0.248-0.206-0.569-0.329-0.913-0.329h-2.789l-0.813-0.813h-5.522
		l-3.248-3.248H30.615v4.061h-2.274l-0.813-0.813l0,0l0,0h-5.685v0.813h-3.602c-0.788,0-1.432,0.644-1.432,1.432v25.555
		c0,0.283,0.081,0.544,0.225,0.771l0.444,0.444l20.964,20.963C56.575,73.549,71.38,59.873,73.78,42.244z"/>
	<g>
		<g>
			<path fill="#D9D8D7" d="M57.411,52.015c0,0.788-0.644,1.434-1.434,1.434H18.242c-0.788,0-1.432-0.646-1.432-1.434V26.46
				c0-0.788,0.644-1.434,1.432-1.434h37.736c0.79,0,1.434,0.646,1.434,1.434V52.015z"/>
			<rect x="18.242" y="26.46" fill="#FFFFFF" width="37.736" height="25.555"/>
			<g>
				<rect x="21.844" y="24.214" fill="#D9D8D7" width="5.685" height="0.813"/>
				<rect x="46.691" y="24.214" fill="#D9D8D7" width="5.685" height="0.813"/>
			</g>
			<polygon fill="#D9D8D7" points="43.607,25.027 41.983,25.027 41.983,22.588 32.237,22.588 32.237,25.027 30.613,25.027 
				30.613,20.964 43.607,20.964 			"/>
		</g>
		<g>
			<g>
				<g>
					<g>
						<polygon fill="#F4836B" points="37.706,31.58 36.513,31.58 36.165,33.319 38.056,33.319 						"/>
						<polygon fill="#F4836B" points="33.688,32.335 32.652,32.935 33.221,34.618 34.86,33.667 						"/>
						<polygon fill="#F4836B" points="30.584,35.003 29.986,36.037 31.318,37.209 32.266,35.57 						"/>
						<polygon fill="#F4836B" points="29.229,38.864 29.229,40.061 30.969,40.409 30.969,38.516 						"/>
						<polygon fill="#F4836B" points="29.986,42.886 30.584,43.92 32.266,43.351 31.318,41.714 						"/>
						<polygon fill="#F4836B" points="32.652,45.99 33.688,46.586 34.86,45.254 33.221,44.305 						"/>
						<polygon fill="#F4836B" points="36.513,47.345 37.706,47.345 38.056,45.604 36.165,45.604 						"/>
						<polygon fill="#F4836B" points="40.534,46.586 41.569,45.99 41.001,44.305 39.361,45.254 						"/>
						<polygon fill="#F4836B" points="43.637,43.92 44.235,42.886 42.901,41.714 41.956,43.351 						"/>
						<polygon fill="#F4836B" points="44.992,40.061 44.992,38.864 43.253,38.516 43.253,40.409 						"/>
						<polygon fill="#F4836B" points="44.235,36.037 43.637,35.005 41.956,35.57 42.901,37.209 						"/>
						<polygon fill="#F4836B" points="41.569,32.935 40.532,32.337 39.361,33.667 41.001,34.618 						"/>
					</g>
					<circle fill="#F4836B" cx="37.111" cy="39.461" r="6.211"/>
				</g>
			</g>
			<g>
				<rect x="36.029" y="36.217" fill="#FFFFFF" width="2.164" height="6.49"/>
				<rect x="33.865" y="38.381" fill="#FFFFFF" width="6.49" height="2.162"/>
			</g>
		</g>
	</g>
</g>
</svg>
