<?xml version="1.0" encoding="utf-8"?>
<!-- Generator: Adobe Illustrator 17.0.0, SVG Export Plug-In . SVG Version: 6.00 Build 0)  -->
<!DOCTYPE svg PUBLIC "-//W3C//DTD SVG 1.1//EN" "http://www.w3.org/Graphics/SVG/1.1/DTD/svg11.dtd">
<svg version="1.1" id="Layer_1" xmlns="http://www.w3.org/2000/svg" xmlns:xlink="http://www.w3.org/1999/xlink" x="0px" y="0px"
	 width="74px" height="74px" viewBox="0 0 74 74" enable-background="new 0 0 74 74" xml:space="preserve">
<g>
	<ellipse fill="#95D9F1" cx="36.992" cy="37.067" rx="37.186" ry="37.061"/>
	<path fill="#71C9E9" d="M71.432,51.049L48.698,28.394c-0.473-0.421-1.025-0.754-1.629-0.983c-0.042-0.015-0.085-0.031-0.128-0.044
		c-0.12-0.042-0.241-0.079-0.367-0.113c-0.054-0.016-0.108-0.029-0.164-0.042c-0.122-0.029-0.245-0.052-0.373-0.071
		c-0.05-0.009-0.102-0.019-0.154-0.025c-0.178-0.023-0.355-0.04-0.539-0.046c-0.388-0.735-1.166-1.243-2.058-1.243
		c-0.235,0-0.423,0.192-0.423,0.425c0,0.052,0.012,0.102,0.031,0.152c0.004,0.012,0.011,0.023,0.017,0.035
		c0.008,0.019,0.014,0.037,0.025,0.054l0.029,0.029c0.017,0.019,0.033,0.036,0.054,0.054l0.031,0.031l0.666,0.664l0.004,0.002
		c-0.027,0.008-0.052,0.016-0.079,0.025l-0.006-0.008L33.555,17.242c-0.33-0.331-0.766-0.498-1.204-0.498h-8.965
		c-0.438,0-0.875,0.167-1.21,0.498c-0.336,0.333-0.5,0.77-0.5,1.204c0,0.435,0.164,0.87,0.5,1.205
		c0.336,0.329,0.772,0.498,1.21,0.498v4.787c0,0.683-0.266,1.362-0.784,1.884c-0.523,0.516-1.204,0.779-1.89,0.779
		c-0.681,0-1.363,0.258-1.886,0.779c-0.523,0.518-0.782,1.201-0.782,1.88v24.473c0,0.562,0.178,1.12,0.533,1.589l17.855,17.793
		c0.185,0.004,0.371,0.014,0.56,0.014C52.563,74.128,65.893,64.585,71.432,51.049z"/>
	<g>
		<g>
			<path fill="#F8C964" d="M43.579,38.616c-0.606-0.608-1.406-0.91-2.205-0.91H22.246c-0.799,0-1.598,0.302-2.207,0.91
				c-0.608,0.608-0.913,1.401-0.913,2.197c0,0.797,0.305,1.593,0.913,2.199c0.608,0.606,1.407,0.91,2.207,0.91v12.433
				c0,0.264,0.1,0.531,0.303,0.731c0.203,0.204,0.469,0.304,0.735,0.304h17.05c0.266,0,0.533-0.1,0.736-0.304
				c0.203-0.2,0.303-0.468,0.303-0.731V43.923c0.799,0,1.598-0.304,2.205-0.91c0.61-0.606,0.915-1.403,0.915-2.199
				C44.494,40.017,44.189,39.224,43.579,38.616z"/>
			<path fill="#ECA434" d="M56.945,38.616c-0.61-0.608-1.407-0.91-2.205-0.91H35.611c-0.799,0-1.597,0.302-2.207,0.91
				c-0.608,0.608-0.913,1.401-0.913,2.197c0,0.797,0.305,1.593,0.913,2.199c0.61,0.606,1.407,0.91,2.207,0.91v12.433
				c0,0.264,0.1,0.531,0.303,0.731c0.203,0.204,0.469,0.304,0.734,0.304h17.054c0.264,0,0.531-0.1,0.733-0.304
				c0.203-0.2,0.305-0.468,0.305-0.731V43.923c0.797,0,1.595-0.304,2.205-0.91s0.913-1.403,0.913-2.199
				C57.858,40.017,57.555,39.224,56.945,38.616z"/>
			<path fill="#FECE67" d="M37.69,55.321V41.85h-2.079c-0.162,0-0.471-0.04-0.736-0.304c-0.266-0.263-0.305-0.571-0.305-0.733
				c0-0.16,0.039-0.47,0.305-0.731c0.264-0.264,0.573-0.304,0.736-0.304h19.129c0.16,0,0.471,0.04,0.734,0.304
				c0.266,0.262,0.305,0.571,0.305,0.731c0,0.162-0.039,0.469-0.305,0.733c-0.263,0.264-0.573,0.304-0.734,0.304h-2.079v13.47H37.69
				z"/>
			<g>
				<g>
					<circle fill="#ECA434" cx="41.5" cy="44.838" r="0.312"/>
					<circle fill="#ECA434" cx="47.589" cy="53.593" r="0.312"/>
					<path fill="#ECA434" d="M49.414,45.573c0,0.169-0.139,0.308-0.311,0.308c-0.172,0-0.313-0.139-0.313-0.308
						c0-0.173,0.141-0.314,0.313-0.314C49.275,45.26,49.414,45.4,49.414,45.573z"/>
					<circle fill="#ECA434" cx="43.281" cy="41.816" r="0.83"/>
					<ellipse fill="#ECA434" cx="39.73" cy="47.284" rx="0.729" ry="0.723"/>
					<circle fill="#ECA434" cx="47.901" cy="47.825" r="0.936"/>
					<circle fill="#ECA434" cx="50.985" cy="48.136" r="0.312"/>
					<circle fill="#ECA434" cx="48.628" cy="43.569" r="0.207"/>
					<circle fill="#ECA434" cx="40.669" cy="43.819" r="0.208"/>
					<circle fill="#ECA434" cx="46.401" cy="43.041" r="0.209"/>
					<circle fill="#ECA434" cx="51.405" cy="53.573" r="0.208"/>
					<circle fill="#ECA434" cx="39.24" cy="54.066" r="0.24"/>
					<circle fill="#ECA434" cx="52.173" cy="40.821" r="0.209"/>
					<circle fill="#ECA434" cx="51.059" cy="42.999" r="0.593"/>
					<circle fill="#ECA434" cx="48.866" cy="41.445" r="0.415"/>
					<circle fill="#ECA434" cx="41.546" cy="52.675" r="0.728"/>
					<circle fill="#ECA434" cx="41.916" cy="49.689" r="0.519"/>
					<circle fill="#ECA434" cx="50.113" cy="51.915" r="0.72"/>
					<path fill="#ECA434" d="M46.698,51.573c0,0.285-0.232,0.518-0.521,0.518c-0.286,0-0.517-0.233-0.517-0.518
						c0-0.287,0.232-0.52,0.517-0.52C46.467,51.053,46.698,51.286,46.698,51.573z"/>
					<circle fill="#ECA434" cx="39.422" cy="41.333" r="0.624"/>
				</g>
			</g>
		</g>
		<g>
			<path fill="#FFFFFF" d="M36.907,28.377c-0.521-0.52-1.205-0.779-1.886-0.779c-0.683,0-1.367-0.26-1.886-0.779
				c-0.523-0.52-0.784-1.201-0.784-1.882v-4.787h-8.969v4.787c0,0.681-0.259,1.362-0.78,1.882c-0.521,0.519-1.204,0.779-1.888,0.779
				s-1.367,0.26-1.888,0.779c-0.521,0.519-0.782,1.2-0.782,1.882v24.473c0,0.681,0.261,1.362,0.782,1.88
				c0.521,0.52,1.205,0.779,1.888,0.779h14.307c0.681,0,1.365-0.26,1.886-0.779c0.521-0.518,0.784-1.199,0.784-1.88V30.258
				C37.69,29.577,37.428,28.896,36.907,28.377z"/>
			<rect x="18.044" y="37.706" fill="#EA6653" width="19.647" height="9.576"/>
			<g>
				<rect x="21.675" y="40.011" fill="#FFFFFF" width="12.384" height="0.993"/>
				<rect x="21.675" y="41.999" fill="#FFFFFF" width="12.384" height="0.993"/>
				<rect x="21.675" y="43.984" fill="#FFFFFF" width="6.193" height="0.993"/>
			</g>
			<path fill="#EA6653" d="M34.059,18.447c0-0.437-0.168-0.871-0.5-1.204c-0.334-0.331-0.772-0.498-1.208-0.498h-8.969
				c-0.436,0-0.873,0.167-1.207,0.498c-0.334,0.333-0.5,0.768-0.5,1.204l0,0c0,0.437,0.166,0.872,0.5,1.205
				c0.334,0.333,0.77,0.498,1.207,0.498h8.969c0.436,0,0.875-0.165,1.208-0.498C33.891,19.318,34.059,18.883,34.059,18.447
				L34.059,18.447z"/>
		</g>
		<g>
			<ellipse fill="#EA6653" cx="45.175" cy="32.386" rx="5.338" ry="5.32"/>
			<path fill="#FFFFFF" d="M40.905,32.811c-0.235,0-0.427-0.19-0.427-0.425c0-1.25,0.488-2.424,1.376-3.311
				c0.166-0.165,0.436-0.165,0.604,0c0.166,0.167,0.166,0.437,0,0.602c-0.726,0.723-1.128,1.686-1.128,2.709
				C41.331,32.621,41.14,32.811,40.905,32.811z"/>
			<path fill="#343C44" d="M45.175,28.555c-0.236,0-0.427-0.191-0.427-0.425c0-0.802-0.655-1.455-1.46-1.455
				c-0.236,0-0.427-0.192-0.427-0.427c0-0.235,0.191-0.423,0.427-0.423c1.276,0,2.313,1.033,2.313,2.305
				C45.602,28.365,45.412,28.555,45.175,28.555z"/>
		</g>
	</g>
</g>
</svg>
