<?xml version="1.0" encoding="utf-8"?>
<!-- Generator: Adobe Illustrator 17.0.0, SVG Export Plug-In . SVG Version: 6.00 Build 0)  -->
<!DOCTYPE svg PUBLIC "-//W3C//DTD SVG 1.1//EN" "http://www.w3.org/Graphics/SVG/1.1/DTD/svg11.dtd">
<svg version="1.1" id="Layer_1" xmlns="http://www.w3.org/2000/svg" xmlns:xlink="http://www.w3.org/1999/xlink" x="0px" y="0px"
	 width="74px" height="74px" viewBox="0 0 74 74" enable-background="new 0 0 74 74" xml:space="preserve">
<g>
	<ellipse fill="#FECE67" cx="37.061" cy="37.137" rx="37.061" ry="37.102"/>
	<path fill="#F5B541" d="M55.401,25.441c-0.016-0.019-0.033-0.035-0.048-0.052l-0.1-0.102c-0.019-0.013-0.033-0.033-0.052-0.046
		c-0.26-0.206-0.566-0.312-0.881-0.312H19.803c-0.358,0-0.712,0.139-0.985,0.408c-0.268,0.272-0.406,0.626-0.406,0.98v21.639
		c0,0.331,0.119,0.665,0.36,0.93c0.013,0.017,0.033,0.033,0.046,0.05c0.019,0.015,0.035,0.035,0.054,0.05l4.97,4.975l-1.124,1.125
		l18.85,18.871c16.206-1.968,29.18-14.4,31.981-30.351L55.401,25.441z"/>
	<g>
		<g>
			<path fill="#FFFFFF" d="M19.801,49.343c-0.354,0-0.71-0.137-0.979-0.406c-0.271-0.272-0.408-0.628-0.408-0.982V26.319
				c0-0.354,0.137-0.711,0.408-0.982c0.27-0.27,0.625-0.406,0.979-0.406h34.523c0.354,0,0.708,0.137,0.979,0.406
				c0.271,0.272,0.406,0.628,0.406,0.982v21.635c0,0.354-0.135,0.711-0.406,0.982c-0.271,0.27-0.625,0.406-0.979,0.406H19.801z"/>
			<polygon fill="#FFFFFF" points="28.455,49.343 22.718,49.343 22.718,55.087 			"/>
		</g>
		<g>
			<g>
				<path fill="#343C44" d="M27.022,33.546h-4.304v-4.307h4.304V33.546z M24.151,32.111h1.435v-1.437h-1.435V32.111z"/>
				<rect x="28.455" y="29.239" fill="#D9D8D7" width="22.952" height="1.435"/>
				<rect x="28.455" y="32.111" fill="#D9D8D7" width="11.477" height="1.435"/>
			</g>
			<g>
				<path fill="#343C44" d="M27.022,39.29h-4.304v-4.307h4.304V39.29z M24.151,37.855h1.435v-1.437h-1.435V37.855z"/>
				<rect x="28.455" y="34.983" fill="#D9D8D7" width="22.952" height="1.435"/>
				<rect x="28.455" y="37.855" fill="#D9D8D7" width="11.477" height="1.435"/>
			</g>
			<g>
				<path fill="#343C44" d="M27.022,45.034h-4.304v-4.307h4.304V45.034z M24.151,43.599h1.435v-1.437h-1.435V43.599z"/>
				<rect x="28.455" y="40.727" fill="#D9D8D7" width="22.952" height="1.435"/>
				<rect x="28.455" y="43.599" fill="#D9D8D7" width="11.477" height="1.435"/>
			</g>
		</g>
		<g>
			<path fill="#FFFFFF" d="M55.709,43.593v5.75h5.743C61.452,46.165,58.883,43.593,55.709,43.593z"/>
			<path fill="#343C44" d="M55.709,49.343v-5.75c-3.169,0-5.741,2.571-5.741,5.75c0,3.176,2.572,5.744,5.741,5.744
				c1.591,0,3.021-0.645,4.06-1.685L55.709,49.343z"/>
			<path fill="#EA6653" d="M55.709,49.343l4.06,4.058c1.031-1.034,1.684-2.473,1.684-4.058H55.709z"/>
		</g>
	</g>
</g>
</svg>
