<?xml version="1.0" encoding="utf-8"?>
<!-- Generator: Adobe Illustrator 17.0.0, SVG Export Plug-In . SVG Version: 6.00 Build 0)  -->
<!DOCTYPE svg PUBLIC "-//W3C//DTD SVG 1.1//EN" "http://www.w3.org/Graphics/SVG/1.1/DTD/svg11.dtd">
<svg version="1.1" id="Layer_1" xmlns="http://www.w3.org/2000/svg" xmlns:xlink="http://www.w3.org/1999/xlink" x="0px" y="0px"
	 width="74px" height="74px" viewBox="0 0 74 74" enable-background="new 0 0 74 74" xml:space="preserve">
<g>
	<ellipse fill="#F4836B" cx="37.075" cy="37.066" rx="36.852" ry="37.02"/>
	<path fill="#EA6653" d="M73.849,39.378L57.028,22.485c-0.006-0.006-0.01-0.011-0.013-0.019l-0.409-0.411
		c-0.01-0.006-0.015-0.01-0.019-0.015c-0.262-0.171-0.557-0.258-0.857-0.258H18.421c-0.4,0-0.796,0.154-1.098,0.459
		c-0.306,0.306-0.457,0.702-0.457,1.103V50.79c0,0.344,0.109,0.684,0.339,0.965c0,0.01,0.004,0.015,0.013,0.019l0.224,0.225
		c0.004,0.01,0.01,0.013,0.019,0.013l21.895,21.996C57.883,72.87,72.706,57.987,73.849,39.378z"/>
	<g>
		<g>
			<path fill="#5AB5D9" d="M57.284,34.309c0-0.4-0.151-0.8-0.455-1.105c-0.304-0.305-0.702-0.457-1.1-0.457H18.421
				c-0.398,0-0.796,0.152-1.1,0.457c-0.304,0.306-0.455,0.705-0.455,1.105V50.79c0,0.4,0.151,0.799,0.455,1.103
				c0.304,0.306,0.702,0.459,1.1,0.459h37.308c0.398,0,0.796-0.154,1.1-0.459c0.304-0.304,0.455-0.703,0.455-1.103V34.309z"/>
			<path fill="#71C9E9" d="M57.284,32.936c0-0.4-0.151-0.8-0.455-1.103c-0.304-0.305-0.702-0.457-1.1-0.457H18.421
				c-0.398,0-0.796,0.152-1.1,0.457c-0.304,0.304-0.455,0.704-0.455,1.103v16.482c0,0.402,0.151,0.799,0.455,1.105
				c0.304,0.306,0.702,0.457,1.1,0.457h37.308c0.398,0,0.796-0.152,1.1-0.457c0.304-0.306,0.455-0.703,0.455-1.105V32.936z"/>
			<path fill="#5AB5D9" d="M57.284,31.566c0-0.4-0.151-0.8-0.455-1.105c-0.304-0.304-0.702-0.457-1.1-0.457H18.421
				c-0.398,0-0.796,0.154-1.1,0.457c-0.304,0.305-0.455,0.705-0.455,1.105V48.05c0,0.4,0.151,0.799,0.455,1.103
				c0.304,0.306,0.702,0.457,1.1,0.457h37.308c0.398,0,0.796-0.152,1.1-0.457c0.304-0.304,0.455-0.703,0.455-1.103V31.566z"/>
			<path fill="#71C9E9" d="M57.284,30.196c0-0.4-0.151-0.799-0.455-1.103c-0.304-0.306-0.702-0.458-1.1-0.458H18.421
				c-0.398,0-0.796,0.152-1.1,0.458c-0.304,0.304-0.455,0.703-0.455,1.103v16.482c0,0.4,0.151,0.801,0.455,1.105
				c0.304,0.306,0.702,0.459,1.1,0.459h37.308c0.398,0,0.796-0.154,1.1-0.459c0.304-0.304,0.455-0.705,0.455-1.105V30.196z"/>
			<path fill="#5AB5D9" d="M57.284,28.825c0-0.4-0.151-0.798-0.455-1.103c-0.304-0.306-0.702-0.457-1.1-0.457H18.421
				c-0.398,0-0.796,0.152-1.1,0.457c-0.304,0.305-0.455,0.703-0.455,1.103v16.484c0,0.4,0.151,0.799,0.455,1.103
				c0.304,0.306,0.702,0.458,1.1,0.458h37.308c0.398,0,0.796-0.152,1.1-0.458c0.304-0.304,0.455-0.703,0.455-1.103V28.825z"/>
			<path fill="#71C9E9" d="M57.284,27.455c0-0.4-0.151-0.799-0.455-1.103c-0.304-0.306-0.702-0.459-1.1-0.459H18.421
				c-0.398,0-0.796,0.154-1.1,0.459c-0.304,0.304-0.455,0.703-0.455,1.103v16.482c0,0.4,0.151,0.8,0.455,1.105
				c0.304,0.305,0.702,0.457,1.1,0.457h37.308c0.398,0,0.796-0.152,1.1-0.457c0.304-0.306,0.455-0.705,0.455-1.105V27.455z"/>
			<path fill="#5AB5D9" d="M57.284,26.085c0-0.4-0.151-0.799-0.455-1.105c-0.304-0.304-0.702-0.455-1.1-0.455H18.421
				c-0.398,0-0.796,0.152-1.1,0.455c-0.304,0.306-0.455,0.705-0.455,1.105v16.484c0,0.398,0.151,0.8,0.455,1.103
				c0.304,0.304,0.702,0.457,1.1,0.457h37.308c0.398,0,0.796-0.154,1.1-0.457c0.304-0.304,0.455-0.705,0.455-1.103V26.085z"/>
			<path fill="#71C9E9" d="M57.284,24.715c0-0.4-0.151-0.8-0.455-1.103c-0.304-0.306-0.702-0.457-1.1-0.457H18.421
				c-0.398,0-0.796,0.152-1.1,0.457c-0.304,0.304-0.455,0.703-0.455,1.103v16.482c0,0.4,0.151,0.799,0.455,1.105
				c0.304,0.306,0.702,0.457,1.1,0.457h37.308c0.398,0,0.796-0.152,1.1-0.457c0.304-0.306,0.455-0.705,0.455-1.105V24.715z"/>
			<g>
				<path fill="#5AB5D9" d="M57.284,23.344c0-0.4-0.151-0.8-0.455-1.105c-0.304-0.304-0.702-0.457-1.1-0.457H18.421
					c-0.398,0-0.796,0.154-1.1,0.457c-0.304,0.306-0.455,0.705-0.455,1.105v16.482c0,0.4,0.151,0.799,0.455,1.105
					c0.304,0.304,0.702,0.457,1.1,0.457h37.308c0.398,0,0.796-0.154,1.1-0.457c0.304-0.306,0.455-0.705,0.455-1.105V23.344z"/>
				<path fill="#95D9F1" d="M55.128,36.984c-1.232,0-2.231,1.003-2.231,2.239H21.253c0-1.236-0.999-2.239-2.231-2.239V26.187
					c1.232,0,2.231-1.001,2.231-2.237h31.644c0,1.236,0.999,2.237,2.231,2.237V36.984z"/>
				<g>
					<g>
						<path fill="#5AB5D9" d="M37.075,37.587c-3.294,0-5.973-2.693-5.973-6.002c0-3.31,2.679-6.002,5.973-6.002
							c3.295,0,5.973,2.692,5.973,6.002C43.048,34.895,40.369,37.587,37.075,37.587z"/>
						<g>
							<rect x="44.843" y="30.899" fill="#5AB5D9" width="5.231" height="1.372"/>
							<rect x="24.073" y="30.899" fill="#5AB5D9" width="5.231" height="1.372"/>
						</g>
					</g>
				</g>
			</g>
		</g>
		<g>
			<rect x="33.509" y="21.782" fill="#FFFFFF" width="7.132" height="19.607"/>
			<rect x="33.509" y="41.388" fill="#E6E5E5" width="7.132" height="10.964"/>
		</g>
	</g>
</g>
</svg>
