<?xml version="1.0" encoding="utf-8"?>
<!-- Generator: Adobe Illustrator 17.0.0, SVG Export Plug-In . SVG Version: 6.00 Build 0)  -->
<!DOCTYPE svg PUBLIC "-//W3C//DTD SVG 1.1//EN" "http://www.w3.org/Graphics/SVG/1.1/DTD/svg11.dtd">
<svg version="1.1" id="Layer_1" xmlns="http://www.w3.org/2000/svg" xmlns:xlink="http://www.w3.org/1999/xlink" x="0px" y="0px"
	 width="74px" height="74px" viewBox="0 0 74 74" enable-background="new 0 0 74 74" xml:space="preserve">
<g>
	<ellipse fill="#4A5158" cx="36.909" cy="36.983" rx="37.227" ry="36.937"/>
	<path fill="#343C44" d="M58.323,31.984l-7.35-7.29c-0.236-0.234-0.557-0.368-0.889-0.368H40.77l-3.867-3.835
		c-0.489-0.493-1.138-0.736-1.782-0.736c-0.648,0-1.293,0.243-1.782,0.736c-0.495,0.485-0.74,1.127-0.74,1.768v2.067H20.52
		c-0.626,0-1.212,0.244-1.658,0.683c-0.443,0.437-0.682,1.024-0.682,1.643v13.95c0,0.619,0.24,1.206,0.686,1.645l13.734,13.63v2.149
		l14.574,14.46c12.547-3.565,22.382-13.492,25.726-26.042L58.323,31.984z"/>
	<g>
		<path fill="#FFFFFF" d="M36.905,20.487c-0.491-0.487-1.138-0.733-1.784-0.733S33.83,20,33.337,20.487
			c-0.493,0.491-0.738,1.131-0.738,1.772v35.767h5.046V22.258C37.645,21.618,37.4,20.978,36.905,20.487z"/>
		<polygon fill="#F4836B" points="50.082,25.58 19.439,25.58 19.439,41.675 50.082,41.675 58.195,33.627 		"/>
		<path fill="#EA6653" d="M50.082,42.925H20.52c-0.624,0-1.212-0.24-1.654-0.679c-0.444-0.441-0.688-1.024-0.688-1.645V26.653
			c0-0.621,0.243-1.206,0.686-1.645c0.443-0.439,1.032-0.681,1.656-0.681h29.562c0.336,0,0.657,0.132,0.893,0.366l7.348,7.288
			c0.443,0.441,0.684,1.026,0.684,1.645c0,0.619-0.243,1.202-0.684,1.643l-7.348,7.288C50.739,42.795,50.418,42.925,50.082,42.925z
			 M20.701,40.421H49.56l6.849-6.794l-6.849-6.796H20.701V40.421z"/>
		<g>
			<g>
				<path fill="#FFFFFF" d="M47.32,37.098h-4.443c-0.367,0-0.663-0.293-0.663-0.658v-5.628c0-0.362,0.296-0.656,0.663-0.656h4.443
					v1.313h-3.782v4.314h3.782V37.098z"/>
				<rect x="42.214" y="32.97" fill="#FFFFFF" width="3.214" height="1.313"/>
			</g>
			<path fill="#FFFFFF" d="M40.888,37.098h-3.025c-0.557,0-1.078-0.215-1.471-0.604c-0.392-0.389-0.611-0.907-0.611-1.461v-4.876
				h1.324v4.876c0,0.201,0.079,0.389,0.222,0.529c0.143,0.144,0.334,0.222,0.535,0.222h3.025V37.098z"/>
			<path fill="#FFFFFF" d="M25.949,37.098h-0.945c-0.557,0-1.078-0.215-1.473-0.604c-0.39-0.391-0.607-0.909-0.607-1.461h1.322
				c0,0.201,0.079,0.391,0.224,0.533c0.141,0.14,0.33,0.219,0.533,0.219h0.945c0.203,0,0.392-0.079,0.535-0.219
				c0.143-0.142,0.22-0.33,0.22-0.533c0-0.199-0.077-0.387-0.22-0.531c-0.143-0.14-0.332-0.219-0.535-0.219h-0.945
				c-0.555,0-1.078-0.213-1.471-0.604c-0.394-0.391-0.609-0.909-0.609-1.459c0-0.55,0.217-1.068,0.607-1.459
				c0.396-0.391,0.918-0.604,1.473-0.604h0.945c0.557,0,1.08,0.213,1.471,0.604c0.394,0.387,0.609,0.905,0.609,1.459h-1.324
				c0-0.201-0.077-0.389-0.22-0.531c-0.143-0.142-0.332-0.219-0.535-0.219h-0.945c-0.201,0-0.392,0.077-0.537,0.219
				c-0.141,0.142-0.22,0.33-0.22,0.531c0,0.199,0.079,0.389,0.224,0.531c0.141,0.14,0.332,0.219,0.533,0.219h0.945
				c0.557,0,1.08,0.215,1.471,0.604c0.394,0.391,0.609,0.911,0.609,1.459c0,0.554-0.215,1.074-0.609,1.461
				C27.029,36.883,26.507,37.098,25.949,37.098z"/>
			<g>
				<path fill="#FFFFFF" d="M34.46,37.098h-1.324V32.22c0-0.201-0.077-0.389-0.222-0.529c-0.143-0.144-0.332-0.221-0.535-0.221
					h-0.945c-0.203,0-0.392,0.077-0.535,0.219c-0.143,0.142-0.222,0.33-0.222,0.531v4.878h-1.324V32.22
					c0-0.55,0.216-1.07,0.611-1.459c0.394-0.391,0.916-0.604,1.471-0.604h0.945c0.557,0,1.078,0.213,1.471,0.604
					c0.394,0.387,0.611,0.907,0.611,1.459V37.098z"/>
				<rect x="29.352" y="32.97" fill="#FFFFFF" width="5.108" height="1.313"/>
			</g>
		</g>
	</g>
</g>
</svg>
