<?xml version="1.0" encoding="utf-8"?>
<!-- Generator: Adobe Illustrator 17.0.0, SVG Export Plug-In . SVG Version: 6.00 Build 0)  -->
<!DOCTYPE svg PUBLIC "-//W3C//DTD SVG 1.1//EN" "http://www.w3.org/Graphics/SVG/1.1/DTD/svg11.dtd">
<svg version="1.1" id="Layer_1" xmlns="http://www.w3.org/2000/svg" xmlns:xlink="http://www.w3.org/1999/xlink" x="0px" y="0px"
	 width="74px" height="74px" viewBox="0 0 74 74" enable-background="new 0 0 74 74" xml:space="preserve">
<g>
	<circle fill="#F4836B" cx="36.856" cy="37.039" r="36.936"/>
	<path fill="#EA6653" d="M72.223,47.706L49.592,25.077c-0.031-0.033-0.069-0.071-0.102-0.1c-0.838-0.815-1.977-1.315-3.24-1.315
		c-2.035,0-3.764,1.306-4.399,3.126h-1.977c0,1.668-1.35,3.018-3.018,3.018l-3.016-3.018h-1.34l-1.519-1.519
		c-0.14-0.161-0.291-0.311-0.451-0.45c-0.021-0.021-0.038-0.038-0.059-0.056c-0.013-0.011-0.027-0.019-0.042-0.031
		c-0.084-0.071-0.172-0.14-0.263-0.205c-0.021-0.015-0.046-0.029-0.069-0.044c-0.082-0.058-0.169-0.115-0.257-0.167
		c-0.027-0.017-0.056-0.033-0.084-0.048c-0.082-0.048-0.169-0.092-0.255-0.134c-0.033-0.017-0.067-0.033-0.102-0.048
		c-0.082-0.038-0.167-0.075-0.253-0.107c-0.038-0.015-0.075-0.029-0.115-0.042c-0.082-0.031-0.167-0.058-0.253-0.082
		c-0.04-0.011-0.082-0.025-0.125-0.036c-0.086-0.021-0.172-0.04-0.259-0.059c-0.044-0.008-0.086-0.019-0.13-0.027
		c-0.092-0.015-0.186-0.027-0.278-0.036c-0.04-0.006-0.079-0.012-0.119-0.015c-0.132-0.01-0.269-0.017-0.403-0.017
		c-2.389,0-4.357,1.797-4.625,4.113c-0.748,0.395-1.453,0.905-2.086,1.54c-0.18,0.178-0.347,0.366-0.508,0.558
		c-0.038,0.044-0.073,0.088-0.109,0.134c-0.794,0.982-1.342,2.096-1.638,3.262c-2.573,1.649-4.28,4.542-4.28,7.831
		c0,2.464,0.959,4.71,2.522,6.372l26.027,26.026C56.808,71.239,68.196,61.071,72.223,47.706z"/>
	<g>
		<g>
			<g>
				<circle fill="#343C44" cx="27.463" cy="28.32" r="4.659"/>
				<path fill="#343C44" d="M50.908,28.32c0,2.571-2.086,4.657-4.656,4.657c-2.573,0-4.66-2.086-4.66-4.657
					c0-2.573,2.086-4.66,4.66-4.66C48.822,23.66,50.908,25.746,50.908,28.32z"/>
			</g>
		</g>
		<path fill="#4A5158" d="M52.961,29.313c-1.684-1.685-3.893-2.525-6.1-2.525h-6.986c0,1.666-1.352,3.018-3.02,3.018
			c-1.666,0-3.018-1.352-3.018-3.018h-6.988c-2.207,0-4.414,0.84-6.1,2.525c-1.684,1.684-2.525,3.891-2.525,6.1v4.314h37.263v-4.314
			C55.489,33.204,54.647,30.996,52.961,29.313z"/>
		<rect x="30.49" y="37.376" fill="#343C44" width="12.732" height="7.453"/>
		<g>
			<g>
				<circle fill="#343C44" cx="23.534" cy="41.102" r="9.316"/>
				<circle fill="#5AB5D9" cx="23.535" cy="41.102" r="6.802"/>
				<circle fill="#95D9F1" cx="23.535" cy="41.102" r="5.124"/>
				<circle fill="#FFFFFF" cx="20.721" cy="38.289" r="2.143"/>
				<circle fill="#FFFFFF" cx="23.535" cy="41.102" r="0.838"/>
			</g>
			<g>
				<circle fill="#343C44" cx="50.179" cy="41.102" r="9.315"/>
				<circle fill="#5AB5D9" cx="50.178" cy="41.102" r="6.8"/>
				<circle fill="#95D9F1" cx="50.179" cy="41.102" r="5.124"/>
				<circle fill="#FFFFFF" cx="47.365" cy="38.289" r="2.143"/>
				<circle fill="#FFFFFF" cx="50.178" cy="41.102" r="0.839"/>
			</g>
		</g>
		<circle fill="#FFFFFF" cx="36.857" cy="41.102" r="1.397"/>
	</g>
</g>
</svg>
