<?xml version="1.0" encoding="utf-8"?>
<!-- Generator: Adobe Illustrator 17.0.0, SVG Export Plug-In . SVG Version: 6.00 Build 0)  -->
<!DOCTYPE svg PUBLIC "-//W3C//DTD SVG 1.1//EN" "http://www.w3.org/Graphics/SVG/1.1/DTD/svg11.dtd">
<svg version="1.1" id="Layer_1" xmlns="http://www.w3.org/2000/svg" xmlns:xlink="http://www.w3.org/1999/xlink" x="0px" y="0px"
	 width="74px" height="74px" viewBox="0 0 74 74" enable-background="new 0 0 74 74" xml:space="preserve">
<g>
	<ellipse fill="#95D9F1" cx="37.009" cy="37.082" rx="37.019" ry="36.935"/>
	<path fill="#71C9E9" d="M47.499,16.76c-0.006-0.006-0.006-0.006-0.006-0.006l-0.419-0.418c0,0,0,0-0.004-0.006
		c-0.527-0.433-1.205-0.696-1.941-0.696H28.893c-1.691,0-3.071,1.377-3.071,3.06v36.774c0,0.828,0.331,1.582,0.869,2.128
		c0.019,0.019,0.039,0.038,0.062,0.058L42.712,73.58c15.873-2.449,28.413-14.957,30.875-30.79L47.499,16.76z"/>
	<g>
		<g>
			<path fill="#343C44" d="M28.892,58.527c-1.685,0-3.069-1.375-3.069-3.059V18.696c0-1.684,1.384-3.062,3.069-3.062h16.238
				c1.687,0,3.065,1.379,3.065,3.062v36.772c0,1.684-1.378,3.059-3.065,3.059H28.892z"/>
			<path fill="#4A5158" d="M39.665,55.365c0,0.405-0.327,0.731-0.732,0.731h-3.846c-0.402,0-0.734-0.326-0.734-0.731V55.06
				c0-0.404,0.332-0.736,0.734-0.736h3.846c0.406,0,0.732,0.332,0.732,0.736V55.365z"/>
			<path fill="#4A5158" d="M40.219,19.017c0,0.167-0.131,0.299-0.296,0.299H34.1c-0.165,0-0.3-0.132-0.3-0.299v-0.125
				c0-0.161,0.135-0.297,0.3-0.297h5.823c0.165,0,0.296,0.136,0.296,0.297V19.017z"/>
			<rect x="27.56" y="22.276" fill="#F4836B" width="18.898" height="29.618"/>
		</g>
		<g>
			<path fill="#FFFFFF" d="M34.034,36.384c0-5.597,4.545-10.13,10.155-10.13c5.608,0,10.153,4.533,10.153,10.13
				c0,5.595-4.545,10.132-10.153,10.132c-1.676,0-3.254-0.408-4.649-1.126l-2.531,2.527v-4.368l0.006,0.004
				C35.174,41.72,34.034,39.185,34.034,36.384z"/>
			<g>
				<path fill="#CCCBCA" d="M44.976,37.076H43.4c-0.679,0-1.315-0.263-1.791-0.74c-0.479-0.479-0.74-1.114-0.74-1.787
					c0-0.669,0.263-1.302,0.74-1.779c0.477-0.479,1.113-0.744,1.791-0.744h3.417v1.384H43.4c-0.308,0-0.594,0.119-0.809,0.334
					c-0.217,0.219-0.336,0.504-0.336,0.805c0,0.305,0.119,0.593,0.336,0.809c0.215,0.215,0.502,0.334,0.809,0.334h1.576V37.076z"/>
				<path fill="#CCCBCA" d="M44.976,40.742h-3.413v-1.384h3.413c0.305,0,0.594-0.119,0.813-0.336
					c0.213-0.215,0.333-0.504,0.333-0.803c0-0.303-0.119-0.591-0.338-0.811c-0.215-0.211-0.504-0.332-0.807-0.332H43.4v-1.384h1.576
					c0.671,0,1.305,0.263,1.787,0.736c0.484,0.489,0.746,1.122,0.746,1.791c0,0.665-0.262,1.298-0.738,1.781
					C46.284,40.481,45.648,40.742,44.976,40.742z"/>
				<rect x="43.494" y="31.668" fill="#CCCBCA" width="1.388" height="9.43"/>
			</g>
		</g>
	</g>
</g>
</svg>
