<?xml version="1.0" encoding="utf-8"?>
<!-- Generator: Adobe Illustrator 17.0.0, SVG Export Plug-In . SVG Version: 6.00 Build 0)  -->
<!DOCTYPE svg PUBLIC "-//W3C//DTD SVG 1.1//EN" "http://www.w3.org/Graphics/SVG/1.1/DTD/svg11.dtd">
<svg version="1.1" id="Layer_1" xmlns="http://www.w3.org/2000/svg" xmlns:xlink="http://www.w3.org/1999/xlink" x="0px" y="0px"
	 width="74px" height="74px" viewBox="0 0 74 74" enable-background="new 0 0 74 74" xml:space="preserve">
<g>
	<ellipse fill="#95D9F1" cx="36.989" cy="37.046" rx="36.894" ry="37.061"/>
	<path fill="#71C9E9" d="M73.851,38.399L54.747,19.211c-2.67-2.678-6.999-2.678-9.665,0l3.99,4.006l-0.847,0.847
		c-0.01,0.01-0.019,0.025-0.029,0.034c-2.999-2.62-6.918-4.21-11.207-4.21c-2.203,0-4.306,0.423-6.238,1.185l-0.002-0.004
		l-1.852-1.858c-2.666-2.678-6.993-2.678-9.659,0c-2.672,2.682-2.672,7.028,0,9.707l1.852,1.861c-0.76,1.941-1.18,4.054-1.18,6.268
		c0,4.31,1.58,8.241,4.189,11.252c-0.01,0.011-0.025,0.019-0.035,0.029l-3.808,3.831c-0.467,0.469-0.467,1.23,0,1.697l20.008,20.1
		C58.664,72.327,73.178,57.139,73.851,38.399z"/>
	<g>
		<path fill="#343C44" d="M21.101,54.209c-0.307,0-0.611-0.119-0.845-0.354c-0.467-0.468-0.467-1.228,0-1.697l3.81-3.829
			c0.467-0.468,1.224-0.468,1.691,0c0.467,0.469,0.467,1.231,0,1.699l-3.81,3.827C21.712,54.089,21.408,54.209,21.101,54.209z"/>
		<path fill="#343C44" d="M49.068,47.978c-0.307,0-0.611,0.117-0.845,0.35c-0.467,0.469-0.467,1.231,0,1.699l3.81,3.827
			c0.467,0.469,1.224,0.469,1.691,0c0.465-0.468,0.465-1.228,0-1.697l-3.811-3.829C49.681,48.096,49.374,47.978,49.068,47.978z"/>
		<path fill="#343C44" d="M49.068,26.116c-0.307,0-0.611-0.117-0.845-0.352c-0.467-0.469-0.467-1.23,0-1.699l3.381-3.398
			c0.467-0.469,1.226-0.469,1.691,0c0.467,0.469,0.467,1.23,0,1.699l-3.381,3.398C49.681,25.998,49.374,26.116,49.068,26.116z"/>
		<path fill="#343C44" d="M24.911,26.116c-0.305,0-0.611-0.117-0.845-0.352l-3.383-3.398c-0.465-0.469-0.465-1.229,0-1.699
			c0.467-0.468,1.224-0.468,1.691,0l3.383,3.398c0.465,0.469,0.465,1.23,0,1.699C25.524,25.998,25.217,26.116,24.911,26.116z"/>
		<ellipse fill="#EA6653" cx="36.989" cy="37.046" rx="17.081" ry="17.158"/>
		<path fill="#FFFFFF" d="M19.236,19.211c-2.67,2.682-2.67,7.027,0,9.709l9.661-9.709C26.229,16.53,21.902,16.53,19.236,19.211z"/>
		<path fill="#FFFFFF" d="M54.745,19.211c-2.668-2.68-6.995-2.68-9.663,0l9.663,9.707C57.413,26.237,57.413,21.893,54.745,19.211z"
			/>
		<ellipse fill="#FFFFFF" cx="36.99" cy="37.046" rx="13.665" ry="13.728"/>
		<rect x="36.392" y="24.521" fill="#343C44" width="1.195" height="2.401"/>
		<rect x="24.52" y="36.446" fill="#343C44" width="2.392" height="1.201"/>
		<rect x="36.392" y="47.17" fill="#343C44" width="1.195" height="2.401"/>
		<rect x="47.068" y="36.446" fill="#343C44" width="2.39" height="1.201"/>
		<path fill="#343C44" d="M36.989,39.621c-1.412,0-2.561-1.155-2.561-2.574s1.149-2.574,2.561-2.574
			c1.414,0,2.563,1.154,2.563,2.574S38.403,39.621,36.989,39.621z M36.989,35.672c-0.753,0-1.366,0.618-1.366,1.374
			c0,0.758,0.613,1.374,1.366,1.374c0.755,0,1.367-0.616,1.367-1.374C38.357,36.29,37.744,35.672,36.989,35.672z"/>
		<path fill="#343C44" d="M38.378,36.252c-0.153,0-0.305-0.06-0.421-0.175c-0.234-0.235-0.234-0.616,0-0.85l3.865-3.883
			c0.232-0.235,0.611-0.235,0.845,0c0.234,0.235,0.234,0.616,0,0.85l-3.865,3.883C38.684,36.192,38.531,36.252,38.378,36.252z"/>
		<path fill="#EA6653" d="M36.989,43.138c-0.33,0-0.598-0.269-0.598-0.6v-5.491c0-0.331,0.268-0.6,0.598-0.6
			c0.331,0,0.598,0.269,0.598,0.6v5.491C37.587,42.868,37.321,43.138,36.989,43.138z"/>
	</g>
</g>
</svg>
