<?xml version="1.0" encoding="utf-8"?>
<!-- Generator: Adobe Illustrator 17.0.0, SVG Export Plug-In . SVG Version: 6.00 Build 0)  -->
<!DOCTYPE svg PUBLIC "-//W3C//DTD SVG 1.1//EN" "http://www.w3.org/Graphics/SVG/1.1/DTD/svg11.dtd">
<svg version="1.1" id="Layer_1" xmlns="http://www.w3.org/2000/svg" xmlns:xlink="http://www.w3.org/1999/xlink" x="0px" y="0px"
	 width="74px" height="74px" viewBox="0 0 74 74" enable-background="new 0 0 74 74" xml:space="preserve">
<g>
	<ellipse fill="#F4836B" cx="37.096" cy="37.095" rx="37.019" ry="36.977"/>
	<path fill="#EA6653" d="M48.318,18.912c-0.016-0.015-0.029-0.034-0.048-0.048l-0.913-0.916c-0.023-0.019-0.048-0.042-0.067-0.061
		c-2.694-2.444-6.271-3.932-10.194-3.932c-3.798,0-7.267,1.397-9.926,3.701l-0.004-0.004c-0.056,0.048-0.108,0.1-0.163,0.15
		c-0.075,0.067-0.15,0.134-0.223,0.203c-0.108,0.1-0.215,0.201-0.321,0.305c-0.079,0.079-0.156,0.157-0.232,0.236
		c-0.096,0.1-0.194,0.2-0.288,0.303c-0.081,0.088-0.16,0.177-0.238,0.269c-0.086,0.098-0.175,0.196-0.259,0.298
		c-0.085,0.102-0.165,0.205-0.248,0.309c-0.073,0.096-0.15,0.188-0.223,0.284c-0.1,0.134-0.198,0.275-0.296,0.413
		c-0.048,0.069-0.098,0.136-0.146,0.205c-0.138,0.207-0.275,0.419-0.404,0.634c-0.048,0.079-0.094,0.161-0.14,0.242
		c-0.083,0.142-0.163,0.282-0.242,0.426c-0.048,0.092-0.094,0.186-0.142,0.28c-0.069,0.134-0.14,0.269-0.206,0.407
		c-0.046,0.1-0.09,0.2-0.134,0.301c-0.062,0.134-0.121,0.271-0.177,0.407c-0.044,0.106-0.084,0.209-0.125,0.315
		c-0.052,0.136-0.104,0.275-0.154,0.413c-0.036,0.108-0.075,0.215-0.109,0.326c-0.046,0.138-0.09,0.278-0.131,0.419
		c-0.033,0.111-0.065,0.221-0.094,0.332c-0.038,0.144-0.075,0.288-0.11,0.432c-0.027,0.111-0.054,0.223-0.077,0.334
		c-0.033,0.15-0.062,0.299-0.089,0.449c-0.021,0.111-0.042,0.221-0.059,0.332c-0.025,0.159-0.046,0.319-0.067,0.478
		c-0.012,0.106-0.027,0.209-0.038,0.315c-0.019,0.178-0.033,0.359-0.046,0.539c-0.006,0.088-0.015,0.178-0.019,0.267
		c-0.016,0.271-0.023,0.543-0.023,0.818c0,0.248,0.006,0.495,0.019,0.741c0.002,0.061,0.008,0.121,0.012,0.182
		c0.011,0.184,0.023,0.369,0.04,0.551c0.006,0.06,0.015,0.119,0.021,0.18c0.019,0.18,0.04,0.365,0.067,0.545
		c0.008,0.052,0.017,0.104,0.025,0.157c0.031,0.186,0.061,0.373,0.096,0.557c0.01,0.046,0.021,0.09,0.031,0.134
		c0.039,0.192,0.079,0.382,0.125,0.57c0.01,0.035,0.019,0.069,0.029,0.106c0.05,0.196,0.102,0.392,0.159,0.587
		c0.008,0.025,0.015,0.05,0.023,0.075c0.062,0.201,0.127,0.405,0.196,0.605c0.006,0.017,0.013,0.035,0.019,0.054
		c0.073,0.205,0.15,0.409,0.231,0.611c0.006,0.011,0.012,0.025,0.015,0.036c0.085,0.207,0.173,0.413,0.265,0.614
		c0.004,0.008,0.008,0.014,0.011,0.021c0.094,0.207,0.194,0.411,0.298,0.61c0.004,0.008,0.006,0.012,0.01,0.019
		c0.104,0.201,0.213,0.399,0.327,0.597c0.004,0.006,0.008,0.013,0.012,0.019c0.113,0.194,0.231,0.386,0.352,0.576
		c0.006,0.01,0.011,0.017,0.017,0.027c0.119,0.186,0.242,0.369,0.369,0.549c0.01,0.013,0.021,0.027,0.031,0.04
		c0.123,0.175,0.25,0.346,0.381,0.514c0.017,0.019,0.033,0.04,0.05,0.062c0.125,0.157,0.254,0.315,0.385,0.47
		c0.025,0.029,0.05,0.056,0.075,0.086c0.123,0.142,0.25,0.284,0.381,0.422c0.008,0.012,0.017,0.023,0.027,0.033l0.046,0.046
		c0.196,0.205,0.396,0.407,0.604,0.601l0.048,0.05l7.678,7.671v0.004c-0.121,0.173-0.182,0.376-0.182,0.58v13.751
		c0,0.71,0.263,1.365,0.701,1.87l9.36,9.349c14.76-2.904,26.36-14.567,29.166-29.344L48.318,18.912z"/>
	<g>
		<rect x="35.64" y="43.902" fill="#4A5158" width="2.915" height="3.473"/>
		<path fill="#343C44" d="M37.096,13.955c-8.374,0-15.156,6.776-15.156,15.137c0,8.364,6.782,15.141,15.156,15.141
			c8.372,0,15.158-6.777,15.158-15.141C52.254,20.732,45.468,13.955,37.096,13.955z"/>
		<path fill="#5AB5D9" d="M37.094,41.205c-6.694,0-12.125-5.419-12.125-12.113c0-6.69,5.431-12.112,12.125-12.112
			c6.698,0,12.131,5.421,12.131,12.112C49.225,35.786,43.792,41.205,37.094,41.205z"/>
		<ellipse fill="#95D9F1" cx="37.094" cy="29.093" rx="10.267" ry="10.256"/>
		<path fill="#343C44" d="M39.964,48.751v13.396c0,1.578-1.282,2.86-2.865,2.86c-1.586,0-2.867-1.282-2.867-2.86V48.751H39.964z"/>
		<path fill="#FFFFFF" d="M39.962,48.751h-5.729v-0.353c0-0.261,0.1-0.524,0.3-0.724c0.2-0.2,0.459-0.3,0.721-0.3h3.688
			c0.261,0,0.523,0.1,0.723,0.3c0.2,0.2,0.298,0.463,0.298,0.724V48.751z"/>
		<g>
			<polygon fill="#FFFFFF" points="33.479,32.559 30.009,29.094 33.479,25.627 34.358,26.504 31.767,29.094 34.358,31.681 			"/>
			<polygon fill="#FFFFFF" points="40.711,32.559 39.835,31.681 42.43,29.094 39.833,26.504 40.711,25.627 44.186,29.094 			"/>
			
				<rect x="36.473" y="24.025" transform="matrix(0.9622 0.2724 -0.2724 0.9622 9.3283 -9.0041)" fill="#FFFFFF" width="1.24" height="10.14"/>
		</g>
	</g>
</g>
</svg>
