<?xml version="1.0" encoding="utf-8"?>
<!-- Generator: Adobe Illustrator 17.0.0, SVG Export Plug-In . SVG Version: 6.00 Build 0)  -->
<!DOCTYPE svg PUBLIC "-//W3C//DTD SVG 1.1//EN" "http://www.w3.org/Graphics/SVG/1.1/DTD/svg11.dtd">
<svg version="1.1" id="Layer_1" xmlns="http://www.w3.org/2000/svg" xmlns:xlink="http://www.w3.org/1999/xlink" x="0px" y="0px"
	 width="74px" height="74px" viewBox="0 0 74 74" enable-background="new 0 0 74 74" xml:space="preserve">
<g>
	<circle fill="#4A5158" cx="37.085" cy="36.994" r="37.019"/>
	<path fill="#343C44" d="M56.964,21.173c-0.277-0.281-0.644-0.419-1.013-0.419H18.218c-0.369,0-0.736,0.138-1.015,0.419
		c-0.281,0.277-0.419,0.646-0.419,1.013v29.616c0,0.367,0.138,0.736,0.419,1.013L38.37,73.98c19.42-0.663,35.037-16.28,35.7-35.7
		L56.964,21.173z"/>
	<g>
		<g>
			<path fill="#FFFFFF" d="M57.385,51.802c0,0.367-0.14,0.732-0.419,1.013c-0.281,0.281-0.648,0.419-1.015,0.419H18.218
				c-0.367,0-0.734-0.138-1.015-0.419c-0.279-0.281-0.419-0.646-0.419-1.013V28.061h40.601V51.802z"/>
			<path fill="#E6E5E5" d="M57.385,28.061H16.784v-5.875c0-0.367,0.14-0.732,0.419-1.013c0.281-0.281,0.648-0.419,1.015-0.419
				h37.734c0.367,0,0.734,0.138,1.015,0.419c0.279,0.281,0.419,0.646,0.419,1.013V28.061z"/>
		</g>
		<rect x="31.95" y="31.14" fill="#95D9F1" width="10.27" height="8.599"/>
		<g>
			<g>
				<rect x="29.203" y="31.14" fill="#D9D8D7" width="0.955" height="0.955"/>
				<path fill="#D9D8D7" d="M28.275,32.095h-0.928V31.14h0.928V32.095z M26.417,32.095h-0.928V31.14h0.928V32.095z M24.56,32.095
					h-0.93V31.14h0.93V32.095z M22.702,32.095h-0.928V31.14h0.928V32.095z"/>
				<rect x="19.888" y="31.14" fill="#D9D8D7" width="0.955" height="0.955"/>
				<path fill="#D9D8D7" d="M20.843,37.828h-0.955v-0.955h0.955V37.828z M20.843,35.918h-0.955v-0.957h0.955V35.918z M20.843,34.006
					h-0.955V33.05h0.955V34.006z"/>
				<rect x="19.888" y="38.785" fill="#D9D8D7" width="0.955" height="0.953"/>
				<path fill="#D9D8D7" d="M28.275,39.739h-0.93v-0.953h0.93V39.739z M26.417,39.739h-0.928v-0.953h0.928V39.739z M24.56,39.739
					h-0.93v-0.953h0.93V39.739z M22.702,39.739h-0.928v-0.953h0.928V39.739z"/>
				<rect x="29.203" y="38.785" fill="#D9D8D7" width="0.955" height="0.953"/>
				<path fill="#D9D8D7" d="M30.158,37.828h-0.955v-0.955h0.955V37.828z M30.158,35.918h-0.955v-0.957h0.955V35.918z M30.158,34.006
					h-0.955V33.05h0.955V34.006z"/>
			</g>
			<g>
				<rect x="53.326" y="31.14" fill="#D9D8D7" width="0.953" height="0.955"/>
				<path fill="#D9D8D7" d="M52.396,32.095h-0.928V31.14h0.928V32.095z M50.54,32.095h-0.93V31.14h0.93V32.095z M48.681,32.095
					h-0.928V31.14h0.928V32.095z M46.823,32.095h-0.928V31.14h0.928V32.095z"/>
				<rect x="44.011" y="31.14" fill="#D9D8D7" width="0.955" height="0.955"/>
				<path fill="#D9D8D7" d="M44.966,37.828h-0.955v-0.955h0.955V37.828z M44.966,35.918h-0.955v-0.957h0.955V35.918z M44.966,34.006
					h-0.955V33.05h0.955V34.006z"/>
				<rect x="44.011" y="38.785" fill="#D9D8D7" width="0.955" height="0.953"/>
				<path fill="#D9D8D7" d="M52.396,39.739h-0.928v-0.953h0.928V39.739z M50.54,39.739h-0.93v-0.953h0.93V39.739z M48.681,39.739
					h-0.928v-0.953h0.928V39.739z M46.823,39.739h-0.928v-0.953h0.928V39.739z"/>
				<rect x="53.326" y="38.785" fill="#D9D8D7" width="0.953" height="0.953"/>
				<path fill="#D9D8D7" d="M54.28,37.828h-0.953v-0.955h0.953V37.828z M54.28,35.918h-0.953v-0.957h0.953V35.918z M54.28,34.006
					h-0.953V33.05h0.953V34.006z"/>
			</g>
			<g>
				<rect x="29.203" y="41.53" fill="#D9D8D7" width="0.955" height="0.957"/>
				<path fill="#D9D8D7" d="M28.275,42.487h-0.928V41.53h0.928V42.487z M26.417,42.487h-0.928V41.53h0.928V42.487z M24.56,42.487
					h-0.93V41.53h0.93V42.487z M22.702,42.487h-0.928V41.53h0.928V42.487z"/>
				<rect x="19.888" y="41.53" fill="#D9D8D7" width="0.955" height="0.957"/>
				<path fill="#D9D8D7" d="M20.843,48.218h-0.955v-0.953h0.955V48.218z M20.843,46.307h-0.955v-0.955h0.955V46.307z M20.843,44.397
					h-0.955v-0.955h0.955V44.397z"/>
				<rect x="19.888" y="49.175" fill="#D9D8D7" width="0.955" height="0.955"/>
				<path fill="#D9D8D7" d="M28.275,50.13h-0.93v-0.955h0.93V50.13z M26.417,50.13h-0.928v-0.955h0.928V50.13z M24.56,50.13h-0.93
					v-0.955h0.93V50.13z M22.702,50.13h-0.928v-0.955h0.928V50.13z"/>
				<rect x="29.203" y="49.175" fill="#D9D8D7" width="0.955" height="0.955"/>
				<path fill="#D9D8D7" d="M30.158,48.22h-0.955v-0.955h0.955V48.22z M30.158,46.307h-0.955v-0.955h0.955V46.307z M30.158,44.397
					h-0.955v-0.955h0.955V44.397z"/>
			</g>
			<g>
				<rect x="53.326" y="41.53" fill="#D9D8D7" width="0.953" height="0.957"/>
				<path fill="#D9D8D7" d="M52.396,42.487h-0.928V41.53h0.928V42.487z M50.54,42.487h-0.93V41.53h0.93V42.487z M48.681,42.487
					h-0.928V41.53h0.928V42.487z M46.823,42.487h-0.928V41.53h0.928V42.487z"/>
				<rect x="44.011" y="41.53" fill="#D9D8D7" width="0.955" height="0.957"/>
				<path fill="#D9D8D7" d="M44.966,48.218h-0.955v-0.953h0.955V48.218z M44.966,46.307h-0.955v-0.955h0.955V46.307z M44.966,44.397
					h-0.955v-0.955h0.955V44.397z"/>
				<rect x="44.011" y="49.175" fill="#D9D8D7" width="0.955" height="0.955"/>
				<path fill="#D9D8D7" d="M52.396,50.13h-0.928v-0.955h0.928V50.13z M50.54,50.13h-0.93v-0.955h0.93V50.13z M48.681,50.13h-0.928
					v-0.955h0.928V50.13z M46.823,50.13h-0.928v-0.955h0.928V50.13z"/>
				<rect x="53.326" y="49.175" fill="#D9D8D7" width="0.953" height="0.955"/>
				<path fill="#D9D8D7" d="M54.28,48.22h-0.953v-0.955h0.953V48.22z M54.28,46.307h-0.953v-0.955h0.953V46.307z M54.28,44.397
					h-0.953v-0.955h0.953V44.397z"/>
			</g>
			<g>
				<rect x="41.265" y="41.53" fill="#D9D8D7" width="0.955" height="0.957"/>
				<path fill="#D9D8D7" d="M40.335,42.487h-0.928V41.53h0.928V42.487z M38.478,42.487H37.55V41.53h0.928V42.487z M36.62,42.487
					h-0.928V41.53h0.928V42.487z M34.763,42.487h-0.928V41.53h0.928V42.487z"/>
				<rect x="31.95" y="41.53" fill="#D9D8D7" width="0.955" height="0.957"/>
				<path fill="#D9D8D7" d="M32.905,48.218H31.95v-0.953h0.955V48.218z M32.905,46.307H31.95v-0.955h0.955V46.307z M32.905,44.397
					H31.95v-0.955h0.955V44.397z"/>
				<rect x="31.95" y="49.175" fill="#D9D8D7" width="0.955" height="0.955"/>
				<path fill="#D9D8D7" d="M40.335,50.13h-0.928v-0.955h0.928V50.13z M38.478,50.13H37.55v-0.955h0.928V50.13z M36.62,50.13h-0.928
					v-0.955h0.928V50.13z M34.763,50.13h-0.928v-0.955h0.928V50.13z"/>
				<rect x="41.265" y="49.175" fill="#D9D8D7" width="0.955" height="0.955"/>
				<path fill="#D9D8D7" d="M42.22,48.22h-0.955v-0.955h0.955V48.22z M42.22,46.307h-0.955v-0.955h0.955V46.307z M42.22,44.397
					h-0.955v-0.955h0.955V44.397z"/>
			</g>
		</g>
		<g>
			<circle fill="#E2503B" cx="20.366" cy="24.408" r="1.194"/>
			<circle fill="#F5B541" cx="23.949" cy="24.408" r="1.193"/>
			<circle fill="#71C9E9" cx="27.532" cy="24.408" r="1.194"/>
		</g>
	</g>
</g>
</svg>
