<?xml version="1.0" encoding="utf-8"?>
<!-- Generator: Adobe Illustrator 17.0.0, SVG Export Plug-In . SVG Version: 6.00 Build 0)  -->
<!DOCTYPE svg PUBLIC "-//W3C//DTD SVG 1.1//EN" "http://www.w3.org/Graphics/SVG/1.1/DTD/svg11.dtd">
<svg version="1.1" id="Layer_1" xmlns="http://www.w3.org/2000/svg" xmlns:xlink="http://www.w3.org/1999/xlink" x="0px" y="0px"
	 width="74px" height="74px" viewBox="0 0 74 74" enable-background="new 0 0 74 74" xml:space="preserve">
<g>
	<ellipse fill="#4A5158" cx="36.978" cy="37.04" rx="37.144" ry="37.227"/>
	<path fill="#343C44" d="M72.872,46.632l-16.41-16.447c-0.287-0.278-0.623-0.477-0.978-0.611l0,0L43.357,17.422
		c-0.008-0.013-0.023-0.027-0.037-0.043c-0.015-0.013-0.029-0.029-0.044-0.039c-0.555-0.537-1.265-0.802-1.975-0.802
		c-0.729,0-1.462,0.278-2.017,0.841c-0.561,0.557-0.839,1.291-0.839,2.022v-0.294c0,1.384-0.26,2.796-0.829,4.151
		c-0.565,1.355-1.356,2.509-2.339,3.483c-0.829,0.816-1.826,1.494-2.966,1.964c-1.145,0.471-2.326,0.688-3.49,0.688h-0.806
		l-1.001-1.005c-0.278-0.273-0.638-0.412-1.001-0.412h-7.991c-0.359,0-0.723,0.139-0.995,0.412c-0.28,0.28-0.418,0.646-0.418,1.005
		v15.256v7.628c0,0.365,0.139,0.725,0.418,1.003l20.915,20.962C54.719,73.812,68.728,62.244,72.872,46.632z"/>
	<g>
		<g>
			<path fill="#FFFFFF" d="M56.512,30.235c-0.555-0.562-1.288-0.841-2.017-0.841H41.014v5.723h13.481
				c0.729,0,1.462-0.282,2.017-0.841c0.557-0.558,0.837-1.289,0.837-2.02C57.349,31.522,57.069,30.792,56.512,30.235z"/>
			<path fill="#FFFFFF" d="M54.898,35.956c-0.557-0.56-1.288-0.839-2.019-0.839H38.405v5.719h14.474
				c0.731,0,1.462-0.278,2.019-0.837c0.555-0.558,0.835-1.289,0.835-2.022S55.453,36.512,54.898,35.956z"/>
			<path fill="#FFFFFF" d="M53.315,41.672c-0.559-0.555-1.288-0.837-2.021-0.837H35.79v5.721h15.504c0.733,0,1.462-0.28,2.021-0.839
				c0.557-0.557,0.837-1.285,0.837-2.02S53.872,42.233,53.315,41.672z"/>
			<path fill="#FFFFFF" d="M51.732,47.397c-0.557-0.56-1.288-0.841-2.019-0.841H33.196v5.721h16.516
				c0.731,0,1.462-0.276,2.019-0.835c0.557-0.56,0.835-1.291,0.835-2.025C52.567,48.686,52.289,47.954,51.732,47.397z"/>
			<path fill="#FFFFFF" d="M43.318,17.381c-0.557-0.562-1.286-0.841-2.019-0.841c-0.725,0-1.46,0.278-2.013,0.841
				c-0.561,0.557-0.839,1.289-0.839,2.02v-0.292c0,1.382-0.262,2.793-0.829,4.149c-0.567,1.357-1.358,2.509-2.341,3.483
				c-0.827,0.816-1.824,1.492-2.968,1.964c-1.145,0.47-2.326,0.69-3.488,0.69h-1.392v22.883h13.871V31.87l1.302-3.222
				c0.501-1.252,0.895-2.568,1.161-3.946c0.266-1.37,0.393-2.744,0.393-4.095v-1.206C44.155,18.67,43.88,17.937,43.318,17.381z"/>
		</g>
		<g>
			<path fill="#FECE67" d="M27.429,40.836h-10.82V29.394c0-0.363,0.139-0.727,0.415-1.003c0.276-0.278,0.64-0.416,1.001-0.416h7.989
				c0.363,0,0.725,0.137,1.003,0.416c0.276,0.276,0.413,0.64,0.413,1.003V40.836z"/>
			<path fill="#F5B541" d="M27.429,52.277c0,0.363-0.137,0.727-0.413,1.003c-0.278,0.278-0.64,0.418-1.003,0.418h-7.989
				c-0.361,0-0.725-0.139-1.001-0.418c-0.276-0.276-0.415-0.64-0.415-1.003V40.836h10.82V52.277z"/>
			<circle fill="#343C44" cx="22.019" cy="49.417" r="1.328"/>
		</g>
	</g>
</g>
</svg>
