<?xml version="1.0" encoding="utf-8"?>
<!-- Generator: Adobe Illustrator 17.0.0, SVG Export Plug-In . SVG Version: 6.00 Build 0)  -->
<!DOCTYPE svg PUBLIC "-//W3C//DTD SVG 1.1//EN" "http://www.w3.org/Graphics/SVG/1.1/DTD/svg11.dtd">
<svg version="1.1" id="Layer_1" xmlns="http://www.w3.org/2000/svg" xmlns:xlink="http://www.w3.org/1999/xlink" x="0px" y="0px"
	 width="74px" height="74px" viewBox="0 0 74 74" enable-background="new 0 0 74 74" xml:space="preserve">
<g>
	<ellipse fill="#FECE67" cx="37.086" cy="37.003" rx="36.936" ry="37.003"/>
	<path fill="#F5B541" d="M72.808,46.426l-29.484-29.54c-0.138-0.108-0.314-0.177-0.504-0.177c-1.749,0-3.394,0.684-4.633,1.925
		c-0.326,0.327-0.612,0.682-0.859,1.06l-0.004-0.004l-2.015-2.021c-0.639-0.64-1.478-0.96-2.316-0.96h-7.645v3.285
		c0,0.838,0.32,1.677,0.959,2.321l2.159,2.163l0.002,0.002c-5.831,0.225-10.493,5.031-10.493,10.933v10.938
		c0,2.78,1.035,5.319,2.74,7.248l0.949,0.951l19.227,19.26C56.336,72.227,68.962,61.108,72.808,46.426z"/>
	<g>
		<g>
			<path fill="#EA6653" d="M28.895,24.47c-6.033,0-10.922,4.899-10.922,10.942v10.94c0,6.044,4.89,10.942,10.922,10.942
				c6.032,0,10.922-4.899,10.922-10.942v-10.94C39.817,29.369,34.927,24.47,28.895,24.47z"/>
			<path fill="#FFFFFF" d="M21.522,36.231c-0.453,0-0.821-0.365-0.821-0.818c0-4.526,3.676-8.209,8.194-8.209
				c0.452,0,0.819,0.367,0.819,0.82c0,0.453-0.366,0.82-0.819,0.82c-3.615,0-6.556,2.945-6.556,6.568
				C22.339,35.866,21.972,36.231,21.522,36.231z"/>
			<path fill="#EA6653" d="M45.278,24.47c-6.032,0-10.922,4.899-10.922,10.942v10.94c0,6.044,4.89,10.942,10.922,10.942
				c6.031,0,10.921-4.899,10.921-10.942v-10.94C56.198,29.369,51.309,24.47,45.278,24.47z"/>
		</g>
		<path fill="#FFFFFF" d="M45.278,54.56c-4.518,0-8.192-3.683-8.192-8.207v-10.94c0-4.526,3.674-8.207,8.192-8.207
			c4.516,0,8.19,3.681,8.19,8.207v10.94C53.468,50.877,49.794,54.56,45.278,54.56z"/>
		<g>
			<g>
				<g>
					<path fill="#343C44" d="M45.205,40.884c0-0.761-0.616-1.377-1.375-1.377c-0.314,0-0.598,0.115-0.836,0.284
						c-1.528,1.093-1.528,1.093-1.528,1.093s0,0,1.528,1.091c0.238,0.169,0.522,0.284,0.836,0.284
						C44.59,42.259,45.205,41.644,45.205,40.884z"/>
				</g>
				<g>
					<path fill="#343C44" d="M41.562,34.625c-0.717-0.25-1.5,0.134-1.747,0.853c-0.103,0.3-0.086,0.607-0.002,0.888
						c0.533,1.802,0.533,1.802,0.533,1.802s0,0,1.526-1.091c0.238-0.171,0.439-0.403,0.543-0.703
						C42.661,35.655,42.279,34.871,41.562,34.625z"/>
				</g>
				<g>
					<path fill="#343C44" d="M41.562,47.141c-0.717,0.248-1.5-0.136-1.747-0.855c-0.103-0.3-0.086-0.605-0.002-0.884
						c0.533-1.802,0.533-1.802,0.533-1.802s0,0,1.526,1.089c0.238,0.171,0.439,0.403,0.543,0.701
						C42.661,46.111,42.279,46.893,41.562,47.141z"/>
				</g>
			</g>
		</g>
		<g>
			<g>
				<path fill="#343C44" d="M37.086,28.994c-0.453,0-0.819-0.367-0.819-0.82v-4.899c0-0.453,0.366-0.82,0.819-0.82
					c0.452,0,0.819,0.367,0.819,0.82v4.899C37.905,28.628,37.539,28.994,37.086,28.994z"/>
				<path fill="#343C44" d="M37.086,24.096c-0.453,0-0.819-0.367-0.819-0.82c0-1.752,0.681-3.402,1.917-4.641
					c1.239-1.241,2.884-1.925,4.635-1.925c0.452,0,0.819,0.369,0.819,0.822c0,0.453-0.366,0.82-0.819,0.82
					c-1.314,0-2.547,0.513-3.475,1.443c-0.928,0.93-1.44,2.167-1.44,3.481C37.905,23.729,37.539,24.096,37.086,24.096z"/>
			</g>
		</g>
		<path fill="#71C9E9" d="M36.268,23.275h-7.645c-0.84,0-1.678-0.321-2.318-0.961c-0.639-0.642-0.959-1.483-0.959-2.323v-3.283
			h7.645c0.838,0,1.678,0.321,2.316,0.962c0.641,0.64,0.961,1.481,0.961,2.321V23.275z"/>
	</g>
</g>
</svg>
