<?xml version="1.0" encoding="utf-8"?>
<!-- Generator: Adobe Illustrator 17.0.0, SVG Export Plug-In . SVG Version: 6.00 Build 0)  -->
<!DOCTYPE svg PUBLIC "-//W3C//DTD SVG 1.1//EN" "http://www.w3.org/Graphics/SVG/1.1/DTD/svg11.dtd">
<svg version="1.1" id="Layer_1" xmlns="http://www.w3.org/2000/svg" xmlns:xlink="http://www.w3.org/1999/xlink" x="0px" y="0px"
	 width="74px" height="74px" viewBox="0 0 74 74" enable-background="new 0 0 74 74" xml:space="preserve">
<g>
	<ellipse fill="#FECE67" cx="37.107" cy="36.997" rx="36.977" ry="37.062"/>
	<path fill="#F5B541" d="M39.938,73.94c16.726-1.272,30.341-13.685,33.464-29.859l-29.01-29.075c-0.42-0.421-1.096-0.421-1.517,0
		c-0.157,0.158-0.328,0.296-0.511,0.416l-4.07-4.079c-0.006-0.01-0.01-0.013-0.019-0.019c-0.301-0.3-0.716-0.483-1.169-0.483
		c-0.922,0-1.67,0.752-1.67,1.674v2.067v1.458h-1.609c-1.511,0-2.933,0.589-4.006,1.664c-0.941,0.947-1.513,2.17-1.632,3.486h-0.048
		l-0.668-0.669h-1.05c0,0.112,0.012,0.223,0.033,0.331c0.008,0.04,0.023,0.077,0.033,0.115c0.017,0.067,0.035,0.135,0.06,0.2
		c0.021,0.05,0.05,0.098,0.077,0.146c0.023,0.048,0.044,0.096,0.073,0.14c0.042,0.065,0.092,0.123,0.142,0.183
		c0.019,0.021,0.033,0.044,0.052,0.065c0.01,0.013,0.019,0.023,0.033,0.038c0.015,0.008,0.023,0.023,0.038,0.033l1.39,1.393
		c0.014,0.052,0.031,0.102,0.046,0.152c0.023,0.083,0.048,0.164,0.077,0.244c0.023,0.069,0.048,0.137,0.075,0.206
		c0.025,0.064,0.052,0.127,0.079,0.189c0.034,0.081,0.069,0.162,0.108,0.243c0.015,0.027,0.031,0.054,0.044,0.081
		c0.267,0.527,0.616,1.018,1.046,1.447c0.154,0.156,0.319,0.298,0.488,0.435l0.008,0.006l5.114,5.128v3.146h-1.609
		c-0.336,0-0.666,0.033-0.991,0.09l-8.704-8.723c-0.062-0.062-0.123-0.123-0.186-0.181c-0.048-0.042-0.098-0.081-0.148-0.121
		c-0.034-0.029-0.069-0.058-0.104-0.085c-0.088-0.069-0.177-0.135-0.269-0.198c-0.05-0.035-0.104-0.071-0.155-0.104
		c-0.079-0.05-0.157-0.096-0.238-0.142c-0.063-0.035-0.129-0.073-0.194-0.106c-0.073-0.036-0.15-0.069-0.225-0.104
		c-0.071-0.033-0.142-0.063-0.215-0.092c-0.075-0.029-0.15-0.054-0.224-0.079c-0.075-0.025-0.148-0.052-0.223-0.073
		c-0.081-0.023-0.161-0.041-0.242-0.06c-0.073-0.017-0.142-0.037-0.215-0.048c-0.096-0.019-0.192-0.031-0.286-0.042
		c-0.059-0.008-0.117-0.017-0.177-0.023c-0.155-0.015-0.313-0.023-0.468-0.023v5.054c0,0.063,0,0.125,0.006,0.187
		c0,0.044,0.008,0.086,0.009,0.131c0.006,0.085,0.012,0.169,0.021,0.256c0.008,0.079,0.021,0.158,0.035,0.237
		c0.011,0.075,0.023,0.148,0.038,0.223c0.017,0.086,0.04,0.173,0.063,0.26c0.017,0.065,0.033,0.133,0.054,0.198
		c0.029,0.09,0.061,0.181,0.094,0.269c0.023,0.06,0.042,0.121,0.069,0.181c0.038,0.092,0.081,0.181,0.125,0.271
		c0.027,0.056,0.052,0.112,0.081,0.165c0.048,0.092,0.106,0.181,0.159,0.269c0.031,0.05,0.058,0.102,0.092,0.152
		c0.063,0.094,0.134,0.185,0.203,0.277c0.031,0.04,0.058,0.081,0.09,0.121c0.106,0.129,0.219,0.254,0.34,0.375l3.106,3.113v1.955
		c0,0.646,0.252,1.254,0.706,1.709l2.259,2.265c-0.129,0.433-0.524,0.752-1,0.752h-4.434c-0.72,0-1.378,0.296-1.855,0.77
		c-0.478,0.479-0.774,1.133-0.774,1.86c0,0.129,0.013,0.254,0.031,0.377c0.004,0.025,0.008,0.052,0.013,0.079
		c0.019,0.119,0.048,0.239,0.086,0.352c0.004,0.013,0.009,0.029,0.015,0.042c0.038,0.113,0.084,0.221,0.138,0.327
		c0.006,0.01,0.01,0.017,0.013,0.027c0.06,0.115,0.129,0.225,0.205,0.329c0.002,0.004,0.002,0.004,0.002,0.004l0.004,0.006
		c0.159,0.218,0.35,0.408,0.568,0.568l3.617,3.627l2.425,10.03v0.004L39.938,73.94z"/>
	<g>
		<g>
			<g>
				<path fill="#343C44" d="M28.188,40.435h-0.63c-0.641,0-1.246-0.25-1.701-0.706c-0.455-0.458-0.706-1.062-0.706-1.707v-3.9h0.92
					v3.9c0,0.398,0.155,0.773,0.436,1.056c0.28,0.281,0.657,0.435,1.052,0.435h0.63V40.435z"/>
				<path fill="#71C9E9" d="M24.134,25.807c0.987,0.987,1.478,2.28,1.478,3.573v5.056c-1.29,0-2.58-0.495-3.567-1.482
					c-0.987-0.985-1.478-2.28-1.478-3.575v-5.054C21.857,24.325,23.145,24.82,24.134,25.807z"/>
				<path fill="#71C9E9" d="M26.429,32.145c-0.547,0.546-0.818,1.26-0.818,1.978v2.797c0.712,0,1.428-0.275,1.973-0.82
					c0.545-0.546,0.818-1.264,0.818-1.978v-2.799C27.687,31.323,26.975,31.596,26.429,32.145z"/>
			</g>
			<g>
				<path fill="#343C44" d="M46.385,31.196h-0.384v-0.562h0.384c0.244,0,0.47-0.094,0.639-0.264c0.173-0.173,0.269-0.4,0.269-0.643
					v-1.031h0.559v1.031c0,0.393-0.154,0.762-0.432,1.039C47.147,31.042,46.778,31.196,46.385,31.196z"/>
				<path fill="#71C9E9" d="M48.471,24.029c-0.599,0.604-0.9,1.391-0.9,2.182v3.076c0.785,0,1.572-0.302,2.171-0.902
					c0.599-0.6,0.9-1.389,0.9-2.174v-3.08C49.857,23.131,49.07,23.429,48.471,24.029z"/>
			</g>
			<g>
				<g>
					<path fill="#343C44" d="M28.261,22.24H28.14c-0.459,0-0.889-0.179-1.213-0.504c-0.325-0.325-0.503-0.756-0.503-1.216h1.05
						c0,0.179,0.069,0.346,0.194,0.473c0.125,0.125,0.294,0.194,0.472,0.194h0.121V22.24z"/>
					<path fill="#343C44" d="M29.24,42.244c-0.593,0-1.073-0.483-1.073-1.076v-1.05c0-1.516,0.587-2.942,1.657-4.015
						c1.071-1.072,2.496-1.66,4.006-1.66h6.556c0.941,0,1.824-0.369,2.488-1.035c0.664-0.666,1.029-1.551,1.029-2.491
						c0-0.941-0.365-1.826-1.029-2.494c-0.664-0.664-1.547-1.031-2.488-1.031H33.83c-1.513,0-2.935-0.591-4.006-1.66
						c-1.069-1.076-1.657-2.501-1.657-4.017c0-1.514,0.587-2.94,1.657-4.012c1.073-1.074,2.496-1.664,4.006-1.664h6.556
						c0.941,0,1.824-0.365,2.49-1.031c0.419-0.421,1.098-0.421,1.519,0c0.419,0.419,0.419,1.101-0.002,1.522
						c-1.071,1.072-2.494,1.662-4.006,1.662H33.83c-0.939,0-1.822,0.367-2.488,1.033c-0.662,0.664-1.029,1.551-1.029,2.49
						c0,0.943,0.367,1.828,1.031,2.495c0.662,0.664,1.547,1.029,2.486,1.029h6.556c1.513,0,2.937,0.593,4.006,1.664
						c1.069,1.074,1.659,2.499,1.659,4.013c0,1.514-0.589,2.94-1.657,4.013c-1.073,1.074-2.496,1.664-4.008,1.664H33.83
						c-0.939,0-1.824,0.366-2.488,1.031c-0.662,0.666-1.029,1.551-1.029,2.494v1.05C30.313,41.761,29.833,42.244,29.24,42.244z"/>
					<path fill="#343C44" d="M34.223,42.744h-6.057v-1.576h4.483c0.403,0,0.806,0.154,1.111,0.462
						C34.068,41.938,34.223,42.342,34.223,42.744z"/>
					<path fill="#343C44" d="M31.361,41.168h-1.048v-1.05C30.313,40.697,30.781,41.168,31.361,41.168z"/>
					<path fill="#343C44" d="M27.117,42.744h1.05v-1.05C28.167,42.275,27.697,42.744,27.117,42.744z"/>
				</g>
			</g>
			<g>
				<rect x="35.439" y="27.39" fill="#FFFFFF" width="3.34" height="15.354"/>
				<rect x="35.439" y="12.514" fill="#FFFFFF" width="3.34" height="12.723"/>
				<circle fill="#FFFFFF" cx="37.109" cy="12.514" r="1.67"/>
			</g>
		</g>
		<g>
			<path fill="#E2503B" d="M54.158,45.374c0,1.445-1.179,2.628-2.622,2.628H22.682c-1.444,0-2.626-1.183-2.626-2.628l0,0
				c0-1.447,1.183-2.63,2.626-2.63h28.853C52.979,42.744,54.158,43.927,54.158,45.374L54.158,45.374z"/>
			<polygon fill="#EA6653" points="47.043,61.147 27.174,61.147 23.993,48.002 50.222,48.002 			"/>
		</g>
	</g>
</g>
</svg>
