<?xml version="1.0" encoding="utf-8"?>
<!-- Generator: Adobe Illustrator 17.0.0, SVG Export Plug-In . SVG Version: 6.00 Build 0)  -->
<!DOCTYPE svg PUBLIC "-//W3C//DTD SVG 1.1//EN" "http://www.w3.org/Graphics/SVG/1.1/DTD/svg11.dtd">
<svg version="1.1" id="Layer_1" xmlns="http://www.w3.org/2000/svg" xmlns:xlink="http://www.w3.org/1999/xlink" x="0px" y="0px"
	 width="74px" height="74px" viewBox="0 0 74 74" enable-background="new 0 0 74 74" xml:space="preserve">
<g>
	<circle fill="#F4836B" cx="37.008" cy="36.973" r="37.006"/>
	<path fill="#EA6653" d="M73.641,42.177L56.093,24.629l-0.53-0.53c-0.868-0.755-1.996-1.208-3.231-1.208H29.139
		c-2.732,0-4.972,2.234-4.972,4.97v2.484h-2.482c-2.736,0-4.97,2.24-4.97,4.97v10.768c0,1.251,0.467,2.401,1.241,3.276l0.453,0.453
		l5.767,5.767l18.028,18.028C58.479,71.319,71.351,58.449,73.641,42.177z"/>
	<g>
		<path fill="#FFFFFF" d="M49.846,35.315c0-2.732-2.236-4.968-4.968-4.968H21.685c-2.734,0-4.97,2.236-4.97,4.968v10.768
			c0,2.734,2.236,4.97,4.97,4.97h23.193c2.732,0,4.968-2.236,4.968-4.97V35.315z"/>
		<path fill="#FFFFFF" d="M57.302,27.86c0-2.734-2.236-4.97-4.97-4.97H29.139c-2.734,0-4.97,2.236-4.97,4.97v10.768
			c0,2.734,2.236,4.97,4.97,4.97h23.192c2.734,0,4.97-2.236,4.97-4.97V27.86z"/>
		<polygon fill="#FFFFFF" points="24.169,55.59 24.169,51.053 28.707,51.053 		"/>
		<path fill="#FECE67" d="M44.877,30.346H24.169v8.282c0,2.734,2.236,4.97,4.97,4.97h20.707v-8.284
			C49.846,32.583,47.609,30.346,44.877,30.346z"/>
		<g>
			<g>
				<path fill="#4A5158" d="M34.772,36.973c0,0.526-0.428,0.951-0.953,0.951c-0.526,0-0.953-0.425-0.953-0.951
					c0-0.528,0.427-0.953,0.953-0.953C34.343,36.02,34.772,36.444,34.772,36.973z"/>
				<path fill="#4A5158" d="M37.961,36.973c0,0.526-0.427,0.951-0.953,0.951c-0.526,0-0.953-0.425-0.953-0.951
					c0-0.528,0.427-0.953,0.953-0.953C37.534,36.02,37.961,36.444,37.961,36.973z"/>
				<path fill="#4A5158" d="M41.15,36.973c0,0.526-0.427,0.951-0.953,0.951c-0.526,0-0.953-0.425-0.953-0.951
					c0-0.528,0.427-0.953,0.953-0.953C40.724,36.02,41.15,36.444,41.15,36.973z"/>
			</g>
		</g>
	</g>
</g>
</svg>
