<?xml version="1.0" encoding="utf-8"?>
<!-- Generator: Adobe Illustrator 17.0.0, SVG Export Plug-In . SVG Version: 6.00 Build 0)  -->
<!DOCTYPE svg PUBLIC "-//W3C//DTD SVG 1.1//EN" "http://www.w3.org/Graphics/SVG/1.1/DTD/svg11.dtd">
<svg version="1.1" id="Layer_1" xmlns="http://www.w3.org/2000/svg" xmlns:xlink="http://www.w3.org/1999/xlink" x="0px" y="0px"
	 width="74px" height="74px" viewBox="0 0 74 74" enable-background="new 0 0 74 74" xml:space="preserve">
<g>
	<ellipse fill="#F4836B" cx="36.956" cy="36.963" rx="37.048" ry="36.995"/>
	<path fill="#EA6653" d="M73.519,42.922L47.234,16.675H22.854c-0.368,0-0.737,0.138-1.014,0.42
		c-0.283,0.277-0.421,0.644-0.421,1.012v18.058l-3.035,1.752l-1.516,0.868l4.551,4.546v12.486c0,0.288,0.087,0.574,0.254,0.818
		l0.363,0.361l16.93,16.905C56.486,72.966,70.769,59.875,73.519,42.922z"/>
	<g>
		<g>
			<path fill="#FFFFFF" d="M52.493,21.926v33.891c0,0.367-0.14,0.734-0.421,1.014c-0.279,0.28-0.646,0.419-1.014,0.419H22.854
				c-0.368,0-0.735-0.138-1.014-0.419c-0.281-0.28-0.421-0.647-0.421-1.014V18.108c0-0.367,0.14-0.734,0.421-1.014
				c0.279-0.278,0.646-0.419,1.014-0.419h24.381L52.493,21.926z"/>
			<path fill="#E6E5E5" d="M52.493,21.926h-3.824c-0.367,0-0.737-0.14-1.015-0.419c-0.279-0.28-0.419-0.647-0.419-1.014v-3.818
				L52.493,21.926z"/>
		</g>
		<g>
			<rect x="26.677" y="28.349" fill="#CCCBCA" width="20.557" height="1.608"/>
			<rect x="26.677" y="31.562" fill="#CCCBCA" width="20.557" height="1.606"/>
			<rect x="26.677" y="21.926" fill="#4A5158" width="10.278" height="1.606"/>
			<rect x="26.677" y="25.137" fill="#CCCBCA" width="20.557" height="1.606"/>
			<rect x="26.677" y="50.833" fill="#CCCBCA" width="20.557" height="1.606"/>
			<rect x="26.677" y="47.62" fill="#CCCBCA" width="20.557" height="1.607"/>
			<rect x="26.677" y="44.409" fill="#CCCBCA" width="20.557" height="1.606"/>
		</g>
		<g>
			<rect x="21.419" y="36.165" fill="#FECE67" width="31.074" height="1.748"/>
			<rect x="21.419" y="37.913" fill="#F5B541" width="31.074" height="1.752"/>
			<rect x="21.419" y="39.665" fill="#ECA434" width="31.074" height="1.748"/>
			<polygon fill="#FFFFFF" points="21.419,41.413 18.386,39.661 18.384,37.917 21.419,36.167 			"/>
			<polygon fill="#E6E5E5" points="21.419,41.413 21.419,39.665 18.386,39.079 18.386,39.661 			"/>
			<polygon fill="#4A5158" points="18.386,39.661 16.87,38.785 18.384,37.917 			"/>
			<rect x="52.493" y="39.661" fill="#E6E5E5" width="1.75" height="1.75"/>
			<rect x="52.493" y="36.165" fill="#FFFFFF" width="1.75" height="3.498"/>
			<path fill="#343C44" d="M54.651,41.409h-0.408v-1.748h0.408c0.669,0,1.344-0.254,1.856-0.764
				c0.285-0.288,0.494-0.626,0.617-0.983c0.1,0.282,0.154,0.576,0.154,0.872c0,0.674-0.258,1.342-0.771,1.859
				C55.995,41.155,55.32,41.409,54.651,41.409z"/>
			<path fill="#4A5158" d="M54.651,39.661h-0.408v-3.499l0.408,0.002c0.669,0,1.344,0.257,1.856,0.77
				c0.285,0.284,0.49,0.62,0.617,0.979c-0.123,0.357-0.333,0.695-0.617,0.983C55.995,39.408,55.32,39.661,54.651,39.661z"/>
		</g>
	</g>
</g>
</svg>
