<?xml version="1.0" encoding="utf-8"?>
<!-- Generator: Adobe Illustrator 17.0.0, SVG Export Plug-In . SVG Version: 6.00 Build 0)  -->
<!DOCTYPE svg PUBLIC "-//W3C//DTD SVG 1.1//EN" "http://www.w3.org/Graphics/SVG/1.1/DTD/svg11.dtd">
<svg version="1.1" id="Layer_1" xmlns="http://www.w3.org/2000/svg" xmlns:xlink="http://www.w3.org/1999/xlink" x="0px" y="0px"
	 width="74px" height="74px" viewBox="0 0 74 74" enable-background="new 0 0 74 74" xml:space="preserve">
<g>
	<ellipse fill="#FECE67" cx="36.904" cy="36.932" rx="36.977" ry="36.998"/>
	<path fill="#F5B541" d="M51.266,29.819L37.916,16.46c-0.557-0.553-1.468-0.553-2.023,0L22.582,29.781
		c-0.559,0.559-0.559,1.469-0.004,2.028l2.056,2.053v0.004l-2.056,2.053c-0.555,0.553-0.555,1.469,0,2.025l2.056,2.057l-2.052,2.053
		c-0.559,0.559-0.559,1.469-0.004,2.023l27.434,27.452c9.875-3.747,17.725-11.602,21.472-21.482L51.266,29.819z"/>
	<g>
		<path fill="#343C44" d="M22.58,44.081c-0.557-0.557-0.557-1.469,0-2.025l13.313-13.321c0.557-0.557,1.467-0.557,2.023,0
			l13.315,13.321c0.557,0.555,0.557,1.467,0,2.025L37.916,57.401c-0.557,0.557-1.467,0.557-2.023,0L22.58,44.081z"/>
		<path fill="#EA6653" d="M22.58,37.944c-0.557-0.557-0.557-1.469,0-2.025l13.313-13.321c0.557-0.557,1.467-0.557,2.023,0
			l13.315,13.321c0.557,0.555,0.557,1.467,0,2.025L37.916,51.265c-0.557,0.557-1.467,0.557-2.023,0L22.58,37.944z"/>
		<path fill="#FFFFFF" d="M22.58,31.807c-0.557-0.557-0.557-1.467,0-2.026l13.313-13.319c0.557-0.557,1.467-0.557,2.023,0
			l13.315,13.321c0.557,0.557,0.557,1.467,0,2.025L37.916,45.129c-0.557,0.557-1.467,0.557-2.023,0L22.58,31.807z"/>
		<path fill="#E6E5E5" d="M24.634,33.862l11.259,11.267c0.557,0.557,1.467,0.557,2.023,0l11.261-11.267L37.916,22.599
			c-0.557-0.557-1.467-0.557-2.023,0L24.634,33.862z"/>
	</g>
</g>
</svg>
