<?xml version="1.0" encoding="utf-8"?>
<!-- Generator: Adobe Illustrator 17.0.0, SVG Export Plug-In . SVG Version: 6.00 Build 0)  -->
<!DOCTYPE svg PUBLIC "-//W3C//DTD SVG 1.1//EN" "http://www.w3.org/Graphics/SVG/1.1/DTD/svg11.dtd">
<svg version="1.1" id="Layer_1" xmlns="http://www.w3.org/2000/svg" xmlns:xlink="http://www.w3.org/1999/xlink" x="0px" y="0px"
	 width="74px" height="74px" viewBox="0 0 74 74" enable-background="new 0 0 74 74" xml:space="preserve">
<g>
	<ellipse fill="#4A5158" cx="36.941" cy="36.981" rx="37.061" ry="37.019"/>
	<path fill="#343C44" d="M41.212,73.746L26.545,59.097c-0.177-0.167-0.344-0.34-0.512-0.511c-2.578-2.698-4.162-6.357-4.162-10.383
		c0-7.018,4.797-12.907,11.302-14.578V22.977c-0.441,0-0.885-0.173-1.22-0.507c-0.339-0.334-0.508-0.776-0.508-1.217
		c0-0.44,0.169-0.884,0.508-1.218c0.335-0.334,0.779-0.502,1.22-0.502h5.432l-7.894-7.887l-0.373-0.371
		c-0.235-0.311-0.369-0.694-0.369-1.109c0-1.017,0.827-1.843,1.851-1.843c0.45,0,0.856,0.158,1.177,0.421l0.248,0.248l39.079,39.033
		C68.03,61.766,55.931,72.059,41.212,73.746z M42.813,12.277l-0.052-0.052c-0.139-0.132-0.325-0.209-0.531-0.209
		c-0.441,0-0.795,0.357-0.795,0.792c0,0.169,0.048,0.315,0.135,0.446l0.215,0.215l13.599,13.583l-1.722,1.718l18.8,18.777
		c0.444-1.497,0.8-3.033,1.054-4.603L42.813,12.277z"/>
	<g>
		<g>
			<path fill="#FFFFFF" d="M52.01,48.203c0,8.31-6.748,15.049-15.069,15.049c-8.323,0-15.069-6.74-15.069-15.049
				c0-8.315,6.746-15.053,15.069-15.053C45.262,33.149,52.01,39.887,52.01,48.203z"/>
			<rect x="33.172" y="22.976" fill="#FFFFFF" width="7.535" height="10.649"/>
			<path fill="#FFFFFF" d="M42.432,21.252c0-0.438-0.169-0.88-0.506-1.217s-0.777-0.504-1.22-0.504h-7.535
				c-0.441,0-0.883,0.167-1.218,0.504c-0.339,0.336-0.506,0.778-0.506,1.217l0,0c0,0.442,0.167,0.884,0.506,1.218
				c0.335,0.338,0.777,0.505,1.218,0.505h7.535c0.443,0,0.883-0.167,1.22-0.505C42.263,22.136,42.432,21.694,42.432,21.252
				L42.432,21.252z"/>
			<g>
				<polygon fill="#FFFFFF" points="51.981,36.149 49.006,33.176 45.913,36.266 48.887,39.239 				"/>
				<path fill="#FFFFFF" d="M53.357,36.167c0.179-0.179,0.306-0.44,0.306-0.711c0-0.273-0.11-0.519-0.289-0.698l-2.975-2.973
					c-0.179-0.179-0.425-0.288-0.696-0.288c-0.273,0-0.52,0.11-0.698,0.286h0.002c-0.179,0.179-0.289,0.425-0.289,0.698
					c0,0.271,0.11,0.517,0.289,0.696l2.976,2.971c0.177,0.179,0.423,0.29,0.695,0.29c0.273,0,0.544-0.137,0.723-0.313L53.357,36.167
					z"/>
			</g>
		</g>
		<g>
			<circle fill="#FFFFFF" cx="56.187" cy="33.624" r="0.618"/>
			<g>
				<path fill="#FFFFFF" d="M56.805,27.188c0,1.086-0.881,1.97-1.97,1.97c-1.089,0-1.97-0.884-1.97-1.97
					c0-1.084,0.881-1.966,1.97-1.966C55.923,25.222,56.805,26.104,56.805,27.188z"/>
			</g>
		</g>
		<g>
			<path fill="#E2503B" d="M49.543,48.329c-0.008,0.969-0.127,1.918-0.354,2.823H33.785v-2.823c0.419-0.409,1.024-0.832,1.837-1.213
				c1.641-0.78,4.125-1.397,7.621-1.397C46.723,45.72,49.543,46.888,49.543,48.329z"/>
			<path fill="#F4836B" d="M43.244,50.808c-2.074-0.154-4.56-0.865-6.305-2.608c-3.479-3.476-9.122-3.476-12.607,0
				c0,6.943,5.655,12.589,12.607,12.589c6.909,0,12.543-5.577,12.604-12.461C49.405,49.782,46.953,51.083,43.244,50.808z"/>
		</g>
		<g>
			<g>
				<path fill="#F4836B" d="M36.621,30.257c0,0.431-0.354,0.782-0.785,0.782c-0.437,0-0.789-0.352-0.789-0.782
					c0-0.434,0.352-0.788,0.789-0.788C36.267,29.469,36.621,29.823,36.621,30.257z"/>
				<path fill="#F4836B" d="M39.836,36.436c0,1.044-0.845,1.887-1.887,1.887c-1.047,0-1.891-0.844-1.891-1.887
					s0.845-1.885,1.891-1.885C38.992,34.55,39.836,35.392,39.836,36.436z"/>
				<circle fill="#F4836B" cx="28.446" cy="43.452" r="0.985"/>
			</g>
		</g>
		<g>
			<path fill="#FFFFFF" d="M33.466,53.307c0,0.815-0.662,1.474-1.48,1.474c-0.814,0-1.478-0.659-1.478-1.474
				c0-0.819,0.664-1.478,1.478-1.478C32.804,51.829,33.466,52.488,33.466,53.307z"/>
			<path fill="#FFFFFF" d="M39.775,57.477c0,0.342-0.275,0.621-0.614,0.621c-0.34,0-0.618-0.279-0.618-0.621
				c0-0.338,0.277-0.611,0.618-0.611C39.5,56.866,39.775,57.139,39.775,57.477z"/>
			<circle fill="#FFFFFF" cx="43.032" cy="55.094" r="0.985"/>
		</g>
		<g>
			<circle fill="#FFFFFF" cx="31.816" cy="10.169" r="1.85"/>
			<path fill="#FFFFFF" d="M37.947,16.342c0,0.582-0.471,1.057-1.054,1.057c-0.587,0-1.058-0.475-1.058-1.057
				s0.471-1.055,1.058-1.055C37.475,15.287,37.947,15.759,37.947,16.342z"/>
			<path fill="#FFFFFF" d="M43.021,12.808c0,0.442-0.354,0.794-0.793,0.794c-0.437,0-0.793-0.352-0.793-0.794
				c0-0.434,0.356-0.792,0.793-0.792C42.667,12.016,43.021,12.373,43.021,12.808z"/>
		</g>
	</g>
</g>
</svg>
