<?xml version="1.0" encoding="utf-8"?>
<!-- Generator: Adobe Illustrator 17.0.0, SVG Export Plug-In . SVG Version: 6.00 Build 0)  -->
<!DOCTYPE svg PUBLIC "-//W3C//DTD SVG 1.1//EN" "http://www.w3.org/Graphics/SVG/1.1/DTD/svg11.dtd">
<svg version="1.1" id="Layer_1" xmlns="http://www.w3.org/2000/svg" xmlns:xlink="http://www.w3.org/1999/xlink" x="0px" y="0px"
	 width="74px" height="74px" viewBox="0 0 74 74" enable-background="new 0 0 74 74" xml:space="preserve">
<g>
	<ellipse fill="#95D9F1" cx="37.045" cy="37.019" rx="37.103" ry="37.019"/>
	<path fill="#71C9E9" d="M74.115,38.276L57.17,21.371H39.659c-1.441,0-2.614,1.168-2.614,2.606c0-1.438-1.173-2.606-2.614-2.606
		H16.919v2.606c-0.67,0-1.337,0.254-1.849,0.765c-0.512,0.511-0.765,1.176-0.765,1.845v20.864c0,0.669,0.252,1.332,0.765,1.843
		l24.69,24.634C58.567,72.569,73.479,57.233,74.115,38.276z"/>
	<g>
		<path fill="#343C44" d="M16.919,23.979c-0.67,0-1.339,0.254-1.849,0.763c-0.51,0.509-0.765,1.176-0.765,1.845v20.864
			c0,0.667,0.254,1.334,0.765,1.843c0.51,0.509,1.179,0.763,1.849,0.763h17.513c0,1.441,1.169,2.61,2.614,2.61
			c1.443,0,2.612-1.168,2.612-2.61h17.514c0.668,0,1.337-0.254,1.847-0.763s0.765-1.176,0.765-1.843V26.587
			c0-0.669-0.254-1.336-0.765-1.845c-0.51-0.509-1.179-0.763-1.847-0.763H16.919z"/>
		<g>
			<path fill="#FFFFFF" d="M34.432,21.371H16.919v26.08h17.513c1.443,0,2.614,1.166,2.614,2.606V23.979
				C37.046,22.54,35.875,21.371,34.432,21.371z"/>
			<path fill="#FFFFFF" d="M39.658,21.371h17.514v26.08H39.658c-1.443,0-2.612,1.166-2.612,2.606V23.979
				C37.046,22.54,38.217,21.371,39.658,21.371z"/>
			<path fill="#E6E5E5" d="M34.432,21.371v26.08c1.443,0,2.614,1.166,2.614,2.606V23.979C37.046,22.54,35.875,21.371,34.432,21.371z
				"/>
		</g>
		<g>
			<g>
				<rect x="19.533" y="31.342" fill="#D9D8D7" width="12.283" height="1.228"/>
				<rect x="19.533" y="33.798" fill="#D9D8D7" width="12.283" height="1.226"/>
				<rect x="19.533" y="36.25" fill="#D9D8D7" width="12.283" height="1.228"/>
				<rect x="19.533" y="38.706" fill="#D9D8D7" width="12.283" height="1.226"/>
				<rect x="19.533" y="41.161" fill="#D9D8D7" width="12.283" height="1.226"/>
				<rect x="19.533" y="43.615" fill="#D9D8D7" width="12.283" height="1.226"/>
			</g>
			<g>
				<rect x="42.273" y="23.979" fill="#D9D8D7" width="12.283" height="1.226"/>
				<rect x="42.273" y="26.433" fill="#D9D8D7" width="12.283" height="1.226"/>
				<rect x="42.273" y="28.887" fill="#D9D8D7" width="12.283" height="1.228"/>
				<rect x="42.273" y="31.342" fill="#D9D8D7" width="12.283" height="1.228"/>
				<rect x="42.273" y="33.798" fill="#D9D8D7" width="12.283" height="1.226"/>
				<rect x="42.273" y="36.25" fill="#D9D8D7" width="12.283" height="1.228"/>
				<rect x="42.273" y="38.706" fill="#D9D8D7" width="12.283" height="1.226"/>
				<rect x="42.273" y="41.161" fill="#D9D8D7" width="12.283" height="1.226"/>
				<rect x="42.273" y="43.615" fill="#D9D8D7" width="12.283" height="1.226"/>
			</g>
			<rect x="19.533" y="23.979" fill="#FECE67" width="12.283" height="6.137"/>
			<polygon fill="#EA6653" points="39.814,21.371 39.814,46.069 39.814,46.069 41.043,44.841 42.273,46.069 42.273,21.371 			"/>
		</g>
	</g>
</g>
</svg>
