<?xml version="1.0" encoding="utf-8"?>
<!-- Generator: Adobe Illustrator 17.0.0, SVG Export Plug-In . SVG Version: 6.00 Build 0)  -->
<!DOCTYPE svg PUBLIC "-//W3C//DTD SVG 1.1//EN" "http://www.w3.org/Graphics/SVG/1.1/DTD/svg11.dtd">
<svg version="1.1" id="Layer_1" xmlns="http://www.w3.org/2000/svg" xmlns:xlink="http://www.w3.org/1999/xlink" x="0px" y="0px"
	 width="74px" height="74px" viewBox="0 0 74 74" enable-background="new 0 0 74 74" xml:space="preserve">
<g>
	<ellipse fill="#4A5158" cx="36.96" cy="36.936" rx="37.006" ry="37.042"/>
	<path fill="#343C44" d="M38.354,54.64l-5.602-5.606l-2.357-1.186l-6.563,3.288l21.79,21.811
		c13.01-3.125,23.338-13.121,26.948-25.946L46.127,20.532l-0.344-0.344c-2.286-2.213-5.4-3.565-8.824-3.565
		c-7.024,0-12.73,5.706-12.73,12.742c0,2.935,1.07,5.557,2.64,7.761c9.145,12.829,10,14.032,10.081,14.148
		c0.009,0.01,0.009,0.01,0.009,0.01l3.212,3.215l-0.98,0.979L38.354,54.64z"/>
	<g>
		<g>
			<polygon fill="#FFFFFF" points="41.163,49.03 45.365,51.134 36.959,55.338 28.554,51.134 32.754,49.032 30.393,47.848 
				23.828,51.134 36.959,57.707 50.091,51.134 43.526,47.846 			"/>
		</g>
		<g>
			<path fill="#F4836B" d="M36.961,16.623c-7.028,0-12.732,5.708-12.732,12.74c0,2.935,1.068,5.561,2.64,7.765
				c10.092,14.158,10.092,14.158,10.092,14.158s0,0,10.088-14.158c1.573-2.206,2.638-4.84,2.638-7.765
				C49.687,22.331,43.991,16.623,36.961,16.623z"/>
			<path fill="#FFFFFF" d="M44.836,29.363c0,4.359-3.525,7.888-7.875,7.888s-7.879-3.529-7.879-7.888
				c0-4.35,3.529-7.885,7.879-7.885S44.836,25.013,44.836,29.363z"/>
		</g>
	</g>
</g>
</svg>
