<?xml version="1.0" encoding="utf-8"?>
<!-- Generator: Adobe Illustrator 17.0.0, SVG Export Plug-In . SVG Version: 6.00 Build 0)  -->
<!DOCTYPE svg PUBLIC "-//W3C//DTD SVG 1.1//EN" "http://www.w3.org/Graphics/SVG/1.1/DTD/svg11.dtd">
<svg version="1.1" id="Layer_1" xmlns="http://www.w3.org/2000/svg" xmlns:xlink="http://www.w3.org/1999/xlink" x="0px" y="0px"
	 width="74px" height="74px" viewBox="0 0 74 74" enable-background="new 0 0 74 74" xml:space="preserve">
<g>
	<ellipse fill="#95D9F1" cx="37" cy="36.961" rx="37" ry="36.961"/>
	<g>
		<g>
			<path fill="#71C9E9" d="M37.129,14.618c-0.01-0.013-0.019-0.025-0.033-0.038c-0.029-0.019-0.058-0.033-0.096-0.033
				c-0.077,0-0.135,0.052-0.148,0.119l-0.765,3.815h0.015c-0.277,0.081-0.549,0.2-0.822,0.353c-0.09,0.052-0.186,0.109-0.277,0.177
				c-0.19,0.129-0.382,0.276-0.569,0.443c-0.058,0.052-0.113,0.106-0.171,0.163c-0.058,0.052-0.109,0.109-0.167,0.167
				c-0.058,0.056-0.11,0.113-0.167,0.175c-0.167,0.182-0.33,0.384-0.488,0.593c-0.052,0.071-0.104,0.142-0.158,0.213
				c-0.1,0.15-0.206,0.301-0.305,0.455c-0.052,0.081-0.104,0.161-0.152,0.248c-0.102,0.167-0.202,0.334-0.296,0.51
				c-0.048,0.084-0.096,0.177-0.144,0.267c-0.096,0.18-0.186,0.366-0.277,0.558c-0.138,0.286-0.273,0.587-0.401,0.896
				c-0.033,0.079-0.063,0.163-0.096,0.244l-5.724-5.718l-0.048-0.048c-0.123-0.115-0.29-0.186-0.476-0.186
				c-0.386,0-0.701,0.315-0.701,0.702c0,0.161,0.052,0.303,0.142,0.422l6.287,6.28c-0.572,1.763-1.02,3.784-1.31,5.987L25.3,26.904
				l-0.907,0.906l-0.603-0.603l-6.126-6.113c-0.014-0.015-0.029-0.033-0.042-0.048l-0.096-0.094
				c-0.019-0.019-0.039-0.034-0.052-0.05c-0.254-0.204-0.565-0.328-0.912-0.328c-0.793,0-1.433,0.645-1.433,1.431
				c0,0.324,0.106,0.62,0.286,0.858l0.277,0.276L29.405,36.84c-0.002,0.163-0.006,0.326-0.006,0.493c0,1.04,0.035,2.059,0.096,3.053
				c-1.794,1.731-3.087,4.068-3.613,6.72l-4.675-4.671l-0.042-0.042c-0.087-0.077-0.196-0.119-0.315-0.119
				c-0.267,0-0.478,0.209-0.478,0.476c0,0.092,0.025,0.176,0.071,0.249l5.263,5.256c-0.056,0.503-0.087,1.011-0.087,1.529
				c0,2.901,0.897,5.557,2.395,7.679c0.006,0,0.006,0.004,0.006,0.004l15.83,15.811c13.045-2.441,23.673-11.711,28.024-23.959
				L37.129,14.618z"/>
			<path fill="#71C9E9" d="M52.855,17.35l-0.196-0.196c-0.206-0.163-0.459-0.257-0.74-0.257c-0.659,0-1.199,0.533-1.199,1.197
				c0,0.328,0.135,0.624,0.35,0.839c0,0,0.004,0.004,0.008,0.01l3.046,3.038l0.196,0.198l-0.088,0.086l19.455,19.434
				c0.138-1.073,0.232-2.159,0.277-3.258L52.855,17.35z"/>
		</g>
	</g>
	<g>
		<g>
			<g>
				<path fill="#343C44" d="M29.228,55.299c0.889-0.888,2.053-1.332,3.217-1.332h9.105c1.166,0,2.33,0.443,3.22,1.332
					c0.62,0.62,1.02,1.374,1.206,2.168c1.506-2.118,2.405-4.784,2.405-7.681c0-6.908-5.096-12.507-11.381-12.507
					c-6.285,0-11.381,5.599-11.381,12.507c0,2.896,0.899,5.561,2.403,7.681C28.21,56.673,28.608,55.919,29.228,55.299z"/>
			</g>
		</g>
		<ellipse fill="#FFFFFF" cx="37" cy="37.335" rx="7.603" ry="18.989"/>
		<path fill="#343C44" d="M33.333,53.968c1.087,1.499,2.336,2.356,3.667,2.356c1.331,0,2.58-0.858,3.667-2.356H33.333z"/>
		<path fill="#343C44" d="M37,57.468c0.457-2.314,0.701-4.705,0.701-7.153c0-2.448-0.244-4.839-0.701-7.153
			c-0.459,2.314-0.701,4.705-0.701,7.153C36.299,52.763,36.541,55.153,37,57.468z"/>
		<path fill="#EA6653" d="M31.712,23.7h10.576c-1.368-3.312-3.233-5.354-5.288-5.354C34.943,18.346,33.08,20.388,31.712,23.7z"/>
		<ellipse fill="#343C44" cx="37" cy="31.118" rx="3.346" ry="3.341"/>
		<circle fill="#E6E5E5" cx="37" cy="31.118" r="2.128"/>
		<path fill="#343C44" d="M37.148,14.668c-0.014-0.069-0.075-0.121-0.148-0.121c-0.075,0-0.135,0.052-0.15,0.121l-0.763,3.815h1.825
			L37.148,14.668z"/>
	</g>
	<g>
		<circle fill="#FFFFFF" cx="51.918" cy="18.093" r="1.196"/>
		<circle fill="#FFFFFF" cx="16.56" cy="22.005" r="1.433"/>
		<circle fill="#FFFFFF" cx="25.366" cy="18.692" r="0.704"/>
		<circle fill="#FFFFFF" cx="24.662" cy="27.593" r="0.955"/>
		<circle fill="#FFFFFF" cx="20.846" cy="42.75" r="0.477"/>
		<circle fill="#FFFFFF" cx="54.477" cy="22.005" r="0.358"/>
		<circle fill="#FFFFFF" cx="53.115" cy="43.452" r="0.704"/>
		<circle fill="#FFFFFF" cx="54.955" cy="51.329" r="0.477"/>
	</g>
</g>
</svg>
