<?xml version="1.0" encoding="utf-8"?>
<!-- Generator: Adobe Illustrator 17.0.0, SVG Export Plug-In . SVG Version: 6.00 Build 0)  -->
<!DOCTYPE svg PUBLIC "-//W3C//DTD SVG 1.1//EN" "http://www.w3.org/Graphics/SVG/1.1/DTD/svg11.dtd">
<svg version="1.1" id="Layer_1" xmlns="http://www.w3.org/2000/svg" xmlns:xlink="http://www.w3.org/1999/xlink" x="0px" y="0px"
	 width="74px" height="74px" viewBox="0 0 74 74" enable-background="new 0 0 74 74" xml:space="preserve">
<g>
	<ellipse fill="#95D9F1" cx="37.186" cy="36.983" rx="37.019" ry="37.104"/>
	<path fill="#71C9E9" d="M74.205,36.983c0-0.121-0.008-0.243-0.008-0.364L55.875,18.255c-0.279-0.281-0.646-0.42-1.015-0.42H19.513
		c-0.367,0-0.734,0.139-1.013,0.42c-0.28,0.279-0.421,0.647-0.421,1.015v35.428c0,0.368,0.14,0.736,0.421,1.015l18.321,18.362
		c0.123,0.004,0.244,0.011,0.365,0.011C57.633,74.087,74.205,57.475,74.205,36.983z"/>
	<g>
		<path fill="#FFFFFF" d="M19.513,56.133c-0.365,0-0.732-0.141-1.013-0.42c-0.279-0.279-0.421-0.649-0.421-1.015V19.27
			c0-0.368,0.142-0.734,0.421-1.015c0.281-0.281,0.648-0.42,1.013-0.42H54.86c0.367,0,0.734,0.139,1.015,0.42
			c0.279,0.281,0.419,0.647,0.419,1.015v35.428c0,0.366-0.14,0.736-0.419,1.015c-0.281,0.279-0.648,0.42-1.015,0.42H19.513z"/>
		<g>
			<g>
				<rect x="23.351" y="33.682" fill="#343C44" width="1.318" height="1.321"/>
				<rect x="23.351" y="36.322" fill="#343C44" width="1.318" height="2.643"/>
				<rect x="24.669" y="35.003" fill="#343C44" width="1.317" height="1.32"/>
				<rect x="24.669" y="37.644" fill="#343C44" width="1.317" height="1.321"/>
				<rect x="25.986" y="35.003" fill="#343C44" width="1.318" height="1.32"/>
				<rect x="25.986" y="38.965" fill="#343C44" width="1.318" height="1.321"/>
				<rect x="27.304" y="33.682" fill="#343C44" width="1.318" height="2.641"/>
				<rect x="27.304" y="37.644" fill="#343C44" width="1.318" height="1.321"/>
				<rect x="28.622" y="33.682" fill="#343C44" width="1.318" height="3.962"/>
				<rect x="29.941" y="33.682" fill="#343C44" width="1.317" height="3.962"/>
				<rect x="29.941" y="38.965" fill="#343C44" width="1.317" height="1.321"/>
				<rect x="31.257" y="33.682" fill="#343C44" width="1.318" height="1.321"/>
				<rect x="31.257" y="36.322" fill="#343C44" width="1.318" height="1.321"/>
				<rect x="31.257" y="38.965" fill="#343C44" width="1.318" height="1.321"/>
				<rect x="32.576" y="33.682" fill="#343C44" width="1.316" height="5.283"/>
				<rect x="33.892" y="23.116" fill="#343C44" width="1.319" height="3.962"/>
				<rect x="33.892" y="28.4" fill="#343C44" width="1.319" height="1.319"/>
				<rect x="33.892" y="31.041" fill="#343C44" width="1.319" height="1.321"/>
				<rect x="33.892" y="33.682" fill="#343C44" width="1.319" height="1.321"/>
				<rect x="33.892" y="37.644" fill="#343C44" width="1.319" height="1.321"/>
				<rect x="33.892" y="40.286" fill="#343C44" width="1.319" height="6.603"/>
				<rect x="33.892" y="49.53" fill="#343C44" width="1.319" height="1.32"/>
				<rect x="35.211" y="24.438" fill="#343C44" width="1.318" height="2.641"/>
				<rect x="35.211" y="28.4" fill="#343C44" width="1.318" height="1.319"/>
				<rect x="35.211" y="32.362" fill="#343C44" width="1.318" height="1.32"/>
				<rect x="35.211" y="35.003" fill="#343C44" width="1.318" height="2.641"/>
				<rect x="35.211" y="40.286" fill="#343C44" width="1.318" height="2.641"/>
				<rect x="36.529" y="23.116" fill="#343C44" width="1.316" height="1.322"/>
				<rect x="36.529" y="28.4" fill="#343C44" width="1.316" height="1.319"/>
				<rect x="36.529" y="31.041" fill="#343C44" width="1.316" height="3.962"/>
				<rect x="36.529" y="41.606" fill="#343C44" width="1.316" height="1.321"/>
				<rect x="36.529" y="44.246" fill="#343C44" width="1.316" height="2.643"/>
				<rect x="36.529" y="48.209" fill="#343C44" width="1.316" height="2.641"/>
				<rect x="37.845" y="24.438" fill="#343C44" width="1.317" height="3.962"/>
				<rect x="37.845" y="29.719" fill="#343C44" width="1.317" height="1.321"/>
				<rect x="37.845" y="32.362" fill="#343C44" width="1.317" height="1.32"/>
				<rect x="37.845" y="37.644" fill="#343C44" width="1.317" height="1.321"/>
				<rect x="37.845" y="40.286" fill="#343C44" width="1.317" height="1.32"/>
				<rect x="37.845" y="42.927" fill="#343C44" width="1.317" height="3.962"/>
				<rect x="37.845" y="49.53" fill="#343C44" width="1.317" height="1.32"/>
				<rect x="39.162" y="23.116" fill="#343C44" width="1.318" height="2.643"/>
				<rect x="39.162" y="28.4" fill="#343C44" width="1.318" height="7.922"/>
				<rect x="39.162" y="40.286" fill="#343C44" width="1.318" height="6.603"/>
				<rect x="40.48" y="33.682" fill="#343C44" width="1.318" height="1.321"/>
				<rect x="40.48" y="36.322" fill="#343C44" width="1.318" height="1.321"/>
				<rect x="40.48" y="41.606" fill="#343C44" width="1.318" height="2.641"/>
				<rect x="40.48" y="48.209" fill="#343C44" width="1.318" height="1.321"/>
				<rect x="41.799" y="35.003" fill="#343C44" width="1.317" height="2.641"/>
				<rect x="41.799" y="38.965" fill="#343C44" width="1.317" height="1.321"/>
				<rect x="41.799" y="41.606" fill="#343C44" width="1.317" height="1.321"/>
				<rect x="41.799" y="44.246" fill="#343C44" width="1.317" height="1.322"/>
				<rect x="41.799" y="46.889" fill="#343C44" width="1.317" height="2.641"/>
				<rect x="43.115" y="40.286" fill="#343C44" width="1.318" height="5.282"/>
				<rect x="44.434" y="33.682" fill="#343C44" width="1.318" height="3.962"/>
				<rect x="44.434" y="41.606" fill="#343C44" width="1.318" height="2.641"/>
				<rect x="44.434" y="45.568" fill="#343C44" width="1.318" height="1.321"/>
				<rect x="44.434" y="48.209" fill="#343C44" width="1.318" height="1.321"/>
				<rect x="45.752" y="36.322" fill="#343C44" width="1.316" height="1.321"/>
				<rect x="45.752" y="38.965" fill="#343C44" width="1.316" height="6.603"/>
				<rect x="47.068" y="33.682" fill="#343C44" width="1.319" height="2.641"/>
				<rect x="47.068" y="37.644" fill="#343C44" width="1.319" height="1.321"/>
				<rect x="47.068" y="40.286" fill="#343C44" width="1.319" height="3.96"/>
				<rect x="47.068" y="45.568" fill="#343C44" width="1.319" height="5.281"/>
				<rect x="48.387" y="33.682" fill="#343C44" width="1.318" height="3.962"/>
				<rect x="48.387" y="40.286" fill="#343C44" width="1.318" height="1.32"/>
				<rect x="48.387" y="44.246" fill="#343C44" width="1.318" height="1.322"/>
				<rect x="48.387" y="46.889" fill="#343C44" width="1.318" height="2.641"/>
				<g>
					<g>
						<rect x="44.434" y="25.759" fill="#EA6653" width="3.953" height="3.96"/>
						<path fill="#EA6653" d="M41.799,23.116v9.246h9.223v-9.246H41.799z M49.705,31.041h-6.59v-6.603h6.59V31.041z"/>
					</g>
				</g>
				<rect x="49.705" y="33.682" fill="#343C44" width="1.316" height="1.321"/>
				<rect x="49.705" y="36.322" fill="#343C44" width="1.316" height="3.964"/>
				<rect x="49.705" y="42.927" fill="#343C44" width="1.316" height="2.641"/>
				<rect x="49.705" y="46.889" fill="#343C44" width="1.316" height="2.641"/>
				<g>
					<g>
						<rect x="25.986" y="25.759" fill="#EA6653" width="3.955" height="3.96"/>
						<path fill="#EA6653" d="M23.351,23.116v9.246h9.225v-9.246H23.351z M31.257,31.041h-6.588v-6.603h6.588V31.041z"/>
					</g>
				</g>
				<g>
					<g>
						<rect x="25.986" y="44.246" fill="#EA6653" width="3.955" height="3.962"/>
						<path fill="#EA6653" d="M23.351,41.606v9.244h9.225v-9.244H23.351z M31.257,49.53h-6.588v-6.603h6.588V49.53z"/>
					</g>
				</g>
			</g>
			<g>
				<g>
					<g>
						<polygon fill="#343C44" points="49.705,21.797 52.34,21.797 52.34,24.438 53.657,24.438 53.657,20.476 49.705,20.476 						
							"/>
					</g>
					<g>
						<polygon fill="#343C44" points="22.034,24.438 22.034,21.797 24.669,21.797 24.669,20.476 20.716,20.476 20.716,24.438 						
							"/>
					</g>
					<g>
						<polygon fill="#343C44" points="49.705,52.171 52.34,52.171 52.34,49.53 53.657,49.53 53.657,53.492 49.705,53.492 						"/>
					</g>
					<g>
						<polygon fill="#343C44" points="22.034,49.53 22.034,52.171 24.669,52.171 24.669,53.492 20.716,53.492 20.716,49.53 						
							"/>
					</g>
				</g>
			</g>
		</g>
	</g>
</g>
</svg>
