<?xml version="1.0" encoding="utf-8"?>
<!-- Generator: Adobe Illustrator 17.0.0, SVG Export Plug-In . SVG Version: 6.00 Build 0)  -->
<!DOCTYPE svg PUBLIC "-//W3C//DTD SVG 1.1//EN" "http://www.w3.org/Graphics/SVG/1.1/DTD/svg11.dtd">
<svg version="1.1" id="Layer_1" xmlns="http://www.w3.org/2000/svg" xmlns:xlink="http://www.w3.org/1999/xlink" x="0px" y="0px"
	 width="74px" height="74px" viewBox="0 0 74 74" enable-background="new 0 0 74 74" xml:space="preserve">
<g>
	<ellipse fill="#F4836B" cx="37.069" cy="36.901" rx="37.144" ry="36.894"/>
	<path fill="#EA6653" d="M55.622,28.827h-5.324l-5.37-5.336l-0.455,0.452l-2.684-2.666l-1.572,1.561l-2.619-2.599l-1.059,3.509
		l5.261,5.225l-0.162,0.161l-8.311-8.257l-0.978,0.4l1.352,3.247l6.288,6.246l-1.294,1.287l3.76,3.733l-0.021,0.021L31.749,25.196
		l-0.75,0.745l10.685,10.613l-0.181,0.18l-1.458-1.448l-5.554-5.513c-0.638-0.632-1.468-0.946-2.3-0.946H18.516
		c-0.835,0-1.668,0.314-2.301,0.946c-0.638,0.628-0.955,1.458-0.955,2.281v9.692c0,0.824,0.316,1.653,0.955,2.281l29.047,28.855
		c13.932-3.116,24.893-14.003,28.032-27.842L57.922,29.774C57.29,29.142,56.457,28.827,55.622,28.827z"/>
	<g>
		<g>
			<path fill="#343C44" d="M46.684,35.759c-0.318-0.316-0.735-0.473-1.149-0.473H28.604c-0.415,0-0.831,0.157-1.149,0.473
				c-0.318,0.314-0.476,0.73-0.476,1.141s0.158,0.827,0.476,1.143c0.318,0.314,0.735,0.473,1.149,0.473h16.931
				c0.414,0,0.831-0.159,1.149-0.473c0.318-0.316,0.474-0.732,0.474-1.143S47.002,36.073,46.684,35.759z"/>
			<path fill="#FFFFFF" d="M18.515,41.747v-9.692h16.929c0-0.826-0.318-1.653-0.955-2.283c-0.634-0.632-1.466-0.948-2.298-0.948
				H18.515c-0.833,0-1.666,0.316-2.301,0.948c-0.634,0.63-0.953,1.458-0.953,2.283v9.692c0,0.826,0.318,1.653,0.953,2.283
				c0.634,0.632,1.468,0.948,2.301,0.948H32.19c0.833,0,1.664-0.316,2.298-0.948c0.636-0.63,0.955-1.458,0.955-2.283H18.515z"/>
			<path fill="#FFFFFF" d="M55.624,41.747v-9.692H38.697c0-0.826,0.316-1.653,0.951-2.283c0.634-0.632,1.468-0.948,2.301-0.948
				h13.676c0.833,0,1.664,0.316,2.3,0.948c0.634,0.63,0.951,1.458,0.951,2.283v9.692c0,0.826-0.316,1.653-0.951,2.283
				c-0.636,0.632-1.468,0.948-2.3,0.948H41.948c-0.833,0-1.666-0.316-2.301-0.948c-0.634-0.63-0.951-1.458-0.951-2.283H55.624z"/>
		</g>
		<g>
			<g>
				<rect x="36.539" y="20.239" fill="#FFFFFF" width="1.059" height="3.509"/>
				<polygon fill="#FFFFFF" points="41.788,21.275 40.438,24.522 39.458,24.114 40.808,20.875 				"/>
				<polygon fill="#FFFFFF" points="45.265,23.826 42.764,26.307 42.015,25.566 44.512,23.081 				"/>
				<polygon fill="#FFFFFF" points="34.678,24.117 33.698,24.524 32.347,21.279 33.326,20.877 				"/>
				<polygon fill="#FFFFFF" points="32.123,25.569 31.373,26.314 28.874,23.83 29.626,23.085 				"/>
			</g>
			<g>
				<rect x="36.539" y="50.054" fill="#FFFFFF" width="1.059" height="3.509"/>
				<polygon fill="#FFFFFF" points="41.788,52.526 40.438,49.284 39.458,49.688 40.808,52.931 				"/>
				<polygon fill="#FFFFFF" points="45.265,49.975 42.764,47.495 42.015,48.236 44.512,50.722 				"/>
				<polygon fill="#FFFFFF" points="34.678,49.684 33.698,49.28 32.347,52.524 33.326,52.925 				"/>
				<polygon fill="#FFFFFF" points="32.123,48.232 31.373,47.489 28.874,49.971 29.626,50.714 				"/>
			</g>
		</g>
	</g>
</g>
</svg>
