<?xml version="1.0" encoding="utf-8"?>
<!-- Generator: Adobe Illustrator 17.0.0, SVG Export Plug-In . SVG Version: 6.00 Build 0)  -->
<!DOCTYPE svg PUBLIC "-//W3C//DTD SVG 1.1//EN" "http://www.w3.org/Graphics/SVG/1.1/DTD/svg11.dtd">
<svg version="1.1" id="Layer_1" xmlns="http://www.w3.org/2000/svg" xmlns:xlink="http://www.w3.org/1999/xlink" x="0px" y="0px"
	 width="74px" height="74px" viewBox="0 0 74 74" enable-background="new 0 0 74 74" xml:space="preserve">
<g>
	<circle fill="#F4836B" cx="37.091" cy="36.913" r="36.982"/>
	<path fill="#EA6653" d="M41.614,73.608c16.805-2.05,30.122-15.366,32.175-32.171L52.587,20.237l-8.444,8.443l-9.682-9.682
		L19.176,34.284l9.68,9.682l-8.444,8.443L41.614,73.608z"/>
	<g>
		<g>
			
				<rect x="35.667" y="24.577" transform="matrix(0.7071 0.7071 -0.7071 0.7071 38.3843 -16.0038)" fill="#FFFFFF" width="5.688" height="27.514"/>
			<path fill="#FFFFFF" d="M56.611,24.261l-3.865,3.863L48.724,24.1l3.863-3.863c-2.12-0.666-4.529-0.163-6.209,1.517
				c-2.408,2.408-2.408,6.311,0,8.718c2.406,2.406,6.309,2.406,8.717,0C56.774,28.79,57.275,26.38,56.611,24.261z"/>
			<path fill="#FFFFFF" d="M20.412,52.41l3.865-3.865l4.022,4.022l-3.863,3.865c2.12,0.666,4.529,0.163,6.211-1.517
				c2.406-2.407,2.406-6.31,0-8.716c-2.406-2.407-6.311-2.407-8.717,0C20.249,47.879,19.746,50.288,20.412,52.41z"/>
		</g>
		<g>
			<path fill="#FECE67" d="M56.164,51.962c0.265,0.267,0.43,0.633,0.43,1.037c0,0.405-0.165,0.772-0.43,1.037l-1.949,1.951
				c-0.265,0.265-0.631,0.428-1.037,0.428c-0.403,0-0.772-0.163-1.037-0.428L27.345,31.191l4.022-4.024L56.164,51.962z"/>
			
				<rect x="17.193" y="22.705" transform="matrix(0.7071 -0.7071 0.7071 0.7071 -10.9239 26.621)" fill="#343C44" width="18.963" height="7.585"/>
			<polygon fill="#4A5158" points="17.286,32.397 20.775,35.884 22.651,35.884 17.288,30.52 			"/>
			<polygon fill="#4A5158" points="32.575,17.111 36.062,20.598 36.062,22.475 30.697,17.111 			"/>
		</g>
	</g>
</g>
</svg>
