<?xml version="1.0" encoding="utf-8"?>
<!-- Generator: Adobe Illustrator 17.0.0, SVG Export Plug-In . SVG Version: 6.00 Build 0)  -->
<!DOCTYPE svg PUBLIC "-//W3C//DTD SVG 1.1//EN" "http://www.w3.org/Graphics/SVG/1.1/DTD/svg11.dtd">
<svg version="1.1" id="Layer_1" xmlns="http://www.w3.org/2000/svg" xmlns:xlink="http://www.w3.org/1999/xlink" x="0px" y="0px"
	 width="74px" height="74px" viewBox="0 0 74 74" enable-background="new 0 0 74 74" xml:space="preserve">
<g>
	<ellipse fill="#95D9F1" cx="37.023" cy="37.165" rx="37.061" ry="37.102"/>
	<path fill="#71C9E9" d="M51.394,22.778c-3.677-3.681-8.76-5.96-14.374-5.96c-2.751,0-5.38,0.551-7.771,1.551
		C21.879,21.419,16.7,28.692,16.7,37.169c0,5.405,2.109,10.319,5.547,13.961c0.019,0.023,0.042,0.048,0.067,0.071l0.689,0.69
		c0.023,0.023,0.048,0.048,0.071,0.067L44.585,73.49c14.403-2.99,25.747-14.346,28.727-28.769L51.394,22.778z"/>
	<g>
		<g>
			<path fill="#FFFFFF" d="M51.377,37.165c0,3.97-1.608,7.562-4.206,10.16l4.225,4.23c3.679-3.685,5.951-8.772,5.951-14.39H51.377z"
				/>
			<path fill="#343C44" d="M37.024,22.796c7.923,0,14.353,6.433,14.353,14.367c0,0.002,0,0.002,0,0.002h5.97
				c0-11.235-9.101-20.346-20.327-20.346v5.977H37.024z"/>
			<path fill="#E2503B" d="M37.02,22.796v-5.979c-2.751,0-5.38,0.551-7.771,1.554l2.284,5.52
				C33.225,23.189,35.072,22.798,37.02,22.796z"/>
			<path fill="#F4836B" d="M47.163,47.329c-2.595,2.598-6.18,4.205-10.139,4.205c-7.927,0-14.353-6.433-14.353-14.371
				c0-5.985,3.659-11.114,8.862-13.271l-2.284-5.52C21.881,21.419,16.7,28.692,16.7,37.169c0,11.228,9.104,20.342,20.32,20.342
				c5.614,0,10.698-2.273,14.376-5.948L47.163,47.329z"/>
		</g>
		<ellipse fill="#FFFFFF" cx="37.024" cy="37.165" rx="9.564" ry="9.575"/>
		<g>
			<g>
				
					<rect x="36.306" y="31.412" transform="matrix(0.7066 0.7076 -0.7076 0.7066 37.157 -15.2944)" fill="#343C44" width="1.435" height="11.504"/>
				<g>
					<path fill="#343C44" d="M39.555,41.951c-1.239,0-2.249-1.009-2.249-2.253c0-1.24,1.01-2.252,2.249-2.252
						c1.241,0,2.251,1.011,2.251,2.252C41.807,40.942,40.796,41.951,39.555,41.951z M39.555,38.883c-0.45,0-0.816,0.366-0.816,0.815
						c0,0.451,0.365,0.819,0.816,0.819c0.45,0,0.816-0.368,0.816-0.819C40.371,39.249,40.006,38.883,39.555,38.883z"/>
					<path fill="#343C44" d="M34.491,36.882c-1.239,0-2.251-1.009-2.251-2.254c0-1.24,1.012-2.252,2.251-2.252
						c1.241,0,2.251,1.011,2.251,2.252C36.743,35.872,35.732,36.882,34.491,36.882z M34.491,33.813c-0.45,0-0.816,0.366-0.816,0.815
						c0,0.451,0.366,0.817,0.816,0.817s0.816-0.366,0.816-0.817C35.307,34.179,34.942,33.813,34.491,33.813z"/>
				</g>
			</g>
		</g>
	</g>
</g>
</svg>
