<?xml version="1.0" encoding="utf-8"?>
<!-- Generator: Adobe Illustrator 17.0.0, SVG Export Plug-In . SVG Version: 6.00 Build 0)  -->
<!DOCTYPE svg PUBLIC "-//W3C//DTD SVG 1.1//EN" "http://www.w3.org/Graphics/SVG/1.1/DTD/svg11.dtd">
<svg version="1.1" id="Layer_1" xmlns="http://www.w3.org/2000/svg" xmlns:xlink="http://www.w3.org/1999/xlink" x="0px" y="0px"
	 width="74px" height="74px" viewBox="0 0 74 74" enable-background="new 0 0 74 74" xml:space="preserve">
<g>
	<circle fill="#4A5158" cx="36.996" cy="37.039" r="37.102"/>
	<path fill="#343C44" d="M73.877,41.066L52.999,20.192c-0.027-0.029-0.058-0.062-0.085-0.091c-0.029-0.029-0.064-0.058-0.092-0.087
		c-0.223-0.181-0.497-0.268-0.771-0.268H28.024l-1.761-1.761c-0.285-0.403-0.663-0.73-1.102-0.957
		c-0.021-0.012-0.042-0.019-0.064-0.031c-0.114-0.054-0.229-0.102-0.349-0.142c-0.017-0.006-0.035-0.014-0.05-0.019
		c-0.131-0.04-0.264-0.071-0.399-0.094c-0.033-0.006-0.067-0.011-0.1-0.015c-0.141-0.021-0.283-0.033-0.428-0.033
		c-1.691,0-3.055,1.364-3.055,3.053v19.824v14.76c0,0.761,0.277,1.464,0.747,1.995l0.31,0.312l17.432,17.432
		C57.327,73.004,71.947,58.939,73.877,41.066z"/>
	<g>
		<g>
			<path fill="#FFFFFF" d="M52.051,19.746c0.312,0,0.624,0.12,0.863,0.358c0.239,0.237,0.358,0.551,0.358,0.863v32.148
				c0,0.312-0.12,0.624-0.358,0.863c-0.239,0.237-0.551,0.356-0.863,0.356H26.822V19.746H52.051z"/>
			<path fill="#F3F3F3" d="M23.771,16.694c-1.687,0-3.053,1.366-3.053,3.051v34.588c0-1.685,1.366-3.051,3.053-3.051
				c1.685,0,3.051,1.365,3.051,3.051V19.746C26.822,18.06,25.456,16.694,23.771,16.694z"/>
			<path fill="#CCCBCA" d="M26.822,54.334c0-1.685-1.366-3.051-3.051-3.051c-1.687,0-3.053,1.365-3.053,3.051
				c0,1.685,1.366,3.053,3.053,3.053H49c0.312,0,0.624-0.12,0.863-0.358c0.239-0.239,0.358-0.551,0.358-0.863v-1.832H26.822z"/>
		</g>
		<g>
			<path fill="#CCCBCA" d="M20.718,23.184v6.846c0-1.685,1.366-3.053,3.053-3.053v-6.846C22.084,20.131,20.718,21.498,20.718,23.184
				z"/>
			<path fill="#E6E5E5" d="M20.718,31.399v1.368c0-1.685,1.366-3.051,3.053-3.051v-1.369C22.084,28.346,20.718,29.711,20.718,31.399
				z"/>
			<path fill="#E6E5E5" d="M20.718,34.136v1.369c0-1.685,1.366-3.053,3.053-3.053v-1.369C22.084,31.083,20.718,32.45,20.718,34.136z
				"/>
			<path fill="#E6E5E5" d="M20.718,36.873v1.369c0-1.685,1.366-3.051,3.053-3.051v-1.37C22.084,33.822,20.718,35.19,20.718,36.873z"
				/>
			<path fill="#E6E5E5" d="M20.718,39.612v1.369c0-1.685,1.366-3.053,3.053-3.053v-1.368C22.084,36.561,20.718,37.927,20.718,39.612
				z"/>
			<path fill="#E6E5E5" d="M20.718,42.351v1.368c0-1.685,1.366-3.051,3.053-3.051v-1.369C22.084,39.298,20.718,40.664,20.718,42.351
				z"/>
		</g>
		<g>
			<g>
				<rect x="29.671" y="49.526" fill="#E6E5E5" width="9.69" height="1.37"/>
				<rect x="29.671" y="46.789" fill="#E6E5E5" width="9.69" height="1.368"/>
				<rect x="29.671" y="44.05" fill="#E6E5E5" width="9.69" height="1.369"/>
				<rect x="29.671" y="41.313" fill="#E6E5E5" width="9.69" height="1.369"/>
				<rect x="29.671" y="38.574" fill="#E6E5E5" width="9.69" height="1.369"/>
			</g>
			<g>
				<rect x="40.733" y="49.526" fill="#E6E5E5" width="9.69" height="1.37"/>
				<rect x="40.733" y="41.313" fill="#CCCBCA" width="9.69" height="6.844"/>
				<rect x="40.733" y="38.574" fill="#E6E5E5" width="9.69" height="1.369"/>
				<rect x="40.733" y="35.837" fill="#E6E5E5" width="9.69" height="1.369"/>
				<rect x="40.733" y="33.098" fill="#E6E5E5" width="9.69" height="1.37"/>
				<rect x="40.733" y="30.361" fill="#E6E5E5" width="9.69" height="1.37"/>
				<rect x="40.733" y="27.623" fill="#E6E5E5" width="9.69" height="1.368"/>
			</g>
			<rect x="29.671" y="23.184" fill="#EA6653" width="20.753" height="2.737"/>
			<g>
				<rect x="29.671" y="35.837" fill="#343C44" width="9.69" height="1.368"/>
				<g>
					<g>
						<rect x="29.671" y="32.416" fill="#EA6653" width="1.369" height="2.051"/>
						<rect x="31.751" y="29.326" fill="#EA6653" width="1.37" height="5.141"/>
						<rect x="33.833" y="31.316" fill="#EA6653" width="1.368" height="3.151"/>
						<rect x="35.914" y="30.243" fill="#EA6653" width="1.368" height="4.224"/>
						<rect x="37.994" y="27.705" fill="#EA6653" width="1.367" height="6.763"/>
					</g>
				</g>
			</g>
		</g>
	</g>
</g>
</svg>
