<?xml version="1.0" encoding="utf-8"?>
<!-- Generator: Adobe Illustrator 17.0.0, SVG Export Plug-In . SVG Version: 6.00 Build 0)  -->
<!DOCTYPE svg PUBLIC "-//W3C//DTD SVG 1.1//EN" "http://www.w3.org/Graphics/SVG/1.1/DTD/svg11.dtd">
<svg version="1.1" id="Layer_1" xmlns="http://www.w3.org/2000/svg" xmlns:xlink="http://www.w3.org/1999/xlink" x="0px" y="0px"
	 width="74px" height="74px" viewBox="0 0 74 74" enable-background="new 0 0 74 74" xml:space="preserve">
<g>
	<ellipse fill="#F4836B" cx="37.085" cy="37.146" rx="36.936" ry="37.104"/>
	<path fill="#EA6653" d="M56.92,21.292c-0.276-0.283-0.642-0.422-1.01-0.422H18.26c-0.368,0-0.734,0.139-1.012,0.422
		c-0.28,0.277-0.418,0.645-0.418,1.015v29.68c0,0.368,0.138,0.738,0.418,1.015l21.12,21.215c19.377-0.666,34.959-16.317,35.62-35.78
		L56.92,21.292z"/>
	<g>
		<g>
			<path fill="#FFFFFF" d="M57.34,51.987c0,0.368-0.14,0.736-0.418,1.015c-0.28,0.281-0.646,0.422-1.012,0.422H18.26
				c-0.366,0-0.732-0.141-1.012-0.422c-0.278-0.279-0.418-0.647-0.418-1.015V28.193h40.51V51.987z"/>
			<path fill="#E6E5E5" d="M57.34,28.193H16.83v-5.886c0-0.368,0.14-0.736,0.418-1.017c0.28-0.279,0.646-0.42,1.012-0.42h37.649
				c0.366,0,0.732,0.141,1.012,0.42c0.278,0.281,0.418,0.649,0.418,1.017V28.193z"/>
			<g>
				<circle fill="#E2503B" cx="20.403" cy="24.534" r="1.192"/>
				<ellipse fill="#F5B541" cx="23.978" cy="24.534" rx="1.191" ry="1.196"/>
				<circle fill="#71C9E9" cx="27.554" cy="24.534" r="1.192"/>
			</g>
		</g>
		<g>
			<g>
				<polygon fill="#CCCBCA" points="41.702,33.498 41.186,33.498 41.186,32.442 42.218,32.442 42.218,33.498 				"/>
				<path fill="#CCCBCA" d="M40.017,33.498h-1.168v-1.056h1.168V33.498z M37.679,33.498h-1.168v-1.056h1.168V33.498z M35.342,33.498
					h-1.17v-1.056h1.17V33.498z"/>
				<rect x="31.971" y="32.442" fill="#CCCBCA" width="1.033" height="1.056"/>
				<path fill="#CCCBCA" d="M33.004,40.509h-1.033v-1.167h1.033V40.509z M33.004,38.173h-1.033v-1.169h1.033V38.173z M33.004,35.836
					h-1.033v-1.169h1.033V35.836z"/>
				<rect x="31.971" y="41.678" fill="#CCCBCA" width="1.033" height="1.058"/>
				<rect x="41.186" y="41.678" fill="#CCCBCA" width="1.032" height="1.058"/>
				<path fill="#CCCBCA" d="M42.218,40.509h-1.032v-1.167h1.032V40.509z M42.218,38.173h-1.032v-1.169h1.032V38.173z M42.218,35.836
					h-1.032v-1.169h1.032V35.836z"/>
			</g>
			<rect x="19.938" y="32.442" fill="#FECE67" width="10.247" height="10.294"/>
			<rect x="44.005" y="32.442" fill="#FECE67" width="10.247" height="10.294"/>
			<g>
				<rect x="19.917" y="47.567" fill="#CCCBCA" width="10.247" height="1.61"/>
				<rect x="19.917" y="44.346" fill="#CCCBCA" width="10.247" height="1.61"/>
			</g>
			<g>
				<rect x="44.005" y="47.567" fill="#CCCBCA" width="10.247" height="1.61"/>
				<rect x="44.005" y="44.346" fill="#CCCBCA" width="10.247" height="1.61"/>
			</g>
			<g>
				<rect x="34.138" y="42.713" fill="#4A5158" width="1.964" height="10.711"/>
				<rect x="36.101" y="42.713" fill="#343C44" width="1.966" height="10.711"/>
				<rect x="38.067" y="42.713" fill="#1E262E" width="1.964" height="10.711"/>
				<polygon fill="#E6E5E5" points="40.032,42.713 38.063,39.296 36.105,39.296 34.141,42.713 				"/>
				<polygon fill="#CCCBCA" points="40.032,42.713 38.067,42.713 37.409,39.296 38.063,39.296 				"/>
				<polygon fill="#343C44" points="38.063,39.296 37.081,37.589 36.105,39.296 				"/>
			</g>
		</g>
	</g>
</g>
</svg>
