<?xml version="1.0" encoding="utf-8"?>
<!-- Generator: Adobe Illustrator 17.0.0, SVG Export Plug-In . SVG Version: 6.00 Build 0)  -->
<!DOCTYPE svg PUBLIC "-//W3C//DTD SVG 1.1//EN" "http://www.w3.org/Graphics/SVG/1.1/DTD/svg11.dtd">
<svg version="1.1" id="Layer_1" xmlns="http://www.w3.org/2000/svg" xmlns:xlink="http://www.w3.org/1999/xlink" x="0px" y="0px"
	 width="74px" height="74px" viewBox="0 0 74 74" enable-background="new 0 0 74 74" xml:space="preserve">
<g>
	<circle fill="#4A5158" cx="36.986" cy="37.175" r="37.123"/>
	<path fill="#343C44" d="M74.098,37.669L55.35,18.922c-0.019-0.019-0.035-0.035-0.052-0.054c-0.019-0.019-0.035-0.035-0.054-0.048
		c-0.21-0.206-0.445-0.393-0.703-0.551l-0.422,0.68l-1.345-1.345l0,0c-0.557-0.1-1.164-0.139-1.815-0.106l0.052,1.058l0,0
		l4.589,4.591c-0.013,0.287-0.042,0.586-0.085,0.894l-6.314-6.314c-0.538,0.112-1.108,0.26-1.692,0.441l0.316,1.006l7.158,7.158
		c-0.114,0.37-0.241,0.75-0.389,1.139l-8.717-8.719c-0.518,0.206-1.05,0.441-1.586,0.69L44.74,20.4
		c0.01-0.004,0.017-0.008,0.027-0.011l-0.016,0.023l9.006,9.008c-0.187,0.399-0.387,0.8-0.599,1.207L42.751,20.219
		c-0.493,0.264-0.996,0.545-1.494,0.848l0.536,0.904l1.677,1.677c-0.971-0.466-2-0.831-3.074-1.079l-0.599-0.601
		c-0.183,0.119-0.37,0.239-0.555,0.37c-0.734-0.112-1.486-0.17-2.253-0.17c-0.593,0-1.177,0.046-1.756,0.114l-0.008-0.008
		c-0.156,0.019-0.32,0.039-0.478,0.064c-1.868-1.241-3.708-2.282-5.47-3.082c-4.872-2.212-8.638-2.351-10.602-0.387
		c-0.226,0.225-0.426,0.478-0.598,0.752l7.647,7.649c-0.247,0.281-0.486,0.572-0.713,0.873l-6.557-6.559l0,0l-1.039-0.191
		c-0.077,0.416-0.12,0.871-0.12,1.345c0,0.154,0.004,0.306,0.013,0.464l6.609,6.609c-0.035,0.06-0.071,0.119-0.104,0.179l-5.24-5.24
		l-1.035,0.212c0.112,0.54,0.254,1.11,0.441,1.694l1.332,1.334l-0.748,0.301c0.206,0.513,0.436,1.048,0.69,1.58l0,0l1.274,1.274
		l-0.497,0.27c0.264,0.487,0.545,0.991,0.842,1.494l1.241,1.241l-0.335,0.22c0.119,0.187,0.239,0.374,0.368,0.561
		c-0.11,0.732-0.168,1.484-0.168,2.251c0,0.761,0.058,1.509,0.168,2.241c-0.129,0.191-0.252,0.383-0.378,0.571l0.611,0.611
		c0.25,1.072,0.615,2.099,1.083,3.07L21.78,41.99l-0.91-0.536c-0.297,0.503-0.58,1.006-0.844,1.494L30.43,53.351
		c-0.409,0.212-0.813,0.412-1.214,0.601l-9.012-9.012l0,0l-0.952-0.451c-0.254,0.532-0.484,1.07-0.69,1.582l8.711,8.713
		c-0.389,0.146-0.767,0.274-1.137,0.387l-7.154-7.152l-1.006-0.31c-0.181,0.584-0.33,1.154-0.44,1.69l6.302,6.304
		c-0.308,0.042-0.607,0.071-0.894,0.083l-4.579-4.577v0.002l0,0l-1.054-0.054c-0.009,0.154-0.013,0.308-0.013,0.455
		c0,0.48,0.042,0.94,0.12,1.357l0,0l1.339,1.339l-0.678,0.422c0.171,0.274,0.372,0.528,0.598,0.754L37.48,74.286
		C57.589,74.024,73.834,57.778,74.098,37.669z"/>
	<g>
		<path fill="#FFFFFF" d="M55.295,55.486l-0.748-0.748c1.607-1.607,1.386-5.038-0.603-9.416c-2.091-4.602-5.859-9.752-10.606-14.499
			c-4.747-4.747-9.896-8.513-14.497-10.604c-4.379-1.991-7.811-2.211-9.417-0.605l-0.748-0.748c1.964-1.962,5.728-1.825,10.6,0.391
			c4.716,2.141,9.974,5.984,14.809,10.82c4.834,4.834,8.677,10.093,10.82,14.807C57.121,49.756,57.259,53.522,55.295,55.486z"/>
		<g>
			<path fill="#FFFFFF" d="M18.677,55.486c-0.225-0.227-0.426-0.48-0.597-0.755l0.896-0.559c0.129,0.206,0.279,0.397,0.449,0.567
				L18.677,55.486z"/>
			<path fill="#FFFFFF" d="M17.417,52.971c-0.079-0.422-0.12-0.877-0.12-1.359c0-0.148,0.004-0.299,0.012-0.455l1.056,0.054
				c-0.008,0.135-0.01,0.27-0.01,0.401c0,0.416,0.033,0.806,0.1,1.164L17.417,52.971z M18.573,49.61l-1.037-0.208
				c0.11-0.54,0.256-1.108,0.44-1.694l1.01,0.314C18.812,48.573,18.676,49.107,18.573,49.61z M19.541,46.465l-0.981-0.393
				c0.206-0.514,0.437-1.046,0.692-1.582l0.954,0.451C19.963,45.457,19.739,45.969,19.541,46.465z M20.957,43.448l-0.931-0.497
				c0.262-0.493,0.547-0.996,0.844-1.497l0.91,0.538C21.491,42.481,21.214,42.97,20.957,43.448z M22.661,40.567l-0.888-0.573
				c0.305-0.472,0.622-0.946,0.954-1.424l0.869,0.603C23.27,39.64,22.958,40.107,22.661,40.567z M24.575,37.809l-0.848-0.63
				c0.335-0.451,0.682-0.904,1.039-1.359l0.831,0.655C25.244,36.921,24.904,37.366,24.575,37.809z M26.656,35.169l-0.811-0.677
				c0.36-0.434,0.732-0.865,1.114-1.297l0.792,0.698C27.377,34.319,27.011,34.745,26.656,35.169z M28.88,32.646l-0.775-0.719
				c0.383-0.414,0.777-0.827,1.178-1.239l0.757,0.738C29.644,31.831,29.258,32.238,28.88,32.646z M31.23,30.235l-0.738-0.755
				c0.41-0.401,0.825-0.794,1.237-1.179l0.719,0.775C32.041,29.455,31.635,29.842,31.23,30.235z M33.697,27.948l-0.7-0.792
				c0.432-0.382,0.865-0.754,1.297-1.114l0.678,0.81C34.546,27.207,34.121,27.572,33.697,27.948z M36.277,25.791l-0.655-0.829
				c0.455-0.358,0.908-0.705,1.359-1.041l0.63,0.848C37.168,25.099,36.722,25.44,36.277,25.791z M38.975,23.791l-0.603-0.867
				c0.478-0.333,0.952-0.651,1.424-0.956l0.572,0.888C39.906,23.154,39.442,23.467,38.975,23.791z M41.793,21.975l-0.54-0.91
				c0.503-0.297,1.006-0.582,1.498-0.844l0.499,0.931C42.772,21.409,42.283,21.684,41.793,21.975z M44.74,20.4l-0.451-0.956
				c0.536-0.252,1.068-0.485,1.582-0.692l0.393,0.981C45.769,19.932,45.256,20.156,44.74,20.4z M47.822,19.177l-0.314-1.008
				c0.584-0.183,1.153-0.33,1.694-0.439l0.208,1.035C48.905,18.866,48.371,19.005,47.822,19.177z M52.578,18.643
				c-0.472-0.087-1-0.118-1.567-0.089L50.959,17.5c0.649-0.035,1.26,0.002,1.811,0.104L52.578,18.643z"/>
			<path fill="#FFFFFF" d="M54.548,19.614c-0.168-0.168-0.358-0.32-0.565-0.449l0.559-0.896c0.276,0.172,0.528,0.372,0.753,0.598
				L54.548,19.614z"/>
		</g>
		<g>
			<path fill="#FECE67" d="M51.994,37.181c0,8.285-6.717,15.002-15.008,15.002c-8.291,0-15.008-6.716-15.008-15.002
				c0-8.285,6.716-15.013,15.008-15.013C45.277,22.168,51.994,28.896,51.994,37.181z"/>
			<path fill="#F5B541" d="M48.986,37.181c0,6.634-5.368,11.999-11.999,11.999c-6.636,0-12.003-5.365-12.003-11.999
				c0-6.634,5.368-12.007,12.003-12.007C43.618,25.174,48.986,30.547,48.986,37.181z"/>
			<g>
				<g>
					<path fill="#FECE67" d="M38.247,38.17h-2.521c-1.05,0-2.043-0.41-2.777-1.158c-0.74-0.727-1.153-1.715-1.153-2.775
						c0-1.056,0.412-2.041,1.153-2.787c0.726-0.732,1.719-1.143,2.777-1.143h5.456v1.985h-5.456c-0.524,0-1.021,0.201-1.372,0.559
						c-0.378,0.372-0.578,0.861-0.578,1.386c0,0.524,0.201,1.01,0.571,1.372c0.374,0.381,0.856,0.584,1.38,0.584h2.521V38.17z"/>
					<path fill="#FECE67" d="M38.247,44.05h-5.458v-1.977h5.458c0.52,0,1.006-0.204,1.38-0.574c0.358-0.357,0.574-0.848,0.574-1.376
						c0-0.526-0.202-1.012-0.569-1.368c-0.38-0.378-0.865-0.584-1.386-0.584h-2.521v-1.977h2.521c1.051,0,2.041,0.409,2.781,1.153
						c0.738,0.724,1.147,1.719,1.147,2.777c0,1.056-0.407,2.047-1.147,2.783C40.274,43.645,39.286,44.05,38.247,44.05z"/>
					<rect x="35.998" y="29.624" fill="#FECE67" width="1.979" height="15.115"/>
				</g>
			</g>
		</g>
		<g>
			<path fill="#FFFFFF" d="M54.542,56.084l-0.559-0.898c0.206-0.127,0.397-0.279,0.565-0.447l0.748,0.748
				C55.07,55.71,54.817,55.912,54.542,56.084z"/>
			<path fill="#FFFFFF" d="M51.424,56.864c-0.148,0-0.301-0.004-0.455-0.012l0.052-1.054c0.565,0.027,1.095-0.004,1.565-0.092
				l0.197,1.041C52.36,56.824,51.904,56.864,51.424,56.864z M49.211,56.625c-0.538-0.108-1.108-0.256-1.694-0.438l0.316-1.01
				c0.549,0.171,1.085,0.31,1.588,0.41L49.211,56.625z M45.883,55.602c-0.513-0.204-1.045-0.436-1.584-0.69l0.451-0.956
				c0.52,0.245,1.033,0.468,1.524,0.665L45.883,55.602z M42.761,54.137c-0.492-0.264-0.995-0.547-1.498-0.844l0.54-0.91
				c0.488,0.289,0.979,0.567,1.457,0.821L42.761,54.137z M39.804,52.389c-0.47-0.303-0.944-0.622-1.422-0.954l0.601-0.867
				c0.468,0.324,0.933,0.636,1.395,0.933L39.804,52.389z M36.99,50.437c-0.451-0.335-0.906-0.682-1.359-1.041l0.653-0.829
				c0.447,0.351,0.89,0.692,1.336,1.021L36.99,50.437z M34.304,48.317c-0.434-0.36-0.865-0.732-1.299-1.114l0.7-0.792
				c0.426,0.376,0.85,0.74,1.276,1.097L34.304,48.317z M31.737,46.058c-0.412-0.385-0.825-0.779-1.237-1.18l0.738-0.755
				c0.405,0.393,0.811,0.781,1.22,1.16L31.737,46.058z M29.291,43.67c-0.401-0.41-0.794-0.823-1.178-1.237l0.775-0.719
				c0.378,0.407,0.765,0.813,1.16,1.218L29.291,43.67z M26.967,41.165c-0.381-0.432-0.753-0.865-1.114-1.297l0.811-0.678
				c0.355,0.426,0.721,0.852,1.095,1.276L26.967,41.165z M24.773,38.54c-0.358-0.453-0.705-0.908-1.041-1.359l0.848-0.63
				c0.33,0.443,0.671,0.888,1.023,1.334L24.773,38.54z M22.732,35.791c-0.332-0.478-0.649-0.954-0.954-1.424l0.888-0.574
				c0.297,0.462,0.609,0.927,0.935,1.395L22.732,35.791z M20.876,32.908c-0.299-0.503-0.584-1.008-0.846-1.497l0.933-0.499
				c0.254,0.476,0.532,0.967,0.821,1.457L20.876,32.908z M19.256,29.873c-0.252-0.536-0.486-1.068-0.692-1.584l0.981-0.391
				c0.199,0.495,0.422,1.008,0.667,1.525L19.256,29.873z M17.98,26.654c-0.183-0.582-0.332-1.153-0.439-1.692l1.035-0.21
				c0.102,0.505,0.241,1.039,0.412,1.588L17.98,26.654z M17.309,23.205c-0.008-0.158-0.012-0.314-0.012-0.466
				c0-0.476,0.04-0.929,0.118-1.345l1.039,0.193c-0.066,0.355-0.098,0.742-0.098,1.153c0,0.135,0.002,0.274,0.01,0.412
				L17.309,23.205z"/>
			<path fill="#FFFFFF" d="M18.976,20.181L18.08,19.62c0.171-0.274,0.372-0.528,0.597-0.753l0.748,0.748
				C19.256,19.782,19.105,19.975,18.976,20.181z"/>
		</g>
		<path fill="#FFFFFF" d="M22.551,56.862c-1.638,0-2.955-0.457-3.874-1.378l0.748-0.746c1.605,1.605,5.038,1.384,9.417-0.605
			c4.6-2.093,9.75-5.859,14.497-10.606c4.747-4.747,8.515-9.897,10.606-14.497c1.991-4.379,2.211-7.811,0.605-9.417l0.746-0.748
			c1.964,1.964,1.825,5.728-0.389,10.602c-2.143,4.714-5.986,9.972-10.82,14.807c-4.836,4.833-10.093,8.676-14.809,10.82
			C26.687,56.272,24.411,56.862,22.551,56.862z"/>
	</g>
</g>
</svg>
