<?xml version="1.0" encoding="utf-8"?>
<!-- Generator: Adobe Illustrator 17.0.0, SVG Export Plug-In . SVG Version: 6.00 Build 0)  -->
<!DOCTYPE svg PUBLIC "-//W3C//DTD SVG 1.1//EN" "http://www.w3.org/Graphics/SVG/1.1/DTD/svg11.dtd">
<svg version="1.1" id="Layer_1" xmlns="http://www.w3.org/2000/svg" xmlns:xlink="http://www.w3.org/1999/xlink" x="0px" y="0px"
	 width="74px" height="74px" viewBox="0 0 74 74" enable-background="new 0 0 74 74" xml:space="preserve">
<g>
	<circle fill="#4A5158" cx="37.001" cy="37.001" r="37.057"/>
	<path fill="#343C44" d="M38.507,74.019c19.767-0.791,35.55-17.059,35.55-37.018c0-0.202-0.011-0.402-0.015-0.604L59.646,22.001
		l-0.658-0.66c-0.469-0.341-1.043-0.537-1.666-0.537c-1.581,0-2.868,1.287-2.868,2.87H16.68v26.653h0.006l4.298,4.298l0.937,0.937
		l-0.935,0.935L38.507,74.019z"/>
	<g>
		<polygon fill="#FFFFFF" points="20.985,56.497 27.159,50.325 20.985,50.325 		"/>
		<rect x="16.68" y="23.675" fill="#FFFFFF" width="40.645" height="26.651"/>
		<g>
			<rect x="20.997" y="27.992" fill="#FECE67" width="32.011" height="18.019"/>
			<polygon fill="#F5B541" points="20.985,27.992 37.001,39.1 53.021,27.992 			"/>
		</g>
		<circle fill="#EA6653" cx="57.323" cy="23.675" r="2.869"/>
	</g>
</g>
</svg>
