<?xml version="1.0" encoding="utf-8"?>
<!-- Generator: Adobe Illustrator 17.0.0, SVG Export Plug-In . SVG Version: 6.00 Build 0)  -->
<!DOCTYPE svg PUBLIC "-//W3C//DTD SVG 1.1//EN" "http://www.w3.org/Graphics/SVG/1.1/DTD/svg11.dtd">
<svg version="1.1" id="Layer_1" xmlns="http://www.w3.org/2000/svg" xmlns:xlink="http://www.w3.org/1999/xlink" x="0px" y="0px"
	 width="74px" height="74px" viewBox="0 0 74 74" enable-background="new 0 0 74 74" xml:space="preserve">
<g>
	<ellipse fill="#F4836B" cx="37.042" cy="37.001" rx="37.042" ry="36.999"/>
	<path fill="#EA6653" d="M55.649,31.653c-4.746-4.785-11.332-7.749-18.607-7.749c-9.702,0-18.167,5.271-22.703,13.096
		c1.133,1.957,2.515,3.751,4.096,5.346l29.922,29.888C59.713,68.6,68.678,59.643,72.318,48.3L55.649,31.653z"/>
	<g>
		<path fill="#FFFFFF" d="M37.042,23.907c-9.704,0-18.169,5.269-22.703,13.094c4.535,7.825,13,13.094,22.703,13.094
			c9.704,0,18.171-5.269,22.703-13.094C55.212,29.176,46.745,23.907,37.042,23.907z"/>
		<g>
			<path fill="#343C44" d="M37.042,26.26c-5.942,0-10.754,4.808-10.754,10.739c0,5.933,4.811,10.741,10.754,10.741
				c5.938,0,10.754-4.808,10.754-10.741C47.795,31.068,42.98,26.26,37.042,26.26z"/>
			<ellipse fill="#FECF66" cx="37.042" cy="36.999" rx="8.596" ry="8.588"/>
			<circle fill="#F5B540" cx="37.041" cy="36.999" r="4.605"/>
			<circle fill="#FFFFFF" cx="34.071" cy="34.033" r="2.427"/>
			<circle fill="#FFFFFF" cx="37.042" cy="36.999" r="0.848"/>
			<path fill="#343C44" d="M39.661,46.739v10.196c0,1.441-1.171,2.611-2.619,2.611c-1.446,0-2.617-1.17-2.617-2.611V46.739H39.661z"
				/>
		</g>
	</g>
</g>
</svg>
