<?xml version="1.0" encoding="utf-8"?>
<!-- Generator: Adobe Illustrator 17.0.0, SVG Export Plug-In . SVG Version: 6.00 Build 0)  -->
<!DOCTYPE svg PUBLIC "-//W3C//DTD SVG 1.1//EN" "http://www.w3.org/Graphics/SVG/1.1/DTD/svg11.dtd">
<svg version="1.1" id="Layer_1" xmlns="http://www.w3.org/2000/svg" xmlns:xlink="http://www.w3.org/1999/xlink" x="0px" y="0px"
	 width="74px" height="74px" viewBox="0 0 74 74" enable-background="new 0 0 74 74" xml:space="preserve">
<g>
	<circle fill="#95D9F1" cx="37.131" cy="36.887" r="37.019"/>
	<path fill="#71C9E9" d="M56.778,29.063c-0.01-0.01-0.015-0.019-0.019-0.025l-0.35-0.348c-0.004-0.006-0.013-0.01-0.023-0.019
		c-0.496-0.409-1.132-0.653-1.826-0.653h-4.197l-11.358-11.36l0,0c-0.011-0.009-0.023-0.019-0.031-0.027
		c-0.477-0.465-1.126-0.752-1.843-0.752c-1.463,0-2.646,1.19-2.646,2.65c0,0.407,0.092,0.794,0.263,1.138l-0.746,0.746l-7.605,7.605
		h-6.696c-1.587,0-2.871,1.29-2.871,2.869v17.212c0,0.744,0.286,1.432,0.765,1.943l0.162,0.163l23.47,23.47
		c15.659-1.724,28.369-13.211,31.922-28.244L56.778,29.063z"/>
	<g>
		<g>
			<path fill="#FFFFFF" d="M47.541,30.187L37.131,19.778L26.722,30.187l-1.247-1.249l11.032-11.034c0.346-0.344,0.903-0.344,1.249,0
				l11.033,11.034L47.541,30.187z"/>
			<circle fill="#343C44" cx="37.132" cy="18.529" r="2.647"/>
		</g>
		<g>
			<rect x="18.375" y="29.563" fill="#F4836B" width="37.511" height="19.859"/>
			<path fill="#E2503B" d="M54.564,50.966H19.697c-1.58,0-2.867-1.286-2.867-2.867V30.887c0-1.582,1.288-2.869,2.867-2.869h34.866
				c1.58,0,2.867,1.288,2.867,2.869v17.212C57.431,49.681,56.144,50.966,54.564,50.966z M19.92,47.878h34.422v-16.77H19.92V47.878z"
				/>
			<g>
				<g>
					<path fill="#FFFFFF" d="M47.282,42.353h-3.634c-0.3,0-0.542-0.242-0.542-0.542v-4.639c0-0.298,0.242-0.54,0.542-0.54h3.634
						v1.082h-3.094v3.557h3.094V42.353z"/>
					<rect x="43.106" y="38.951" fill="#FFFFFF" width="2.629" height="1.082"/>
				</g>
				<path fill="#FFFFFF" d="M31.503,42.353h-2.475c-0.455,0-0.882-0.177-1.203-0.498c-0.321-0.321-0.498-0.748-0.498-1.203v-4.02
					h1.082v4.02c0,0.165,0.065,0.321,0.182,0.436c0.115,0.119,0.271,0.183,0.436,0.183h2.475V42.353z"/>
				<path fill="#FFFFFF" d="M35.061,42.353h-0.772c-0.456,0-0.882-0.177-1.203-0.496c-0.323-0.323-0.5-0.749-0.5-1.205v-2.32
					c0-0.455,0.177-0.882,0.5-1.203c0.321-0.321,0.75-0.498,1.203-0.498h0.772c0.454,0,0.882,0.177,1.203,0.498
					c0.323,0.323,0.5,0.749,0.5,1.203v2.32c0,0.454-0.177,0.882-0.498,1.203C35.943,42.176,35.516,42.353,35.061,42.353z
					 M34.288,37.713c-0.165,0-0.321,0.065-0.438,0.181c-0.117,0.117-0.181,0.273-0.181,0.438v2.32c0,0.165,0.063,0.321,0.181,0.436
					c0.117,0.119,0.273,0.183,0.438,0.183h0.772c0.165,0,0.321-0.063,0.438-0.181s0.181-0.273,0.181-0.438v-2.32
					c0-0.165-0.063-0.321-0.181-0.438c-0.117-0.115-0.273-0.181-0.438-0.181H34.288z"/>
				<path fill="#FFFFFF" d="M24.542,42.353H23.77c-0.455,0-0.882-0.177-1.203-0.496c-0.321-0.323-0.498-0.749-0.498-1.205v-2.32
					c0-0.455,0.177-0.882,0.498-1.203c0.321-0.321,0.748-0.498,1.203-0.498h0.773c0.456,0,0.882,0.177,1.203,0.498
					c0.321,0.323,0.498,0.749,0.498,1.203v0.542h-1.082v-0.542c0-0.165-0.064-0.321-0.181-0.438
					c-0.117-0.115-0.273-0.181-0.438-0.181H23.77c-0.165,0-0.321,0.065-0.438,0.181c-0.117,0.117-0.181,0.273-0.181,0.438v2.32
					c0,0.165,0.063,0.321,0.181,0.436c0.117,0.119,0.273,0.183,0.438,0.183h0.773c0.165,0,0.321-0.063,0.438-0.181
					c0.117-0.117,0.181-0.273,0.181-0.438V40.11h1.082v0.542c0,0.454-0.177,0.882-0.496,1.203
					C25.425,42.176,24.998,42.353,24.542,42.353z"/>
				<path fill="#FFFFFF" d="M40.321,42.353h-0.775c-0.453,0-0.88-0.177-1.203-0.496c-0.321-0.323-0.498-0.751-0.498-1.205h1.082
					c0,0.165,0.065,0.321,0.183,0.438c0.115,0.117,0.271,0.181,0.436,0.181h0.775c0.165,0,0.321-0.063,0.436-0.181
					c0.119-0.117,0.182-0.273,0.182-0.438s-0.063-0.319-0.182-0.436c-0.115-0.117-0.271-0.182-0.436-0.182h-0.775
					c-0.453,0-0.88-0.175-1.203-0.498c-0.321-0.323-0.498-0.749-0.498-1.203s0.177-0.88,0.498-1.203
					c0.323-0.321,0.75-0.498,1.203-0.498h0.775c0.454,0,0.882,0.177,1.201,0.498c0.323,0.321,0.5,0.749,0.5,1.203H40.94
					c0-0.165-0.063-0.319-0.182-0.436c-0.115-0.117-0.271-0.182-0.436-0.182h-0.775c-0.165,0-0.321,0.065-0.438,0.182
					c-0.115,0.115-0.181,0.271-0.181,0.436s0.065,0.321,0.183,0.438c0.117,0.115,0.271,0.181,0.436,0.181h0.775
					c0.454,0,0.882,0.177,1.203,0.5c0.321,0.319,0.498,0.748,0.498,1.201c0,0.456-0.177,0.882-0.5,1.205
					C41.203,42.176,40.776,42.353,40.321,42.353z"/>
				<path fill="#FFFFFF" d="M50.493,42.353H48.56c-0.3,0-0.542-0.242-0.542-0.542v-4.639c0-0.298,0.242-0.54,0.542-0.54h1.933
					c0.454,0,0.88,0.177,1.203,0.498c0.321,0.321,0.498,0.748,0.498,1.203v2.32c0,0.456-0.177,0.882-0.498,1.205
					C51.375,42.176,50.947,42.353,50.493,42.353z M49.102,41.271h1.391c0.165,0,0.321-0.063,0.438-0.181
					c0.115-0.117,0.181-0.273,0.181-0.438v-2.32c0-0.165-0.065-0.321-0.181-0.436c-0.117-0.117-0.273-0.182-0.438-0.182h-1.391
					V41.271z"/>
			</g>
		</g>
	</g>
</g>
</svg>
