<?xml version="1.0" encoding="utf-8"?>
<!-- Generator: Adobe Illustrator 17.0.0, SVG Export Plug-In . SVG Version: 6.00 Build 0)  -->
<!DOCTYPE svg PUBLIC "-//W3C//DTD SVG 1.1//EN" "http://www.w3.org/Graphics/SVG/1.1/DTD/svg11.dtd">
<svg version="1.1" id="Layer_1" xmlns="http://www.w3.org/2000/svg" xmlns:xlink="http://www.w3.org/1999/xlink" x="0px" y="0px"
	 width="74px" height="74px" viewBox="0 0 74 74" enable-background="new 0 0 74 74" xml:space="preserve">
<g>
	<circle fill="#FECE67" cx="37.093" cy="37.109" r="36.936"/>
	<path fill="#F5B541" d="M73.553,43.013L49.609,19.071c-1.158-1.158-2.673-1.741-4.196-1.741H24.266
		c-0.366,0-0.729,0.138-1.009,0.42c-0.282,0.278-0.42,0.644-0.42,1.011v36.698c0,0.366,0.138,0.735,0.42,1.011L40.659,73.87
		C57.422,72.263,70.911,59.454,73.553,43.013z"/>
	<g>
		<g>
			<path fill="#4A5158" d="M51.346,50.956c0,1.517-0.579,3.037-1.737,4.196c-1.158,1.158-2.677,1.737-4.196,1.737H26.625V17.33
				h18.788c1.519,0,3.037,0.581,4.196,1.739c1.158,1.16,1.737,2.679,1.737,4.196V50.956z"/>
			<rect x="26.625" y="30.517" fill="#FFFFFF" width="24.721" height="13.187"/>
			<g>
				<rect x="34.548" y="39.253" fill="#CCCBCA" width="6.911" height="1.43"/>
				<rect x="34.548" y="36.394" fill="#CCCBCA" width="13.82" height="1.431"/>
				<rect x="34.548" y="33.535" fill="#CCCBCA" width="13.82" height="1.428"/>
			</g>
			<path fill="#343C44" d="M26.625,56.888h-2.357c-0.366,0-0.732-0.14-1.01-0.42c-0.28-0.278-0.42-0.644-0.42-1.011V18.76
				c0-0.364,0.14-0.733,0.42-1.011c0.278-0.28,0.644-0.42,1.01-0.42h2.357V56.888z"/>
			<rect x="29.097" y="17.33" fill="#EA6653" width="2.472" height="39.559"/>
		</g>
		<g>
			<rect x="53.988" y="33.98" fill="#4A5158" width="2.642" height="18.947"/>
			<path fill="#FFFFFF" d="M56.117,55.567h-1.613v0.88c0,0.113,0.042,0.224,0.128,0.311c0.084,0.086,0.198,0.13,0.311,0.13h0.734
				c0.113,0,0.224-0.044,0.311-0.13c0.086-0.086,0.129-0.197,0.129-0.311V55.567z"/>
			<path fill="#343C44" d="M56.631,55.126c0,0.113-0.042,0.226-0.128,0.313c-0.086,0.084-0.199,0.128-0.313,0.128h-1.76
				c-0.111,0-0.224-0.044-0.311-0.128c-0.084-0.086-0.13-0.199-0.13-0.313v-2.199h2.642V55.126z"/>
			<path fill="#343C44" d="M56.631,52.927V52.34c0.13,0,0.253-0.052,0.349-0.144c0.09-0.094,0.142-0.217,0.142-0.343v-6.117h0.587
				v6.117c0,0.284-0.111,0.554-0.314,0.757C57.189,52.815,56.918,52.927,56.631,52.927z"/>
			<path fill="#FFFFFF" d="M55.001,31.339l0.211-0.7c0.012-0.042,0.052-0.073,0.1-0.073c0.046,0,0.084,0.031,0.098,0.073l0.209,0.7
				H55.001z"/>
			<polygon fill="#343C44" points="55.839,31.339 54.782,31.339 53.988,33.98 56.631,33.98 			"/>
		</g>
	</g>
</g>
</svg>
