<?xml version="1.0" encoding="utf-8"?>
<!-- Generator: Adobe Illustrator 17.0.0, SVG Export Plug-In . SVG Version: 6.00 Build 0)  -->
<!DOCTYPE svg PUBLIC "-//W3C//DTD SVG 1.1//EN" "http://www.w3.org/Graphics/SVG/1.1/DTD/svg11.dtd">
<svg version="1.1" id="Layer_1" xmlns="http://www.w3.org/2000/svg" xmlns:xlink="http://www.w3.org/1999/xlink" x="0px" y="0px"
	 width="74px" height="74px" viewBox="0 0 74 74" enable-background="new 0 0 74 74" xml:space="preserve">
<g>
	<ellipse fill="#95D9F1" cx="37.186" cy="37.122" rx="36.978" ry="36.937"/>
	<path fill="#71C9E9" d="M74.093,39.327L58.714,23.97c-0.276-0.282-0.645-0.42-1.012-0.42H32.845c-0.363,0-0.731,0.138-1.012,0.42
		c-0.276,0.276-0.42,0.642-0.42,1.011v5.881l-1.016-1.014h-7.529c-1.092,0-2.185,0.418-3.022,1.252
		c-0.833,0.834-1.25,1.925-1.25,3.016v4.267h-0.405c-0.626,0-1.25,0.238-1.728,0.715c-0.476,0.476-0.714,1.101-0.714,1.724v3.66
		h-0.511v2.445l26.831,26.801C59.467,71.434,73.045,57.068,74.093,39.327z"/>
	<g>
		<rect x="30.395" y="42.037" fill="#4A5158" width="1.019" height="2.445"/>
		<g>
			<path fill="#F4836B" d="M59.135,44.481h-27.72V24.98c0-0.366,0.14-0.733,0.42-1.012c0.278-0.278,0.645-0.418,1.012-0.418h24.856
				c0.367,0,0.733,0.14,1.012,0.418c0.28,0.28,0.42,0.646,0.42,1.012V44.481z"/>
			<rect x="33.864" y="25.995" fill="#EA6653" width="22.821" height="16.042"/>
			<g>
				<rect x="44.639" y="32.286" fill="#FFFFFF" width="12.046" height="3.457"/>
				<polygon fill="#FFFFFF" points="44.639,38.384 40.366,34.117 44.639,29.849 				"/>
			</g>
		</g>
		<g>
			<path fill="#FFFFFF" d="M18.595,34.115c0-1.091,0.419-2.184,1.252-3.018c0.835-0.832,1.927-1.25,3.022-1.25h7.527v8.537h-11.8
				V34.115z"/>
			<path fill="#D9D8D7" d="M21.037,38.384v-4.269c0-0.489,0.19-0.947,0.538-1.292c0.345-0.347,0.804-0.537,1.294-0.537h5.087v6.098
				H21.037z"/>
			<path fill="#FFFFFF" d="M15.75,40.823c0-0.623,0.238-1.248,0.714-1.726c0.476-0.475,1.102-0.713,1.728-0.713h12.203v6.098H15.75
				V40.823z"/>
			<rect x="15.75" y="40.823" fill="#F4836B" width="1.019" height="2.447"/>
			<rect x="26.531" y="40.823" fill="#D9D8D7" width="1.424" height="0.853"/>
		</g>
		<rect x="15.239" y="44.481" fill="#4A5158" width="43.895" height="2.445"/>
		<g>
			<g>
				<circle fill="#343C44" cx="22.37" cy="46.926" r="3.775"/>
				<circle fill="#FFFFFF" cx="22.371" cy="46.926" r="1.678"/>
			</g>
			<g>
				<circle fill="#343C44" cx="52.911" cy="46.926" r="3.774"/>
				<circle fill="#FFFFFF" cx="52.911" cy="46.926" r="1.678"/>
			</g>
			<g>
				<circle fill="#343C44" cx="44.141" cy="46.926" r="3.775"/>
				<circle fill="#FFFFFF" cx="44.142" cy="46.926" r="1.678"/>
			</g>
		</g>
	</g>
</g>
</svg>
