<?xml version="1.0" encoding="utf-8"?>
<!-- Generator: Adobe Illustrator 17.0.0, SVG Export Plug-In . SVG Version: 6.00 Build 0)  -->
<!DOCTYPE svg PUBLIC "-//W3C//DTD SVG 1.1//EN" "http://www.w3.org/Graphics/SVG/1.1/DTD/svg11.dtd">
<svg version="1.1" id="Layer_1" xmlns="http://www.w3.org/2000/svg" xmlns:xlink="http://www.w3.org/1999/xlink" x="0px" y="0px"
	 width="74px" height="74px" viewBox="0 0 74 74" enable-background="new 0 0 74 74" xml:space="preserve">
<g>
	<ellipse fill="#4A5158" cx="37.102" cy="37.066" rx="36.977" ry="36.937"/>
	<path fill="#343C44" d="M49.131,20.434c-0.319-0.257-0.739-0.376-1.173-0.305l-2.175,0.372c-0.175,0.029-0.359,0.027-0.543,0.006
		l-3.131-3.124c-0.011-0.012-0.023-0.023-0.034-0.035l-0.039-0.034c-0.029-0.031-0.063-0.052-0.096-0.077
		c-0.029-0.023-0.058-0.05-0.088-0.071c-0.075-0.048-0.152-0.092-0.232-0.127c-0.015-0.008-0.031-0.01-0.044-0.017
		c-0.071-0.027-0.142-0.05-0.215-0.067c-0.027-0.006-0.05-0.009-0.077-0.013c-0.063-0.012-0.129-0.019-0.196-0.023
		c-0.027,0-0.054,0-0.083,0c-0.065,0.002-0.129,0.008-0.194,0.017c-0.027,0.004-0.054,0.008-0.083,0.013
		c-0.067,0.013-0.132,0.035-0.198,0.058c-0.023,0.008-0.048,0.015-0.071,0.023c-0.086,0.037-0.173,0.081-0.255,0.134l-1.837,1.22
		c-0.697,0.464-1.831,0.464-2.528,0l-1.843-1.22c-0.695-0.462-1.632-0.261-2.079,0.443l-1.185,1.864
		c-0.442,0.706-1.482,1.168-2.307,1.03l-2.177-0.372c-0.825-0.138-1.597,0.426-1.722,1.248l-0.324,2.178
		c-0.119,0.83-0.883,1.674-1.689,1.883l-2.139,0.552c-0.81,0.205-1.286,1.035-1.063,1.841l0.591,2.115
		c0.226,0.805-0.127,1.887-0.781,2.407l-1.731,1.373c-0.655,0.52-0.754,1.469-0.225,2.111l1.413,1.703
		c0.53,0.642,0.649,1.772,0.261,2.51l-1.021,1.954c-0.044,0.086-0.077,0.174-0.104,0.263c-0.008,0.027-0.013,0.054-0.019,0.081
		c-0.015,0.063-0.027,0.126-0.035,0.19c-0.004,0.031-0.004,0.061-0.006,0.092c-0.002,0.061-0.002,0.123,0.004,0.184
		c0.002,0.031,0.004,0.058,0.008,0.088c0.01,0.071,0.027,0.14,0.048,0.209c0.004,0.017,0.006,0.035,0.012,0.05
		c0.027,0.084,0.063,0.165,0.106,0.242c0.011,0.023,0.027,0.042,0.04,0.065c0.033,0.054,0.069,0.105,0.108,0.155
		c0.023,0.027,0.046,0.052,0.069,0.077c0.019,0.021,0.037,0.044,0.058,0.065c0.008,0.008,0.019,0.017,0.023,0.023l3.578,3.574
		l-0.129,2.031c-0.019,0.289,0.048,0.567,0.182,0.805l23.027,23.001c14.306-3.022,25.561-14.301,28.523-28.613L49.131,20.434z"/>
	<g>
		<path fill="#95D9F1" d="M35.837,18.386c0.697,0.462,1.835,0.462,2.53,0l1.839-1.219c0.697-0.462,1.632-0.263,2.079,0.443
			l1.183,1.864c0.449,0.704,1.49,1.166,2.311,1.028l2.177-0.37c0.825-0.14,1.599,0.422,1.72,1.248l0.322,2.178
			c0.123,0.826,0.885,1.672,1.693,1.881l2.137,0.55c0.81,0.209,1.288,1.037,1.063,1.841l-0.593,2.117
			c-0.223,0.805,0.127,1.887,0.783,2.407l1.733,1.375c0.655,0.518,0.754,1.469,0.221,2.111l-1.407,1.697
			c-0.532,0.644-0.653,1.776-0.265,2.516l1.023,1.952c0.386,0.74,0.09,1.649-0.658,2.021l-1.977,0.98
			c-0.747,0.37-1.317,1.356-1.265,2.19l0.136,2.199c0.054,0.832-0.587,1.542-1.423,1.578l-2.204,0.094
			c-0.837,0.035-1.757,0.704-2.048,1.488l-0.768,2.063c-0.292,0.782-1.165,1.172-1.943,0.865l-2.054-0.811
			c-0.775-0.307-1.891-0.071-2.475,0.525l-1.543,1.572c-0.584,0.598-1.542,0.598-2.127,0.002l-1.544-1.574
			c-0.587-0.596-1.701-0.832-2.476-0.525l-2.054,0.811c-0.777,0.307-1.651-0.082-1.943-0.865l-0.768-2.063
			c-0.292-0.784-1.213-1.453-2.046-1.488l-2.204-0.094c-0.837-0.037-1.476-0.746-1.424-1.578l0.138-2.199
			c0.052-0.834-0.518-1.82-1.267-2.19l-1.977-0.98c-0.747-0.372-1.044-1.281-0.657-2.021l1.023-1.952
			c0.386-0.74,0.267-1.871-0.267-2.514l-1.407-1.701c-0.532-0.64-0.432-1.591,0.221-2.109l1.735-1.375
			c0.653-0.52,1.006-1.601,0.781-2.405l-0.593-2.119c-0.225-0.805,0.253-1.632,1.063-1.841l2.137-0.552
			c0.808-0.207,1.572-1.053,1.693-1.879l0.323-2.178c0.123-0.826,0.897-1.388,1.72-1.248l2.177,0.37
			c0.824,0.138,1.864-0.324,2.311-1.028l1.183-1.864c0.447-0.705,1.382-0.905,2.079-0.443L35.837,18.386z"/>
		<ellipse fill="#71C9E9" cx="37.101" cy="37.089" rx="13.12" ry="13.106"/>
		<polygon fill="#FFFFFF" points="34.914,43.212 29.661,37.966 31.412,36.217 34.914,39.714 42.792,31.845 44.541,33.594 		"/>
	</g>
</g>
</svg>
