<?xml version="1.0" encoding="utf-8"?>
<!-- Generator: Adobe Illustrator 17.0.0, SVG Export Plug-In . SVG Version: 6.00 Build 0)  -->
<!DOCTYPE svg PUBLIC "-//W3C//DTD SVG 1.1//EN" "http://www.w3.org/Graphics/SVG/1.1/DTD/svg11.dtd">
<svg version="1.1" id="Layer_1" xmlns="http://www.w3.org/2000/svg" xmlns:xlink="http://www.w3.org/1999/xlink" x="0px" y="0px"
	 width="74px" height="74px" viewBox="0 0 74 74" enable-background="new 0 0 74 74" xml:space="preserve">
<g>
	<ellipse fill="#F4836B" cx="37.017" cy="37.061" rx="37.061" ry="37.144"/>
	<path fill="#EA6653" d="M73.923,40.377L51.443,17.85c-0.468-0.475-1.099-0.733-1.762-0.733h-0.685l-1.816-1.822
		c-0.187-0.187-0.437-0.283-0.679-0.283h-6.074H38.51H27.533c-0.242,0-0.493,0.096-0.679,0.283
		c-0.185,0.187-0.281,0.438-0.281,0.681v1.142h-2.22c-0.664,0-1.295,0.258-1.762,0.733c-0.475,0.474-0.737,1.103-0.737,1.774
		c0,0.268,0.012,0.534,0.031,0.8c0.004,0.06,0.008,0.117,0.013,0.177c0.021,0.26,0.05,0.521,0.088,0.777
		c0.004,0.031,0.012,0.06,0.015,0.089c0.039,0.239,0.085,0.478,0.139,0.713c0.01,0.046,0.019,0.093,0.031,0.139
		c0.061,0.255,0.129,0.507,0.206,0.756c0.011,0.035,0.025,0.071,0.036,0.108c0.073,0.233,0.156,0.463,0.244,0.692
		c0.012,0.027,0.021,0.054,0.033,0.081c0.098,0.245,0.204,0.486,0.318,0.723c0.019,0.037,0.036,0.073,0.056,0.112
		c0.115,0.233,0.237,0.463,0.367,0.688c0.002,0.004,0.004,0.01,0.008,0.013c0.131,0.228,0.273,0.447,0.421,0.667
		c0.027,0.04,0.054,0.081,0.083,0.122c0.148,0.214,0.302,0.424,0.464,0.627c0.008,0.01,0.015,0.017,0.023,0.027
		c0.15,0.189,0.31,0.37,0.473,0.552c0.044,0.048,0.09,0.098,0.135,0.147c0.031,0.033,0.06,0.066,0.09,0.098
		c0.096,0.1,0.202,0.206,0.306,0.307l10.322,10.346c0.002,0.037,0.008,0.071,0.008,0.108v0.125h-0.627
		c-0.239,0-0.483,0.089-0.664,0.272c-0.187,0.187-0.277,0.426-0.277,0.665c0,0.247,0.09,0.486,0.277,0.667l0.874,0.876
		c-0.493,0.802-1.366,1.338-2.371,1.338c-0.373,0-0.75,0.145-1.033,0.426c-0.287,0.288-0.431,0.667-0.431,1.041v0.627h-0.864
		c-0.373,0-0.752,0.139-1.035,0.428c-0.287,0.287-0.429,0.66-0.429,1.034v0.629h-1.568c-0.575,0-1.043,0.47-1.043,1.045
		c0,0.096,0.017,0.189,0.042,0.278c0.006,0.023,0.014,0.046,0.021,0.069c0.027,0.081,0.063,0.158,0.108,0.228
		c0.002,0.004,0.004,0.008,0.006,0.01v0.002c0.071,0.104,0.162,0.197,0.265,0.268l0.016,0.017c0.006,0,0.006,0,0.006,0l2.147,2.152
		v6.321h-1.568c-0.575,0-1.043,0.471-1.043,1.045c0,0.251,0.085,0.48,0.235,0.658c0,0.004,0,0.01,0.004,0.01l0.144,0.143
		c0,0,0.004,0.006,0.01,0.01l14.959,14.993C58.993,71.605,72.392,57.705,73.923,40.377z"/>
	<g>
		<g>
			<g>
				<g>
					<path fill="#F5B541" d="M43.47,30.975V17.116h6.207c0.668,0,1.297,0.26,1.77,0.735c0.471,0.472,0.731,1.101,0.731,1.772
						c0,4.929-3.113,9.352-7.742,11.007L43.47,30.975z M44.915,18.564v10.299c3.519-1.683,5.818-5.274,5.818-9.241
						c0-0.283-0.11-0.55-0.31-0.75c-0.2-0.199-0.464-0.308-0.747-0.308H44.915z"/>
					<path fill="#F5B541" d="M30.564,30.975l-0.966-0.345c-4.631-1.655-7.742-6.078-7.742-11.007c0-0.671,0.26-1.3,0.731-1.772
						c0.473-0.475,1.103-0.735,1.77-0.735h6.207V30.975z M24.357,18.564c-0.283,0-0.546,0.11-0.747,0.308
						c-0.2,0.201-0.31,0.467-0.31,0.75c0,3.967,2.299,7.557,5.818,9.241V18.564H24.357z"/>
				</g>
			</g>
			<path fill="#ECA434" d="M43.387,44.531c0.373,0,0.748,0.143,1.033,0.428c0.287,0.285,0.429,0.661,0.429,1.035v0.629H29.184
				v-0.629c0-0.374,0.142-0.75,0.429-1.035c0.285-0.286,0.66-0.428,1.033-0.428H43.387z"/>
			<g>
				<g>
					<path fill="#FECE67" d="M47.178,15.295c-0.187-0.187-0.435-0.283-0.681-0.283H27.535c-0.244,0-0.493,0.096-0.679,0.283
						c-0.189,0.189-0.283,0.436-0.283,0.683v1.861c0,9.64,4.013,17.59,9.191,18.705c0.41,0.09,0.829,0.135,1.252,0.135
						c0.423,0,0.843-0.044,1.253-0.135c0.477-0.1,0.945-0.26,1.401-0.478c0.092-0.044,0.185-0.091,0.277-0.141
						c4.343-2.285,7.513-9.517,7.513-18.086v-1.861C47.461,15.731,47.366,15.484,47.178,15.295z"/>
					<path fill="#FECE67" d="M41.057,42.437c0.375,0,0.75,0.143,1.035,0.428c0.285,0.286,0.427,0.663,0.427,1.037v0.629H31.514
						v-0.629c0-0.374,0.142-0.752,0.427-1.037c0.285-0.285,0.66-0.428,1.035-0.428H41.057z"/>
					<rect x="35.764" y="36.366" fill="#FECE67" width="2.505" height="6.07"/>
					<path fill="#FECE67" d="M39.67,36.066c-0.837,0.482-1.401,1.388-1.401,2.426v-1.948C38.747,36.444,39.214,36.283,39.67,36.066z
						"/>
					<path fill="#FECE67" d="M41.057,42.437H38.27v-2.794C38.27,41.185,39.518,42.437,41.057,42.437z"/>
					<path fill="#FECE67" d="M34.364,36.066c0.837,0.482,1.401,1.388,1.401,2.426v-1.948C35.287,36.444,34.82,36.283,34.364,36.066z
						"/>
					<path fill="#FECE67" d="M32.976,42.437h2.788v-2.794C35.764,41.185,34.516,42.437,32.976,42.437z"/>
				</g>
			</g>
			<path fill="#ECA434" d="M34.196,39.56c0-0.243,0.092-0.482,0.277-0.667c0.183-0.185,0.423-0.278,0.664-0.278h3.76
				c0.241,0,0.481,0.093,0.664,0.278c0.185,0.185,0.277,0.424,0.277,0.667l0,0c0,0.239-0.092,0.482-0.277,0.665
				c-0.183,0.183-0.423,0.276-0.664,0.276h-3.76c-0.241,0-0.481-0.093-0.664-0.276C34.289,40.042,34.196,39.799,34.196,39.56
				L34.196,39.56z"/>
			<polygon fill="#EA6653" points="39.791,15.012 39.791,23.624 39.791,23.624 41.171,22.239 42.55,23.624 42.55,15.012 			"/>
		</g>
		<g>
			<rect x="29.184" y="48.716" fill="#343C44" width="15.665" height="8.3"/>
			<path fill="#4A5158" d="M47.461,47.668c0,0.577-0.466,1.047-1.043,1.047H27.616c-0.575,0-1.043-0.471-1.043-1.047
				c0-0.578,0.468-1.045,1.043-1.045h18.802C46.995,46.623,47.461,47.09,47.461,47.668z"/>
			<path fill="#4A5158" d="M47.461,58.06c0,0.577-0.466,1.045-1.043,1.045H27.616c-0.575,0-1.043-0.469-1.043-1.045
				c0-0.578,0.468-1.045,1.043-1.045h18.802C46.995,57.015,47.461,57.482,47.461,58.06z"/>
			<rect x="31.483" y="51.022" fill="#FFFFFF" width="11.067" height="3.687"/>
		</g>
	</g>
</g>
</svg>
