<?xml version="1.0" encoding="utf-8"?>
<!-- Generator: Adobe Illustrator 17.0.0, SVG Export Plug-In . SVG Version: 6.00 Build 0)  -->
<!DOCTYPE svg PUBLIC "-//W3C//DTD SVG 1.1//EN" "http://www.w3.org/Graphics/SVG/1.1/DTD/svg11.dtd">
<svg version="1.1" id="Layer_1" xmlns="http://www.w3.org/2000/svg" xmlns:xlink="http://www.w3.org/1999/xlink" x="0px" y="0px"
	 width="74px" height="74px" viewBox="0 0 74 74" enable-background="new 0 0 74 74" xml:space="preserve">
<g>
	<ellipse fill="#F4836B" cx="36.961" cy="37.046" rx="36.977" ry="37.144"/>
	<path fill="#EA6653" d="M56.417,20.229c-0.299-0.303-0.701-0.455-1.096-0.455h-36.72c-0.397,0-0.797,0.152-1.098,0.455
		c-0.305,0.307-0.459,0.704-0.459,1.107v22.402c-0.428,0-0.814,0.174-1.096,0.459c-0.282,0.278-0.459,0.671-0.459,1.103
		c0,0.409,0.157,0.771,0.411,1.049c0.035,0.039,0.067,0.073,0.106,0.106l7.262,7.295l1.24,1.246l-1.238,1.244l17.656,17.737
		c18.31-1.961,32.616-17.346,32.994-36.168L56.417,20.229z"/>
	<g>
		<g>
			<g>
				<rect x="23.27" y="46.861" fill="#343C44" width="3.11" height="9.378"/>
				<rect x="47.541" y="46.861" fill="#343C44" width="3.11" height="9.378"/>
				<rect x="26.38" y="49.987" fill="#343C44" width="21.161" height="3.126"/>
			</g>
		</g>
		<path fill="#343C44" d="M56.876,43.736h-39.83V21.334c0-0.399,0.152-0.8,0.455-1.105c0.303-0.305,0.703-0.457,1.1-0.457h36.72
			c0.397,0,0.797,0.152,1.1,0.457c0.301,0.305,0.455,0.706,0.455,1.105V43.736z"/>
		<path fill="#1E262E" d="M58.431,45.298c0,0.86-0.701,1.564-1.555,1.564h-39.83c-0.856,0-1.557-0.704-1.557-1.564l0,0
			c0-0.858,0.701-1.562,1.557-1.562h39.83C57.731,43.736,58.431,44.44,58.431,45.298L58.431,45.298z"/>
		<rect x="20.158" y="22.898" fill="#71C9E9" width="33.606" height="20.838"/>
		<g>
			<g>
				<rect x="29.448" y="34.009" fill="#FFFFFF" width="4.657" height="1.213"/>
				<rect x="29.448" y="31.412" fill="#FFFFFF" width="4.657" height="1.211"/>
			</g>
			<g>
				<path fill="#FFFFFF" d="M41.697,36.524h-1.209v-4.507c0-0.185-0.073-0.359-0.201-0.49c-0.131-0.131-0.303-0.204-0.488-0.204
					c-0.186,0-0.359,0.073-0.489,0.204c-0.129,0.131-0.201,0.305-0.201,0.49v0.606H37.9v-0.606c0-0.509,0.198-0.987,0.557-1.348
					c0.357-0.361,0.835-0.559,1.342-0.559s0.983,0.199,1.342,0.559c0.357,0.361,0.557,0.839,0.557,1.348V36.524z"/>
				<path fill="#FFFFFF" d="M39.108,36.524H37.9v-4.507c0-0.185-0.073-0.359-0.201-0.49c-0.131-0.131-0.303-0.204-0.488-0.204
					c-0.186,0-0.359,0.073-0.488,0.204c-0.132,0.131-0.204,0.305-0.204,0.49v4.507h-1.207v-4.507c0-0.509,0.198-0.987,0.557-1.348
					c0.357-0.361,0.835-0.559,1.342-0.559c0.505,0,0.983,0.199,1.342,0.559c0.357,0.361,0.555,0.839,0.555,1.348V36.524z"/>
			</g>
			<g>
				<path fill="#FFFFFF" d="M28.238,36.524h-4.053c-0.334,0-0.605-0.272-0.605-0.608v-5.199c0-0.335,0.271-0.607,0.605-0.607h4.053
					v1.213h-3.45v3.988h3.45V36.524z"/>
				<rect x="23.581" y="32.711" fill="#FFFFFF" width="2.933" height="1.211"/>
			</g>
			<path fill="#FFFFFF" d="M48.712,30.42c0-0.085,0.035-0.168,0.094-0.229c0.062-0.062,0.144-0.094,0.23-0.094h0.407
				c0.238,0,0.466-0.095,0.635-0.264c0.169-0.172,0.263-0.399,0.263-0.638c0-0.243-0.094-0.469-0.263-0.64
				c-0.169-0.17-0.397-0.262-0.635-0.262h-0.407c-0.242,0-0.466,0.093-0.635,0.262c-0.169,0.172-0.265,0.397-0.265,0.64h0.576
				c0-0.087,0.035-0.168,0.094-0.23c0.062-0.062,0.144-0.096,0.23-0.096h0.407c0.086,0,0.169,0.035,0.228,0.096
				c0.061,0.062,0.094,0.143,0.094,0.23c0,0.087-0.033,0.168-0.094,0.229c-0.06,0.06-0.142,0.094-0.228,0.094h-0.407
				c-0.242,0-0.466,0.095-0.635,0.266c-0.169,0.17-0.265,0.395-0.265,0.636v0.615c0,0.16,0.131,0.287,0.288,0.287h1.918v-0.577
				h-1.63V30.42z"/>
			<path fill="#FFFFFF" d="M45.665,36.524h-0.864c-0.507,0-0.983-0.199-1.342-0.559c-0.359-0.361-0.555-0.839-0.555-1.348v-2.599
				c0-0.509,0.196-0.987,0.555-1.348c0.359-0.361,0.835-0.559,1.342-0.559h0.864c0.507,0,0.981,0.199,1.342,0.559
				c0.357,0.361,0.555,0.839,0.555,1.348v0.606h-1.207v-0.606c0-0.185-0.073-0.359-0.203-0.49s-0.303-0.204-0.486-0.204h-0.864
				c-0.184,0-0.359,0.073-0.489,0.204c-0.129,0.131-0.201,0.305-0.201,0.49v2.599c0,0.185,0.073,0.359,0.201,0.49
				c0.131,0.131,0.305,0.204,0.489,0.204h0.864c0.182,0,0.355-0.073,0.486-0.204s0.203-0.305,0.203-0.49v-0.607h1.207v0.607
				c0,0.509-0.198,0.987-0.555,1.348C46.648,36.325,46.172,36.524,45.665,36.524z"/>
		</g>
		<rect x="45.994" y="42.523" fill="#FFFFFF" width="4.657" height="1.213"/>
	</g>
</g>
</svg>
