<?xml version="1.0" encoding="utf-8"?>
<!-- Generator: Adobe Illustrator 17.0.0, SVG Export Plug-In . SVG Version: 6.00 Build 0)  -->
<!DOCTYPE svg PUBLIC "-//W3C//DTD SVG 1.1//EN" "http://www.w3.org/Graphics/SVG/1.1/DTD/svg11.dtd">
<svg version="1.1" id="Layer_1" xmlns="http://www.w3.org/2000/svg" xmlns:xlink="http://www.w3.org/1999/xlink" x="0px" y="0px"
	 width="74px" height="74px" viewBox="0 0 74 74" enable-background="new 0 0 74 74" xml:space="preserve">
<g>
	<ellipse fill="#FECE67" cx="37.061" cy="37.026" rx="37.019" ry="36.852"/>
	<path fill="#F5B541" d="M73.494,43.533L54.299,24.425c-0.056-0.057-0.113-0.115-0.171-0.167c-0.894-0.804-2.039-1.245-3.248-1.245
		h-6.181l-3.331-3.316c-0.538-0.538-1.412-0.538-1.953,0c-0.363,0.361-0.482,0.87-0.357,1.328l-1.511,1.502l-2.84-2.83
		c-0.542-0.538-1.415-0.538-1.955,0s-0.54,1.408,0,1.946l1.374,1.37H23.242c-1.29,0-2.506,0.503-3.419,1.412
		c-0.913,0.909-1.42,2.116-1.42,3.404v1.718c0,0.084,0.01,0.167,0.023,0.247c0.008,0.031,0.017,0.059,0.025,0.088
		c0.014,0.048,0.023,0.098,0.04,0.144c0.015,0.04,0.037,0.078,0.054,0.117c0.015,0.033,0.029,0.063,0.046,0.094
		c0.035,0.057,0.073,0.109,0.113,0.161c0.006,0.006,0.01,0.014,0.014,0.019c0.004,0.002,0.004,0.004,0.006,0.006
		c0.06,0.071,0.125,0.14,0.198,0.197l0.607,0.605l-1.972,12.755c-0.296,1.915,0.221,3.941,1.588,5.525
		c0.052,0.057,0.1,0.113,0.157,0.17L43.114,73.38C58.546,70.853,70.754,58.827,73.494,43.533z"/>
	<g>
		<path fill="#EA6653" d="M56.565,43.978l-2.231-14.429v-4.515H19.789v4.515l-2.231,14.429c-0.296,1.915,0.219,3.941,1.586,5.525
			c1.366,1.584,3.298,2.399,5.245,2.399h25.347c1.947,0,3.88-0.815,5.245-2.399C56.346,47.92,56.861,45.893,56.565,43.978z"/>
		<path fill="#FFFFFF" d="M54.334,30.924c-0.761,0-1.38-0.616-1.38-1.376v-1.72c0-0.551-0.215-1.069-0.607-1.458
			c-0.392-0.39-0.913-0.606-1.467-0.606H23.242c-0.554,0-1.074,0.216-1.466,0.606c-0.39,0.388-0.605,0.907-0.605,1.458v1.72
			c0,0.76-0.619,1.376-1.382,1.376s-1.382-0.616-1.382-1.376v-1.72c0-1.286,0.503-2.495,1.416-3.404
			c0.913-0.911,2.127-1.412,3.419-1.412H50.88c1.292,0,2.506,0.501,3.419,1.41c0.915,0.911,1.418,2.12,1.418,3.406v1.72
			C55.717,30.308,55.098,30.924,54.334,30.924z"/>
		<g>
			<g>
				<polygon fill="#FFFFFF" points="40.514,21.523 39.535,20.551 35.873,24.198 36.849,25.169 				"/>
				<path fill="#FFFFFF" d="M41.369,21.643c-0.54,0.538-1.414,0.538-1.954,0c-0.54-0.536-0.54-1.406,0-1.944
					c0.54-0.538,1.414-0.538,1.954,0C41.907,20.237,41.907,21.108,41.369,21.643z"/>
			</g>
			<g>
				<polygon fill="#FFFFFF" points="33.609,21.523 34.587,20.551 38.25,24.198 37.273,25.169 				"/>
				<path fill="#FFFFFF" d="M32.753,21.643c0.54,0.538,1.414,0.538,1.955,0c0.54-0.536,0.54-1.406,0-1.944
					c-0.54-0.538-1.415-0.538-1.955,0C32.215,20.237,32.215,21.108,32.753,21.643z"/>
			</g>
		</g>
	</g>
</g>
</svg>
