<?xml version="1.0" encoding="utf-8"?>
<!-- Generator: Adobe Illustrator 17.0.0, SVG Export Plug-In . SVG Version: 6.00 Build 0)  -->
<!DOCTYPE svg PUBLIC "-//W3C//DTD SVG 1.1//EN" "http://www.w3.org/Graphics/SVG/1.1/DTD/svg11.dtd">
<svg version="1.1" id="Layer_1" xmlns="http://www.w3.org/2000/svg" xmlns:xlink="http://www.w3.org/1999/xlink" x="0px" y="0px"
	 width="74px" height="74px" viewBox="0 0 74 74" enable-background="new 0 0 74 74" xml:space="preserve">
<g>
	<circle fill="#FECE67" cx="37.093" cy="36.984" r="37.061"/>
	<path fill="#F5B541" d="M73.581,43.445L45.346,15.212c-0.625-0.583-1.462-0.943-2.386-0.943H31.226
		c-1.937,0-3.525,1.587-3.525,3.519v17.609c0,0.031,0.004,0.062,0.006,0.09l-1.378-1.376c-0.011-0.012-0.023-0.023-0.033-0.033
		c-0.017-0.017-0.036-0.037-0.054-0.05c-0.015-0.013-0.033-0.021-0.048-0.033c-0.019-0.015-0.037-0.027-0.058-0.04
		c-0.039-0.025-0.079-0.048-0.123-0.067c-0.016-0.008-0.029-0.015-0.046-0.021c-0.046-0.019-0.094-0.033-0.142-0.044
		c-0.016-0.004-0.031-0.01-0.046-0.013c-0.065-0.012-0.133-0.019-0.2-0.019h-2.574c-0.573,0-1.041,0.468-1.041,1.041v0.227
		c0,0.573,0.468,1.037,1.041,1.037h0.614v5.762c0,0.793,0.31,1.539,0.87,2.099l9.68,9.68h-5.156c-0.664,0-1.285,0.258-1.755,0.725
		c-0.469,0.469-0.727,1.095-0.727,1.761v0.931h-0.01c-0.229,0-0.421,0.189-0.421,0.421v1.809c0,0.081,0.025,0.158,0.069,0.225
		l0.004,0.008l0.115,0.112L40.54,73.879C57.236,72.34,70.716,59.724,73.581,43.445z"/>
	<g>
		<path fill="#343C44" d="M52.222,35.058c0,0.571-0.471,1.039-1.043,1.039h-2.574c-0.574,0-1.043-0.468-1.043-1.039v-0.227
			c0-0.575,0.469-1.041,1.043-1.041h2.574c0.571,0,1.043,0.466,1.043,1.041V35.058z"/>
		<path fill="#343C44" d="M21.966,35.058c0,0.571,0.469,1.039,1.039,1.039h2.574c0.573,0,1.045-0.468,1.045-1.039v-0.227
			c0-0.573-0.471-1.041-1.045-1.041h-2.574c-0.569,0-1.039,0.468-1.039,1.041V35.058z"/>
		<path fill="#343C44" d="M37.719,57.055h-0.227h-0.8h-0.225c-0.229,0-0.419,0.187-0.419,0.417v1.811
			c0,0.231,0.191,0.416,0.419,0.416h0.225h0.8h0.227c0.229,0,0.419-0.185,0.419-0.416v-1.811
			C38.139,57.242,37.948,57.055,37.719,57.055z"/>
		<path fill="#343C44" d="M47.664,57.055h-0.225h-0.8h-0.227c-0.227,0-0.417,0.187-0.417,0.417v1.811
			c0,0.231,0.19,0.416,0.417,0.416h0.227h0.8h0.225c0.229,0,0.419-0.185,0.419-0.416v-1.811
			C48.084,57.242,47.893,57.055,47.664,57.055z"/>
		<path fill="#343C44" d="M27.774,57.055h-0.227h-0.8h-0.225c-0.231,0-0.421,0.187-0.421,0.417v1.811
			c0,0.231,0.191,0.416,0.421,0.416h0.225h0.8h0.227c0.229,0,0.416-0.185,0.416-0.416v-1.811
			C28.19,57.242,28.003,57.055,27.774,57.055z"/>
		<rect x="35.212" y="46.127" fill="#FFFFFF" width="3.758" height="2.932"/>
		<rect x="36.476" y="49.059" fill="#FFFFFF" width="1.231" height="7.996"/>
		<rect x="32.143" y="38.916" fill="#343C44" width="9.895" height="1.93"/>
		<path fill="#FFFFFF" d="M46.422,57.055V56.12c0-0.335-0.131-0.648-0.366-0.887c-0.235-0.235-0.548-0.362-0.883-0.362h-7.465
			v-1.237h7.465c0.662,0,1.285,0.26,1.755,0.729c0.468,0.469,0.727,1.093,0.727,1.757v0.935H46.422z"/>
		<path fill="#FFFFFF" d="M26.529,57.055V56.12c0-0.666,0.258-1.289,0.727-1.757c0.469-0.47,1.093-0.729,1.757-0.729h7.463v1.237
			h-7.463c-0.337,0-0.65,0.127-0.885,0.362c-0.237,0.239-0.365,0.554-0.365,0.887v0.935H26.529z"/>
		<path fill="#4A5158" d="M46.481,17.788c0-1.932-1.583-3.519-3.521-3.519H31.226c-1.937,0-3.523,1.587-3.523,3.519v17.607
			c0,1.937,1.585,3.521,3.523,3.521H42.96c1.937,0,3.521-1.583,3.521-3.521V17.788z"/>
		<path fill="#FFFFFF" d="M26.529,44.826c-0.772-0.015-1.495-0.319-2.041-0.868c-0.56-0.562-0.87-1.308-0.87-2.101v-5.76h1.351v5.76
			c0,0.433,0.167,0.839,0.473,1.145c0.294,0.292,0.679,0.46,1.087,0.473V44.826z"/>
		<path fill="#FFFFFF" d="M47.655,43.476c0.41-0.013,0.795-0.181,1.089-0.473c0.304-0.306,0.471-0.712,0.471-1.145v-5.76h1.353v5.76
			c0,0.793-0.31,1.539-0.87,2.101c-0.546,0.549-1.272,0.853-2.043,0.868V43.476z"/>
		<path fill="#4A5158" d="M47.655,45.54c0,0.15-0.056,0.3-0.173,0.416c-0.112,0.115-0.263,0.171-0.414,0.171H27.116
			c-0.148,0-0.3-0.056-0.414-0.171c-0.115-0.115-0.173-0.265-0.173-0.416v-2.346c0-0.602,0.229-1.202,0.687-1.66
			c0.46-0.46,1.06-0.689,1.66-0.689h16.431c0.602,0,1.201,0.229,1.66,0.689c0.458,0.458,0.687,1.058,0.687,1.66V45.54z"/>
		<path fill="#343C44" d="M41.939,21.909c0,0.377-0.142,0.75-0.429,1.037c-0.287,0.287-0.662,0.429-1.037,0.429h-6.759
			c-0.377,0-0.75-0.142-1.039-0.429c-0.287-0.287-0.429-0.66-0.429-1.037v-7.64h9.693V21.909z"/>
	</g>
</g>
</svg>
