<?xml version="1.0" encoding="utf-8"?>
<!-- Generator: Adobe Illustrator 17.0.0, SVG Export Plug-In . SVG Version: 6.00 Build 0)  -->
<!DOCTYPE svg PUBLIC "-//W3C//DTD SVG 1.1//EN" "http://www.w3.org/Graphics/SVG/1.1/DTD/svg11.dtd">
<svg version="1.1" id="Layer_1" xmlns="http://www.w3.org/2000/svg" xmlns:xlink="http://www.w3.org/1999/xlink" x="0px" y="0px"
	 width="74px" height="74px" viewBox="0 0 74 74" enable-background="new 0 0 74 74" xml:space="preserve">
<g>
	<ellipse fill="#4A5158" cx="36.867" cy="37.053" rx="36.977" ry="36.936"/>
	<path fill="#343C44" d="M73.844,37.053c0-1.434-0.09-2.846-0.25-4.236L49.625,8.877c-0.085-0.096-0.173-0.18-0.263-0.263
		c-0.678-0.619-1.588-0.995-2.576-0.995c-2.114,0-3.835,1.714-3.835,3.831v3.141h-3.335c-0.826,0-1.599,0.32-2.187,0.905
		c-0.282,0.282-0.495,0.602-0.647,0.949h-6.686c0,3.851-3.125,6.978-6.98,6.978v32.809c0,0.361,0.138,0.729,0.42,1.009
		l16.613,16.594C59.031,72.175,73.844,56.348,73.844,37.053z"/>
	<g>
		<path fill="#EA6653" d="M43.637,16.448H30.096c0,3.85-3.125,6.974-6.982,6.974v32.807c0,0.366,0.14,0.732,0.419,1.012
			c0.28,0.278,0.647,0.418,1.014,0.418h24.643c0.367,0,0.731-0.14,1.012-0.418c0.28-0.28,0.419-0.646,0.419-1.012V23.422
			C46.763,23.422,43.637,20.298,43.637,16.448z M36.866,23.147c-0.987,0-1.787-0.802-1.787-1.787c0-0.986,0.801-1.785,1.787-1.785
			c0.987,0,1.789,0.8,1.789,1.785C38.656,22.346,37.853,23.147,36.866,23.147z"/>
		<g>
			<rect x="28.84" y="29.14" fill="#FFFFFF" width="16.054" height="22.801"/>
			<g>
				<g>
					<rect x="32.179" y="32.476" fill="#343C44" width="1.877" height="16.128"/>
					<rect x="35.93" y="32.476" fill="#343C44" width="1.874" height="16.128"/>
					<rect x="39.679" y="40.539" fill="#343C44" width="1.876" height="8.065"/>
				</g>
			</g>
		</g>
		<path fill="#FFFFFF" d="M36.866,19.301c-1.14,0-2.062,0.922-2.062,2.06c0,1.139,0.922,2.061,2.062,2.061
			c1.14,0,2.064-0.922,2.064-2.061C38.93,20.223,38.007,19.301,36.866,19.301z M36.866,22.733c-0.76,0-1.374-0.614-1.374-1.373
			c0-0.76,0.614-1.373,1.374-1.373s1.374,0.614,1.374,1.373C38.241,22.12,37.627,22.733,36.866,22.733z"/>
		<g>
			<path fill="#FFFFFF" d="M37.212,21.36h-0.689v-3.678c0-0.824,0.321-1.601,0.908-2.184c0.584-0.585,1.359-0.907,2.187-0.907h7.168
				v0.686h-7.168c-0.643,0-1.248,0.251-1.701,0.706c-0.455,0.452-0.705,1.058-0.705,1.699V21.36z"/>
			<path fill="#FFFFFF" d="M46.786,15.278v-0.686c1.734,0,3.146-1.409,3.146-3.143s-1.413-3.145-3.146-3.145
				c-1.737,0-3.148,1.411-3.148,3.145H42.95c0-2.113,1.72-3.831,3.835-3.831c2.114,0,3.834,1.718,3.834,3.831
				C50.619,13.56,48.899,15.278,46.786,15.278z"/>
			<rect x="42.95" y="11.449" fill="#FFFFFF" width="0.687" height="4.999"/>
			<circle fill="#FFFFFF" cx="36.867" cy="21.36" r="0.345"/>
		</g>
	</g>
</g>
</svg>
