<?xml version="1.0" encoding="utf-8"?>
<!-- Generator: Adobe Illustrator 17.0.0, SVG Export Plug-In . SVG Version: 6.00 Build 0)  -->
<!DOCTYPE svg PUBLIC "-//W3C//DTD SVG 1.1//EN" "http://www.w3.org/Graphics/SVG/1.1/DTD/svg11.dtd">
<svg version="1.1" id="Layer_1" xmlns="http://www.w3.org/2000/svg" xmlns:xlink="http://www.w3.org/1999/xlink" x="0px" y="0px"
	 width="74px" height="74px" viewBox="0 0 74 74" enable-background="new 0 0 74 74" xml:space="preserve">
<g>
	<ellipse fill="#4A5158" cx="37.092" cy="37.108" rx="37.102" ry="37.062"/>
	<path fill="#343C44" d="M74.049,40.284L55.344,21.6c-0.285-0.283-0.653-0.421-1.017-0.421H19.858c-0.368,0-0.738,0.139-1.019,0.421
		c-0.277,0.277-0.416,0.645-0.416,1.014v28.989c0,0.368,0.139,0.737,0.416,1.014L40.27,74.024
		C58.224,72.5,72.524,58.216,74.049,40.284z"/>
	<g>
		<path fill="#95D9F1" d="M55.762,36.461c0-0.367-0.14-0.733-0.42-1.014c-0.281-0.281-0.649-0.419-1.015-0.419H19.856
			c-0.366,0-0.736,0.139-1.015,0.419c-0.279,0.281-0.42,0.647-0.42,1.014v15.142c0,0.368,0.141,0.735,0.42,1.014
			c0.279,0.281,0.649,0.421,1.015,0.421h34.471c0.366,0,0.734-0.14,1.015-0.421c0.279-0.279,0.42-0.646,0.42-1.014V36.461z"/>
		<path fill="#5AB5D9" d="M55.762,35.203c0-0.367-0.14-0.735-0.42-1.014c-0.281-0.281-0.649-0.421-1.015-0.421H19.856
			c-0.366,0-0.736,0.14-1.015,0.421c-0.279,0.279-0.42,0.646-0.42,1.014v15.142c0,0.367,0.141,0.733,0.42,1.014
			c0.279,0.281,0.649,0.419,1.015,0.419h34.471c0.366,0,0.734-0.139,1.015-0.419c0.279-0.281,0.42-0.646,0.42-1.014V35.203z"/>
		<path fill="#95D9F1" d="M55.762,33.943c0-0.366-0.14-0.733-0.42-1.014c-0.281-0.279-0.649-0.419-1.015-0.419H19.856
			c-0.366,0-0.736,0.14-1.015,0.419c-0.279,0.281-0.42,0.648-0.42,1.014v15.142c0,0.367,0.141,0.735,0.42,1.016
			c0.279,0.281,0.649,0.419,1.015,0.419h34.471c0.366,0,0.734-0.139,1.015-0.419c0.279-0.281,0.42-0.648,0.42-1.016V33.943z"/>
		<path fill="#5AB5D9" d="M55.762,32.685c0-0.367-0.14-0.735-0.42-1.014c-0.281-0.281-0.649-0.421-1.015-0.421H19.856
			c-0.366,0-0.736,0.14-1.015,0.421c-0.279,0.279-0.42,0.646-0.42,1.014v15.142c0,0.367,0.141,0.735,0.42,1.016
			c0.279,0.279,0.649,0.419,1.015,0.419h34.471c0.366,0,0.734-0.14,1.015-0.419c0.279-0.281,0.42-0.648,0.42-1.016V32.685z"/>
		<path fill="#95D9F1" d="M55.762,31.426c0-0.367-0.14-0.735-0.42-1.014c-0.281-0.281-0.649-0.421-1.015-0.421H19.856
			c-0.366,0-0.736,0.14-1.015,0.421c-0.279,0.279-0.42,0.646-0.42,1.014v15.142c0,0.367,0.141,0.735,0.42,1.014
			c0.279,0.281,0.649,0.421,1.015,0.421h34.471c0.366,0,0.734-0.14,1.015-0.421c0.279-0.279,0.42-0.646,0.42-1.014V31.426z"/>
		<path fill="#5AB5D9" d="M55.762,30.168c0-0.369-0.14-0.735-0.42-1.016c-0.281-0.281-0.649-0.419-1.015-0.419H19.856
			c-0.366,0-0.736,0.139-1.015,0.419c-0.279,0.281-0.42,0.647-0.42,1.016V45.31c0,0.366,0.141,0.733,0.42,1.014
			c0.279,0.279,0.649,0.419,1.015,0.419h34.471c0.366,0,0.734-0.14,1.015-0.419c0.279-0.281,0.42-0.648,0.42-1.014V30.168z"/>
		<path fill="#95D9F1" d="M55.762,28.908c0-0.367-0.14-0.733-0.42-1.014c-0.281-0.281-0.649-0.419-1.015-0.419H19.856
			c-0.366,0-0.736,0.139-1.015,0.419c-0.279,0.281-0.42,0.646-0.42,1.014V44.05c0,0.367,0.141,0.735,0.42,1.014
			c0.279,0.281,0.649,0.421,1.015,0.421h34.471c0.366,0,0.734-0.14,1.015-0.421c0.279-0.279,0.42-0.646,0.42-1.014V28.908z"/>
		<path fill="#5AB5D9" d="M55.762,27.649c0-0.367-0.14-0.735-0.42-1.014c-0.281-0.281-0.649-0.421-1.015-0.421H19.856
			c-0.366,0-0.736,0.14-1.015,0.421c-0.279,0.279-0.42,0.646-0.42,1.014v15.142c0,0.367,0.141,0.733,0.42,1.014
			c0.279,0.281,0.649,0.419,1.015,0.419h34.471c0.366,0,0.734-0.139,1.015-0.419c0.279-0.281,0.42-0.646,0.42-1.014V27.649z"/>
		<path fill="#95D9F1" d="M55.762,26.389c0-0.366-0.14-0.733-0.42-1.014c-0.281-0.279-0.649-0.419-1.015-0.419H19.856
			c-0.366,0-0.736,0.14-1.015,0.419c-0.279,0.281-0.42,0.648-0.42,1.014v15.142c0,0.369,0.141,0.735,0.42,1.016
			c0.279,0.281,0.649,0.419,1.015,0.419h34.471c0.366,0,0.734-0.139,1.015-0.419c0.279-0.281,0.42-0.647,0.42-1.016V26.389z"/>
		<path fill="#5AB5D9" d="M55.762,25.131c0-0.367-0.14-0.735-0.42-1.014c-0.281-0.281-0.649-0.421-1.015-0.421H19.856
			c-0.366,0-0.736,0.14-1.015,0.421c-0.279,0.279-0.42,0.646-0.42,1.014v15.142c0,0.367,0.141,0.735,0.42,1.016
			c0.279,0.279,0.649,0.419,1.015,0.419h34.471c0.366,0,0.734-0.14,1.015-0.419c0.279-0.281,0.42-0.648,0.42-1.016V25.131z"/>
		<path fill="#95D9F1" d="M55.762,23.873c0-0.367-0.14-0.735-0.42-1.016c-0.281-0.279-0.649-0.419-1.015-0.419H19.856
			c-0.366,0-0.736,0.14-1.015,0.419c-0.279,0.281-0.42,0.648-0.42,1.016v15.142c0,0.367,0.141,0.735,0.42,1.014
			c0.279,0.281,0.649,0.421,1.015,0.421h34.471c0.366,0,0.734-0.14,1.015-0.421c0.279-0.279,0.42-0.646,0.42-1.014V23.873z"/>
		<g>
			<path fill="#5AB5D9" d="M55.762,22.613c0-0.367-0.14-0.733-0.42-1.014c-0.281-0.281-0.649-0.419-1.015-0.419H19.856
				c-0.366,0-0.736,0.139-1.015,0.419c-0.279,0.281-0.42,0.646-0.42,1.014v15.144c0,0.366,0.141,0.733,0.42,1.014
				c0.279,0.279,0.649,0.419,1.015,0.419h34.471c0.366,0,0.734-0.14,1.015-0.419c0.279-0.281,0.42-0.648,0.42-1.014V22.613z"/>
			<path fill="#95D9F1" d="M53.771,35.144c-1.138,0-2.061,0.921-2.061,2.057H22.472c0-1.135-0.921-2.057-2.059-2.057v-9.918
				c1.138,0,2.059-0.922,2.059-2.057H51.71c0,1.135,0.922,2.057,2.061,2.057V35.144z"/>
			<g>
				<g>
					<path fill="#5AB5D9" d="M37.092,35.698c-3.043,0-5.52-2.474-5.52-5.514c0-3.04,2.477-5.512,5.52-5.512
						c3.043,0,5.519,2.472,5.519,5.512C42.61,33.223,40.135,35.698,37.092,35.698z M37.092,25.931c-2.348,0-4.259,1.907-4.259,4.252
						c0,2.347,1.911,4.256,4.259,4.256c2.348,0,4.257-1.909,4.257-4.256C41.349,27.838,39.44,25.931,37.092,25.931z"/>
					<g>
						<path fill="#5AB5D9" d="M37.662,30.815H36.52c-0.524,0-1.017-0.204-1.389-0.573c-0.372-0.375-0.574-0.866-0.574-1.389
							c0-0.522,0.202-1.012,0.57-1.383c0.374-0.373,0.869-0.577,1.393-0.577h1.142v1.258H36.52c-0.189,0-0.366,0.075-0.501,0.208
							c-0.129,0.131-0.202,0.308-0.202,0.495c0,0.189,0.073,0.365,0.206,0.5c0.129,0.131,0.308,0.204,0.497,0.204h1.142V30.815z"/>
						<path fill="#5AB5D9" d="M39.627,28.852h-1.26c0-0.187-0.073-0.366-0.21-0.5c-0.129-0.129-0.306-0.202-0.495-0.202v-1.258
							c0.524,0,1.015,0.202,1.387,0.569C39.423,27.836,39.627,28.329,39.627,28.852z"/>
						<path fill="#5AB5D9" d="M36.52,33.477c-0.522,0-1.015-0.202-1.385-0.569c-0.374-0.373-0.578-0.868-0.578-1.391h1.26
							c0,0.189,0.073,0.366,0.208,0.5c0.131,0.129,0.308,0.202,0.495,0.202V33.477z"/>
						<path fill="#5AB5D9" d="M37.662,33.477H36.52v-1.258h1.142c0.189,0,0.366-0.073,0.497-0.206
							c0.135-0.133,0.208-0.31,0.208-0.496c0-0.187-0.075-0.363-0.21-0.498c-0.129-0.131-0.306-0.204-0.495-0.204v-1.258
							c0.522,0,1.015,0.204,1.387,0.572c0.374,0.377,0.578,0.87,0.578,1.389c0,0.522-0.204,1.014-0.574,1.385
							C38.681,33.273,38.186,33.477,37.662,33.477z"/>
						<rect x="36.46" y="26.378" fill="#5AB5D9" width="1.26" height="7.613"/>
					</g>
					<g>
						<rect x="41.973" y="29.556" fill="#5AB5D9" width="7.225" height="1.258"/>
						<rect x="24.986" y="29.556" fill="#5AB5D9" width="7.217" height="1.258"/>
					</g>
					<g>
						<rect x="41.189" y="26.892" fill="#5AB5D9" width="3.656" height="1.258"/>
						<rect x="29.339" y="26.892" fill="#5AB5D9" width="3.656" height="1.258"/>
					</g>
					<g>
						<rect x="41.021" y="32.219" fill="#5AB5D9" width="3.824" height="1.258"/>
						<rect x="29.339" y="32.219" fill="#5AB5D9" width="3.656" height="1.258"/>
					</g>
				</g>
			</g>
		</g>
	</g>
</g>
</svg>
