<?xml version="1.0" encoding="utf-8"?>
<!-- Generator: Adobe Illustrator 17.0.0, SVG Export Plug-In . SVG Version: 6.00 Build 0)  -->
<!DOCTYPE svg PUBLIC "-//W3C//DTD SVG 1.1//EN" "http://www.w3.org/Graphics/SVG/1.1/DTD/svg11.dtd">
<svg version="1.1" id="Layer_1" xmlns="http://www.w3.org/2000/svg" xmlns:xlink="http://www.w3.org/1999/xlink" x="0px" y="0px"
	 width="74px" height="74px" viewBox="0 0 74 74" enable-background="new 0 0 74 74" xml:space="preserve">
<g>
	<ellipse fill="#4A5158" cx="37.047" cy="37.192" rx="36.954" ry="37.019"/>
	<g>
		<g>
			<path fill="#343C44" d="M53.032,70.579l-28.02-28.065l-3.705-3.711c-0.096-0.096-0.224-0.158-0.372-0.158
				c-0.144,0-0.276,0.061-0.372,0.158l-3.705,3.711c-0.071,0.071-0.102,0.186-0.058,0.286c0.025,0.06,0.073,0.1,0.127,0.127
				l0.011,0.011l2.417,2.422v0.071c0,2.351,0.85,4.572,2.404,6.312l0.764,0.763L43.6,73.619
				C46.917,73.025,50.085,71.995,53.032,70.579z"/>
			<path fill="#343C44" d="M52.4,22.725l-0.911-0.913c-1.308-1.151-2.885-1.899-4.581-2.193l-0.004-0.004
				c-0.169-0.029-0.341-0.046-0.51-0.065c-0.096-0.012-0.188-0.029-0.282-0.037c-0.278-0.023-0.558-0.038-0.838-0.038h-4.044v3.158
				l8.773,8.791h-0.735c-0.104,0-0.2,0.061-0.242,0.161c-0.044,0.1-0.015,0.215,0.058,0.286l21.291,21.331
				c1.414-2.946,2.438-6.114,3.033-9.431L52.4,22.725z"/>
			<path fill="#343C44" d="M51.266,37.479L36.742,22.924l-1.059-1.061c-1.725-1.485-3.977-2.389-6.44-2.389
				c-5.456,0-9.886,4.434-9.886,9.898c0,2.427,0.869,4.643,2.318,6.363l1.222,1.228l14.375,14.401l1.239,1.238l16.762,16.791
				c5.805-3.306,10.627-8.137,13.924-13.955L52.371,38.588L51.266,37.479z"/>
		</g>
	</g>
	<g>
		<g>
			<ellipse fill="#FECE67" cx="29.242" cy="29.374" rx="9.884" ry="9.9"/>
			<ellipse fill="#F5B541" cx="29.243" cy="29.374" rx="7.096" ry="7.109"/>
		</g>
		<g>
			<ellipse fill="#FFFFFF" cx="44.851" cy="45.012" rx="9.884" ry="9.9"/>
			<path fill="#D9D8D7" d="M51.946,45.012c0,3.925-3.177,7.107-7.095,7.107c-3.921,0-7.097-3.183-7.097-7.107
				c0-3.928,3.175-7.113,7.097-7.113C48.769,37.9,51.946,41.084,51.946,45.012z"/>
		</g>
		<g>
			<path fill="#FFFFFF" d="M54.735,31.423h-3.154v-2.472c0-1.687-0.656-3.275-1.847-4.468c-1.191-1.193-2.776-1.851-4.46-1.851
				h-4.044v-3.158h4.044c2.529,0,4.904,0.984,6.69,2.775c1.788,1.791,2.772,4.171,2.772,6.702V31.423z"/>
			<path fill="#FFFFFF" d="M49.267,31.423c-0.104,0-0.202,0.061-0.244,0.163c-0.04,0.1-0.015,0.213,0.058,0.286l3.705,3.711
				c0.096,0.096,0.226,0.154,0.372,0.154c0.146,0,0.276-0.057,0.372-0.154l3.705-3.711c0.073-0.073,0.098-0.186,0.056-0.286
				c-0.042-0.102-0.138-0.163-0.242-0.163H49.267z"/>
		</g>
		<g>
			<path fill="#FFFFFF" d="M32.864,54.912H28.82c-2.527,0-4.904-0.986-6.692-2.775c-1.786-1.791-2.77-4.173-2.77-6.704v-2.47h3.154
				v2.47c0,1.687,0.656,3.275,1.848,4.468c1.191,1.194,2.776,1.851,4.46,1.851h4.044V54.912z"/>
			<path fill="#FFFFFF" d="M24.826,42.964c0.104,0,0.199-0.061,0.242-0.163c0.042-0.102,0.017-0.213-0.056-0.286l-3.705-3.713
				c-0.096-0.094-0.226-0.154-0.372-0.154s-0.276,0.059-0.372,0.154l-3.705,3.713c-0.073,0.073-0.1,0.185-0.056,0.286
				c0.04,0.102,0.138,0.163,0.242,0.163H24.826z"/>
		</g>
	</g>
</g>
</svg>
