<?xml version="1.0" encoding="utf-8"?>
<!-- Generator: Adobe Illustrator 17.0.0, SVG Export Plug-In . SVG Version: 6.00 Build 0)  -->
<!DOCTYPE svg PUBLIC "-//W3C//DTD SVG 1.1//EN" "http://www.w3.org/Graphics/SVG/1.1/DTD/svg11.dtd">
<svg version="1.1" id="Layer_1" xmlns="http://www.w3.org/2000/svg" xmlns:xlink="http://www.w3.org/1999/xlink" x="0px" y="0px"
	 width="74px" height="74px" viewBox="0 0 74 74" enable-background="new 0 0 74 74" xml:space="preserve">
<g>
	<circle fill="#95D9F1" cx="37.01" cy="37.108" r="37.061"/>
	<path fill="#71C9E9" d="M55.914,22.453l-1.439,3.39l-0.327-0.327l-2.605-2.601c-0.306-0.31-0.708-0.462-1.108-0.462H17.542
		c-0.4,0-0.802,0.152-1.114,0.462c-0.306,0.308-0.458,0.708-0.458,1.116V45.31c0,0.387,0.139,0.77,0.425,1.076
		c0.01,0.013,0.019,0.025,0.033,0.038c0.015,0.014,0.025,0.023,0.038,0.033l3.773,3.773l0.766,0.766l0.002,0.002l-0.768,0.766
		l22.028,22.028c16.891-2.399,30.111-16.183,31.646-33.337L55.914,22.453z"/>
	<g>
		<g>
			<g>
				<path fill="#FFFFFF" d="M15.97,45.31c0,0.402,0.154,0.804,0.46,1.112c0.308,0.308,0.712,0.462,1.114,0.462H50.43
					c0.404,0,0.806-0.154,1.114-0.462c0.306-0.308,0.46-0.71,0.46-1.112V24.027c0-0.402-0.154-0.804-0.46-1.112
					c-0.308-0.308-0.71-0.462-1.114-0.462H17.543c-0.402,0-0.806,0.154-1.114,0.462c-0.306,0.308-0.46,0.71-0.46,1.112V45.31z"/>
				<polygon fill="#FFFFFF" points="20.239,51.763 20.239,46.884 25.118,46.884 				"/>
			</g>
			<g>
				<rect x="23.787" y="40.85" fill="#CCCBCA" width="23.95" height="1.764"/>
				<rect x="23.787" y="37.318" fill="#CCCBCA" width="23.95" height="1.766"/>
				<rect x="23.787" y="33.785" fill="#CCCBCA" width="23.95" height="1.766"/>
				<rect x="23.787" y="30.255" fill="#CCCBCA" width="23.95" height="1.764"/>
				<rect x="20.239" y="26.722" fill="#4A5158" width="27.498" height="1.766"/>
				<rect x="20.239" y="30.245" fill="#4A5158" width="1.774" height="1.774"/>
				<rect x="20.239" y="33.785" fill="#4A5158" width="1.774" height="1.776"/>
				<rect x="20.239" y="37.327" fill="#4A5158" width="1.774" height="1.774"/>
				<rect x="20.239" y="40.867" fill="#4A5158" width="1.774" height="1.774"/>
			</g>
		</g>
		<g>
			<rect x="53.78" y="26.151" fill="#4A5158" width="1.422" height="21.726"/>
			<rect x="55.202" y="26.151" fill="#343C44" width="1.424" height="21.726"/>
			<rect x="56.626" y="26.151" fill="#1E262E" width="1.424" height="21.726"/>
			<polygon fill="#FFFFFF" points="58.05,26.151 56.626,23.684 55.206,23.684 53.78,26.151 			"/>
			<polygon fill="#CCCBCA" points="58.05,26.151 56.626,26.151 56.15,23.684 56.626,23.684 			"/>
			<polygon fill="#343C44" points="56.626,23.684 55.914,22.453 55.206,23.684 			"/>
			<rect x="56.626" y="47.876" fill="#CCCBCA" width="1.424" height="1.422"/>
			<rect x="53.78" y="47.876" fill="#FFFFFF" width="2.846" height="1.422"/>
			<path fill="#E2503B" d="M58.05,49.629v-0.333l-1.424,0.002v0.331c0,0.545-0.208,1.091-0.625,1.51
				c-0.235,0.231-0.506,0.4-0.799,0.5c0.229,0.081,0.469,0.123,0.712,0.123c0.547,0.002,1.093-0.208,1.51-0.623
				C57.842,50.72,58.05,50.174,58.05,49.629z"/>
			<path fill="#F4836B" d="M56.626,49.629v-0.331h-2.847v0.331c0,0.545,0.21,1.095,0.625,1.51c0.231,0.229,0.508,0.396,0.799,0.5
				c0.292-0.1,0.564-0.269,0.799-0.5C56.418,50.72,56.626,50.174,56.626,49.629z"/>
		</g>
	</g>
</g>
</svg>
