<?xml version="1.0" encoding="utf-8"?>
<!-- Generator: Adobe Illustrator 17.0.0, SVG Export Plug-In . SVG Version: 6.00 Build 0)  -->
<!DOCTYPE svg PUBLIC "-//W3C//DTD SVG 1.1//EN" "http://www.w3.org/Graphics/SVG/1.1/DTD/svg11.dtd">
<svg version="1.1" id="Layer_1" xmlns="http://www.w3.org/2000/svg" xmlns:xlink="http://www.w3.org/1999/xlink" x="0px" y="0px"
	 width="74px" height="74px" viewBox="0 0 74 74" enable-background="new 0 0 74 74" xml:space="preserve">
<g>
	<ellipse fill="#FECE67" cx="36.936" cy="37.178" rx="36.978" ry="37.061"/>
	<path fill="#F5B541" d="M56.56,29.346c-0.01-0.01-0.014-0.019-0.019-0.025l-0.348-0.348c-0.006-0.006-0.015-0.01-0.023-0.019
		c-0.497-0.412-1.132-0.656-1.824-0.656h-4.195L38.807,16.926l0,0c-0.01-0.009-0.021-0.019-0.031-0.027
		c-0.476-0.466-1.125-0.752-1.841-0.752c-1.459,0-2.642,1.191-2.642,2.653c0,0.408,0.09,0.795,0.261,1.139l-0.743,0.747
		l-7.596,7.611h-6.69c-1.584,0-2.866,1.293-2.866,2.875v17.232c0,0.745,0.284,1.433,0.762,1.945l0.163,0.164l23.441,23.496
		c15.642-1.726,28.336-13.226,31.888-28.276L56.56,29.346z"/>
	<g>
		<g>
			<path fill="#FFFFFF" d="M47.334,30.471l-10.399-10.42l-10.397,10.42l-1.246-1.25l11.021-11.046c0.33-0.331,0.916-0.331,1.248,0
				L48.58,29.221L47.334,30.471z"/>
			<ellipse fill="#343C44" cx="36.937" cy="18.8" rx="2.645" ry="2.651"/>
		</g>
		<g>
			<rect x="18.203" y="29.846" fill="#95D9F1" width="37.468" height="19.881"/>
			<path fill="#5AB5D9" d="M54.349,51.274H19.524c-1.58,0-2.864-1.287-2.864-2.871V31.172c0-1.583,1.284-2.873,2.864-2.873h34.825
				c1.58,0,2.866,1.289,2.866,2.873v17.232C57.215,49.987,55.928,51.274,54.349,51.274z M19.745,48.182h34.383V31.393H19.745V48.182
				z"/>
			<g>
				<path fill="#FFFFFF" d="M50.162,43.805c-0.25,0-0.489-0.123-0.632-0.339l-2.947-4.425v4.764h-1.517v-7.277
					c0-0.335,0.219-0.631,0.537-0.727c0.321-0.098,0.668,0.027,0.852,0.306l2.945,4.427v-4.768h1.518v7.281
					c0,0.335-0.219,0.629-0.539,0.727C50.308,43.795,50.235,43.805,50.162,43.805z"/>
				<g>
					<path fill="#FFFFFF" d="M43.547,43.805h-5.095c-0.419,0-0.758-0.339-0.758-0.758v-6.519c0-0.419,0.34-0.762,0.758-0.762h5.095
						v1.522h-4.335v4.997h4.335V43.805z"/>
					<rect x="37.693" y="39.025" fill="#FFFFFF" width="3.686" height="1.522"/>
				</g>
				<path fill="#FFFFFF" d="M31.84,43.805h-1.517v-7.277c0-0.419,0.34-0.762,0.758-0.762h2.711c0.639,0,1.238,0.25,1.687,0.702
					c0.449,0.448,0.699,1.049,0.699,1.689c0,0.637-0.249,1.237-0.699,1.689c-0.451,0.452-1.05,0.7-1.687,0.7H31.84V43.805z
					 M31.84,39.025h1.952c0.232,0,0.449-0.088,0.613-0.254c0.165-0.164,0.255-0.383,0.255-0.614c0-0.233-0.09-0.45-0.253-0.614
					c-0.165-0.165-0.382-0.256-0.614-0.256H31.84V39.025z"/>
				<path fill="#FFFFFF" d="M26.421,43.805h-1.085c-0.636,0-1.234-0.246-1.685-0.698c-0.449-0.452-0.699-1.051-0.699-1.691v-3.257
					c0-0.641,0.249-1.241,0.699-1.691c0.451-0.45,1.05-0.7,1.685-0.7h1.085c0.639,0,1.238,0.25,1.687,0.7
					c0.449,0.45,0.697,1.051,0.697,1.691v3.257c0,0.643-0.247,1.243-0.699,1.693C27.659,43.558,27.06,43.805,26.421,43.805z
					 M25.336,37.288c-0.23,0-0.449,0.09-0.612,0.254c-0.163,0.165-0.253,0.383-0.253,0.616v3.257c0,0.233,0.09,0.452,0.253,0.616
					c0.163,0.164,0.382,0.254,0.612,0.254h1.085c0.232,0,0.451-0.09,0.613-0.254c0.165-0.164,0.255-0.381,0.255-0.616v-3.257
					c0-0.235-0.09-0.452-0.253-0.614c-0.163-0.165-0.382-0.256-0.614-0.256H25.336z"/>
			</g>
		</g>
	</g>
</g>
</svg>
