<?xml version="1.0" encoding="utf-8"?>
<!-- Generator: Adobe Illustrator 17.0.0, SVG Export Plug-In . SVG Version: 6.00 Build 0)  -->
<!DOCTYPE svg PUBLIC "-//W3C//DTD SVG 1.1//EN" "http://www.w3.org/Graphics/SVG/1.1/DTD/svg11.dtd">
<svg version="1.1" id="Layer_1" xmlns="http://www.w3.org/2000/svg" xmlns:xlink="http://www.w3.org/1999/xlink" x="0px" y="0px"
	 width="74px" height="74px" viewBox="0 0 74 74" enable-background="new 0 0 74 74" xml:space="preserve">
<g>
	<ellipse fill="#FECE67" cx="37.091" cy="36.975" rx="37.048" ry="36.982"/>
	<path fill="#F5B541" d="M72.441,48.069L56.692,32.346c-0.258-0.257-0.56-0.438-0.879-0.557h-0.002L45.384,21.375
		c-0.004-0.004-0.01-0.009-0.013-0.013c-0.004-0.006-0.01-0.01-0.014-0.015c-0.479-0.467-1.094-0.701-1.721-0.701
		c-0.621,0-1.252,0.238-1.725,0.716c-0.483,0.476-0.723,1.102-0.723,1.726V22.84c0,1.185-0.225,2.386-0.712,3.546
		c-0.483,1.16-1.162,2.143-2.008,2.972c-0.708,0.703-1.564,1.279-2.543,1.68c-0.985,0.405-1.998,0.591-2.999,0.591h-0.808
		l-0.267-0.267c-0.277-0.28-0.644-0.419-1.014-0.419h-5.601h-7.028c-0.369,0-0.737,0.138-1.014,0.419
		c-0.283,0.282-0.421,0.645-0.421,1.012v18.067c0,0.367,0.138,0.735,0.421,1.012l22.446,22.408
		C55.105,72.811,67.965,62.297,72.441,48.069z"/>
	<g>
		<path fill="#FFFFFF" d="M56.692,32.348c-0.477-0.478-1.106-0.718-1.733-0.718H43.394v4.89h11.565c0.627,0,1.256-0.24,1.733-0.718
			c0.477-0.476,0.716-1.102,0.716-1.726C57.407,33.448,57.169,32.824,56.692,32.348z"/>
		<path fill="#FFFFFF" d="M55.307,37.238c-0.479-0.48-1.106-0.718-1.733-0.718H41.155v4.888h12.419c0.627,0,1.254-0.238,1.733-0.714
			c0.477-0.478,0.716-1.102,0.716-1.728S55.784,37.714,55.307,37.238z"/>
		<path fill="#FFFFFF" d="M53.947,42.124c-0.479-0.474-1.104-0.716-1.733-0.716H38.91v4.89h13.304c0.629,0,1.254-0.24,1.733-0.716
			c0.479-0.476,0.719-1.1,0.719-1.728C54.667,43.228,54.426,42.602,53.947,42.124z"/>
		<path fill="#FFFFFF" d="M52.589,47.016c-0.479-0.48-1.106-0.718-1.733-0.718H36.683v4.89h14.173c0.627,0,1.254-0.238,1.733-0.716
			c0.477-0.478,0.718-1.102,0.718-1.73C53.307,48.117,53.066,47.493,52.589,47.016z"/>
		<path fill="#FFFFFF" d="M45.371,21.364c-0.479-0.482-1.106-0.72-1.733-0.72c-0.623,0-1.254,0.238-1.729,0.72
			c-0.481,0.476-0.719,1.1-0.719,1.724V22.84c0,1.181-0.225,2.386-0.712,3.546c-0.487,1.16-1.164,2.143-2.008,2.976
			c-0.71,0.699-1.566,1.275-2.547,1.678c-0.983,0.403-1.995,0.589-2.995,0.589h-1.193v19.559h11.902V33.748l1.116-2.755
			c0.431-1.069,0.769-2.194,0.998-3.373c0.227-1.171,0.337-2.344,0.337-3.498v-1.033C46.088,22.464,45.852,21.84,45.371,21.364z"/>
		<path fill="#343C44" d="M16.774,50.444c0,0.365,0.14,0.732,0.421,1.012c0.279,0.278,0.646,0.419,1.014,0.419H30.84
			c0.367,0,0.735-0.14,1.014-0.419c0.281-0.28,0.419-0.647,0.419-1.012V32.377c0-0.367-0.138-0.733-0.419-1.014
			c-0.279-0.28-0.646-0.419-1.014-0.419H18.209c-0.368,0-0.735,0.138-1.014,0.419c-0.281,0.28-0.421,0.647-0.421,1.014V50.444z"/>
		<circle fill="#FFFFFF" cx="28.335" cy="48.184" r="1.139"/>
	</g>
</g>
</svg>
