<?xml version="1.0" encoding="utf-8"?>
<!-- Generator: Adobe Illustrator 17.0.0, SVG Export Plug-In . SVG Version: 6.00 Build 0)  -->
<!DOCTYPE svg PUBLIC "-//W3C//DTD SVG 1.1//EN" "http://www.w3.org/Graphics/SVG/1.1/DTD/svg11.dtd">
<svg version="1.1" id="Layer_1" xmlns="http://www.w3.org/2000/svg" xmlns:xlink="http://www.w3.org/1999/xlink" x="0px" y="0px"
	 width="74px" height="74px" viewBox="0 0 74 74" enable-background="new 0 0 74 74" xml:space="preserve">
<g>
	<ellipse fill="#FECE67" cx="36.885" cy="37.012" rx="37.019" ry="36.894"/>
	<path fill="#F5B541" d="M73.904,37.012c0-1.277-0.065-2.54-0.192-3.783L50.433,21.275l-12.452,12.41l18.046,34.909
		C66.741,62.13,73.904,50.406,73.904,37.012z"/>
	<g>
		<polygon fill="#FFFFFF" points="36.115,53.218 19.159,36.318 36.115,19.417 37.51,20.808 21.947,36.318 37.51,51.829 		"/>
		<g>
			<ellipse fill="#4A5158" cx="20.553" cy="36.318" rx="3.082" ry="3.07"/>
			<path fill="#FFFFFF" d="M21.786,36.318c0,0.678-0.551,1.226-1.234,1.226c-0.68,0-1.232-0.548-1.232-1.226
				c0-0.68,0.552-1.23,1.232-1.23C21.234,35.089,21.786,35.638,21.786,36.318z"/>
		</g>
		<path fill="#FFFFFF" d="M46.547,29.812c-1.292,1.289-3.388,1.289-4.678,0.002c-1.293-1.289-1.293-3.379-0.002-4.664
			c1.292-1.289,3.388-1.289,4.68,0C47.836,26.437,47.836,28.525,46.547,29.812z"/>
		<g>
			<g>
				<g>
					<path fill="#4A5158" d="M37.981,21.277c-3.438,3.427-3.438,8.981,0,12.41l12.452-12.41
						C46.994,17.85,41.419,17.85,37.981,21.277z"/>
				</g>
			</g>
			<polygon fill="#343C44" points="37.898,15.113 31.796,21.193 35.727,25.112 41.831,19.03 			"/>
			<polygon fill="#FFFFFF" points="35.719,15.548 32.233,19.023 33.105,19.89 36.592,16.416 			"/>
		</g>
		<g>
			<polygon fill="#FFFFFF" points="45.968,52.055 43.764,49.858 43.103,50.517 45.307,52.714 			"/>
			<path fill="#4A5158" d="M36.884,48.469c-5.783,0-10.474,4.674-10.474,10.441h20.952C47.361,53.143,42.67,48.469,36.884,48.469z"
				/>
		</g>
	</g>
</g>
</svg>
