<?xml version="1.0" encoding="utf-8"?>
<!-- Generator: Adobe Illustrator 17.0.0, SVG Export Plug-In . SVG Version: 6.00 Build 0)  -->
<!DOCTYPE svg PUBLIC "-//W3C//DTD SVG 1.1//EN" "http://www.w3.org/Graphics/SVG/1.1/DTD/svg11.dtd">
<svg version="1.1" id="Layer_1" xmlns="http://www.w3.org/2000/svg" xmlns:xlink="http://www.w3.org/1999/xlink" x="0px" y="0px"
	 width="74px" height="74px" viewBox="0 0 74 74" enable-background="new 0 0 74 74" xml:space="preserve">
<g>
	<circle fill="#4A5158" cx="36.971" cy="37.108" r="36.977"/>
	<path fill="#343C44" d="M60.685,29.145c-0.678-0.591-1.565-0.95-2.534-0.95c-2.142,0-3.868,1.737-3.868,3.876
		c0,0.098,0.004,0.196,0.011,0.292l-0.991-0.991l-1.242,1.34l-1.34-1.34l-0.927,0.927l-6.458-6.456
		c-0.042-0.048-0.09-0.094-0.138-0.138c-1.603-1.568-3.797-2.538-6.228-2.538c-4.918,0-8.904,3.983-8.904,8.903
		c0,0.098,0.014,0.194,0.015,0.294l-0.991-0.992l-1.242,1.338l-1.338-1.338l-1.242,1.34l-1.338-1.34l-0.691,0.689L18.73,29.55
		l-0.419-0.419c-0.678-0.584-1.551-0.937-2.519-0.937c-2.139,0-3.87,1.737-3.87,3.876c0,1.002,0.382,1.918,1.006,2.605
		c0.083,0.09,0.167,0.177,0.263,0.261l8.867,8.867c-0.169,0.854,0.079,1.774,0.743,2.436l25.926,25.927
		c13.144-4.408,22.988-15.989,24.881-30.099L60.685,29.145z"/>
	<g>
		<path fill="#FFFFFF" d="M36.971,23.165c-4.916,0-8.904,3.985-8.904,8.903c0,4.918,3.987,8.903,8.904,8.903
			c4.918,0,8.906-3.985,8.906-8.903C45.877,27.151,41.89,23.165,36.971,23.165z M36.971,37.72c-3.116,0-5.652-2.534-5.652-5.652
			c0-3.116,2.536-5.652,5.652-5.652c3.118,0,5.654,2.536,5.654,5.652C42.625,35.186,40.089,37.72,36.971,37.72z"/>
		<g>
			<path fill="#FFFFFF" d="M37.668,48.401h-1.392v-1.292h1.392V48.401z M37.668,45.82h-1.392v-1.292h1.392V45.82z M37.668,43.238
				h-1.392v-1.29h1.392V43.238z"/>
		</g>
		<circle fill="#FFFFFF" cx="36.972" cy="53.247" r="3.871"/>
		<g>
			<path fill="#FFFFFF" d="M27.793,42.233l-0.985-0.987l0.86-0.86l0.985,0.985L27.793,42.233z M29.515,40.512l-0.987-0.985
				l0.86-0.86l0.987,0.985L29.515,40.512z"/>
		</g>
		<circle fill="#FFFFFF" cx="24.716" cy="44.326" r="2.709"/>
		<g>
			<path fill="#FFFFFF" d="M46.151,42.233l-0.862-0.862l0.987-0.985l0.86,0.86L46.151,42.233z M44.429,40.512l-0.86-0.86
				l0.987-0.985l0.86,0.86L44.429,40.512z"/>
		</g>
		<circle fill="#FFFFFF" cx="49.229" cy="44.325" r="2.709"/>
		<g>
			<path fill="#FFFFFF" d="M53.304,32.766h-1.292v-1.394h1.292V32.766z M50.722,32.766h-1.29v-1.394h1.29V32.766z M48.142,32.766
				h-1.29v-1.394h1.29V32.766z"/>
		</g>
		<g>
			<path fill="#FFFFFF" d="M27.093,32.766h-1.29v-1.394h1.29V32.766z M24.512,32.766h-1.29v-1.394h1.29V32.766z M21.932,32.766
				H20.64v-1.394h1.292V32.766z"/>
		</g>
		<path fill="#FFFFFF" d="M58.151,28.199c2.137,0,3.87,1.733,3.87,3.87c0,2.139-1.734,3.87-3.87,3.87
			c-2.14,0-3.872-1.732-3.872-3.87C54.279,29.932,56.011,28.199,58.151,28.199z"/>
		<circle fill="#FFFFFF" cx="15.793" cy="32.069" r="3.87"/>
	</g>
</g>
</svg>
