<?xml version="1.0" encoding="utf-8"?>
<!-- Generator: Adobe Illustrator 17.0.0, SVG Export Plug-In . SVG Version: 6.00 Build 0)  -->
<!DOCTYPE svg PUBLIC "-//W3C//DTD SVG 1.1//EN" "http://www.w3.org/Graphics/SVG/1.1/DTD/svg11.dtd">
<svg version="1.1" id="Layer_1" xmlns="http://www.w3.org/2000/svg" xmlns:xlink="http://www.w3.org/1999/xlink" x="0px" y="0px"
	 width="74px" height="74px" viewBox="0 0 74 74" enable-background="new 0 0 74 74" xml:space="preserve">
<g>
	<ellipse fill="#FECE67" cx="37.076" cy="37.039" rx="36.977" ry="37.104"/>
	<path fill="#F5B541" d="M74.007,38.815L52.452,17.188c-0.348-0.327-0.797-0.493-1.25-0.493H33.706h-10.76
		c-0.472,0-0.939,0.181-1.298,0.536c-0.357,0.358-0.534,0.832-0.534,1.302s0.177,0.938,0.534,1.298l2.739,2.747v31.132h-1.442
		c-0.472,0-0.939,0.183-1.298,0.541c-0.357,0.358-0.534,0.828-0.534,1.296c0,0.46,0.173,0.928,0.514,1.283l0.038,0.038
		l17.174,17.228C57.856,73.2,73.112,57.893,74.007,38.815z"/>
	<g>
		<g>
			<path fill="#FFFFFF" d="M27.262,27.194c0,5.437,4.392,9.845,9.814,9.845c5.417,0,9.812-4.407,9.812-9.845H27.262z"/>
			<rect x="27.262" y="20.37" fill="#FFFFFF" width="19.625" height="6.824"/>
			<rect x="27.262" y="46.885" fill="#FFFFFF" width="19.625" height="6.824"/>
			<path fill="#FFFFFF" d="M37.075,37.039c-5.417,0-9.814,4.409-9.814,9.847h19.625C46.887,41.448,42.495,37.039,37.075,37.039z"/>
			<path fill="#FFFFFF" d="M39.099,37.249c-0.653-0.137-1.33-0.21-2.023-0.21c0.693,0,1.371-0.069,2.023-0.21
				c-0.098,0.021-0.169,0.108-0.169,0.21C38.93,37.143,39.001,37.227,39.099,37.249z"/>
			<path fill="#FFFFFF" d="M35.052,37.249c0.653-0.137,1.328-0.21,2.023-0.21c-0.695,0-1.371-0.069-2.023-0.21
				c0.096,0.021,0.167,0.108,0.167,0.21C35.219,37.143,35.148,37.227,35.052,37.249z"/>
		</g>
		<g>
			<g>
				<path fill="#E2503B" d="M45.282,27.279c-0.006,0.634-0.083,1.254-0.23,1.847h-10.03v-1.847c0.273-0.268,0.668-0.545,1.198-0.792
					c1.067-0.512,2.684-0.915,4.96-0.915C43.445,25.572,45.282,26.337,45.282,27.279z"/>
				<path fill="#EA6653" d="M41.18,28.899c-1.35-0.098-2.968-0.564-4.104-1.705c-2.265-2.275-5.94-2.275-8.209,0
					c0,4.542,3.682,8.234,8.209,8.234c4.5,0,8.166-3.648,8.207-8.15C45.192,28.228,43.595,29.08,41.18,28.899z"/>
			</g>
			<path fill="#EA6653" d="M37.075,47.34c-3.507,0-6.35,2.853-6.35,6.37h12.701C43.426,50.192,40.583,47.34,37.075,47.34z"/>
			<g>
				<g>
					<circle fill="#EA6653" cx="37.064" cy="36.665" r="0.359"/>
					<circle fill="#EA6653" cx="35.717" cy="41.477" r="0.479"/>
					<circle fill="#EA6653" cx="37.871" cy="40.155" r="0.838"/>
					<circle fill="#EA6653" cx="35.717" cy="44.849" r="0.239"/>
					<circle fill="#EA6653" cx="38.956" cy="43.037" r="0.479"/>
				</g>
			</g>
		</g>
		<path fill="#343C44" d="M53.036,18.532c0-0.47-0.179-0.94-0.538-1.3c-0.357-0.36-0.825-0.537-1.294-0.537H22.947
			c-0.468,0-0.939,0.177-1.296,0.537c-0.359,0.36-0.535,0.83-0.535,1.3l0,0c0,0.47,0.177,0.94,0.535,1.298
			c0.357,0.358,0.827,0.539,1.296,0.539h28.258c0.468,0,0.937-0.181,1.294-0.539C52.857,19.472,53.036,19.002,53.036,18.532
			L53.036,18.532z"/>
		<path fill="#343C44" d="M53.036,55.549c0-0.47-0.179-0.94-0.538-1.3c-0.357-0.36-0.825-0.539-1.294-0.539H22.947
			c-0.468,0-0.939,0.179-1.296,0.539c-0.359,0.36-0.535,0.83-0.535,1.3l0,0c0,0.47,0.177,0.94,0.535,1.298
			c0.357,0.358,0.827,0.539,1.296,0.539h28.258c0.468,0,0.937-0.181,1.294-0.539C52.857,56.489,53.036,56.019,53.036,55.549
			L53.036,55.549z"/>
		<rect x="24.388" y="20.37" fill="#343C44" width="1.432" height="33.34"/>
		<rect x="48.329" y="20.37" fill="#343C44" width="1.432" height="33.34"/>
	</g>
</g>
</svg>
