<?xml version="1.0" encoding="utf-8"?>
<!-- Generator: Adobe Illustrator 17.0.0, SVG Export Plug-In . SVG Version: 6.00 Build 0)  -->
<!DOCTYPE svg PUBLIC "-//W3C//DTD SVG 1.1//EN" "http://www.w3.org/Graphics/SVG/1.1/DTD/svg11.dtd">
<svg version="1.1" id="Layer_1" xmlns="http://www.w3.org/2000/svg" xmlns:xlink="http://www.w3.org/1999/xlink" x="0px" y="0px"
	 width="74px" height="74px" viewBox="0 0 74 74" enable-background="new 0 0 74 74" xml:space="preserve">
<g>
	<ellipse fill="#95D9F1" cx="36.934" cy="37.116" rx="36.977" ry="37.061"/>
	<path fill="#71C9E9" d="M44.609,73.373c14.261-3.019,25.488-14.271,28.5-28.564L46.152,17.791h-1.737v9.158l-7.481,4.331
		l-2.97-1.718l-3.262-3.263c-0.004-0.006-0.004-0.01-0.01-0.015l-0.025-0.025c-0.213-0.373-0.52-0.681-0.895-0.897l-0.031-0.031
		c-0.004-0.004-0.004-0.004-0.008-0.004c-0.06-0.031-0.123-0.058-0.184-0.086c-0.014-0.006-0.027-0.013-0.042-0.019
		c-0.129-0.054-0.265-0.094-0.405-0.125c-0.027-0.008-0.052-0.011-0.079-0.015c-0.142-0.027-0.288-0.046-0.442-0.046
		c-1.33,0-2.409,1.081-2.409,2.417c0,0.123,0.01,0.248,0.035,0.373l-5.974,3.456l-7.915-4.579l-0.869,1.505l7.917,7.935v3.558
		c-0.902,0.344-1.542,1.22-1.542,2.247c0,0.608,0.225,1.156,0.591,1.583l0.244,0.243l9.055,9.077l0.728,0.729l-0.728,2.865
		L44.609,73.373z"/>
	<g>
		<path fill="#FFFFFF" d="M28.583,47.783l-9.217-5.333V31.783l9.217-5.335l9.218,5.335V42.45L28.583,47.783z M21.102,41.445
			l7.481,4.329l7.483-4.329v-8.66l-7.483-4.329l-7.481,4.329V41.445z"/>
		<polygon fill="#FFFFFF" points="29.017,43.516 28.149,42.009 33.029,39.184 33.897,40.693 		"/>
		<rect x="27.715" y="46.779" fill="#FFFFFF" width="1.735" height="9.664"/>
		<rect x="44.417" y="17.789" fill="#FFFFFF" width="1.735" height="9.662"/>
		<polygon fill="#FFFFFF" points="19.8,33.037 11.451,28.206 12.317,26.7 20.668,31.531 		"/>
		<polygon fill="#FFFFFF" points="61.548,47.531 53.199,42.702 54.067,41.193 62.416,46.026 		"/>
		<path fill="#FFFFFF" d="M45.284,47.783l-9.218-5.333V31.783l9.218-5.335l9.216,5.335V42.45L45.284,47.783z M37.801,41.445
			l7.483,4.329l7.481-4.329v-8.66l-7.481-4.329l-7.483,4.329V41.445z"/>
		<polygon fill="#FFFFFF" points="40.838,35.046 39.97,33.539 44.85,30.715 45.718,32.223 		"/>
		<ellipse fill="#EA6653" cx="28.584" cy="27.452" rx="2.41" ry="2.416"/>
		<ellipse fill="#343C44" cx="20.233" cy="41.947" rx="2.41" ry="2.416"/>
		<ellipse fill="#EA6653" cx="45.283" cy="46.779" rx="2.41" ry="2.417"/>
		<circle fill="#343C44" cx="53.634" cy="32.285" r="2.41"/>
	</g>
</g>
</svg>
