<?xml version="1.0" encoding="utf-8"?>
<!-- Generator: Adobe Illustrator 17.0.0, SVG Export Plug-In . SVG Version: 6.00 Build 0)  -->
<!DOCTYPE svg PUBLIC "-//W3C//DTD SVG 1.1//EN" "http://www.w3.org/Graphics/SVG/1.1/DTD/svg11.dtd">
<svg version="1.1" id="Layer_1" xmlns="http://www.w3.org/2000/svg" xmlns:xlink="http://www.w3.org/1999/xlink" x="0px" y="0px"
	 width="74px" height="74px" viewBox="0 0 74 74" enable-background="new 0 0 74 74" xml:space="preserve">
<g>
	<circle fill="#4A5158" cx="36.926" cy="36.957" r="36.978"/>
	<path fill="#343C44" d="M73.843,39.032L52.214,17.405c-0.501-0.484-1.156-0.726-1.808-0.726H36.468H20.823
		c-1.449,0-2.624,1.173-2.624,2.624c0,0.152,0.017,0.301,0.042,0.447c0.002,0.019,0.004,0.039,0.008,0.056
		c0.025,0.134,0.063,0.263,0.109,0.39c0.012,0.027,0.019,0.056,0.031,0.085c0.048,0.119,0.104,0.232,0.169,0.342
		c0.015,0.027,0.031,0.052,0.046,0.077c0.073,0.115,0.154,0.223,0.242,0.326c0.004,0.002,0.004,0.006,0.008,0.01l0.017,0.017
		c0.063,0.071,0.131,0.138,0.2,0.2l4.377,4.377V54.61c0,0.601,0.201,1.16,0.543,1.599l0.468,0.466l16.974,16.974
		C59.053,71.507,72.848,56.981,73.843,39.032z"/>
	<g>
		<g>
			<path fill="#FFFFFF" d="M20.823,16.679c1.451,0,2.624,1.173,2.624,2.624V54.61c0,1.45,1.175,2.624,2.624,2.624H53.03V19.303
				c0-0.672-0.255-1.344-0.77-1.856c-0.511-0.513-1.183-0.768-1.854-0.768H20.823z"/>
			<path fill="#CCCBCA" d="M55.654,54.608c0-1.449-1.175-2.622-2.624-2.622H26.071c1.451,0,2.624,1.173,2.624,2.622
				c0,1.451-1.173,2.626-2.624,2.626H53.03C54.479,57.234,55.654,56.059,55.654,54.608z"/>
			<path fill="#CCCBCA" d="M20.823,16.679c-1.449,0-2.624,1.173-2.624,2.624c0,1.449,1.175,2.624,2.624,2.624h2.624v-2.624
				C23.447,17.852,22.274,16.679,20.823,16.679z"/>
		</g>
		<g>
			<rect x="41.613" y="47.778" fill="#D9D8D7" width="7.957" height="0.954"/>
			<g>
				<rect x="26.908" y="27.326" fill="#D9D8D7" width="22.662" height="0.956"/>
				<rect x="26.908" y="24.941" fill="#D9D8D7" width="22.662" height="0.954"/>
				<rect x="26.908" y="22.555" fill="#343C44" width="11.33" height="0.954"/>
			</g>
			<g>
				<g>
					<path fill="#E6E5E5" d="M49.593,45.703h-22.71V30.355h22.71V45.703z M27.503,45.083h21.47V30.977h-21.47V45.083z"/>
					<rect x="27.194" y="41.401" fill="#E6E5E5" width="22.09" height="0.62"/>
					<rect x="27.194" y="37.719" fill="#E6E5E5" width="22.09" height="0.62"/>
					<rect x="27.194" y="34.037" fill="#E6E5E5" width="22.09" height="0.62"/>
					<rect x="45.289" y="30.666" fill="#E6E5E5" width="0.62" height="14.726"/>
					<rect x="41.613" y="30.666" fill="#E6E5E5" width="0.62" height="14.726"/>
					<rect x="37.927" y="30.666" fill="#E6E5E5" width="0.622" height="14.726"/>
					<rect x="34.245" y="30.666" fill="#E6E5E5" width="0.62" height="14.726"/>
					<rect x="30.567" y="30.666" fill="#E6E5E5" width="0.62" height="14.726"/>
				</g>
				<g>
					<g>
						<polygon fill="#EA6653" points="27.48,45.678 26.908,45.106 30.709,41.305 34.388,41.305 41.755,33.941 45.433,33.941 
							48.996,30.38 49.57,30.954 45.767,34.753 42.089,34.753 34.723,42.117 31.045,42.117 						"/>
						<circle fill="#EA6653" cx="27.193" cy="45.392" r="0.884"/>
						<circle fill="#EA6653" cx="30.877" cy="41.712" r="0.884"/>
						<circle fill="#EA6653" cx="34.555" cy="41.712" r="0.884"/>
						<circle fill="#EA6653" cx="41.922" cy="34.348" r="0.883"/>
						<circle fill="#EA6653" cx="45.599" cy="34.348" r="0.884"/>
						<circle fill="#EA6653" cx="49.283" cy="30.666" r="0.884"/>
					</g>
				</g>
			</g>
		</g>
	</g>
</g>
</svg>
