<?xml version="1.0" encoding="utf-8"?>
<!-- Generator: Adobe Illustrator 17.0.0, SVG Export Plug-In . SVG Version: 6.00 Build 0)  -->
<!DOCTYPE svg PUBLIC "-//W3C//DTD SVG 1.1//EN" "http://www.w3.org/Graphics/SVG/1.1/DTD/svg11.dtd">
<svg version="1.1" id="Layer_1" xmlns="http://www.w3.org/2000/svg" xmlns:xlink="http://www.w3.org/1999/xlink" x="0px" y="0px"
	 width="74px" height="74px" viewBox="0 0 74 74" enable-background="new 0 0 74 74" xml:space="preserve">
<g>
	<ellipse fill="#FECE67" cx="37.114" cy="36.993" rx="37.056" ry="37.005"/>
	<path fill="#F5B541" d="M72.085,49.235l-34.97-34.923L20.539,51.546l22.073,22.045C56.343,71.551,67.608,61.989,72.085,49.235z"/>
	<g>
		<polygon fill="#FFFFFF" points="20.539,51.546 37.115,14.312 53.69,51.546 		"/>
		<polygon fill="#CCCBCA" points="33.329,51.546 37.115,14.312 37.115,59.672 		"/>
		<polygon fill="#E2503B" points="34.516,39.765 33.329,51.546 37.115,59.672 37.115,45.36 		"/>
		<polygon fill="#F4836B" points="20.539,51.546 34.516,39.765 33.329,51.546 		"/>
		<polygon fill="#F4836B" points="53.69,51.546 39.72,39.765 40.899,51.546 		"/>
		<polygon fill="#E6E5E5" points="40.899,51.546 37.115,14.312 37.115,59.672 		"/>
		<polygon fill="#EA6653" points="39.72,39.765 40.899,51.546 37.115,59.672 37.115,45.36 		"/>
	</g>
</g>
</svg>
