<?xml version="1.0" encoding="utf-8"?>
<!-- Generator: Adobe Illustrator 17.0.0, SVG Export Plug-In . SVG Version: 6.00 Build 0)  -->
<!DOCTYPE svg PUBLIC "-//W3C//DTD SVG 1.1//EN" "http://www.w3.org/Graphics/SVG/1.1/DTD/svg11.dtd">
<svg version="1.1" id="Layer_1" xmlns="http://www.w3.org/2000/svg" xmlns:xlink="http://www.w3.org/1999/xlink" x="0px" y="0px"
	 width="74px" height="74px" viewBox="0 0 74 74" enable-background="new 0 0 74 74" xml:space="preserve">
<g>
	<ellipse fill="#F4836B" cx="37.023" cy="36.983" rx="37.102" ry="36.937"/>
	<path fill="#EA6653" d="M52.717,22.107l-0.131,0.117l-2.338-2.33l-0.982-0.709l-0.512,0.7l-2.365-2.353l-1.106-0.493l-0.69,1.538
		l-2.471-2.558l-1.184-0.253l-0.543,2.525l-2.762-2.872h-1.214v3.018l3.824,3.806c-0.258-0.056-0.518-0.111-0.78-0.153l-0.002-0.008
		l-0.017,0.004c-0.071-0.012-0.142-0.023-0.216-0.033l-6.114-6.289l-1.185,0.251l0.63,2.953l3.136,2.986
		c-0.64,0.056-1.267,0.15-1.882,0.282l-5.045-5.196L27.66,17.53l1.233,2.757l2.645,2.633c-0.713,0.276-1.398,0.6-2.053,0.976
		l-4.702-4.713l-0.98,0.709l1.782,2.443l2.506,2.46c-0.736,0.535-1.42,1.135-2.046,1.791l-2.473-2.445l0.015-0.017l-2.254-2.019
		l-0.813,0.897l4.63,4.579l-0.015,0.015l0.015,0.012c-0.532,0.667-1.009,1.377-1.423,2.128l-2.533-2.55l-2.627-1.507l-0.605,1.043
		l4.939,4.782c-0.254,0.65-0.466,1.321-0.628,2.011l-2.78-2.838l-2.883-0.934l-0.376,1.149l5.646,5.509
		c-0.008,0.194-0.013,0.387-0.013,0.581c0,0.301,0.01,0.598,0.029,0.894l-3.336-3.432l-3.015-0.317l-0.127,1.202l7.62,7.478
		c0.009,0.025,0.021,0.048,0.033,0.071l-4.638-4.558l-3.014,0.316l0.127,1.2l2.622,2.61l-1.932,0.625l0.376,1.148l2.519,2.351
		l-1.169,0.671l0.607,1.045l2.338,2.33l-0.385,0.345l22.494,22.469c15.687-2.535,28.07-14.861,30.623-30.477L52.717,22.107z
		 M48.684,19.982l-0.046-0.021l0.046,0.019V19.982z M52.544,22.262l-0.027-0.019l0.029,0.017L52.544,22.262z"/>
	<g>
		<g>
			<path fill="#FFFFFF" d="M52.184,36.983c0,8.335-6.788,15.093-15.157,15.093c-8.375,0-15.161-6.757-15.161-15.093
				c0-8.333,6.786-15.091,15.161-15.091C45.396,21.892,52.184,28.649,52.184,36.983z"/>
			<ellipse fill="#95D9F1" cx="37.026" cy="36.983" rx="9.836" ry="9.791"/>
			<ellipse fill="#343C44" cx="37.024" cy="36.983" rx="4.649" ry="4.629"/>
			<ellipse fill="#FFFFFF" cx="33.738" cy="33.712" rx="2.405" ry="2.393"/>
			<circle fill="#FFFFFF" cx="33.738" cy="37.94" r="0.854"/>
		</g>
		<g>
			<rect x="36.418" y="15.419" fill="#FFFFFF" width="1.214" height="3.018"/>
			
				<rect x="31.326" y="16.76" transform="matrix(0.2086 0.978 -0.978 0.2086 42.9703 -18.3695)" fill="#FFFFFF" width="3.019" height="1.211"/>
			<polygon fill="#FFFFFF" points="28.892,20.287 27.66,17.53 28.767,17.039 30,19.794 			"/>
			<polygon fill="#FFFFFF" points="25.583,22.335 23.802,19.892 24.782,19.183 26.564,21.624 			"/>
			<polygon fill="#FFFFFF" points="22.773,25.021 20.519,23.002 21.332,22.105 23.586,24.124 			"/>
			<polygon fill="#FFFFFF" points="20.587,28.233 17.961,26.722 18.566,25.679 21.193,27.186 			"/>
			<polygon fill="#FFFFFF" points="19.119,31.827 16.233,30.893 16.609,29.744 19.493,30.678 			"/>
			
				<rect x="15.472" y="34.282" transform="matrix(0.9946 0.1038 -0.1038 0.9946 3.7125 -1.5747)" fill="#FFFFFF" width="3.031" height="1.209"/>
			
				<rect x="16.384" y="37.564" transform="matrix(0.1052 0.9944 -0.9944 0.1052 54.0626 18.0738)" fill="#FFFFFF" width="1.207" height="3.031"/>
			<polygon fill="#FFFFFF" points="16.609,44.221 16.233,43.073 19.117,42.141 19.493,43.29 			"/>
			<polygon fill="#FFFFFF" points="18.566,48.289 17.959,47.244 20.587,45.735 21.193,46.78 			"/>
			<polygon fill="#FFFFFF" points="21.33,51.861 20.519,50.963 22.773,48.944 23.584,49.842 			"/>
			<polygon fill="#FFFFFF" points="24.78,54.785 23.8,54.074 25.583,51.633 26.564,52.342 			"/>
			<polygon fill="#FFFFFF" points="28.767,56.931 27.658,56.438 28.892,53.681 30,54.171 			"/>
			
				<rect x="32.229" y="55.091" transform="matrix(0.978 0.2086 -0.2086 0.978 12.5296 -5.6044)" fill="#FFFFFF" width="1.213" height="3.02"/>
			<rect x="36.417" y="55.531" fill="#FFFFFF" width="1.213" height="3.018"/>
			
				<rect x="39.702" y="55.994" transform="matrix(0.2087 0.978 -0.978 0.2087 87.964 4.4836)" fill="#FFFFFF" width="3.018" height="1.213"/>
			<polygon fill="#FFFFFF" points="45.278,56.931 44.048,54.173 45.155,53.683 46.388,56.44 			"/>
			<polygon fill="#FFFFFF" points="49.266,54.785 47.484,52.344 48.464,51.635 50.246,54.076 			"/>
			<polygon fill="#FFFFFF" points="52.715,51.863 50.464,49.844 51.275,48.946 53.526,50.965 			"/>
			<polygon fill="#FFFFFF" points="55.48,48.291 52.854,46.78 53.461,45.735 56.086,47.244 			"/>
			
				<rect x="54.668" y="42.578" transform="matrix(0.9513 0.3083 -0.3083 0.9513 16.0498 -15.2177)" fill="#FFFFFF" width="3.029" height="1.208"/>
			
				<rect x="55.543" y="38.478" transform="matrix(0.9945 0.1043 -0.1043 0.9945 4.3872 -5.7379)" fill="#FFFFFF" width="3.033" height="1.207"/>
			
				<rect x="56.455" y="33.373" transform="matrix(0.1054 0.9944 -0.9944 0.1054 85.7409 -25.529)" fill="#FFFFFF" width="1.207" height="3.033"/>
			<polygon fill="#FFFFFF" points="54.929,31.827 54.555,30.678 57.439,29.748 57.812,30.895 			"/>
			<polygon fill="#FFFFFF" points="53.461,28.233 52.854,27.188 55.48,25.681 56.086,26.726 			"/>
			<polygon fill="#FFFFFF" points="51.273,25.023 50.464,24.126 52.717,22.107 53.528,23.006 			"/>
			<polygon fill="#FFFFFF" points="48.464,22.335 47.482,21.626 49.266,19.185 50.248,19.894 			"/>
			<polygon fill="#FFFFFF" points="45.153,20.287 44.046,19.796 45.282,17.039 46.388,17.532 			"/>
			
				<rect x="40.607" y="15.858" transform="matrix(0.9783 0.2071 -0.2071 0.9783 4.4901 -8.1583)" fill="#FFFFFF" width="1.213" height="3.02"/>
		</g>
	</g>
</g>
</svg>
