<?xml version="1.0" encoding="utf-8"?>
<!-- Generator: Adobe Illustrator 17.0.0, SVG Export Plug-In . SVG Version: 6.00 Build 0)  -->
<!DOCTYPE svg PUBLIC "-//W3C//DTD SVG 1.1//EN" "http://www.w3.org/Graphics/SVG/1.1/DTD/svg11.dtd">
<svg version="1.1" id="Layer_1" xmlns="http://www.w3.org/2000/svg" xmlns:xlink="http://www.w3.org/1999/xlink" x="0px" y="0px"
	 width="74px" height="74px" viewBox="0 0 74 74" enable-background="new 0 0 74 74" xml:space="preserve">
<g>
	<ellipse fill="#FECE67" cx="37.059" cy="37.13" rx="37.102" ry="36.894"/>
	<path fill="#F5B541" d="M73.872,41.673L49.109,17.051l-1.364-1.358c-2.845-2.509-6.589-4.032-10.687-4.032
		c-8.895,0-16.105,7.169-16.105,16.014c0,4.685,2.03,8.903,5.253,11.829c0.152,0.13,0.306,0.262,0.462,0.396
		c2.514,2.285,4.095,5.564,4.095,9.215v1.395h-0.876v8.485c0,0.257,0.096,0.513,0.291,0.709c0,0,0.006,0.01,0.01,0.015
		c0.006,0.004,0.006,0.004,0.01,0.01l13.734,13.653C59.668,70.449,71.898,57.643,73.872,41.673z"/>
	<g>
		<path fill="#FFFFFF" d="M37.059,11.661c-8.895,0.002-16.103,7.169-16.103,16.014c0,4.685,2.026,8.901,5.251,11.829
			c0.152,0.126,0.304,0.26,0.462,0.398c2.516,2.283,4.095,5.564,4.095,9.215v1.393h6.295h6.295v-1.393
			c0-3.651,1.574-6.932,4.099-9.215c0.154-0.138,0.306-0.272,0.46-0.398c3.219-2.929,5.249-7.144,5.249-11.829
			C53.162,18.83,45.956,11.663,37.059,11.661z"/>
		<g>
			<path fill="#F4836B" d="M33.871,16.394c1.352,0,2.444,1.086,2.444,2.433v17.683c0,1.115-0.747,2.048-1.772,2.337h-0.004
				c-0.075,0.023-0.15,0.035-0.235,0.056c-0.083,0.015-0.177,0.027-0.277,0.033c-0.052,0.008-0.104,0.008-0.156,0.008
				c-1.3,0-2.313-0.958-2.433-2.187v-0.002c-0.341,0.18-0.742,0.289-1.16,0.289c-1.348,0-2.444-1.084-2.444-2.431
				c0-0.289,0.056-0.578,0.148-0.829c-0.048,0-0.098,0-0.148,0c-1.35,0-2.444-1.084-2.444-2.431c0-0.594,0.214-1.134,0.568-1.559
				c-0.753-0.414-1.262-1.209-1.262-2.124c0-1.019,0.628-1.892,1.526-2.252c-0.416-0.437-0.672-1.023-0.672-1.67
				c0-1.343,1.098-2.429,2.448-2.429h0.04c-0.062-0.213-0.093-0.448-0.093-0.682c0-1.341,1.094-2.431,2.444-2.431
				c0.366,0,0.755,0.088,1.067,0.232C31.646,17.277,32.653,16.394,33.871,16.394z"/>
			<path fill="#F4836B" d="M40.248,16.394c-1.35,0-2.452,1.086-2.452,2.433v17.683c0,1.115,0.751,2.048,1.776,2.337
				c0,0,0,0.006,0.006,0c0.073,0.023,0.148,0.035,0.235,0.056c0.085,0.015,0.177,0.027,0.281,0.033
				c0.05,0.008,0.104,0.008,0.154,0.008c1.3,0,2.311-0.958,2.427-2.187v-0.002c0.349,0.18,0.749,0.289,1.161,0.289
				c1.348,0,2.444-1.084,2.444-2.431c0-0.289-0.054-0.578-0.148-0.829c0.05,0,0.1,0,0.148,0c1.35,0,2.446-1.084,2.446-2.431
				c0-0.594-0.216-1.134-0.57-1.559c0.755-0.414,1.265-1.209,1.265-2.124c0-1.019-0.628-1.892-1.524-2.252
				c0.412-0.437,0.668-1.023,0.668-1.67c0-1.343-1.098-2.429-2.446-2.429h-0.044c0.064-0.213,0.1-0.448,0.1-0.682
				c0-1.341-1.102-2.431-2.452-2.431c-0.366,0-0.751,0.088-1.067,0.232C42.473,17.277,41.464,16.394,40.248,16.394z"/>
			<g>
				<g>
					<path fill="#E2503B" d="M33.871,39.388c-1.597,0-2.891-1.291-2.891-2.875c0-1.588,1.294-2.873,2.891-2.873
						c0.245,0,0.445,0.197,0.445,0.441c0,0.245-0.2,0.442-0.445,0.442c-1.104,0-1.999,0.891-1.999,1.99
						c0,1.099,0.896,1.992,1.999,1.992c1.106,0,2.001-0.893,2.001-1.992V18.826c0-1.1-0.896-1.992-2.001-1.992
						c-1.104,0-1.999,0.892-1.999,1.992c0,1.098,0.896,1.988,1.999,1.988c0.245,0,0.445,0.199,0.445,0.444
						c0,0.243-0.2,0.442-0.445,0.442c-1.597,0-2.891-1.289-2.891-2.875s1.294-2.877,2.891-2.877c1.593,0,2.891,1.291,2.891,2.877
						v17.687C36.762,38.097,35.464,39.388,33.871,39.388z"/>
					<path fill="#E2503B" d="M30.282,37.486c-1.597,0-2.891-1.291-2.891-2.873c0-0.337,0.056-0.67,0.171-0.984
						c0.067-0.176,0.235-0.295,0.422-0.295c0.05,0,0.102,0.013,0.15,0.027c0.112,0.04,0.2,0.123,0.25,0.23
						c0.052,0.105,0.054,0.23,0.013,0.341c-0.079,0.218-0.12,0.446-0.12,0.682c0,1.096,0.898,1.992,2.003,1.992
						c0.329,0,0.657-0.086,0.942-0.238c0.065-0.036,0.139-0.054,0.214-0.054c0.162,0,0.312,0.088,0.391,0.228
						c0.117,0.218,0.035,0.485-0.179,0.6C31.23,37.367,30.758,37.486,30.282,37.486z"/>
					<path fill="#E2503B" d="M27.836,34.224c-1.593,0-2.889-1.289-2.889-2.873c0-0.668,0.237-1.325,0.67-1.839
						c0.083-0.101,0.206-0.159,0.341-0.159c0.102,0,0.202,0.038,0.285,0.103c0.091,0.073,0.145,0.184,0.154,0.299
						c0.012,0.119-0.025,0.234-0.1,0.32c-0.301,0.36-0.462,0.81-0.462,1.276c0,1.1,0.898,1.992,2.001,1.992l0,0
						c0.037,0,0.069,0,0.102-0.008c1.071-0.059,1.899-0.933,1.899-1.984c0-0.243,0.2-0.442,0.445-0.442
						c0.243,0,0.441,0.199,0.441,0.442c0,1.519-1.19,2.779-2.714,2.866C27.955,34.22,27.894,34.224,27.836,34.224z"/>
					<path fill="#E2503B" d="M33.913,31.791c-0.245,0-0.443-0.199-0.443-0.441c0-0.753-0.618-1.366-1.371-1.366
						c-0.759,0-1.375,0.613-1.375,1.366c0,0.241-0.198,0.441-0.441,0.441c-0.245,0-0.445-0.199-0.445-0.441
						c0-1.239,1.011-2.249,2.261-2.249c1.244,0,2.257,1.01,2.257,2.249C34.356,31.592,34.16,31.791,33.913,31.791z"/>
					<path fill="#E2503B" d="M27.143,30.541c-1.595,0-2.889-1.287-2.889-2.873c0-1.584,1.294-2.875,2.889-2.875
						c1.593,0,2.891,1.291,2.891,2.875c0,0.243-0.2,0.442-0.447,0.442c-0.245,0-0.443-0.199-0.443-0.442
						c0-1.1-0.898-1.992-2.001-1.992c-1.106,0-2.001,0.892-2.001,1.992c0,1.099,0.896,1.988,2.001,1.988
						c0.243,0,0.443,0.199,0.443,0.444C27.586,30.343,27.385,30.541,27.143,30.541z"/>
					<path fill="#E2503B" d="M26.222,25.858c-0.125,0-0.237-0.048-0.326-0.14c-0.508-0.533-0.788-1.234-0.788-1.973
						c0-1.582,1.296-2.873,2.889-2.873c0.023,0,0.05,0,0.071,0c1.377,0.025,2.544,0.939,2.718,2.134
						c0.1,0.709,0.565,1.423,1.375,1.423c0.247,0,0.445,0.199,0.445,0.446c0,0.241-0.198,0.439-0.445,0.439
						c-1.163,0-2.069-0.877-2.254-2.186c-0.123-0.841-1.048-1.36-1.872-1.371h-0.04c-1.1,0-1.999,0.893-1.999,1.988
						c0,0.51,0.195,0.996,0.549,1.368c0.164,0.176,0.16,0.454-0.017,0.622C26.439,25.814,26.334,25.858,26.222,25.858z"/>
					<path fill="#E2503B" d="M28.042,21.757c-0.196,0-0.372-0.13-0.426-0.322c-0.079-0.255-0.118-0.525-0.118-0.799
						c0-1.586,1.298-2.873,2.889-2.873c0.441,0,0.865,0.096,1.262,0.285c0.218,0.105,0.31,0.372,0.204,0.588
						c-0.073,0.157-0.227,0.251-0.397,0.251c-0.069,0-0.135-0.017-0.196-0.044c-0.274-0.134-0.566-0.197-0.873-0.197
						c-0.534,0-1.036,0.207-1.414,0.582c-0.376,0.375-0.586,0.873-0.586,1.408c0,0.186,0.025,0.374,0.081,0.555
						c0.031,0.117,0.017,0.236-0.04,0.339c-0.058,0.1-0.154,0.176-0.266,0.209C28.137,21.749,28.092,21.757,28.042,21.757z"/>
				</g>
			</g>
			<g>
				<g>
					<path fill="#E2503B" d="M40.248,39.388c-1.599,0-2.893-1.291-2.893-2.875V18.826c0-1.586,1.294-2.877,2.893-2.877
						c1.595,0,2.889,1.291,2.889,2.877s-1.294,2.875-2.889,2.875c-0.25,0-0.451-0.199-0.451-0.442c0-0.245,0.2-0.444,0.451-0.444
						c1.1,0,2.001-0.891,2.001-1.988c0-1.1-0.902-1.992-2.001-1.992c-1.102,0-2.001,0.892-2.001,1.992v17.687
						c0,1.099,0.899,1.992,2.001,1.992c1.1,0,2.001-0.893,2.001-1.992c0-1.1-0.902-1.99-2.001-1.99c-0.25,0-0.451-0.197-0.451-0.442
						c0-0.243,0.2-0.441,0.451-0.441c1.595,0,2.889,1.285,2.889,2.873C43.138,38.097,41.843,39.388,40.248,39.388z"/>
					<path fill="#E2503B" d="M43.833,37.486c-0.476,0-0.948-0.119-1.364-0.343c-0.22-0.117-0.297-0.383-0.179-0.599
						c0.077-0.14,0.227-0.23,0.385-0.23c0.073,0,0.148,0.017,0.218,0.054c0.281,0.151,0.607,0.238,0.94,0.238
						c1.108,0,2.005-0.896,2.005-1.992c0-0.236-0.038-0.463-0.118-0.684c-0.044-0.109-0.04-0.232,0.01-0.339
						c0.05-0.107,0.144-0.19,0.25-0.23c0.05-0.013,0.1-0.027,0.152-0.027c0.189,0,0.354,0.119,0.418,0.293
						c0.12,0.316,0.175,0.645,0.175,0.986C46.726,36.195,45.426,37.486,43.833,37.486z"/>
					<path fill="#E2503B" d="M46.279,34.224c-0.052,0-0.117-0.004-0.171-0.006c-1.524-0.088-2.712-1.348-2.712-2.867
						c0-0.243,0.198-0.442,0.437-0.442c0.245,0,0.443,0.199,0.443,0.442c0,1.052,0.83,1.925,1.892,1.983
						c0.044,0.009,0.083,0.009,0.112,0.009c1.104,0,2.001-0.892,2.001-1.992c0-0.465-0.16-0.914-0.46-1.276
						c-0.075-0.086-0.116-0.201-0.102-0.322c0.01-0.113,0.064-0.224,0.158-0.301c0.075-0.061,0.175-0.1,0.283-0.1
						c0.135,0,0.258,0.057,0.341,0.159c0.43,0.515,0.674,1.17,0.674,1.839C49.174,32.935,47.876,34.224,46.279,34.224z"/>
					<path fill="#E2503B" d="M43.833,31.791c-0.239,0-0.437-0.199-0.437-0.441c0-0.753-0.622-1.366-1.373-1.366
						c-0.759,0-1.373,0.613-1.373,1.366c0,0.241-0.2,0.441-0.449,0.441c-0.243,0-0.441-0.199-0.441-0.441
						c0-1.239,1.013-2.249,2.263-2.249c1.246,0,2.254,1.01,2.254,2.249C44.276,31.592,44.078,31.791,43.833,31.791z"/>
					<path fill="#E2503B" d="M46.976,30.541c-0.248,0-0.449-0.197-0.449-0.441c0-0.245,0.2-0.444,0.449-0.444
						c1.1,0,2.001-0.889,2.001-1.988c0-1.1-0.901-1.992-2.001-1.992c-1.102,0-2.001,0.892-2.001,1.992
						c0,0.243-0.2,0.442-0.449,0.442c-0.245,0-0.445-0.199-0.445-0.442c0-1.584,1.296-2.875,2.895-2.875
						c1.595,0,2.887,1.291,2.887,2.875C49.864,29.254,48.571,30.541,46.976,30.541z"/>
					<path fill="#E2503B" d="M47.899,25.858c-0.118,0-0.222-0.044-0.304-0.121c-0.183-0.17-0.193-0.448-0.019-0.624
						c0.35-0.372,0.547-0.858,0.547-1.368c0-1.096-0.898-1.988-2.001-1.988h-0.038c-0.828,0.012-1.755,0.531-1.874,1.371
						c-0.183,1.308-1.088,2.186-2.257,2.186c-0.243,0-0.439-0.197-0.439-0.439c0-0.247,0.196-0.446,0.439-0.446
						c0.815,0,1.275-0.714,1.377-1.423c0.171-1.195,1.346-2.109,2.724-2.134c0.021,0,0.048,0,0.069,0
						c1.589,0,2.885,1.291,2.885,2.873c0,0.739-0.279,1.44-0.786,1.973C48.13,25.81,48.022,25.858,47.899,25.858z"/>
					<path fill="#E2503B" d="M46.077,21.757c-0.05,0-0.096-0.008-0.133-0.023c-0.104-0.027-0.196-0.103-0.258-0.203
						c-0.06-0.103-0.069-0.222-0.036-0.339c0.05-0.182,0.077-0.37,0.077-0.555c0-1.097-0.898-1.99-2.001-1.99
						c-0.3,0-0.599,0.063-0.871,0.199c-0.056,0.025-0.129,0.042-0.194,0.042c-0.168,0-0.324-0.094-0.397-0.251
						c-0.108-0.216-0.013-0.483,0.206-0.586c0.395-0.192,0.817-0.287,1.256-0.287c1.599,0,2.893,1.287,2.893,2.873
						c0,0.274-0.042,0.542-0.118,0.803C46.451,21.626,46.275,21.757,46.077,21.757z"/>
				</g>
			</g>
		</g>
		<g>
			<polygon fill="#FFFFFF" points="37.061,62.598 32.707,60.014 41.414,60.014 			"/>
			<path fill="#343C44" d="M44.228,58.997c0,0.26-0.098,0.519-0.299,0.718c-0.2,0.199-0.462,0.299-0.722,0.299H30.912
				c-0.262,0-0.524-0.1-0.724-0.299c-0.2-0.199-0.3-0.458-0.3-0.718V50.51h14.34V58.997z"/>
			<rect x="29.887" y="51.566" fill="#4A5158" width="14.34" height="1.051"/>
			<rect x="29.887" y="53.682" fill="#4A5158" width="14.34" height="1.053"/>
			<rect x="29.887" y="55.789" fill="#4A5158" width="14.34" height="1.055"/>
			<rect x="29.887" y="57.9" fill="#4A5158" width="14.34" height="1.061"/>
		</g>
	</g>
</g>
</svg>
