<?xml version="1.0" encoding="utf-8"?>
<!-- Generator: Adobe Illustrator 17.0.0, SVG Export Plug-In . SVG Version: 6.00 Build 0)  -->
<!DOCTYPE svg PUBLIC "-//W3C//DTD SVG 1.1//EN" "http://www.w3.org/Graphics/SVG/1.1/DTD/svg11.dtd">
<svg version="1.1" id="Layer_1" xmlns="http://www.w3.org/2000/svg" xmlns:xlink="http://www.w3.org/1999/xlink" x="0px" y="0px"
	 width="74px" height="74px" viewBox="0 0 74 74" enable-background="new 0 0 74 74" xml:space="preserve">
<g>
	<ellipse fill="#F4836B" cx="37.051" cy="37.039" rx="37.103" ry="37.02"/>
	<path fill="#EA6653" d="M36.55,10.4h-0.023c-0.222,0-0.441,0.086-0.609,0.254c-0.121,0.121-0.198,0.267-0.233,0.423l-0.002-0.002
		c-0.002,0.006,0,0.012-0.002,0.019c-0.012,0.054-0.017,0.111-0.017,0.167v0.721h-0.196c-1.215,0-2.431,0.463-3.361,1.389
		c-0.923,0.923-1.389,2.135-1.389,3.35v5.531h-0.335c-0.545,0-0.99,0.438-0.99,0.988c0,0.086,0.015,0.169,0.035,0.248
		c0.008,0.029,0.015,0.054,0.027,0.081c0.016,0.044,0.035,0.086,0.058,0.129c0.012,0.025,0.019,0.054,0.035,0.077l0.019,0.021
		c0.067,0.098,0.152,0.183,0.25,0.248l0.012,0.013c0.004,0,0.01,0.006,0.01,0.006l1.537,1.538l0,0
		c-0.093,3.167-1.495,6.008-3.681,7.995c-0.139,0.125-0.278,0.244-0.416,0.363c-2.907,2.646-4.731,6.454-4.731,10.691
		c0,3.949,1.583,7.528,4.155,10.136c0.064,0.067,0.125,0.134,0.196,0.196l18.229,18.188c16.606-3.68,29.027-18.454,29.027-36.131
		c0-0.171-0.011-0.342-0.013-0.513L37.566,0.034C37.395,0.032,37.224,0.02,37.05,0.02c-0.168,0-0.333,0.012-0.501,0.014V10.4z"/>
	<g>
		<path fill="#FECE67" d="M37.05,59.123c8.013-0.002,14.508-6.479,14.508-14.475c0-4.236-1.826-8.043-4.731-10.691
			c-0.137-0.119-0.277-0.236-0.416-0.359c-2.269-2.06-3.691-5.03-3.691-8.331v-1.04H37.05h-5.667v1.04
			c0,3.302-1.425,6.271-3.693,8.331c-0.139,0.123-0.279,0.24-0.416,0.359c-2.905,2.648-4.731,6.455-4.731,10.691
			C22.544,52.644,29.041,59.121,37.05,59.123z"/>
		<ellipse fill="#F5B541" cx="37.047" cy="44.647" rx="11.498" ry="11.471"/>
		<g>
			<polygon fill="#FFFFFF" points="40.259,44.394 35.274,53.021 37.106,44.394 			"/>
			<polygon fill="#FFFFFF" points="41.586,38.146 36.602,46.773 33.448,46.773 35.28,38.146 			"/>
		</g>
		<g>
			<rect x="36.546" y="0.02" fill="#4A5158" width="1.009" height="10.382"/>
			<path fill="#4A5158" d="M43.385,16.721c0-1.215-0.462-2.426-1.393-3.352c-0.927-0.924-2.144-1.387-3.359-1.387h-3.165
				c-1.217,0-2.433,0.463-3.361,1.387c-0.928,0.926-1.391,2.137-1.391,3.352v5.531h12.668V16.721z"/>
			<path fill="#343C44" d="M44.713,23.24c0,0.546-0.441,0.984-0.992,0.984H30.382c-0.545,0-0.99-0.438-0.99-0.984
				c0-0.55,0.445-0.988,0.99-0.988h13.339C44.271,22.252,44.713,22.69,44.713,23.24z"/>
			<path fill="#343C44" d="M38.437,11.261c0-0.221-0.085-0.44-0.252-0.607c-0.168-0.167-0.387-0.252-0.609-0.252h-1.05
				c-0.22,0-0.439,0.085-0.609,0.252c-0.168,0.167-0.252,0.386-0.252,0.607v0.721h2.772V11.261z"/>
		</g>
	</g>
</g>
</svg>
