<?xml version="1.0" encoding="utf-8"?>
<!-- Generator: Adobe Illustrator 17.0.0, SVG Export Plug-In . SVG Version: 6.00 Build 0)  -->
<!DOCTYPE svg PUBLIC "-//W3C//DTD SVG 1.1//EN" "http://www.w3.org/Graphics/SVG/1.1/DTD/svg11.dtd">
<svg version="1.1" id="Layer_1" xmlns="http://www.w3.org/2000/svg" xmlns:xlink="http://www.w3.org/1999/xlink" x="0px" y="0px"
	 width="74px" height="74px" viewBox="0 0 74 74" enable-background="new 0 0 74 74" xml:space="preserve">
<g>
	<ellipse fill="#95D9F1" cx="37.061" cy="37.207" rx="36.853" ry="37.06"/>
	<path fill="#71C9E9" d="M53.456,20.45c-0.279-0.281-0.647-0.421-1.008-0.421h-1.806l-16.517,6.099l-0.002-0.002L32.6,26.69h-10.85
		c-0.367,0-0.733,0.14-1.014,0.421c-0.275,0.277-0.413,0.646-0.413,1.014v0.998h-1.806c-0.367,0-0.735,0.144-1.01,0.421
		c-0.279,0.283-0.417,0.65-0.417,1.014v8.508c0,0.367,0.138,0.731,0.417,1.012l5.883,5.916v9.129c0,0.789,0.301,1.578,0.899,2.18
		l16.66,16.756c17.337-1.83,31.091-15.746,32.784-33.218L53.456,20.45z"/>
	<g>
		<g>
			<path fill="#FFFFFF" d="M23.392,55.123c0,0.791,0.299,1.58,0.899,2.184c0.597,0.602,1.385,0.904,2.17,0.904l0,0
				c0.784,0,1.571-0.302,2.17-0.904c0.601-0.604,0.899-1.393,0.899-2.184V42.938h-6.137V55.123z"/>
			<g>
				<path fill="#E6E5E5" d="M28.567,44.156c-0.668,0-1.211,0.545-1.211,1.218c0,0.673,0.543,1.22,1.211,1.22h0.962v-2.438H28.567z"
					/>
				<path fill="#E6E5E5" d="M28.567,47.812c-0.668,0-1.211,0.545-1.211,1.218c0,0.673,0.543,1.22,1.211,1.22h0.962v-2.438H28.567z"
					/>
				<path fill="#E6E5E5" d="M28.567,51.467c-0.668,0-1.211,0.546-1.211,1.218c0,0.673,0.543,1.22,1.211,1.22h0.962v-2.438H28.567z"
					/>
			</g>
			<rect x="29.53" y="44.156" fill="#343C44" width="1.024" height="2.438"/>
		</g>
		<path fill="#FFFFFF" d="M53.399,31.158v7.311c2.007,0,3.635-1.637,3.635-3.656C57.034,32.795,55.406,31.158,53.399,31.158z"/>
		<path fill="#343C44" d="M20.322,40.501h-1.804c-0.367,0-0.731-0.14-1.01-0.421c-0.279-0.279-0.417-0.646-0.417-1.014v-8.504
			c0-0.367,0.138-0.735,0.417-1.014c0.279-0.281,0.643-0.419,1.01-0.419h1.804V40.501z"/>
		<path fill="#F4836B" d="M32.6,42.938H21.747c-0.364,0-0.729-0.142-1.008-0.421c-0.277-0.279-0.417-0.648-0.417-1.014V28.123
			c0-0.365,0.14-0.733,0.417-1.014c0.279-0.279,0.645-0.419,1.008-0.419H32.6V42.938z"/>
		<path fill="#EA6653" d="M32.6,42.938H21.747c-0.364,0-0.729-0.142-1.008-0.421c-0.277-0.279-0.417-0.648-0.417-1.014v-6.69H32.6
			V42.938z"/>
		<polygon fill="#FFFFFF" points="32.6,26.69 32.6,42.938 50.642,49.599 50.642,20.027 		"/>
		<polygon fill="#F3F3F3" points="32.6,34.813 32.6,42.938 50.642,49.599 50.642,34.813 		"/>
		<path fill="#343C44" d="M53.873,48.164c0,0.367-0.14,0.735-0.417,1.016c-0.279,0.279-0.645,0.419-1.01,0.419h-1.804V20.027h1.804
			c0.365,0,0.731,0.14,1.01,0.421c0.277,0.279,0.417,0.646,0.417,1.014V48.164z"/>
	</g>
</g>
</svg>
