<?xml version="1.0" encoding="utf-8"?>
<!-- Generator: Adobe Illustrator 17.0.0, SVG Export Plug-In . SVG Version: 6.00 Build 0)  -->
<!DOCTYPE svg PUBLIC "-//W3C//DTD SVG 1.1//EN" "http://www.w3.org/Graphics/SVG/1.1/DTD/svg11.dtd">
<svg version="1.1" id="Layer_1" xmlns="http://www.w3.org/2000/svg" xmlns:xlink="http://www.w3.org/1999/xlink" x="0px" y="0px"
	 width="4000px" height="4000px" viewBox="0 0 4000 4000" enable-background="new 0 0 4000 4000" xml:space="preserve">
<g>
	<g>
		<line fill="#1C75BC" stroke="#000000" stroke-miterlimit="10" x1="881.619" y1="3280.714" x2="3680.619" y2="3280.714"/>
		<g>
			<g>
				<line fill="#1C75BC" stroke="#000000" stroke-miterlimit="10" x1="881.619" y1="3280.714" x2="881.619" y2="3219.579"/>
				<line fill="#1C75BC" stroke="#000000" stroke-miterlimit="10" x1="1348.119" y1="3280.714" x2="1348.119" y2="3219.579"/>
				<line fill="#1C75BC" stroke="#000000" stroke-miterlimit="10" x1="1814.619" y1="3280.714" x2="1814.619" y2="3219.579"/>
				<line fill="#1C75BC" stroke="#000000" stroke-miterlimit="10" x1="2281.119" y1="3280.714" x2="2281.119" y2="3219.579"/>
				<line fill="#1C75BC" stroke="#000000" stroke-miterlimit="10" x1="2747.619" y1="3280.714" x2="2747.619" y2="3219.579"/>
				<line fill="#1C75BC" stroke="#000000" stroke-miterlimit="10" x1="3214.119" y1="3280.714" x2="3214.119" y2="3219.579"/>
				<line fill="#1C75BC" stroke="#000000" stroke-miterlimit="10" x1="3680.619" y1="3280.714" x2="3680.619" y2="3219.579"/>
			</g>
			<g>
			</g>
		</g>
	</g>
	<g>
		<g>
			<text transform="matrix(1 0 0 1 770.5792 3329.9153)" fill="#1C75BC" font-family="'MyriadPro-Regular'" font-size="131.2031">0</text>
			<text transform="matrix(1 0 0 1 703.274 2922.344)" fill="#1C75BC" font-family="'MyriadPro-Regular'" font-size="131.2031">10</text>
			<text transform="matrix(1 0 0 1 703.274 2514.7727)" fill="#1C75BC" font-family="'MyriadPro-Regular'" font-size="131.2031">20</text>
			<text transform="matrix(1 0 0 1 703.274 2107.2014)" fill="#1C75BC" font-family="'MyriadPro-Regular'" font-size="131.2031">30</text>
			<text transform="matrix(1 0 0 1 703.274 1699.6296)" fill="#1C75BC" font-family="'MyriadPro-Regular'" font-size="131.2031">40</text>
			<text transform="matrix(1 0 0 1 703.274 1292.0583)" fill="#1C75BC" font-family="'MyriadPro-Regular'" font-size="131.2031">50</text>
			<text transform="matrix(1 0 0 1 703.274 884.4871)" fill="#1C75BC" font-family="'MyriadPro-Regular'" font-size="131.2031">60</text>
		</g>
		<line fill="#1C75BC" stroke="#000000" stroke-miterlimit="10" x1="881.619" y1="3280.714" x2="881.619" y2="835.286"/>
		<g>
			<g>
				<line fill="#1C75BC" stroke="#000000" stroke-miterlimit="10" x1="881.619" y1="3280.714" x2="951.594" y2="3280.714"/>
				<line fill="#1C75BC" stroke="#000000" stroke-miterlimit="10" x1="881.619" y1="2873.143" x2="951.594" y2="2873.143"/>
				<line fill="#1C75BC" stroke="#000000" stroke-miterlimit="10" x1="881.619" y1="2465.572" x2="951.594" y2="2465.572"/>
				<line fill="#1C75BC" stroke="#000000" stroke-miterlimit="10" x1="881.619" y1="2058" x2="951.594" y2="2058"/>
				<line fill="#1C75BC" stroke="#000000" stroke-miterlimit="10" x1="881.619" y1="1650.429" x2="951.594" y2="1650.429"/>
				<line fill="#1C75BC" stroke="#000000" stroke-miterlimit="10" x1="881.619" y1="1242.857" x2="951.594" y2="1242.857"/>
				<line fill="#1C75BC" stroke="#000000" stroke-miterlimit="10" x1="881.619" y1="835.286" x2="951.594" y2="835.286"/>
			</g>
			<g>
			</g>
		</g>
	</g>
	<g>
		<g>
			<g>
				
					<rect x="946.929" y="1198.024" fill="#1C75BC" stroke="#000000" stroke-width="0.5" stroke-miterlimit="10" width="335.88" height="2082.69"/>
				
					<rect x="1413.429" y="1365.129" fill="#1C75BC" stroke="#000000" stroke-width="0.5" stroke-miterlimit="10" width="335.88" height="1915.586"/>
				
					<rect x="1879.929" y="1202.1" fill="#1C75BC" stroke="#000000" stroke-width="0.5" stroke-miterlimit="10" width="335.88" height="2078.614"/>
				
					<rect x="2346.429" y="904.573" fill="#1C75BC" stroke="#000000" stroke-width="0.5" stroke-miterlimit="10" width="335.88" height="2376.141"/>
				
					<rect x="2812.929" y="912.724" fill="#1C75BC" stroke="#000000" stroke-width="0.5" stroke-miterlimit="10" width="335.88" height="2367.99"/>
				
					<rect x="3279.429" y="1161.343" fill="#1C75BC" stroke="#000000" stroke-width="0.5" stroke-miterlimit="10" width="335.88" height="2119.371"/>
			</g>
		</g>
	</g>
	<g>
		<g>
		</g>
	</g>
</g>
<rect x="995.404" y="1710.714" fill="none" width="203.571" height="950"/>
<text transform="matrix(-4.371139e-008 1 -1 -4.371139e-008 1231.6035 1848.2142)" writing-mode="tb"><tspan x="0" y="0" fill="#F1F2F2" stroke="#F1F2F2" stroke-miterlimit="10" font-family="'MyriadPro-BoldCond'" font-size="225" glyph-orientation-vertical="0">2</tspan><tspan x="225" y="0" fill="#F1F2F2" stroke="#F1F2F2" stroke-miterlimit="10" font-family="'MyriadPro-BoldCond'" font-size="225" glyph-orientation-vertical="0">0</tspan><tspan x="450" y="0" fill="#F1F2F2" stroke="#F1F2F2" stroke-miterlimit="10" font-family="'MyriadPro-BoldCond'" font-size="225" glyph-orientation-vertical="0">1</tspan><tspan x="675" y="0" fill="#F1F2F2" stroke="#F1F2F2" stroke-miterlimit="10" font-family="'MyriadPro-BoldCond'" font-size="225" glyph-orientation-vertical="0">5</tspan></text>
<rect x="1477.547" y="1710.714" fill="none" width="203.571" height="950"/>
<text transform="matrix(-4.371139e-008 1 -1 -4.371139e-008 1713.7463 1848.2142)" writing-mode="tb"><tspan x="0" y="0" fill="#FFFFFF" stroke="#F1F2F2" stroke-miterlimit="10" font-family="'MyriadPro-BoldCond'" font-size="225" glyph-orientation-vertical="0">2</tspan><tspan x="225" y="0" fill="#FFFFFF" stroke="#F1F2F2" stroke-miterlimit="10" font-family="'MyriadPro-BoldCond'" font-size="225" glyph-orientation-vertical="0">0</tspan><tspan x="450" y="0" fill="#FFFFFF" stroke="#F1F2F2" stroke-miterlimit="10" font-family="'MyriadPro-BoldCond'" font-size="225" glyph-orientation-vertical="0">1</tspan><tspan x="675" y="0" fill="#FFFFFF" stroke="#F1F2F2" stroke-miterlimit="10" font-family="'MyriadPro-BoldCond'" font-size="225" glyph-orientation-vertical="0">6</tspan></text>
<rect x="1927.547" y="1710.714" fill="none" width="203.571" height="950"/>
<text transform="matrix(-4.371139e-008 1 -1 -4.371139e-008 2163.7463 1848.2142)" writing-mode="tb"><tspan x="0" y="0" fill="#FFFFFF" stroke="#F1F2F2" stroke-miterlimit="10" font-family="'MyriadPro-BoldCond'" font-size="225" glyph-orientation-vertical="0">2</tspan><tspan x="225" y="0" fill="#FFFFFF" stroke="#F1F2F2" stroke-miterlimit="10" font-family="'MyriadPro-BoldCond'" font-size="225" glyph-orientation-vertical="0">0</tspan><tspan x="450" y="0" fill="#FFFFFF" stroke="#F1F2F2" stroke-miterlimit="10" font-family="'MyriadPro-BoldCond'" font-size="225" glyph-orientation-vertical="0">1</tspan><tspan x="675" y="0" fill="#FFFFFF" stroke="#F1F2F2" stroke-miterlimit="10" font-family="'MyriadPro-BoldCond'" font-size="225" glyph-orientation-vertical="0">7</tspan></text>
<rect x="2411.476" y="1710.714" fill="none" width="203.571" height="950"/>
<text transform="matrix(-4.371139e-008 1 -1 -4.371139e-008 2647.6748 1848.2142)" writing-mode="tb"><tspan x="0" y="0" fill="#FFFFFF" stroke="#F1F2F2" stroke-miterlimit="10" font-family="'MyriadPro-BoldCond'" font-size="225" glyph-orientation-vertical="0">2</tspan><tspan x="225" y="0" fill="#FFFFFF" stroke="#F1F2F2" stroke-miterlimit="10" font-family="'MyriadPro-BoldCond'" font-size="225" glyph-orientation-vertical="0">0</tspan><tspan x="450" y="0" fill="#FFFFFF" stroke="#F1F2F2" stroke-miterlimit="10" font-family="'MyriadPro-BoldCond'" font-size="225" glyph-orientation-vertical="0">1</tspan><tspan x="675" y="0" fill="#FFFFFF" stroke="#F1F2F2" stroke-miterlimit="10" font-family="'MyriadPro-BoldCond'" font-size="225" glyph-orientation-vertical="0">8</tspan></text>
<rect x="2854.333" y="1710.714" fill="none" width="203.571" height="950"/>
<text transform="matrix(-4.371139e-008 1 -1 -4.371139e-008 3090.5322 1848.2142)" writing-mode="tb"><tspan x="0" y="0" fill="#FFFFFF" stroke="#F1F2F2" stroke-miterlimit="10" font-family="'MyriadPro-BoldCond'" font-size="225" glyph-orientation-vertical="0">2</tspan><tspan x="225" y="0" fill="#FFFFFF" stroke="#F1F2F2" stroke-miterlimit="10" font-family="'MyriadPro-BoldCond'" font-size="225" glyph-orientation-vertical="0">0</tspan><tspan x="450" y="0" fill="#FFFFFF" stroke="#F1F2F2" stroke-miterlimit="10" font-family="'MyriadPro-BoldCond'" font-size="225" glyph-orientation-vertical="0">1</tspan><tspan x="675" y="0" fill="#FFFFFF" stroke="#F1F2F2" stroke-miterlimit="10" font-family="'MyriadPro-BoldCond'" font-size="225" glyph-orientation-vertical="0">9</tspan></text>
<rect x="3336.476" y="1710.714" fill="none" width="203.571" height="950"/>
<text transform="matrix(-4.371139e-008 1 -1 -4.371139e-008 3572.675 1848.2142)" writing-mode="tb"><tspan x="0" y="0" fill="#FFFFFF" stroke="#F1F2F2" stroke-miterlimit="10" font-family="'MyriadPro-BoldCond'" font-size="225" glyph-orientation-vertical="0">2</tspan><tspan x="225" y="0" fill="#FFFFFF" stroke="#F1F2F2" stroke-miterlimit="10" font-family="'MyriadPro-BoldCond'" font-size="225" glyph-orientation-vertical="0">0</tspan><tspan x="450" y="0" fill="#FFFFFF" stroke="#F1F2F2" stroke-miterlimit="10" font-family="'MyriadPro-BoldCond'" font-size="225" glyph-orientation-vertical="0">2</tspan><tspan x="675" y="0" fill="#FFFFFF" stroke="#F1F2F2" stroke-miterlimit="10" font-family="'MyriadPro-BoldCond'" font-size="225" glyph-orientation-vertical="0">0</tspan></text>
<rect x="947.19" y="1027" fill="none" width="342.857" height="121.429"/>
<text transform="matrix(1 0 0 1 947.1904 1134.3986)" fill="#012C67" font-family="'ArialNarrow-Bold'" font-size="150">$ 51B</text>
<text transform="matrix(4.489659e-011 -1 1 4.489659e-011 666.0955 2508.1025)" fill="#1C75BC" font-family="'ArialRoundedMTBold'" font-size="150">Billion (USD)</text>
<rect x="1407.904" y="1212.714" fill="none" width="342.857" height="121.429"/>
<text transform="matrix(1 0 0 1 1407.9047 1320.1129)" fill="#012C67" font-family="'ArialNarrow-Bold'" font-size="150">$ 47B</text>
<rect x="1875.762" y="1055.572" fill="none" width="342.857" height="121.429"/>
<text transform="matrix(1 0 0 1 1875.7618 1162.97)" fill="#012C67" font-family="'ArialNarrow-Bold'" font-size="150">$ 51B</text>
<rect x="2341.833" y="755.571" fill="none" width="342.857" height="121.429"/>
<text transform="matrix(1 0 0 1 2341.8333 862.97)" fill="#012C67" font-family="'ArialNarrow-Bold'" font-size="150">$ 58B</text>
<rect x="2784.69" y="769.857" fill="none" width="342.857" height="121.429"/>
<text transform="matrix(1 0 0 1 2784.6904 877.2557)" fill="#012C67" font-family="'ArialNarrow-Bold'" font-size="150">$ 58B</text>
<rect x="3266.833" y="994.857" fill="none" width="342.857" height="121.429"/>
<text transform="matrix(1 0 0 1 3266.8333 1102.2556)" fill="#012C67" font-family="'ArialNarrow-Bold'" font-size="150">$ 52B</text>
</svg>
