<?xml version="1.0" encoding="UTF-8"?><svg xmlns="http://www.w3.org/2000/svg" xmlns:xlink="http://www.w3.org/1999/xlink" viewBox="0 0 850 773"><defs><radialGradient id="radial-gradient" cx="445.3" cy="70254.48" fx="445.3" fy="70254.48" r="252.59" gradientTransform="translate(0 -6957.22) scale(1 .11)" gradientUnits="userSpaceOnUse"><stop offset="0" stop-color="#031342"/><stop offset="1" stop-color="#fff"/></radialGradient><clipPath id="clippath"><path d="M684.71,333.07c0,134.27-108.85,243.12-243.12,243.12s-243.12-108.85-243.12-243.12,108.85-243.12,243.12-243.12,243.12,108.85,243.12,243.12Z" style="clip-rule:evenodd; fill:none;"/></clipPath><clipPath id="clippath-1"><path d="M441.59,576.19c-134.27,0-243.12-108.85-243.12-243.12s108.85-243.12,243.12-243.12,243.12,108.85,243.12,243.12-108.85,243.12-243.12,243.12Z" style="clip-rule:evenodd; fill:none;"/></clipPath></defs><g style="isolation:isolate;"><g id="Layer_6"><g><circle cx="442.92" cy="333.32" r="258.8" style="fill:none; stroke:#c198ef; stroke-miterlimit:10;"/><circle cx="442.92" cy="333.32" r="222.06" style="fill:none; stroke:#c198ef; stroke-miterlimit:10;"/><circle cx="442.92" cy="333.32" r="178.61" style="fill:none; stroke:#c198ef; stroke-miterlimit:10;"/><circle cx="442.92" cy="333.32" r="138" style="fill:none; stroke:#c198ef; stroke-miterlimit:10;"/></g><g><line x1="288.65" y1="387.5" x2="97" y2="387.5" style="fill:none; stroke:#54909e; stroke-miterlimit:10; stroke-width:2px;"/><line x1="288.65" y1="403.44" x2="97" y2="403.44" style="fill:none; stroke:#54909e; stroke-miterlimit:10; stroke-width:2px;"/><line x1="288.65" y1="419.39" x2="97" y2="419.39" style="fill:none; stroke:#54909e; stroke-miterlimit:10; stroke-width:2px;"/></g></g><g id="Layer_3"><path d="M684.71,333.07c0,134.27-108.85,243.12-243.12,243.12s-243.12-108.85-243.12-243.12,108.85-243.12,243.12-243.12,243.12,108.85,243.12,243.12Z" style="fill:#344ba5; fill-rule:evenodd;"/><ellipse cx="445.3" cy="673.82" rx="355.26" ry="37.28" style="fill:url(#radial-gradient); mix-blend-mode:multiply; opacity:.3;"/><path d="M396.96,314.71s8.88-8.31,11.46-13.76,4.01-14.04,14.9-19.77,54.16-18.05,54.16-18.05c0,0-5.44,8.02-4.01,9.17s5.73,2.29,9.74,1.43,11.18-.29,11.18-.29l5.16-3.73,1.72,16.33-82.6,44.41s-15.68-5.17-21.71-15.76Z" style="fill:#031342; fill-rule:evenodd;"/></g><g id="Layer_8"><g style="clip-path:url(#clippath);"><g><path d="M93.68,293.32c1.78-5.23,4.42-9.52,8.55-12.38,3.69-2.56,7.03-5.77,8.84-11.31-2.39-.81-5.62,7.99-7.56,4.12,1.61-4.38,4.06-5.54,6.72-6.66,1.36-.57,2.87-1.9,4.31-2.87,0-1.62,0-3.23,0-5.69,1.68-1.71,4.12-4.48,6.66-6.63,7.65-6.49,15.43-12.63,23.29-18.52,3.53-2.65,7.11-5,10.69-7.33,2.89-1.88,5.44-3.05,7.13-.68,2.36,3.33,6.5,.32,10.57-2.85,4.03-3.14,8.08-6.99,12.16-9.09,8.17-4.22,16.48-7.88,24.68-10.39,4.18-1.28,8.03-.09,12.03,.04,7.07-9.35,14.98-10.83,22.62-11.1,3.21-.12,4.94-1.43,6.75-4.27,1.17-1.84,2.48-3.77,3.12-5.67,1.21-3.63,3.35-5.67,5.45-6.3,1.65,1.89,3.03,3.16,4.06,4.76,.47,.73,.24,2.06,.37,3.56,4.38-3.24,8.38-6.14,12.43-9.03,.32,3.2-.94,4.66-5.41,7.56-3.48,2.26-6.83,4.91-10.69,7.77-.52-.16-1.74-.53-3.85-1.17,.9,5.41-2.11,7.44-6.1,10.14-5.09,3.44-9.87,8.02-14.47,12.57-2.71,2.69-5.68,6.01-4.6,9.72,1.03,3.57,4.51,3.41,7.71,3.31,3.03-.09,6.39-1.15,9.62-1.74-.43,2.05-.97,4.06-1.26,6.03-.45,2.98,1.55,3.44,3.71,2.6,1.41-.55,3.94-2.87,4.04-3.86,.53-5.85,4.81-8.49,9-10.99,2.64-1.57,3.64-2.89,2.83-5.33-.4-1.21-.28-2.78-.22-4.24,.08-2.1-.48-4.41,3.12-5.52,.81-.25,1.88-1.7,2.45-2.73,2.6-4.67,6.05-5.93,10.09-6.03,2.99-.08,4.98,.5,5,4.03,.02,3.86,1.47,4.03,5.11,1.16,2.53-1.99,5.06-3.96,8.24-6.42,0,2.29,.33,3.45-.06,4.55-1.7,4.88,.97,7.19,3.16,9.8,.31,.37,.96,.47,1.51,.57,1.2,.24,2.43,.4,3.65,.6-.6,1.24-1.03,2.58-1.83,3.72-3.49,4.97-7.7,8.08-13.37,9.78-5.96,1.79-11.91,4.94-17.79,7.84-1.4,.69-2.65,2.26-3.98,3.43,.08,.31,.15,.62,.23,.92,4-1.34,8-2.64,12.79-4.13-2.2,2.65-3.68,4.46-5.16,6.27,.13,.37,.26,.74,.4,1.11,3.63-1.16,7.25-2.28,10.77-3.34-.39,1.78-.49,1.51-7.54,6.12-2.83,1.86-5.14,5.04-7.68,7.63-.34-.13-.67-.27-1.01-.41,1.1-2.5,2.21-5,3.32-7.52-6.36,4.93-14.39,8.47-17.39,17.89-.14,.44-.85,1.21-1.19,1.26-6.42,1.06-9.2,7.66-11.84,12.07-6.11,10.2-13.58,18.99-21.76,27.54-5.15,5.39-3.25,9.18-2.51,13.02,.62,3.23,.88,6.05-3.29,10.39-.69-2.44-1.72-4.4-1.84-6.81-.23-4.67-3.43-5.01-7.02-4.68-3.21,.3-6.17,1.67-8.27,6.36-1.42,3.16-3.53,3.31-5.58,2.97-1.06-.18-2.73-.05-3.73,.84-4.12,3.65-8.38,7.38-11.92,11.78-1.82,2.27-2.58,5.92-3.32,8.85-1.25,4.89-2.69,9.96-2.96,14.46-.28,4.64,3.35,5.83,8.39,4.2,4.28-1.38,7.58-4.83,9.58-10.01,.61-1.58,1.16-3.77,2.14-4.58,1.53-1.25,3.48-1.82,5.08-2.03,.37-.04,.3,2.45-.09,3.85-1.23,4.38-2.71,8.79-4.3,13.87,1.31-.87,1.91-1.27,2.5-1.64,8.56-5.16,9.73-4.57,8.56,4.58-.76,6.01-.11,10.52,5.44,10.93,.62,.04,.99,.71,1.21,1.48-4.52-.85-10.94,2.4-12.32-4.59-.63-3.21-3.58-5.14-8.44-3.16-2.91,1.18-5.83,.65-8.39,.21-2.51-.44-4.63-.29-7.88,2.06-5.22,3.77-9.67,3.27-13.91,2.85-1.37-.12-2.55-.72-3.98-.66-2.93,.12-4.32-1.05-3.25-5.36,.32-1.28-.52-2.45-1.16-3.28-2.71-3.57-5.62-6.86-8.24-10.47-1.03-1.42-1.43-3.58-2.29-5.22-.82-1.59-1.86-2.96-2.79-4.41-2.8,2.94-2.98,4.71-2.27,6.44,1.56,3.75,3.02,7.61,4,11.93-4.34-2.78-5.63-8.46-6.24-14.95-.16-1.74-1.02-3.72-2.31-3.74-4.09-.07-5.14-3.52-5.69-7.65-.33-2.51-.24-5.37-.2-8.16,.01-.84,.3-2,.75-2.96,3.26-6.83,6.5-13.63,9.98-20.35,2.02-3.91,1.79-8.01,5.32-11.78,.3-.32,.34-1.74,.14-2.32-1.83-5.33-1.3-12.14-.79-19.02,.33-4.33-3.15-6.77-6.98-5.17-4.91,2.04-9.82,4.33-14.72,7.02-1.38,.75-2.86,3.08-4.35,4.36-1.28,1.1-2.84,5-4.01,2.5-.04-.1-.9,.58-1.28,1.04-4.7,5.58-9.35,11.27-13.23,16.08-1.26-.91-1.83-1.63-2.64-1.83-1-.22-2.22,0-3.34,.04,0-.52,0-1.05,0-1.58Z" style="fill:#00b637; fill-rule:evenodd;"/><path d="M272.31,531.5c-7.73-.16-10.95-5.78-14.57-10.89-.42-.59-.87-1.72-.52-2.36,4.63-8.52-1.38-10.7-3.74-15.01-.67-1.23-1.78-2.28-1.89-3.76-1.14-16.49-2.15-33.04-3.12-49.6-.09-1.51,.27-3.24,.56-4.88,.61-3.51-1.68-5.83-4.59-6.24-8.66-1.2-16.35-3.5-20.68-11.01-2.44-4.25-5.67-7.81-8.87-11.25-1.62-1.73-2.1-3.22,.13-6.57,.75-1.12,.23-2.91,.28-4.39,.06-1.67-.44-3.4,.25-4.98,3.19-7.25,6.79-14.42,10.09-21.61,.41-.9,.13-2.23-.31-2.9-1.61-2.4-2.11-4.78,1.14-8.73,3.55-4.3,6.71-8.91,10.75-14.26,1.1,2.54,2.19,5.06,3.62,8.36,1.44-3.58,2.71-6.73,4.05-10.04,4.92,1.18,10.27,.65,16.23-2.19,.88-.42,1.96,.41,2.91,.73,2.17,.71,4.27,1.53,6.46,2.23,3.03,.97,6.06,2,9.22,2.78,2.76,.68,5.57,1.57,8.6,1.42,5.01-.23,7.26,2.83,8.52,6.54,.56,1.62-1.29,4.68-2.13,7.09-.22,.62-.77,1.22-.72,1.14,3.91-.77,8.02-1.58,12.12-2.21,.86-.13,1.92,.02,2.44,.51,3.18,3.09,7.78,1.51,12.2,1.18,3.84-.29,7.51,.6,11.17,1.26,1.97,.35,3.68,1.36,5.63,1.82,3.31,.8,3.45,3.28,2.54,6.35-.32,1.07-.67,2.28-1.4,3.13-8.42,9.7-8.08,20.28-9.94,30.68-.77,4.26-2.16,8.67-4.06,12.84-.84,1.83-3.54,3.47-5.6,4.74-3.03,1.87-6.27,3.26-9.36,5.03-2.51,1.45-3.43,3.08-2.81,5.85,.45,2.03-.66,4.88-1.36,7.35-.41,1.46-1.98,3.05-2.02,4.33-.21,5.52-4.37,10.05-7,14.93-2.36,4.38-5.94,4.44-9.29,3.88-.57-.1-1.14-.2-2.09-.35-.64,5.27,4.38,3.51,6.49,5.8-1.7,2.61-3.37,5.46-5.36,8.1-.56,.74-2.23,1.27-3.15,1.21-2.69-.15-3.71,.9-3.71,3.71,0,5.27-.24,5.44-6.54,5.58,.65,1.64,.77,3.02,1.53,3.64,2.28,1.89,2.39,4.22,.15,7.71-1.01,1.57-1.43,3.41-2.29,5.58,1.89-.32,3.12-.53,5.5-.91-.7,3.28-1.56,6.43-1.96,9.5-.36,2.74-.22,5.38-.3,8.07-1.07,.35-2.14,.71-3.21,1.06Z" style="fill:#00b637; fill-rule:evenodd;"/><path d="M321.62,128.97c1.55-.02,3.09,.16,4.66-.07,12.8-1.84,25.59-2.13,38.72-7.06,3.43-1.29,7.41,.36,11.14-.24,11.36-1.84,22.76-3.76,34.17-5.39,2.76-.4,8.61,1.28,9.86,3.32-2.18,1.57-4.42,3.07-6.5,4.77-.84,.68-1.93,1.84-1.88,2.64,.33,5.44-3.85,6.11-7.69,6.89-4.77,.96-6.19,2.52-5.84,7.07,.37,4.7-1.56,6.69-6.38,7.89-5.86,1.47-11.72,3.3-17.41,5.65-2.39,.99-4.22,4.34-6.54,5.04-9.19,2.81-14.88,9.05-19,17.32-1.51,3.03-4.09,4.14-6.34,2.31-2.55-2.09-5.11-4.36-6.74-7.17-1.46-2.52-1.68-5.92-2.54-9.29,1.42-.32,2.71-.61,4-.89,4.48-.96,6.49-3.73,5.57-7.8-1.93-8.55-7.04-13.7-17.56-12.44-1.24,.15-2.46,.08-3.69,.12,.03-.45,.06-.91,.09-1.36,2.99-.74,5.99-1.48,9-2.14,4.15-.92,5.67-2.65,5.4-6.82-8,3.46-15.92,6.97-23.75,10.85-2.42,1.2-4.68,2.97-7,4.53-1.01,.68-2.16,1.26-2.96,2.14-5.54,6.1-10.6,2.81-15.82,3.87-1.33,.27-2.52-.77-3.77-1.21-.04-.44-.08-.89-.11-1.34,2.14-1.6,4.21-3.52,6.46-4.7,3.12-1.64,6.44-2.48,9.58-4.06,2.94-1.47,5.74-3.52,8.63-5.21,2.29-1.35,4.63-2.55,6.94-3.86,1.37-.78,2.71-1.69,4.06-2.55,1.08-.27,2.17-.54,3.26-.81Z" style="fill:#00b637; fill-rule:evenodd;"/><path d="M852.71,502.85c-5.72-3.89-9.56-10.61-13.29-17.27-1.63-2.9-2.84-3.88-4.55-3.51-2.73,.6-5.62-2.17-8.49-5.67-1.28-1.55-2.59-3.07-4.24-5.02,1.46-4.47-1.9-9.2-6.39-13.81-.57-.59-1.02-1.5-1.53-2.27l-.08,.04c1.73-.33,3.39-.84,5.21-.91,.85-.03,2.21,.35,3.04,1.23,5.5,5.82,10.89,11.87,16.21,18.04,2.45,2.84,5.14,10.61,4.34,12.4,3.24,5.24,6.52,10.59,9.76,15.97,0,.27,0,.53,0,.79Z" style="fill:#00b637; fill-rule:evenodd;"/><path d="M426.84,241.49c2.42-.39,4.47-.69,6.51-1.04,.54-.09,1.07-.46,1.58-.48,11.21-.35,21.81-4.27,32.75-5.77,1.09-.15,2.21-.04,3.84-.04-.82,1.86-1.53,2.98-1.82,4.2-.65,2.68-.81,4.51,2.41,6.82,5.38,3.86,12.47,3.67,17.55,8,1.16,.98,3.72,.48,5.85,.7,1.18-2.19,2.33-4.34,3.63-6.74,8.95,6.29,19.87,5.6,30.3,7.56,3.22,.6,5.64-.49,7.08-3.15,.66-1.23,1.48-2.39,1.99-3.69,3-7.63,2.21-8.83-6.6-9.75-2.49-.25-4.99-.46-7.48-.62-6.9-.45-12.15-4-10.58-12.09,.1-.48,.01-1.01,.01-1.91-3.35,.46-6.58,.92-10.84,1.56,.6,1.44,1.41,3.39,2.42,5.83-.02,.01-.76,.32-1.13,.87-2.37,3.51-3.12,3.6-5.3-.22-2.1-3.68-3.74-7.57-5.6-11.35-.29-.59-.56-1.32-1.07-1.66-4.69-3.07-9.4-6.06-14.18-8.9-.98-.59-2.25-.73-4.15-1.3,1.43,9.56,12.07,10.19,16.17,17.01-1.2-.27-2.05-.45-2.89-.64-1.78,5.22-4.48,7.83-7.41,7.46,1.79-1.44,3.67-2.96,6.59-5.28-4.45-3.03-8.19-5.56-11.95-8.02-1.36-.89-2.87-1.58-4.18-2.52-2.18-1.57-4.25-3.26-7.04-5.4-.65,2.61-.95,3.82-1.29,5.25-1.07-.03-2.07,.14-2.92-.11-3.64-1.08-6.06,.26-8.12,3.22-.94,1.35-2.77,2.12-3.92,3.39-1.5,1.65-2.78,3.49-4.05,5.32-1.08,1.56-1.73,3.44-3.03,4.77-5.18,5.29-11.42,3.86-17.22,2.7-1.37-.27-2.43-3.31-2.64-5.26-.29-2.65,.43-5.48,.61-8.23,.25-4.07,2.64-6.11,6.82-5.51,1.61,.24,3.23,.61,4.69,1.23,2.96,1.25,5.81,.23,7.51-1.81,1.98-2.34,1.51-5.29-.7-7.46-1.27-1.25-2.81-2.26-4.72-3.76,2.36-.36,4.15-.62,6.76-.98-1.99-1.24-3.35-2.08-5.42-3.36,1.82-.33,2.85-.55,3.88-.68,4.19-.51,7.58-1.96,11.17-4.64,3.72-2.76,6.09-7.53,11.67-8.11,1.58-.16,2.98-2.2,4.43-3.34,.35,.05,.73,0,.86,.15,2.84,3.29,5.49-1.05,8.45-.17,2.56,.76,4.9,4.2,8.19,1.15,.77-.71,2.29-.92,3.49-.94,7.2-.14,7.2-.07,8.82-6.1,5.62,.63,5.62,.65,5.22-5.8,2.1-.03,4.25,.23,6.2-.19,.93-.2,1.47-1.73,2.19-2.66-1.04-.54-2.05-1.43-3.11-1.55-1.92-.22-3.88,.27-5.79,.03-1.3-.17-2.95-.79-3.68-1.72-.56-.72-.15-2.32,.22-3.4,.32-.95,1.39-1.64,1.75-2.58,.41-1.08,.38-2.32,.55-3.49-1.16-.14-2.54-.72-3.44-.34-3.98,1.69-8.92,2.71-9.03,8.21-.05,1.96,.29,3.94,.45,5.91,.48,.18,.96,.35,1.44,.52-2.64,2.84-4.99,5.99-8.01,8.45-2.66,2.18-5.45,.96-6.59-2.29-1.47-4.18-10.86-7.93-14.21-5.25,0-2.76,0-5.27,0-8.13,4.42-.07,7.88-.79,9.12-5.41,.43-1.59,2.86-2.76,4.47-3.99,2.28-1.73,4.77-3.2,6.93-5.01,6.87-5.73,14.51-8.83,23.92-6.48,9.26,2.31,18.51,4.84,27.96,7.63-1.01,3.99-2.56,4.47-5.67,3.36-2.53-.91-5.36-.85-8.06-1.2-.19,.53-.37,1.06-.56,1.58,2.96,2.58,5.83,5.29,8.96,7.7,.54,.41,2.49-.17,3.23-.85,5.76-5.24,13.58-6.55,20.87-8.65,1.17-.34,2.79-.2,4.02,.32,4.47,1.87,8.45,2.04,12.11-.35,1.92-1.26,3.69-.85,5.83,1.19,5.48,5.24,12.41,6.64,16.33,3.62-2.6-3.39-6.59-6.25-6.27-10.87,7.69,.57,11.34,4.36,11.49,11.48,.06,2.59,.18,5.03,3.94,5.2,2.5,.12,3.72-.7,2.26-3.59-1.21-2.39-2.21-4.83-2.63-7.43,.99,1.71,1.77,3.57,3.02,5.1,.96,1.16,2.5,1.9,3.79,2.83,.46-1.49,1.29-2.91,1.27-4.5-.02-1.62-.87-3.41-1.51-5.69,4.79,.24,9.13,.21,13.52,.91,4.49,.71,8.4,.76,11.87-1.42,1.27-.8,3.88-.11,5.88,.42,7.75,2.09,15.48,4.5,23.16,7.1,1.1,.37,2.19,1.34,3.38,2.1-1.62,1.52-3.04,2.87-4.4,4.15,.46,.73,.61,1.16,.77,1.21,7.21,2.11,14.23,5.29,21.18,9.4,1.64,.97,3.67,.95,5.43,1.06,5.42,.36,10.57,2.45,15.65,7.08,1.68,1.54,3.76,2.57,5.69,3.62,3.88,2.14,7.77,4.09,11.62,6.3,4.76,2.74,7.54,1.37,9.7-1.48,6.52,5.96,13.04,11.18,20.34,14.4,5.74,2.54,11.39,5.33,17.18,10.5,5.54,4.94,11.92,7.81,17.85,11.91,2.33,1.62,4.61,3.71,7.15,5.82,1.33-3.08,4.08-1.11,7.19,1.55,7.04,6.02,14.04,12.18,21.03,18.14,3.27,2.79,6.77,4.4,9.97,7.35,2.94,2.72,5.64,6.48,8.24,10.37-6.02-3.12-12.12-14.45-18.09-11.02,3.31,4.25,6.56,8.48,9.81,12.74-5.16-3.68-7.17-.24-10.61,.88,0-1.69,0-2.97,0-4.97-2.79-.21-5.25-.73-7.35-.42-2.37,.36-1.78,3.46,.96,6.22,3.51,3.55,5.6,8.13,5.46,12.16-.06,1.65-.53,3.02-.65,4.64-.12,1.57-.03,3.3-.03,4.96-.42-.03-.83-.05-1.24-.07-2.44-4.93-4.88-9.84-7.36-14.71-.58-1.14-1.21-2.4-2.01-3.31-4.46-5.08-5.43-11.44-2.69-13.63,1.01-.8-.11-4.79-.59-7.45-.06-.34-2.67-2.31-3.14-2.03-2.38,1.42-4.43-.53-6.39-3.99-5.12-1.87-2.86,5.23-5.37,6.21-5.22-3.99-10.25-7.6-15.24-11.38-4.82-3.63-7.6-1.41-9.6,.57-1.6,1.58-1.32,5.83-.92,9.27,.12,.99,3.49,3.5,5.45,4.87,1.69,1.19,3.51,1.63,5.26,2.62,3.6,2.02,6.57,4.83,8.21,9.53,.55,1.56,1.84,3.16,2.65,4.77,.62,1.25,1.59,2.98,1.44,3.76-.98,5.24,1.16,12.94-4.28,15.19-.51-.29-1.88-1.12-3.25-1.79-2.04-1.01-3.73-1.4-3.56,1.5,.05,.84-.43,1.51-.86,2.04-2.71,3.26-2.57,4.12,1.69,9.54,1.24,1.58,2.52,3.12,3.76,4.7,3.86,4.98,4.1,6.06,.97,7.86-1.02,.58-2.93,.26-4.43-.57-.63-.34-1.32-3.1-1.85-4.75-.22-.7,.14-1.56-.19-2.01-3.4-4.65-6.29-9.42-8.82-14.44-.24-.49-3.09-.41-5.01-.6-.82-2.42-1.71-5-2.76-8.07-5.34-.57-6.89,3.88-10.42,7.09,4.93,2.37,8.87,4.33,13.19,6.53-.34,1.01-.33,2.1-.85,2.31-3.41,1.43-1.45,4.96,.62,8.7,3.04,5.48,7.14,10.64,8.25,16.74,1.21,6.66-2.45,14.18-8.18,12.6-6.53-1.78-9.99,.71-12.56,5.19-.57,1.01-1.42,1.76-3.03,2.12,0-1.45-.14-2.98,.03-4.33,.4-3.22-1.41-5.72-4.23-8.11-2.86-2.43-3.59-.27-4.74,.73-3.99,3.52-3.58,3.39,.89,10.13,3.52,5.33,6.19,11.2,8.87,16.92,.59,1.27,.14,3.42-.67,4.08-2.31,1.85-4.88,3.45-7.76,4.48-.75,.27-3.48-1.77-4.44-3.21-3.29-4.91-6.2-10-9.53-15.41-5.33,1.03-1.38,8.75-4.63,11.49-.2-2.68-.32-5.34-.64-8.05-.37-3.24-.55-6.5-1.46-9.82-1.54-5.65-1.96-5.85-6.37-5.14-.21-.21-.59-.48-.61-.65-.46-3.89-1.69-7.46-5.31-10.84-1.28-1.19-2-3.49-2.65-5.29-2.21-6.12-6.73-9.46-11.79-11.53-1.53-.63-3.27,.3-4.69,.89-4.14,1.74-8.49,3.29-12.18,5.75-3.78,2.52-6.25,6.43-5.81,12.24,.18,2.41,.21,4.79,.46,7.22,.42,4.17-2.55,4.87-5.42,5.21-3.01,.35-3.41-2.81-4.12-4.78-2.06-5.74-3.8-11.5-5.86-17.22-1.93-5.38-5.4-10.68-3.78-16.03,.39-1.27-1.24-3.64-1.93-5.49-5.86,1-5.69,.91-10.06-4.73-5.68-7.29-11.8-13.48-21.14-14.5-5.53-.6-11.57-2.06-15.61-8.16-.48-.75-1.97-1.11-3.03-1.45-9.56-3.04-13.64-5.73-20.65-13.38,.18,1.78,.06,3.59,.58,5.33,.98,3.3,2.16,6.59,3.57,9.82,3.47,7.97,8.37,8.37,14.12,4.96,1.35-.79,2.33-2.07,3.85-3.46,1.26,5.61,4.19,9.72,8.66,13.19,.6,.46,.81,2.89,.23,3.44-6.73,6.42-12.66,13.89-24.04,14.64-3.88,.27-7.28,2.33-11.08,3.15-3.51,.76-6.53-.92-7.26-4.69-1.51-7.75-5.88-14.27-10.74-20.7-2.1-2.79-3.14-6.23-4.9-9.26-2.61-4.46-5.06-9.08-8.33-13.07-1.56-1.9-4.9-2.53-7.79-3.87,3.62,8.1,7.14,15.8,10.47,23.58,2.85,6.65,6.56,12.71,11.5,18.5,3.31,3.89,5.3,8.89,7.35,13.56,.97,2.2,1.75,3.04,4.14,3.14,6.39,.28,12.79,.93,20.39,1.72-1.71,3.87-2.55,8.16-5.06,10.99-7.88,8.88-16.27,17.49-24.76,26.19-3.84,3.93-6.05,7.74-3.66,14.15,1.92,5.18,2.26,10.79,2.86,16.2,.45,4.06-1.07,7.09-4.86,9.11-3.24,1.72-6.21,4.11-8.67,6.78-2.16,2.35-3.77,5.14-1.91,9.18,1.02,2.23,.71,4.69-2.09,6.53-2.86,1.9-4.45,5.39-6.8,8.02-2.58,2.91-5.23,5.82-8.16,8.45-4.3,3.87-8.52,7.97-15.12,8.69-3.46,.38-6.87,1.56-10.3,1.39-1.46-.07-3.88-2.61-4.17-4.24-1.04-5.94-3.45-11.01-7.62-15.66-1.5-1.68-1.77-4.73-1.79-7.14-.09-7.69-3.4-14.41-7.41-20.72-2.68-4.22-2.5-8.25,.03-11.84,5.69-8.06,3.6-15.93,.4-24.08-2.12-5.38-4.6-10.36-9.14-14.35-.87-.77,.03-3.33,.08-5.07,.08-3.07,.86-6.37-.04-9.16-.62-1.91-3.7-4.46-5.51-4.32-3.5,.29-4.63-1.57-6.64-3.27-3.76-3.17-8.46-2.24-12.99-1.12-4.7,1.16-9.4,2.37-14.09,3.63-.14,.04-.3,.03-.41,.1-4.13,2.78-8.88,4.25-12.85,1.95-4.52-2.61-8.31-6.31-12.13-9.78-2.96-2.69-6.17-5.4-7.96-8.82-1.53-2.93-2.27-7.03-1.43-10.4,1.2-4.8,2.53-9.24,1.33-13.99-1.37-5.44,2.11-10.58,5.14-15.1,3.26-4.85,7.92-8.89,11.77-13.38,1.24-1.45,1.81-3.39,2.7-5.1,1.06-2.02,1.75-4.36,3.3-5.96,2.77-2.89,6.07-5.31,8.55-7.39Z" style="fill:#00b637; fill-rule:evenodd;"/><path d="M836.8,514.2c1.26,3.22,2.5,6.44,3.77,9.67,.96,2.47,1.79,4.98,2.97,7.41,.89,1.82,3.12,4.06,3.25,5.25,.49,4.31,.99,8.87,.33,12.24-1.45,7.36-6.23,9.99-11.99,11.6-4.57,1.28-8.75,3.3-14.82,1.38-1.27-.4-2.77-1.73-4.17-2.69-1.43-.99-2.96-2.55-4.26-2.99-3.01-1.02-4.61-3.74-5.07-6.57-.75-4.54-.87-8.82-1.27-13.37-1.85-.22-4.45-.51-6.2-.69-1.75-3.43-3.13-5.87-4.25-8.34-1.55-3.43-3.61-3.67-5.82-5.06-6.94-4.37-12.72-3.73-19.11-5.36-5.79-1.48-11.77-3.5-17.74-5.26-.59-.18-1.32-1.14-1.02-.88,.34-4.23,.68-7.91,.93-11.64,.47-6.94,.24-14.37,1.68-20.62,.52-2.26,4.84-1.99,7.67-2.24,1.8-.16,4.19,1.08,6.13,1.23,4.79,.32,10.27,1.91,11.1-4.68,1.21,1.34,1.99,2.22,2.4,2.67,2.1-1.7,3.85-3.48,5.94-4.72,1.67-.97,3.43-.2,5.14,3.48,.87,1.88,2.62,3.66,4.16,5.75,2.06-5.92,8.34-8.49,17.62,.98,.08,.27,.28,.68,.22,.8-2.65,5.29-1.42,9.68,4.99,16.87,2.54,2.86,5.17,3.95,6.42,1.77,1.76-3.09,3.2-6.54,4.8-9.89,2.6,7.9,6.9,16.7,5.14,23.34,.35,.18,.7,.36,1.05,.54Z" style="fill:#00b637; fill-rule:evenodd;"/><path d="M748.36,403.48c1.31,.8,2.53,1.55,4.02,2.47,1.12-1.92,2.18-3.86,3.36-5.68,.38-.58,.96-1.18,1.66-1.18,1.67-.01,3.67,.75,5.16,.45,1.51-.3,2.56-1.51,3.79-2.3,4.77,4.52,5.31,6.25,3.48,10.15-.4,.85-.97,2.03-.57,3.03,2.58,6.43-.24,8.25-3.08,10.2-.45,.31-.43,1.34-.92,1.54-1.14,.47-2.35,1.09-3.75,.81-1.21-.24-2.74-1.59-4.1-2.52-2.12-1.46-5-2.62-6.18-4.53-2.57-4.13-4.02-8.59-2.87-12.46Z" style="fill:#00b637; fill-rule:evenodd;"/><path d="M308.2,173.58c-1.51,.02-2.65,.04-4.39,.08,1.01,2.23,1.84,4.05,2.73,6.04-2.08,.37-3.64,.66-5.2,.95,.11,1.75,.21,3.5,.34,5.69-5.61,2.2-9.87,.2-15.23-1.44,2.2-1.8,3.85-2.8,5.04-4.17,1.56-1.81,4.21-4.8,3.86-5.69-1.09-2.83-.5-7.63-5.55-6.93-1.71,.24-3.39,.3-5.07,.36-2.98,.11-6.05-.4-7.7,4.34-4.22-2.34-4.16-2.78,.78-7.16,2.82-1.11,5.7-1.91,8.45-3.32,3.46-1.78,6.41-2.43,9.59-1.53,2.56,.74,5.72,.32,7.4,.39,1.58,2.31,2.56,4,3.78,5.48,1.47,1.81,3.16,3.43,1.17,6.91Z" style="fill:#00b637; fill-rule:evenodd;"/><path d="M581.65,393.32c2.28,4.66-.15,9.15-1.52,13.61-1.78,5.79-6.04,10.35-6.59,16.95-.1,1.19-4.02,2.07-6.29,1.95-1.18-.06-3.58-2.74-3.73-4.14-.31-3.01-1.3-6.14,1.72-8.81,1.95-1.72,1.32-6.18,1.67-9.45,.12-1.1-.3-2.34-.37-2.74,5.33-2.66,10.17-5.02,15.12-7.37Z" style="fill:#00b637; fill-rule:evenodd;"/><path d="M206.27,195.76c6.28-8.97,12.01-12.1,17.66-9.47,4.53,2.11,9.17-1.83,13.89-4.53,1.2-.69,2.34-1.8,3.9-3.03-.13,2.82-.23,5.03-.36,7.64-4.36,2.01-8.14,6.79-13.13,6.76-2.12-.01-5.19,3.01-7.79,4.01-5.38,2.07-5.56,1.78-5.48-3.42-2.74,.62-5.47,1.26-8.7,2.04Z" style="fill:#00b637; fill-rule:evenodd;"/><path d="M713.83,376.56c1.29,1.62,2.55,3.26,3.86,4.86,2.56,3.13,5.15,6.24,7.73,9.39,.7,.85,1.62,1.65,2.08,2.55,3.4,6.59,6.95,13.21,9.86,19.92,.74,1.72-.6,3.65-.98,5.49-1.58-1.43-3.75-2.66-4.64-4.27-3.73-6.86-7.1-13.79-10.58-20.67-2.81-5.55-5.57-11.1-8.36-16.62,.34-.21,.68-.43,1.02-.64Z" style="fill:#00b637; fill-rule:evenodd;"/><path d="M814.22,455.3c-.95-.6-1.9-1.11-2.85-1.8-2.78-2.04-4.63-4.14-2.34-6.09-1.39-2.16-2.66-4.12-4.35-6.71,1.94,.86,3.32,1.48,4.08,1.83,1.94,4.62,3.66,8.71,5.38,12.82,0,0,.08-.05,.08-.05Z" style="fill:#00b637; fill-rule:evenodd;"/></g></g></g><g id="Layer_9"><circle cx="442.97" cy="284.91" r="191.69" style="fill:#bbdcf9; mix-blend-mode:overlay; opacity:.2;"/><g style="clip-path:url(#clippath-1);"><path d="M441.59,619.23c-134.27,0-243.12-108.85-243.12-243.12,0,0,66.96,154.08,230.25,154.08,189.12,0,255.99-154.08,255.99-154.08,0,134.27-108.85,243.12-243.12,243.12Z" style="fill:#071c4c; fill-rule:evenodd; mix-blend-mode:overlay; opacity:.35;"/></g><path d="M281.46,252.03c-2.64,12.44-1.93,25.25-14.37,22.62-8.67-1.83-11.53-15.8-8.9-28.24s14.86-20.39,27.3-17.75c12.44,2.64-1.39,10.92-4.03,23.36Z" style="fill:#bbdcf9; mix-blend-mode:overlay; opacity:.4;"/><circle cx="269.64" cy="293.43" r="8.58" style="fill:#bbdcf9; mix-blend-mode:overlay; opacity:.4;"/></g><g id="Layer_11"><path d="M499.14,247.15c-1.29,2.4-2.45,4.55-3.63,6.74-2.13-.22-4.69,.28-5.85-.7-5.08-4.33-12.17-4.14-17.55-8-3.21-2.3-3.06-4.13-2.41-6.82,.29-1.22,.99-2.34,1.82-4.2-1.63,0-2.75-.11-3.84,.04-10.94,1.49-21.54,5.42-32.75,5.77-.52,.01-1.05,.38-1.58,.48-2.04,.34-4.09,.64-6.51,1.04-2.48,2.08-5.77,4.5-8.55,7.39-1.55,1.61-2.23,3.95-3.3,5.96-.89,1.71-1.46,3.65-2.7,5.1-3.85,4.49-8.51,8.53-11.77,13.38-3.03,4.53-6.5,9.66-5.14,15.1,1.2,4.75-.14,9.19-1.33,13.99-.84,3.37-.1,7.47,1.43,10.4,1.79,3.42,5,6.13,7.96,8.82,3.82,3.47,7.6,7.17,12.13,9.78,3.97,2.3,8.72,.83,12.85-1.95,.11-.07,.27-.06,.41-.1,4.69-1.26,9.39-2.47,14.09-3.63,4.54-1.13,9.23-2.06,12.99,1.12,2,1.69,3.14,3.55,6.64,3.27,1.81-.14,4.88,2.41,5.51,4.32,.9,2.79,.12,6.08,.04,9.16-.05,1.74-.96,4.3-.08,5.07,4.53,3.99,7.02,8.98,9.14,14.35,3.19,8.15,5.28,16.02-.4,24.08-2.53,3.59-2.71,7.62-.03,11.84,4.01,6.32,7.32,13.03,7.41,20.72,.02,2.41,.29,5.47,1.79,7.14,4.17,4.65,6.57,9.72,7.62,15.66,.29,1.63,2.71,4.17,4.17,4.24,3.42,.16,6.84-1.01,10.3-1.39,6.6-.73,10.82-4.83,15.12-8.69,2.93-2.63,5.58-5.54,8.16-8.45,2.35-2.64,3.95-6.12,6.8-8.02,2.79-1.84,3.11-4.3,2.09-6.53-1.86-4.05-.25-6.84,1.91-9.18,2.46-2.67,5.43-5.06,8.67-6.78,3.79-2.01,5.31-5.05,4.86-9.11-.61-5.41-.94-11.01-2.86-16.2-2.39-6.41-.19-10.21,3.66-14.15,8.5-8.7,16.89-17.31,24.76-26.19,2.51-2.83,3.35-7.12,5.06-10.99-7.6-.79-14.01-1.44-20.39-1.72-2.39-.1-3.17-.93-4.14-3.14-2.05-4.67-4.04-9.67-7.35-13.56-4.94-5.8-8.65-11.86-11.5-18.5-2.94-6.86-6.02-13.67-9.19-20.73l-4.71-8.73c-10.27-1.84-20.99-1.28-29.79-7.47Z" style="fill:#031342;"/><path d="M396.96,314.71s-10.3,18.08-7.46,25.36-.95,18.02,0,21.19,3.16,11.7,8.22,14.23,8.54,12.02,13.6,12.65,11.7,1.26,14.54-.63,23.08-20.87,26.88-14.86,9.49,1.9,9.49,1.9l-.32,12.65,5.69,4.74s6.64,8.22,2.85,18.66c-3.79,10.43-6.96,16.44-5.06,20.55s7.02,10.52,4.81,15.58,1.48,7.78,2.75,11.58-.69,8.65,1.54,10.79,14.03-6.27,15.92-7.85,7.78-14.63,7.78-14.63l15.59-38.55,6.01-52.17-22.13-37.63-47.3,3.62-32.34,8.5s-8-3.95-10.5-5.57c-1.08-.7-3.07-2.34-4.05-3.17-1.81-1.53-4.88-4.22-6.49-6.92Z" style="fill:#0f2a77;"/></g><g id="Layer_10"><g><g><path d="M500.92,264.69c-1.12,2.9-2.12,5.5-3.14,8.14-1.84,.62-4.06,2.14-5.06,1.62-4.39-2.3-10.52,.69-15.18-1.1-2.78-1.07-2.64-2.96-2.08-5.87,.25-1.32,.86-2.71,1.57-4.87-1.41,.63-2.38,.94-3.32,1.49-9.46,5.58-18.63,13.15-28.32,16.49-.45,.15-.91,.66-1.37,.89-1.76,.87-3.53,1.67-5.63,2.61-2.14,2.63-4.99,5.72-7.39,9.08-1.34,1.87-1.93,4.31-2.85,6.49-.77,1.84-1.26,3.86-2.33,5.47-3.33,5.02-7.36,9.47-10.18,14.47-2.62,4.68-5.63,9.81-4.44,15.21,1.03,4.71-.12,9.16-1.15,13.94-.73,3.36-.09,7.45,1.24,10.34,1.55,3.39,4.32,5.97,6.88,8.42,3.3,3.16,6.58,6.41,10.49,8.3,3.44,1.66,7.54-.74,11.11-4.48,.09-.1,.24-.12,.36-.19,4.06-2.37,8.12-4.85,12.19-7.42,3.92-2.49,7.98-4.97,11.24-3.11,1.73,.99,2.71,2.45,5.74,.89,1.56-.8,4.22,.6,4.76,2.27,.78,2.43,.11,6.01,.04,9.1-.04,1.75-.83,4.64-.07,5.08,3.92,2.27,6.07,6.26,7.9,10.8,2.76,6.87,4.57,13.89-.35,24.13-2.19,4.55-2.34,8.63-.03,11.8,3.46,4.73,6.33,10.11,6.41,17.73,.02,2.39,.25,5.33,1.55,6.41,3.61,2.98,5.68,7.08,6.59,12.58,.25,1.51,2.34,3.08,3.6,2.58,2.96-1.18,5.91-3.68,8.9-5.38,5.71-3.24,9.36-8.85,13.08-14.21,2.53-3.64,4.82-7.43,7.05-11.16,2.03-3.38,3.41-7.35,5.88-10.1,2.41-2.66,2.69-5.18,1.8-7.12-1.61-3.49-.21-6.75,1.65-9.69,2.13-3.35,4.69-6.52,7.5-9,3.28-2.9,4.59-6.21,4.2-10.16-.52-5.25-.82-10.77-2.48-15.5-2.07-5.82-.16-10.16,3.16-14.88,7.35-10.43,14.6-20.1,21.42-29.25,2.17-2.91,2.9-7.18,4.37-11.04-6.57-.77-12.11-.79-17.64-.13-2.07,.26-2.74-.42-3.58-2.45-1.78-4.29-3.5-8.9-6.36-12.05-4.28-4.69-7.48-9.73-9.95-15.57-2.54-6.02-5.21-11.89-7.95-17.92-1.36-2.4-2.72-4.79-4.08-7.17-8.88,1.56-18.15,6.24-25.76,3.52Z" style="fill:#056d11;"/><path d="M501.24,264.86c-1.12,2.9-2.12,5.5-3.14,8.14-1.84,.62-4.06,2.14-5.06,1.62-4.39-2.3-10.52,.69-15.18-1.1-2.78-1.07-2.64-2.96-2.08-5.87,.25-1.32,.86-2.71,1.57-4.87-1.41,.63-2.38,.94-3.32,1.49-9.46,5.58-18.62,13.18-28.32,16.49-.45,.15-.9,.66-1.37,.89-1.76,.87-3.53,1.67-5.63,2.61-2.14,2.63-4.99,5.72-7.39,9.08-1.34,1.87-1.93,4.31-2.85,6.49-.77,1.84-1.26,3.86-2.33,5.47-3.33,5.02-7.36,9.47-10.18,14.47-2.62,4.68-5.63,9.81-4.44,15.21,1.03,4.71-.12,9.16-1.15,13.94-.73,3.36-.09,7.45,1.24,10.34,1.55,3.39,4.32,5.97,6.88,8.42,3.3,3.16,6.58,6.41,10.49,8.3,3.44,1.66,7.53-.76,11.11-4.48,.09-.1,.24-.12,.36-.19,4.06-2.37,8.12-4.85,12.19-7.42,3.92-2.49,7.98-4.97,11.24-3.11,1.73,.99,2.71,2.45,5.74,.89,1.56-.8,4.22,.6,4.76,2.27,.78,2.43,.11,6.01,.04,9.1-.04,1.75-.83,4.64-.07,5.08,3.92,2.27,6.07,6.26,7.9,10.8,2.76,6.87,4.57,13.89-.35,24.13-2.19,4.55-2.34,8.63-.03,11.8,3.46,4.73,6.33,10.11,6.41,17.73,.02,2.39,.25,5.33,1.55,6.41,3.6,2.99,5.68,7.08,6.59,12.58,.25,1.51,2.34,3.08,3.6,2.58,2.96-1.18,5.91-3.68,8.9-5.38,5.71-3.24,9.36-8.85,13.08-14.21,2.53-3.64,4.82-7.43,7.05-11.16,2.03-3.38,3.41-7.36,5.88-10.1s2.69-5.18,1.8-7.12c-1.61-3.49-.21-6.75,1.65-9.69,2.13-3.35,4.69-6.52,7.5-9,3.28-2.9,4.59-6.21,4.2-10.16-.52-5.25-.82-10.77-2.48-15.5-2.07-5.82-.16-10.16,3.16-14.88,7.35-10.43,14.6-20.1,21.42-29.25,2.17-2.91,2.9-7.18,4.37-11.04-6.57-.77-12.11-.81-17.64-.13-2.07,.26-2.74-.42-3.58-2.45-1.78-4.29-3.5-8.9-6.36-12.05-4.28-4.69-7.48-9.73-9.95-15.57-2.54-6.02-5.21-11.89-7.95-17.92-1.36-2.4-2.72-4.79-4.08-7.17-8.88,1.56-18.15,6.24-25.76,3.52Z" style="fill:#056d11;"/><path d="M501.57,265.02c-1.12,2.9-2.12,5.5-3.14,8.14-1.84,.62-4.06,2.14-5.06,1.62-4.39-2.3-10.52,.69-15.18-1.1-2.78-1.07-2.64-2.96-2.08-5.87,.25-1.32,.86-2.71,1.57-4.87-1.41,.63-2.38,.94-3.32,1.49-9.46,5.58-18.62,13.18-28.32,16.49-.45,.15-.9,.66-1.37,.89-1.76,.87-3.53,1.67-5.63,2.61-2.14,2.63-4.99,5.72-7.39,9.08-1.34,1.87-1.93,4.31-2.85,6.49-.77,1.84-1.26,3.86-2.33,5.47-3.33,5.02-7.36,9.47-10.18,14.47-2.62,4.68-5.63,9.81-4.44,15.21,1.03,4.71-.12,9.16-1.15,13.94-.73,3.36-.09,7.45,1.24,10.34,1.55,3.39,4.32,5.97,6.88,8.42,3.3,3.16,6.58,6.41,10.49,8.3,3.44,1.66,7.53-.76,11.11-4.48,.09-.1,.24-.12,.36-.19,4.06-2.37,8.12-4.85,12.19-7.42,3.92-2.49,7.98-4.97,11.24-3.11,1.73,.99,2.71,2.45,5.74,.89,1.56-.8,4.22,.6,4.76,2.27,.78,2.43,.11,6.01,.04,9.1-.04,1.75-.83,4.64-.07,5.08,3.92,2.27,6.07,6.26,7.9,10.8,2.76,6.87,4.57,13.89-.35,24.13-2.19,4.55-2.34,8.63-.03,11.8,3.46,4.73,6.33,10.11,6.41,17.73,.02,2.39,.25,5.33,1.55,6.41,3.6,2.99,5.68,7.08,6.59,12.58,.25,1.51,2.34,3.08,3.6,2.58,2.96-1.18,5.91-3.68,8.9-5.38,5.71-3.24,9.36-8.85,13.08-14.21,2.53-3.64,4.82-7.43,7.05-11.16,2.03-3.38,3.41-7.36,5.88-10.1s2.69-5.18,1.8-7.12c-1.61-3.49-.21-6.75,1.65-9.69,2.13-3.35,4.69-6.52,7.5-9,3.28-2.9,4.59-6.21,4.2-10.16-.52-5.25-.82-10.77-2.48-15.5-2.07-5.82-.16-10.16,3.16-14.88,7.35-10.43,14.6-20.1,21.42-29.25,2.17-2.91,2.9-7.18,4.37-11.04-6.57-.77-12.11-.81-17.64-.13-2.07,.26-2.74-.42-3.58-2.45-1.78-4.29-3.5-8.9-6.36-12.05-4.28-4.69-7.48-9.73-9.95-15.57-2.54-6.02-5.21-11.89-7.95-17.92-1.36-2.4-2.72-4.79-4.08-7.17-8.88,1.56-18.15,6.24-25.76,3.52Z" style="fill:#056d11;"/><path d="M501.89,265.18c-1.12,2.9-2.12,5.5-3.14,8.14-1.84,.62-4.06,2.14-5.06,1.62-4.39-2.3-10.52,.69-15.18-1.1-2.78-1.07-2.64-2.96-2.08-5.87,.25-1.32,.86-2.71,1.57-4.87-1.41,.63-2.38,.94-3.32,1.49-9.46,5.58-18.62,13.18-28.32,16.49-.45,.15-.9,.66-1.37,.89-1.76,.87-3.53,1.67-5.63,2.61-2.14,2.63-4.99,5.72-7.39,9.08-1.34,1.87-1.93,4.31-2.85,6.49-.77,1.84-1.26,3.86-2.33,5.47-3.33,5.02-7.36,9.47-10.18,14.47-2.62,4.68-5.63,9.81-4.44,15.21,1.03,4.71-.12,9.16-1.15,13.94-.73,3.36-.09,7.45,1.24,10.34,1.55,3.39,4.32,5.97,6.88,8.42,3.3,3.16,6.58,6.41,10.49,8.3,3.44,1.66,7.53-.76,11.11-4.48,.09-.1,.24-.12,.36-.19,4.06-2.37,8.12-4.85,12.19-7.42,3.92-2.49,7.98-4.97,11.24-3.11,1.73,.99,2.71,2.45,5.74,.89,1.56-.8,4.22,.6,4.76,2.27,.78,2.43,.11,6.01,.04,9.1-.04,1.75-.83,4.64-.07,5.08,3.92,2.27,6.07,6.26,7.9,10.8,2.76,6.87,4.57,13.89-.35,24.13-2.19,4.55-2.34,8.63-.03,11.8,3.46,4.73,6.33,10.11,6.41,17.73,.02,2.39,.25,5.33,1.55,6.41,3.6,2.99,5.68,7.08,6.59,12.58,.25,1.51,2.34,3.08,3.6,2.58,2.96-1.18,5.91-3.68,8.9-5.38,5.71-3.24,9.36-8.85,13.08-14.21,2.53-3.64,4.82-7.43,7.05-11.16,2.03-3.38,3.41-7.36,5.88-10.1s2.69-5.18,1.8-7.12c-1.61-3.49-.21-6.75,1.65-9.69,2.13-3.35,4.69-6.52,7.5-9,3.28-2.9,4.59-6.21,4.2-10.16-.52-5.25-.82-10.77-2.48-15.5-2.07-5.82-.16-10.16,3.16-14.88,7.35-10.43,14.6-20.1,21.42-29.25,2.17-2.91,2.9-7.18,4.37-11.04-6.57-.77-12.11-.81-17.64-.13-2.07,.26-2.74-.42-3.58-2.45-1.78-4.29-3.5-8.9-6.36-12.05-4.28-4.69-7.48-9.73-9.95-15.57-2.54-6.02-5.21-11.89-7.95-17.92-1.36-2.4-2.72-4.79-4.08-7.17-8.88,1.56-18.15,6.24-25.76,3.52Z" style="fill:#056d11;"/><path d="M502.21,265.35c-1.12,2.9-2.12,5.5-3.14,8.14-1.84,.62-4.06,2.14-5.06,1.62-4.39-2.3-10.52,.69-15.18-1.1-2.78-1.07-2.64-2.96-2.08-5.87,.25-1.32,.86-2.71,1.57-4.87-1.41,.63-2.38,.94-3.32,1.49-9.46,5.58-18.62,13.18-28.32,16.49-.45,.15-.9,.66-1.37,.89-1.76,.87-3.53,1.67-5.63,2.61-2.14,2.63-4.99,5.72-7.39,9.08-1.34,1.87-1.93,4.31-2.85,6.49-.77,1.84-1.26,3.86-2.33,5.47-3.33,5.02-7.36,9.47-10.18,14.47-2.62,4.68-5.63,9.81-4.44,15.21,1.03,4.71-.12,9.16-1.15,13.94-.73,3.36-.09,7.45,1.24,10.34,1.55,3.39,4.32,5.97,6.88,8.42,3.3,3.16,6.58,6.41,10.49,8.3,3.44,1.66,7.53-.76,11.11-4.48,.09-.1,.24-.12,.36-.19,4.06-2.37,8.12-4.85,12.19-7.42,3.92-2.49,7.98-4.97,11.24-3.11,1.73,.99,2.71,2.45,5.74,.89,1.56-.8,4.22,.6,4.76,2.27,.78,2.43,.11,6.01,.04,9.1-.04,1.75-.83,4.64-.07,5.08,3.92,2.27,6.07,6.26,7.9,10.8,2.76,6.87,4.57,13.89-.35,24.13-2.19,4.55-2.34,8.63-.03,11.8,3.46,4.73,6.33,10.11,6.41,17.73,.02,2.39,.25,5.33,1.55,6.41,3.6,2.99,5.68,7.08,6.59,12.58,.25,1.51,2.34,3.08,3.6,2.58,2.96-1.18,5.91-3.68,8.9-5.38,5.71-3.24,9.36-8.85,13.08-14.21,2.53-3.64,4.82-7.43,7.05-11.16,2.03-3.38,3.41-7.36,5.88-10.1s2.69-5.18,1.8-7.12c-1.61-3.49-.21-6.75,1.65-9.69,2.13-3.35,4.69-6.52,7.5-9,3.28-2.9,4.59-6.21,4.2-10.16-.52-5.25-.82-10.77-2.48-15.5-2.07-5.82-.16-10.16,3.16-14.88,7.35-10.43,14.6-20.1,21.42-29.25,2.17-2.91,2.9-7.18,4.37-11.04-6.57-.77-12.11-.81-17.64-.13-2.07,.26-2.74-.42-3.58-2.45-1.78-4.29-3.5-8.9-6.36-12.05-4.28-4.69-7.48-9.73-9.95-15.57-2.54-6.02-5.21-11.89-7.95-17.92-1.36-2.4-2.72-4.79-4.08-7.17-8.88,1.56-18.15,6.24-25.76,3.52Z" style="fill:#056d11;"/><path d="M502.53,265.51c-1.12,2.9-2.12,5.5-3.14,8.14-1.84,.62-4.06,2.14-5.06,1.62-4.39-2.3-10.52,.69-15.18-1.1-2.78-1.07-2.64-2.96-2.08-5.87,.25-1.32,.86-2.71,1.57-4.87-1.41,.63-2.38,.94-3.32,1.49-9.46,5.58-18.62,13.18-28.32,16.49-.45,.15-.9,.66-1.37,.89-1.76,.87-3.53,1.67-5.63,2.61-2.14,2.63-4.99,5.72-7.39,9.08-1.34,1.87-1.93,4.31-2.85,6.49-.77,1.84-1.26,3.86-2.33,5.47-3.33,5.02-7.36,9.47-10.18,14.47-2.62,4.68-5.63,9.81-4.44,15.21,1.03,4.71-.12,9.16-1.15,13.94-.73,3.36-.09,7.45,1.24,10.34,1.55,3.39,4.32,5.97,6.88,8.42,3.3,3.16,6.58,6.41,10.49,8.3,3.44,1.66,7.53-.76,11.11-4.48,.09-.1,.24-.12,.36-.19,4.06-2.37,8.12-4.85,12.19-7.42,3.92-2.49,7.98-4.97,11.24-3.11,1.73,.99,2.71,2.45,5.74,.89,1.56-.8,4.22,.6,4.76,2.27,.78,2.43,.11,6.01,.04,9.1-.04,1.75-.83,4.64-.07,5.08,3.92,2.27,6.07,6.26,7.9,10.8,2.76,6.87,4.57,13.89-.35,24.13-2.19,4.55-2.34,8.63-.03,11.8,3.46,4.73,6.33,10.11,6.41,17.73,.02,2.39,.25,5.33,1.55,6.41,3.6,2.99,5.68,7.08,6.59,12.58,.25,1.51,2.34,3.08,3.6,2.58,2.96-1.18,5.91-3.68,8.9-5.38,5.71-3.24,9.36-8.85,13.08-14.21,2.53-3.64,4.82-7.43,7.05-11.16,2.03-3.38,3.41-7.36,5.88-10.1s2.69-5.18,1.8-7.12c-1.61-3.49-.21-6.75,1.65-9.69,2.13-3.35,4.69-6.52,7.5-9,3.28-2.9,4.59-6.21,4.2-10.16-.52-5.25-.82-10.77-2.48-15.5-2.07-5.82-.16-10.16,3.16-14.88,7.35-10.43,14.6-20.1,21.42-29.25,2.17-2.91,2.9-7.18,4.37-11.04-6.57-.77-12.11-.81-17.64-.13-2.07,.26-2.74-.42-3.58-2.45-1.78-4.29-3.5-8.9-6.36-12.05-4.28-4.69-7.48-9.73-9.95-15.57-2.54-6.02-5.21-11.89-7.95-17.92-1.36-2.4-2.72-4.79-4.08-7.17-8.88,1.56-18.15,6.24-25.76,3.52Z" style="fill:#056d11;"/><path d="M502.86,265.68c-1.12,2.9-2.12,5.5-3.14,8.14-1.84,.62-4.06,2.14-5.06,1.62-4.39-2.3-10.52,.69-15.18-1.1-2.78-1.07-2.64-2.96-2.08-5.87,.25-1.32,.86-2.71,1.57-4.87-1.41,.63-2.38,.94-3.32,1.49-9.46,5.58-18.62,13.18-28.32,16.49-.45,.15-.9,.66-1.37,.89-1.76,.87-3.53,1.67-5.63,2.61-2.14,2.63-4.99,5.72-7.39,9.08-1.34,1.87-1.93,4.31-2.85,6.49-.77,1.84-1.26,3.86-2.33,5.47-3.33,5.02-7.36,9.47-10.18,14.47-2.62,4.68-5.63,9.81-4.44,15.21,1.03,4.71-.12,9.16-1.15,13.94-.73,3.36-.09,7.45,1.24,10.34,1.55,3.39,4.32,5.97,6.88,8.42,3.3,3.16,6.58,6.41,10.49,8.3,3.44,1.66,7.53-.76,11.11-4.48,.09-.1,.24-.12,.36-.19,4.06-2.37,8.12-4.85,12.19-7.42,3.92-2.49,7.98-4.97,11.24-3.11,1.73,.99,2.71,2.45,5.74,.89,1.56-.8,4.22,.6,4.76,2.27,.78,2.43,.11,6.01,.04,9.1-.04,1.75-.83,4.64-.07,5.08,3.92,2.27,6.07,6.26,7.9,10.8,2.76,6.87,4.57,13.89-.35,24.13-2.19,4.55-2.34,8.63-.03,11.8,3.46,4.73,6.33,10.11,6.41,17.73,.02,2.39,.25,5.33,1.55,6.41,3.6,2.99,5.68,7.08,6.59,12.58,.25,1.51,2.34,3.08,3.6,2.58,2.96-1.18,5.91-3.68,8.9-5.38,5.71-3.24,9.36-8.85,13.08-14.21,2.53-3.64,4.82-7.43,7.05-11.16,2.03-3.38,3.41-7.36,5.88-10.1s2.69-5.18,1.8-7.12c-1.61-3.49-.21-6.75,1.65-9.69,2.13-3.35,4.69-6.52,7.5-9,3.28-2.9,4.59-6.21,4.2-10.16-.52-5.25-.82-10.77-2.48-15.5-2.07-5.82-.16-10.16,3.16-14.88,7.35-10.43,14.6-20.1,21.42-29.25,2.17-2.91,2.9-7.18,4.37-11.04-6.57-.77-12.11-.81-17.64-.13-2.07,.26-2.74-.42-3.58-2.45-1.78-4.29-3.5-8.9-6.36-12.05-4.28-4.69-7.48-9.73-9.95-15.57-2.54-6.02-5.21-11.89-7.95-17.92-1.36-2.4-2.72-4.79-4.08-7.17-8.88,1.56-18.15,6.24-25.76,3.52Z" style="fill:#056d11;"/><path d="M503.18,265.84c-1.12,2.9-2.12,5.5-3.14,8.14-1.84,.62-4.06,2.14-5.06,1.62-4.39-2.3-10.52,.69-15.18-1.1-2.78-1.07-2.64-2.96-2.08-5.87,.25-1.32,.86-2.71,1.57-4.87-1.41,.63-2.38,.94-3.32,1.49-9.46,5.58-18.62,13.18-28.32,16.49-.45,.15-.9,.66-1.37,.89-1.76,.87-3.53,1.67-5.63,2.61-2.14,2.63-4.99,5.72-7.39,9.08-1.34,1.87-1.93,4.31-2.85,6.49-.77,1.84-1.26,3.86-2.33,5.47-3.33,5.02-7.36,9.47-10.18,14.47-2.62,4.68-5.63,9.81-4.44,15.21,1.03,4.71-.12,9.16-1.15,13.94-.73,3.36-.09,7.45,1.24,10.34,1.55,3.39,4.32,5.97,6.88,8.42,3.3,3.16,6.58,6.41,10.49,8.3,3.44,1.66,7.53-.76,11.11-4.48,.09-.1,.24-.12,.36-.19,4.06-2.37,8.12-4.85,12.19-7.42,3.92-2.49,7.98-4.97,11.24-3.11,1.73,.99,2.71,2.45,5.74,.89,1.56-.8,4.22,.6,4.76,2.27,.78,2.43,.11,6.01,.04,9.1-.04,1.75-.83,4.64-.07,5.08,3.92,2.27,6.07,6.26,7.9,10.8,2.76,6.87,4.57,13.89-.35,24.13-2.19,4.55-2.34,8.63-.03,11.8,3.46,4.73,6.33,10.11,6.41,17.73,.02,2.39,.25,5.33,1.55,6.41,3.6,2.99,5.68,7.08,6.59,12.58,.25,1.51,2.34,3.08,3.6,2.58,2.96-1.18,5.91-3.68,8.9-5.38,5.71-3.24,9.36-8.85,13.08-14.21,2.53-3.64,4.82-7.43,7.05-11.16,2.03-3.38,3.41-7.36,5.88-10.1s2.69-5.18,1.8-7.12c-1.61-3.49-.21-6.75,1.65-9.69,2.13-3.35,4.69-6.52,7.5-9,3.28-2.9,4.59-6.21,4.2-10.16-.52-5.25-.82-10.77-2.48-15.5-2.07-5.82-.16-10.16,3.16-14.88,7.35-10.43,14.6-20.1,21.42-29.25,2.17-2.91,2.9-7.18,4.37-11.04-6.57-.77-12.11-.81-17.64-.13-2.07,.26-2.74-.42-3.58-2.45-1.78-4.29-3.5-8.9-6.36-12.05-4.28-4.69-7.48-9.73-9.95-15.57-2.54-6.02-5.21-11.89-7.95-17.92-1.36-2.4-2.72-4.79-4.08-7.17-8.88,1.56-18.15,6.24-25.76,3.52Z" style="fill:#056d11;"/><path d="M503.5,266c-1.12,2.9-2.12,5.5-3.14,8.14-1.84,.62-4.06,2.14-5.06,1.62-4.39-2.3-10.52,.69-15.18-1.1-2.78-1.07-2.64-2.96-2.08-5.87,.25-1.32,.86-2.71,1.57-4.87-1.41,.63-2.38,.94-3.32,1.49-9.46,5.58-18.62,13.18-28.32,16.49-.45,.15-.9,.66-1.37,.89-1.76,.87-3.53,1.67-5.63,2.61-2.14,2.63-4.99,5.72-7.39,9.08-1.34,1.87-1.93,4.31-2.85,6.49-.77,1.84-1.26,3.86-2.33,5.47-3.33,5.02-7.36,9.47-10.18,14.47-2.62,4.68-5.63,9.81-4.44,15.21,1.03,4.71-.12,9.16-1.15,13.94-.73,3.36-.09,7.45,1.24,10.34,1.55,3.39,4.32,5.97,6.88,8.42,3.3,3.16,6.58,6.41,10.49,8.3,3.44,1.66,7.53-.76,11.11-4.48,.09-.1,.24-.12,.36-.19,4.06-2.37,8.12-4.85,12.19-7.42,3.92-2.49,7.98-4.97,11.24-3.11,1.73,.99,2.71,2.45,5.74,.89,1.56-.8,4.22,.6,4.76,2.27,.78,2.43,.11,6.01,.04,9.1-.04,1.75-.83,4.64-.07,5.08,3.92,2.27,6.07,6.26,7.9,10.8,2.76,6.87,4.57,13.89-.35,24.13-2.19,4.55-2.34,8.63-.03,11.8,3.46,4.73,6.33,10.11,6.41,17.73,.02,2.39,.25,5.33,1.55,6.41,3.6,2.99,5.68,7.08,6.59,12.58,.25,1.51,2.34,3.08,3.6,2.58,2.96-1.18,5.91-3.68,8.9-5.38,5.71-3.24,9.36-8.85,13.08-14.21,2.53-3.64,4.82-7.43,7.05-11.16,2.03-3.38,3.41-7.36,5.88-10.1s2.69-5.18,1.8-7.12c-1.61-3.49-.21-6.75,1.65-9.69,2.13-3.35,4.69-6.52,7.5-9,3.28-2.9,4.59-6.21,4.2-10.16-.52-5.25-.82-10.77-2.48-15.5-2.07-5.82-.16-10.16,3.16-14.88,7.35-10.43,14.6-20.1,21.42-29.25,2.17-2.91,2.9-7.18,4.37-11.04-6.57-.77-12.11-.81-17.64-.13-2.07,.26-2.74-.42-3.58-2.45-1.78-4.29-3.5-8.9-6.36-12.05-4.28-4.69-7.48-9.73-9.95-15.57-2.54-6.02-5.21-11.89-7.95-17.92-1.36-2.4-2.72-4.79-4.08-7.17-8.88,1.56-18.15,6.24-25.76,3.52Z" style="fill:#056d11;"/><path d="M503.82,266.17c-1.12,2.9-2.12,5.5-3.14,8.14-1.84,.62-4.06,2.14-5.06,1.62-4.39-2.3-10.52,.69-15.18-1.1-2.78-1.07-2.64-2.96-2.08-5.87,.25-1.32,.86-2.71,1.57-4.87-1.41,.63-2.38,.94-3.32,1.49-9.46,5.58-18.62,13.18-28.32,16.49-.45,.15-.9,.66-1.37,.89-1.76,.87-3.53,1.67-5.63,2.61-2.14,2.63-4.99,5.72-7.39,9.08-1.34,1.87-1.93,4.31-2.85,6.49-.77,1.84-1.26,3.86-2.33,5.47-3.33,5.02-7.36,9.47-10.18,14.47-2.62,4.68-5.63,9.81-4.44,15.21,1.03,4.71-.12,9.16-1.15,13.94-.73,3.36-.09,7.45,1.24,10.34,1.55,3.39,4.32,5.97,6.88,8.42,3.3,3.16,6.58,6.41,10.49,8.3,3.44,1.66,7.53-.76,11.11-4.48,.09-.1,.24-.12,.36-.19,4.06-2.37,8.12-4.85,12.19-7.42,3.92-2.49,7.98-4.97,11.24-3.11,1.73,.99,2.71,2.45,5.74,.89,1.56-.8,4.22,.6,4.76,2.27,.78,2.43,.11,6.01,.04,9.1-.04,1.75-.83,4.64-.07,5.08,3.92,2.27,6.07,6.26,7.9,10.8,2.76,6.87,4.57,13.89-.35,24.13-2.19,4.55-2.34,8.63-.03,11.8,3.46,4.73,6.33,10.11,6.41,17.73,.02,2.39,.25,5.33,1.55,6.41,3.6,2.99,5.68,7.08,6.59,12.58,.25,1.51,2.34,3.08,3.6,2.58,2.96-1.18,5.91-3.68,8.9-5.38,5.71-3.24,9.36-8.85,13.08-14.21,2.53-3.64,4.82-7.43,7.05-11.16,2.03-3.38,3.41-7.36,5.88-10.1s2.69-5.18,1.8-7.12c-1.61-3.49-.21-6.75,1.65-9.69,2.13-3.35,4.69-6.52,7.5-9,3.28-2.9,4.59-6.21,4.2-10.16-.52-5.25-.82-10.77-2.48-15.5-2.07-5.82-.16-10.16,3.16-14.88,7.35-10.43,14.6-20.1,21.42-29.25,2.17-2.91,2.9-7.18,4.37-11.04-6.57-.77-12.11-.81-17.64-.13-2.07,.26-2.74-.42-3.58-2.45-1.78-4.29-3.5-8.9-6.36-12.05-4.28-4.69-7.48-9.73-9.95-15.57-2.54-6.02-5.21-11.89-7.95-17.92-1.36-2.4-2.72-4.79-4.08-7.17-8.88,1.56-18.15,6.24-25.76,3.52Z" style="fill:#056d11;"/><path d="M504.14,266.33c-1.12,2.9-2.12,5.5-3.14,8.14-1.84,.62-4.06,2.14-5.06,1.62-4.39-2.3-10.52,.69-15.18-1.1-2.78-1.07-2.64-2.96-2.08-5.87,.25-1.32,.86-2.71,1.57-4.87-1.41,.63-2.38,.94-3.32,1.49-9.46,5.58-18.62,13.18-28.32,16.49-.45,.15-.9,.66-1.37,.89-1.76,.87-3.53,1.67-5.63,2.61-2.14,2.63-4.99,5.72-7.39,9.08-1.34,1.87-1.93,4.31-2.85,6.49-.77,1.84-1.26,3.86-2.33,5.47-3.33,5.02-7.36,9.47-10.18,14.47-2.62,4.68-5.63,9.81-4.44,15.21,1.03,4.71-.12,9.16-1.15,13.94-.73,3.36-.09,7.45,1.24,10.34,1.55,3.39,4.32,5.97,6.88,8.42,3.3,3.16,6.58,6.41,10.49,8.3,3.44,1.66,7.53-.76,11.11-4.48,.09-.1,.24-.12,.36-.19,4.06-2.37,8.12-4.85,12.19-7.42,3.92-2.49,7.98-4.97,11.24-3.11,1.73,.99,2.71,2.45,5.74,.89,1.56-.8,4.22,.6,4.76,2.27,.78,2.43,.11,6.01,.04,9.1-.04,1.75-.83,4.64-.07,5.08,3.92,2.27,6.07,6.26,7.9,10.8,2.76,6.87,4.57,13.89-.35,24.13-2.19,4.55-2.34,8.63-.03,11.8,3.46,4.73,6.33,10.11,6.41,17.73,.02,2.39,.25,5.33,1.55,6.41,3.6,2.99,5.68,7.08,6.59,12.58,.25,1.51,2.34,3.08,3.6,2.58,2.96-1.18,5.91-3.68,8.9-5.38,5.71-3.24,9.36-8.85,13.08-14.21,2.53-3.64,4.82-7.43,7.05-11.16,2.03-3.38,3.41-7.36,5.88-10.1s2.69-5.18,1.8-7.12c-1.61-3.49-.21-6.75,1.65-9.69,2.13-3.35,4.69-6.52,7.5-9,3.28-2.9,4.59-6.21,4.2-10.16-.52-5.25-.82-10.77-2.48-15.5-2.07-5.82-.16-10.16,3.16-14.88,7.35-10.43,14.6-20.1,21.42-29.25,2.17-2.91,2.9-7.18,4.37-11.04-6.57-.77-12.11-.81-17.64-.13-2.07,.26-2.74-.42-3.58-2.45-1.78-4.29-3.5-8.9-6.36-12.05-4.28-4.69-7.48-9.73-9.95-15.57-2.54-6.02-5.21-11.89-7.95-17.92-1.36-2.4-2.72-4.79-4.08-7.17-8.88,1.56-18.15,6.24-25.76,3.52Z" style="fill:#056d11;"/><path d="M504.47,266.5c-1.12,2.9-2.12,5.5-3.14,8.14-1.84,.62-4.06,2.14-5.06,1.62-4.39-2.3-10.52,.69-15.18-1.1-2.78-1.07-2.64-2.96-2.08-5.87,.25-1.32,.86-2.71,1.57-4.87-1.41,.63-2.38,.94-3.32,1.49-9.46,5.58-18.62,13.18-28.32,16.49-.45,.15-.9,.66-1.37,.89-1.76,.87-3.53,1.67-5.63,2.61-2.14,2.63-4.99,5.72-7.39,9.08-1.34,1.87-1.93,4.31-2.85,6.49-.77,1.84-1.26,3.86-2.33,5.47-3.33,5.02-7.36,9.47-10.18,14.47-2.62,4.68-5.63,9.81-4.44,15.21,1.03,4.71-.12,9.16-1.15,13.94-.73,3.36-.09,7.45,1.24,10.34,1.55,3.39,4.32,5.97,6.88,8.42,3.3,3.16,6.58,6.41,10.49,8.3,3.44,1.66,7.53-.76,11.11-4.48,.09-.1,.24-.12,.36-.19,4.06-2.37,8.12-4.85,12.19-7.42,3.92-2.49,7.98-4.97,11.24-3.11,1.73,.99,2.71,2.45,5.74,.89,1.56-.8,4.22,.6,4.76,2.27,.78,2.43,.11,6.01,.04,9.1-.04,1.75-.83,4.64-.07,5.08,3.92,2.27,6.07,6.26,7.9,10.8,2.76,6.87,4.57,13.89-.35,24.13-2.19,4.55-2.34,8.63-.03,11.8,3.46,4.73,6.33,10.11,6.41,17.73,.02,2.39,.25,5.33,1.55,6.41,3.6,2.99,5.68,7.08,6.59,12.58,.25,1.51,2.34,3.08,3.6,2.58,2.96-1.18,5.91-3.68,8.9-5.38,5.71-3.24,9.36-8.85,13.08-14.21,2.53-3.64,4.82-7.43,7.05-11.16,2.03-3.38,3.41-7.36,5.88-10.1s2.69-5.18,1.8-7.12c-1.61-3.49-.21-6.75,1.65-9.69,2.13-3.35,4.69-6.52,7.5-9,3.28-2.9,4.59-6.21,4.2-10.16-.52-5.25-.82-10.77-2.48-15.5-2.07-5.82-.16-10.16,3.16-14.88,7.35-10.43,14.6-20.1,21.42-29.25,2.17-2.91,2.9-7.18,4.37-11.04-6.57-.77-12.11-.81-17.64-.13-2.07,.26-2.74-.42-3.58-2.45-1.78-4.29-3.5-8.9-6.36-12.05-4.28-4.69-7.48-9.73-9.95-15.57-2.54-6.02-5.21-11.89-7.95-17.92-1.36-2.4-2.72-4.79-4.08-7.17-8.88,1.56-18.15,6.24-25.76,3.52Z" style="fill:#056d11;"/><path d="M504.79,266.66c-1.12,2.9-2.12,5.5-3.14,8.14-1.84,.62-4.06,2.14-5.06,1.62-4.39-2.3-10.52,.69-15.18-1.1-2.78-1.07-2.64-2.96-2.08-5.87,.25-1.32,.86-2.71,1.57-4.87-1.41,.63-2.38,.94-3.32,1.49-9.46,5.58-18.62,13.18-28.32,16.49-.45,.15-.9,.66-1.37,.89-1.76,.87-3.53,1.67-5.63,2.61-2.14,2.63-4.99,5.72-7.39,9.08-1.34,1.87-1.93,4.31-2.85,6.49-.77,1.84-1.26,3.86-2.33,5.47-3.33,5.02-7.36,9.47-10.18,14.47-2.62,4.68-5.63,9.81-4.44,15.21,1.03,4.71-.12,9.16-1.15,13.94-.73,3.36-.09,7.45,1.24,10.34,1.55,3.39,4.32,5.97,6.88,8.42,3.3,3.16,6.58,6.41,10.49,8.3,3.44,1.66,7.53-.76,11.11-4.48,.09-.1,.24-.12,.36-.19,4.06-2.37,8.12-4.85,12.19-7.42,3.92-2.49,7.98-4.97,11.24-3.11,1.73,.99,2.71,2.45,5.74,.89,1.56-.8,4.22,.6,4.76,2.27,.78,2.43,.11,6.01,.04,9.1-.04,1.75-.83,4.64-.07,5.08,3.92,2.27,6.07,6.26,7.9,10.8,2.76,6.87,4.57,13.89-.35,24.13-2.19,4.55-2.34,8.63-.03,11.8,3.46,4.73,6.33,10.11,6.41,17.73,.02,2.39,.25,5.33,1.55,6.41,3.6,2.99,5.68,7.08,6.59,12.58,.25,1.51,2.34,3.08,3.6,2.58,2.96-1.18,5.91-3.68,8.9-5.38,5.71-3.24,9.36-8.85,13.08-14.21,2.53-3.64,4.82-7.43,7.05-11.16,2.03-3.38,3.41-7.36,5.88-10.1s2.69-5.18,1.8-7.12c-1.61-3.49-.21-6.75,1.65-9.69,2.13-3.35,4.69-6.52,7.5-9,3.28-2.9,4.59-6.21,4.2-10.16-.52-5.25-.82-10.77-2.48-15.5-2.07-5.82-.16-10.16,3.16-14.88,7.35-10.43,14.6-20.1,21.42-29.25,2.17-2.91,2.9-7.18,4.37-11.04-6.57-.77-12.11-.81-17.64-.13-2.07,.26-2.74-.42-3.58-2.45-1.78-4.29-3.5-8.9-6.36-12.05-4.28-4.69-7.48-9.73-9.95-15.57-2.54-6.02-5.21-11.89-7.95-17.92-1.36-2.4-2.72-4.79-4.08-7.17-8.88,1.56-18.15,6.24-25.76,3.52Z" style="fill:#056d11;"/><path d="M505.11,266.83c-1.12,2.9-2.12,5.5-3.14,8.14-1.84,.62-4.06,2.14-5.06,1.62-4.39-2.3-10.52,.69-15.18-1.1-2.78-1.07-2.64-2.96-2.08-5.87,.25-1.32,.86-2.71,1.57-4.87-1.41,.63-2.38,.94-3.32,1.49-9.46,5.58-18.62,13.18-28.32,16.49-.45,.15-.9,.66-1.37,.89-1.76,.87-3.53,1.67-5.63,2.61-2.14,2.63-4.99,5.72-7.39,9.08-1.34,1.87-1.93,4.31-2.85,6.49-.77,1.84-1.26,3.86-2.33,5.47-3.33,5.02-7.36,9.47-10.18,14.47-2.62,4.68-5.63,9.81-4.44,15.21,1.03,4.71-.12,9.16-1.15,13.94-.73,3.36-.09,7.45,1.24,10.34,1.55,3.39,4.32,5.97,6.88,8.42,3.3,3.16,6.58,6.41,10.49,8.3,3.44,1.66,7.53-.76,11.11-4.48,.09-.1,.24-.12,.36-.19,4.06-2.37,8.12-4.85,12.19-7.42,3.92-2.49,7.98-4.97,11.24-3.11,1.73,.99,2.71,2.45,5.74,.89,1.56-.8,4.22,.6,4.76,2.27,.78,2.43,.11,6.01,.04,9.1-.04,1.75-.83,4.64-.07,5.08,3.92,2.27,6.07,6.26,7.9,10.8,2.76,6.87,4.57,13.89-.35,24.13-2.19,4.55-2.34,8.63-.03,11.8,3.46,4.73,6.33,10.11,6.41,17.73,.02,2.39,.25,5.33,1.55,6.41,3.6,2.99,5.68,7.08,6.59,12.58,.25,1.51,2.34,3.08,3.6,2.58,2.96-1.18,5.91-3.68,8.9-5.38,5.71-3.24,9.36-8.85,13.08-14.21,2.53-3.64,4.82-7.43,7.05-11.16,2.03-3.38,3.41-7.36,5.88-10.1s2.69-5.18,1.8-7.12c-1.61-3.49-.21-6.75,1.65-9.69,2.13-3.35,4.69-6.52,7.5-9,3.28-2.9,4.59-6.21,4.2-10.16-.52-5.25-.82-10.77-2.48-15.5-2.07-5.82-.16-10.16,3.16-14.88,7.35-10.43,14.6-20.1,21.42-29.25,2.17-2.91,2.9-7.18,4.37-11.04-6.57-.77-12.11-.81-17.64-.13-2.07,.26-2.74-.42-3.58-2.45-1.78-4.29-3.5-8.9-6.36-12.05-4.28-4.69-7.48-9.73-9.95-15.57-2.54-6.02-5.21-11.89-7.95-17.92-1.36-2.4-2.72-4.79-4.08-7.17-8.88,1.56-18.15,6.24-25.76,3.52Z" style="fill:#056d11;"/><path d="M505.43,266.99c-1.12,2.9-2.12,5.5-3.14,8.14-1.84,.62-4.06,2.14-5.06,1.62-4.39-2.3-10.52,.69-15.18-1.1-2.78-1.07-2.64-2.96-2.08-5.87,.25-1.32,.86-2.71,1.57-4.87-1.41,.63-2.38,.94-3.32,1.49-9.46,5.58-18.62,13.18-28.32,16.49-.45,.15-.9,.66-1.37,.89-1.76,.87-3.53,1.67-5.63,2.61-2.14,2.63-4.99,5.72-7.39,9.08-1.34,1.87-1.93,4.31-2.85,6.49-.77,1.84-1.26,3.86-2.33,5.47-3.33,5.02-7.36,9.47-10.18,14.47-2.62,4.68-5.63,9.81-4.44,15.21,1.03,4.71-.12,9.16-1.15,13.94-.73,3.36-.09,7.45,1.24,10.34,1.55,3.39,4.32,5.97,6.88,8.42,3.3,3.16,6.58,6.41,10.49,8.3,3.44,1.66,7.53-.76,11.11-4.48,.09-.1,.24-.12,.36-.19,4.06-2.37,8.12-4.85,12.19-7.42,3.92-2.49,7.98-4.97,11.24-3.11,1.73,.99,2.71,2.45,5.74,.89,1.56-.8,4.22,.6,4.76,2.27,.78,2.43,.11,6.01,.04,9.1-.04,1.75-.83,4.64-.07,5.08,3.92,2.27,6.07,6.26,7.9,10.8,2.76,6.87,4.57,13.89-.35,24.13-2.19,4.55-2.34,8.63-.03,11.8,3.46,4.73,6.33,10.11,6.41,17.73,.02,2.39,.25,5.33,1.55,6.41,3.6,2.99,5.68,7.08,6.59,12.58,.25,1.51,2.34,3.08,3.6,2.58,2.96-1.18,5.91-3.68,8.9-5.38,5.71-3.24,9.36-8.85,13.08-14.21,2.53-3.64,4.82-7.43,7.05-11.16,2.03-3.38,3.41-7.36,5.88-10.1s2.69-5.18,1.8-7.12c-1.61-3.49-.21-6.75,1.65-9.69,2.13-3.35,4.69-6.52,7.5-9,3.28-2.9,4.59-6.21,4.2-10.16-.52-5.25-.82-10.77-2.48-15.5-2.07-5.82-.16-10.16,3.16-14.88,7.35-10.43,14.6-20.1,21.42-29.25,2.17-2.91,2.9-7.18,4.37-11.04-6.57-.77-12.11-.81-17.64-.13-2.07,.26-2.74-.42-3.58-2.45-1.78-4.29-3.5-8.9-6.36-12.05-4.28-4.69-7.48-9.73-9.95-15.57-2.54-6.02-5.21-11.89-7.95-17.92-1.36-2.4-2.72-4.79-4.08-7.17-8.88,1.56-18.15,6.24-25.76,3.52Z" style="fill:#056d11;"/><path d="M505.76,267.15c-1.12,2.9-2.12,5.5-3.14,8.14-1.84,.62-4.06,2.14-5.06,1.62-4.39-2.3-10.52,.69-15.18-1.1-2.78-1.07-2.64-2.96-2.08-5.87,.25-1.32,.86-2.71,1.57-4.87-1.41,.63-2.38,.94-3.32,1.49-9.46,5.58-18.62,13.18-28.32,16.49-.45,.15-.9,.66-1.37,.89-1.76,.87-3.53,1.67-5.63,2.61-2.14,2.63-4.99,5.72-7.39,9.08-1.34,1.87-1.93,4.31-2.85,6.49-.77,1.84-1.26,3.86-2.33,5.47-3.33,5.02-7.36,9.47-10.18,14.47-2.62,4.68-5.63,9.81-4.44,15.21,1.03,4.71-.12,9.16-1.15,13.94-.73,3.36-.09,7.45,1.24,10.34,1.55,3.39,4.32,5.97,6.88,8.42,3.3,3.16,6.58,6.41,10.49,8.3,3.44,1.66,7.53-.76,11.11-4.48,.09-.1,.24-.12,.36-.19,4.06-2.37,8.12-4.85,12.19-7.42,3.92-2.49,7.98-4.97,11.24-3.11,1.73,.99,2.71,2.45,5.74,.89,1.56-.8,4.22,.6,4.76,2.27,.78,2.43,.11,6.01,.04,9.1-.04,1.75-.83,4.64-.07,5.08,3.92,2.27,6.07,6.26,7.9,10.8,2.76,6.87,4.57,13.89-.35,24.13-2.19,4.55-2.34,8.63-.03,11.8,3.46,4.73,6.33,10.11,6.41,17.73,.02,2.39,.25,5.33,1.55,6.41,3.6,2.99,5.68,7.08,6.59,12.58,.25,1.51,2.34,3.08,3.6,2.58,2.96-1.18,5.91-3.68,8.9-5.38,5.71-3.24,9.36-8.85,13.08-14.21,2.53-3.64,4.82-7.43,7.05-11.16,2.03-3.38,3.41-7.36,5.88-10.1s2.69-5.18,1.8-7.12c-1.61-3.49-.21-6.75,1.65-9.69,2.13-3.35,4.69-6.52,7.5-9,3.28-2.9,4.59-6.21,4.2-10.16-.52-5.25-.82-10.77-2.48-15.5-2.07-5.82-.16-10.16,3.16-14.88,7.35-10.43,14.6-20.1,21.42-29.25,2.17-2.91,2.9-7.18,4.37-11.04-6.57-.77-12.11-.81-17.64-.13-2.07,.26-2.74-.42-3.58-2.45-1.78-4.29-3.5-8.9-6.36-12.05-4.28-4.69-7.48-9.73-9.95-15.57-2.54-6.02-5.21-11.89-7.95-17.92-1.36-2.4-2.72-4.79-4.08-7.17-8.88,1.56-18.15,6.24-25.76,3.52Z" style="fill:#056d11;"/><path d="M506.08,267.32c-1.12,2.9-2.12,5.5-3.14,8.14-1.84,.62-4.06,2.14-5.06,1.62-4.39-2.3-10.52,.69-15.18-1.1-2.78-1.07-2.64-2.96-2.08-5.87,.25-1.32,.86-2.71,1.57-4.87-1.41,.63-2.38,.94-3.32,1.49-9.46,5.58-18.62,13.18-28.32,16.49-.45,.15-.9,.66-1.37,.89-1.76,.87-3.53,1.67-5.63,2.61-2.14,2.63-4.99,5.72-7.39,9.08-1.34,1.87-1.93,4.31-2.85,6.49-.77,1.84-1.26,3.86-2.33,5.47-3.33,5.02-7.36,9.47-10.18,14.47-2.62,4.68-5.63,9.81-4.44,15.21,1.03,4.71-.12,9.16-1.15,13.94-.73,3.36-.09,7.45,1.24,10.34,1.55,3.39,4.32,5.97,6.88,8.42,3.3,3.16,6.58,6.41,10.49,8.3,3.44,1.66,7.53-.76,11.11-4.48,.09-.1,.24-.12,.36-.19,4.06-2.37,8.12-4.85,12.19-7.42,3.92-2.49,7.98-4.97,11.24-3.11,1.73,.99,2.71,2.45,5.74,.89,1.56-.8,4.22,.6,4.76,2.27,.78,2.43,.11,6.01,.04,9.1-.04,1.75-.83,4.64-.07,5.08,3.92,2.27,6.07,6.26,7.9,10.8,2.76,6.87,4.57,13.89-.35,24.13-2.19,4.55-2.34,8.63-.03,11.8,3.46,4.73,6.33,10.11,6.41,17.73,.02,2.39,.25,5.33,1.55,6.41,3.6,2.99,5.68,7.08,6.59,12.58,.25,1.51,2.34,3.08,3.6,2.58,2.96-1.18,5.91-3.68,8.9-5.38,5.71-3.24,9.36-8.85,13.08-14.21,2.53-3.64,4.82-7.43,7.05-11.16,2.03-3.38,3.41-7.36,5.88-10.1s2.69-5.18,1.8-7.12c-1.61-3.49-.21-6.75,1.65-9.69,2.13-3.35,4.69-6.52,7.5-9,3.28-2.9,4.59-6.21,4.2-10.16-.52-5.25-.82-10.77-2.48-15.5-2.07-5.82-.16-10.16,3.16-14.88,7.35-10.43,14.6-20.1,21.42-29.25,2.17-2.91,2.9-7.18,4.37-11.04-6.57-.77-12.11-.81-17.64-.13-2.07,.26-2.74-.42-3.58-2.45-1.78-4.29-3.5-8.9-6.36-12.05-4.28-4.69-7.48-9.73-9.95-15.57-2.54-6.02-5.21-11.89-7.95-17.92-1.36-2.4-2.72-4.79-4.08-7.17-8.88,1.56-18.15,6.24-25.76,3.52Z" style="fill:#056d11;"/><path d="M506.4,267.48c-1.12,2.9-2.12,5.5-3.14,8.14-1.84,.62-4.06,2.14-5.06,1.62-4.39-2.3-10.52,.69-15.18-1.1-2.78-1.07-2.64-2.96-2.08-5.87,.25-1.32,.86-2.71,1.57-4.87-1.41,.63-2.38,.94-3.32,1.49-9.46,5.58-18.62,13.18-28.32,16.49-.45,.15-.9,.66-1.37,.89-1.76,.87-3.53,1.67-5.63,2.61-2.14,2.63-4.99,5.72-7.39,9.08-1.34,1.87-1.93,4.31-2.85,6.49-.77,1.84-1.26,3.86-2.33,5.47-3.33,5.02-7.36,9.47-10.18,14.47-2.62,4.68-5.63,9.81-4.44,15.21,1.03,4.71-.12,9.16-1.15,13.94-.73,3.36-.09,7.45,1.24,10.34,1.55,3.39,4.32,5.97,6.88,8.42,3.3,3.16,6.58,6.41,10.49,8.3,3.44,1.66,7.53-.76,11.11-4.48,.09-.1,.24-.12,.36-.19,4.06-2.37,8.12-4.85,12.19-7.42,3.92-2.49,7.98-4.97,11.24-3.11,1.73,.99,2.71,2.45,5.74,.89,1.56-.8,4.22,.6,4.76,2.27,.78,2.43,.11,6.01,.04,9.1-.04,1.75-.83,4.64-.07,5.08,3.92,2.27,6.07,6.26,7.9,10.8,2.76,6.87,4.57,13.89-.35,24.13-2.19,4.55-2.34,8.63-.03,11.8,3.46,4.73,6.33,10.11,6.41,17.73,.02,2.39,.25,5.33,1.55,6.41,3.6,2.99,5.68,7.08,6.59,12.58,.25,1.51,2.34,3.08,3.6,2.58,2.96-1.18,5.91-3.68,8.9-5.38,5.71-3.24,9.36-8.85,13.08-14.21,2.53-3.64,4.82-7.43,7.05-11.16,2.03-3.38,3.41-7.36,5.88-10.1s2.69-5.18,1.8-7.12c-1.61-3.49-.21-6.75,1.65-9.69,2.13-3.35,4.69-6.52,7.5-9,3.28-2.9,4.59-6.21,4.2-10.16-.52-5.25-.82-10.77-2.48-15.5-2.07-5.82-.16-10.16,3.16-14.88,7.35-10.43,14.6-20.1,21.42-29.25,2.17-2.91,2.9-7.18,4.37-11.04-6.57-.77-12.11-.81-17.64-.13-2.07,.26-2.74-.42-3.58-2.45-1.78-4.29-3.5-8.9-6.36-12.05-4.28-4.69-7.48-9.73-9.95-15.57-2.54-6.02-5.21-11.89-7.95-17.92-1.36-2.4-2.72-4.79-4.08-7.17-8.88,1.56-18.15,6.24-25.76,3.52Z" style="fill:#056d11;"/><path d="M506.72,267.65c-1.12,2.9-2.12,5.5-3.14,8.14-1.84,.62-4.06,2.14-5.06,1.62-4.39-2.3-10.52,.69-15.18-1.1-2.78-1.07-2.64-2.96-2.08-5.87,.25-1.32,.86-2.71,1.57-4.87-1.41,.63-2.38,.94-3.32,1.49-9.46,5.58-18.62,13.18-28.32,16.49-.45,.15-.9,.66-1.37,.89-1.76,.87-3.53,1.67-5.63,2.61-2.14,2.63-4.99,5.72-7.39,9.08-1.34,1.87-1.93,4.31-2.85,6.49-.77,1.84-1.26,3.86-2.33,5.47-3.33,5.02-7.36,9.47-10.18,14.47-2.62,4.68-5.63,9.81-4.44,15.21,1.03,4.71-.12,9.16-1.15,13.94-.73,3.36-.09,7.45,1.24,10.34,1.55,3.39,4.32,5.97,6.88,8.42,3.3,3.16,6.58,6.41,10.49,8.3,3.44,1.66,7.53-.76,11.11-4.48,.09-.1,.24-.12,.36-.19,4.06-2.37,8.12-4.85,12.19-7.42,3.92-2.49,7.98-4.97,11.24-3.11,1.73,.99,2.71,2.45,5.74,.89,1.56-.8,4.22,.6,4.76,2.27,.78,2.43,.11,6.01,.04,9.1-.04,1.75-.83,4.64-.07,5.08,3.92,2.27,6.07,6.26,7.9,10.8,2.76,6.87,4.57,13.89-.35,24.13-2.19,4.55-2.34,8.63-.03,11.8,3.46,4.73,6.33,10.11,6.41,17.73,.02,2.39,.25,5.33,1.55,6.41,3.6,2.99,5.68,7.08,6.59,12.58,.25,1.51,2.34,3.08,3.6,2.58,2.96-1.18,5.91-3.68,8.9-5.38,5.71-3.24,9.36-8.85,13.08-14.21,2.53-3.64,4.82-7.43,7.05-11.16,2.03-3.38,3.41-7.36,5.88-10.1s2.69-5.18,1.8-7.12c-1.61-3.49-.21-6.75,1.65-9.69,2.13-3.35,4.69-6.52,7.5-9,3.28-2.9,4.59-6.21,4.2-10.16-.52-5.25-.82-10.77-2.48-15.5-2.07-5.82-.16-10.16,3.16-14.88,7.35-10.43,14.6-20.1,21.42-29.25,2.17-2.91,2.9-7.18,4.37-11.04-6.57-.77-12.11-.81-17.64-.13-2.07,.26-2.74-.42-3.58-2.45-1.78-4.29-3.5-8.9-6.36-12.05-4.28-4.69-7.48-9.73-9.95-15.57-2.54-6.02-5.21-11.89-7.95-17.92-1.36-2.4-2.72-4.79-4.08-7.17-8.88,1.56-18.15,6.24-25.76,3.52Z" style="fill:#056d11;"/><path d="M507.05,267.81c-1.12,2.9-2.12,5.5-3.14,8.14-1.84,.62-4.06,2.14-5.06,1.62-4.39-2.3-10.52,.69-15.18-1.1-2.78-1.07-2.64-2.96-2.08-5.87,.25-1.32,.86-2.71,1.57-4.87-1.41,.63-2.38,.94-3.32,1.49-9.46,5.58-18.62,13.18-28.32,16.49-.45,.15-.9,.66-1.37,.89-1.76,.87-3.53,1.67-5.63,2.61-2.14,2.63-4.99,5.72-7.39,9.08-1.34,1.87-1.93,4.31-2.85,6.49-.77,1.84-1.26,3.86-2.33,5.47-3.33,5.02-7.36,9.47-10.18,14.47-2.62,4.68-5.63,9.81-4.44,15.21,1.03,4.71-.12,9.16-1.15,13.94-.73,3.36-.09,7.45,1.24,10.34,1.55,3.39,4.32,5.97,6.88,8.42,3.3,3.16,6.58,6.41,10.49,8.3,3.44,1.66,7.53-.76,11.11-4.48,.09-.1,.24-.12,.36-.19,4.06-2.37,8.12-4.85,12.19-7.42,3.92-2.49,7.98-4.97,11.24-3.11,1.73,.99,2.71,2.45,5.74,.89,1.56-.8,4.22,.6,4.76,2.27,.78,2.43,.11,6.01,.04,9.1-.04,1.75-.83,4.64-.07,5.08,3.92,2.27,6.07,6.26,7.9,10.8,2.76,6.87,4.57,13.89-.35,24.13-2.19,4.55-2.34,8.63-.03,11.8,3.46,4.73,6.33,10.11,6.41,17.73,.02,2.39,.25,5.33,1.55,6.41,3.6,2.99,5.68,7.08,6.59,12.58,.25,1.51,2.34,3.08,3.6,2.58,2.96-1.18,5.91-3.68,8.9-5.38,5.71-3.24,9.36-8.85,13.08-14.21,2.53-3.64,4.82-7.43,7.05-11.16,2.03-3.38,3.41-7.36,5.88-10.1s2.69-5.18,1.8-7.12c-1.61-3.49-.21-6.75,1.65-9.69,2.13-3.35,4.69-6.52,7.5-9,3.28-2.9,4.59-6.21,4.2-10.16-.52-5.25-.82-10.77-2.48-15.5-2.07-5.82-.16-10.16,3.16-14.88,7.35-10.43,14.6-20.1,21.42-29.25,2.17-2.91,2.9-7.18,4.37-11.04-6.57-.77-12.11-.81-17.64-.13-2.07,.26-2.74-.42-3.58-2.45-1.78-4.29-3.5-8.9-6.36-12.05-4.28-4.69-7.48-9.73-9.95-15.57-2.54-6.02-5.21-11.89-7.95-17.92-1.36-2.4-2.72-4.79-4.08-7.17-8.88,1.56-18.15,6.24-25.76,3.52Z" style="fill:#056d11;"/><path d="M507.37,267.97c-1.12,2.9-2.12,5.5-3.14,8.14-1.84,.62-4.06,2.14-5.06,1.62-4.39-2.3-10.52,.69-15.18-1.1-2.78-1.07-2.64-2.96-2.08-5.87,.25-1.32,.86-2.71,1.57-4.87-1.41,.63-2.38,.94-3.32,1.49-9.46,5.58-18.62,13.18-28.32,16.49-.45,.15-.9,.66-1.37,.89-1.76,.87-3.53,1.67-5.63,2.61-2.14,2.63-4.99,5.72-7.39,9.08-1.34,1.87-1.93,4.31-2.85,6.49-.77,1.84-1.26,3.86-2.33,5.47-3.33,5.02-7.36,9.47-10.18,14.47-2.62,4.68-5.63,9.81-4.44,15.21,1.03,4.71-.12,9.16-1.15,13.94-.73,3.36-.09,7.45,1.24,10.34,1.55,3.39,4.32,5.97,6.88,8.42,3.3,3.16,6.58,6.41,10.49,8.3,3.44,1.66,7.53-.76,11.11-4.48,.09-.1,.24-.12,.36-.19,4.06-2.37,8.12-4.85,12.19-7.42,3.92-2.49,7.98-4.97,11.24-3.11,1.73,.99,2.71,2.45,5.74,.89,1.56-.8,4.22,.6,4.76,2.27,.78,2.43,.11,6.01,.04,9.1-.04,1.75-.83,4.64-.07,5.08,3.92,2.27,6.07,6.26,7.9,10.8,2.76,6.87,4.57,13.89-.35,24.13-2.19,4.55-2.34,8.63-.03,11.8,3.46,4.73,6.33,10.11,6.41,17.73,.02,2.39,.25,5.33,1.55,6.41,3.6,2.99,5.68,7.08,6.59,12.58,.25,1.51,2.34,3.08,3.6,2.58,2.96-1.18,5.91-3.68,8.9-5.38,5.71-3.24,9.36-8.85,13.08-14.21,2.53-3.64,4.82-7.43,7.05-11.16,2.03-3.38,3.41-7.36,5.88-10.1s2.69-5.18,1.8-7.12c-1.61-3.49-.21-6.75,1.65-9.69,2.13-3.35,4.69-6.52,7.5-9,3.28-2.9,4.59-6.21,4.2-10.16-.52-5.25-.82-10.77-2.48-15.5-2.07-5.82-.16-10.16,3.16-14.88,7.35-10.43,14.6-20.1,21.42-29.25,2.17-2.91,2.9-7.18,4.37-11.04-6.57-.77-12.11-.81-17.64-.13-2.07,.26-2.74-.42-3.58-2.45-1.78-4.29-3.5-8.9-6.36-12.05-4.28-4.69-7.48-9.73-9.95-15.57-2.54-6.02-5.21-11.89-7.95-17.92-1.36-2.4-2.72-4.79-4.08-7.17-8.88,1.56-18.15,6.24-25.76,3.52Z" style="fill:#056d11;"/><path d="M507.69,268.14c-1.12,2.9-2.12,5.5-3.14,8.14-1.84,.62-4.06,2.14-5.06,1.62-4.39-2.3-10.52,.69-15.18-1.1-2.78-1.07-2.64-2.96-2.08-5.87,.25-1.32,.86-2.71,1.57-4.87-1.41,.63-2.38,.94-3.32,1.49-9.46,5.58-18.62,13.18-28.32,16.49-.45,.15-.9,.66-1.37,.89-1.76,.87-3.53,1.67-5.63,2.61-2.14,2.63-4.99,5.72-7.39,9.08-1.34,1.87-1.93,4.31-2.85,6.49-.77,1.84-1.26,3.86-2.33,5.47-3.33,5.02-7.36,9.47-10.18,14.47-2.62,4.68-5.63,9.81-4.44,15.21,1.03,4.71-.12,9.16-1.15,13.94-.73,3.36-.09,7.45,1.24,10.34,1.55,3.39,4.32,5.97,6.88,8.42,3.3,3.16,6.58,6.41,10.49,8.3,3.44,1.66,7.53-.76,11.11-4.48,.09-.1,.24-.12,.36-.19,4.06-2.37,8.12-4.85,12.19-7.42,3.92-2.49,7.98-4.97,11.24-3.11,1.73,.99,2.71,2.45,5.74,.89,1.56-.8,4.22,.6,4.76,2.27,.78,2.43,.11,6.01,.04,9.1-.04,1.75-.83,4.64-.07,5.08,3.92,2.27,6.07,6.26,7.9,10.8,2.76,6.87,4.57,13.89-.35,24.13-2.19,4.55-2.34,8.63-.03,11.8,3.46,4.73,6.33,10.11,6.41,17.73,.02,2.39,.25,5.33,1.55,6.41,3.6,2.99,5.68,7.08,6.59,12.58,.25,1.51,2.34,3.08,3.6,2.58,2.96-1.18,5.91-3.68,8.9-5.38,5.71-3.24,9.36-8.85,13.08-14.21,2.53-3.64,4.82-7.43,7.05-11.16,2.03-3.38,3.41-7.36,5.88-10.1s2.69-5.18,1.8-7.12c-1.61-3.49-.21-6.75,1.65-9.69,2.13-3.35,4.69-6.52,7.5-9,3.28-2.9,4.59-6.21,4.2-10.16-.52-5.25-.82-10.77-2.48-15.5-2.07-5.82-.16-10.16,3.16-14.88,7.35-10.43,14.6-20.1,21.42-29.25,2.17-2.91,2.9-7.18,4.37-11.04-6.57-.77-12.11-.81-17.64-.13-2.07,.26-2.74-.42-3.58-2.45-1.78-4.29-3.5-8.9-6.36-12.05-4.28-4.69-7.48-9.73-9.95-15.57-2.54-6.02-5.21-11.89-7.95-17.92-1.36-2.4-2.72-4.79-4.08-7.17-8.88,1.56-18.15,6.24-25.76,3.52Z" style="fill:#056d11;"/><path d="M508.01,268.3c-1.12,2.9-2.12,5.5-3.14,8.14-1.84,.62-4.06,2.14-5.06,1.62-4.39-2.3-10.52,.69-15.18-1.1-2.78-1.07-2.64-2.96-2.08-5.87,.25-1.32,.86-2.71,1.57-4.87-1.41,.63-2.38,.94-3.32,1.49-9.46,5.58-18.62,13.18-28.32,16.49-.45,.15-.9,.66-1.37,.89-1.76,.87-3.53,1.67-5.63,2.61-2.14,2.63-4.99,5.72-7.39,9.08-1.34,1.87-1.93,4.31-2.85,6.49-.77,1.84-1.26,3.86-2.33,5.47-3.33,5.02-7.36,9.47-10.18,14.47-2.62,4.68-5.63,9.81-4.44,15.21,1.03,4.71-.12,9.16-1.15,13.94-.73,3.36-.09,7.45,1.24,10.34,1.55,3.39,4.32,5.97,6.88,8.42,3.3,3.16,6.58,6.41,10.49,8.3,3.44,1.66,7.53-.76,11.11-4.48,.09-.1,.24-.12,.36-.19,4.06-2.37,8.12-4.85,12.19-7.42,3.92-2.49,7.98-4.97,11.24-3.11,1.73,.99,2.71,2.45,5.74,.89,1.56-.8,4.22,.6,4.76,2.27,.78,2.43,.11,6.01,.04,9.1-.04,1.75-.83,4.64-.07,5.08,3.92,2.27,6.07,6.26,7.9,10.8,2.76,6.87,4.57,13.89-.35,24.13-2.19,4.55-2.34,8.63-.03,11.8,3.46,4.73,6.33,10.11,6.41,17.73,.02,2.39,.25,5.33,1.55,6.41,3.6,2.99,5.68,7.08,6.59,12.58,.25,1.51,2.34,3.08,3.6,2.58,2.96-1.18,5.91-3.68,8.9-5.38,5.71-3.24,9.36-8.85,13.08-14.21,2.53-3.64,4.82-7.43,7.05-11.16,2.03-3.38,3.41-7.36,5.88-10.1s2.69-5.18,1.8-7.12c-1.61-3.49-.21-6.75,1.65-9.69,2.13-3.35,4.69-6.52,7.5-9,3.28-2.9,4.59-6.21,4.2-10.16-.52-5.25-.82-10.77-2.48-15.5-2.07-5.82-.16-10.16,3.16-14.88,7.35-10.43,14.6-20.1,21.42-29.25,2.17-2.91,2.9-7.18,4.37-11.04-6.57-.77-12.11-.81-17.64-.13-2.07,.26-2.74-.42-3.58-2.45-1.78-4.29-3.5-8.9-6.36-12.05-4.28-4.69-7.48-9.73-9.95-15.57-2.54-6.02-5.21-11.89-7.95-17.92-1.36-2.4-2.72-4.79-4.08-7.17-8.88,1.56-18.15,6.24-25.76,3.52Z" style="fill:#056d11;"/><path d="M508.33,268.47c-1.12,2.9-2.12,5.5-3.14,8.14-1.84,.62-4.06,2.14-5.06,1.62-4.39-2.3-10.52,.69-15.18-1.1-2.78-1.07-2.64-2.96-2.08-5.87,.25-1.32,.86-2.71,1.57-4.87-1.41,.63-2.38,.94-3.32,1.49-9.46,5.58-18.62,13.18-28.32,16.49-.45,.15-.9,.66-1.37,.89-1.76,.87-3.53,1.67-5.63,2.61-2.14,2.63-4.99,5.72-7.39,9.08-1.34,1.87-1.93,4.31-2.85,6.49-.77,1.84-1.26,3.86-2.33,5.47-3.33,5.02-7.36,9.47-10.18,14.47-2.62,4.68-5.63,9.81-4.44,15.21,1.03,4.71-.12,9.16-1.15,13.94-.73,3.36-.09,7.45,1.24,10.34,1.55,3.39,4.32,5.97,6.88,8.42,3.3,3.16,6.58,6.41,10.49,8.3,3.44,1.66,7.53-.76,11.11-4.48,.09-.1,.24-.12,.36-.19,4.06-2.37,8.12-4.85,12.19-7.42,3.92-2.49,7.98-4.97,11.24-3.11,1.73,.99,2.71,2.45,5.74,.89,1.56-.8,4.22,.6,4.76,2.27,.78,2.43,.11,6.01,.04,9.1-.04,1.75-.83,4.64-.07,5.08,3.92,2.27,6.07,6.26,7.9,10.8,2.76,6.87,4.57,13.89-.35,24.13-2.19,4.55-2.34,8.63-.03,11.8,3.46,4.73,6.33,10.11,6.41,17.73,.02,2.39,.25,5.33,1.55,6.41,3.6,2.99,5.68,7.08,6.59,12.58,.25,1.51,2.34,3.08,3.6,2.58,2.96-1.18,5.91-3.68,8.9-5.38,5.71-3.24,9.36-8.85,13.08-14.21,2.53-3.64,4.82-7.43,7.05-11.16,2.03-3.38,3.41-7.36,5.88-10.1s2.69-5.18,1.8-7.12c-1.61-3.49-.21-6.75,1.65-9.69,2.13-3.35,4.69-6.52,7.5-9,3.28-2.9,4.59-6.21,4.2-10.16-.52-5.25-.82-10.77-2.48-15.5-2.07-5.82-.16-10.16,3.16-14.88,7.35-10.43,14.6-20.1,21.42-29.25,2.17-2.91,2.9-7.18,4.37-11.04-6.57-.77-12.11-.81-17.64-.13-2.07,.26-2.74-.42-3.58-2.45-1.78-4.29-3.5-8.9-6.36-12.05-4.28-4.69-7.48-9.73-9.95-15.57-2.54-6.02-5.21-11.89-7.95-17.92-1.36-2.4-2.72-4.79-4.08-7.17-8.88,1.56-18.15,6.24-25.76,3.52Z" style="fill:#056d11;"/><path d="M508.66,268.63c-1.12,2.9-2.12,5.5-3.14,8.14-1.84,.62-4.06,2.14-5.06,1.62-4.39-2.3-10.52,.69-15.18-1.1-2.78-1.07-2.64-2.96-2.08-5.87,.25-1.32,.86-2.71,1.57-4.87-1.41,.63-2.38,.94-3.32,1.49-9.46,5.58-18.62,13.18-28.32,16.49-.45,.15-.9,.66-1.37,.89-1.76,.87-3.53,1.67-5.63,2.61-2.14,2.63-4.99,5.72-7.39,9.08-1.34,1.87-1.93,4.31-2.85,6.49-.77,1.84-1.26,3.86-2.33,5.47-3.33,5.02-7.36,9.47-10.18,14.47-2.62,4.68-5.63,9.81-4.44,15.21,1.03,4.71-.12,9.16-1.15,13.94-.73,3.36-.09,7.45,1.24,10.34,1.55,3.39,4.32,5.97,6.88,8.42,3.3,3.16,6.58,6.41,10.49,8.3,3.44,1.66,7.53-.76,11.11-4.48,.09-.1,.24-.12,.36-.19,4.06-2.37,8.12-4.85,12.19-7.42,3.92-2.49,7.98-4.97,11.24-3.11,1.73,.99,2.71,2.45,5.74,.89,1.56-.8,4.22,.6,4.76,2.27,.78,2.43,.11,6.01,.04,9.1-.04,1.75-.83,4.64-.07,5.08,3.92,2.27,6.07,6.26,7.9,10.8,2.76,6.87,4.57,13.89-.35,24.13-2.19,4.55-2.34,8.63-.03,11.8,3.46,4.73,6.33,10.11,6.41,17.73,.02,2.39,.25,5.33,1.55,6.41,3.6,2.99,5.68,7.08,6.59,12.58,.25,1.51,2.34,3.08,3.6,2.58,2.96-1.18,5.91-3.68,8.9-5.38,5.71-3.24,9.36-8.85,13.08-14.21,2.53-3.64,4.82-7.43,7.05-11.16,2.03-3.38,3.41-7.36,5.88-10.1s2.69-5.18,1.8-7.12c-1.61-3.49-.21-6.75,1.65-9.69,2.13-3.35,4.69-6.52,7.5-9,3.28-2.9,4.59-6.21,4.2-10.16-.52-5.25-.82-10.77-2.48-15.5-2.07-5.82-.16-10.16,3.16-14.88,7.35-10.43,14.6-20.1,21.42-29.25,2.17-2.91,2.9-7.18,4.37-11.04-6.57-.77-12.11-.81-17.64-.13-2.07,.26-2.74-.42-3.58-2.45-1.78-4.29-3.5-8.9-6.36-12.05-4.28-4.69-7.48-9.73-9.95-15.57-2.54-6.02-5.21-11.89-7.95-17.92-1.36-2.4-2.72-4.79-4.08-7.17-8.88,1.56-18.15,6.24-25.76,3.52Z" style="fill:#056d11;"/><path d="M508.98,268.8c-1.12,2.9-2.12,5.5-3.14,8.14-1.84,.62-4.06,2.14-5.06,1.62-4.39-2.3-10.52,.69-15.18-1.1-2.78-1.07-2.64-2.96-2.08-5.87,.25-1.32,.86-2.71,1.57-4.87-1.41,.63-2.38,.94-3.32,1.49-9.46,5.58-18.62,13.18-28.32,16.49-.45,.15-.9,.66-1.37,.89-1.76,.87-3.53,1.67-5.63,2.61-2.14,2.63-4.99,5.72-7.39,9.08-1.34,1.87-1.93,4.31-2.85,6.49-.77,1.84-1.26,3.86-2.33,5.47-3.33,5.02-7.36,9.47-10.18,14.47-2.62,4.68-5.63,9.81-4.44,15.21,1.03,4.71-.12,9.16-1.15,13.94-.73,3.36-.09,7.45,1.24,10.34,1.55,3.39,4.32,5.97,6.88,8.42,3.3,3.16,6.58,6.41,10.49,8.3,3.44,1.66,7.53-.76,11.11-4.48,.09-.1,.24-.12,.36-.19,4.06-2.37,8.12-4.85,12.19-7.42,3.92-2.49,7.98-4.97,11.24-3.11,1.73,.99,2.71,2.45,5.74,.89,1.56-.8,4.22,.6,4.76,2.27,.78,2.43,.11,6.01,.04,9.1-.04,1.75-.83,4.64-.07,5.08,3.92,2.27,6.07,6.26,7.9,10.8,2.76,6.87,4.57,13.89-.35,24.13-2.19,4.55-2.34,8.63-.03,11.8,3.46,4.73,6.33,10.11,6.41,17.73,.02,2.39,.25,5.33,1.55,6.41,3.6,2.99,5.68,7.08,6.59,12.58,.25,1.51,2.34,3.08,3.6,2.58,2.96-1.18,5.91-3.68,8.9-5.38,5.71-3.24,9.36-8.85,13.08-14.21,2.53-3.64,4.82-7.43,7.05-11.16,2.03-3.38,3.41-7.36,5.88-10.1s2.69-5.18,1.8-7.12c-1.61-3.49-.21-6.75,1.65-9.69,2.13-3.35,4.69-6.52,7.5-9,3.28-2.9,4.59-6.21,4.2-10.16-.52-5.25-.82-10.77-2.48-15.5-2.07-5.82-.16-10.16,3.16-14.88,7.35-10.43,14.6-20.1,21.42-29.25,2.17-2.91,2.9-7.18,4.37-11.04-6.57-.77-12.11-.81-17.64-.13-2.07,.26-2.74-.42-3.58-2.45-1.78-4.29-3.5-8.9-6.36-12.05-4.28-4.69-7.48-9.73-9.95-15.57-2.54-6.02-5.21-11.89-7.95-17.92-1.36-2.4-2.72-4.79-4.08-7.17-8.88,1.56-18.15,6.24-25.76,3.52Z" style="fill:#056d11;"/><path d="M509.3,268.96c-1.12,2.9-2.12,5.5-3.14,8.14-1.84,.62-4.06,2.14-5.06,1.62-4.39-2.3-10.52,.69-15.18-1.1-2.78-1.07-2.64-2.96-2.08-5.87,.25-1.32,.86-2.71,1.57-4.87-1.41,.63-2.38,.94-3.32,1.49-9.46,5.58-18.62,13.18-28.32,16.49-.45,.15-.9,.66-1.37,.89-1.76,.87-3.53,1.67-5.63,2.61-2.14,2.63-4.99,5.72-7.39,9.08-1.34,1.87-1.93,4.31-2.85,6.49-.77,1.84-1.26,3.86-2.33,5.47-3.33,5.02-7.36,9.47-10.18,14.47-2.62,4.68-5.63,9.81-4.44,15.21,1.03,4.71-.12,9.16-1.15,13.94-.73,3.36-.09,7.45,1.24,10.34,1.55,3.39,4.32,5.97,6.88,8.42,3.3,3.16,6.58,6.41,10.49,8.3,3.44,1.66,7.53-.76,11.11-4.48,.09-.1,.24-.12,.36-.19,4.06-2.37,8.12-4.85,12.19-7.42,3.92-2.49,7.98-4.97,11.24-3.11,1.73,.99,2.71,2.45,5.74,.89,1.56-.8,4.22,.6,4.76,2.27,.78,2.43,.11,6.01,.04,9.1-.04,1.75-.83,4.64-.07,5.08,3.92,2.27,6.07,6.26,7.9,10.8,2.76,6.87,4.57,13.89-.35,24.13-2.19,4.55-2.34,8.63-.03,11.8,3.46,4.73,6.33,10.11,6.41,17.73,.02,2.39,.25,5.33,1.55,6.41,3.6,2.99,5.68,7.08,6.59,12.58,.25,1.51,2.34,3.08,3.6,2.58,2.96-1.18,5.91-3.68,8.9-5.38,5.71-3.24,9.36-8.85,13.08-14.21,2.53-3.64,4.82-7.43,7.05-11.16,2.03-3.38,3.41-7.36,5.88-10.1s2.69-5.18,1.8-7.12c-1.61-3.49-.21-6.75,1.65-9.69,2.13-3.35,4.69-6.52,7.5-9,3.28-2.9,4.59-6.21,4.2-10.16-.52-5.25-.82-10.77-2.48-15.5-2.07-5.82-.16-10.16,3.16-14.88,7.35-10.43,14.6-20.1,21.42-29.25,2.17-2.91,2.9-7.18,4.37-11.04-6.57-.77-12.11-.81-17.64-.13-2.07,.26-2.74-.42-3.58-2.45-1.78-4.29-3.5-8.9-6.36-12.05-4.28-4.69-7.48-9.73-9.95-15.57-2.54-6.02-5.21-11.89-7.95-17.92-1.36-2.4-2.72-4.79-4.08-7.17-8.88,1.56-18.15,6.24-25.76,3.52Z" style="fill:#056d11;"/><path d="M509.62,269.12c-1.12,2.9-2.12,5.5-3.14,8.14-1.84,.62-4.06,2.14-5.06,1.62-4.39-2.3-10.52,.69-15.18-1.1-2.78-1.07-2.64-2.96-2.08-5.87,.25-1.32,.86-2.71,1.57-4.87-1.41,.63-2.38,.94-3.32,1.49-9.46,5.58-18.62,13.18-28.32,16.49-.45,.15-.9,.66-1.37,.89-1.76,.87-3.53,1.67-5.63,2.61-2.14,2.63-4.99,5.72-7.39,9.08-1.34,1.87-1.93,4.31-2.85,6.49-.77,1.84-1.26,3.86-2.33,5.47-3.33,5.02-7.36,9.47-10.18,14.47-2.62,4.68-5.63,9.81-4.44,15.21,1.03,4.71-.12,9.16-1.15,13.94-.73,3.36-.09,7.45,1.24,10.34,1.55,3.39,4.32,5.97,6.88,8.42,3.3,3.16,6.58,6.41,10.49,8.3,3.44,1.66,7.53-.76,11.11-4.48,.09-.1,.24-.12,.36-.19,4.06-2.37,8.12-4.85,12.19-7.42,3.92-2.49,7.98-4.97,11.24-3.11,1.73,.99,2.71,2.45,5.74,.89,1.56-.8,4.22,.6,4.76,2.27,.78,2.43,.11,6.01,.04,9.1-.04,1.75-.83,4.64-.07,5.08,3.92,2.27,6.07,6.26,7.9,10.8,2.76,6.87,4.57,13.89-.35,24.13-2.19,4.55-2.34,8.63-.03,11.8,3.46,4.73,6.33,10.11,6.41,17.73,.02,2.39,.25,5.33,1.55,6.41,3.6,2.99,5.68,7.08,6.59,12.58,.25,1.51,2.34,3.08,3.6,2.58,2.96-1.18,5.91-3.68,8.9-5.38,5.71-3.24,9.36-8.85,13.08-14.21,2.53-3.64,4.82-7.43,7.05-11.16,2.03-3.38,3.41-7.36,5.88-10.1s2.69-5.18,1.8-7.12c-1.61-3.49-.21-6.75,1.65-9.69,2.13-3.35,4.69-6.52,7.5-9,3.28-2.9,4.59-6.21,4.2-10.16-.52-5.25-.82-10.77-2.48-15.5-2.07-5.82-.16-10.16,3.16-14.88,7.35-10.43,14.6-20.1,21.42-29.25,2.17-2.91,2.9-7.18,4.37-11.04-6.57-.77-12.11-.81-17.64-.13-2.07,.26-2.74-.42-3.58-2.45-1.78-4.29-3.5-8.9-6.36-12.05-4.28-4.69-7.48-9.73-9.95-15.57-2.54-6.02-5.21-11.89-7.95-17.92-1.36-2.4-2.72-4.79-4.08-7.17-8.88,1.56-18.15,6.24-25.76,3.52Z" style="fill:#056d11;"/><path d="M509.95,269.29c-1.12,2.9-2.12,5.5-3.14,8.14-1.84,.62-4.06,2.14-5.06,1.62-4.39-2.3-10.52,.69-15.18-1.1-2.78-1.07-2.64-2.96-2.08-5.87,.25-1.32,.86-2.71,1.57-4.87-1.41,.63-2.38,.94-3.32,1.49-9.46,5.58-18.62,13.18-28.32,16.49-.45,.15-.9,.66-1.37,.89-1.76,.87-3.53,1.67-5.63,2.61-2.14,2.63-4.99,5.72-7.39,9.08-1.34,1.87-1.93,4.31-2.85,6.49-.77,1.84-1.26,3.86-2.33,5.47-3.33,5.02-7.36,9.47-10.18,14.47-2.62,4.68-5.63,9.81-4.44,15.21,1.03,4.71-.12,9.16-1.15,13.94-.73,3.36-.09,7.45,1.24,10.34,1.55,3.39,4.32,5.97,6.88,8.42,3.3,3.16,6.58,6.41,10.49,8.3,3.44,1.66,7.53-.76,11.11-4.48,.09-.1,.24-.12,.36-.19,4.06-2.37,8.12-4.85,12.19-7.42,3.92-2.49,7.98-4.97,11.24-3.11,1.73,.99,2.71,2.45,5.74,.89,1.56-.8,4.22,.6,4.76,2.27,.78,2.43,.11,6.01,.04,9.1-.04,1.75-.83,4.64-.07,5.08,3.92,2.27,6.07,6.26,7.9,10.8,2.76,6.87,4.57,13.89-.35,24.13-2.19,4.55-2.34,8.63-.03,11.8,3.46,4.73,6.33,10.11,6.41,17.73,.02,2.39,.25,5.33,1.55,6.41,3.6,2.99,5.68,7.08,6.59,12.58,.25,1.51,2.34,3.08,3.6,2.58,2.96-1.18,5.91-3.68,8.9-5.38,5.71-3.24,9.36-8.85,13.08-14.21,2.53-3.64,4.82-7.43,7.05-11.16,2.03-3.38,3.41-7.36,5.88-10.1s2.69-5.18,1.8-7.12c-1.61-3.49-.21-6.75,1.65-9.69,2.13-3.35,4.69-6.52,7.5-9,3.28-2.9,4.59-6.21,4.2-10.16-.52-5.25-.82-10.77-2.48-15.5-2.07-5.82-.16-10.16,3.16-14.88,7.35-10.43,14.6-20.1,21.42-29.25,2.17-2.91,2.9-7.18,4.37-11.04-6.57-.77-12.11-.81-17.64-.13-2.07,.26-2.74-.42-3.58-2.45-1.78-4.29-3.5-8.9-6.36-12.05-4.28-4.69-7.48-9.73-9.95-15.57-2.54-6.02-5.21-11.89-7.95-17.92-1.36-2.4-2.72-4.79-4.08-7.17-8.88,1.56-18.15,6.24-25.76,3.52Z" style="fill:#056d11;"/><path d="M510.27,269.45c-1.12,2.9-2.12,5.5-3.14,8.14-1.84,.62-4.06,2.14-5.06,1.62-4.39-2.3-10.52,.69-15.18-1.1-2.78-1.07-2.64-2.96-2.08-5.87,.25-1.32,.86-2.71,1.57-4.87-1.41,.63-2.38,.94-3.32,1.49-9.46,5.58-18.62,13.18-28.32,16.49-.45,.15-.9,.66-1.37,.89-1.76,.87-3.53,1.67-5.63,2.61-2.14,2.63-4.99,5.72-7.39,9.08-1.34,1.87-1.93,4.31-2.85,6.49-.77,1.84-1.26,3.86-2.33,5.47-3.33,5.02-7.36,9.47-10.18,14.47-2.62,4.68-5.63,9.81-4.44,15.21,1.03,4.71-.12,9.16-1.15,13.94-.73,3.36-.09,7.45,1.24,10.34,1.55,3.39,4.32,5.97,6.88,8.42,3.3,3.16,6.58,6.41,10.49,8.3,3.44,1.66,7.53-.76,11.11-4.48,.09-.1,.24-.12,.36-.19,4.06-2.37,8.12-4.85,12.19-7.42,3.92-2.49,7.98-4.97,11.24-3.11,1.73,.99,2.71,2.45,5.74,.89,1.56-.8,4.22,.6,4.76,2.27,.78,2.43,.11,6.01,.04,9.1-.04,1.75-.83,4.64-.07,5.08,3.92,2.27,6.07,6.26,7.9,10.8,2.76,6.87,4.57,13.89-.35,24.13-2.19,4.55-2.34,8.63-.03,11.8,3.46,4.73,6.33,10.11,6.41,17.73,.02,2.39,.25,5.33,1.55,6.41,3.6,2.99,5.68,7.08,6.59,12.58,.25,1.51,2.34,3.08,3.6,2.58,2.96-1.18,5.91-3.68,8.9-5.38,5.71-3.24,9.36-8.85,13.08-14.21,2.53-3.64,4.82-7.43,7.05-11.16,2.03-3.38,3.41-7.36,5.88-10.1s2.69-5.18,1.8-7.12c-1.61-3.49-.21-6.75,1.65-9.69,2.13-3.35,4.69-6.52,7.5-9,3.28-2.9,4.59-6.21,4.2-10.16-.52-5.25-.82-10.77-2.48-15.5-2.07-5.82-.16-10.16,3.16-14.88,7.35-10.43,14.6-20.1,21.42-29.25,2.17-2.91,2.9-7.18,4.37-11.04-6.57-.77-12.11-.81-17.64-.13-2.07,.26-2.74-.42-3.58-2.45-1.78-4.29-3.5-8.9-6.36-12.05-4.28-4.69-7.48-9.73-9.95-15.57-2.54-6.02-5.21-11.89-7.95-17.92-1.36-2.4-2.72-4.79-4.08-7.17-8.88,1.56-18.15,6.24-25.76,3.52Z" style="fill:#056d11;"/><path d="M510.59,269.62c-1.12,2.9-2.12,5.5-3.14,8.14-1.84,.62-4.06,2.14-5.06,1.62-4.39-2.3-10.52,.69-15.18-1.1-2.78-1.07-2.64-2.96-2.08-5.87,.25-1.32,.86-2.71,1.57-4.87-1.41,.63-2.38,.94-3.32,1.49-9.46,5.58-18.62,13.18-28.32,16.49-.45,.15-.9,.66-1.37,.89-1.76,.87-3.53,1.67-5.63,2.61-2.14,2.63-4.99,5.72-7.39,9.08-1.34,1.87-1.93,4.31-2.85,6.49-.77,1.84-1.26,3.86-2.33,5.47-3.33,5.02-7.36,9.47-10.18,14.47-2.62,4.68-5.63,9.81-4.44,15.21,1.03,4.71-.12,9.16-1.15,13.94-.73,3.36-.09,7.45,1.24,10.34,1.55,3.39,4.32,5.97,6.88,8.42,3.3,3.16,6.58,6.41,10.49,8.3,3.44,1.66,7.53-.76,11.11-4.48,.09-.1,.24-.12,.36-.19,4.06-2.37,8.12-4.85,12.19-7.42,3.92-2.49,7.98-4.97,11.24-3.11,1.73,.99,2.71,2.45,5.74,.89,1.56-.8,4.22,.6,4.76,2.27,.78,2.43,.11,6.01,.04,9.1-.04,1.75-.83,4.64-.07,5.08,3.92,2.27,6.07,6.26,7.9,10.8,2.76,6.87,4.57,13.89-.35,24.13-2.19,4.55-2.34,8.63-.03,11.8,3.46,4.73,6.33,10.11,6.41,17.73,.02,2.39,.25,5.33,1.55,6.41,3.6,2.99,5.68,7.08,6.59,12.58,.25,1.51,2.34,3.08,3.6,2.58,2.96-1.18,5.91-3.68,8.9-5.38,5.71-3.24,9.36-8.85,13.08-14.21,2.53-3.64,4.82-7.43,7.05-11.16,2.03-3.38,3.41-7.36,5.88-10.1s2.69-5.18,1.8-7.12c-1.61-3.49-.21-6.75,1.65-9.69,2.13-3.35,4.69-6.52,7.5-9,3.28-2.9,4.59-6.21,4.2-10.16-.52-5.25-.82-10.77-2.48-15.5-2.07-5.82-.16-10.16,3.16-14.88,7.35-10.43,14.6-20.1,21.42-29.25,2.17-2.91,2.9-7.18,4.37-11.04-6.57-.77-12.11-.81-17.64-.13-2.07,.26-2.74-.42-3.58-2.45-1.78-4.29-3.5-8.9-6.36-12.05-4.28-4.69-7.48-9.73-9.95-15.57-2.54-6.02-5.21-11.89-7.95-17.92-1.36-2.4-2.72-4.79-4.08-7.17-8.88,1.56-18.15,6.24-25.76,3.52Z" style="fill:#056d11;"/><path d="M510.91,269.78c-1.12,2.9-2.12,5.5-3.14,8.14-1.84,.62-4.06,2.14-5.06,1.62-4.39-2.3-10.52,.69-15.18-1.1-2.78-1.07-2.64-2.96-2.08-5.87,.25-1.32,.86-2.71,1.57-4.87-1.41,.63-2.38,.94-3.32,1.49-9.46,5.58-18.63,13.15-28.32,16.49-.45,.15-.91,.66-1.37,.89-1.76,.87-3.53,1.67-5.63,2.61-2.14,2.63-4.99,5.72-7.39,9.08-1.34,1.87-1.93,4.31-2.85,6.49-.77,1.84-1.26,3.86-2.33,5.47-3.33,5.02-7.36,9.47-10.18,14.47-2.62,4.68-5.63,9.81-4.44,15.21,1.03,4.71-.12,9.16-1.15,13.94-.73,3.36-.09,7.45,1.24,10.34,1.55,3.39,4.32,5.97,6.88,8.42,3.3,3.16,6.58,6.41,10.49,8.3,3.44,1.66,7.54-.74,11.11-4.48,.09-.1,.24-.12,.36-.19,4.06-2.37,8.12-4.85,12.19-7.42,3.92-2.49,7.98-4.97,11.24-3.11,1.73,.99,2.71,2.45,5.74,.89,1.56-.8,4.22,.6,4.76,2.27,.78,2.43,.11,6.01,.04,9.1-.04,1.75-.83,4.64-.07,5.08,3.92,2.27,6.07,6.26,7.9,10.8,2.76,6.87,4.57,13.89-.35,24.13-2.19,4.55-2.34,8.63-.03,11.8,3.46,4.73,6.33,10.11,6.41,17.73,.02,2.39,.25,5.33,1.55,6.41,3.61,2.98,5.68,7.08,6.59,12.58,.25,1.51,2.34,3.08,3.6,2.58,2.96-1.18,5.91-3.68,8.9-5.38,5.71-3.24,9.36-8.85,13.08-14.21,2.53-3.64,4.82-7.43,7.05-11.16,2.03-3.38,3.41-7.35,5.88-10.1,2.41-2.66,2.69-5.18,1.8-7.12-1.61-3.49-.21-6.75,1.65-9.69,2.13-3.35,4.69-6.52,7.5-9,3.28-2.9,4.59-6.21,4.2-10.16-.52-5.25-.82-10.77-2.48-15.5-2.07-5.82-.16-10.16,3.16-14.88,7.35-10.43,14.6-20.1,21.42-29.25,2.17-2.91,2.9-7.18,4.37-11.04-6.57-.77-12.11-.79-17.64-.13-2.07,.26-2.74-.42-3.58-2.45-1.78-4.29-3.5-8.9-6.36-12.05-4.28-4.69-7.48-9.73-9.95-15.57-2.54-6.02-5.21-11.89-7.95-17.92-1.36-2.4-2.72-4.79-4.08-7.17-8.88,1.56-18.15,6.24-25.76,3.52Z" style="fill:#056d11;"/></g><g><path d="M566.51,321.14c.51,.3,1.15,.39,2.08,.27,.65-.08,1.29-.14,1.94-.2-.1,0-.18,0-.23,0-1.14,0-2.64,.39-3.79-.06Z" style="fill:none;"/><path d="M565.01,318.96c.44,1.07,.85,1.76,1.43,2.14-.53-.51-1.09-1.5-1.57-2.5,.05,.12,.1,.24,.15,.36Z" style="fill:none;"/><path d="M494.48,408.3c.45-3.98-.16-7.47-1.22-10.8,1.36,4.52,1.47,8.2,1.22,10.8Z" style="fill:none;"/><path d="M491.43,392.67c-.82-1.92-1.72-3.71-2.82-5.29,.46,.69,.68,1.16,.68,1.16,.83,1.43,1.54,2.81,2.14,4.14Z" style="fill:none;"/><path d="M570.53,321.21c-.65,.06-1.3,.13-1.94,.2-.93,.12-1.57,.03-2.08-.27-.02,0-.04,0-.05-.02,0,0-.02-.02-.02-.03-.58-.38-.98-1.07-1.43-2.14-.05-.12-.1-.24-.15-.36-.71-1.46-1.24-2.94-1.24-2.94h.03c-1.36-3.23-2.86-6.4-5-8.75-4.28-4.69-7.48-9.73-9.95-15.57-2.54-6.02-5.21-11.89-7.95-17.92-1.36-2.4-2.72-4.79-4.08-7.17-8.88,1.56-18.15,6.24-25.76,3.52l-3.14,8.14c-1.84,.62-4.06,2.14-5.06,1.62-4.39-2.3-10.52,.69-15.18-1.1-2.78-1.07-2.64-2.96-2.08-5.87,.25-1.32,.86-2.71,1.57-4.87-1.41,.63-2.38,.94-3.32,1.49-9.46,5.58-18.63,13.15-28.32,16.49-.45,.15-.91,.66-1.37,.89-1.76,.87-3.53,1.67-5.63,2.61-2.14,2.63-4.99,5.72-7.39,9.08-.83,1.15-1.37,2.52-1.88,3.91-.86,2.85-2.07,5.93-2.47,6.53-.02,.03-.05,.07-.08,.12-.22,.49-.47,.96-.76,1.4-3.33,5.02-7.36,9.47-10.18,14.47-2.62,4.68-5.63,9.81-4.44,15.21,1.03,4.71-.12,9.16-1.15,13.94-.73,3.36-.09,7.45,1.24,10.34,1.55,3.39,4.32,5.97,6.88,8.42,3.3,3.16,6.58,6.41,10.49,8.3,3.44,1.66,7.54-.74,11.11-4.48,.09-.1,.24-.12,.36-.19,4.06-2.37,8.12-4.85,12.19-7.42,3.92-2.49,7.98-4.97,11.24-3.11,1.73,.99,2.71,2.45,5.74,.89,1.56-.8,4.22,.6,4.76,2.27,.78,2.43,.11,6.01,.04,9.1-.04,1.75-.83,4.64-.07,5.08,2.28,1.26,3.8,3.16,4.6,4.37,1.1,1.58,2.01,3.38,2.82,5.29,.77,1.7,1.37,3.31,1.82,4.83,1.06,3.33,1.67,6.83,1.22,10.8-.03,.3-.06,.58-.1,.85v.05c-.16,1.08-.36,1.93-.53,2.51-.49,1.95-1.23,4.01-2.29,6.23-2.19,4.55-2.34,8.63-.03,11.8,3.46,4.73,6.33,10.11,6.41,17.73,.02,2.39,.25,5.33,1.55,6.41,3.61,2.98,5.68,7.08,6.59,12.58,.25,1.51,2.34,3.08,3.6,2.58,2.96-1.18,5.91-3.68,8.9-5.38,5.71-3.24,9.36-8.85,13.08-14.21,2.53-3.64,4.82-7.43,7.05-11.16,2.03-3.38,3.41-7.35,5.88-10.1,2.41-2.66,2.69-5.18,1.8-7.11-1.61-3.49-.21-6.75,1.65-9.69,2.13-3.35,4.69-6.52,7.5-9,3.28-2.9,4.59-6.21,4.2-10.16-.52-5.25-.82-10.77-2.48-15.5-2.07-5.82-.16-10.16,3.16-14.88,7.35-10.43,14.6-20.1,21.42-29.25,2.17-2.91,2.9-7.18,4.37-11.04,0,0-13.52-.3-15.69-.33Z" style="fill:#3bcb51;"/><polygon points="500.92 264.69 497.78 272.83 507.78 277.92 510.91 269.78 500.92 264.69" style="fill:#164c1b;"/><path d="M439.13,302.16c.06-.2,.12-.41,.18-.61,.86-3,4.39-6.88,4.39-6.88l-13.13-.91c-2.75,3.55-2.14,8.1-4.74,11.36-2.6,3.26-10.18,14.47-10.18,14.47l16.46-4.34s3.78-5.43,4.47-6.44c.03-.04,.06-.09,.08-.12,.4-.59,1.61-3.68,2.47-6.53Z" style="fill:#164c1b;"/><path d="M494.38,409.15c.04-.27,.07-.55,.1-.85,.25-2.6,.13-6.28-1.22-10.8-.46-1.52-1.05-3.13-1.82-4.83-.6-1.33-1.31-2.71-2.14-4.14,0,0-.23-.47-.68-1.16-.8-1.21-2.32-3.11-4.6-4.37l-9.99-5.09s7.08,3.64,10.2,18.48l9.31,16.26s.14-.33,.33-.95c.17-.58,.37-1.43,.52-2.51v-.05Z" style="fill:#164c1b;"/><path d="M564.86,318.6c.48,1,1.05,1.99,1.57,2.5,0,0,.02,.02,.02,.03,.02,0,.04,.01,.05,.02,1.15,.46,2.65,.06,3.79,.06,.05,0,.13,0,.23,0,2.18,.03,15.69,.33,15.69,.33l-9.99-5.09-12.59-.78h-.03s.54,1.47,1.24,2.94Z" style="fill:#164c1b;"/></g></g></g><g id="Layer_5"><polygon points="131.82 210.57 96.07 210.57 113.95 189.97 131.82 169.37 149.7 189.97 167.58 210.57 131.82 210.57" style="fill:#f0b8ae;"/><polygon points="131.82 248.97 96.07 248.97 113.95 228.37 131.82 207.77 149.7 228.37 167.58 248.97 131.82 248.97" style="fill:#f2866f;"/><polygon points="131.82 288.05 96.07 288.05 113.95 267.45 131.82 246.85 149.7 267.45 167.58 288.05 131.82 288.05" style="fill:#bbcdcd;"/><circle cx="720.76" cy="579.17" r="52.67" style="fill:#54909e;"/><circle cx="582.09" cy="44.98" r="20.58" style="fill:#f8c378;"/></g></g></svg>